<svg id="SvgjsSvg1037" width="288" height="288" xmlns="http://www.w3.org/2000/svg" version="1.1" xmlns:xlink="http://www.w3.org/1999/xlink" xmlns:svgjs="http://svgjs.com/svgjs"><defs id="SvgjsDefs1038"></defs><g id="SvgjsG1039"><svg xmlns="http://www.w3.org/2000/svg" viewBox="-10 0 1920 2048" width="288" height="288"><path fill="#ffffff" d="M999 -18l2 6v3h-5v3h5q0 -3 3 -3v3q0 6 -5 6t-9 -9q0 -4 9 -9zM955 43q16 0 29 23q-2 32 -26 32q-19 0 -23 -26v-14q8 -15 20 -15zM1086 119h3q20 0 20 20v6q-9 14 -18 14q-17 -7 -17 -26q6 -13 12 -14zM1112 177h8q6 1 6 6v8q0 4 -8 9h-3q-9 -3 -9 -17q1 -6 6 -6zM641 229h9q4 0 9 9v8q0 5 -9 9h-6q-4 0 -8 -9v-11q1 -6 5 -6zM302 281h3q35 8 35 35q-9 35 -32 35q-29 0 -41 -38q0 -29 35 -32zM1179 307l5 9v6q0 4 -8 9h-3q-4 0 -9 -9v-6q0 -7 15 -9zM1338 310h6q4 0 9 9v6q0 4 -9 8q-12 -4 -12 -8v-9q1 -6 6 -6zM621 362h3q6 1 6 6
q-4 12 -9 12h-3q-6 0 -6 -6v-3q0 -4 9 -9zM1591 362q4 0 11 12q-3 6 -3 9h-5l2 -6q-11 0 -11 -12zM456 371h6q23 16 23 35l-9 6h-3q-17 -9 -17 -32v-9zM1576 374h3q6 1 6 6l-9 6v-12zM1588 392h6v2h-6v-2zM543 403h6q5 1 5 6v9q0 5 -5 5h-6q-7 0 -9 -14zM1309 406h3q6 1 6 6
v9q0 5 -6 5h-3q-6 0 -6 -5v-9q1 -6 6 -6zM891 435q5 0 12 12v8q0 5 -9 9h-9q-5 0 -5 -6v-3q0 -15 11 -20zM279 455q5 3 8 3q0 6 -5 6q-6 0 -6 -6q3 0 3 -3zM473 458q18 6 18 23v3q0 6 -6 6h-6q-5 0 -12 -11v-15q1 -6 6 -6zM1222 505q20 0 20 17q-5 13 -11 15h-9
q-4 0 -12 -12q0 -16 12 -20zM1161 511h6q4 0 9 8v15q0 4 -9 8h-3q-5 0 -12 -11v-12q0 -4 9 -8zM700 545l8 12v3q0 4 -11 11h-3q-9 -2 -9 -17q0 -7 15 -9zM850 563h6q6 1 6 6v5h-6q-6 0 -6 -5v-6zM517 583h5q6 1 6 6v9q0 5 -6 5h-5q-6 0 -6 -5v-9q1 -6 6 -6zM1016 589h3
q6 1 6 6v6q0 5 -6 5h-3q-4 0 -9 -8q0 -5 9 -9zM862 595l6 8l-6 3q-6 0 -6 -5q1 -6 6 -6zM322 601v2q0 5 -9 9l-2 -6v-3q1 0 11 -2zM862 627h3q6 1 6 5v9q0 6 -6 6h-6q-4 0 -9 -9q0 -4 12 -11zM752 638h6q4 0 11 12v6q0 5 -6 5h-5q-12 -4 -12 -20zM1025 638q5 1 5 6v6
q0 6 -5 6h-3q-6 0 -6 -6v-3q0 -4 9 -9zM877 644h8v6h-8v-6zM1004 653l3 6l-6 2l-2 -5zM1358 659h21q8 2 8 17v9q-7 14 -11 14h-9q-23 -2 -23 -20q8 -19 14 -20zM343 661h8q4 0 9 9v6q0 5 -12 12h-3q-4 0 -8 -9v-12q1 -6 6 -6zM1135 664h6l32 26v18q0 4 -9 9h-6
q-17 0 -32 -38v-6q0 -4 9 -9zM1507 676l11 12v2q-20 30 -23 30h-6q-4 0 -9 -9v-26q0 -6 27 -9zM888 685q5 3 12 3v8h-6q-6 0 -6 -6v-5zM856 688q4 0 9 8q0 6 -6 6h-3q-6 0 -6 -6v-3q1 -5 6 -5zM909 688h5v2h-5v-2zM993 705h14q5 0 12 12v11q-1 6 -15 12q-13 0 -20 -29z
M813 714h6v3q0 5 -6 5t-6 -5zM87 731q7 6 29 15l3 14q-6 12 -15 12q-13 -6 -14 -12v-14q-9 0 -9 -6v-3q1 -6 6 -6zM949 731h6q6 1 6 6v6q0 6 -6 6h-9q-6 0 -6 -6v-3q0 -4 9 -9zM1350 737h3q5 1 5 6q0 6 -5 6h-3q-6 0 -6 -6q1 -6 6 -6zM795 743h3q6 1 6 6l-3 5q4 0 9 9
q0 6 -6 6q0 -3 -14 -20q0 -6 5 -6zM909 749q0 5 8 5v9q0 7 -20 9l-3 -6v-9q7 0 15 -8zM967 751q4 0 8 9q-6 18 -11 18t-9 -12q6 -13 12 -15zM1181 754q5 0 9 9v3q0 6 -6 6h-3q-5 0 -5 -6v-6q1 -6 5 -6zM1536 754h2q6 1 6 6q0 6 -6 6h-2q-6 0 -6 -6q1 -6 6 -6zM752 757
q3 0 17 26v3q0 6 -6 6h-2q-6 0 -15 -32zM1083 757h17q48 0 58 29v3h3v-6h6v9q-7 0 -9 12l3 5q0 18 -12 18v6q9 0 9 6v23h3v3q0 3 -3 3q7 23 67 78q2 17 9 17h3q20 -5 23 -5l8 5q1 -4 15 -11q13 0 23 6q5 -3 12 -3l9 5h5q2 -14 9 -14h3q4 0 12 20l23 12q0 -3 3 -3
q23 14 23 41l14 2l-2 6q8 0 26 15q6 5 29 9l3 5v6q0 6 -6 6l3 6v6h-3q-13 -14 -35 -29q-9 0 -15 17q3 6 3 9h-3l3 5v27q-37 24 -37 58q-3 0 -3 3q3 5 3 11h-3l3 6q-21 31 -24 61q-22 32 -26 32q-8 0 -8 6q2 5 2 11h-2l-6 -3q0 3 -3 3q6 15 6 21q-3 15 -3 29v3h-32
q0 -12 -9 -12l-3 6v3l9 8v9q6 0 6 3q0 8 -15 14q0 -2 -3 -2v5q8 0 9 12q-6 1 -6 6q12 0 12 6v11q-9 13 -9 20q5 0 12 12l-6 9q12 0 12 11l5 -2v2l15 -8l6 14q-3 6 -3 9q8 3 8 17h-2q0 16 23 24q1 11 8 11v9l-8 -6h-3l-6 3v-6h-3q0 8 -6 18l3 14h-3q-5 -3 -11 -3q-3 6 -3 9
h-3l-15 -3l3 6v3l-8 -6q0 1 -3 12h-6l-15 -3q0 10 -3 26q3 5 3 8h-5l2 6v3h-5q1 6 5 6l3 -15q6 1 6 6v3l-11 18q2 5 2 8l9 -6l3 15l-3 6q3 5 3 11h9v-5q3 0 14 17l-3 6q15 2 15 9l-3 5q4 0 9 9v9q4 0 14 8v3l-6 9l6 9q-4 13 -23 29q-5 -3 -12 -3q0 9 -5 9q0 5 11 5v6
q0 4 -8 9h-3v-6h5v-6l-5 3h-6q-6 0 -6 -6q3 -12 3 -20q-5 -3 -12 -3q-4 18 -8 18l-6 -3q0 13 -12 17h-3v-3l3 -6q-6 -9 -6 -14q8 -15 12 -15v-8h-3l-6 3v-9q15 0 15 -23q0 -7 -23 -15q0 3 -3 3l-3 -6q6 0 6 -3q-9 -18 -9 -26h6v6h5v-6q6 0 6 9q6 0 6 -6l-12 -20v-3l3 -6
q12 4 12 9q12 -5 12 -9h-12l3 -6v-3q-12 0 -12 -5h3q5 2 12 2l3 -5v-3l-6 -9l6 -9l-6 -3h-6q0 9 -6 9h-3l-3 -14q1 -6 6 -6q0 3 3 3v-9l-3 -6q-24 12 -32 12h-3q-31 -18 -31 -23q0 -8 -6 -15q0 -7 6 -32l-24 -26v-6l3 -14q-7 -6 -20 -6l3 -6v-3l-6 -8v-3q0 -8 6 -18l-6 -3
q-13 24 -20 24l5 8v3q-11 13 -11 15l14 29v5q0 6 -5 6h-6q-11 -20 -15 -20q-23 0 -23 -17q0 -8 -12 -32l-5 3h-9v2l-15 -2q-8 2 -8 5q3 6 3 9q-13 7 -35 46h-3q-4 0 -9 -8l3 -12l-3 -17q6 -1 26 -41h3q0 4 12 9l3 -6q-3 -6 -3 -9q3 0 3 -3l-15 -3q-5 3 -11 3q0 -4 -9 -8h-3
v3h6v5h-3q-12 0 -12 -14h-6q0 10 -2 14l-15 -3q-11 9 -20 9q-4 0 -9 -9v-2q0 -6 12 -6v-6l-15 -6v-6q1 -5 6 -5q-3 -15 -6 -15h-9q0 -9 -5 -9h-3l3 6h-3q-12 -3 -12 -11l-14 2h-3q0 -5 -6 -14h9v6h5q6 0 6 -6q-9 -11 -9 -17h-2v11l-6 -3l-12 6l3 6v3q-17 -4 -17 -15l-6 3h-3
q14 -15 14 -20h6l6 3v-9h6v6h9l-21 -38q-6 0 -6 -6q3 0 3 -3h-6q-5 13 -5 15l-9 -6q0 3 -3 3q0 -15 -26 -38q-11 0 -29 -23h-3l-14 3q-12 -15 -12 -18q3 -20 14 -20q-12 -43 -40 -43q-9 0 -23 -24q3 -43 14 -43q8 0 17 17q58 34 76 50h12v-3h-9v-3h11q3 5 3 9h12
q0 -26 41 -35q17 -9 17 -15q26 15 55 15l-3 -6q6 -10 6 -18q-1 -6 -14 -11l2 -6q0 -4 -8 -9q0 3 -3 9q6 1 6 6v3l-6 -3l-3 6l-15 -3h-2q-7 0 -12 3q-12 0 -12 -15h-5v6h-3v-12h5v-3q-11 0 -11 -5q0 -4 17 -24h6q0 10 17 24h3q6 0 6 -6v-6l-14 3q-6 -13 -12 -15
q14 -21 29 -66h-6l3 -18l9 6v-3l-3 -14l6 -3q0 3 3 3v-9l5 3h3v-3l-5 -9q5 -3 11 -3q0 -19 -26 -43v-6h3l6 3q5 -3 8 -3l38 35q21 -17 21 -21q0 -14 -9 -14v-6h9v9l5 -3h18l14 3l-3 -15q3 0 3 -3q6 3 9 3l-6 9v3q6 0 12 12h6l2 -6q-4 0 -11 -6l6 -15q-9 0 -9 -5l6 -9v-3h-3
l-6 3q-9 -39 -9 -44h-3q0 8 -11 9l-3 -14q0 -19 20 -29q0 -15 32 -15q0 -5 15 -6zM1123 763v6h3v-6h-3zM940 766h6q4 0 9 9v5q0 6 -6 6q-4 0 -9 -8v-12zM1039 775v3h9v-3h-9zM1219 772h6q23 0 23 23q0 20 -20 20h-6q-14 -7 -14 -23t11 -20zM1422 772h3q0 6 3 6q-3 5 -3 8h-3
q-5 0 -5 -6v-2q0 -6 5 -6zM1138 778v2h6v-2h-6zM787 778l3 5q0 6 -6 6h-3v-6q1 -5 6 -5zM1147 780l-3 6h11v-3q-3 0 -8 -3zM1042 783v6h6q0 -6 -6 -6zM932 786q31 25 32 29v15l-12 14l6 3h3q12 0 23 -14l6 3q0 -3 3 -3q0 3 3 3q-11 26 -24 26q3 5 3 8l-5 -2h-3l-9 5
q-13 -5 -15 -11v-9h6v-6l-6 3l-14 -17v-15l6 -9v-2q-9 0 -9 -6v-9q1 -6 6 -6zM1123 795v3h6v-3h-6zM1152 795v6h3v-6h-3zM1277 809h6q6 1 6 6q0 6 -6 6t-6 -6v-6zM761 812h2q0 5 9 15v3q0 6 -6 6q-5 0 -5 -6v-3l5 3v-6h-3l-5 3l-3 -6v-3q1 -6 6 -6zM999 818q5 3 8 3v6
q-4 0 -11 6h-3v-6zM1019 830h3v6h-3v-6zM1054 844v6h3v-6h-3zM1446 841h2q6 1 6 6v3q0 6 -6 6q-4 0 -8 -12zM958 850v6h9v-6h-9zM952 856l-3 6v3h9v-3q0 -6 -6 -6zM1054 859q0 3 -3 9q6 0 11 2q0 -8 6 -8v-3h-3q-5 3 -8 3q0 -3 -3 -3zM1379 856h3q5 1 5 6v3q0 5 -5 5h-3
q-6 0 -6 -5v-3q1 -6 6 -6zM769 862h3q23 12 23 17v3l-5 9q0 17 17 17l3 6v12l-6 8q0 10 9 21q-9 7 -9 11h-3q-15 0 -17 -8v-3q0 -3 3 -3q0 -37 -26 -73q5 0 5 -6q-3 -5 -3 -8zM1266 865h2q6 1 6 5q0 5 -8 9q-6 0 -6 -6v-3q1 -5 6 -5zM1065 876v3h9v-3h-9zM740 891h6
q5 0 12 11v3l-6 -3v6h3l6 -3v15h-6q-15 -7 -15 -29zM984 917q1 6 6 6v-6h-6zM1179 923v8h5q-3 -5 -3 -8h-2zM1225 920h3v6h-3v-6zM1231 929h3q5 0 5 5h-2q-6 0 -6 -5zM790 937v3h5v-3h-5zM1132 937q0 7 -6 15v6q0 23 26 55q8 0 21 11h3q0 -6 3 -6l-3 -5v-6q7 0 8 -15
q-4 0 -11 -11v-15q-20 0 -38 -29h-3zM1208 937v3h5v-3h-5zM290 940h9q4 0 14 15v8q-5 11 -17 15q-20 -9 -20 -26zM1686 940h3q6 1 6 6v3q0 6 -6 6h-3q-5 0 -5 -6v-3q1 -6 5 -6zM795 955v3h6v-3h-6zM848 955h2q5 0 9 8v9q0 6 -6 6h-5q-5 0 -9 -9v-6q0 -4 9 -8zM943 960v6h3
v-6h-3zM778 963h6v6h-6v-6zM775 969q5 3 15 3v3q0 6 -6 6l-3 -6l-6 3h-3v-3zM813 969h3q5 1 5 6h-8v-6zM926 975v9q6 0 6 -6v-3h-6zM810 978q34 0 49 49q0 21 -20 21v5q19 0 23 32q0 12 -32 29q0 7 -14 15q-3 20 -9 20q-17 -22 -17 -26q0 -21 31 -35q-5 -36 -29 -72l-20 -27
v-2q1 -6 6 -6h3v8q9 0 9 -8h5q0 6 12 6q0 -4 3 -9zM1460 981q5 0 12 11q0 5 -12 12h-3q-6 0 -6 -6v-9q0 -4 9 -8zM816 987v2h5v-2h-5zM923 989v6q3 0 9 3l3 -6v-5q-5 2 -12 2zM1115 989l-3 12l6 3h2l-2 -15h-3zM1202 992v3h6v-3h-6zM810 1007l9 6v-3q-3 -6 -3 -9q-6 1 -6 6z
M1251 1004l-3 6q3 0 9 3v-3q0 -6 -6 -6zM1263 1004v6h3v-6h-3zM1268 1007v3h6v-3h-6zM1312 1007v6h12v-3zM917 1013v3h6v-3h-6zM833 1016v2h6v-2h-6zM1295 1016v5h5q0 -5 -5 -5zM1196 1018v6h6v-6h-6zM665 1018h6l-3 6h5l6 -3l3 6v3h-3q-3 0 -3 -3l-5 3q-6 0 -6 -6v-6z
M914 1021q1 6 6 6v-6h-6zM955 1021v6h3v-6h-3zM1181 1021q6 7 6 12h3v-3q-3 -6 -3 -9h-6zM1309 1021v6h3v-6h-3zM842 1024v3h6v-3h-6zM920 1030v3h6v-3h-6zM688 1033l14 20v3h-2l-21 -14q0 3 -3 3l3 5v9q-8 0 -8 -20q10 0 17 -6zM909 1042h2q6 0 6 -6h-3q-5 1 -5 6z
M1309 1036v3h6v-3h-6zM920 1039v6h3v-6h-3zM1193 1039v6h3v-6h-3zM1414 1039q0 6 14 9q0 -5 -9 -9h-5zM909 1045v3h5v-3h-5zM772 1048q23 20 23 34v3q-5 0 -5 -8h-3q-6 0 -6 5h6v9l-32 -20q-3 -5 -3 -12v-3q0 -7 20 -8zM903 1050v3h6v-3h-6zM961 1053v6h3v-6h-3zM1268 1059
v3h6v-3h-6zM679 1059h6v6h-6v-6zM1701 1059q26 0 26 29v6q-7 14 -23 14q-26 -3 -26 -26v-8q7 -15 23 -15zM778 1065v3h6v-3h-6zM885 1071h6q6 0 6 -6h-6q-6 1 -6 6zM891 1082q3 0 9 3v-8h-3q-6 0 -6 5zM911 1079l-8 12q3 0 3 3q5 -3 8 -3q6 3 9 3v-3q0 -4 -12 -12zM984 1091
v3h3q0 -6 12 -6v-9h-3q-5 0 -12 12zM798 1085v6h-6q1 -6 6 -6zM943 1088v6h6q0 -6 -6 -6zM975 1088v3h6v-3h-6zM540 1088h6v3q0 6 -6 6t-6 -6zM1147 1094q0 3 -3 3q4 11 8 11h3v-2q-4 -12 -8 -12zM1321 1103v8q6 0 6 6q5 -3 8 -3q0 -4 -11 -11h-3zM1448 1111h3q6 1 6 6v3
q0 6 -6 6zM1483 1111h6q0 7 9 18q-6 3 -9 3l3 6l-6 2q0 -14 -6 -14h-3q6 -7 6 -15zM1025 1117v6h3v-6h-3zM833 1129h3q6 1 6 6v3l-9 -6v8h9v6h-6q-4 0 -9 -8v-3q1 -6 6 -6zM1440 1149l6 9v3q0 6 -6 6h-3q-6 0 -6 -6v-3q0 -4 9 -9zM766 1158v3q3 0 9 3v-6h-9zM807 1167v5
q3 0 9 3l5 -8h-2q-3 0 -3 2l-6 -2h-3zM1001 1175v6h3v-6h-3zM819 1181v6q3 0 8 3v-3q0 -6 -6 -6h-2zM795 1184v12q7 20 21 20q3 5 3 14h8v-11q-11 0 -17 -18l3 -14l-6 -3h-12zM1643 1187h3q4 0 9 9v5q0 6 -6 6h-6q-7 0 -9 -14zM946 1201v6l6 9q-3 0 -3 3l15 3q6 0 6 -6v-9
q0 -4 -12 -9q-5 3 -12 3zM1437 1201h11v12q0 4 -14 14h-3q-4 0 -14 -14q9 -6 17 -6v6l-6 9q13 -6 15 -12zM790 1207q0 6 5 6v-6h-5zM775 1210v6h3v-6h-3zM781 1210v3h6v-3h-6zM993 1219h6v-6q-6 1 -6 6zM1001 1216v6h3v-6h-3zM798 1222v8h3q0 -3 3 -8h-6zM972 1227q5 0 9 9
v3q0 6 -6 29q0 6 15 12v3h6v-18h5q-4 -14 -11 -14l3 -6v-6q-12 0 -12 -17h-3q-6 1 -6 5zM769 1225v5h3v-5h-3zM787 1225v8h3v-8h-3zM909 1233v9q0 16 20 26l-3 6v3h3q0 -3 3 -9q-6 -9 -6 -17h-3l-6 3l-3 -6v-12l6 3h3v-6l-6 3v-9h-3q-5 1 -5 6zM932 1233q1 6 6 6h2v-6h-8z
M929 1245v3q1 6 6 6v-3q0 -6 -6 -6zM955 1245v3h6v-3h-6zM862 1251v6h3v-6h-3zM650 1262h9v6h-3q-6 0 -6 -6zM914 1265v6h3v-6h-3zM987 1265v6h-6q1 -6 6 -6zM830 1274v3q5 11 9 11h3v-8q-9 0 -9 -6h-3zM845 1274v6q8 0 8 6h3v-9zM981 1283v5q6 0 6 -5h-6zM1437 1280l3 6
l-6 2l-3 -5zM943 1286q3 5 3 8h3v-8h-6zM999 1286v5h5v-5h-5zM926 1291q0 5 9 9v-9h-9zM1266 1294v3h5v-3h-5zM766 1300h3l3 15q0 5 -6 5h-5l-3 -14zM839 1309h6v6h-6v-6zM882 1320h6v-5q-6 0 -6 5zM702 1320h3q5 0 9 9l-3 15h-6v-9l3 -6h-6v-9zM694 1326h3l-3 6v9l6 -3l5 9
h-8q-5 0 -9 -9v-6q1 -6 6 -6zM882 1329q5 12 9 12v-3q-3 -6 -3 -9h-6zM900 1335v3q6 0 6 -6v-3q-6 1 -6 6zM865 1352h6v-5q-6 0 -6 5zM897 1352l-3 12q4 0 9 -9v-3h-6zM906 1352v3h5v-3h-5zM1335 1355h6v6h-6v-6zM726 1361q5 1 5 6v6q-2 8 -17 8l-3 -5v-12l15 3v-6z
M1306 1361h9q4 0 9 9v11q0 5 -9 9q-17 -4 -17 -17q4 -12 8 -12zM813 1364h11q5 0 9 12q-4 20 -12 20h-8q-12 -6 -12 -18q6 -13 12 -14zM897 1367v3h6v-3h-6zM1553 1364l9 14q-6 14 -12 15q-15 0 -17 -9v-8q4 -12 20 -12zM1405 1367h3v9h-12q0 -5 9 -9zM1428 1370h6v3h-6v-3z
M926 1376v11q4 0 12 12h2v-3q-8 0 -11 -20h-3zM894 1387q0 5 12 23q-6 3 -9 3q14 16 14 26h-2l2 6q0 6 -5 6h-6q-18 0 -29 -32v-6q0 -26 23 -26zM1434 1387v6h-6q1 -6 6 -6zM1483 1390q12 0 15 23q-12 0 -18 12q0 8 6 17q-5 0 -9 15l6 3q-3 14 -8 14q-3 0 -3 -3l-15 3h-6
q0 -8 -5 -8l2 -6v-3l-5 -9v-12q8 0 8 -11h26q-8 -11 -8 -20q5 -15 14 -15zM1681 1390h5q5 0 9 9v6q0 4 -9 8h-5q-5 0 -9 -8v-6q0 -4 9 -9zM885 1396v6h3v-6h-3zM1356 1393h2q-7 14 -11 14v-5q0 -5 9 -9zM595 1399l3 6v2h-9v-2q1 -6 6 -6zM949 1405v5h3v-5h-3zM1280 1405v5h6
q0 -5 -6 -5zM1361 1402h3v5h-3v-5zM967 1407v6h3v-6h-3zM877 1410v6q5 0 5 -6h-5zM1350 1407h11v6h-11v-6zM859 1410v3q0 6 -6 6v-3q1 -6 6 -6zM885 1419h9v-6h-3q-6 1 -6 6zM1477 1413v6h3v-6h-3zM1448 1413q6 1 6 6v3q-6 0 -6 -6v-3zM1515 1413q3 9 6 9q-3 6 -3 9h-6
q-5 0 -5 -6v-3q0 -4 8 -9zM958 1419v3h6v-3h-6zM1324 1416h3q4 0 8 9v9q0 4 -8 8q-14 -5 -15 -11v-3q0 -5 12 -12zM850 1419l6 3l6 -3l3 6v3q0 4 -12 11q-5 -7 -5 -11q2 -6 2 -9zM894 1422v3h6v-3h-6zM967 1422v6h3v-6h-3zM1033 1428v6h3v-6h-3zM1457 1434h6v-6q-6 1 -6 6z
M885 1431v8h3v-8h-3zM897 1436h3q6 0 6 -5h-3q-6 1 -6 5zM932 1434v2h6v-2h-6zM1463 1436v6h3v-6h-3zM1451 1448v3h6v-3h-6zM1457 1463v5h18v-2q0 -6 -6 -6q-5 3 -12 3zM1315 1468v6h3v-6h-3zM1091 1480v6h9q7 -6 12 -6v-9q-15 9 -21 9zM1306 1471v3h6v-3h-6zM1509 1471h6
q6 1 6 6q-4 12 -9 12h-3q-5 0 -5 -6v-6q1 -6 5 -6zM958 1474q13 6 14 12v11q-8 28 -17 32l-6 3q-10 -6 -23 -6q0 5 -9 9h-3q-5 0 -5 -6v-3q13 -26 34 -26q0 -26 15 -26zM848 1480h2q6 1 6 6v3q0 6 -6 6q-4 0 -8 -9q1 -6 6 -6zM1251 1489v6h3v-6h-3zM862 1489q6 1 6 6
q-3 5 -3 8h-3q-6 0 -6 -6v-2q1 -6 6 -6zM1144 1489v6h-12v-3q2 0 12 -3zM1048 1509h9q5 0 11 20h-14q-4 0 -12 -14q1 -6 6 -6zM1396 1509h3q6 1 6 6v9q0 5 -6 5h-3q-6 0 -6 -5v-9q1 -6 6 -6zM1054 1518v3h5v-3h-5zM1329 1524v2q1 6 6 6v-3q0 -5 -6 -5zM1033 1529h3q6 1 6 6
q0 6 -6 6h-3q-5 0 -5 -6t5 -6zM1268 1538v6l18 -3v-9h-3q-9 6 -15 6zM996 1541h3q4 0 8 9v3q0 4 -8 8q-5 0 -9 -8v-6q1 -6 6 -6zM1077 1541h9q4 0 8 9l-5 3q0 -3 -3 -3v3l3 5h-9q-4 0 -9 -8v-3q1 -6 6 -6zM978 1547v6h-6q1 -6 6 -6zM970 1555q5 1 5 6h-5v-6zM1266 1558v6
q5 0 5 -6h-5zM1338 1558h12v6h-6q-6 0 -6 -6zM1277 1570v9h3v-9h-3zM1329 1570v3q0 6 -5 6v-3q1 -6 5 -6zM1237 1579v6h2v-6h-2zM1263 1582v5h3v-5h-3zM1080 1585h6v2h-6v-2zM1335 1587h9v9h-3q-6 0 -6 -6v-3zM1254 1602v3h6v-9q-6 1 -6 6zM1448 1593h6q17 0 23 18
q-3 14 -8 14q-3 -5 -3 -9q3 -5 3 -8h-6l-6 3q0 -12 -6 -12v15q-5 0 -5 -9h-3v6h-6v-3q5 -13 11 -15zM1097 1608l12 17q-18 21 -18 32h-5q-24 -12 -24 -17v-15q0 -8 35 -17zM264 1616h6v6q-6 0 -6 -6zM1446 1619h11q7 6 12 6v3q0 6 -6 6q0 -6 -6 -6l-9 6l-2 -6l2 -6
q-2 0 -2 -3zM1231 1628h6v3h-6v-3zM1550 1628h3v6h-9q1 -6 6 -6zM1808 1640h6q6 1 6 5v3q0 5 -9 9h-3q-5 0 -5 -6v-6q0 -5 5 -5zM1446 1643h2v5h-2v-5zM1515 1643h6v5h-6v-5zM1562 1643v2q0 6 -6 6v-3q1 -5 6 -5zM1103 1648v9h-6v-3q1 -6 6 -6zM1443 1654h8v6h-3q-5 0 -5 -6
zM1463 1657h3v3q0 6 -6 6h-3v-3q1 -6 6 -6zM1518 1657h12q0 6 -6 6t-6 -6zM1263 1669v3h5v-3h-5zM1257 1680v3h6v-8q-6 0 -6 5zM1231 1675h3q5 0 5 5v3h-5q0 -3 -3 -8zM1286 1686v3h6v-3h-6zM1695 1683q6 1 6 6q0 6 -6 6t-6 -6q1 -6 6 -6zM1118 1686h2q6 1 6 6v9q0 4 -8 8
h-9q-7 0 -9 -11q3 -12 18 -12zM1271 1692v3h9v-3h-9zM1295 1692v6h3v-6h-3zM1283 1701h6v-6q-6 1 -6 6zM1747 1692h6v12h-6v-12zM1756 1692h6v6h-6v-6zM1242 1709v6q6 0 6 -6h-6zM1303 1709v3h6v-3h-6zM926 1709q3 0 3 3l6 -3h14q4 0 9 9v3q-6 12 -15 12l-5 -3l-15 8h-17
q0 9 -6 9v-3l-6 3h-3v-12l29 -26h6zM1135 1718q18 9 52 20v3q-14 44 -20 47h-9q-5 0 -23 -26q-23 -3 -23 -24v-5q7 -15 23 -15zM1782 1733l3 5v6h-3q-6 0 -6 -6q1 -5 6 -5zM1315 1753v3h6v-3h-6zM1295 1756v6q5 0 5 -6h-5zM1419 1753v6h-5q1 -6 5 -6zM1225 1756h3l9 6l5 -3
l3 5v3l-20 -3v-8zM1541 1762h3q6 0 6 5q-4 0 -9 9h6v6h-3q-4 0 -8 -9v-6q0 -5 5 -5zM955 1773q17 6 17 23q0 15 -26 15q-8 -11 -8 -20q0 -4 17 -18zM1219 1773q12 5 12 9h-6l3 6q-6 3 -9 3q-5 -3 -9 -3q9 -11 9 -15zM6 1779h3v6q0 6 -6 6l-3 -6q1 -6 6 -6zM1231 1782h6v6
q-6 0 -6 -6zM1327 1791q0 5 5 5v6h-11l3 -6q-3 0 -3 -2zM1239 1794h6v5q-6 0 -6 -5zM1393 1796h9v6h-3q-6 0 -6 -6zM1315 1802h6v3h-6v-3zM1332 1805q0 4 9 9l9 -6h3q5 1 5 6q-14 1 -14 9h6l6 -3q0 5 5 17q-7 0 -14 6l3 6q0 4 -12 8l-3 -14l3 -6h-6q-19 0 -20 12h-6v-3
l9 -12l-15 -11v-3q6 0 6 -6h6v6l9 -6h3q0 9 -12 9v2q6 0 6 6h6q0 -11 8 -11h3v-6q-8 0 -8 -6zM1300 1811h6v3h-6v-3zM1338 1823v11h3v-11h-3zM1068 1823q16 0 21 11v3q0 20 -21 20q-4 0 -11 -11v-12q0 -4 11 -11zM1329 1825v6q6 0 6 -6h-6zM1393 1825h6v3h-6v-3zM1382 1831
v6h-6q1 -6 6 -6zM1341 1837v6h3v-6h-3zM1295 1837h5v6q-5 0 -5 -6zM1329 1843v6l-2 5q-6 -2 -9 -2v-6l6 3q1 -6 5 -6zM932 1849q17 0 17 17l-9 6h-5q-4 0 -9 -9v-9q1 -5 6 -5zM938 1860v6h2v-6h-2zM1306 1857q5 3 12 3v3l-12 3l-3 -6q3 0 3 -3zM1335 1857v6h-6q1 -6 6 -6z
M1321 1875v3q0 6 -6 6v-3q1 -6 6 -6zM1071 1889l9 15q-4 14 -9 14h-9q-11 -4 -11 -20q10 -9 20 -9zM1213 1889q6 1 6 6v3q0 6 -6 6q-5 0 -5 -6v-3q0 -6 5 -6zM978 1895q31 9 32 20v6q0 4 -14 15h-12q-20 -10 -20 -15v-8q10 -18 14 -18zM943 1944q5 0 9 9q0 5 -12 12
q-5 0 -5 -6v-6q0 -4 8 -9zM1001 1976h3q5 0 9 9l-6 3h-14v-3q0 -4 8 -9zM1335 1976h6v6h-6v-6z" class="colorcurrentColor svgShape"></path></svg></g></svg>