<svg id="SvgjsSvg1057" width="288" height="288" xmlns="http://www.w3.org/2000/svg" version="1.1" xmlns:xlink="http://www.w3.org/1999/xlink" xmlns:svgjs="http://svgjs.com/svgjs"><defs id="SvgjsDefs1058"></defs><g id="SvgjsG1059"><svg xmlns="http://www.w3.org/2000/svg" viewBox="-10 0 3410 2048" width="288" height="288"><path fill="#ffffff" d="M1517 8q12 4 24 32q-5 41 -31 41q-27 0 -34 -29v-10q0 -29 24 -34h17zM1653 95h7q9 5 12 15q-3 10 -12 15q-17 0 -17 -15q6 -15 10 -15zM1624 103q7 9 7 17v2q0 4 -7 7h-7q-4 0 -8 -7v-10q5 -9 15 -9zM115 125q10 3 15 12v9q-3 8 -15 8q-10 -4 -15 -12v-10q3 -7 15 -7zM2034 222q5 1 5 5v7q0 5 -5 5h-2q-5 0 -5 -5v-5q0 -3 7 -7zM1750 292q5 1 5 5v10h-5v-5q0 -2 3 -2l-3 -5v-3zM2358 414q9 11 9 12v5q0 4 -9 9h-5q-10 -3 -10 -17q5 -9 15 -9zM1437 509h5v4h-10q1 -4 5 -4zM1442 513q4 1 4 5l-4 3v-8zM1425 516h2q0 4 5 7l5 -2h2q0 3 -7 7h-5
q-3 0 -7 -7q1 -5 5 -5zM1097 574h4v3h-4v-3zM2688 581h10q5 0 7 20l-10 7h-7q-7 0 -10 -19zM1106 584h5v5h-5v-5zM1092 586q6 5 9 5v5h-2q-3 0 -7 -7v-3zM992 659q0 7 10 7l-3 5q3 5 3 8q-3 0 -3 2h3l7 -5h3v5q-16 7 -25 7l-2 -5h7v-2q-5 -6 -5 -10q3 -4 3 -7l-5 2h-5v-4z
M1816 664h5q0 2 -3 2l3 5v12q12 0 12 44q-15 0 -15 -14v-8q7 0 7 -5v-2l-4 2h-3q0 -10 -5 -21zM980 666l2 5l-2 5q5 1 5 5v2h-3q-7 -2 -7 -14zM1002 669h5v2h-5v-2zM1604 688h3q14 2 14 8v2q0 19 -19 19l-7 -9v-10q0 -4 9 -10zM1845 691h2q10 5 10 14l-10 8h-2q-4 0 -7 -8
v-7q0 -3 7 -7zM3252 691q39 2 39 19q0 37 -51 46q-21 -5 -27 -19v-7q0 -29 39 -39zM958 713q17 0 17 14q0 44 -22 44q-31 -2 -31 -27q0 -18 36 -31zM958 720v2l5 3h2v-3q-2 0 -7 -2zM1590 727h7q4 0 7 7v5q0 4 -7 8h-2q-4 0 -8 -8zM934 744v3h5v-3h-5zM929 751v5h2v-5h-2z
M936 754v5h3v-5h-3zM1789 751q12 3 12 5l5 -2h2v7l5 17q-9 5 -9 15h-5v-15h-12q-12 -6 -13 -10q0 -17 15 -17zM1777 798h7l-2 4v3q7 0 7 5v2h-5q-5 0 -7 -14zM2136 802v3q-2 5 -2 7l7 5v-12h5q0 1 3 10l-8 4h-5q-3 0 -7 -7v-2q0 -4 7 -8zM948 829h5q0 5 -5 5v-5zM2513 829
q5 1 5 5q0 5 -5 5t-5 -5q1 -5 5 -5zM1376 834q5 3 7 3v7h-5q-4 0 -4 -5zM1629 834h2q-2 5 -2 7q-5 0 -5 -4zM1636 841q0 5 5 5v5h-3q-3 0 -7 -7zM1711 841h3v5h-3v-5zM1670 844l15 12l4 -2q8 2 8 4l5 -2q12 10 34 12l2 5v15q5 0 10 2q2 -10 7 -17q15 3 15 17l4 -2q0 2 3 2
q0 -12 17 -19q0 2 2 2q0 -2 3 -2l2 4l-2 5h2q5 -2 7 -2l-2 -5v-2h2l5 2v-2q0 -5 -9 -5v-3q7 -6 7 -9h5q5 17 9 17h3q16 -15 19 -15q7 0 34 39q12 3 32 53l15 12l-3 5v3l5 -3q5 8 5 15v7q5 0 5 3q-3 4 -3 7q17 12 20 24q7 0 7 10h5q0 -6 5 -12v-5l-3 -5h3q5 0 5 7h17q0 5 4 5
l-4 7q4 3 9 3v7h-7q-5 -9 -5 -17h-2l-3 12q3 0 3 3h-3q-2 0 -2 -3l-5 3l-12 -3q0 3 -3 8q5 0 5 7l5 -3q20 13 20 15v2h-8v5l17 -2q0 5 -9 5v5l14 2l-2 -5l2 -14h5q2 0 2 2l5 -2q5 0 5 7h3v-5q5 0 9 2h3v-2q-12 -3 -12 -10h-3v5h-7v-5q0 -3 7 -7q4 0 15 12l7 -5q0 3 2 3
q6 -17 10 -17h3v12q4 -3 7 -3q12 16 12 27l-2 5q15 0 17 7v5q0 15 -10 15v5q21 14 51 21h10q15 -24 17 -24h4q32 11 32 27v2q-7 22 -7 29q5 16 5 22q-17 14 -17 20h-5q-5 0 -5 -5l2 -5q-11 -4 -17 -14l-5 2h-2q-19 -28 -19 -32q-18 0 -27 -5l2 13q0 3 -7 7h-5l-12 -3
q0 19 -24 32q0 37 -22 37q0 4 -17 4q0 -3 -12 -9q-13 20 -17 36h-3q-5 0 -5 -14h-4q-5 0 -5 4l2 13q-2 4 -2 7l5 2q4 -2 7 -2v2q0 3 -3 3l3 17v9l-12 20l2 17v5q0 18 -24 22q-8 -6 -20 -10q2 -29 5 -29q-5 -9 -5 -20v-22q0 -2 -14 -17v-12l-12 -2q-5 2 -8 2q0 -2 -19 -17
q-16 22 -19 22q-2 -12 -18 -12l-12 2q-4 -2 -7 -2q0 9 -53 58v8q6 4 9 4q-1 7 -9 13v2h-8l-2 -12q-12 5 -27 27h-5l3 -5v-3q0 -5 -10 -5l2 -4h-2q0 4 -5 4h-5q-9 -17 -12 -17h-7q-5 20 -10 20h-10q-8 -12 -43 -24l-5 -5l-5 2h-5q0 -11 -5 -17v-12l8 -10q9 1 43 10
q0 -4 15 -7q7 2 7 5l-5 9h3l9 -5l13 8q0 -4 7 -8q10 3 17 3q22 -12 22 -17q-3 0 -3 -3q5 0 10 -24l-5 -2q-11 17 -14 17l-3 -5q7 0 7 -12h-9q9 -9 12 -27l14 -5q3 0 17 12q0 -5 3 -9q-4 0 -7 -8q0 -5 2 -9q-4 -17 -10 -17h-2q-6 7 -22 7v-3h-2q0 15 -5 15v-15q-8 0 -27 -17
v-2h5v-3h-5q0 3 -2 3q0 -9 -15 -20h-12v-9q4 0 7 -5l-2 -5l2 -12q-9 -13 -24 -15v-5h-5q0 8 -5 8v12q0 3 -7 7h-5q-6 0 -22 -5v-2q7 -12 27 -12v2h2q0 -18 20 -22q4 3 7 3l-2 -5v-3q15 0 17 -7v-7h-3l-12 2q0 -5 -32 -24q-3 0 -17 22q1 5 5 5h5l12 -3v8q-5 0 -17 17l-14 4
q-22 0 -22 -34l5 -2h19l-2 -17l5 -2h12q0 -10 17 -20q0 -5 -12 -14q0 -6 -5 -17l2 -5q-2 -5 -2 -8q2 0 2 -2l12 2h3v-4q-8 0 -20 -17q0 -5 5 -30h3l7 5h14q-2 -18 -7 -24q3 0 3 -2l4 2h3l2 -12l-7 -10l2 -17q-3 0 -7 -7v-5l12 2h3q0 -14 7 -14zM1723 851h5v5h-5v-5z
M1323 854h4v4h-4v-4zM1716 883q1 5 5 5v-5h-5zM1779 900l8 5l2 -13v-4q-5 1 -10 12zM1767 892v3q1 5 5 5v-3q0 -5 -5 -5zM1774 892v5h3v-5h-3zM3137 895h15q3 0 15 14v5q-9 17 -25 17q-17 -7 -17 -22q4 -10 12 -14zM1779 919h5v-5q-5 1 -5 5zM2205 912h2q5 1 5 5v5h-3
q-4 0 -4 -5v-5zM1048 914h10v10h-8q0 -5 -7 -5q1 -5 5 -5zM1063 914h7q5 1 5 5h-8q-4 0 -4 -5zM1075 919h5q0 10 4 10v10q-6 -8 -9 -8v-12zM956 922q5 0 5 4h-5v-4zM2246 922h2q5 0 5 4v3q0 5 -5 5h-2q-5 0 -5 -5v-3q1 -4 5 -4zM939 929h5v5h-5v-5zM961 931h4v3h-4v-3z
M1041 931q22 4 22 8l-3 4v3h3q1 -10 7 -10q0 5 7 5v7h-5q-2 0 -2 -2l-5 2h-12q-3 0 -12 -12v-5zM1050 939v4h5q0 -4 -5 -4zM1541 939h8q4 0 4 4q0 5 -4 5t-8 -7v-2zM1468 946h5q5 1 5 5h-10v-5zM1532 948l2 5l-5 3l-2 -5zM1478 953h5v3q0 4 -5 4v-7zM1804 956v4q4 0 4 -4h-4
zM1279 970q0 4 -7 7q-5 0 -5 -4zM3244 975h5q0 5 -5 5v-5zM2017 977q5 1 5 5h-5v-5zM3247 980h5v2h-5v-2zM3108 982h17q17 10 17 15v12q-10 34 -31 34h-10q-23 0 -29 -32q0 -23 36 -29zM922 985h7q28 0 44 19h-3l8 12v15q0 23 -32 29h-7v-5h-5q0 3 -3 7q-33 -8 -36 -12
q-2 0 -2 -2v-3l2 -4q-5 0 -5 -5q0 -3 3 -3q0 -2 -3 -2q3 -22 5 -27q-2 -4 -2 -10q4 0 4 -4l13 2zM936 990v4h3v-4h-3zM948 994v3h8v-3h-8zM1255 992h7v2l-3 5q9 0 22 27v2l-5 3h-2l-5 -3v5l3 5l-5 3h-3q-3 0 -7 -8v-2l5 2l2 -5v-2h-5l-4 2q-8 -10 -8 -21q10 -4 10 -8
q-2 -4 -2 -7zM2022 992h3v7h-8v-2q1 -5 5 -5zM900 997v5h2v-5h-2zM1532 997h2q3 0 12 12v2q-2 8 -14 8h-3q-13 0 -17 -10v-5q2 -7 20 -7zM958 1002q0 2 -2 7q2 0 7 2v-2q-2 -5 -2 -7h-3zM1738 1002v5h2v-5h-2zM1340 1004h4v7h-4v-7zM1935 1007v12h2q4 0 8 -8v-2zM897 1009v7
h3q0 -2 2 -7h-5zM1264 1011v5h5q0 -5 -5 -5zM1648 1014q3 5 3 7h4v-7h-7zM2056 1011h5v5h-5v-5zM2015 1014v10q0 3 -7 7h-3q0 -8 -2 -12h2l5 2q0 -7 5 -7zM1976 1019v2h5v-2h-5zM1952 1024v4h2v-4h-2zM1979 1024v4h2v-4h-2zM2025 1021h5v3h-5v-3zM2042 1021h2v3q0 4 -5 4
l-2 -4zM2066 1021q0 5 7 5v5l-12 -3v-2q1 -5 5 -5zM956 1026v5h2v-5h-2zM2047 1024q4 0 4 4v5h-4v-9zM936 1028v3h5v-3h-5zM902 1031l-2 5h10v-3q-3 0 -8 -2zM951 1031v5h5q0 -5 -5 -5zM1284 1028h12q3 0 7 8h-2l-12 -3v3q2 4 2 9q-7 -2 -7 -14v-3zM2037 1028h2v5h-7
q1 -5 5 -5zM1306 1036v5h-5q0 -5 5 -5zM1665 1038v3h5v-3h-5zM905 1041q0 4 5 4v-4h-5zM1298 1038v10h-5v-5q1 -5 5 -5zM2146 1038l3 5l-5 2l-3 -4zM1668 1045v3h4v-3h-4zM1660 1048v5h3v-5h-3zM2224 1045q12 4 12 17q-7 13 -19 13l-10 -10v-3q0 -17 17 -17zM878 1050v5h-5
q1 -5 5 -5zM1753 1053v5h2v-5h-2zM861 1053h5v5h-5v-5zM1405 1053h3q0 5 -5 5h-3q1 -5 5 -5zM1687 1055v5q5 0 5 -5h-5zM1920 1055q1 5 5 5v-5h-5zM2064 1055v3q0 4 4 4v-7h-4zM1415 1055v7h-7q0 -3 7 -7zM1979 1058v2h4v-2h-4zM2054 1058v4h2v-4h-2zM1284 1058h2q1 12 7 12
q0 -3 3 -3l10 12q-5 3 -8 3v2h5v3q0 5 -7 5q-13 0 -22 -22v-3l10 3h2v-3q-7 0 -7 -5q1 -4 5 -4zM2013 1062v5h2v-5h-2zM1272 1062h4q0 5 -4 5v-5zM1291 1062h2v5h-2v-5zM1743 1065v5h2v-5h-2zM1974 1079q2 0 2 3q4 -3 12 -3v-2q-7 0 -7 -10v-2q-4 0 -7 14zM2017 1067
q1 7 13 10l2 -5v-5h-2q-5 3 -8 3l3 -5h-3zM2348 1062h2q5 1 5 5q0 5 -5 5h-2v-2l2 -5q-2 0 -2 -3zM2042 1067v3h5v-3h-5zM2054 1067v5h2v-5h-2zM1532 1067v5q0 5 -5 5h-3q-5 0 -5 -5v-2zM1940 1070v5h2v-5h-2zM1534 1070h5v5q-5 0 -5 -5zM2034 1072v7h3v-7h-3zM931 1072l5 3
h15v12h12q17 13 17 26v13l-12 9v5l7 -5h3v5q-2 7 -17 7l2 5l-5 3q-2 0 -2 -3l-5 3h-7l2 -5v-3h-2q0 5 -3 5q-2 0 -7 -2l-15 2l-7 -5q-10 0 -24 5q0 -7 -5 -7v-2q0 -5 10 -25l-3 -5q15 -41 41 -41zM1284 1077v5h2q5 0 5 -5h-7zM1935 1077v2h5v-2h-5zM3169 1075h2q5 0 5 4v3
l-5 -3q-4 3 -7 3v-3q1 -4 5 -4zM1337 1079h3q-3 5 -3 8h-5v-3q1 -5 5 -5zM1940 1082v12h2v-12h-2zM2124 1082h5v5h-5v-5zM2139 1082h5q5 1 5 5v5q0 3 -8 7q-3 0 -9 -10q0 -3 7 -7zM2345 1084q16 5 17 12v8q-2 7 -14 7q-4 0 -10 -10v-9q0 -4 7 -8zM912 1089v7h2v-7h-2z
M2304 1087q4 2 10 2v3q0 2 -12 12q-5 0 -5 -5zM1403 1089h5q-4 10 -8 10h-2v-5q1 -5 5 -5zM3137 1089h5q4 0 8 7v3q0 3 -8 7h-5q-3 0 -7 -7v-3q0 -3 7 -7zM2258 1092l5 2l14 -2h5q4 0 12 12v2q0 20 -26 20l-15 14h-14q-15 -10 -15 -22q9 -24 32 -24q0 -2 2 -2zM1279 1096h17
q12 7 12 10l5 -2h10v2q0 3 -3 3l5 9q-11 5 -12 10v2h5v-4h2q6 0 12 34h-5v-5h-4l2 5l-2 4h9v3l-2 5q2 0 2 2h-2q-12 0 -12 -5l-5 3q-5 -3 -7 -3q0 5 -5 5h-3v-5l-9 8l-10 -5l2 -5v-3h-2q-5 3 -7 3q-3 -9 -15 -20v-7h7q3 0 3 3q4 -3 7 -3l-2 -5l-5 3h-5v-15q-5 0 -5 -5
q0 -6 22 -22zM1979 1099v2h4v-2h-4zM1276 1101v5h5q0 -5 -5 -5zM1600 1099l4 7q-19 7 -41 7h-2q-5 0 -5 -4q11 -10 44 -10zM1412 1101v5q-2 7 -14 7q-4 0 -7 -7v-2h7q2 0 2 2q8 -5 12 -5zM1964 1104v2h5v-2h-5zM2401 1101h3q3 0 7 8v7q0 3 -7 7h-3q-3 0 -7 -7v-7q0 -4 7 -8z
M1291 1106v5h2v-5h-2zM1357 1104l9 7q-3 10 -7 10h-2q-4 0 -8 -8v-2q0 -3 8 -7zM968 1109v4h2v-4h-2zM2205 1106h2q5 1 5 5v2q0 4 -7 8q-4 0 -8 -8q0 -3 8 -7zM1223 1109q32 0 32 7q-6 0 -13 7h-9l2 -5v-2h-2q-5 2 -8 2l-2 -5v-4zM256 1111h2v2q0 4 -9 8v-3q0 -3 7 -7z
M934 1118h5v-5q-5 1 -5 5zM1240 1113v3h5v-3h-5zM1276 1113v5h3v-5h-3zM1634 1113v3h4v-3h-4zM927 1116v2h4v-2h-4zM1272 1121v5h2v-5h-2zM249 1123h2q4 3 10 3v7h-3q-3 0 -9 -10zM271 1128v5h-8v-3q3 0 8 -2zM1021 1133h3q13 0 17 10v4h-3q-5 0 -5 -7h-2v10l-12 -3h-3v3
q3 5 3 7q-4 0 -7 -7v-5l2 -5l5 3l5 -3l-3 -5v-2zM1009 1135h5v5q-5 0 -5 -5zM1279 1138v2h5v-2h-5zM1981 1138v5h2v-5h-2zM1004 1138h5v2h-5v-2zM1286 1140v5h3v-5h-3zM2078 1143l3 12h2q0 -8 15 -8q0 -1 -8 -7q-4 3 -12 3zM953 1143v2h5v-2h-5zM1949 1143l-2 12q4 0 7 -12
h-5zM1259 1145v2h5v-2h-5zM1308 1145l-2 5q3 0 7 7v3h-3l-4 -3v7q5 0 9 3v-20q-2 0 -7 -2zM394 1145q22 7 25 7l12 -2v7h5q5 0 5 -5q-3 0 -3 -2h10l12 2v8q-20 2 -24 4l-15 -2h-5l-24 7q-11 0 -15 -12q4 -12 17 -12zM2511 1145q15 5 17 12v15l-27 14q0 3 -3 3l-4 -3
q0 -41 17 -41zM445 1152v5h3v-5h-3zM1269 1152v5h7q0 -5 -4 -5h-3zM1476 1150h2q4 0 7 7l-5 3h-4q-5 0 -5 -5q1 -5 5 -5zM1935 1152v5h2v-5h-2zM1004 1152h5v3h-5v-3zM1733 1155v5h3v-5h-3zM1930 1157v5h2v-5h-2zM1332 1160h5v4h-5v-4zM1021 1162l3 10h-8v-5q1 -5 5 -5z
M1728 1169v10h3v-10h-3zM1979 1169v5h2v-5h-2zM1996 1169v5h2v-5h-2zM1738 1172q1 5 5 5h2v-5h-7zM1774 1172v2h5v-2h-5zM1004 1174h5v5q-5 0 -5 -5zM1736 1177v5h2v-5h-2zM1014 1177h5q5 0 5 5v2h-3q-4 -2 -7 -2v-5zM1619 1177h7q0 2 3 7l-5 2l-7 -4l-3 4l3 5q-12 0 -17 5
v-2q5 -9 19 -17zM1629 1177h5q0 5 -5 5v-5zM1327 1182h3q5 0 10 17l-8 4q3 5 3 8q17 -5 19 -5q0 7 12 24q-2 0 -2 3q17 10 17 14h-5l-12 -7h-3v12l10 2q0 5 -5 5q3 12 8 12q0 -2 2 -2v2q0 9 -24 13v-5q9 0 9 -8v-9l-4 2h-3v-5q-5 1 -5 5v3l5 -3l5 7q-12 8 -19 8l2 -5v-3
q0 -2 -17 -14q5 0 5 -5h-5l-5 2v-2l3 -5q-16 -29 -20 -29q-14 -8 -14 -10l-5 3h-3v-8h10q11 -12 29 -12h5v-5l5 3v-3zM2251 1182h2q4 0 7 7q0 3 -7 7h-5l-2 -12zM2207 1186h5v13q7 7 7 12q-1 22 -7 22h-5q-4 0 -7 -8v-9q0 -9 7 -17q-5 0 -5 -5v-3q1 -5 5 -5zM1714 1189h2v2
q0 5 -5 5h-2v-2q1 -5 5 -5zM2083 1189h5v2h-5v-2zM1330 1194q0 2 -3 7h5v-7h-2zM1298 1206v2h3q0 -5 5 -5v-4q-4 0 -8 7zM1320 1199v2h5v-2h-5zM1740 1196h3l2 10h-9q4 -6 4 -10zM2132 1196l9 7q5 -2 8 -2q5 14 12 22v2l-3 5q-14 0 -34 -24v-3q0 -3 8 -7zM2338 1199h3v7h-3
q-5 0 -5 -5zM1325 1208h5v-5q-5 1 -5 5zM1386 1201h12q3 0 7 7v5q0 13 -7 15h-12q-10 -5 -10 -15q5 -11 10 -12zM1306 1206v7q4 0 4 -5v-2h-4zM1272 1206h7q0 2 2 7q-4 0 -19 5q-5 -2 -7 -2v-5h2q2 0 2 2zM1534 1206h2q5 1 5 5v2q-3 0 -7 -7zM2141 1208v3h5v-3h-5z
M1340 1220l2 5q-2 5 -2 8l9 -5q0 9 8 9l2 -4q-5 0 -5 -8l-5 3q0 -5 -5 -5v-5h8v-2q0 -5 -5 -5q-6 0 -7 9zM1643 1208q3 0 15 10h5l12 -7l5 7q-31 34 -39 34q-16 -7 -20 -15v-9q0 -20 22 -20zM2241 1208q4 0 10 10v2q0 5 -5 5h-5q-4 0 -7 -7q3 -10 7 -10zM2304 1208h3v5h-3
v-5zM1250 1211v5h-5l5 7h-8q0 -5 -4 -5q0 -6 12 -7zM1325 1216v4h2v-4h-2zM1332 1218v5h3v-5h-3zM2105 1216h2q4 0 8 7v2q0 4 -8 8q-3 0 -7 -8v-5q1 -4 5 -4zM1250 1218h5v2h-5v-2zM2105 1223q1 5 5 5v-5h-5zM1218 1223h5v5h-5v-5zM1228 1223h2v5h-2v-5zM1313 1225v3h5v-3
h-5zM1320 1225q3 5 3 8q3 0 7 -8h-10zM1750 1230v3h7v-8h-2q-5 1 -5 5zM1728 1228h3v7l-5 2v-2q2 -5 2 -7zM2236 1233q10 10 10 12v7q0 4 -10 10q-14 0 -14 -17v-3q4 -9 14 -9zM1262 1235q12 3 12 7v3l-5 -3q0 3 -2 8l5 9q-8 8 -13 8q-17 0 -17 -25q12 -7 20 -7zM1332 1237
v8h3v-8h-3zM1743 1237v8h2v-8h-2zM2117 1237h5v5q-3 0 -7 3l-3 -5zM1342 1242v5q5 0 5 -5h-5zM1349 1242v8h3q5 0 5 -5v-3h-8zM1568 1240h10v5h-5q-5 0 -5 -5zM2025 1240v7q-5 0 -5 -5zM3242 1242q27 30 27 61q0 13 -8 22v2q0 20 10 44q-16 39 -56 39q-65 -22 -65 -56v-7
q0 -14 21 -32q-7 -12 -7 -19q0 -31 22 -42q39 -12 56 -12zM1257 1247v5h2v-5h-2zM1719 1245h2q5 0 5 5v2h-3q-4 0 -4 -5v-2zM1369 1247q9 0 17 22q-4 0 -17 -17h-3zM2117 1247l2 5v7q0 5 -4 5q-5 0 -5 -7q3 -10 7 -10zM47 1250q19 2 19 9v10q-4 0 -12 10h-14q-6 -5 -10 -5
v-7q0 -17 17 -17zM1332 1254v5h3v-5h-3zM1337 1254v3h5v-3h-5zM49 1257v2h5v-2h-5zM1252 1262h5v-5q-5 1 -5 5zM2146 1254h5q3 0 12 13v2q0 4 -10 10q-12 -3 -12 -8v-12q1 -5 5 -5zM37 1259v5q1 5 5 5l5 -2q0 3 7 7v-7h-7l2 -5zM1721 1257h2v5h-2v-5zM2149 1259v8h4v-8h-4z
M1723 1262q5 0 5 5h-5v-5zM3154 1262l10 12q-2 7 -14 7l-8 -10v-2q0 -6 12 -7zM1330 1267h2q5 0 5 4v3q-3 0 -7 -7zM1602 1269h2v5h-2v-5zM1412 1279h5v5h-5v-5zM1422 1279q2 0 32 12q4 -3 7 -3v3l-2 5h4v5l-4 -3q-5 3 -8 3v7l3 5l-12 2v3h4v-3l5 3l10 -10h2v7
q-17 15 -17 20l-4 -3h-10q-6 0 -10 3q-24 -6 -24 -22q-3 0 -3 -3q5 0 5 -5l-2 -4h7v-3l-2 -5q5 0 5 -7h14q0 6 5 19q-5 1 -5 5v3h5l5 -3l-5 -12l5 -10q-10 0 -10 -4v-5zM2090 1281h3q7 3 7 15l-7 5h-3q-3 0 -7 -8v-5q0 -3 7 -7zM1648 1288v5h3v-5h-3zM1745 1293h5v-5
q-5 1 -5 5zM1757 1288v5h3v-5h-3zM1439 1291v2h5v-2h-5zM1765 1291v5h2v-5h-2zM2042 1291q6 5 9 5v14q0 5 -4 5h-10q-5 0 -5 -5v-9q0 -4 10 -10zM1621 1296q0 5 10 5l-5 7v2q5 -2 8 -2l-3 -12h-10zM1709 1296v7h5q0 -3 2 -7h-7zM1434 1298v3q1 4 5 4h10v-2q-6 0 -12 -5h-3z
M1697 1298l-3 5v5h5q0 -3 3 -7zM1412 1305v3q3 5 3 7h2v-2q-2 -5 -2 -8h-3zM1434 1308v5q5 0 5 -5h-5zM1697 1313v2h9q5 0 5 -5v-2q-8 5 -14 5zM2098 1308l2 5v7q-3 10 -22 10l-2 -5v-15zM1480 1310h13q4 1 4 5v3q-4 0 -9 14q-5 3 -8 3v-3q0 -3 8 -7q-4 -10 -8 -10h-2v5
q-5 0 -5 -5zM2627 1315l3 5l-5 2l-3 -4zM1444 1320v2h7v-2h-7zM1723 1320q0 5 -4 5v2q1 0 14 3q-2 -8 -10 -10zM1680 1322v3h5v-3h-5zM1476 1327v8h-5v-3q1 -5 5 -5zM1497 1327v5h-4q0 -5 4 -5zM1915 1327h3q5 1 5 5q0 5 -5 5l-3 -5v-5zM1488 1339h5v5h-5v-5zM1920 1339
q10 4 10 8q0 5 -5 5q-4 0 -10 -10zM1852 1342h8q0 5 -5 5h-3v-5zM1860 1344h2q5 1 5 5q-5 0 -5 12l-5 -2q3 -4 3 -15zM1998 1352l2 4q-4 1 -4 5l29 32q-5 1 -5 5v2q20 0 24 29q0 29 -24 29h-7l-32 -26q2 -5 2 -8q-19 0 -19 -26h2l-2 -5v-5q0 -17 34 -36zM2258 1354q5 1 5 5
q0 5 -5 5h-7v-3q0 -3 7 -7zM1852 1356h3v8h-3q-5 0 -5 -5zM975 1359v2l5 -2h5q5 1 5 5l-27 14h-15q-3 0 -7 -7q11 -12 34 -12zM1986 1364v5h2v-5h-2zM1500 1364h5q0 5 -5 5v-5zM1514 1364h3v2l-5 7v5l2 5h-4q-8 -5 -17 -5v-2l2 -5l5 2h10q0 -9 4 -9zM1524 1364h3q3 0 9 9v3
q-7 0 -7 7h7l-2 -5l5 -2l2 17q-9 7 -12 7v5l7 -5v3q0 3 -14 12h-3l-14 -20l5 -2h4v10l15 -10q-3 -12 -7 -12v7h-3q0 -4 -5 -10q8 0 8 -9l5 2h2v-2h-5v-5zM1784 1364h7v7h-7v-7zM1993 1369v2h7v-2h-7zM2260 1366h5q0 5 -5 5v-5zM812 1371h5v7q0 5 -5 5q-2 0 -2 -2l-5 2
q-5 0 -5 -5q12 0 12 -7zM2000 1373v5l8 5h2v-5q-7 0 -7 -5h-3zM1794 1373h5v3h-5v-3zM1991 1376v5h2v-5h-2zM1777 1376h5v2q0 4 -8 8l-2 -5q1 -5 5 -5zM1493 1381v5h-5q1 -5 5 -5zM1777 1386h2v4h-2v-4zM1497 1388q4 0 8 7l-12 3v-5q0 -5 4 -5zM1514 1388h5v5h-5v-5z
M1787 1388q4 2 7 2v5h-3q-4 0 -4 -5v-2zM1947 1388h5q3 0 7 7q0 13 -7 15h-5v-5h7v-2h-7l2 -5v-3h-7v5h-2v-7zM2000 1393v5h3v-5h-3zM151 1393h3v5h-3v-5zM1485 1393h5q0 8 17 17v2q-22 -6 -22 -19zM1519 1403q1 4 5 4l3 -4v-3q-5 3 -8 3zM144 1403h5v9q-2 0 -2 5h-5v-2
l5 -8zM139 1405h5v5h-5v-5zM1680 1405h7q5 1 5 5v12q0 2 -3 2l5 13q-6 18 -14 21h-5q-4 0 -12 -14v-5l9 -29zM1682 1412v5h3v-5h-3zM2630 1415h2q4 0 7 7v2q0 4 -7 8h-2q-4 0 -8 -8v-2q0 -3 8 -7zM1867 1420h5v4h-5v-4zM1879 1420l2 12l-4 2h-3q0 -5 -2 -10zM1930 1420h15
q5 0 12 19q-4 24 -22 24h-5q-4 0 -15 -19q0 -15 15 -24zM1682 1424v3h5v-3h-5zM1257 1429v5h-5q1 -5 5 -5zM1488 1441h2v5h-2v-5zM1262 1444h2q0 5 -5 5h-2q1 -5 5 -5zM1264 1446q5 1 5 5h-5v-5zM1869 1461h8q4 1 4 5q-7 0 -7 12q12 3 12 7q0 6 -17 7q-12 -3 -12 -7v-17h3
l2 17q6 -5 10 -5q0 -5 -3 -9q3 -5 3 -8q-3 0 -3 -2zM1704 1463h2q5 1 5 5h-5v3h8q0 12 -12 19h-5q-5 0 -5 -5v-2h5v5h2q0 -4 5 -8q0 -4 -5 -14zM1864 1463h5l-2 12h-3q0 -3 -4 -9zM91 1466h7q0 5 -5 5h-2v-5zM1911 1466h7v2l-3 5q3 5 3 7h-3q-6 -5 -9 -5v-4q0 -5 5 -5z
M1884 1468h2v5h-2v-5zM88 1475h8v5h-3q-5 0 -5 -5zM946 1483h2q5 1 5 5q-2 0 -2 2q6 5 12 5q0 17 -24 17q-5 -8 -5 -15q3 -10 12 -14zM944 1492v3h4v-7q-4 0 -4 4zM3150 1485q34 8 34 34v8q-7 17 -22 17h-10q-27 0 -32 -37v-2q15 -20 30 -20zM1903 1510h5v2h-5v-2z
M2000 1512h3v5h-3v-5zM1658 1529q14 6 14 17q0 28 -38 44h-3q-3 0 -7 -8l5 -7l-5 -10q10 -36 34 -36zM1361 1541v7h-2l-5 -2q-7 12 -14 12h-3v-2l15 -12q4 -3 9 -3zM1573 1541h5v5h-5v-5zM1692 1541l7 5v-5h3q0 5 2 5q5 -2 7 -2l3 4q-4 10 -8 10q-14 -9 -14 -17zM1556 1544
h10q0 4 -5 4h-5v-4zM1361 1553v3q-4 6 -4 9h-3q0 -5 -2 -9zM1347 1558h5v3h-5v-3zM1993 1558h5v5h-5v-5zM756 1565h5q5 1 5 5q-15 17 -31 17h-8v-5q2 -7 29 -17zM2185 1568h7q5 1 5 5v7q0 3 -7 7h-5v-2l3 -5q-3 0 -3 -2l-5 2h-2v-5q0 -3 7 -7zM1359 1573h2v7h-2v-7z
M1383 1580q5 1 5 5l-5 2h-5v-2q1 -5 5 -5zM2119 1585h3q5 1 5 5v5q0 4 -5 4h-3q-4 0 -4 -4v-5q0 -5 4 -5zM1850 1587h5q13 0 17 10v2q0 13 -10 17h-12q-8 -2 -8 -14v-7q0 -4 8 -8zM1675 1597h5v5h-5v-5zM1860 1602v5h2v-5h-2zM1514 1616h3q5 1 5 5t-8 8q-4 0 -4 -5v-3
q0 -5 4 -5zM2093 1638q5 1 5 5q0 5 -5 5t-5 -5q1 -5 5 -5zM2059 1646q11 4 12 9v5q-5 10 -12 10q-10 -4 -10 -7v-10q0 -6 10 -7zM2056 1650v13h3l2 -13h-5zM1437 1665h5v2h-5v-2zM1434 1682h3v5h-3v-5zM1425 1697h4v4h-4v-4zM1546 1701h10q4 0 10 10v10q0 3 -13 12h-9
q-15 -6 -15 -12q4 -11 17 -20zM1534 1718v3h7q5 -3 8 -3q0 5 4 5l10 -9q-5 0 -5 -8q-18 12 -24 12zM2042 1711h7q2 0 10 10q-3 12 -8 12h-7q-5 0 -5 -5l3 -5q-5 0 -5 -5q5 0 5 -7zM2047 1718v3q0 5 4 5h3v-3q0 -5 -5 -5h-2zM1541 1726v2h5v-2h-5zM1634 1723h2q5 1 5 5v3h-3
q-4 0 -4 -5v-3zM1835 1728h17q4 0 10 10v10q0 3 -10 9h-2q-14 0 -22 -19q4 -10 7 -10zM1847 1738v5h3v-5h-3zM1847 1748v4h3v-4h-3zM2190 1794h7v2q0 5 -5 5l-2 -5v-2zM1881 1796h3q3 0 7 7v5q-4 0 -10 -9v-3zM1874 1799h3v4q0 4 -8 8v-8q1 -4 5 -4zM1971 1806q27 8 27 27v5
q0 18 -27 26q-22 -10 -22 -22q5 0 5 -4v-3l-5 3q0 -3 -2 -3q0 -23 24 -29zM1886 1808h3v3q0 3 -8 7h-4q-5 0 -5 -5v-2l7 5q0 -4 7 -8zM1651 1820h2v3q-5 5 -5 15q-5 0 -5 -8q4 -10 8 -10zM1884 1825h5v10q0 5 -5 5h-5v-5q5 0 5 -10zM1872 1828h5v5h-5v-5zM1806 1833h5v2h-5
v-2zM1663 1835v3q0 4 -5 4h-5q-5 0 -5 -4zM1804 1835h2v12q-5 0 -5 -5q3 -4 3 -7zM1962 1838v4h2v-4h-2zM2251 1845h5v7h-5v-7zM1806 1847h2q4 0 8 8h-5q-5 0 -5 -5v-3zM1821 1847v5h-5q1 -5 5 -5zM2183 1850h2q4 0 7 7v2h-7v-4h-2v2q0 7 7 7v5q-13 0 -15 -7v-5q0 -4 8 -7z
M2136 1906q13 3 13 14q-4 10 -8 10h-7q-3 0 -7 -7v-13q4 0 9 -4zM2139 1913v5h2v-5h-2zM1993 1944v5q0 5 -5 5v-5q1 -5 5 -5zM1991 1954h5v3q0 4 -5 4v-7zM2392 1988h7v5h-7v-5z" class="colorcurrentColor svgShape"></path></svg></g></svg>