<svg id="SvgjsSvg1117" width="288" height="288" xmlns="http://www.w3.org/2000/svg" version="1.1" xmlns:xlink="http://www.w3.org/1999/xlink" xmlns:svgjs="http://svgjs.com/svgjs"><defs id="SvgjsDefs1118"></defs><g id="SvgjsG1119"><svg xmlns="http://www.w3.org/2000/svg" viewBox="-10 0 2520 2048" width="288" height="288"><path fill="#ffffff" d="M824 -47h13q10 5 10 22v4q0 3 -10 11h-13q-7 0 -13 -22q3 -10 13 -15zM591 -21q9 3 13 11v13q0 3 -7 6h-2q-17 -1 -17 -17q0 -7 13 -13zM910 13h6q28 21 28 39v9q0 45 -23 45h-22q-28 0 -34 -47v-3q0 -40 45 -43zM826 123h4v2h-4v-2zM744 130q13 5 13 8v11q0 3 -11 9q-13 -5 -13 -9v-4q0 -12 11 -15zM643 173q28 0 28 34q-8 20 -22 20h-11q-17 -12 -17 -24v-6q4 -24 22 -24zM127 179h5q3 0 6 7v6q0 5 -4 5h-7q-4 0 -4 -5v-8q1 -5 4 -5zM822 194q36 0 36 41v3q-8 32 -30 32q-34 0 -37 -43q7 -33 31 -33zM375 225q51 0 67 41q4 13 4 17
q-8 52 -45 52q-39 0 -65 -59q0 -51 39 -51zM1236 231h2q4 1 4 4q-9 0 -9 5h-4v-2q0 -3 7 -7zM569 240q20 9 20 21v2q0 16 -15 16q-18 -7 -18 -20q4 -19 13 -19zM1188 244h2q5 1 5 4q0 5 -5 5q-3 0 -6 -7zM1136 259h5q0 4 -5 4v-4zM1098 263q12 2 12 7q0 3 -10 9q-4 -3 -9 -3
q1 -13 7 -13zM968 268q9 3 9 6v7q0 3 -7 6h-2q-3 0 -6 -6v-9q0 -4 6 -4zM1095 270v4h3v-4h-3zM498 283h7q3 0 6 6v7q0 6 -9 6q-10 -3 -10 -10q3 -9 6 -9zM1223 330h4v7h-4v-7zM166 356h4q13 6 13 26q-3 9 -10 13h-7q-19 0 -19 -26q9 -13 19 -13zM1333 376h2q3 0 6 6v2
q0 5 -4 5h-4q-5 0 -5 -5v-4q1 -4 5 -4zM1473 378h4q0 4 -4 4v-4zM1059 401h2v5h-2v-5zM1050 414h4v3h-4v-3zM1061 414h2q0 5 -4 5h-2q0 -5 4 -5zM1070 421v2q0 4 -5 4v-2q1 -4 5 -4zM1550 421l2 4l-4 2h-2v-2q1 -4 4 -4zM1233 430h11v4h-2q-2 0 -2 -2l-4 2h-3v-4zM1225 434
q4 0 4 4q-2 0 -2 2q2 0 2 2h-4v-8zM802 438h2q3 0 7 7v4q0 4 -5 4h-4q-4 0 -4 -4v-7q1 -4 4 -4zM1240 440v7q-4 0 -4 -5zM1248 440l3 9h-3q-4 0 -4 -4q1 -5 4 -5zM1242 455h4v3h-4v-3zM1356 462q15 3 15 8v3h-4v-5q-5 0 -6 9h-3q-4 0 -4 -4h4v-3q0 -4 -4 -4q0 5 -8 9v-2
q0 -6 10 -11zM1343 477h5q0 2 -2 2l2 4v5q-5 0 -5 -5v-6zM1350 477h6q0 4 5 13q-3 0 -3 2h3l6 -4v2q0 3 -6 6h-5q-3 0 -8 -8h2l6 4v-2zM664 486h7q3 0 6 6v4q0 3 -6 7h-3q-3 0 -8 -9v-4q1 -4 4 -4zM1358 524v3q0 4 -4 4h-6v-4h2l4 2q1 -5 4 -5zM1281 568h2q4 0 4 4v4l-4 -2
h-4l-11 2v-2q2 -6 13 -6zM1268 578h2q7 15 7 20h-3q-10 -6 -10 -18zM1281 578q0 5 8 5v6q0 3 -6 7q-3 0 -6 -7v-6q0 -5 4 -5zM800 585h2q4 0 4 4v4q0 5 -4 5q-3 0 -6 -7v-2q0 -4 4 -4zM1279 587v2h4v-2h-4zM615 587h2q4 1 4 4v5q0 4 -4 4h-2q-4 0 -7 -7q0 -3 7 -6zM1339 587
h9v2q0 7 -11 7q-2 -5 -2 -7zM1348 591q4 1 4 5v2q0 11 -6 13h-7q-4 0 -4 -5h11v-2h-5v-4h2l5 2v-11zM1335 593q0 3 2 7l-4 2h-3v-4q1 -5 5 -5zM1736 621h4q3 0 7 7v6q0 3 -7 7h-6q-7 -2 -7 -13zM1328 634h2q3 0 11 11v9q0 3 -6 6h-9q-9 -4 -9 -13q3 -9 11 -13zM891 662
q0 3 25 18v8q-1 5 -10 9q-25 -13 -28 -20v-8q2 -7 13 -7zM684 667h2q4 0 4 4v4q0 5 -4 5h-2q-5 0 -5 -5v-4q1 -4 5 -4zM828 697h2q17 1 17 15q-1 15 -13 15q-15 -5 -15 -17q5 -13 9 -13zM1393 738h4v4h-4v-4zM1389 742h4v4h-4v-4zM632 753q17 7 17 28h-13q-17 0 -17 -17v-2
q4 -9 13 -9zM1503 755h2v2q-2 4 -2 7q-4 0 -4 -5q0 -4 4 -4zM628 759v5h2v-5h-2zM638 766q1 4 5 4v-4h-5zM722 772h5q13 6 21 31l-6 4h-2q-20 -7 -26 -17v-3q0 -11 8 -15zM720 781v6h2v-6h-2zM647 783h26v2l-5 7q7 0 7 6q-2 4 -2 7h-9l-8 -9h-5v4q-3 0 -6 -10q2 -5 2 -7z
M656 785l-3 5v2h11q0 -3 -8 -7zM1061 785h4q5 1 5 5v6q0 4 -5 4h-6q-5 0 -5 -4v-4q0 -3 7 -7zM735 796v4h2v-4h-2zM662 798v2h4v-2h-4zM584 803h3l15 2v4h-3l-4 -2q-2 0 -17 6v-4q0 -3 6 -6zM602 809q4 1 4 4v9q0 3 -9 6q-15 -3 -15 -8v-2q2 0 2 2l5 -2h2v4l4 -2q1 4 4 4
q0 -4 5 -4v-2q-5 0 -5 -3q3 -4 3 -6zM591 813h2v5h-2v-5zM1419 824h4q7 0 7 9q-4 8 -7 8h-4l2 -4v-4q-4 0 -4 4q2 0 2 2h-2q-5 0 -5 -6q4 -9 7 -9zM569 841h5l4 2q0 7 -7 7v4h3q3 0 6 -6q-2 0 -2 -2h2q4 0 4 4v2h-4v2q9 0 9 5v2q0 4 -7 4v2q7 0 7 5v6h-2q-6 -6 -13 -6l2 -5
v-2h-2v4h-7q-11 -5 -11 -17v-4q3 -7 13 -7zM563 848v2h6v-2h-6zM660 846q4 0 4 4h-4v-4zM703 846h2q4 0 4 4h-6v-4zM712 852h2v7q0 4 -5 4h-2q-4 0 -4 -4q9 0 9 -7zM565 865h4v-4q-4 0 -4 4zM537 861h9q8 0 8 15h5v-4q11 0 19 15h4l11 -7q13 3 17 13h2v7q-4 0 -6 8l-11 2
l-11 -6h-2q-11 11 -19 11q-17 0 -35 -20v-8q0 -3 7 -7v4q-2 5 -2 7l4 -2q4 2 9 2v-4q0 -2 -11 -11v-11h4zM541 876q0 3 9 8v-6q-4 0 -4 -6q-5 0 -5 4zM505 878l8 11q0 3 -6 6q-11 -3 -11 -13zM595 887v8q4 -2 9 -2q0 -3 -9 -6zM571 889v4h3v-4h-3zM584 893v4q5 0 5 -4h-5z
M556 895v2h5v-2h-5zM576 895q0 7 -5 7v2h5l2 -4v-5h-2zM539 897v3q1 4 4 4h5v-2q0 -5 -5 -5h-4zM595 897v3h7v-3h-7zM554 900v4q1 4 5 4v-4q0 -4 -5 -4zM1078 908v4q-7 3 -8 3v-5q1 0 8 -2zM1082 912h3q5 0 6 16q-3 0 -9 -13v-3zM1061 923h4v7q-4 0 -4 -5v-2zM1074 928l4 2
q2 0 2 -2l5 2l4 -2v4q-4 9 -15 9h-2v-7h4l-2 -4v-2zM513 934h5q18 0 32 19v3l-2 4q8 1 8 6l-19 18q-5 0 -9 2q-17 0 -32 -24l2 -4l-2 -5q3 -12 6 -12q9 5 9 10h11q0 -4 8 -4v-2l-21 -7q1 -4 4 -4zM1022 945q4 2 9 2v4h-18q0 -3 9 -6zM505 956v2q0 4 4 4h2v-2q0 -4 -4 -4h-2z
M524 956v4h2v-4h-2zM515 958v4h3v-4h-3zM1009 956h2q5 0 5 4v2q0 4 -5 4zM1024 956v4h-4q1 -4 4 -4zM1033 956h2v13l-6 4h-7v-2q11 0 11 -15zM530 964v2h5v-2h-5zM774 962h4v4h-4v-4zM781 962h2v4h-2v-4zM511 971v4h4v-4h-4zM518 971v2q2 7 8 8v-2q-4 -5 -4 -8h-4zM530 973
v4h7q0 -4 -4 -4h-3zM843 971h2q12 0 15 8v9q0 3 -8 9h-2q-12 0 -16 -9v-9q0 -3 9 -8zM839 977v9q6 0 6 4q9 -1 11 -11h-2q-3 2 -11 2q0 -4 -4 -4zM1026 986h7q8 3 8 15v9q0 11 -8 15h-11q-11 -6 -11 -20q8 -16 15 -19zM1035 1001v4h2v-4h-2zM960 1010h4v4q-4 0 -4 -4z
M981 1010q12 0 15 8v4q0 14 -15 24q-13 -5 -13 -17q0 -11 13 -19zM1141 1012l4 6v7h-2q-5 0 -7 -11zM953 1014h2q3 0 7 6v2h-2q-4 0 -7 -6v-2zM981 1022v3h4v-3h-4zM988 1022v5h4v-5h-4zM1123 1025h7q0 2 2 6l-4 2l-5 -6v-2zM1048 1027h15q24 16 24 30q0 3 -13 24
q14 12 15 21q0 11 -11 17q0 -2 -2 -2v5h-4q-18 -3 -18 -18q-6 0 -10 -13h-3v-8q0 -7 -6 -15v-9q6 -32 13 -32zM1167 1027q10 3 10 15l-8 6h-5q-3 0 -6 -6v-9q0 -5 9 -6zM998 1072v7h-6v-5q2 0 6 -2zM1013 1079h7q3 0 11 10l-13 11q-11 -3 -11 -6v-9q0 -3 6 -6zM1220 1083h3
v2q-4 9 -7 9l-2 -5q0 -3 6 -6zM1016 1087v4q2 0 6 3v-7l-4 2q0 -2 -2 -2zM533 1091h2q3 0 6 9q-3 9 -6 9h-5q-3 0 -6 -7q4 -10 9 -11zM1059 1096v4h2v-4h-2zM1065 1111l5 2h2l2 -11q-4 0 -9 9zM1029 1102h10v2l-2 5v6q-8 -2 -8 -13zM1007 1107h6q16 9 16 19q-6 19 -20 19h-6
l-5 -6l3 -4q-11 0 -11 -5v-11q8 11 13 11v-2l-5 -6h3l4 2l8 -9l-4 -2q-8 1 -8 6h-9v-2q3 -10 15 -10zM367 1111h13q8 5 15 17v7q0 4 -5 4q0 -3 -6 -7l2 -4v-2h-2q0 1 -4 9h-3q-4 0 -4 -5q0 -4 9 -4v-7h-5l-4 3v-3q2 -4 2 -6q-4 2 -8 2l2 4q-6 0 -7 9h-4v-2l4 -7q-4 -2 -6 -2
v-4zM1016 1115v2h4v-2h-4zM349 1117h5v5h-5v-5zM1156 1117q17 0 17 18v6q-2 7 -13 7q-12 0 -21 -16v-4q5 -11 17 -11zM367 1126h4v4h-4v-4zM1011 1132q1 5 5 5h2v-5h-7zM1225 1130h4v2h-4v-2zM352 1132h4q7 8 17 11v5h2q1 -9 7 -9q4 2 6 2v2q-2 7 -13 7h-15q-8 -5 -8 -7
l2 -4v-2h-2v4q-5 0 -5 -4q1 -5 5 -5zM1057 1132q11 11 17 11v5h-2l-5 -3v5q20 3 20 8t-9 5v4l4 6l-4 3h-4q-11 0 -20 -13q-2 0 -6 -3l2 -4v-2h-2v4h-7v-21h9v4h9v-2q-2 -4 -2 -7zM1236 1132v3q0 3 -7 6h-2v-4q3 0 9 -5zM1354 1132h2q15 0 15 16v2q0 3 -8 8h-5q-2 0 -10 -10
v-9q0 -3 6 -7zM364 1135h5q0 4 -5 4v-4zM938 1135h6q4 0 9 8l-4 2q0 -2 -2 -2v2l2 5q-4 2 -7 2q-4 -2 -6 -2q2 4 2 6l11 -2v2q0 4 -7 4h-15q0 4 -6 7h-7v-4h7q-1 -5 -11 -9q-2 4 -2 9h-2v-9h2l-5 -6q3 0 3 -3l4 3h2l-2 -5v-2h9v2l-3 5q13 0 13 6q5 0 7 -15q-2 0 -2 -2z
M940 1137l-2 4h6q0 -4 -4 -4zM929 1139h5v4h-5v-4zM938 1143v5h6v-5h-6zM830 1143h7q19 5 19 11q-4 12 -15 17h-4q-3 0 -11 -11l4 -2q4 0 4 9q10 -9 16 -9v-2q0 -6 -13 -6v2q-3 0 -7 -7v-2zM1057 1145v3h4v-3h-4zM1061 1150v4h4v-4h-4zM1085 1148q4 0 4 4h-4v-4zM1052 1156
q2 0 2 2q-2 0 -2 2h7q-2 -3 -2 -8q-5 0 -5 4zM349 1152q13 4 13 17q0 3 -6 7h-7q-3 0 -6 -7v-11q0 -3 6 -6zM824 1152h2v4h-2v-4zM837 1152h4v2h-4v-2zM1070 1154q0 4 4 4l2 -4h-6zM977 1154h4v4h-4v-4zM1065 1156l-2 4h7q0 -4 -5 -4zM968 1158h4v2h-4v-2zM1091 1158
q0 10 2 13h-4l-2 -11zM1046 1163q4 0 4 4t-4 4h-5q5 -5 5 -8zM1065 1165v4q5 0 9 2l2 -4zM972 1165h5v2h-5v-2zM451 1167l8 11v6q0 5 -10 7q-9 -4 -9 -7v-11q0 -5 11 -6zM1095 1167h18q14 6 17 15v9q-7 26 -28 26q-9 0 -9 2q-4 0 -13 -13l2 -5q-6 -10 -6 -15q9 -4 9 -10l8 4
q0 -7 5 -7l-3 -4v-2zM1106 1169v2h4v-2h-4zM1100 1176h4v-5q-4 1 -4 5zM832 1173h7q4 1 4 5v10q0 4 -6 7h-9q-6 -2 -6 -13zM1110 1176v2h5v-2h-5zM1171 1173q0 3 15 13q9 0 9 -13h4q0 13 39 13q10 14 10 18q-6 17 -6 19q9 3 9 6v5q-7 0 -7 2v6h-2v5l4 -2l2 4v2h-6
q-15 -8 -15 -11q-5 0 -32 5q-20 -11 -24 -20q-35 -9 -35 -24h3l-3 -4q0 -24 35 -24zM597 1176h2v4q-4 0 -4 2q2 4 2 6q-4 0 -4 -4v-4q1 -4 4 -4zM712 1176h4q3 0 6 8h-2q-5 -4 -8 -4v-4zM1447 1176q11 4 11 6l4 -2h2q7 0 7 28q-5 4 -26 11q0 4 4 17q0 12 -19 21q0 2 2 9
q-2 4 -2 9q2 0 2 2q-2 0 -2 2q-22 0 -22 -17q2 -4 2 -9l-8 -8q0 -4 6 -7q-4 -7 -4 -13v-4l17 -20l-2 -4q0 -20 28 -21zM1167 1184v2h4v-2h-4zM705 1184q4 2 7 2v5h-5q-4 0 -4 -5q2 0 2 -2zM860 1184v7h-4v-3q1 -4 4 -4zM1085 1186v5h4v-5h-4zM1563 1184l5 7v6q0 4 -5 4h-4
q-3 0 -7 -6v-4q0 -5 11 -7zM1796 1184h2q3 0 7 7v2q0 3 -7 6q-8 -3 -8 -6v-2q0 -3 6 -7zM1115 1193v4q4 0 4 -4h-4zM714 1193h2v4h-2v-4zM925 1204q17 4 17 17v8l11 -2h2q5 1 5 5q-7 0 -7 4q9 0 9 13q0 3 -7 6h-8q-3 0 -11 -10v-5l4 2h2v-2q-5 0 -8 -13h-2v5q2 0 2 2l-5 2
q-6 0 -17 -9q-6 0 -6 -4q7 0 19 -19zM1380 1204q17 2 17 17l-6 13l2 11h-7q-2 0 -2 -3l-4 3h-2v-3q2 -4 2 -6q-9 -3 -13 -11v-11q4 -7 13 -10zM813 1208q4 1 4 4v2q-4 0 -4 -4v-2zM932 1210q0 4 -3 4q3 4 3 11h2l4 -2q-3 -13 -6 -13zM1048 1208q9 0 15 13q9 0 19 6h7
q0 6 13 13l2 5q-4 8 -4 12q8 5 8 11h5v-6h2q13 2 19 2q0 -7 5 -7h2v16q34 28 43 28q0 -7 4 -7h2q7 0 7 9v6q8 7 26 7v-2q11 3 21 10q4 -2 7 -2l15 15q6 2 11 22h2q0 -11 6 -11h7q0 5 8 13q-3 0 -6 6q0 5 4 5h2v-5h2q7 0 7 13h2q28 -5 28 -13h2l11 3q0 4 -2 8q2 13 4 13h7
l-3 4v3h3v-5q4 1 4 5l-2 13q4 0 4 4v13h9q0 -7 17 -11q0 -3 6 -6h13q13 3 13 15q11 -7 18 -7h2q26 30 38 30q0 -8 11 -8v-5q-6 0 -13 -10q7 0 7 -5v-2l-2 -4q5 0 8 -2q0 3 30 21q0 7 13 9q0 6 5 6q6 -8 23 -15q5 5 13 5v2q0 1 -6 6q-2 19 -2 22q14 -11 21 -11q0 2 2 2
q3 -4 3 -6l-9 -26v-5q3 -8 13 -8q-17 -11 -17 -13h8v-2h-4v-2q6 -6 13 -22q13 -7 17 -15q22 -1 22 -9v-2h-2v4h-3v-10q5 0 5 -5h2q7 14 24 22q2 10 2 28h2v-4h2q3 0 7 6l-3 4q3 0 7 3q0 -3 2 -3q4 6 4 9h11l7 -4h8q2 0 7 8q-2 5 -2 7q2 4 2 6q-5 1 -5 5q0 3 7 6h26v-13
q0 -4 4 -4q9 7 9 15v2l-3 4h7q0 5 -7 5v2q9 7 9 15q4 0 4 2q7 0 22 -11v-2h-4v-2q0 -3 6 -6h4q28 25 72 38q2 3 10 3q0 -3 3 -3h6v-4h11l30 30q8 15 45 30q0 4 24 20v4h-2q-4 -2 -9 -2q-3 0 -6 6v3q0 14 26 30v2l-28 26h-3q-4 0 -36 -20q-31 -12 -37 -21q0 4 -4 4h-11
q-4 0 -9 -13l3 -11l-24 -15h-4v5q-12 0 -16 -9v-4h7v-2q0 -4 -9 -9l-4 2l2 4v5q-16 4 -17 4q0 -2 -13 -13q4 -7 4 -13v-2h-8q0 7 -5 7v2h5v2q-8 0 -11 2q0 -4 -4 -4v4h4v4q0 5 -15 7l-2 -5l2 -4l4 2h2q-6 -7 -6 -10l-5 2h-2q-2 0 -2 -2l-4 2q-13 -8 -13 -11q2 0 2 -2h-4v4
h-2q-26 -14 -26 -17h-2q-5 2 -7 2v-4l15 -3v-2q-8 0 -8 -4v-9h2l4 3v-5l-15 -4q0 13 -11 13q-19 0 -19 -13q2 0 2 -2h-2q-4 2 -7 2q0 -4 -4 -4h-2q0 5 -9 8v2h-2q-6 -10 -9 -10l-6 -5h-2q-5 1 -5 5l-10 -3h-7v3q8 17 24 17v4h-4v2q8 0 8 5h-4l-4 -3v9q34 0 45 20q4 0 4 4v2
l-11 15v2q0 3 7 7l-2 4q0 2 13 11q-3 4 -3 8h7q0 -3 4 -8v-5q-8 0 -11 -8h3l4 2v-2q-2 0 -2 -2l4 -2h4v4l7 -4q1 4 4 4q0 -2 2 -2q3 4 3 6q-3 4 -3 7l5 -3h4q4 0 4 9q2 0 2 -2q4 2 13 2l-2 4v3h2v-5l11 2h2v-4h-8v-9h6v-2h-4l2 -4v-2h-2v4l-4 -2h-9v6h4v3h-6q-5 0 -5 -5
q5 0 5 -4v-2l-13 -9h2l11 2l-2 -4q2 0 2 -2h-5v-4h3q4 2 6 2q0 -2 2 -2q0 2 2 2l-2 4q1 4 5 4h10v-4l-2 -4l-4 2h-2v-2l4 -7q-4 0 -4 -4l-5 2h-2q-11 0 -13 -6h11q17 0 22 10v11h6l11 2q1 -4 4 -4h2q5 13 5 15h2l6 -4h5q8 11 10 11q0 -3 3 -3l2 5q-2 4 -2 6q34 7 34 18h7
l10 2v4h-6v2q6 0 6 2l-4 9v4h2v-6l30 41q22 28 33 28q0 10 10 15q0 -13 5 -13q0 4 6 11v15q20 12 50 21q11 -4 17 -4q4 5 4 9l-2 4q7 24 17 24l16 -2v4h-9l2 4v2q0 2 -2 2q4 10 13 16v-5h4q5 1 5 5l-3 4h5l-2 -11l4 -2l6 4v-6h-4v-5h2q4 3 7 3q0 -5 4 -5q0 5 4 5v4h-4v2h4
q1 -4 5 -4q9 4 10 8v3h-4q1 4 4 4q0 -4 5 -7q-3 -4 -3 -6h3q4 1 4 4v7q0 4 -4 4q0 -2 -3 -2v9q1 4 5 4q0 -11 13 -11v-4h-5v-5l11 -2l-2 5h9l6 -5h2v2q0 4 -6 7l-4 -2q0 4 -7 4l2 4q-2 0 -2 3q15 0 15 6l7 -4v4l4 -2h2v2q0 3 -21 13h-3v-9l5 -2q0 2 2 2v-4q-7 0 -7 -4
q-3 2 -8 2v15h-7v-2q2 -4 2 -7l-4 2h-11v5l5 -2h4v6h-11q-5 0 -6 -9h-2v5q-9 0 -31 -7v-4h7v-2q-4 0 -9 -4h-2q0 4 -13 8v9q-11 0 -24 -15h-2v2l7 8v3q-5 0 -5 8h-2l-28 -21q0 3 -6 6q0 -3 -43 -26q-17 0 -39 -51q4 -7 4 -11q-24 -24 -28 -24q0 2 -2 2q-4 -5 -11 -21l-4 2
h-2q-6 -11 -9 -11q-4 -2 -9 -2q-3 8 -6 8q-7 -7 -17 -10q-11 -15 -26 -15l-11 -3q-4 3 -11 3q-2 0 -2 -3l-4 3q-2 0 -15 -20q2 0 2 -2h-2l-5 2q0 -2 -2 -17h-2l-4 2v-2l2 -4l-4 -3q-10 20 -18 20v2q-21 -19 -30 -19q-14 0 -24 19h-10q-10 -11 -13 -11l2 -4v-2h-2v4h-5
q3 -9 3 -15q-5 -11 -9 -11q-4 -16 -4 -17h-7v2q2 4 2 7q-4 2 -6 2q-4 -2 -7 -2v2q-6 0 -13 -18h-2l-6 5h-9v-7l-4 2h-4q0 -5 -5 -10h2q5 2 7 2v-7h-4v-2l2 -11q-6 0 -11 -17h-11l-6 5q-5 -6 -5 -9h-6l-4 2q0 -4 -5 -4q-10 2 -10 8h-5v-4q-4 1 -4 4l2 11l4 -2h3v2l-3 4
q11 -4 15 -4q0 2 -8 7q2 4 2 6q-2 0 -2 2l11 5v-3l-3 -4q2 0 11 -9v3l-6 10h2q4 -2 6 -2q0 3 -6 7q-28 0 -28 -7q2 0 2 -2l4 2h3q0 -2 2 -6q-9 0 -13 -11v-11q4 -5 4 -6q-3 0 -6 -11l-11 2q0 -4 -17 -9l-9 5q0 -5 -4 -5h-3q-3 0 -6 9q-22 -9 -22 -13q-6 -7 -36 -11l-2 -4
l-5 2h-2q0 -6 -4 -6l2 -5v-2q0 -15 -15 -21h-2l-7 4l-4 -2q-4 0 -15 4q-20 0 -30 -28q-24 -15 -43 -15q-5 2 -7 2q-26 -21 -26 -32q-26 -11 -26 -15q-3 -22 -13 -22q-4 2 -6 2l-2 -4q2 -4 2 -6q-14 -9 -24 -9q2 -6 5 -6q7 4 10 4q0 -2 -8 -9q-9 3 -9 7q2 0 2 2h-6l-5 -2
q0 6 -4 6q0 -9 -24 -15q-16 -9 -23 -21l2 -5v-2h-2v4q-9 -6 -18 -6q0 6 -17 9q-26 -26 -32 -26q-7 0 -7 -5h3l4 2v-6q0 -2 -2 -2l2 -4q-2 -4 -2 -9q1 0 8 -2l-6 -9v-2l2 -11l4 2l5 -2q0 2 2 2q2 -4 2 -6zM1283 1208l4 2l5 -2l2 4v5q-9 10 -9 15h-4q-4 0 -9 -9v-2q1 -4 5 -4
h2l-2 4q2 4 2 6h2q4 0 4 -4q-2 0 -2 -2q4 -2 6 -2v-7l-4 2h-4v-2zM1352 1212h6v9h-4l2 -4q-4 0 -4 -5zM1044 1217l-3 4v2h5q4 0 4 -4v-2l-4 2q0 -2 -2 -2zM921 1219v4h6q0 -4 -4 -4h-2zM694 1219h9v2q0 4 -4 4h-5v-6zM1054 1221v4q5 0 5 -4h-5zM1505 1221h11q8 4 8 13l-6 11
l4 6v2h-10q0 -4 -3 -4l-19 2l-4 -6v-11q0 -2 19 -13zM824 1229q8 4 8 7v6q0 7 -13 7q0 -7 -4 -7h-2v9h6q0 4 -4 4q-3 0 -6 -6q0 -20 15 -20zM940 1234q0 3 7 6l4 -6v-2q-4 2 -11 2zM1119 1240h7q3 0 6 7v2l-2 4q-4 -2 -7 -2l3 -4v-2l-9 6h-4v-4q0 -3 6 -7zM949 1245v6h4v-6
h-4zM1307 1242h13q10 3 17 24q9 0 13 11q-5 15 -9 15h-11q-5 0 -6 -9h-9l-10 9h-7q-3 0 -17 -17q2 -4 2 -9h-2l-7 4q-4 -2 -6 -2v-2q0 -2 2 -2l-2 -4v-5q14 -4 19 -4v2q0 2 -2 2q2 4 2 7h2q15 -20 18 -20zM869 1245h4v6h-4v-6zM1272 1245h5q0 2 2 6h-7v-6zM1548 1245h7v2
q0 4 -7 4v2q1 4 4 4q3 -3 3 -8q3 0 17 13q0 -4 9 -9q19 0 19 33q2 0 2 2h-6l2 4q0 4 -5 4q-28 -31 -28 -36l-10 -3q0 5 -5 5h-4q-5 0 -6 -11zM1089 1253v4h2v-4h-2zM1147 1253h2v4h-2v-4zM1160 1253h2v7h-2q-4 0 -4 -5zM1123 1255h3v5h-3v-5zM1281 1257v5h2v-5h-2z
M1354 1257h4v3h-4v-3zM168 1264q16 0 24 26v4q0 17 -17 28l2 11q0 12 -17 15q-20 -4 -20 -19h2l-2 -5l2 -4q-15 -9 -15 -26q7 0 7 -4v-2l-5 2h-2l7 -11l4 2h2l-2 -4v-2q0 -6 17 -9q1 0 9 2q1 -4 4 -4zM1104 1268v5h2v-5h-2zM278 1268h5v5h-5v-5zM910 1268h2v5h-2v-5z
M1289 1270v5h7v-5h-7zM1587 1270v3h4v-3h-4zM289 1270h4v3h-4v-3zM1462 1270v11h-4v-6q0 -5 4 -5zM1587 1279q2 4 2 7h2l2 -11zM1106 1277v4h4v-4h-4zM1471 1277h2q4 1 4 4h-6v-4zM1557 1277h2v2h-4v2h4q0 -2 2 -2v4q0 5 -4 5h-2q-5 0 -5 -5v-2q0 -4 7 -4zM794 1279h4
q4 1 4 4v5q0 4 -4 4h-2q-3 0 -7 -6v-3q1 -4 5 -4zM1436 1279q4 1 4 4v5q-6 7 -6 13l-4 -3q-5 10 -5 11q-10 0 -10 -4q-5 2 -7 2v2q8 22 11 22q0 -2 2 -2l2 4q0 7 -6 15v6q6 0 13 11q-3 0 -3 2l-4 -2h-4l-7 5q0 -7 -23 -20q0 -3 -7 -6q-12 2 -17 2q-5 -6 -9 -17q-3 -3 -8 -3
h-5q-14 15 -21 20l-13 -7q2 -4 2 -6q-4 -7 -4 -13q4 0 6 -17q13 -4 13 -7q8 7 11 7l-2 4v7h2q4 0 4 -5q-2 0 -2 -2q6 0 11 -6q3 2 11 2l-3 4v2h3v-4q11 13 15 13q7 -13 19 -13q4 2 7 2v-4q2 0 2 2l13 -2l-5 -7h3q4 0 4 7q3 0 13 -13q-2 -4 -2 -9l6 5v-7zM1421 1283h2
q4 1 4 5v2h-2q-4 0 -4 -4v-3zM1468 1283q0 14 24 24v2q0 1 -2 9q2 8 2 15q5 -2 20 -4q8 7 10 34h9v2h-4v5l2 4h-2l-9 -7h-2q-9 9 -17 9h-3q-5 0 -13 -4q-7 4 -10 4q-2 -4 -2 -6l2 -5q-5 -7 -5 -11q-2 3 -10 3l-3 -9q5 0 5 -4q-17 -17 -17 -33q0 -12 25 -28zM1600 1290h4v2
h-4v-2zM1164 1296q0 3 -2 7h2q5 0 5 -5zM1598 1294h2v4h-2v-4zM328 1296h2q3 0 9 9v6q0 6 -16 9q-9 -4 -10 -9v-6q3 -9 15 -9zM1402 1296h4v5h-4v-5zM1158 1305v4q4 0 4 -4h-4zM1188 1305v4h2v-4h-2zM1343 1309v2q3 0 7 3h2v-3q-2 0 -6 -2h-3zM405 1311h5q3 0 8 9v2
q0 4 -8 9h-7q-3 0 -6 -9q4 -10 8 -11zM1563 1311h11q5 0 7 15q-5 0 -5 7q-21 -3 -21 -9v-4q0 -3 8 -9zM1322 1316v4q2 0 2 2q-2 0 -2 2l-5 -2h-2v2q5 0 5 9q8 -11 10 -11v-4h-2l-4 2v-4h-2zM1348 1316v4h2v-4h-2zM1783 1318l2 4l-4 2l-2 -4zM1358 1324v2h5v-2h-5zM912 1324
h2q5 1 5 5v2q0 4 -5 4q-3 0 -6 -6q0 -5 4 -5zM934 1326h4q4 1 4 5v6q-4 0 -4 -6h-6v8h-5v-6q0 -3 7 -7zM1248 1329v4q5 -2 7 -2v-2h-7zM612 1329v2l5 -2q3 0 13 13q0 2 -2 2l2 4v2q0 4 -5 4v-4l-19 7v2q1 4 4 4l2 -9h3q3 0 6 7v2l-11 2h-8q-3 0 -13 -13v-8q6 0 6 6h7
q0 -4 8 -4v-4q0 -3 -2 -3l2 -4v-2h-4v4l-4 -2h-5q0 9 -6 9v-2q5 -13 21 -13zM1238 1331q0 4 4 4v-4h-4zM354 1331h8l7 4q-6 26 -11 26h-11q-3 0 -8 -9q0 -14 15 -21zM1233 1333v4l7 5v-5q-4 0 -4 -4h-3zM1479 1333v2l2 4q5 -2 7 -2q0 -4 -5 -4h-4zM164 1335v2h4v-2h-4z
M617 1335l-2 4q4 -2 6 -2v-2h-4zM1225 1335v4h2v-4h-2zM1637 1335v4q-8 3 -9 3v-5q5 0 9 -2zM936 1337h4v5h-4v-5zM1544 1337h2v5h-2v-5zM615 1342v4h2v-4h-2zM1466 1346q1 4 5 4v-4h-5zM464 1346h2v4h-2v-4zM1432 1346h4v2h-4v-2zM914 1348h7q16 0 28 28q-15 15 -28 15
q-18 -8 -18 -21v-11q0 -3 11 -11zM1540 1350h2v4q-3 0 -7 3v-3q1 -4 5 -4zM1415 1357v4h4v-4h-4zM1003 1357q11 0 21 30q23 0 48 19q6 0 6 5q0 7 -28 19q-33 0 -39 -13v-9q-1 0 -23 5q-26 -10 -26 -26v-4q0 -20 41 -26zM1348 1357h2v4h-2v-4zM1447 1359h4v4h-4v-4z
M1542 1359h4v4h-4v-4zM1656 1361v2q1 4 4 4v-2q0 -4 -4 -4zM1001 1363v2h4v-2h-4zM1136 1363h3v7h-3v-7zM1430 1365h4l4 2q4 -2 7 -2v5q0 4 -5 4zM1011 1376h5v-4q-5 0 -5 4zM1156 1370h4q0 4 -4 4v-4zM1425 1370q0 2 2 6h-8v-4q2 0 6 -2zM1449 1370h4v4h-4v-4zM1003 1383
q2 0 6 2v-9q-3 0 -6 7zM1139 1374h2q4 1 4 4v2h-2q-4 0 -4 -4v-2zM1443 1374h6l-2 4v7q6 0 6 4q-3 0 -8 4l-9 -6q2 -9 9 -9zM498 1376h4q6 0 9 15q-4 13 -9 13h-10q-8 -4 -11 -13q0 -13 17 -15zM1432 1376h2v7h-4q2 -5 2 -7zM1645 1378v2h5v-2h-5zM763 1378h13q14 0 22 17
q0 26 -26 26h-4q-20 -2 -20 -19q0 -13 15 -24zM839 1378h13q3 0 6 7v4q0 15 -17 15q-11 -3 -11 -15q4 -10 9 -11zM1013 1380v5h3v-5h-3zM1001 1391l4 2l4 -6h-4q-4 1 -4 4zM707 1387h2q4 0 9 8v5q0 11 -9 15h-15q-3 0 -6 -7v-13q3 -8 19 -8zM888 1387h7q3 0 8 8v11
q0 3 -12 13q-22 -1 -22 -15t19 -17zM1102 1387q2 4 2 6q17 -2 24 -6q17 0 26 26q9 0 13 6l4 -2q6 6 24 9q6 9 6 13l15 -3h9q13 6 13 18q0 6 -9 6v2h4v5q-10 0 -13 8q7 9 7 17h4l7 -4h10l9 7q11 -6 11 -9q-4 0 -7 -13q7 -12 18 -13q14 0 21 15q11 0 11 5l4 -3h2l-2 5l2 4h-6
q1 4 4 4l2 -4q7 0 7 11q4 0 4 -5v-2q-11 -13 -11 -15l11 -2q11 4 11 11h4q8 -7 15 -7t24 28h2v-2q-2 -4 -2 -6q4 0 4 6l11 -2q0 2 -8 9q-5 -2 -7 -2q0 2 -2 2q0 -5 -4 -5h-2l-16 11l-10 -2h-18q-3 0 -6 -6v-3q6 0 6 -4v-2h-2q-5 4 -6 4l-22 -19h-4q-4 4 -17 4q8 12 8 20v4
q-9 15 -17 15q-6 -2 -17 -13l-11 2h-2q-3 0 -15 -17l-9 6q-19 -1 -19 -17q1 -13 6 -13l7 5l2 -9q-13 -5 -13 -9v-10h-2q-3 0 -11 23h-7l5 7q0 2 -2 2l2 4v7q-7 0 -7 10h-4q0 -8 -4 -13h13v-2q-5 0 -11 -10v10h-2q-5 0 -5 -4v-2l9 -11q-3 0 -9 -9v-8l3 -4q-5 0 -5 -5l2 -4
q-9 -3 -13 -11q5 0 5 -4l-5 -2h-4q0 5 -15 17h-9q-1 0 -10 -11h-3l-4 2q0 -3 -19 -26v-2q2 -6 15 -19zM1462 1387q4 1 4 4h-4v-4zM1378 1389h2q4 1 4 4h-2q-4 0 -4 -4zM1662 1393v2h5v-2h-5zM1011 1395q1 5 5 5l2 -5h-7zM1535 1393h5q4 1 4 5q-6 4 -7 4h-2q0 -4 -4 -4
q1 -5 4 -5zM1130 1398v4h4v-4h-4zM1453 1395h5v9h-5v-9zM1378 1398h4v4h-4v-4zM1460 1398h6v2h-6v-2zM1483 1398v2q0 4 -4 4v-2q1 -4 4 -4zM1529 1398q2 0 11 13l-5 2q-5 0 -6 -15zM1544 1398q4 0 4 4l-2 4q9 1 9 7v4l-7 -4h-2v6q1 4 4 4h2l7 -4l2 4v3q0 4 -4 4h-5
q-17 -12 -17 -15q7 0 9 -17zM1100 1406h4v-4q-4 1 -4 4zM1600 1402v4h4q0 -4 -4 -4zM1471 1402h2q4 1 4 4v2q-4 -2 -6 -2v-4zM1352 1406v2h4v-2h-4zM1686 1411v2h4v-7q-4 1 -4 5zM1703 1406v5h3v-5h-3zM2113 1404h4v4q0 5 -4 5t-4 -5q0 -4 4 -4zM1490 1406q0 3 2 7h-4
q-5 0 -5 -5q3 0 7 -2zM1699 1408v5h2v-5h-2zM1468 1408v7q-4 0 -4 -4zM1471 1408h4v5q-4 0 -4 -5zM582 1411h15q3 0 11 10v9q-11 15 -21 15t-18 -15q0 -11 13 -19zM1119 1415q1 4 4 4v-4h-4zM1759 1413h3q4 0 4 4v2h-2q-5 0 -5 -4v-2zM1468 1415h9q0 2 2 6l-4 2q-3 0 -7 -8z
M651 1417h2v6h-6v-2q1 -4 4 -4zM1356 1419v2h5v-2h-5zM1492 1419q0 4 -4 9h6l2 -9h-4zM358 1421q19 5 19 20v6q-8 15 -28 15q-14 -6 -17 -13v-4q0 -17 26 -24zM1356 1423q1 5 5 5h2q0 -5 -5 -5h-2zM1499 1423v3q0 4 4 4h2q-2 -4 -2 -7h-4zM1764 1421h4v7q-4 0 -4 -5v-2z
M82 1426h6q-2 4 -2 6q-4 0 -4 -4v-2zM1158 1428v6q4 0 4 -4zM1354 1430v2h7v-2h-7zM1568 1428h6v4h-6v-4zM1503 1432v4q4 -2 6 -2v-2h-6zM1195 1434v5q4 0 4 -5h-4zM1639 1434v2q0 5 4 5v-2q0 -5 -4 -5zM1723 1436v5h4q0 -5 -4 -5zM1557 1445v2q4 0 4 -4v-2q-4 0 -4 4z
M1568 1441v4h2v-4h-2zM1740 1443v2h4v-2h-4zM1734 1445v4h4v-4h-4zM1803 1447v2h4v-2h-4zM1225 1456v2h4q0 -2 2 -6h-2q-4 0 -4 4zM1800 1452v2h5v-2h-5zM1725 1454v4q1 4 4 4v-8h-4zM1742 1454v4h2v-4h-2zM1220 1460v2h5v-2h-5zM1246 1458h9q4 1 4 4v5q-13 -5 -13 -9z
M1438 1462v7h2v-7h-2zM1885 1462q8 5 12 5v4q-6 0 -6 2q-11 -3 -11 -6q1 -5 5 -5zM1279 1469v8l4 3v-3q-2 -3 -2 -8h-2zM1244 1471h11q0 4 -4 4h-3q-4 0 -4 -4zM1693 1473v2q4 0 4 5h2v-5l-4 -2h-2zM1734 1473v2h4v-2h-4zM1878 1473h4v4h-4v-4zM1177 1480v4h2v-4h-2z
M1201 1490q4 7 4 11h5l-2 -11q6 0 6 -4l4 2l2 -4v-4h-2q-7 7 -17 10zM1201 1482q1 4 4 4v-4h-4zM1796 1482v2h4v-2h-4zM1529 1484q0 2 -2 6v2h2q0 -2 2 -6v-2h-2zM1725 1486v2h4v-2h-4zM1335 1488v4q4 6 4 11h2v-8h-4v-3l2 -4h-4zM1348 1490v2q0 5 4 5v-2q0 -5 -4 -5z
M1496 1490l-2 5v2h2q5 0 5 -5zM1889 1490v2h4v-2h-4zM1274 1497v4h3v-4h-3zM1386 1495h9v4q-4 -2 -9 -2v-2zM1240 1499v2q1 4 4 4h2q0 -3 -6 -6zM1348 1499v4h2v-4h-2zM1182 1499h2v4h-2v-4zM1354 1501v9q4 -2 7 -2q0 2 2 2v-2zM1751 1501v2h4v-2h-4zM1330 1505v5q5 0 5 -5
h-5zM1406 1503h4v2h-4v-2zM1628 1508v4h4q0 -4 -4 -4zM1423 1508h4v2h-4v-2zM1552 1510v2h5v-2h-5zM1775 1510q0 3 6 6v-2q0 -4 -4 -4h-2zM1402 1512h2q4 1 4 4q-3 0 -9 5h-2q5 -6 5 -9zM1225 1514h4q4 1 4 4v3q-3 0 -8 4q-5 0 -5 -4v-3q1 -4 5 -4zM1460 1514q2 13 4 13
q-2 4 -2 6h-4q0 -4 -3 -8h3q-3 -4 -3 -7h-2v5h2q-2 4 -2 6h-2q0 -7 -2 -11q7 -4 11 -4zM1386 1516h5v2h-5v-2zM1781 1518l-2 5h6q0 -5 -4 -5zM1792 1521v2h4v-2h-4zM1311 1521h4v4h-4v-4zM1427 1521q5 2 7 2v4h-4q-5 0 -5 -4q2 0 2 -2zM1322 1523h2q0 6 4 6q0 11 -6 13h-5
q1 -4 5 -4l-2 -5zM1727 1525h2q-2 4 -2 6h-4v-2q1 -4 4 -4zM1285 1527h2q4 0 9 9h-7q0 -4 -4 -9zM1035 1529h4q5 1 5 4q0 5 -7 5q-4 -2 -6 -2v-3q0 -4 4 -4zM1637 1531v2q2 0 6 3v-5h-6zM1307 1531q2 0 13 15h-3q-2 0 -10 -10v-5zM1490 1531q9 4 9 7q-3 0 -3 2q-3 -2 -10 -2
q2 -7 4 -7zM1721 1531q4 1 4 5h-4v-5zM1744 1531h5v5q-5 0 -5 -5zM1688 1536h11v2q0 4 -4 4h-7v-6zM1281 1540l2 4l-4 2l-2 -4zM1744 1540h5v4h-5v-4zM1270 1542h4v2h-4v-2zM1294 1546h4v3q0 4 -4 4v-7zM1973 1549v6q4 0 4 -4zM1287 1551h5v4h-5v-4zM1703 1555v6h5l-5 9
q5 0 5 4h2v-4q-2 -4 -2 -6q4 -3 6 -3q0 -3 -11 -6zM1759 1555v2h7v-2h-7zM1759 1568v2q5 0 5 -4v-2q-5 0 -5 4zM1341 1564v4h-6v9q6 0 6 4v2l-11 2v-2q0 -2 3 -13h-5q0 -4 13 -6zM1626 1566v2h4v-2h-4zM1054 1568h5q4 1 4 4v2q0 5 -4 5h-2q-4 0 -7 -7q1 -4 4 -4zM1604 1570
v2h5v-2h-5zM1897 1570v7h3v-7h-3zM977 1570q13 1 13 7v6q0 3 -7 7q-11 0 -15 -9v-2q0 -4 9 -9zM1969 1572v2h4v-2h-4zM2031 1572h2q4 0 7 9h-2q-3 0 -7 -7v-2zM1695 1577v4h2v-4h-2zM953 1577q3 0 9 8v5q0 3 -7 6h-4q-4 0 -4 -4v-9q0 -3 6 -6zM1324 1577h4v6h-4v-6z
M276 1581q30 0 35 43q-12 35 -39 35q0 2 -5 2q-43 -6 -43 -31v-2q0 -35 52 -47zM1346 1581h2v4h-2v-4zM1716 1583q1 4 5 4v-4h-5zM1747 1583q0 4 -5 4v3h5l2 -5v-2h-2zM1766 1583v7q6 0 15 6h11l2 -9q-8 -4 -17 -4h-11zM2040 1587l15 22q-8 4 -17 4q-19 -13 -26 -13v-6
q3 0 13 4q2 0 15 -11zM1337 1590q4 2 6 2v4h-6q-4 0 -4 -4zM1706 1592v2h4v-2h-4zM1005 1594q4 1 4 4v2q0 5 -4 5h-2q-5 0 -5 -5q0 -3 7 -6zM1721 1600v9h2q0 -3 4 -9v-4h-2q-4 1 -4 4zM1986 1596v4q4 0 4 -4h-4zM1641 1598v7h2q0 -3 2 -7h-4zM1703 1598v4h3v-4h-3z
M983 1598h2v4h-2v-4zM1710 1605v4h4v-4h-4zM1744 1609q3 0 3 2h-3q3 4 3 7h2q0 -5 2 -5q-2 -4 -2 -8q-5 0 -5 4zM1753 1605v4h2v-4h-2zM1046 1607h4q4 0 4 4v2q0 5 -4 5h-4q-5 0 -5 -5v-2q1 -4 5 -4zM1872 1607h6q0 4 -4 4h-2v-4zM1309 1609h2l11 2v2q-5 9 -11 9v2h9v-6h2
q2 0 2 2l4 -2h2l-2 4l2 11q-2 0 -2 2l5 2l13 -2q0 2 2 6q-2 4 -2 9q3 11 12 11v2l-2 4q3 0 7 2q4 -2 6 -2l-2 -4h2q5 1 5 4l4 -2h2q27 28 47 28l3 4h-7l2 5v2l-4 -2h-2v6h2q9 0 9 -11q12 7 21 15l-4 9q3 0 8 4l-2 -4v-6h2q9 6 22 10v5q-9 0 -9 6q5 1 5 4q-7 0 -7 16
q-4 -3 -6 -3l2 -4v-2h-2q-5 1 -5 4q-13 -6 -19 -6q0 2 -2 2q0 -5 -9 -7l2 -4q-2 0 -2 -2q7 0 7 -9q4 1 4 5q-2 0 -2 2q2 0 2 2q4 -2 9 -2v-2q-9 -7 -13 -7v-6h6v-7h-4q-3 0 -7 7v2l3 4q-3 0 -3 2l-4 -2h-2l4 7l-4 2l-28 -20l4 -2q-4 -10 -8 -11v5h4v4q-30 -8 -43 -26l2 -4
q-7 0 -11 -2q-14 8 -17 8q-24 -8 -24 -41q-8 -3 -8 -15v-2q0 -17 17 -17zM2092 1611h2q13 8 13 19q-13 -5 -13 -8l2 -4q-2 0 -2 -3l-5 3h-2v-3q1 -4 5 -4zM908 1615h6q5 1 5 5l-5 2v-2l-4 2h-2v-7zM966 1615h6q5 1 5 5v8q0 3 -7 7h-2q-3 0 -6 -7v-8q0 -5 4 -5zM1656 1618v4
h2v-4h-2zM1751 1620v2h4v-2h-4zM1330 1620h5v2h-5v-2zM1410 1620h5q0 4 -5 4v-4zM1296 1624v2h4v-2h-4zM1406 1624h2v4h-2v-4zM1313 1633v2h4v-7q-4 1 -4 5zM1874 1630v3h4v-3h-4zM1781 1633v2q1 4 4 4h3v-2q0 -4 -5 -4h-2zM1928 1630h6q13 9 13 22l-11 2l-13 -15v-4
q1 -5 5 -5zM1930 1641l4 2q0 -2 2 -6h-2q-4 1 -4 4zM1330 1641q0 4 9 9h4l-2 -4l2 -5h-13zM1885 1641v5h2v-5h-2zM1322 1650v2h4v-2h-4zM1317 1652v4h5v3l-2 4h4v-9q-2 0 -7 -2zM1315 1659v10h2v-10h-2zM1333 1661v2q2 4 2 6h2v-8h-4zM2107 1659h2q3 0 6 6v2q0 4 -4 4t-4 -4
v-8zM1365 1661h2q0 4 -4 4h-2q0 -4 4 -4zM1324 1665v6h2v-6h-2zM1356 1678q0 3 9 9q0 -11 4 -11v-2h-2q-7 4 -11 4zM1462 1671q4 1 4 5h-4v-5zM1371 1676v4h3v-4h-3zM1378 1676v4h2v-4h-2zM1382 1676v4q4 0 4 4h3v-6l-5 -2h-2zM1494 1678h5v4q-5 0 -5 -4zM1376 1682v5h6
q0 -5 -4 -5h-2zM1391 1682v5h2v-5h-2zM1389 1689v2h6v-2h-6zM1490 1687h4v2h-4v-2zM1371 1693v2h5v-2h-5zM1412 1693l-2 4h11v-2q-5 0 -9 -2zM1406 1697l-4 7l6 4l4 -6v-3q-2 0 -6 -2zM1505 1695h2v7h-2q-4 0 -4 -5zM953 1702l2 4v9l-4 -3h-2v3h4v4h-6q-5 0 -5 -4v-7
q0 -5 11 -6zM1865 1717q2 0 2 2l5 -2q11 0 23 17v4h-2q-3 0 -8 -13h-7q3 11 9 11q0 4 -5 4h-4q0 -12 -4 -12l2 -5v-2h-2v4h-5q-4 0 -4 -4v-4zM2122 1717l2 4q0 4 -4 4l-3 -4q1 -4 5 -4zM1555 1721h4q0 4 -4 4v-4zM1455 1730v2q7 0 7 4h2v-4l-4 -2h-5zM1477 1730q4 0 4 4h-4
v-4zM1486 1734h2v4h-2v-4zM1432 1738v2h4v-2h-4zM1447 1740v5h2v-5h-2zM1458 1740v3h6v-3h-6zM1869 1738h3q0 5 -5 5h-2q1 -5 4 -5zM1481 1740h5q-3 5 -3 7h-6v-2q1 -5 4 -5zM1507 1740h2q8 8 31 11q7 13 10 13q0 -8 11 -8v2q0 5 30 10q0 3 2 3q1 -5 5 -5q0 9 15 9
q0 -2 4 -2v-2h-13v-5h2l5 2q3 -2 8 -2l2 5q-2 0 -2 2q7 0 15 2q0 -2 3 -2v6q-8 2 -9 2l2 5l4 -2q11 2 11 6h-4v7h6l-10 12v5l6 -5q4 3 9 3v6h-5q0 4 7 4l-2 5v4q4 0 4 4h4l-2 -4v-2h4l-2 -4q2 0 2 -3q-4 0 -4 -4q2 0 2 -2q-4 0 -4 -4l4 -3l5 3q0 -15 15 -18q-3 -12 -7 -17h7
l6 4q1 -4 4 -4h3l4 2q2 -6 13 -6h2q22 14 22 17v2h-5v9q4 -2 7 -2v-2l-2 -5h4l-4 -6h2q3 0 8 8v3l-4 -3v5q4 0 11 8q4 -2 6 -2l-4 -6v-5q15 17 15 24q-11 13 -15 32q-9 0 -17 13q2 5 2 7q0 8 -19 11l4 6v2h-2l-13 -6l-2 4h8v2q0 5 -6 5q-9 -4 -9 -7l-4 2h-11q0 -2 -2 -6
l4 -2h4l-2 4v2q7 0 7 -9q-5 -7 -9 -25q-5 0 -8 2q-7 0 -7 -7h-2v5q3 0 6 6v2h-4q0 -4 -15 -13v5q13 8 15 8v9l-4 -2h-2q0 10 -5 10l-4 -2q0 5 -9 9h-2q0 -7 -6 -7v-8h8q-4 -6 -4 -11h-2v9q-4 0 -4 -5l2 -10h-9l2 4q-2 0 -2 2l-13 -2v-4l7 -13h-3q-2 0 -10 10q2 0 2 3l-4 2
l-7 -11l2 -4q-12 0 -26 -22q-11 -16 -30 -19q-2 -8 -34 -20q0 -2 -13 -13q5 0 6 -8h-4q-4 2 -7 2v-7h5v-6h-5l-4 2v-4q1 0 9 -2q0 4 4 4h2v-7zM1626 1743h4v4h-4v-4zM1891 1743h2v4h-2v-4zM1512 1747v4l-5 -2l-2 4v3q4 0 4 4h7v-7h-4v-2h4q0 -4 -4 -4zM1585 1745h6q0 4 -4 4
h-2v-4zM1869 1745q11 13 20 13v4h-4q-16 -9 -16 -13v-4zM1483 1747h5q0 1 2 9h-2q-5 0 -5 -5v-4zM1619 1749v7h-4v-3q1 -4 4 -4zM1602 1751h2q5 1 5 5q-3 0 -7 2v-7zM1520 1764h4q4 0 7 -6v-2q-10 2 -11 8zM1475 1756v4h-7v-2q3 0 7 -2zM1634 1756h3v10l-9 2v-4q6 -5 6 -8z
M1509 1762v2q1 6 11 9v-7q-5 0 -11 -4zM2085 1760q4 2 9 2v4q0 5 -5 5h-2zM2053 1762q0 6 6 6l-2 5l2 4h-8q2 -4 2 -6q-5 0 -5 -5q1 -4 5 -4zM1531 1766q2 5 2 7q3 0 7 -7h-9zM1552 1768v3h5v-3h-5zM1637 1768q2 0 2 3l11 -3h2v3q-4 0 -11 6l-4 -6v-3zM1951 1771v4h3v-4h-3z
M2104 1768h5v3h-5v-3zM2113 1768h2v5h-6q0 -5 4 -5zM1102 1771q4 0 4 4v2q0 4 -4 4t-4 -4v-2q0 -4 4 -4zM1544 1773v4h4v-4h-4zM1945 1773v6h2v-6h-2zM1520 1775l-2 4h6q0 -4 -4 -4zM1665 1773q4 0 4 4v2q-4 0 -4 5h-3q0 -5 -4 -5q0 -3 7 -6zM1615 1777v7h4v-7h-4z
M2076 1777l3 4q-3 0 -3 3h7q-2 -5 -2 -7h-5zM1531 1779v5h2v-5h-2zM1585 1779v5h4q0 -5 -4 -5zM1609 1779v7h2v-7h-2zM1581 1784v4h2v-4h-2zM1647 1784h7v4h-7v-4zM2040 1786v4q4 0 4 -4h-4zM2085 1786l-2 4v2h2q0 -4 4 -4v-2h-4zM1617 1788v4h2v-4h-2zM1742 1786q5 0 5 4
h-5v-4zM2070 1788l-4 6l4 3q0 -5 11 -5v-4h-2q-5 2 -7 2q0 -2 -2 -2zM1749 1790h4v4h-4v-4zM2098 1792v5h2v-5h-2zM1555 1794v3h4v-3h-4zM1624 1794l2 5q-3 0 -7 6h5q0 -4 8 -4v-4zM2083 1794q1 5 4 5h2v-5h-6zM2171 1792h5v2h-5v-2zM1563 1797v2q13 0 15 2v-4h-15z
M2040 1797v6h2v-6h-2zM2113 1797v2q1 4 4 4v-6h-4zM1576 1807v2h2q5 0 5 -4v-4q-3 0 -7 6zM2089 1801q0 4 -6 4v4l11 -2v-6h-5zM1734 1803v2q0 4 4 4v-6h-4zM2070 1803v4h9v-2zM2139 1805v2h4v-2h-4zM2167 1803h4v2h-4v-2zM1628 1807v5h2v-5h-2zM2201 1805h3q2 0 2 2l15 -2
h2q50 12 76 48q-5 0 -5 6h-15q-35 0 -73 -37l2 -4q-7 -8 -7 -13zM1585 1809v7h8v-2q-3 0 -8 -5zM1613 1809v5q4 0 4 -5h-4zM2055 1807h2v5h-2v-5zM2184 1807h5q0 5 -5 5v-5zM2219 1814v6h4q3 0 7 -6v-5h-7q-4 1 -4 5zM1669 1812v4h2v-4h-2zM2053 1812h2v6l-4 2l-3 -4
q5 0 5 -4zM2210 1818q1 4 4 4q0 -4 3 -8h-3q-4 0 -4 4zM1628 1816v2q6 0 6 4h-2l-4 -2l2 11v4q0 2 -2 2q2 5 2 7h4q0 -6 11 -9h2v-13l-4 3q0 -3 -2 -3v7h-2v-7q2 -4 2 -6h-13zM2236 1820v2h4v-6q-4 1 -4 4zM1596 1818v4h2v-4h-2zM988 1818q4 1 4 4v5h-4q-5 0 -5 -5
q1 -4 5 -4zM1609 1820q0 4 -5 9v2h5l2 -9v-2h-2zM2219 1827v2h4v-2h-4zM1632 1831h5v4q-5 0 -5 -4zM1742 1835v5h2v-5h-2zM1680 1837q0 5 -7 5v2h5q0 -4 8 -4v-3h-6zM1723 1837v3h4v-3h-4zM2124 1835h2v5h-2v-5zM2133 1835v2q0 5 -5 5h-2q0 -3 7 -7zM1686 1842v6h2v-6h-2z
M1723 1842v4h4q0 -4 -4 -4zM2133 1840q4 0 4 4t-4 4q0 -2 -3 -2q3 -4 3 -6zM1641 1844q3 11 6 11l3 -5q-3 -4 -3 -6h-6zM1628 1846v2h4v-2h-4zM1637 1846v4h2v-4h-2zM2025 1850h4v3h-4v-3zM1725 1863h4v-4q-4 1 -4 4zM2305 1857h2v4h-2v-4zM1675 1861h5v2h-5v-2zM2137 1861
h4v5q-4 0 -4 -5zM1654 1866v2h4v-2h-4zM1660 1866v4h2v-4h-2zM1684 1863h2v7h-2v-7zM1699 1866v4h2v-4h-2zM1703 1870h5v-4q-5 0 -5 4zM1725 1866q1 4 4 4h2q0 -4 -4 -4h-2zM2122 1868h6q0 4 -4 4zM1697 1874v4h2v-4h-2zM2344 1878h6q24 6 24 11q-4 1 -4 5v2h4q0 -7 2 -7
q6 0 24 22v2h-2q-9 -7 -13 -7v7h4v6q-16 -2 -28 -8l7 -13v-2h-3q-4 2 -6 2l2 4v7q-9 0 -15 -11q-7 0 -7 -11q5 0 5 -9zM2352 1883v2h5v-2h-5zM2130 1883h3q4 2 6 2v4h-2q-3 0 -7 -6zM2350 1894q2 4 2 6h3q0 -5 4 -11v-2q-9 3 -9 7zM2380 1902v2h5v-2h-5zM843 2012l4 7v4
q0 3 -8 9q-9 -5 -9 -13q9 -7 13 -7zM2100 2021h4q5 0 5 4v4q-3 0 -7 3l-2 -5v-6zM2437 2023v4h-5q1 -4 5 -4zM2107 2034h4v4h-4v-4z" class="colorcurrentColor svgShape"></path></svg></g></svg>