<svg id="SvgjsSvg1127" width="288" height="288" xmlns="http://www.w3.org/2000/svg" version="1.1" xmlns:xlink="http://www.w3.org/1999/xlink" xmlns:svgjs="http://svgjs.com/svgjs"><defs id="SvgjsDefs1128"></defs><g id="SvgjsG1129"><svg xmlns="http://www.w3.org/2000/svg" viewBox="-10 0 2010 2048" width="288" height="288"><path fill="#ffffff" d="M57 -31l3 6l7 -3l46 57v16q-9 18 -20 20q-30 -11 -30 -33q-7 0 -13 -3l3 -7v-3h-3v6h-3q-14 -5 -14 -23v-13q1 -7 7 -7v20h7q0 -17 13 -17v-6q-13 0 -13 -7q3 0 10 -3zM70 2v7h3v-7h-3zM43 5v7q7 0 7 -7h-7zM103 32v7h3v-7h-3zM87 35v7h3v-7h-3zM1599 122l7 10v13q0 5 -14 13h-10q-6 0 -6 -10q4 -26 23 -26zM150 125h6q7 1 7 7h-13v-7zM143 132v3q0 7 -7 7v-4q1 -6 7 -6zM160 158v10h-10v-6q3 0 10 -4zM200 198q15 13 16 23q-7 0 -7 7l-6 -3l3 -7v-3l-6 3h-4q0 -10 -6 -10h-4q-4 0 -13 17h7l6 -4q0 4 4 10l6 -3h4l-4 17h10q0 -15 13 -24
v4q-9 33 -19 33h-4q-30 0 -30 -37q18 -23 34 -23zM173 231l7 10q-4 0 -4 4q4 0 10 3v-17h-13zM283 311h3q7 1 7 7v6q-5 0 -10 -10v-3zM263 314q0 12 3 17q-3 7 -3 10q3 13 13 13q0 7 -7 7q-13 -14 -13 -33v-7q1 -7 7 -7zM296 324l3 17q0 13 -13 20h-3l3 -7l-7 -10l4 -16l6 3
q1 -7 7 -7zM329 364q33 15 33 47q29 20 34 20v-4q-4 -6 -4 -9h20v13h4q0 -17 16 -20v-7h7q0 13 16 30q-6 3 -10 3v7q2 7 7 7q1 -7 7 -7v3q-4 6 -4 14l-6 -4h-4v10l7 -3q16 4 17 13q-5 0 -10 10h3l-3 7v10h6q0 -10 7 -10q0 7 3 7q11 -7 17 -7l-3 7v6q0 10 13 10v7
q-10 0 -10 7v3q17 20 37 20v10q0 17 -10 20q0 -4 -4 -4v4q4 6 4 10q-4 0 -4 3h10v3q0 7 -6 7v-7h-4v4q4 6 4 10l-7 -4h-3q3 7 3 10q17 0 17 -10h6l-3 7v7q7 0 7 -7q-4 0 -4 -3l20 3q-9 16 -13 17q0 -4 -3 -4q0 11 -4 17q16 0 20 13v7q0 6 -13 6q7 14 7 24l-7 3h-7v-7h-6
q0 9 -14 14v3q-6 0 -6 -7v-6l6 3h4v-10h-10v-10l-4 -17q7 0 7 -6v-7h-3q0 17 -10 17l-7 -4v4l10 13v10q-7 0 -13 3q-3 -13 -7 -13q-6 3 -10 3v-3q-11 7 -17 7l4 -7h-10l-17 10q-17 -7 -23 -7l3 7v3h-3q-2 0 -10 -10q-6 4 -10 4q0 -3 -13 -20v-10q0 -9 6 -20q-20 0 -40 -7
q0 4 -3 4q-39 -50 -40 -67q-13 0 -20 -17v-16q0 -4 27 -13l3 -24q-7 -1 -33 -46v-30l27 -50q6 0 26 -7zM549 364h6v4q0 6 -6 6v-10zM429 421v3q7 8 7 13h3q0 -7 3 -13q-7 0 -13 -3zM1881 424q7 1 7 7v3h-3q-7 -3 -10 -3q1 -7 6 -7zM1868 431h7q0 7 3 13h-10v-13zM256 434
q7 1 7 7v3q-7 0 -7 -7v-3zM249 444h10v3h-10v-3zM226 477h3q24 15 24 37q-7 1 -7 7l7 10v10q-14 11 -14 29h-6q0 -20 -7 -20l-10 7q0 -3 -3 -10q10 0 10 -16q0 -9 -14 -24v-13q0 -4 17 -17zM226 487v7h3v-7h-3zM436 497h6v-6q-6 1 -6 6zM236 504v3h3l4 -13q-7 0 -7 10z
M43 494h14q13 7 13 20q-7 20 -27 20q-13 -14 -13 -27q0 -5 13 -13zM219 501v6h4v-6h-4zM442 501v3h7v-3h-7zM505 497h7v4h-7v-4zM465 511v6h7q0 -6 -7 -6zM755 514q6 1 6 7h-6v-7zM522 517h7v7h-7v-7zM482 524v7h3v-7h-3zM465 527v10h7q-3 -6 -3 -10h-4zM229 537v7q7 0 7 -7
v-6q-7 1 -7 6zM173 531h3q-20 14 -20 29q14 5 14 10v4h-4q-16 -5 -16 -24v-6q5 -13 23 -13zM239 534q1 7 7 7v-7h-7zM482 537v7h7v-7h-7zM186 541h4v9q0 18 -14 24v-4l4 -13q-4 -6 -4 -10zM482 547v3q1 7 7 7v-3q0 -7 -7 -7zM1067 547h17q4 0 10 10v10q0 5 -10 10h-14
q-5 0 -10 -13q7 -11 7 -17zM509 554v13h6v-7q0 -6 -6 -6zM479 557v7h3v-7h-3zM209 557h7v13h-7v-13zM652 557h3q7 1 7 7h-4q-6 0 -6 -7zM1077 564v6h7v-6h-7zM442 567v3h7v-3h-7zM672 564h9q0 6 -6 6zM535 574h7v10h-7v-10zM226 577h7v3h-7v-3zM678 577h3q7 1 7 7v3h-7
q0 -3 -3 -10zM449 584v6h3v-6h-3zM499 587v7h3q7 0 7 -7v-3q-7 3 -10 3zM751 584q0 3 4 3q0 3 -4 3q5 40 17 40h7q9 -11 46 -13l3 -7q34 12 34 30q20 -8 20 -20h6v7l7 -3h3q14 8 14 30h3q0 -10 6 -10l-9 -14v-6q3 0 19 20h-6v3q14 0 16 20h4v10l-4 6h4l6 -3l4 7q-7 1 -14 16
l-6 -3h-4v7l17 6v7q-16 10 -23 10v3q11 0 20 10h6l7 -3l3 7q-11 0 -16 16h10q10 -12 10 -20h3v10h7q14 -13 16 -13h4v7h-7v6l7 -3q0 5 13 10q2 -13 10 -13h3v13l10 7q11 -7 17 -7v3l-7 10v4l13 19q7 -3 10 -3l17 23l-3 7v3q9 0 20 10h3v-6l-7 -10q4 -7 4 -10h3q7 1 7 6
q-7 1 -7 7q23 8 23 23v4h4q0 -7 3 -7q28 27 43 27h3q0 -9 44 -14l30 4q56 -3 56 -17l-3 -17h6q11 0 44 -13v3q16 -6 23 -6q0 12 30 33q23 6 23 13q-12 7 -76 20q-5 0 -34 -3q-15 0 -73 33h-3q0 -8 -13 -13l-7 3h-50q7 24 7 27h3q0 -14 7 -14v7q0 8 -4 13q4 7 4 10q-4 0 -4 4
q-11 -7 -20 -7q0 17 -6 17q-14 -10 -30 -24h-20l3 7v3q0 5 -10 10q0 -6 -6 -6l-24 3q0 -10 -6 -10q0 3 -4 3v-6q-6 1 -6 6h6q0 6 -13 14l-10 -7q0 15 -3 20q13 0 23 37q-7 0 -7 10h-6v-7h-7v10l7 -3v6l-10 13h13v7l-7 10v3h4l16 -3q1 7 7 7h3v-7q11 7 17 7q0 -4 3 -4l4 7v3
h-17q0 -3 -3 -3q-7 3 -10 3q6 11 6 17h7q0 -8 37 -20h3v3q-10 0 -10 7q3 0 3 3l-6 4l3 6v4q-8 0 -17 10h-3v-7q-7 1 -7 7h7l-3 16l6 -3v7h-6l-14 -14v7l4 7h-4q-5 -4 -13 -4l-30 23v4l4 16l-17 -3h-3q-13 10 -20 10q-4 -6 -4 -13h-6l-4 16v4h14v6q-8 0 -14 4q0 -4 -3 -4v4
q3 6 3 10h-6l-14 -10q0 3 -3 3v-7q-7 1 -7 7v3l7 -3v13q-23 0 -23 27q13 0 13 7l-3 6h6q0 -10 7 -10q0 4 3 4l-6 13l6 3v-6q7 1 7 6v7l-7 -3h-3l-7 3q0 13 14 13q0 7 -7 7q0 -4 -3 -4v4q0 4 26 20h7v-4q-14 0 -17 -26h-6v-4q1 -6 6 -6q0 8 17 20l7 -4h20q36 7 36 17l-7 3
q0 -3 -3 -3q0 8 -3 13h6q7 -3 10 -3q0 2 -19 23l6 10l-3 20h-7l-56 -53q-4 6 -4 10l-6 -3q-8 0 -10 26h-4q-6 0 -6 -6h6v-4q-10 0 -16 -6q0 -3 13 -20l-7 -4q-9 17 -20 17v3q5 14 17 14v6q-21 0 -26 20q3 6 3 14h-7v9l7 -3v3q0 11 -43 17q-78 0 -107 -86q0 -37 -26 -53
q0 -26 -34 -50q-3 -7 -3 -10l-7 3q0 -3 -3 -3l3 -7v-7q-10 0 -19 20h-4l-6 -3l3 -7v-3h-3q-7 3 -10 3v-3q0 -7 10 -7v-6h-7v-7l3 -7q-3 0 -3 -3h7q-4 -6 -4 -13h-3v13h-3q0 -14 -27 -20h-7v-3q6 0 10 -7l-3 -6v-7q13 0 13 -7q-16 0 -16 -10h-17l-7 -3v10h-6v-17q13 0 13 -13
q-5 0 -13 -7h-4v4l7 10v3q-13 0 -13 13h-4q-35 -42 -43 -60l4 -19h-10v6q-8 0 -10 -16h6v6l10 -6q0 6 10 6l-3 7l7 3q0 -5 6 -13q-23 -10 -23 -27q11 0 23 -10q7 4 10 4q0 -4 -3 -4l3 -6l-6 -10h6q7 0 7 13q7 0 23 -27q7 -3 10 -3q0 3 3 3l4 -6l6 3h4v-3l-4 -17q7 0 7 -7v-3
q-3 0 -17 -7q-6 4 -10 4v6q4 0 4 -3l6 3q7 -3 10 -3v3q0 10 -13 10l7 10q-4 0 -10 4q-7 -8 -7 -24q-7 0 -7 14h-6l3 -7v-3h-13v-4l3 -6l7 3h3v-7h-7v-6q22 6 24 6l6 -13h-3l-10 7h-3v-7l3 -6q-3 0 -3 -4l-7 4q-7 0 -7 -7v-3l17 -4h3l4 14h6q7 0 7 -7v-3q-20 0 -20 -20l-7 3
h-3v-3l3 -7q-6 0 -6 -7q1 -6 6 -6q0 3 4 3v-3l-4 -7q4 0 4 -3q9 1 13 16q-3 6 -3 14h6q0 -7 7 -7q0 -3 -3 -3q0 -10 10 -10v-4h-7q0 7 -7 7h-3v-3q3 -5 3 -17h-10v3h-3q-6 0 -10 -16q5 0 13 -14l-3 -6q10 -3 13 -13v-7h-3v10q-8 0 -10 -17q7 0 7 -6v-4h-14l4 17l-7 3
q0 -7 -3 -13q4 -17 10 -17h3q5 0 10 10q6 -3 10 -3v-10q0 -7 -7 -7q-6 4 -10 4q0 -10 -10 -10v-7l7 3l17 -3l3 13q6 -3 10 -3v-7h-7v-3q7 0 7 -3l7 3h3l-3 -7l6 -10v-3h-6l-10 7h-7v-7l3 -7h-3l3 -6l-3 -7h13v13h14v-3l-14 -13q0 -10 20 -10v3h4q0 -16 13 -16q3 6 3 10h4
v-10q-7 0 -7 -7v-7q10 4 10 7q36 0 36 -23q7 3 10 3q3 -10 24 -17l-4 -6q0 -5 10 -10zM1134 587l10 13v10q0 5 -10 10h-4l-16 -16v-10q0 -7 20 -7zM542 594h7v10h-7v-10zM615 594q6 3 10 3v3q0 7 -7 7h-3v-13zM246 600h10q10 0 13 30q-5 14 -10 14h-13q-6 0 -17 -30v-4
q6 0 17 -10zM492 607v7h3v-7h-3zM662 607h6v7h-6v-7zM725 620v4h6v-4h-6zM103 627h7q5 0 10 10v7q0 4 -10 10h-4q-4 0 -10 -10v-10q2 -7 7 -7zM625 627h10v7h-10v-7zM891 630v10h7v-3q0 -7 -7 -7zM226 647h13q10 2 10 26l-20 10q-15 -6 -16 -13v-10q0 -5 13 -13zM519 654v3
h3q6 -3 10 -3q0 3 3 3v-7zM602 647h6v3h-6v-3zM904 657q4 6 4 10h6v-10h-10zM439 663q-13 7 -13 10h6l7 -3q1 7 6 7h4q0 -6 10 -17h-4l-6 3h-10zM562 657h6v16h-3l-6 -3q3 -6 3 -13zM465 663v4q1 6 7 6v-10h-7zM482 667v6h3v-6h-3zM608 663h4v7h-4v-7zM642 667v6q10 0 10 7
h3v-3q-3 -7 -3 -10h-10zM658 677v3h7q0 -5 7 -13h-4q-5 0 -10 10zM1067 667q0 6 10 16q0 7 -7 7h-3q-7 0 -13 -3q-7 3 -10 3v-3l3 -7l7 3l6 -3q1 7 7 7l3 -7q-16 -2 -16 -10v-3h13zM402 670v10q7 0 7 -7v-3h-7zM525 670v7q1 6 7 6q7 0 7 -6l-10 -7h-4zM416 673v7h3v-7h-3z
M602 670q6 1 6 7v6q-6 0 -6 -6v-7zM927 680q5 17 10 17v-4l-3 -16zM552 677h3q7 1 7 6h-3q-7 0 -7 -6zM535 687q1 6 7 6v-6h-7zM469 687q6 3 10 3v7h-4l-6 -4q0 4 -4 4v-4zM648 690v3q1 7 7 7v-3q0 -7 -7 -7zM552 690h7v3h-7v-3zM419 693h7v4h-7v-4zM598 693h7q7 1 7 7h-7
q-7 0 -7 -7zM572 697l3 6q0 7 -7 7q0 -3 -3 -10zM1124 697q6 1 6 6v17q0 4 -23 20q-7 0 -7 -7v-23q6 -13 24 -13zM645 703v7h3v-7h-3zM585 703h7v4h-7v-4zM552 710h16v7h-16v-7zM316 713h7v7h-7v3h7v7h-4q-5 0 -10 -10q1 -7 7 -7zM512 717h3q5 0 10 10v3h-3q-5 0 -10 -13z
M186 730h14q5 0 9 17q-6 20 -26 20q-7 -2 -13 -17q4 -14 16 -20zM535 730h7v3h-7v-3zM572 733h6v7q-6 0 -6 -7zM1742 740q6 1 6 7l-6 3q-7 0 -7 -7zM924 747v3h7v-3h-7zM1719 743h13v10q-8 -6 -13 -6v-4zM997 747q7 1 7 6h-7v-6zM1709 747h10q0 6 -7 6h-3v-6zM1692 750h10
v10h-3q-7 0 -7 -7v-3zM927 757v3h7v-3h-7zM1343 757h7q0 6 -7 6v-6zM984 763v4h7v-4h-7zM1004 763v4q3 6 3 10q7 0 7 -7v-3q-4 0 -10 -4zM628 767v10h4v-10h-4zM947 767v6h7v-6h-7zM1047 763h7v7h-7v-7zM937 780h7v-7q-7 1 -7 7zM1017 777v6h7v-6h-7zM1027 777v6h7v-6h-7z
M1004 780v3h7v-3h-7zM605 783v10h3v-10h-3zM961 800v6h3v-6h-3zM1054 806h6v-6q-6 1 -6 6zM565 803h13v7h-6q-7 0 -7 -7zM1077 803h3q7 3 10 3v4h-13v-7zM1127 810h7v10l-4 6q-6 -3 -10 -3v-7q7 0 7 -6zM578 813h4v7h-4v-7zM1140 830h4v6h-4v-6zM1589 830q15 6 17 13v3h-7
v-6h-10q0 6 10 6q0 7 -7 7h-3v-7h-7l4 7h-7q-13 -5 -13 -10q6 -3 10 -3l6 3h4v-3h-7q0 -5 10 -10zM1077 840q0 3 -3 3q3 6 3 10h3v-7h4l6 4l4 -7zM1546 843h6q7 1 7 7q-16 0 -23 6h-4q0 -5 14 -13zM505 846h7v4h-7v-4zM612 856v4h6v-10q-6 1 -6 6zM1509 846h10v7h-10v-7z
M568 850h7l3 13q-5 0 -10 -13zM1522 850h4v6h-4v-6zM1094 863v3l13 4l3 -7h-16zM1130 863v3q1 7 7 7h3v-10h-10zM1173 873v3h7v-3h-7zM1163 876v4h7v-4h-7zM1173 886h7v-6q-7 1 -7 6zM1077 883v10q7 0 7 -7v-3h-7zM1562 883q17 4 17 23v3q0 24 -23 24h-10q-5 0 -10 -10v-10
q0 -22 26 -30zM632 890v6h3v-6h-3zM645 896v7h10q0 -7 -7 -7h-3zM1070 896v7h4v-7h-4zM1011 909v4h6v-4h-6zM635 916v7h3v-7h-3zM662 916v7h3v-7h-3zM1070 916v13h4v-13h-4zM562 919h10q6 1 6 7q-6 0 -6 13q-5 0 -10 -10v-10zM1167 926v7h6v-7h-6zM628 933v6q7 0 7 -6h-7z
M1153 933v3h7v-3h-7zM578 933h7v10h-7v-10zM1074 936v3h6v-3h-6zM1024 939v10h10v-10h-10zM1047 939v7h3v-7h-3zM545 939h7q0 3 3 20q-6 1 -6 7q3 0 3 3h-7q-6 0 -6 -6v-7l6 3v-3l-3 -7q3 -6 3 -10zM625 943v6h3v-6h-3zM592 949q0 5 10 10l3 -6zM1014 949v4h7v-4h-7z
M582 983v6h3q3 0 20 -13l7 3q0 -6 16 -6q-3 -7 -3 -10l-10 6v-6q3 -7 3 -10h-3q-24 30 -33 30zM632 956v3h6v-3h-6zM1197 953h6v6q-6 0 -6 -6zM525 959h10v4q0 6 -6 6l-4 -6v-4zM582 966v7h3v-7h-3zM645 966v3h7v-3h-7zM552 976l-7 10h14v-3q0 -7 -7 -7zM568 976v3q4 0 10 4
v-7h-10zM1173 973h7v3h-7v-3zM615 979v4h7v-4h-7zM509 979h6v7q-6 0 -6 -7zM618 993h10q0 -7 10 -7v-3h-6q-14 5 -14 10zM1007 983v6h4v-6h-4zM1040 983q0 6 -6 6v4h6l4 -7v-3h-4zM1074 983h3v6h-3v-6zM562 989v4h6v-4h-6zM588 993q0 6 -6 6v10l6 -3h7l7 3l3 -6
q-10 0 -10 -10h-7zM1021 993v6q6 0 6 -6h-6zM1037 996v7h7q0 -7 -7 -7zM608 1006l10 7h4v-4q-7 0 -7 -10q-7 1 -7 7zM622 1003v3h6v-3h-6zM642 1006v7h3v-7h-3zM1021 1016l13 6v-6q-3 -7 -3 -10q-5 0 -10 10zM1509 1006h7v7h-7v-7zM1479 1013h4v6h-4v-6zM1137 1016
q30 3 30 6q11 -6 20 -6q6 0 13 23h3l24 -3q6 16 33 16v7h-23l-10 7h-10q-11 -10 -73 -34l-7 -10q3 0 3 -3q-3 0 -3 -3zM1502 1016h4v6h-10q1 -6 6 -6zM542 1026v3h10l3 -7h-3q-7 4 -10 4zM605 1029v3h7v-3h-7zM625 1029v3h7v-3h-7zM652 1032v7h3v-7h-3zM1050 1029q7 1 7 7
h-7v-7zM1031 1036v16h6q-3 -5 -3 -16h-3zM559 1042v4h9v-7q-6 3 -9 3zM588 1046v6h7v-6h-7zM612 1046q0 6 -4 6q4 7 4 10h3q0 -11 3 -16h-6zM1077 1042h17v4q-12 3 -14 3zM565 1049l3 7l7 -4l7 4h3v-4l-17 -3h-3zM1040 1059v7h4q6 0 6 -7h-10zM642 1069h3q7 0 7 -7h-4
q-6 1 -6 7zM997 1062v7q7 0 7 -7h-7zM628 1069v7h4v-7h-4zM1293 1069h7q0 17 10 17v10h-4q-4 -1 -13 -17v-10zM1306 1069h20v3q-5 0 -13 7q-7 0 -7 -7v-3zM1090 1076q1 6 7 6v-6h-7zM622 1079v7h13v-4q-8 0 -13 -3zM652 1079v7q6 0 6 -7h-6zM1040 1079v10h7v-3q0 -7 -7 -7z
M1077 1082v7h3v-7h-3zM662 1092h6v-6q-6 1 -6 6zM678 1092v7h3v-7h-3zM1326 1089h4v7h-4v-7zM698 1096v6h3v-6h-3zM1014 1106q7 8 7 13h6q0 -4 4 -10q-7 0 -7 -13q-5 0 -10 10zM971 1099v7q6 0 6 -7h-6zM645 1109q-3 17 -3 20q13 -3 13 -7q-5 -13 -10 -13zM1037 1109v10
q7 -3 10 -3q0 -7 -7 -7h-3zM1124 1106h3v3q0 7 -7 7h-3v-4q1 -6 7 -6zM632 1112v4h10v-4h-10zM1140 1112h4q6 1 6 7l-20 13h-3q7 -13 17 -13zM1097 1119h7q6 1 6 7v3h-13v-10zM662 1126v3q3 0 10 3l3 -6h-13zM645 1132v7h3v-7h-3zM1001 1132q1 7 6 7l4 -7h-10zM1150 1129
q7 1 7 6h-7v-6zM1017 1142v3h7v-3h-7zM1107 1139q7 1 7 6v4q0 6 -7 6v-16zM954 1145v7h7q0 -7 -7 -7zM1124 1142l10 7h16v10q-26 -4 -26 -14v-3zM672 1149v3h6v-3h-6zM1044 1149h13l-7 10v3h7l10 -7q7 1 7 7l-14 17h-3v-14h-3v7h-4q-6 0 -6 -7v-3q0 -3 3 -3l-3 -7v-3z
M954 1159v13q5 0 13 7l4 -14q-11 -6 -17 -6zM632 1159h6v3h-6v-3zM934 1172v3h3l4 -13q-7 0 -7 10zM665 1165v7h10v-3q-4 0 -10 -4zM1157 1165h6v7h-6v-7zM645 1169h10v6h-10v-6zM1114 1169h6v6h-6v-6zM668 1175v10h7v-3q0 -7 -7 -7zM1147 1172q6 1 6 7v3q-6 0 -6 -7v-3z
M1120 1179h10v6h-3q-7 0 -7 -6zM931 1189v6h6q0 -6 -6 -6zM1084 1189q6 1 6 6l-6 4v-10zM1140 1189q7 3 10 3v7h-3q-7 0 -7 -7v-3zM652 1199h6v6h-6v-6zM1094 1202h3v7h-3v-7zM1104 1205h3q62 41 63 47v6l-90 20l-3 -6q25 -14 33 -53v-4q-6 0 -6 -6v-4zM1227 1232h6v7h-6v-7
zM1187 1235q5 0 10 10v4q-5 0 -10 -10v-4zM921 1262v3h10l3 -7q-6 4 -13 4zM1203 1255q5 0 10 10v3h-6zM941 1262v6h3v-6h-3zM927 1275v3h7v-3h-7zM987 1285v7h4v-7h-4zM957 1295v3q7 0 7 -6v-4q-7 1 -7 7zM994 1292v3h7v-3h-7zM1021 1308v7q6 0 6 -7h-6zM1024 1342h7v-7
q-7 1 -7 7zM1040 1338h7v7h-7v-7zM891 1345v7h7v-7h-7zM1310 1345h6v3h-6v-3zM1589 1345l3 7q-10 0 -10 6v4q8 0 14 3l-4 -7v-6h4q4 0 10 10v6q0 7 -7 7h-7q-23 0 -23 -23q14 -7 20 -7zM1037 1352h3v6h-3v-6zM751 1358h4q6 1 6 7v3q-2 10 -26 10v-10q5 0 16 -10zM1057 1358
q13 0 13 37l7 -4v7q0 17 -10 20h-7q-4 0 -10 -10v-7q7 -8 7 -13v-10h3v-3h-6q0 3 -4 3v-7q7 0 7 -13zM1180 1358q43 4 43 37q-5 15 -20 23h-10q-19 0 -33 -27v-6q0 -17 20 -27zM1635 1401h4q43 7 43 34l-27 6q-16 0 -33 -23v-3q0 -5 13 -14zM1632 1408v10h7v-10h-7z
M1662 1418l-3 13q5 0 10 -10v-3h-7zM1642 1421v4q1 6 7 6l3 -6l-7 -4h-3zM1107 1428q5 0 10 10v3h-7zM1692 1451h3q19 0 47 30l-7 4q-50 -4 -50 -20v-7q1 -7 7 -7zM1100 1455q7 1 7 6h-7v-6zM1423 1461q23 0 23 24v3q-7 13 -17 13q-23 -11 -23 -26zM1768 1498q18 0 27 16
q0 7 -7 7h-16q-5 0 -10 -10v-7q1 -6 6 -6zM1333 1504h7q4 0 10 10v17q0 7 -7 7h-13q-7 0 -7 -7v-17q0 -4 10 -10zM1835 1568h10q4 0 16 16v4q0 5 -13 10q-20 0 -20 -27zM1838 1574v7h7v-7h-7zM1539 1594q37 2 37 30l-14 10q-15 0 -30 -20v-10zM1300 1598q13 0 26 19v17
q0 5 -16 17h-17q-17 -9 -17 -27h4l-4 -7v-6q6 -13 24 -13zM1665 1827h10q5 0 17 16v7q0 18 -20 30h-7q-17 -12 -23 -27q0 -26 23 -26zM1925 1976h6q17 9 17 34l-7 3q-23 -10 -23 -30q1 -7 7 -7z" class="colorcurrentColor svgShape"></path></svg></g></svg>