<svg id="SvgjsSvg1107" width="288" height="288" xmlns="http://www.w3.org/2000/svg" version="1.1" xmlns:xlink="http://www.w3.org/1999/xlink" xmlns:svgjs="http://svgjs.com/svgjs"><defs id="SvgjsDefs1108"></defs><g id="SvgjsG1109"><svg xmlns="http://www.w3.org/2000/svg" viewBox="-10 0 1360 2048" width="288" height="288"><path fill="#ffffff" d="M1153 -43h4v7h-8v7h8v7h-11q-7 0 -7 -7q0 -6 14 -14zM872 61q54 0 54 98q3 19 3 39q-8 44 -25 44q0 3 -18 7q-63 0 -79 -98q0 -90 65 -90zM384 83h8v7h-8v-7zM384 94q7 3 11 3v4h-11v-7zM1085 292q7 1 7 7v11q-9 -11 -15 -11q1 -7 8 -7zM1077 299q0 11 11 11q0 7 -7 7q-5 0 -11 -10q1 -8 7 -8zM857 375q18 10 18 15v18q0 5 -21 21h-8q0 -11 -7 -29q12 -25 18 -25zM276 465h7v11h4v-11h7v8q0 5 -11 10q-7 0 -7 -7v-11zM749 469q21 2 21 11v18q0 5 -10 11h-11q-7 0 -15 -22q7 -16 15 -18zM886 473q16 14 18 14q-4 25 -11 25h-11
q-10 -3 -10 -21q7 -17 14 -18zM720 509q21 0 25 39q-8 40 -36 40v18q29 30 29 58q-4 14 -4 25q23 31 65 36q21 0 44 87q13 11 32 11h7l26 -4q1 7 7 7l-7 15q7 12 7 21l-4 26q15 0 22 14v7q0 9 -29 11q11 13 14 33l8 -4h3l8 4l-4 7v3h4l18 -3v-7q0 -8 -8 -8q0 -14 26 -57
q-4 -7 -4 -15l11 -7h7q12 12 51 22q7 8 7 14q0 30 -25 61q7 12 7 19q0 17 -29 28q-6 -3 -15 -3q-11 7 -18 7v-11q15 -12 15 -25q-22 -7 -29 -7q-36 0 -36 43l7 4h7q10 0 22 -8l4 8v3q-8 6 -11 54q-16 0 -33 47v4q22 28 22 40v3q-32 28 -43 62l3 21q0 16 -61 87q-6 0 -7 18
v47h-15q0 7 -7 7q-17 -25 -25 -25q-22 7 -22 14v15l14 3q12 -7 19 -7q9 18 21 18v7l-32 18l3 26v14q-6 8 -11 36q-19 36 -39 36q-10 0 -18 26q-15 4 -15 21h-11l-10 -7h-4v4l4 7h-4q-14 -6 -14 -15h-4q-5 0 -11 11l7 4v-7h8v7q0 7 -8 7q-7 0 -7 -7q-3 0 -3 3q-83 -6 -83 -32
q0 -11 -26 -29q-6 4 -14 4q-15 -64 -15 -69q8 0 8 -7v-4q-11 -15 -11 -29h3l-3 -7v-3q0 -10 7 -22l-7 -4h-7l-8 4q-19 -16 -21 -29h11l-8 -11v-7q27 -14 44 -36q57 -9 57 -22q-7 -43 -39 -43l-15 -18h4l11 7h3v-4h-7q0 -8 18 -10l-3 -18v-4l21 -14q7 -19 7 -26l-3 -7l36 -69
q-4 -7 -4 -10q6 0 36 -22h4q7 0 11 22h3v-4q-3 -6 -3 -14h11l-4 -18l7 -4h7v7q8 0 8 -7v-11q29 -14 36 -14q3 11 21 11l4 -8q0 -6 -22 -29v-10q1 -8 8 -8h3q3 0 18 18h7l8 -25v-3q-22 -23 -22 -58q13 -24 18 -47q-7 -12 -7 -22q-33 7 -33 15q8 11 8 21q-15 8 -22 8
q0 -4 -4 -4l4 -7v-4l-7 4h-4v-8q0 -2 15 -18q-11 -3 -11 -21v-11l11 -14q-8 -12 -8 -19l11 -7q0 4 4 4l3 -7v-58l4 -7q-13 -11 -25 -11q-21 0 -65 14q-15 -3 -15 -7l-7 4q-14 0 -32 -69v-4h3l7 4q14 -47 26 -47l-4 -7v-4q1 -7 7 -7l26 11q0 -6 14 -14h18q8 -11 18 -62
q15 -14 29 -14zM543 512h7q8 1 8 8h-15v-8zM608 512h7q5 0 11 11v4q0 18 -11 21h-21v-21q0 -6 14 -15zM413 538q0 7 4 7q7 -4 11 -4v18q0 7 -8 7h-10v-3q10 0 10 -7l-10 -8q0 4 -4 4l4 7v4h-8v-15q0 -5 11 -10zM1182 552q6 4 18 4v3q0 7 -7 7h-4q-7 0 -7 -7v-7zM763 566
q7 0 11 22l-7 4h-4q-2 0 -11 -11q6 -15 11 -15zM1023 577h15q11 11 43 26v18q0 6 -22 14q-49 0 -58 -32q6 -17 22 -26zM615 606v7h8v-7h-8zM637 617v7q7 0 7 -7h-7zM330 646l15 14v4q-4 0 -11 4q-7 -4 -11 -4v14h4q7 -3 10 -3v3l8 -3h3q-11 9 -11 32l-14 -7v7l7 11
q-50 26 -50 79q-3 0 -11 19q3 0 3 3q-7 1 -7 7q4 0 4 4l-11 7q0 -4 -4 -11q5 0 15 -21h-7q0 11 -8 11h-3v-8h-4q-5 0 -14 22q9 11 14 11q0 5 -11 11q0 -8 -7 -8q0 4 -4 4q0 -7 -7 -7h-14v3q11 0 32 11q0 16 -18 40q0 11 -7 11v25l7 -4h7v15h-7v14q11 0 11 11q-4 0 -18 18h7
v7q-14 3 -14 22h-7v-14l7 3v-11l-7 4l-4 -7v-7h7v-4h-3q-7 0 -22 7v-11l11 -14v-4h-7q0 -3 3 -3q0 -10 -21 -44v-7l7 -11q0 -7 -15 -7v-7l8 3l7 -10v-22h-7v-4h10q8 0 8 11q5 0 10 -11v-7l-7 4h-3q0 -11 -11 -11q3 -6 3 -14q8 0 8 14q9 -18 14 -18h7v-4q-12 0 -18 -3l4 -8
l-7 -10v-4h3q7 4 11 4v7l-4 7h4l14 -7q4 7 4 11h4q17 -10 18 -15h-8l-18 4q0 -7 -14 -7v-4l4 -7q-16 -11 -26 -11q0 4 -3 4l-4 -8q18 -2 18 -10h-3q-7 3 -11 3v-7q6 0 11 -7q-8 -19 -8 -29h8l7 3q0 -10 11 -10v7l-18 7v7q1 8 7 8q1 -8 7 -8l7 4v-7l7 3h4v-3h-7l7 -11h-7v-4
l7 -11q-6 -3 -14 -3v-7l18 3l-8 -11v-3h15q0 3 -4 3q6 15 11 15v-15h7q0 11 8 11q7 0 7 -18h-4v-3q9 -19 18 -19q12 8 18 8l4 -8l7 4h7l8 -4q1 8 7 8zM1052 664h11q18 9 18 29q-5 29 -29 29q-24 -10 -29 -22v-7q0 -29 29 -29zM597 678h7v-7q-7 1 -7 7zM189 671q8 1 8 7h-8
v-7zM200 671h7v4h-7v-4zM312 675v3h7v-3h-7zM175 678h4q7 4 10 4v4q0 7 -7 7l-7 -11v-4zM601 686v18h3q0 -8 4 -8q-4 -7 -4 -10h-3zM247 693v7h7q0 -7 -7 -7zM225 696v4h8v-4h-8zM215 700v4h7v-4h-7zM218 711q0 3 -3 3l3 22h4q7 0 7 -7v-7h-11v-8h11v-3h-11zM316 714v4h7v-4
h-7zM1038 725q14 16 14 18q0 18 -65 29q-7 -12 -7 -21q19 -26 58 -26zM186 736l-7 11q21 2 21 11h-3q-7 -4 -11 -4q9 18 14 18h4l3 -18q-5 0 -21 -18zM244 740q0 3 -4 3l4 8v3l-8 -3h-3l-4 18l7 -4h4v7q14 -7 14 -29q-3 0 -10 -3zM211 754v7h7v-7h-7zM236 776v7h4v-7h-4z
M168 779h7v8h-7v-8zM247 787v18h7q0 -3 4 -22q-7 4 -11 4zM983 797h18q6 0 11 11v18q0 6 -14 15h-15q-14 -6 -14 -25q7 -17 14 -19zM233 808v8h3v-8h-3zM204 812q0 4 -4 11l7 3l8 -3q0 14 7 14l7 -11q-4 -7 -4 -10h-3l-7 3v-7h-11zM875 837v7h4v-7h-4zM193 841v3h7v-3h-7z
M644 844h4q18 10 18 29v29q-5 0 -22 -32v-26zM207 862l-3 8q6 -4 14 -4v-4h-11zM175 866v14h7v-7q0 -7 -7 -7zM153 866h8v11q-8 0 -8 -7v-4zM204 873v4h7v-4h-7zM406 877h4q7 1 7 7l-7 4l-4 -8v-3zM171 884v7h4v-7h-4zM706 884v7h10v-3q-3 0 -10 -4zM229 913h7v7h-7v-7z
M197 920v4h7v-4h-7zM200 927v8h4v-8h-4zM197 938q0 6 -8 15h8q0 -4 3 -11v-4h-3zM211 938v11h4v-11h-4zM496 942h4q18 12 18 40v3q-26 4 -29 4q-25 -10 -25 -29zM200 963q1 8 7 8v-15q-7 1 -7 7zM471 963v4h14q0 -4 4 -11h-11q-7 1 -7 7zM496 971v11h4q0 -7 7 -19h-4
q-7 2 -7 8zM835 978v7h4v-7h-4zM854 978v7q7 0 7 -7h-7zM182 992q7 4 11 4v4q-7 0 -7 7h-7v-7zM175 1014h7q7 1 7 7v7q-14 -5 -14 -10v-4zM637 1014l11 14v11q0 5 -11 11h-11q-6 0 -14 -14v-8q0 -7 25 -14zM168 1018h3v3l-7 11h7l-3 22h-7q0 -8 3 -15v-3h-3v7h-8
q-5 0 -11 -11q4 0 4 -4h-11v-7h7q11 0 11 15h4q3 -18 11 -18zM215 1018l3 7l-7 3h-4v-3q2 -7 8 -7zM698 1021h4q-4 7 -4 11h-7v-4q1 -7 7 -7zM197 1036h3q7 1 7 7v4h-3q-7 0 -7 -8v-3zM189 1047h4q7 1 7 7v3q0 8 -7 8q0 -13 -4 -18zM150 1050q7 0 7 11l7 -4q0 4 4 4v-7h7v7
q0 7 -18 7l7 11q12 -7 18 -7q0 4 -21 21l-19 -3l-18 3q0 -15 -14 -28h14q0 10 15 10q0 -9 14 -10v-4q-11 0 -11 -7zM843 1054v3q3 7 3 11h4v-3q-4 -7 -4 -11h-3zM641 1068h7v7q-7 0 -7 -7zM142 1086h11q8 0 8 -7l-8 -4q-5 0 -11 11zM828 1093v8h4v-8h-4zM673 1108v18
q7 -4 11 -4v-14h-11zM666 1130l-4 7v7h4q7 -4 11 -4q0 -5 -11 -10zM680 1130v10h4q0 -3 3 -10h-7zM644 1169v7h7v-14q-7 1 -7 7zM659 1162q3 7 3 11h11q0 -5 -11 -11h-3zM669 1176v8h4v-8h-4zM644 1198h7l4 -14q-5 0 -11 14zM843 1194v8h3v-8h-3zM641 1223l7 4h3v-11h-3
q-7 1 -7 7zM666 1227v4h7v-4h-7zM644 1238q6 14 11 14q7 -11 7 -18l-7 -3zM633 1241v4h8v-4h-8zM626 1256v3h7v-3h-7zM637 1256v3h7v-3h-7zM630 1270v8h3v-8h-3zM644 1288h11q0 -3 -4 -3l4 -7v-4q-5 0 -11 14zM651 1299v4q2 7 8 7v-11h-8zM669 1317q2 7 8 7v-7h-8zM327 1324
h10q33 8 33 18q0 6 -15 15h-3q-4 0 -18 -25q-7 3 -11 3q4 -7 4 -11zM677 1335v4h7v-4h-7zM355 1346h8v-7q-8 1 -8 7zM680 1350v7h4v-7h-4zM623 1368v7h7v-7h-7zM904 1379h4q5 0 10 10v4q0 19 -14 25h-11q-5 0 -14 -14q0 -25 25 -25zM825 1415h7v7h-7v-7zM612 1422v7h3v-7h-3
zM817 1425h4v8h-4v-8zM810 1436q7 1 7 8v3q-7 0 -7 -7v-4zM633 1462v7q8 0 8 -7h-8zM821 1458q0 18 25 25v29q0 8 -18 11l-25 -36q5 0 18 -18q-7 0 -7 -7zM724 1516v3h7v-3h-7zM662 1519v8h4v-8h-4zM687 1559l-3 7h14v-3q-4 0 -11 -4zM637 1581v7h4v-7h-4zM659 1581l-4 7v4
h4q0 -8 7 -8v-3h-7zM669 1584v8q8 0 8 -8h-8zM626 1599q4 0 11 3l4 -7v-3h-8q-7 1 -7 7zM680 1599l7 3v-10q-7 1 -7 7zM630 1606v7h3v-7h-3zM854 1721h7v11q-7 0 -7 -7v-4zM330 1743h11q7 2 14 18q-9 24 -21 29h-15q-10 -4 -10 -22q0 -15 21 -25zM388 1887h18q18 11 18 22
q0 19 -18 29h-22q-11 0 -14 -29q5 -15 18 -22z" class="colorcurrentColor svgShape"></path></svg></g></svg>