<svg id="SvgjsSvg1087" width="288" height="288" xmlns="http://www.w3.org/2000/svg" version="1.1" xmlns:xlink="http://www.w3.org/1999/xlink" xmlns:svgjs="http://svgjs.com/svgjs"><defs id="SvgjsDefs1088"></defs><g id="SvgjsG1089"><svg xmlns="http://www.w3.org/2000/svg" viewBox="-10 0 3210 2048" width="288" height="288"><path fill="#ffffff" d="M1939 -27h6v5h-6v-5zM2243 -9l5 8q-12 29 -16 29h-2v-3q6 -34 13 -34zM1790 23h5v8h-5v-8zM1788 38h5v6h-5v-6zM1785 51h5v3q0 26 -8 58h-5v-3q0 -21 8 -58zM2196 62h5v13q0 11 -18 37q0 -3 -3 -3q7 -47 16 -47zM595 83q10 13 10 16l-5 2h-3q-4 0 -8 -8v-5q1 -5 6 -5zM252 99h13q3 0 13 13v5q0 6 -13 8q-12 -5 -18 -16v-5q0 -5 5 -5zM262 109v5h3v-5h-3zM1756 112h3q5 0 5 5h-8v-5zM1759 122h5v8l-3 5q3 0 3 3h-5v-16zM1759 143h8v24h-6v-8q0 -3 3 -3q-5 -8 -5 -13zM124 154q23 3 23 18l-8 5q-10 0 -21 -16v-2q1 -5 6 -5zM1764 172h3v16h-6
q0 -3 3 -3l-3 -5q3 -5 3 -8zM1586 190h3q5 1 5 5l-5 3q0 -3 -3 -8zM3125 198l5 3q5 -3 8 -3l2 5q-13 12 -31 21q0 -3 -13 -13zM1761 201h6v5h-6v-5zM1003 206q5 1 5 5v3q0 5 -5 5q-4 0 -8 -8zM3091 214h5v8q-5 0 -5 -6v-2zM1853 216h5v3l-2 26h-6l3 -13v-16zM670 227h8
q4 0 11 10v3q0 5 -5 5h-8q-4 0 -11 -10v-3q1 -5 5 -5zM670 235h6v-6q-6 1 -6 6zM681 235v5h3v-5h-3zM2188 282h5q0 5 -5 5v-5zM2188 290v5h-5q0 -5 5 -5zM2732 290h5v2h-5v-2zM2763 295h6v2q0 6 -6 6h-5v-3q1 -5 5 -5zM1100 303h13q15 9 15 23v5q0 4 -8 8h-5q-18 0 -26 -18
q4 -18 11 -18zM1950 303h2q-31 83 -31 115h8q-4 23 -8 23h-8q-8 40 -18 40l-3 -6q7 -71 24 -99q7 0 16 -60zM2756 316l2 5l-5 3l-3 -6zM2648 318l3 6l-13 10q-5 0 -5 -5q11 -11 15 -11zM859 329q5 1 5 5v5h-5q-5 0 -5 -5t5 -5zM1424 329h8q2 0 15 23v3h-2q-21 -16 -21 -26z
M2944 329l3 5l5 -3h5q0 6 5 6v2q-9 16 -13 16l-8 -5h-2v5h8q0 4 -11 8q-2 -5 -2 -8h-11v5h-3q-5 0 -5 -8h-5l3 6h-3q-5 -3 -8 -3l24 -18l10 5h3v-3q-8 0 -8 -5v-3zM1662 339h3q5 1 10 13q-10 3 -10 13q7 0 7 -7h6v5q0 3 -13 13q-7 -5 -11 -5v-3q11 -15 11 -18h-6
q0 10 -10 10v-2q0 -11 13 -19zM2923 342v5h3v-5h-3zM814 345q6 0 6 5h-6v-5zM843 347h5v3q0 5 -5 5v-8zM1154 350h3q5 1 5 5v3q0 5 -5 5q-4 0 -8 -8q1 -5 5 -5zM2578 352h2v6h-2v-6zM2601 355v3q-2 13 -10 13q-5 -3 -8 -3q1 -6 18 -13zM2572 358h6v5q-3 0 -8 2l-3 -5z
M1683 360h5v3h-5v-3zM2907 360v5h-5q1 -5 5 -5zM2910 360h5v5q-5 0 -5 -5zM2745 363h3q4 0 8 8q-6 10 -16 10l-3 -5v-5q0 -4 8 -8zM19 368h3v5h-3v-5zM27 368q5 1 5 5v6h-8q3 -5 3 -11zM139 368q4 0 8 11l-5 2q-5 -2 -8 -2v-6q1 -5 5 -5zM1986 379h6v5h-6v-5zM1591 381
q21 3 21 21v3q0 6 -2 10q15 29 23 52q3 0 3 3v5q0 6 -5 6h-6l-5 -3l-13 16q13 1 13 15q0 13 -16 21q25 0 45 40l13 -3q14 6 34 29v5q0 6 -3 10q0 6 27 19q10 -11 18 -11v-2h-5v-3h8q0 2 2 16v15q4 0 11 8q0 -4 7 -8h6q6 6 10 6l13 -8q5 1 5 5l-2 5q2 0 2 3q11 -4 11 -8l13 3
q11 0 29 -29l10 -8h5l6 3q1 -6 5 -6h3q5 0 7 16h16q41 -94 50 -94q7 0 16 -26h5q5 0 5 13h3l7 -5q32 22 32 44q0 16 -32 52v3q33 0 50 -10q47 6 47 7q13 -3 13 -7l-2 -6q8 -22 23 -31l8 5h26v-2l-2 -6l5 -2h5q0 8 5 8q11 0 32 -27q4 0 18 -13q5 3 11 3q12 -13 15 -32l11 -7
h2v2q-2 5 -2 8l5 3l18 -3q3 5 3 8q4 0 8 -8q-3 -5 -3 -8q40 -26 50 -26l5 11l-5 13q2 5 2 7q0 6 -5 19l3 5l-3 13l-13 -3q-3 11 -23 11q0 -5 -6 -5l-15 23v-5h-3v11l-5 2q-5 -2 -11 -2q-34 41 -68 41q-24 13 -34 29q-16 0 -31 21q-32 17 -32 34v3l6 2h5l42 -31
q23 -16 29 -16q0 5 5 5q13 -11 13 -18h3l7 5h3l10 -7q3 0 3 2q12 -1 29 -21h2l8 5q4 0 24 -18q4 3 10 3q3 -8 16 -8h5l-2 5l21 5v3q-18 10 -21 10v6l7 -6h3q0 14 5 14q0 8 -42 23q-49 36 -49 39l-5 -2l-16 2l-5 -8v-13h-3q-27 27 -31 27v2h7v5l-5 -2q0 10 -34 23q0 -2 -2 -2
q-3 13 -21 31l5 3h13v2q0 10 -34 13q0 -3 -8 -7h-5q-11 26 -21 26v2q7 13 29 19q0 -5 39 -11h3l7 5h6v-7q61 41 81 41q12 -5 26 -5q20 5 31 21h-8q-2 0 -2 -2l-5 2h-3q-22 0 -34 -5v3q0 6 39 18q0 4 29 26v5h-5q-6 -8 -39 -23q-16 -18 -55 -29h-19q-7 0 -15 5q-33 -2 -42 -8
l-16 3h-8q0 -16 -50 -18q-5 2 -7 2l2 5v3l-5 -3v6h5q-2 5 -2 8h-11q-5 0 -26 -6q-8 1 -18 13h-6v-5l6 -8l-3 -5l-5 3h-8q-6 -6 -10 -6l-40 27v2q3 0 8 3q3 -13 8 -13h10q6 0 11 15q-9 6 -13 6q9 15 31 23q9 -5 13 -5l3 5v8q7 1 18 18v3l-13 -3q-5 7 -5 11q5 8 5 16h-5
q-2 0 -29 -40v-2l3 -6l-8 -5q0 3 -3 8l-5 -3q-4 0 -21 24l-13 3l5 -8q-2 -5 -2 -11q21 -1 21 -5q-3 -5 -3 -8h-3q0 5 -2 5q-21 0 -21 -5l-13 3h-29q-5 5 -16 5v-5h-2v5h-6v-3l6 -7h-11l-8 5q-2 0 -2 -3l-6 3h-2l-8 -5h-3q-2 0 -36 7q-5 -2 -8 -2q0 5 -5 5q0 -26 -8 -26
q-5 3 -8 3q-3 -8 -5 -8q-17 5 -24 5q-4 -11 -8 -11h-2q0 11 -5 11q1 10 18 23l-5 3h-6v-5h-2q0 10 -3 10l13 21q-5 1 -5 5v6h3q3 0 10 -16q13 3 13 8v2h-5v6h3q4 0 10 -11l13 5l8 -10q5 3 8 3q2 0 2 -3q18 3 24 5q4 -2 10 -2q11 8 11 21q24 -6 26 -6l16 11q-4 0 -8 8
q31 4 31 13q-2 0 -2 2l5 -2h2v2q0 6 -13 6l3 5v2l-3 6q12 0 16 2q0 -2 3 -2q2 5 2 8h8q0 -7 5 -14q-13 -3 -13 -7v-6l6 -8q-8 -9 -8 -18q0 -4 8 -8h13q19 0 23 13q20 7 37 21v-2q-3 -5 -3 -8h8q4 0 11 10q-3 0 -3 3h3l-3 5v3h3v-5h2q5 0 5 5l-15 10v8h5v5l-5 -2q-6 1 -6 5
v26q0 3 -2 3l2 5q-2 8 -5 8l3 5q0 29 -21 29q-23 8 -26 8v-3q-9 5 -13 5q-32 0 -40 -31q0 -29 -15 -29q-25 -5 -34 -10l-6 2q-22 -9 -26 -13q0 -2 -10 -5q-16 2 -16 8h-2q-4 0 -14 -13l-5 2h-2v-7h-11q-14 0 -21 -14l-13 3h-8q-12 -12 -31 -21q-5 3 -11 3q-2 -8 -15 -8h-6
l-7 5v-3q2 -4 2 -10l-5 -3h-3v8q-31 -8 -36 -8q-3 5 -3 11h-10v-5l2 -13q-8 0 -8 13h-2l-8 -6q-10 13 -21 13q-4 0 -10 -10v-10q0 -7 10 -8v-8l-18 2q0 -5 -13 -5q0 8 -13 16q-3 0 -3 -3l-5 3h-3v-3l3 -5l-13 -10l-40 10q-3 -18 -13 -18q-2 0 -15 2q-21 -15 -27 -15l-2 -6
v-2l2 -18h3q16 7 16 18h10q14 -11 29 -11l5 3v-8h5q0 11 6 11h5l8 -6q0 3 2 3q1 -5 6 -5l18 2q1 -5 5 -5h3q6 5 29 8q7 -12 7 -24q-23 -2 -23 -7q5 0 5 -11h8l5 3v-5q0 -6 -5 -6l-8 6h-5q-5 0 -5 -6l-6 3q-26 -20 -26 -26q-9 0 -21 10l-21 -18h-2q-15 13 -16 13q-3 0 -3 -3
l-5 3l-39 -13h-5l-5 3q5 13 5 20q-5 12 -11 14q-2 0 -21 -6h-5q0 11 -5 11h-3l-8 -5q6 -24 6 -34h-3l-37 2q-15 -5 -15 -8q-10 6 -21 6q-21 0 -21 -21v-3q0 -4 10 -10h11q7 0 29 15q18 0 31 5q10 -2 24 -2l-3 -5v-8q0 -4 8 -8h2q11 0 11 18h18q14 -7 16 -15q-13 -8 -13 -16
l-8 5h-5q-6 0 -8 -13l8 -5l8 5h2q7 -18 13 -18h5q10 0 40 26q0 -7 18 -21q26 0 26 10h8l-3 -5q8 -8 8 -13h3l13 3l3 -6q-8 0 -13 -10v-3q5 0 5 -8h2l13 3v-3l-13 -13v-13q0 -2 3 -2l-3 -6q0 -3 8 -7q4 0 8 10h-5v5l8 -5h8q5 0 5 8q-4 18 -11 18l3 5v6q-3 0 -3 -3q-5 3 -8 3
v5h11v-5q11 21 23 21l-2 13v2q1 6 5 6h3q21 -13 21 -16v-3h-3q0 8 -5 8h-5q-5 0 -11 -10v-6h8q-8 -9 -8 -18v-5l5 -8q-3 0 -10 -13l8 -5h2q3 0 8 10l5 -2l45 18q11 0 16 -29q-7 0 -24 -18q-13 0 -50 -50q21 -20 21 -29q-11 -15 -21 -15v-6q13 -11 13 -15q-12 -38 -21 -47
q1 -6 6 -6h2v3l-2 5q5 0 36 21h8q5 0 5 -8q-5 -8 -5 -13q5 0 13 -23q3 0 3 -3q-27 0 -37 -52q5 -9 5 -13h8q0 6 6 13q-3 0 -3 2h5q1 -10 11 -10q0 -4 -19 -18q0 -8 -5 -16q15 -16 18 -16zM2565 381l2 5q-15 16 -21 16l-2 -5zM2852 381h3v5h-3v-5zM2536 384v2q0 5 -5 13
q5 1 5 6q-12 0 -16 2l-5 -8v-2h5v5q5 -3 8 -3v-5h-8q5 -10 16 -10zM2018 386l2 6q0 5 -5 26h-5q0 -12 -3 -16q6 -16 11 -16zM1984 389h5v3l-5 18h-5v-3q5 -8 5 -18zM451 397q12 5 13 10v8q0 4 -8 8h-5q-16 -7 -16 -21q9 -5 16 -5zM1199 402q6 5 10 5v11q0 5 -5 5h-2
q-4 0 -8 -8v-8q1 -5 5 -5zM451 410v5h2v-5h-2zM1228 407h10q5 1 5 6v13q0 4 -10 7q-12 -5 -13 -10v-8q0 -4 8 -8zM2512 407h6q2 0 2 3l5 -3h6q0 4 -11 11q-4 0 -8 -8v-3zM652 413q24 2 24 7v3h-8v3q3 0 8 2v-5q3 0 8 8v10q-2 6 -14 11q-28 -5 -28 -26q5 -12 10 -13z
M1024 413h2v5h-2v-5zM1602 415v5h2v-5h-2zM2709 415h2v5h-8q1 -5 6 -5zM660 420v6h5q0 -6 -5 -6zM1144 418h8v5h-3q-5 0 -5 -5zM652 423v5h3v-5h-3zM984 420h13q8 2 14 19q-4 10 -8 10h-13q-13 -7 -13 -21q0 -4 7 -8zM1986 420h6v3h-6v-3zM935 423h15q4 0 11 10v11q0 4 -8 8
h-3q-15 0 -23 -19q4 -10 8 -10zM657 428v5h6q0 -5 -6 -5zM945 428v8h3q5 0 5 -5q-3 0 -8 -3zM2695 426l3 5v2h-8v-2q1 -5 5 -5zM2557 428q5 1 5 5l-5 3h-5v-3q0 -5 5 -5zM2408 431l2 5v3l-2 5q5 1 5 5q-4 12 -16 18h-2q-5 0 -11 -10v-8q1 -5 5 -5v5h6v-5h-6v-3q0 -7 19 -10z
M1599 436v5q5 0 5 -5h-5zM2750 433h8v6h-8v-6zM2402 439q0 4 -5 10h8v-10h-3zM2682 436h11v18q-4 0 -21 13h-3v-5q0 -4 16 -10v-3h-3l-15 3h-6v-3q0 -7 21 -10q6 8 6 10h2v-5q-2 0 -2 -3q2 0 2 -2h-8v-3zM1576 441v6h2v-6h-2zM1050 441h8v6q0 5 -6 5h-2q-5 0 -5 -5
q0 -6 5 -6zM772 444q6 1 6 5v3l-6 -3l-5 3v-3q1 -5 5 -5zM1147 444h7v3q0 5 -5 5l-2 -5v-3zM2729 447v5h-5q1 -5 5 -5zM1921 452q1 5 5 5q1 -5 6 -5h2v2q-17 42 -29 53h-8q20 -52 24 -55zM2389 454v3q3 0 8 3v-6h-8zM940 454l5 3l-5 13h10v5h-13l-2 -18zM1973 454h6v3h-6v-3
zM2659 454h2v6h-2v-6zM1576 460v2h8v-2h-8zM1105 460h5q4 0 8 7v8q0 2 -16 16h-5q-12 -13 -18 -13q2 -5 2 -11h3l8 6zM1620 462v5q5 0 5 -5h-5zM1110 465l-8 13h3q4 0 10 -11zM2664 462v8q-5 0 -5 -5zM2703 462h3v5h-8q1 -5 5 -5zM1971 465h2v13q-9 8 -13 8q0 2 -2 2
q0 -16 13 -23zM2434 467h10v3q-5 12 -10 13h-5q0 -5 7 -5v-5l-5 2h-5q0 -3 8 -8zM2272 473l2 5l-18 13v-3q0 -3 16 -15zM1042 475h3q5 1 5 6v5q0 5 -5 5q-4 0 -8 -8v-2q1 -6 5 -6zM1178 475h5q5 1 5 6v2q0 5 -5 5q0 -6 -5 -13zM1521 475h8q0 12 2 16q-2 5 -2 8h-3
q-4 0 -8 -11zM1178 478v10q-5 0 -5 -5q1 -5 5 -5zM1149 481h3q5 0 5 5q-5 21 -10 21h-3q-4 0 -8 -8v-5q0 -4 13 -13zM2421 481h2q6 0 6 5h-3q-5 0 -5 -5zM1602 486v2h5v-2h-5zM2371 486v5q-4 0 -13 18l-18 3v-5l5 2q0 -2 2 -15q6 0 6 5q-3 0 -3 2h11v-10h-3v-3q9 0 13 -2z
M1309 488v6h-5q0 -6 5 -6zM1314 488h5v6h-5v-6zM995 491h10v3q0 5 -5 5zM1463 491h3q5 0 5 10l5 -2q0 6 8 13v3q-21 0 -21 -24zM1955 491h3v5h-3v-5zM2060 491q5 1 5 5t-8 34h-5l2 -13l-2 -16q4 -10 8 -10zM2353 491h5v3h-5v-3zM1761 494h3q5 0 5 5v5q0 5 -5 5h-3
q-5 0 -5 -5v-5q1 -5 5 -5zM2651 494v5h-5q1 -5 5 -5zM1301 496h5v5h-5v-5zM1317 496v5h-6q1 -5 6 -5zM1921 496h5v3h-5v-3zM1178 499q5 1 5 5q-5 1 -5 5v3h10l-2 -5l5 -3q8 3 8 16v8q-3 7 -16 7h-8q-10 -5 -10 -15h3l-3 -5v-3q0 -4 13 -13zM1641 499h5v2h-5v-2zM987 501h5v6
h-5v-6zM2078 501l3 6v5q0 4 -8 8h-3v-3q2 -16 8 -16zM872 504h5q-5 6 -5 11q-5 0 -5 -6q0 -5 5 -5zM1259 504h11q4 0 10 16q-4 10 -8 10h-8q-3 0 -13 -13v-5q0 -4 8 -8zM1306 504h3l10 8h3l5 -3v3q0 5 -8 5q-12 -5 -13 -10v-3zM2549 504h3q5 1 5 5q-20 38 -37 45h-2
q-3 -9 -3 -11h-5v3l8 10q-10 0 -14 24l-26 8l-5 -8l5 -8l-8 -10v-6q25 -18 48 -44l15 -3h3l2 16q7 0 11 -21zM877 507h3q5 1 5 5v3h-5q0 -3 -3 -8zM1646 507h3v5h-3v-5zM2243 509v3h5v-3h-5zM2536 507h8v5h-3q-5 0 -5 -5zM997 509h6v3h-6v-3zM911 512h3q4 0 8 8q-4 10 -8 10
h-3q-5 0 -5 -5v-8q1 -5 5 -5zM1173 515q0 7 -3 7q3 9 11 11v-8l7 5q6 0 6 -5v-5q0 -5 -6 -5q0 10 -5 10q0 -6 -10 -10zM2523 533q5 0 10 -18q-8 0 -10 18zM1338 515h5q4 0 8 7v6q0 5 -6 5h-5q-4 0 -8 -8v-5q1 -5 6 -5zM1903 515h5v5h-5v-5zM2353 515h8l-3 5q3 0 8 2l-3 6v2
q12 0 19 5h13l2 11l-10 8l-8 -5q-5 0 -26 5l-6 -8v-8q0 -4 8 -8l-2 -13v-2zM1039 517h13q0 4 6 11v2q0 4 -8 8h-5q-5 0 -11 -10v-6q1 -5 5 -5zM1628 517h3q3 0 7 8v5q0 5 -5 5h-2q-4 0 -8 -7v-6q1 -5 5 -5zM1073 522q4 0 8 8v3q0 5 -5 5h-3q-5 0 -5 -5v-5q1 -6 5 -6z
M1393 522h7q11 6 11 16l-11 8h-7q-6 0 -6 -5v-13q1 -6 6 -6zM1110 525h3q5 1 5 5v3h-3q-5 0 -5 -5v-3zM1550 528v2q0 5 5 5h2q-2 -5 -2 -7h-5zM508 528h5q4 0 8 7q0 6 -5 6h-5q-4 0 -8 -8q1 -5 5 -5zM2034 528l2 5v2q0 4 -8 8l-2 -5v-3q0 -3 8 -7zM2240 530q0 5 -5 5v3h5
l3 -5v-3h-3zM508 533v2h8v-2h-8zM2552 533h5v5h-5v-5zM1563 541v8q5 0 5 -6zM2442 541h5v5h-5v-5zM1267 543l10 8q1 -5 6 -5h2q4 0 8 8v5q-10 0 -10 11h10v-11h8q5 1 5 5l-5 8q0 5 5 16l5 -3h6q21 3 21 21q-5 12 -11 13h-8q-13 0 -23 -18q-7 0 -19 -5q-2 0 -7 2l-16 -2
q0 5 -5 5q-4 0 -11 -11q0 -3 8 -7l5 2q3 -14 3 -21q-3 -5 -3 -8zM2162 543h5q0 6 -5 6v-6zM2384 546v3h5v-3h-5zM184 546l2 5v3q0 5 -5 5l-2 -5v-3q0 -5 5 -5zM1709 546h8v5h-8v-5zM1897 546v5h-5q1 -5 5 -5zM2499 549v5h5v-5h-5zM1505 549h13q21 16 21 26q-6 18 -18 18
q-26 -6 -26 -26q3 -18 10 -18zM2436 549h11q0 5 -5 5q-6 0 -6 -5zM2489 551v5q2 5 2 8q6 0 6 -5q-6 0 -6 -8h-2zM1764 551h8v3q-21 37 -21 47h-5q-5 0 -5 -5v-3q7 0 7 -5l-10 -13v-5q0 -4 26 -19zM1416 559l29 16q2 4 2 10l-7 5h-3l-26 -20v-6q1 -5 5 -5zM1045 562l5 8v2
q0 4 -8 8h-3q-7 -3 -7 -16zM1039 567v5h3v-5h-3zM600 567h2q15 0 21 13q0 18 -18 18h-3q-13 -6 -13 -21q0 -4 11 -10zM2018 567h5v8h-5v-8zM2222 570v2h5v-2h-5zM2232 570v5q6 0 6 -5h-6zM2497 575h5v-5q-5 0 -5 5zM1400 570q6 0 6 5h-6v-5zM1173 580h8q7 3 7 16l-5 2h-5
q-4 0 -8 -10q3 -5 3 -8zM1649 598v6q0 3 8 7q3 -15 15 -15v-8q-23 7 -23 10zM1712 585h5q3 0 13 13q-6 16 -10 16h-8q-4 0 -11 -10v-8q0 -4 11 -11zM1801 585q5 1 5 5v6l-3 5q11 0 11 5v8q0 5 -5 5h-3q-4 0 -8 -8l3 -13q-6 0 -6 -5v-3q1 -5 6 -5zM2371 585h5q0 5 -5 5v-5z
M2544 585q5 1 5 5h-5v-5zM1678 590v3h5v-3h-5zM2206 590v6h3v-6h-3zM2358 588h5q0 4 -8 8l-2 -6zM2342 590h5q0 9 3 14h-5v-6l-8 6q-5 0 -5 -6q10 0 10 -8zM1874 593h5v5l-10 3v-3q1 -5 5 -5zM2193 596v5h5v-5h-5zM2366 596q5 0 5 5l-13 8h-3v-11q5 -2 11 -2zM2536 596h2
q6 0 6 5h-3q-5 0 -5 -5zM1359 598h2q4 0 11 11v2q0 4 -8 8h-3q-4 0 -10 -10v-3q0 -4 8 -8zM1413 598h6v6h-6v-6zM2402 598h6v3h-6v-3zM1419 604h8q0 10 7 10l-2 5l8 5h2l-5 -7v-3h3q5 1 5 5v11h-3q-6 0 -10 -3q-5 3 -11 3q-3 0 -8 -8l8 -11q-2 -5 -2 -7zM2392 604
q-8 6 -8 10h-5v-8zM2298 611v6h5q0 -6 -5 -6zM2337 609h5v2h-5v-2zM2395 609h2v5q-3 0 -8 3v-3q1 -5 6 -5zM2447 614q5 1 5 5h-5v-5zM1217 617h19q15 9 15 23q-4 13 -15 13l2 13l-5 3h-16q0 10 -8 10h-7q-6 0 -8 -13q4 -10 8 -10q11 2 18 2q2 -5 2 -7q-11 -5 -13 -11v-8
q2 -15 8 -15zM1387 617h3q3 0 10 10q-2 11 -5 11q-26 -2 -26 -8q0 -3 18 -13zM2366 617q5 0 5 5h-5v-5zM1353 619l3 5q-5 0 -5 6h-3l-5 -3q0 3 -3 3l-2 -6q8 -5 15 -5zM2387 619h5q0 5 -5 5v-5zM1390 624v6h3v-6h-3zM1819 622q5 1 5 5v5h-5q-5 0 -5 -5q1 -5 5 -5zM1356 624
h3q5 1 5 6v5h-5q0 -6 -3 -11zM762 627l5 8v8q0 4 -8 8h-5q-4 0 -10 -11v-2q0 -6 18 -11zM1479 627h3v3q0 5 -6 5h-5q0 -4 8 -8zM2149 630v5h2v-5h-2zM270 630h5q6 1 6 5v3l-3 5q5 1 5 5q0 21 -29 21q-13 -6 -20 -21q4 -16 18 -16h8v11h5l-3 -5q0 -4 8 -8zM1340 632h3v6h-3
v-6zM270 638v5h3v-5h-3zM2235 638v5h3v-5h-3zM150 638h2q6 0 6 5v5h-11q-5 0 -5 -5zM1353 638q0 5 6 5v5h-3q-5 -3 -8 -3v-2q1 -5 5 -5zM1482 638h5q0 5 -5 5h-6q1 -5 6 -5zM343 643h6q15 1 15 8v7h-2q-5 0 -5 -7h-6l3 5q-3 0 -3 2h8q0 6 -5 6q-18 -4 -18 -11v-2q0 -4 7 -8z
M1332 645l3 6l-5 2l-3 -5zM1385 645h5l8 6q8 -6 15 -6q14 0 14 19l13 -3q5 11 7 11q14 -8 21 -8q1 5 6 5l13 -3l2 6l-5 2l3 26v6l-21 13h-5l-21 -13q0 -12 -19 -27v-7h-13l-18 -16q-5 1 -5 5l10 3q0 5 -5 5h-5q-4 0 -8 -8q4 0 8 -8h-3l-5 3v-3q0 -4 8 -8zM2457 648q4 3 16 3
q-4 10 -18 10h-8q-5 0 -5 -5t15 -8zM835 656h3q5 1 5 5l-5 3h-3v-8zM1306 656q11 4 11 8v5q0 5 -6 5h-5q-4 0 -8 -8v-2q0 -4 8 -8zM817 658h5v6h-5v-6zM757 661h2v3q-2 5 -2 8q-5 0 -5 -6q0 -5 5 -5zM765 661h10l-3 5q3 5 3 8h-8zM1510 661h6v5h-8v6h2l13 -3v3q-2 7 -15 7
h-6q-5 0 -5 -5q0 -2 13 -13zM775 664h5v5h-5v-5zM1039 666h3q5 1 5 6v2h-8v-8zM2209 669v5h5q0 -5 -5 -5zM2209 677v2h5v-2h-5zM1382 679q24 5 24 32q0 5 -19 15q-26 -13 -26 -26q3 -21 21 -21zM2225 682v8h2v-8h-2zM1259 682l3 5q0 5 -5 5q0 -2 -3 -7zM1563 687q5 3 7 3v5
q0 5 -5 5h-2l-6 -2q0 2 -2 2l-3 -5q11 -5 11 -8zM1584 692q5 1 5 6v2q0 6 -5 6l-6 -8q1 -6 6 -6zM1599 695h5v3h-5v-3zM1505 700v8h5v-2q0 -6 -5 -6zM1332 700q20 0 24 26v6q-7 13 -11 13h-13q-9 0 -15 -29v-8q2 -8 15 -8zM1419 706l2 5v2h-8v-2q1 -5 6 -5zM1597 711h7v2
q0 6 -5 6l-2 -6v-2zM1186 713h2q6 1 6 6l-6 2h-2v-8zM181 719h13q14 0 19 10v8q0 4 -8 8h-11q-14 0 -21 -11v-8q0 -3 8 -7zM1406 724h13q-3 4 -3 10h-5q0 -8 -5 -8v-2zM1249 726q10 6 10 16l-5 3h-5q-4 0 -8 -8v-3q0 -3 8 -8zM43 729l13 3v2q0 3 -3 3l3 5q0 5 -6 5h-2
q-14 0 -16 -7v-3q0 -4 11 -8zM1228 742h2q6 1 6 5v6q0 5 -6 5h-5q-5 0 -5 -5v-3q0 -4 8 -8zM1154 745q21 3 21 10v13q0 4 -7 8h-3q-18 -13 -18 -23q3 0 7 -8zM2088 768h3q26 -12 26 -15v-6h-2q-27 12 -27 21zM2068 758v2h5q5 0 5 -5v-5q-10 4 -10 8zM2230 747h15q4 0 8 8v3
h-10q0 2 -8 5l-10 -13zM2191 750h2q5 1 5 5v3q-5 -3 -7 -3v-5zM1306 755q11 4 11 8v3q0 3 -8 8h-3q-4 0 -8 -8v-3q0 -4 8 -8zM2183 758v2q0 6 -6 6q-5 -3 -7 -3v-3zM2049 768h8v-5h-3q-5 1 -5 5zM712 763q6 1 6 5q-3 0 -3 3q-5 -3 -8 -3q1 -5 5 -5zM71 766h3q4 0 8 8v5
q0 4 -8 8q-11 -4 -11 -8v-5q0 -4 8 -8zM699 768h3q5 1 5 6t-5 5h-3q-5 0 -5 -5q1 -6 5 -6zM2036 795h3q31 -17 34 -24h-3q-34 20 -34 24zM2172 768h5v3h-5v-3zM1134 771q26 10 28 10l6 -2q34 7 34 29v10q0 12 -58 26q-31 0 -37 -39q6 -26 27 -26v-8zM1348 774v2h8v-2h-8z
M1730 774v2h8v-2h-8zM1756 779l8 5l3 -5v-5h-6q-5 0 -5 5zM459 774h2q4 0 11 10q-5 12 -11 13q-10 -5 -10 -13q4 -10 8 -10zM1275 776q12 5 13 11v2q-6 11 -13 11q-12 -5 -13 -11v-5q0 -4 13 -8zM1714 779v5q6 0 6 -5h-6zM1707 781v3h5v-3h-5zM1463 784v8q5 0 5 -5v-3h-5z
M1741 789v3q13 -3 13 -8h-8q-5 1 -5 5zM1782 784v8l-2 13h5v3l-3 5h6q0 4 -8 8h-8q0 -3 -3 -8q3 -5 3 -8l-5 3h-3l-3 -11h-2v11l-5 -3h-3q-2 21 -21 21h-3q-17 -13 -23 -26q-6 0 -16 21q1 5 5 5h6l8 -5q0 4 23 15q5 -2 8 -2q0 9 23 15l6 -7l-6 -8h3l8 5q63 -16 63 -26
q0 -5 5 -5v-11h-13l-8 -5h-5q0 8 -5 8h-6q-8 0 -8 -16h-13zM1709 789v3q3 5 3 8h2v-11h-5zM1756 795h5v-6q-5 1 -5 6zM2054 795v5h6q3 0 8 -8v-3q-9 6 -14 6zM2102 789h5v8h-11v-2q6 0 6 -6zM1188 797v5h6q0 -5 -6 -5zM1434 797v5h11v-2zM1450 797l-3 5v3q6 -3 8 -3
q0 -5 -5 -5zM1730 797v8h8q0 -4 -8 -8zM2088 800h6v10h-6v-10zM1181 810v3h5v-3h-5zM1701 810h3v5h-3v-5zM1730 813v2h5v-2h-5zM241 815l6 8h-6q-5 0 -5 -5zM639 815h3q5 1 5 6q0 3 -8 8q-5 0 -5 -6v-2q1 -6 5 -6zM1761 821h6v5h-6v-5zM1262 831h5q4 0 10 11v7q0 6 -5 6h-10
q-4 0 -8 -8v-8q0 -4 8 -8zM2709 839h2q5 1 5 5v3q0 5 -5 5q-4 0 -8 -8q1 -5 6 -5zM1798 844v5h5q0 -5 -5 -5zM2198 847q1 5 6 5v-5h-6zM1887 868h8q9 -8 16 -8v-3q0 -5 -6 -5q-18 12 -18 16zM1932 855v5h2v-5h-2zM2416 852h5v3h-5v-3zM1576 860v3q6 0 13 20q-6 19 -16 19
q3 14 3 21q3 0 8 -8q-3 -5 -3 -11l8 -5q15 13 36 13h6q0 -15 28 -23v-6l-7 6h-3q0 -6 -5 -6v-2l5 -8q-14 0 -24 -10h-7l-11 10l-18 -10v-6q-5 3 -13 3zM1406 857l2 6v5q0 2 -8 8q3 7 6 7q-4 11 -8 11t-8 -8v-3l8 -10q-16 0 -16 -5q0 -6 24 -11zM1233 860h3q3 0 15 23v6
q0 3 -8 8q-13 0 -15 -34zM1908 873h5q5 0 5 -5v-5q-8 2 -10 10zM718 863h2q5 0 5 5v2q0 6 -5 6h-2q-6 0 -6 -6v-2q1 -5 6 -5zM1288 863l5 7v6q0 5 -5 5h-8q-5 0 -5 -5v-6q0 -6 13 -7zM1489 865h3q4 0 8 11q-5 12 -11 13h-2q-5 0 -5 -6v-10q0 -4 7 -8zM2293 868h13q5 1 5 5v3
h-8q-6 -6 -10 -6v-2zM2109 870h3q5 1 5 6v2q-5 -2 -8 -2v-6zM1353 873l13 3v5q0 5 -5 5h-10q-6 0 -6 -5q0 -4 8 -8zM1434 876h3v5h-3v-5zM1599 881h5q0 5 3 5q5 -3 8 -3l3 6v2l-6 -2q-5 6 -5 10h-5q-5 0 -5 -5zM2567 881h5q6 1 6 5l-6 3h-5v-8zM2677 881v8q-5 0 -5 -6z
M1966 886h7v5h-7v-5zM2512 889h11q4 0 8 8q0 5 -6 5h-5q-4 0 -8 -8v-5zM1649 897v2q5 0 18 11q5 0 5 -6v-5q-10 0 -10 -5q-4 3 -13 3zM1683 894v5q5 0 5 5h3v-5zM1620 894h3v8h-8v-3q1 -5 5 -5zM377 899h3q4 0 8 8v3q0 5 -5 5h-6q-5 0 -5 -5v-6q1 -5 5 -5zM524 899h5
q4 0 8 8v3q0 3 -8 7h-5q-5 0 -5 -5v-8q1 -5 5 -5zM1751 910h5v2h-5v-2zM1638 915q1 5 6 5v-5h-6zM1725 912h8v8q-4 0 -8 -8zM1139 917q4 0 8 8v3q0 5 -6 5q-3 0 -7 -8v-2q0 -6 5 -6zM2316 917h3v8h-3q-5 0 -5 -5zM103 920h5q5 1 5 5l-5 3q-5 0 -5 -5v-3zM1526 925v8h8v-2
q0 -6 -5 -6h-3zM1576 925v21q22 -5 26 -5q12 21 36 21h6l-32 -26q-3 0 -18 -11l-8 6h-2zM1850 923q0 2 3 2q0 -2 3 -2v8h-6q-5 0 -5 -6zM1827 925h5v6h-5v-6zM2327 925h5v8h-5q-6 0 -6 -5zM1832 931h5v5h-5v-5zM1822 933h5q0 8 8 8v5h-6q-3 0 -7 -8v-5zM69 938q20 0 26 16
v13q-14 18 -26 18q-17 0 -26 -18q2 -29 26 -29zM1149 938q4 0 8 8l-5 3q-4 0 -8 -8zM338 941h3v5h-3v-5zM1897 941q6 1 6 5v3q-5 10 -19 10v-5q0 -3 13 -13zM1730 946v5q5 0 5 -5h-5zM1657 949v5h2v-5h-2zM1678 957h5v-6q-5 1 -5 6zM2358 949q5 1 5 5l-5 3q-5 0 -5 -6z
M1599 954v3h5v-3h-5zM2685 951q4 0 10 11v5q0 5 -5 5h-8q-3 0 -7 -7q5 -12 10 -14zM1604 959v3h6v-3h-6zM1652 967v5q5 0 5 -5h-5zM1835 967v5h2v-5h-2zM1615 970v5h3v-5h-3zM1785 970v2h5v-2h-5zM1932 970v2h5v-2h-5zM239 970h2q4 0 8 8q0 3 -8 7q-3 0 -7 -7v-3q0 -5 5 -5z
M1672 972v6h3v-6h-3zM1814 972v3h5v-3h-5zM2034 970h2q5 1 5 5v3h-7v-8zM116 972l2 6q0 5 -5 5l-2 -5q0 -6 5 -6zM1497 975l5 8v2q0 4 -7 8h-3q-4 0 -8 -8v-2q0 -6 13 -8zM2041 978h3q5 0 5 5v5h-2q-6 0 -6 -5v-5zM1280 983h3q8 0 13 31q0 4 -11 11h-8q-13 -7 -13 -21
q7 -18 16 -21zM1408 983h5q6 1 6 5q0 5 -6 5q-5 0 -5 -5v-5zM1858 988v5l13 3q0 -5 -13 -8zM801 988q18 7 21 16v8q-10 15 -23 15q-17 0 -27 -18q0 -21 29 -21zM1547 991q23 8 23 26v5q-10 16 -20 16q-24 -1 -24 -21v-8q10 -18 21 -18zM1976 996v5h3v-5h-3zM835 996q6 1 6 5
v3q-6 0 -6 -5v-3zM963 996v8q-5 0 -5 -5zM1780 999v5h2v-5h-2zM1502 1006h6v3h-6v-3zM801 1020h6v-6q-6 1 -6 6zM1186 1012h5q0 2 3 8l-6 2h-2q-5 0 -5 -5t5 -5zM1403 1012q5 0 5 5v3q0 5 -5 5t-5 -5v-3q1 -5 5 -5zM1971 1014v6q5 -3 8 -3v-3h-8zM956 1017l2 5q0 5 -8 5v3
l3 5h-10v-2l2 -6h-5v-2q0 -5 16 -8zM1675 1020h5v7h-5v-7zM202 1025h5q0 3 3 8l-5 2h-8v-5q1 -5 5 -5zM958 1025h3v8l-5 2v-2q2 -5 2 -8zM1390 1025h3q5 1 5 5q-3 16 -8 16l-8 -11v-2q0 -4 8 -8zM1424 1025q2 0 18 21l-13 15q3 5 3 11l-8 5h-8q-5 0 -5 -5v-8l5 -8v-2l-3 -14
zM1733 1025h5v10h-5v-10zM1450 1048h5v6h-5v-6zM1468 1051h6q3 0 8 8v8q0 4 -11 7q-10 -3 -10 -7q1 -16 7 -16zM1233 1056h5q4 0 8 8v3q0 5 -5 5h-8q-5 0 -5 -5v-6q1 -5 5 -5zM1508 1061h8q7 0 10 21q-4 0 -10 6q-14 0 -16 -8v-11q0 -4 8 -8zM1565 1067l5 7v14q0 7 -10 7
q-16 -2 -16 -7v-11q0 -8 21 -10zM1662 1074h5v6h-5v-6zM1390 1077q5 3 8 3v5h-3q-5 0 -5 -5v-3zM1309 1080h5v2h-5v-2zM1306 1093q5 1 5 5q0 5 -5 5h-2q0 -3 -3 -8zM1173 1111h5q5 1 5 5v6q0 5 -5 5h-5q-5 0 -5 -5v-6q0 -5 5 -5zM636 1114h6v8h-6v-8zM835 1116h3q5 1 5 6h-8
v-6zM1092 1119q3 0 8 8l-8 5h-3q-5 0 -5 -5q0 -4 8 -8zM1267 1122h8q5 0 5 5v2q0 4 -8 8h-5q-5 0 -5 -5v-5q1 -5 5 -5zM1338 1124l7 11q-3 10 -7 10h-3q-4 0 -10 -10v-3q0 -6 13 -8zM1584 1124h5v5q-5 0 -5 -5zM1181 1135h2q5 0 5 5v2q0 6 -5 6q-4 0 -8 -8q1 -5 6 -5z
M1502 1137h6v3q0 5 -6 5q-5 0 -5 -5zM1427 1145l7 13v13q0 4 -13 11q-15 0 -18 -21q9 -16 24 -16zM1675 1150h5q21 0 21 32l-18 15h-3q-18 -8 -18 -23v-3q0 -14 13 -21zM1474 1153h2q4 0 8 8v15h3q10 -9 39 -18h3q23 0 26 32q-13 26 -32 26q-20 -6 -31 -29q-2 0 -8 -8
q-10 3 -10 13q5 9 5 16l-8 5q0 -3 -21 -10v-8q11 -13 11 -16q-6 -13 -6 -18q10 -8 19 -8zM485 1156q5 0 5 5v2q0 6 -5 6q-6 0 -6 -6v-2q1 -5 6 -5zM1236 1166q5 1 5 5q0 5 -5 5q-6 0 -6 -5q1 -5 6 -5zM1387 1166h6q4 0 10 10v6q-3 8 -16 8q-3 0 -8 -8v-8q0 -4 8 -8z
M1447 1169l3 5l-5 2h-3v-2q1 -5 5 -5zM1345 1187h6q5 1 5 5v3h-8l3 5v3h-6q-3 0 -7 -8q0 -4 7 -8zM1406 1203l7 5q-2 8 -5 8q-5 -3 -8 -3v-5q1 -5 6 -5zM1228 1205q5 1 5 5q0 6 -5 6q-6 0 -6 -6q1 -5 6 -5zM1003 1216l5 8v5q0 5 -5 5h-11q-5 0 -5 -5v-5q3 -8 16 -8z
M1314 1234q4 0 8 8v5l-13 3l-3 -5v-3q0 -4 8 -8zM1403 1234h3q22 0 49 18q0 3 -2 3l2 13v11q0 27 -15 34q-9 5 -16 5q-47 0 -47 -39q0 -27 26 -45zM888 1237q5 0 5 5t-5 5q-6 0 -6 -5q1 -5 6 -5zM1769 1271h3l-3 31q-4 0 -8 -18q4 -13 8 -13zM1032 1297h10q5 1 5 5v5
q-5 11 -13 11q-10 -4 -10 -8v-5q0 -4 8 -8zM1516 1307h2v6h-2v-6zM2567 1307l3 6q0 5 -5 5q-6 0 -6 -5zM1785 1310h5v13h-5v-13zM1173 1320h8q30 0 49 45v5q-4 11 -18 11l-8 -6q0 6 -5 6h-31q-15 -7 -21 -29q7 -21 26 -32zM1288 1323h8q5 1 5 5v8q-3 8 -16 8l-5 -8v-5
q0 -4 8 -8zM1424 1323h5q5 1 5 5v5q0 4 -7 8q-4 0 -8 -8v-5q1 -5 5 -5zM1458 1323h8q5 1 10 13q-5 12 -10 13h-8q-11 -4 -11 -18zM1523 1333h8v6h-8v-6zM814 1367h6q5 1 5 6v2q0 6 -5 6h-8q-5 0 -5 -6q0 -3 7 -8zM1107 1367q19 9 19 27q0 11 -21 23h-3q-14 0 -23 -16v-5
q0 -29 28 -29zM1633 1370h3v5h-3v-5zM1267 1386h5v5q0 5 -5 5t-5 -5q1 -5 5 -5zM1398 1386h5q5 1 5 5v5q0 5 -5 5h-5q-4 0 -8 -7q0 -4 8 -8zM1011 1407q5 1 5 5v3q0 5 -5 5h-6v-8q1 -5 6 -5zM1516 1433q10 5 10 16q-4 13 -18 13l-11 -13q0 -16 19 -16zM1340 1435v3q0 5 -5 5
l-3 -5q3 0 8 -3zM720 1438h3q5 1 5 5q0 6 -5 6h-3q-5 0 -5 -6q1 -5 5 -5zM1725 1438h5v11q0 5 -5 5q-3 -5 -3 -8q3 -5 3 -8zM1222 1446h3q3 0 3 3q5 -3 8 -3q23 4 23 29q-6 26 -26 26h-8q-21 -15 -21 -29q10 -23 18 -26zM1356 1462h5q4 0 11 10v8q-5 10 -19 10l-8 -10v-8
q0 -4 11 -10zM2999 1462h5v2q0 6 -5 6t-5 -6zM1429 1467h5q4 0 11 10q-4 11 -8 11h-10q-6 0 -6 -5q2 -16 8 -16zM2015 1511h3v6h-3v-6zM1068 1522q5 1 5 5v3q0 5 -5 5h-5v-8q1 -5 5 -5zM1335 1548h5v3h-5v-3zM880 1572h8q5 0 5 5v2q0 6 -13 8l-5 -8v-2q0 -5 5 -5zM1871 1572
h8v13q-3 0 -8 2v-15zM1275 1590h2q6 1 6 5v3q0 5 -6 5h-2q-5 0 -5 -5v-3q0 -5 5 -5zM1869 1595h10v18q-3 0 -8 3l-2 -5v-16zM1871 1621h8v3h-8v-3zM2177 1624h3q11 4 11 18q0 4 -8 8h-6q-7 -3 -7 -16v-2q0 -4 7 -8zM1871 1629h8v8h-8v-8zM1877 1642v13h-6v-8q1 -5 6 -5z
M1385 1647h5v3h-5v-3zM542 1653l3 5l-5 2l-3 -5zM1871 1663q4 0 13 26q-5 10 -5 21q-8 0 -8 -31h3l-3 -5v-11zM1979 1666h5v2q0 3 -3 3l3 5v5q-5 0 -5 -5v-10zM924 1692h3q4 0 8 8v2q0 4 -11 11h-2q-4 0 -8 -8v-3q0 -4 10 -10zM1882 1710v5h-5q0 -5 5 -5zM1215 1715q5 1 5 6
v2q-3 0 -8 3l-3 -5q1 -6 6 -6zM686 1742h5v2h-5v-2zM1843 1765l2 5q0 6 -5 6l-3 -6q1 -5 6 -5zM1696 1825h5v8q0 5 -5 5v-13zM825 1836q5 1 5 5q0 5 -5 5t-5 -5t5 -5zM1693 1838q6 1 6 6l-3 13h-5zM2620 1849h2v2q0 6 -5 6l-3 -6zM932 1851h3q5 1 5 6v2q0 4 -8 8h-3
q-5 0 -5 -5v-3q0 -3 8 -8zM1693 1862h3l-3 16h-5v-11q1 -5 5 -5zM2591 1875h5v5h-5v-5zM2588 1883v5h-5q1 -5 5 -5zM668 1888h8q23 13 23 29q-6 44 -39 44q-39 -7 -39 -34q0 -31 47 -39zM1688 1888h3v13q0 5 -5 5l-3 -5v-8q1 -5 5 -5zM1419 1899l2 5q0 5 -5 5h-3v-5
q1 -5 6 -5zM427 1906h5v3q0 5 -5 5t-5 -5zM186 1909q6 1 6 5v6q0 5 -6 5q-5 0 -5 -5v-6q1 -5 5 -5zM1395 1938v5h-5q1 -5 5 -5zM532 1959h8q4 0 10 10v5q0 4 -8 8h-13q-4 0 -8 -8v-5q0 -4 11 -10zM1840 1959h5v2h-5v-2zM1400 1993v5h-5q1 -5 5 -5z" class="colorcurrentColor svgShape"></path></svg></g></svg>