<svg id="SvgjsSvg1102" width="288" height="288" xmlns="http://www.w3.org/2000/svg" version="1.1" xmlns:xlink="http://www.w3.org/1999/xlink" xmlns:svgjs="http://svgjs.com/svgjs"><defs id="SvgjsDefs1103"></defs><g id="SvgjsG1104"><svg xmlns="http://www.w3.org/2000/svg" viewBox="-10 0 3210 2048" width="288" height="288"><path fill="#ffffff" d="M1122 -24l6 10v3q-3 0 -9 3l-3 -6v-3q1 -7 6 -7zM3015 -21h6v4h-6v-4zM2987 100h6v3h-6v-3zM1717 113q21 17 21 25q-4 12 -15 18h-6q-25 -4 -25 -18q4 -18 25 -25zM1478 128h9q5 0 10 10v6q0 4 -10 9h-9q-4 0 -9 -9v-6q0 -5 9 -10zM1534 165h3q0 7 -6 7h-3q1 -7 6 -7zM2507 172h6q5 0 9 9v6q0 6 -6 6h-9q-6 0 -6 -6v-9q1 -6 6 -6zM1772 175h16q4 0 9 9v12q0 5 -12 13h-3q-16 0 -19 -10v-15q0 -4 9 -9zM1429 193h3q6 1 6 6v7q0 6 -6 6q-5 0 -10 -9v-4q1 -6 7 -6zM2361 249h3q5 0 10 9v3q0 7 -7 7h-6q-4 0 -9 -10q0 -4 9 -9zM2374 268h6l3 12
l-6 3l-3 -6v-9zM1766 296h6v3h-6v-3zM2309 296h3q6 1 6 6v3q0 6 -6 6h-3q-7 0 -7 -6v-3q1 -6 7 -6zM2842 317l9 13q0 6 -6 6h-3q-7 0 -7 -6h7v-3h-7v-4q1 -6 7 -6zM2507 336q6 1 6 6q0 6 -6 6t-6 -6q1 -6 6 -6zM2522 339h7q6 1 6 6v3q0 6 -6 6h-4q-4 0 -9 -9q1 -6 6 -6z
M2863 401h6q7 1 7 6v3q0 5 -10 9h-3q-4 0 -9 -9q0 -4 9 -9zM2436 419h3q6 1 6 7v3q0 6 -6 6q-5 0 -10 -9q1 -7 7 -7zM3120 426h4q6 1 6 6v3q0 6 -6 6h-10v-9q1 -6 6 -6zM2436 450h3q6 1 6 7v3q0 6 -6 6h-6q-7 0 -7 -6q0 -5 10 -10zM2801 472q5 0 10 9q0 5 -10 10h-9v-10
q0 -4 9 -9zM2110 478h6q7 1 7 7v3q0 6 -7 6h-6l3 -6v-3h-3v6h-6v-6q1 -7 6 -7zM2873 497h3q4 0 12 12q0 7 -15 10l-7 -10v-6q1 -6 7 -6zM3052 500h6v6q-6 0 -6 -6zM2829 503q19 3 19 9q-2 7 -16 13q-6 -3 -9 -3q0 -10 9 -10v-3h-3q-6 3 -9 3v-3q0 -6 9 -6zM2243 534h7v6h-7
v-6zM2451 565h6q6 1 6 6q0 7 -6 7h-3l-6 -4q3 -6 3 -9zM2361 587h6q7 1 7 6v9q0 7 -7 7h-6q-6 0 -6 -7v-9q1 -6 6 -6zM2395 587h10q6 0 6 9q-5 13 -9 13h-4q-4 0 -9 -10v-6q1 -6 6 -6zM2436 587h6v6h-6v-6zM2659 587h3q6 1 6 6v9q0 5 -9 10q-5 0 -13 -13q0 -5 13 -12z
M2587 596h10q4 0 9 9v16q-2 9 -25 9l-6 -9v-12q0 -5 12 -13zM2773 599q7 10 7 16l-19 12h-3q-5 0 -9 -9v-6q0 -10 24 -13zM2271 618q7 1 7 6q0 6 -7 6q-6 0 -6 -6q1 -6 6 -6zM2845 621h9v6h-9v-6zM2742 627v3l-3 6h13l-3 7q3 0 3 3h-7v-6q-3 0 -3 3q-15 -4 -15 -10
q10 -6 15 -6zM2842 627q7 6 12 6q0 7 -6 7t-6 -7v-6zM2711 630h10v3q-5 13 -10 13h-6v-3q6 -8 6 -13zM2677 636h3q5 0 10 10v6l-16 -9q0 3 -3 3v-3q1 -7 6 -7zM2727 643l3 6l-9 6h-7v-3q0 -5 13 -9zM2736 643h3v6h-3v-6zM2934 646l4 6l-7 3l-3 -6zM2653 649h3q6 1 6 6l-6 3
h-3v-9zM2677 652h10q0 6 -7 6h-3v-6zM2662 655h3q4 0 9 9v3l-3 7q-5 -4 -12 -4l6 -9zM2795 655q11 2 19 19q-4 24 -25 24l-13 -18q8 -25 19 -25zM2829 661l6 9q0 7 -6 7t-6 -7v-3q1 -6 6 -6zM2792 670v4h12v-4h-12zM2361 674h3q7 1 7 6v3q0 6 -7 6h-3q-6 0 -6 -6v-3
q1 -6 6 -6zM2225 677h6q5 0 12 12v6q0 5 -9 10h-9q-5 0 -9 -10v-9q0 -4 9 -9zM2891 680h6q0 6 -6 6v-6zM2789 686v6h6q0 -6 -6 -6zM2358 720h3l16 3v19q6 0 6 6l6 -3h3v3l-6 9h12v3l-15 3q0 -9 -6 -9q0 13 -16 13q-7 0 -40 -13v-3q16 -3 19 -3l-4 6h4q6 0 6 -6v-9h-6v-7
q1 -6 6 -6h6v6h6v-12zM2157 723h21q10 3 10 19q0 4 -16 15h-12q-5 0 -9 -9v-19q0 -6 6 -6zM2408 723h3v3q0 6 -6 6h-3v-3q0 -6 6 -6zM2417 723h9q0 6 -6 6zM2259 726l12 16q0 5 -12 12h-6q-6 0 -6 -6v-9q0 -5 12 -13zM2383 726h6v6h-6v-6zM2361 732q0 7 -9 7v3q1 6 6 6v-3
l6 3h3v-3h-6v-6h6v-7h-6zM2392 729h6v7h-6v-7zM2408 736h3v6h-3v-6zM2776 748q28 2 28 25q-4 13 -15 18q-24 0 -31 -15v-9q0 -3 18 -19zM2789 757v10h3v-10h-3zM2838 760h7q4 0 15 16v3q0 31 -25 31h-6q-15 -7 -15 -31v-3q8 -16 24 -16zM2278 763h3q12 30 12 38l-9 6h-3
q0 -3 3 -3q-3 -6 -3 -10h-3q0 10 -7 10v-3l3 -16h4l6 3v-3q-5 0 -19 -12h-3l6 15q-6 1 -6 6q6 1 6 7q-11 9 -18 9v6h-3q0 -3 -4 -9q-6 3 -27 6v-6h6v-9l-6 -10q10 -13 24 -15v9h7q0 -15 21 -15q0 3 3 3q1 -7 7 -7zM1103 770h9q7 1 7 6v6l-16 -3v-9zM2033 770h3q0 6 3 6
q-3 6 -3 9h-6q0 -6 -7 -6v-6l7 3h3v-6zM2786 773v6h6v-6h-6zM2256 779v3q1 6 6 6v-3q0 -6 -6 -6zM2048 779v6q-7 10 -12 31q6 0 6 9q-3 6 -3 10q6 1 6 6l-18 6l6 9q-13 0 -25 4q0 -13 -3 -13l3 -6l-3 -19h3q-3 -1 -3 -21l12 6q0 -3 3 -3v6h10q0 -3 3 -9h-13l-3 -19h6
q7 1 7 6l-3 6h3zM2206 785h6v6h-6v-6zM2225 791v3h12v-3h-12zM2250 791v10q3 0 9 3v-13l-6 3q0 -3 -3 -3zM2008 791h6v3h-6v-3zM2182 794h6q0 4 3 10h-3q-6 0 -6 -6v-4zM2318 794q6 1 6 7h-6v-7zM2113 810h10l3 6l6 -3h3v3l-3 6q12 3 22 10v-7h6l-3 7q28 0 40 15l6 -3h9
l13 12q-3 6 -3 10h-13v-13h-6v16h9v3q0 5 -15 9l3 6q-3 6 -3 10l6 12q-10 6 -18 6l-3 -6v-6q6 -8 6 -9h-13l-9 6h-6v-3q0 -6 9 -6v-7l-15 -3q-12 31 -19 31l-12 -9q0 12 -10 12h-28v-6l10 -12l-22 -3h-3q0 12 -6 12q-7 -12 -16 -12q-8 0 -49 9q-6 -3 -13 -3q0 6 -6 6h-3
q-16 -4 -16 -19l28 -18l7 3q11 -6 24 -6h3q10 0 10 15h3q8 -6 15 -6l-3 -6v-3h3q3 0 25 6h3v-6h-9v-6h6v-13l-3 -6l9 -6l7 3v-6h12l6 3v-6h3v12h-6v15l22 4q0 -8 18 -22v-6q-6 0 -6 -3l-6 3q-13 -19 -19 -19v-3zM2014 816v9h3v-9h-3zM2271 813h3v6h-3v-6zM2191 816h3
q6 1 6 6l-6 3l-3 -6v-3zM2231 816h3q6 1 6 6h-3q-6 0 -6 -6zM2256 816h6v6h-6v-6zM2575 816h6q0 6 3 6q-4 13 -9 13q-4 0 -9 -10q0 -4 9 -9zM2786 816h12v6q0 7 -6 7q0 -4 -3 -4q0 4 -3 4q0 -4 -3 -4q3 -6 3 -9zM2027 822v3h6v-3h-6zM2163 819h6v3h-6v-3zM2172 819h10
q0 6 -7 6zM2092 822h3v7h-10q1 -7 7 -7zM2107 822h6v7q-6 0 -6 -7zM2017 832v9h6q7 0 7 -6q-7 0 -13 -3zM1794 832h3q13 6 13 18q4 0 31 -3q21 7 21 9q-3 6 -3 10l6 -3l10 12v3q0 6 -10 6v3h10v7l-37 12q0 -3 -4 -3q0 3 -3 3q-1 -6 -15 -12q0 3 -3 3l-3 -6v-4h6v-3
q-6 0 -6 -6h-7l4 6v3h-4q-6 -3 -9 -3q0 3 -3 3v-3q3 -6 3 -9h-6q0 5 -9 16v3l15 3q6 -3 9 -3v6q-18 0 -18 12h-6l3 -15q-4 0 -16 18l-15 -3h-3l-19 13h-3q-3 0 -3 -4l-6 4h-19l3 -7v-3q0 -6 -6 -6q0 6 -12 6v3h6q0 10 -13 10q-12 -3 -12 -16q3 0 3 -3l-6 -3v19q9 0 9 6t-6 6
h-3v-9h-9q0 12 -3 12q-6 -3 -10 -3v-9q2 0 13 -3v-13l-10 6q-6 0 -31 -6q0 3 3 3l-3 6v25l-31 13v-3l-6 3h-3l-6 -3q0 5 -34 15v-3l3 -6l-9 -6h-4v6h-6q0 -10 -6 -10h-3v13l6 -3h3q-12 11 -12 18h-3q-16 -5 -16 -15h-6v3l3 6l-6 3l-6 -3q0 6 -6 6q0 -3 -3 -9q10 -14 34 -22
q0 -6 3 -6q6 3 9 3l-6 -9q3 -6 3 -9h9l9 6h4q0 -16 15 -16q6 1 6 7l-3 6q3 5 3 12h6q0 -6 13 -6v-12l-6 3h-7q4 -19 10 -19h3l6 3q0 -6 25 -9l3 6q-5 0 -9 9v3q11 -5 15 -18q3 0 3 3l16 -3h3l-3 6h3q6 0 6 -6h-6q0 -4 15 -12h16v-10h3l15 3q0 -6 25 -9q13 -22 34 -22v-6h-9
v-3h3q28 3 34 6q0 -9 6 -9q1 6 7 6h3l-3 -6l9 -6q15 9 15 18h3v-3l-9 -15v-3zM2522 832q5 0 10 9v6q0 5 -10 9q-7 0 -9 -12q5 -12 9 -12zM2786 844h6q6 1 6 6v13q0 6 -6 6h-6q-10 -3 -10 -19zM2144 853v7h10v-10q-6 3 -10 3zM1838 853v3h6v-3h-6zM1748 856q3 6 3 13h3
q6 0 6 -6v-7h-12zM1810 856v4h9v6q-6 0 -6 3q3 6 3 9l9 -6h6v6h-6v9l16 4l3 -7v-3h-6v-3l3 -6q-10 0 -16 -12q-11 -4 -12 -4h-3zM1977 853h3v7h-3v-7zM2389 853h9l-6 10v12h3l10 -6v6q0 6 -7 6h-15l3 -6v-3h-3l-6 3v-9q0 -5 12 -13zM1800 860v6h3v-6h-3zM1834 860v6h4v-6h-4
zM1844 860v6h3v-6h-3zM2132 860v3q1 6 6 6v-9h-6zM2402 860h6v9q-6 0 -6 -6v-3zM2439 860l6 9l-6 3q-6 0 -6 -6t6 -6zM1952 863h6q0 6 -6 6v-6zM2157 866v3h6v-3h-6zM1856 869q0 6 -6 6v12h3l9 -6q-3 -5 -3 -12h-3zM1735 872v3h10v-3h-10zM2020 872v3h7v-3h-7zM1748 875v3h9
v-3h-9zM2315 875h3q0 3 3 9l-6 3q-6 0 -6 -6q1 -6 6 -6zM1735 881v10q6 0 6 -7zM2209 878h3v6h-3v-6zM1661 884v7h3v-7h-3zM1683 884v3h6v-3h-6zM1763 884v7h3v-7h-3zM1667 894q4 0 19 18h3v-6q-5 0 -16 -15v-4q-6 1 -6 7zM1695 887v4h6v-4h-6zM1772 891v6h4v-6h-4z
M1853 891v3h6v-3h-6zM1986 891v3h6v-3h-6zM2473 887q0 4 3 4q-3 6 -3 9q-6 0 -6 -6q1 -7 6 -7zM1949 891h3q0 3 3 9h-6v-9zM1738 897v3h19v-3h-19zM2191 897v12h3v-12h-3zM2104 903v3h6v-3h-6zM2683 900h4q6 1 6 6q0 6 -6 6h-4q-6 0 -6 -6q1 -6 6 -6zM1645 906v3h7v-3h-7z
M1710 906v3h7v-3h-7zM2417 903q6 1 6 6h-6v-6zM1726 912v3h9v-3h-9zM2758 909q20 0 34 16l6 -4h9v4q0 9 -12 9l3 6q-5 18 -18 28h-19q-31 -4 -31 -28v-3q4 -28 28 -28zM1466 915h3v6h-3v-6zM1512 915v6h-6q1 -6 6 -6zM1580 921v4h7v-4h-7zM1596 921v7h3v-7h-3zM2900 918
l7 10l-7 3q-6 0 -6 -6q1 -7 6 -7zM1534 925q0 9 -3 21h6l3 -18zM1621 921q1 7 6 7q1 -7 6 -7q0 4 3 4l-3 6q3 6 3 9h-3q-19 -8 -19 -12q1 -7 7 -7zM2336 921h10q4 0 9 10q0 16 -9 18h-10q-9 -3 -9 -18q0 -5 9 -10zM1494 925h3v6q-8 15 -19 15q0 -3 -3 -3q0 6 -6 6h-6v-3
q0 -6 21 -9q0 3 3 3q0 -15 7 -15zM1596 937l-3 6h12v-3q-3 0 -9 -3zM1565 943v3h6v-3h-6zM2662 940h3q17 0 22 12v13q-4 9 -19 9q-19 0 -19 -22q0 -4 13 -12zM1444 943h6v9h-3q-6 -3 -9 -3q1 -6 6 -6zM1574 946q1 6 6 6v-6h-6zM1497 949q0 6 -7 16v3h4q0 -5 6 -16v-3h-3z
M1946 946h6v19h-9v9q0 3 3 3l-3 6q0 5 9 10q0 -6 40 -22q18 3 25 3l-3 6v3h3v-6h10q43 -15 46 -15q8 18 31 18q0 7 47 16q0 18 12 18v4q-9 27 -12 27l-13 4v6q13 0 13 15l-7 3l-6 -3q-41 6 -68 16v3q0 1 6 9q-2 16 -22 16q0 -7 -6 -7h-6q-5 0 -12 13q0 4 15 15v3h16l9 -6h3
q16 14 16 22q4 0 34 -6q0 7 15 9q31 -6 37 -6q65 16 65 49q3 0 3 3q-8 20 -18 31q0 4 3 4l-3 6v3q12 1 12 9q-18 8 -18 13v6l3 6l-13 12q-6 0 -6 -9h-3q-28 4 -37 16h-6q-9 -3 -34 -41q-2 0 -16 -12q0 4 -9 9h-3q-5 0 -10 -9v-3l4 -6l-7 -4q-49 15 -49 28q-9 16 -13 16
q-10 -17 -24 -19q-6 3 -10 3q0 -6 -6 -6q0 25 -9 25h-3v-6q-8 15 -13 15q-3 0 -6 13q9 0 9 6q-4 0 -18 22q6 0 6 6l-6 9v3l6 9q-8 0 -9 13h-3q-3 0 -3 -3l-7 3h-3v-13h10v-6h-4q-3 0 -3 3q-15 0 -15 -12l-6 3q-3 -6 -3 -9h-4v3q4 5 4 12q-19 -4 -19 -9v-9l6 3h3v-3h-6v-7
q12 0 12 -6q-5 -14 -21 -25q-10 11 -10 16h-18l9 12v22h-6v-12h-9v6l3 6l-6 3h-7q-5 0 -9 -18q3 -6 3 -10h-9q0 11 -56 53l-6 -3l-31 28l-9 -7l-16 13l-9 -6h-6q0 3 3 3l-3 6v6h3q6 -3 9 -3v3q0 6 -6 6h-22q0 7 -28 25h-3q0 -9 -9 -9v6l3 6q-10 10 -19 10v12q0 25 -31 25v-3
q-67 28 -80 28v-4q0 -1 12 -15q0 -6 -6 -6h-3l-9 6q-4 -16 -4 -19l13 -6q3 6 3 9q10 0 34 -18q8 0 65 -44v-6q-12 0 -12 -6q0 -23 25 -28l6 -3q0 5 6 12l-3 7h6q48 -28 81 -68q-7 0 -7 -7l28 -15l-3 -16v-3q10 0 25 -6v-15q0 -4 3 -4q-3 -4 -3 -18h-6l-31 3v-6l3 -6
q-33 -19 -37 -19v-3l3 -6h-3q6 -16 6 -22l-6 3h-3v-6q24 0 31 -56q3 0 3 -3q0 -4 -10 -9q-8 0 -52 9v-9h-3q0 9 -3 9l3 6v3q0 6 -7 6q-10 -12 -21 -12h-10v-3q1 -6 7 -6q0 3 3 3q0 -4 18 -9l3 -7q4 0 10 4q17 -4 25 -4l12 7v-3l-3 -7q15 0 15 -18q-56 0 -74 -22h-3l-9 6
q-7 0 -7 -6q1 -6 7 -6l6 3q5 0 18 -6q-3 -44 -28 -44v-6h19v6q6 0 6 -9q22 9 22 12l-6 16v3h3v-6q6 1 6 6v3l-6 9l6 4q16 -22 46 -22q4 6 4 9l-4 16q5 0 13 31l15 3l3 -6v-13l-3 -6l7 -3q3 5 3 12h9v-6l-9 -12q31 3 46 3h6q11 0 22 -10h16v-6h-7v-6q9 0 19 -9q0 2 9 9
q6 -3 10 -3l-4 -6q14 0 35 -16q0 3 3 3v-3l-3 -6q12 -9 34 -9q0 3 3 3l3 -6l-3 -22q9 -16 9 -22zM1534 956v3h12v-7h-3q-6 4 -9 4zM1757 949h6v3h-6v-3zM2281 949h15q5 0 9 10v3q0 6 -6 6v-6h-6v6h6v6h-15q-5 0 -10 -9v-9q1 -7 7 -7zM1429 952h3q10 7 15 7q1 -7 6 -7l3 7
q-9 0 -9 6h9v3q0 3 -3 3l3 6v6l-15 4h-3v-7h-6l3 7q-13 0 -13 15h-15l-13 -9h-15v-3h-9v3l3 6q-13 5 -41 9q0 -6 -6 -6v6h6q0 6 -6 6h-18q-7 0 -7 -6q-4 0 -34 6q0 -3 -3 -9h16l6 3l3 -6h-12v-6q2 0 18 -3l3 6l-3 6h3q7 0 7 -6l-4 -6q17 -12 100 -28q6 3 9 3l-3 -6l6 -3h3
q0 12 22 18h3v-9q0 -8 -12 -9v-7zM1552 956v3h7v-3h-7zM2151 952q7 13 12 13v9l-19 3l-3 -6v-9q0 -5 10 -10zM1720 956h3v3q0 3 -3 3q2 12 6 12q-3 6 -3 9h-25q-4 0 -9 -9q8 -9 28 -9l-3 -6zM2228 956h9q5 0 10 9v6q0 5 -10 9h-9q-4 0 -9 -9v-6q0 -5 9 -9zM1460 959h6v3h-6
v-3zM1741 959q7 1 7 6q0 6 -7 6q-5 -3 -12 -3v-6h12v-3zM2182 965l3 6q0 6 -7 6l-3 -6q1 -6 7 -6zM1394 974q4 5 4 16l6 -3h3v9h9l3 -16q-15 0 -15 -6v-3h-3zM2823 968h3q6 1 6 6t-9 9l-6 -9q1 -6 6 -6zM1382 974q1 6 6 6h3q0 -6 -6 -6h-3zM1249 974h3q0 7 3 13q-3 0 -3 3
q4 0 9 9v6h-9v3l3 6l-6 4q-6 0 -6 -7h6v-12l-6 -9v-3q6 0 6 -13zM1258 974h6q6 1 6 6v3h-3q-6 -3 -9 -3v-6zM1373 977v6h6v-6h-6zM1360 980v7h3v-7h-3zM1230 980h9q0 7 -6 7h-3v-7zM1549 980l16 3v7h-16q-6 0 -6 -7zM2863 983h6v7q0 6 -6 6t-6 -6q1 -7 6 -7zM1224 987h3v9
h-3q-6 0 -6 -6zM1332 990v6h7v-6h-7zM2460 987h16q5 0 12 12v6q0 22 -21 22h-7q-12 -6 -12 -19q4 -21 12 -21zM1264 990h6v3h-6v-3zM3155 990h9q0 11 6 18h-3l-6 -3q-6 3 -10 3v-3zM1196 996h9v6h-9v-6zM2284 996h3q5 0 12 12v6q0 5 -12 13h-6q-13 -6 -13 -19q2 0 16 -12z
M2671 999h3v6h-3v-6zM2736 999h3q6 1 6 6q-3 6 -3 9q3 6 3 10l-9 6q-4 0 -9 -9v-3q9 -12 9 -19zM1915 1005v6h3v-6h-3zM1190 1005h9v6h-9v-6zM1453 1005h7v6h-7v-6zM1645 1011v7h4v-7h-4zM1165 1011h13v7h-4l-6 -4v10q-4 0 -9 -10zM2591 1011h9v3q0 7 -6 7h-3v-10z
M2671 1011h3q0 2 3 13q-6 0 -6 -10v-3zM6 1014h3q6 1 6 7v3q0 6 -6 6h-6l-3 -12zM1540 1014q0 4 3 4l-3 6q3 6 3 9q-11 6 -49 12l-4 -6q14 -12 16 -12l9 6v-6h-6q0 -9 31 -13zM1159 1018v6l-3 6l-19 -3q0 -7 22 -9zM2402 1018q5 3 12 3q0 -3 3 -3l3 6q-3 0 -3 3
q-12 -3 -22 -3q1 -6 7 -6zM2733 1021v3h6v-3h-6zM1927 1024v6h7q0 -6 -7 -6zM1193 1024h3v6h-3v-6zM1525 1027v3h6v-3h-6zM1878 1027v6h3v-6h-3zM2358 1027h6q7 1 7 6l-19 3v6l22 -9q0 6 15 16q3 6 3 9h-3q-6 0 -6 -13h-3q0 4 -3 10q3 0 3 3h-3l-13 -6h-3v3h6q0 6 -6 6
q-4 0 -15 -16v-6q0 -5 12 -12zM2395 1027h10v6h-10v-6zM1850 1036v6h3v-6h-3zM1574 1036h3q6 1 6 6l-9 7q-6 0 -6 -7q1 -6 6 -6zM2321 1036h6q0 6 -6 6v-6zM1884 1042v3h6v-3h-6zM2278 1042h6v7h-6v-7zM2448 1042l22 22v6q0 6 -7 6l-15 -3q-8 28 -15 28h-13l-6 -3q0 7 9 31
q-4 12 -9 12h-9q-7 -1 -13 -15l-6 3q-17 0 -34 -22v-9l12 9h7v-3q-13 0 -13 -6v-3q37 0 37 19h7q0 -7 9 -7l-3 -6q0 -3 3 -3q-6 -13 -6 -18q21 -10 21 -19zM2572 1042h9q5 0 10 10v3q0 18 -13 18v7q0 7 28 12q7 17 40 43v3l7 -3l3 6v4q0 9 -34 9q0 -6 -7 -6h-3l-9 6h-9
l-25 -31l-6 -9l6 -10v-9q-16 0 -19 -9v-6l6 -10l-3 -21q11 -7 19 -7zM1769 1058v6h3v-6h-3zM2922 1058l9 12v6q0 5 -12 10q-14 -6 -15 -13v-6q3 -9 18 -9zM1828 1064v6h3v-6h-3zM1856 1064v6h3v-6h-3zM1422 1064h7v6h-7v-6zM2169 1064h6v3h-6v-3zM2488 1064q6 1 6 6
q-6 0 -12 3v-3q1 -6 6 -6zM1940 1073v3h9v-3h-9zM1410 1073h9q0 7 -6 7h-3v-7zM2361 1076h10v7q0 6 -7 6h-3v-13zM1745 1083q1 6 6 6v-6h-6zM2290 1083q10 6 15 6v6h-3q-12 -5 -12 -9v-3zM2324 1086q5 0 9 9l-6 3l-3 -6v-6zM2969 1089q21 4 21 12q0 19 -21 19l-16 -16v-3
q6 -12 16 -12zM2854 1101h3q6 1 6 6q0 7 -6 7h-3q-6 0 -6 -7q1 -6 6 -6zM3046 1101q14 6 16 13v9q0 6 -7 6h-15q-5 0 -13 -12v-3q0 -6 19 -13zM2206 1104h10l6 3l-3 7v6q12 -6 18 -6v9q0 5 -18 15q-25 -13 -25 -18q12 -4 12 -16zM2677 1104h6q0 7 -6 7v-7zM2405 1111v6h3v-6
h-3zM2538 1114h3v3q0 4 -9 9v-6q1 -6 6 -6zM1639 1120v3h10v-3h-10zM2209 1120v6q4 0 10 3v-3q0 -6 -7 -6h-3zM2002 1129q4 12 9 12l3 -6q-3 -5 -3 -12zM2541 1120q6 1 6 6v3h-6v-9zM1602 1126h6v6q-6 0 -6 -6zM2361 1129h10v3q0 6 -7 6h-3q-6 0 -6 -6zM697 1132h13
q0 6 -7 6q-6 0 -6 -6zM2129 1132h6v9h-6v-9zM1004 1148h6v6h-6v-6zM1710 1163v3h7v-3h-7zM747 1163h6v6h-6v-6zM734 1169q0 4 3 10q-3 0 -3 3h7v6h-4q-6 0 -6 -9l-6 3h-9v-3q0 -10 18 -10zM772 1169q34 3 34 13q-8 6 -13 6q-12 -3 -12 -12l-16 3l-3 -7q6 -3 10 -3zM753 1176
h6v6h-6v-6zM1593 1179l18 3v6q-29 12 -46 12v-6q7 0 25 -15h3zM2327 1185h9v6h-6v6l10 -6v9q0 7 -7 7h-6q-4 0 -9 -10v-3q0 -4 9 -9zM2656 1194h15q9 4 22 28q-6 19 -16 22h-9q-17 0 -25 -16v-12q0 -17 13 -22zM1680 1197h3v10h-10v-4q1 -6 7 -6zM2395 1197h10l9 6l-3 7
q3 6 3 9l-12 6q-13 -4 -13 -9v-13q1 -6 6 -6zM2460 1197h10q6 0 9 19l-9 6h-7q-4 0 -9 -9v-10q1 -6 6 -6zM1534 1200l3 7v3q0 6 -6 6h-3q0 -3 -3 -9zM1546 1203h6q0 7 -6 7v-7zM1698 1210v6h6q0 -6 -6 -6zM2535 1210h3v6h-3v-6zM1515 1213h10v3h-10v-3zM2287 1213h15v6h-12
q0 5 12 9v-9q7 1 7 6q-5 13 -10 13h-9q-5 0 -12 -13q4 -12 9 -12zM1494 1216h6v6h-6v-6zM1627 1219h15v3l-6 9q-6 -3 -9 -3v-9zM2333 1219v9h-9v-6q3 0 9 -3zM1658 1222h6v3h-6v-3zM2600 1231h3q6 1 6 7v6q0 6 -6 6h-3q-6 0 -6 -6v-6q1 -7 6 -7zM1100 1250h9v6h-3
q-6 0 -6 -6zM1590 1250h15q0 11 25 12v7q-7 0 -34 -4l-22 4l-3 -7zM2783 1262h3q6 0 6 10q0 3 -3 3l3 15v16q0 4 -9 9h-19q-19 -12 -19 -28q17 -16 38 -25zM1531 1265h9v7h-3q-6 0 -6 -7zM2653 1265h12q18 11 18 28q0 20 -24 22h-6q-16 -8 -16 -25q0 -16 16 -25zM1525 1269
h6q0 6 -6 6v-6zM1587 1281h6v6h-6v-6zM2256 1281q14 6 15 12v16l75 -6q6 7 6 12q-6 10 -6 16q6 0 6 6v3q-23 34 -43 34q-47 -11 -47 -28q-6 0 -9 -19h3q0 -5 -19 -24q3 -6 3 -10q-3 0 -3 -3zM2485 1284l6 9v10q0 4 -9 9h-9q-7 0 -13 -3q-5 3 -12 3h-3v-3q13 0 25 -22z
M2606 1293h9q5 0 10 10v9q0 4 -10 9v-6h-6v6h-6l-6 -21zM2017 1296h6v7q-6 0 -6 -7zM2606 1300v3h9v-3h-9zM1574 1300h6v6h-6v-6zM2383 1300h12q5 0 13 12q-11 20 -19 22q0 -5 -12 -22v-6q1 -6 6 -6zM2120 1303h3q6 1 6 6v3q0 6 -6 6h-3q-7 0 -7 -6v-3q1 -6 7 -6zM1503 1306
h3v6h-3v-6zM2742 1306l7 9v6q0 6 -7 6h-6q-4 0 -9 -9v-3q0 -7 15 -9zM1924 1318h7v-6q-7 1 -7 6zM1494 1312h3q0 3 3 9h-10q4 -6 4 -9zM1574 1312l3 6v6h-3q-6 0 -6 -6q1 -6 6 -6zM1404 1318h6v13h-6v-13zM1481 1318h3v6h-3v-6zM1441 1321h9q0 9 10 19v3h-7v-6h-3v6h-6
q0 -6 -9 -6v-10q1 -6 6 -6zM1500 1321h3v6h-3v-6zM1565 1321q6 1 6 6v4h-6v-10zM1580 1324q7 1 7 7h-7v-7zM1385 1327q6 1 6 7h-6v-7zM1469 1327h6v4q0 3 -3 3l3 6v9h-6q0 -6 -6 -6v-6q6 0 6 -10zM1574 1334h6v9h-6q-6 0 -6 -6zM1075 1337h3v6h-3v-6zM1425 1337h7q0 6 -7 6
v-6zM1314 1346q14 6 15 12h-9q-4 0 -9 -9q3 0 3 -3zM1723 1349v6h6q0 -6 -6 -6zM1069 1349v3l6 -3h3q3 0 3 3l7 -3h9l-3 6v7h3v-10q14 22 19 22v3l6 -3h3l-3 15q6 1 6 7v3h-3q-13 -7 -13 -16q-5 3 -12 3v6h9q-7 22 -12 22v-3l3 -15h-6v9h-6q-7 0 -7 -9q-8 0 -9 15h-6v-6h-3
q-3 0 -3 3q-6 -3 -10 -3q0 -9 16 -9q-9 -21 -25 -34l6 -4q0 8 13 10v-3q6 3 9 3q6 -3 9 -3v-3h-15q0 -4 -9 -4v-6zM490 1352l3 6q0 7 -6 7q-7 0 -7 -7v-3q4 0 10 -3zM1081 1358v4h7v-4h-7zM1438 1355h6v3h-6v-3zM1453 1355h13v3q0 7 -6 7q-7 0 -7 -7v-3zM1952 1355h3
q5 0 10 10q0 3 -19 15q3 6 3 9l-6 3l-6 -9q1 -6 6 -6l-3 -6v-3h3l6 3q3 -5 3 -16zM1924 1362v3h7v-3h-7zM1205 1362h4q6 0 6 6h-10v-6zM1710 1365v3h7v-3h-7zM1078 1368v6h7v-6h-7zM2243 1365q5 0 16 21q-3 6 -3 13l-6 -3v6l-7 -3h-6v6h10v3q0 6 -7 6h-9q-6 0 -6 -6
q6 0 6 -6h-3l-16 3l-3 -6v-7h25v-6l-6 3h-3v-6h-3l-6 3v-3q9 -10 9 -15h15v6h7l-4 -6v-3zM1063 1371v9h3q6 0 6 -6q-3 0 -9 -3zM1094 1371q3 6 3 9h6l-3 -6q3 0 3 -3h-9zM1221 1368v3l-3 6q6 1 6 6l-6 3q-6 0 -6 -6q3 0 3 -3h-6v-6q1 0 12 -3zM1326 1368h3q7 1 7 6h-10v-6z
M1608 1368h13v6q-4 0 -10 3q0 -3 -3 -9zM911 1371q6 1 6 6h-6v-6zM1171 1371h7v6h-7v-6zM1487 1371h3q7 0 31 6v3l-12 3q-22 -3 -22 -9v-3zM920 1374h7q3 0 3 3l6 -3h6v6l-12 3q0 -3 -3 -3q0 3 -4 3l-3 -6v-3zM1085 1383v3q1 6 6 6v-15q-6 1 -6 6zM1596 1374q0 3 3 3
q-3 5 -3 12h-3q-6 0 -6 -6q0 -4 9 -9zM1683 1380v3q7 0 15 9q0 -3 3 -9l-9 -6q-6 3 -9 3zM1927 1374h4v6h-4v-6zM2225 1377v3h9v-3h-9zM896 1380q0 7 -16 9v3q12 13 12 19l7 -3q0 3 3 3v-6q4 0 9 9v3l-6 -3h-9q0 9 -10 9v-3q0 -3 3 -3q-3 -5 -3 -12q-10 9 -28 12v-6l-6 3
q-6 -3 -9 -3q0 -4 22 -15q0 7 12 9h3v-3q-3 0 -9 -3q6 -19 25 -19zM1661 1386v3h9v-6q-6 3 -9 3zM2243 1386v6h4v-6h-4zM902 1386q5 3 15 3v10l-9 -7h-3q0 13 -6 13q0 -6 -13 -6v-7h13zM1069 1389v7q6 -4 9 -4v-3h-9zM1676 1389v7q7 0 7 -7h-7zM933 1389h3q-3 34 -13 34h-6
q-6 0 -6 -6q12 0 16 -25zM939 1389h9l-3 7h6q0 6 -6 6zM976 1389h3l3 16h-6q0 -6 -6 -6v-3q1 -7 6 -7zM1023 1389h3q-3 6 -3 10q-7 0 -7 -7zM1047 1389h7v7q-7 0 -7 -7zM1614 1396v3h10v-7q-6 4 -10 4zM1924 1389h3v3q0 5 -9 10h-3v-3q0 -5 9 -10zM1583 1392q5 0 10 10v3
q-12 0 -13 15h-12v-3q11 -25 15 -25zM1931 1392h9q4 0 9 10q-5 12 -9 12h-6l3 -6v-6h-6v-10zM1007 1396h3v21h-3q-6 0 -6 -6v-9q1 -6 6 -6zM1041 1396h3v6h-3v-6zM1652 1399v12h3l3 -12h-6zM1856 1399h6q17 15 28 15q4 -15 10 -15q6 1 6 6v3q0 7 -3 12q3 6 3 13q5 0 12 -13
l-3 -6h3q3 0 3 3l6 -3h7l-10 13q0 9 28 9l-3 6q2 0 34 9q4 0 25 -18q6 3 9 3v3q0 6 -9 6v6l12 -3l16 3v7l-16 -4l-6 13q3 0 3 3l6 -3h4v6q-15 0 -19 12v4h3v-7h3q6 1 6 7q0 13 -21 21q3 6 3 10h-6q-35 -22 -35 -41h-3v6h-6q-6 0 -6 -12h-9l-10 6v-3q7 -10 7 -15
q-32 -34 -84 -50v-6q1 -6 6 -6zM914 1402h3v6h-3v-6zM1608 1405v6h3v-6h-3zM1621 1405v6h3v-6h-3zM1633 1405v6h3v-6h-3zM1862 1405v6h3v-6h-3zM982 1405h3q7 1 7 6h-10v-6zM1029 1405h9v3q0 6 -6 6h-3v-9zM1112 1405h13v3q0 6 -22 12v-6q0 -4 9 -9zM1336 1408h6v3h-6v-3z
M1667 1411v6h3v-6h-3zM1633 1414v9q6 0 6 -6v-3h-6zM1645 1420l7 3q0 -3 3 -3v3l-3 7h3l3 -7q-3 -6 -3 -9h-3q-7 1 -7 6zM837 1414h6v3h-6v-3zM1078 1414h7v3h-7v-3zM465 1417h3v6h-9q1 -6 6 -6zM834 1417h3l-3 6q3 0 3 4l-7 3q0 -3 -3 -3q0 3 -3 3q3 6 3 9l19 -12
q19 3 19 9h-4q-3 0 -3 -3l-18 9l-6 -3v6h6l9 -6v3q-3 5 -3 12l-6 -3q0 3 -3 3l-3 -6l-7 3h-12l9 -12h-3q-3 0 -3 3q-5 -3 -12 -3q0 -5 28 -22zM871 1420q8 13 15 13v3q-4 0 -12 15q-14 0 -16 13h-6v-10q12 -15 22 -15v-9h-3l-6 3v-6q1 -7 6 -7zM939 1420h6v7h-6v-7z
M1041 1420h3v7h-18v-4zM2287 1420h12v7h-12v-7zM449 1423h10v4q0 6 -7 6l-3 -6v-4zM471 1423h3q6 1 6 7l-6 3l-3 -6v-4zM1562 1423q15 4 15 10q-8 15 -28 15q-6 -7 -6 -9v-3q7 0 19 -13zM1624 1433h6v-6q-6 1 -6 6zM1639 1427v6h3v-6h-3zM2305 1423h19q6 1 6 7v3q0 4 -9 9
v-6l3 -6q-7 0 -12 -3q0 3 -3 3l3 6q-3 6 -3 9h-16v-9q12 -8 12 -13zM2361 1423h19l3 16q-3 0 -9 3q-6 -3 -10 -3h-3v3h6v12q-16 0 -18 -9q0 -16 12 -22zM2367 1427v9h7q-3 -6 -3 -9h-4zM514 1427q25 7 25 12v3q0 8 -25 12q-21 -4 -21 -12v-3q0 -5 21 -12zM1559 1430
q0 3 -3 9h12v-3q0 -6 -6 -6h-3zM942 1430v9q-6 0 -6 -6zM2299 1439h6v-6q-6 1 -6 6zM502 1442q0 6 9 6q10 -6 16 -6v-3h-13v-3q-7 6 -12 6zM756 1433q6 7 6 18l6 -3q0 16 19 16q9 -6 9 -16q10 0 10 13l6 -3q0 3 3 9q-61 6 -78 18h-6q0 -2 -6 -12h-3q0 22 -19 22
q-3 -6 -3 -13h-6v3q3 6 3 10q-15 9 -25 9h-15q-16 0 -19 -9l7 -3q0 4 12 9l3 -6q-4 0 -9 -10l3 -6h-3l-6 3l-4 -6v-3q10 0 22 -3q6 3 9 3l-3 -6l19 -9l15 3l28 -19v9h3v-9q-3 0 -3 -3q19 -6 25 -6zM790 1436l16 3v9h-3q-6 -3 -10 -3q-3 6 -3 9h-6l3 -6q-6 0 -6 -6z
M1249 1436h3l3 15h-3q-5 0 -9 -9q1 -6 6 -6zM2281 1436h6v6q-6 0 -6 -6zM741 1445q1 13 9 13v3l-3 6h3q6 0 6 -6q0 -3 -3 -3l3 -7v-3h-6l3 -6h-6zM1078 1439l3 6l-6 3l-6 -3q0 3 -3 3v-6q2 0 12 -3zM2811 1439h6v6l-3 6q-6 -3 -10 -3v-3q1 -6 7 -6zM291 1442h6v6h-6v-6z
M452 1442h7q0 5 -13 9v-3q1 -6 6 -6zM768 1442q6 3 13 3v6h-3q-6 -3 -10 -3v-6zM1097 1442v6h-6q1 -6 6 -6zM1605 1451v3h6q0 -3 3 -9h-3q-6 1 -6 6zM2312 1442h6v3h-6v-3zM2377 1442h6v9h-6v-9zM1534 1448h3v3q0 7 -6 7h-3v-4q1 -6 6 -6zM449 1451h13v7h-6q-7 0 -7 -7z
M579 1451h7v7q-7 0 -7 -7zM1085 1451h3v7h-10q1 -7 7 -7zM1258 1451h3q6 1 6 7v3h-9v-10zM2008 1454v7h3v-7h-3zM2271 1451h7v10q-7 0 -7 -7v-3zM2392 1451q6 1 6 7h-6v-7zM722 1458v9q3 0 3 -3l6 3h3q0 -5 -12 -9zM1212 1454h3v7h-3v-7zM1958 1458v6h3v-6h-3zM2377 1454h3
q4 0 9 10l-6 3q-6 0 -6 -6v-7zM1233 1458h3v3q-9 7 -9 12h-3q-6 0 -6 -6v-3l6 3q0 -5 9 -9zM710 1464v9q6 0 6 -6v-3h-6zM834 1461h9q0 6 6 6v6q-12 -3 -22 -3v-3q1 -6 7 -6zM1971 1464v3h9v-3h-9zM573 1464h6v3h-6v-3zM858 1464q7 1 7 6h-7v-6zM1091 1464v3l-3 6h12
q0 6 -6 6h-13v-3q5 -12 10 -12zM1252 1464v6q0 4 -9 9l-4 -6v-3l7 3q0 -9 6 -9zM697 1470v9h6v-3q0 -6 -6 -6zM2395 1467v3q0 6 -6 6h-3q0 -4 9 -9zM477 1470h10q6 1 6 6q-5 13 -10 13q0 -5 -6 -13v-6zM679 1473v6h3v-6h-3zM1212 1470q6 1 6 6l-6 3q-7 0 -7 -6zM462 1473h12
q0 5 -22 12v4h7q1 -7 6 -7q15 4 15 10l-6 3h-6v-6h-6v6h-6q-5 0 -10 -10q14 -12 16 -12zM657 1479q10 16 31 16l3 -6q-3 -6 -3 -10l-9 6l-10 -6h-12zM1540 1482v7h3v-7h-3zM226 1482h3q7 1 7 7t-7 6h-12v-3q0 -5 9 -10zM1974 1485v7h3v-7h-3zM2027 1489h3q37 16 37 40
q-8 -9 -16 -9v-4l3 -6l-6 -3q-6 0 -6 9l-6 -3l-6 13q12 0 12 9h-6l-13 -6l4 -6v-3q-13 0 -13 -13q3 0 3 -3l13 6v-3zM589 1498h3v6q0 3 -3 3l3 6l-3 7l-6 -4q-8 7 -13 7v3h6q0 -3 3 -3q0 9 7 9h3q0 -5 9 -22h-3q3 -5 3 -12q6 0 9 18q-6 4 -9 4l3 6q-6 3 -9 3v3h3l15 -6v3
q-22 13 -24 28q-5 0 -13 6h-6q-6 0 -6 -6l-13 3h-6v-3q13 0 13 -6l-3 -7q6 -10 6 -15l-6 3h-4q-6 0 -6 -9q0 -15 47 -25zM1816 1498h12q-3 15 -6 15q-6 -3 -9 -3q3 -5 3 -12zM1989 1501v3h7v-3h-7zM1859 1501l3 6l-6 3l-3 -6zM1472 1504h3v3l-6 9v7l6 -3h9v6h3v-10h7
q0 4 3 10q-44 21 -56 31q0 -7 -16 -10q0 4 -3 4v-7q21 -11 25 -28q13 -12 25 -12zM1838 1507h3q6 1 6 6h-3q-6 0 -6 -6zM2008 1510h6v3q0 5 -9 10v-3q3 -6 3 -10zM548 1516q13 8 13 13h3v-13h-16zM1683 1513h6v7h-6v-7zM607 1516h7v10q-7 0 -7 -6v-4zM1460 1520v3h6v-3h-6z
M2011 1523h6v3h-6v-3zM177 1529q4 0 9 9q0 5 -9 9q-7 0 -7 -6v-6q1 -6 7 -6zM576 1538l3 6v3q-6 0 -6 -9h-3q0 8 -6 16v3h6q9 -3 16 -22h-3zM1683 1535h6l3 22q-10 0 -31 25l-31 9q-6 -10 -6 -19h6q6 0 6 10h3q0 -5 6 -13v-3q0 -5 -12 -12v3l6 9v3h-6v-6h-6q0 9 -6 9v-6
l3 -6h-13l25 -16l6 3h7l9 -6h6l6 16h6q0 -6 7 -6v-13l-16 6v-6zM2051 1541h7v3h-7v-3zM2414 1544h3v7h-3v-7zM2426 1544h7v10h-7v-10zM1698 1547q6 1 6 7v3h-6v-10zM1645 1554v6h7v-6h-7zM1655 1554v6q6 0 6 -6h-6zM2082 1551h7v6q-7 0 -7 -6zM2076 1554v3q0 6 -6 6h-6v-6
q1 0 12 -3zM2436 1554l3 6h-10q1 -6 7 -6zM1707 1557h7v3h-7v-3zM2095 1560q6 1 6 6h-6v-6zM2414 1560h6q0 6 -6 6v-6zM2420 1563h6v6q-6 0 -6 -6zM2575 1563h9q13 6 13 19q-5 21 -13 21q-6 0 -6 -6q7 0 13 -12h-10q0 12 -6 12q-12 -5 -12 -9v-13q0 -5 12 -12zM2572 1569v3
q1 6 6 6h3q-3 -6 -3 -9h-6zM1676 1569h7v6h-7v-6zM2584 1572v3h7v-3h-7zM353 1572l6 10q0 4 -12 12h-3q0 -9 -9 -9q0 3 -3 3l-4 -6q14 -10 25 -10zM2079 1572h3v6h-3v-6zM341 1578v4h6v-4h-6zM1618 1575l3 7v3h-3q-7 0 -7 -7zM319 1588h9l7 3q0 -3 3 -3l3 6l-6 3h-10
q-6 0 -6 -6v-3zM2089 1588h3v6h-3v-6zM2126 1588h3q-3 18 -9 18l-4 -12zM1478 1594q6 1 6 6v6q-3 0 -9 3q-6 -3 -9 -3q0 -5 12 -12zM2845 1597h6q0 6 -6 6v-6zM1007 1600h9v9q0 7 -6 7q-4 0 -9 -10q1 -6 6 -6zM2126 1603h21l-6 10v3h6q0 6 -6 6h-6v-3l3 -6v-4h-3v7
q-5 0 -9 -13zM1460 1606h3q0 7 3 13h-10q-6 0 -6 -6zM2268 1606h10q3 0 15 19v9q0 5 -12 13h-3q-22 0 -22 -22v-3q8 -15 12 -16zM1311 1609h6v10q-6 0 -6 -6v-4zM2154 1609h3q6 1 6 7h-9v-7zM1481 1619h9q0 4 -9 9h-6v-3q1 -6 6 -6zM2166 1619l6 3l-3 6v3l6 -3q7 1 7 6
q-7 0 -13 3l3 6v4h-6q0 -19 -12 -19v-6h6l6 3v-6zM1450 1622h3v6h-3v-6zM1460 1628h12v6h-12v-6zM2138 1628h6q0 7 19 9v3q-9 0 -9 13h-3q0 -10 -13 -22v-3zM3024 1628h7q-4 5 -4 12h-9v-6q1 -6 6 -6zM2491 1634h16q8 0 12 22l-12 9h-9q-5 0 -16 -15v-7q0 -4 9 -9z
M3037 1634q6 1 6 6l-9 7h-3q6 -8 6 -13zM2182 1637h6v3h-6v-3zM2172 1653h6v3h-6v-3zM2200 1653h3v6h-3v-6zM1109 1662h3q7 1 7 6q-3 6 -3 10h-10q-3 -11 -3 -13zM2203 1665h6q7 1 7 6h-7q-6 0 -6 -6zM2656 1668h6q0 6 -6 6v-6zM1094 1671h6v7h-6v-7zM2188 1671h3v7h-3v-7z
M2212 1678h10v3q0 6 -6 6q-6 -3 -10 -3q1 -6 6 -6zM2197 1687h6v3h-6v-3zM2206 1687h6v6h-6v-6zM976 1699h6q6 1 6 6l-6 4h-6v-10zM967 1705h3v7h-3v-7zM874 1758h6v9h-9q3 -6 3 -9zM2045 1764h13q4 1 12 16v3q0 6 -6 6h-3q-17 0 -22 -12v-6q1 -7 6 -7zM2076 1848h3v6h-3v-6
zM2274 1848q6 3 10 3v6h-3q-7 0 -7 -6v-3zM2293 1854h6v6h-6v-6zM2395 1857h7v7h-7v-7zM2408 1857q4 0 9 10v9q0 4 -9 9h-3q0 -9 -7 -9q-3 6 -3 9h-6v-18h3l10 6h9v-3q-6 0 -6 -3q3 -6 3 -10zM2219 1860l3 7q0 6 -6 6l-4 -6q1 -7 7 -7zM2305 1860h7q0 7 3 13l6 -3l6 3v-6
l16 3l-3 -6v-4h3q4 0 12 13q-11 3 -12 3v3h9q1 -6 6 -6h3q0 5 6 12v6q-7 19 -27 19q-28 0 -28 -12l-16 3q-5 0 -12 -13v-18h3q0 6 3 6h9v3h3v-3q-3 -6 -3 -12zM2228 1867h6v18h-9q-6 0 -6 -6v-6l9 6h3l-3 -6q3 0 3 -3q-3 0 -3 -3zM2305 1876q0 9 -15 9v3q18 0 22 3l6 -9v-3
h-3v6h-6v-9h-4zM2330 1876v9h3v-9h-3zM2349 1888l6 3l6 -3q-3 -6 -3 -9q-4 0 -9 9zM2402 1882l3 6h-10q1 -6 7 -6zM2079 1891q19 2 19 10v3q0 5 -13 12h-9q-6 0 -6 -6v-9q0 -5 9 -10zM2203 1919q6 1 6 6v4h-6v-10zM2058 1932h6v6h-6v-6zM976 2022q6 1 6 6q0 6 -6 6h-3
q-6 0 -6 -6z" class="colorcurrentColor svgShape"></path></svg></g></svg>