<svg id="SvgjsSvg1122" width="288" height="288" xmlns="http://www.w3.org/2000/svg" version="1.1" xmlns:xlink="http://www.w3.org/1999/xlink" xmlns:svgjs="http://svgjs.com/svgjs"><defs id="SvgjsDefs1123"></defs><g id="SvgjsG1124"><svg xmlns="http://www.w3.org/2000/svg" viewBox="-10 0 2040 2048" width="288" height="288"><path fill="#ffffff" d="M187 -42h8q10 0 16 29q-5 17 -13 19h-11q-16 -10 -16 -27q8 -18 16 -21zM700 0h5q3 0 13 24q24 0 24 22v5l-2 13l5 -2q5 0 5 5v8q0 5 -5 5h-5q0 -8 -8 -8l-14 3q-15 0 -18 -29q2 0 2 -3q-2 0 -16 -16v-3q6 -24 14 -24zM774 27h11q6 8 30 16q8 14 8 27v2q0 6 -6 6q-32 -3 -32 -16l-5 2q-19 0 -19 -16q0 -14 13 -21zM772 38v5h5q0 -5 -5 -5zM780 75q5 7 8 37q-5 0 -16 51h2q3 0 22 -5q3 4 3 16h5q5 -40 24 -40l-5 18q3 0 8 8q0 15 -11 19q-9 -5 -13 -5q0 37 -22 37q-3 0 -3 -3l-5 3q-5 0 -21 -24l-11 11h-5q-4 0 -8 -8l5 -8l-3 -6l-18 3
h-3l-5 -3q0 8 -6 8h-2q0 -15 -16 -53q0 -14 16 -24h2q11 0 24 13q17 -21 24 -21l14 8h2q-5 -9 -5 -16q0 -16 19 -16zM849 83q6 1 6 5t-8 8l-3 -5v-3q1 -5 5 -5zM649 136q0 6 11 11h16l5 -3l5 24q-2 31 -10 40q2 6 2 8h14q4 0 8 8l-3 6q5 1 5 5l6 -3h2v3l-2 5q5 9 5 14h3
l26 -8q9 5 14 5l13 -3q0 3 -3 8q9 35 19 38q5 -3 8 -3v11q0 9 -11 21v24q1 6 6 6q0 -5 11 -11q0 11 5 11q0 -17 5 -17q22 0 22 25h2l6 -3l2 5v8q8 0 8 6q-8 2 -8 5l3 5q-5 11 -5 19q11 -16 13 -16l11 -3v6h-6l3 13h16l-3 5v3q5 0 14 13v14q8 0 8 5v13h-11v-2h5v-3h-2
q-6 3 -8 3h-3v-3h5v-5h-8l3 5h-5l2 5l-2 6q2 0 2 2l-5 3q0 -8 -8 -8l3 -5v-3l-6 -8q3 0 3 -3h-3l-5 3q0 -9 -3 -13h3l11 8v-8h2l6 2q0 -5 10 -5v-5q-8 0 -18 -3q0 3 -3 3q0 -4 -19 -11l3 5l-3 6h6v8h-11q0 -14 -5 -14q-6 0 -6 -5h3l-3 -5l3 -6h-8v3l3 5h-3q-5 0 -5 -8l5 -10
q-5 0 -5 -6h-8q-5 0 -11 24l-8 6h-3q-5 0 -5 -6v-2q5 0 5 -3t-13 -19v-5q12 0 24 -21v-3h-3q0 8 -11 13h-13l-11 -16q-28 0 -32 -13q-5 0 -18 5q-6 -6 -6 -11h-2q-6 1 -6 6v3l3 18l-24 16h-21q-8 9 -11 24h3l18 -2q0 2 3 2q7 -13 11 -13q11 3 16 13l-11 11v24q-7 14 -21 21
h-6q-14 0 -29 -21q8 -17 8 -24h-3q-1 0 -16 16h-2l-8 -29q2 -5 2 -11v-8q11 0 11 -8q-8 0 -21 -54h-11q-3 30 -27 30q-13 0 -26 -35q7 -21 24 -21q2 0 16 10h2q2 -17 19 -32q5 3 8 3v-3q-5 -13 -5 -21q5 -3 8 -3v-5q-11 0 -11 -21q19 -24 19 -27l-11 -19q13 -20 13 -26
q16 -11 19 -11l5 3zM289 142h8q4 0 8 8v2q0 5 -11 11q-4 0 -8 -8zM169 144q14 0 18 11v8q0 14 -8 16h-10q-4 0 -11 -11v-13q0 -4 11 -11zM241 144l2 6q0 5 -5 5q0 -3 -3 -8zM385 144h5q4 0 11 11v3q0 5 -5 5q0 -8 -8 -8v11h-3q-5 0 -5 -6v-5q2 0 8 -3l-3 -5v-3zM662 152v6h3
v-6h-3zM329 155h5q27 5 27 27q0 9 -13 21h-8q-24 0 -24 -29v-6q0 -3 13 -13zM502 155q12 5 14 11v13q0 5 -6 5h-2v-5h-3v8q-14 0 -16 -8v-5q8 0 8 -8h-5v-3q0 -4 10 -8zM502 163v5q3 6 3 8h3q0 -6 2 -10q-3 0 -8 -3zM815 163v5h2v-5h-2zM393 163h3v5h-8q0 -5 5 -5zM348 182
v2h8v-2h-8zM951 184h5v3h-5v-3zM588 190h5v2h-5v-2zM937 190h3v5h-3v-5zM478 200q11 3 11 11l-3 5v3h3v-5h3v16q-5 10 -19 10q-4 0 -11 -13v-8q0 -19 16 -19zM855 208h5q4 0 8 8l-8 11h8v3q0 4 -13 10q-8 0 -14 -13q7 -17 14 -19zM324 211h8q0 5 -6 5zM625 214v24
q11 0 16 18h3q0 -2 2 -16q-2 -8 -5 -8l3 -5v-5q-7 0 -19 -8zM855 214q0 4 -6 10v3h8l3 -13h-5zM444 214q16 16 16 26q0 18 -24 24q-22 -8 -22 -32q0 -15 30 -18zM756 254v5q5 0 5 -5h-5zM865 251h3q4 0 8 8v5q0 6 -5 6h-3l5 -11l-5 -3q0 3 -3 3q0 -3 -2 -3q0 3 -3 8q4 0 8 8
h-5q-6 0 -6 -5v-8q0 -4 8 -8zM187 254q6 1 6 5q0 5 -6 5q-5 0 -5 -5q1 -5 5 -5zM638 264q0 19 -26 19v5q0 4 13 11q10 -5 21 -5q19 0 38 32q4 -3 10 -3q0 5 8 5q6 -2 8 -2v-8h-13q-4 0 -8 -8v-3l3 -13q-12 -6 -43 -14q-3 -5 -3 -8q3 0 3 -2zM836 264h5v6h-5v-6zM831 267h2v5
q0 6 -5 6h-3v-6q1 -5 6 -5zM505 275h5q0 5 -5 5v-5zM369 280h5q6 1 6 6l-6 2q-5 0 -5 -5v-3zM766 283v3h6v-3h-6zM983 286h10q6 1 6 5h-6l-5 -3q0 3 -3 3zM369 291h5v5h-5v-5zM972 291h13q-10 7 -10 13h-6zM334 296h6q3 0 8 8v11q0 4 -8 8h-6q-10 -5 -10 -13q5 -12 10 -14z
M991 296h10q0 14 -13 22h-11l-5 -3q0 -3 19 -16v-3zM855 302h2l14 2v6h-6v2h6q0 -2 2 -2v13q0 4 -8 8q-5 -3 -8 -3l3 6l-5 2q-3 0 -14 -13l6 -13l5 2h3v-2h-6v-3q1 -5 6 -5zM265 304h2q4 0 8 8v6q0 5 -5 5h-8q-5 0 -5 -8q4 -11 8 -11zM777 307v5h3v-5h-3zM860 307q0 8 -5 8
v11q5 -3 8 -3v-16h-3zM865 315v3h6v-3h-6zM404 315h2q6 1 6 5v6q0 5 -6 5q0 -5 -10 -5v-3q0 -4 8 -8zM398 328h3q5 1 5 6h-2q-6 0 -6 -6zM492 336h10q4 0 11 11v16q0 4 -8 8h-11q-4 0 -10 -10v-8q1 -17 8 -17zM807 342v3l13 2q0 -5 -8 -5h-5zM446 342q8 3 8 16l-5 3h-5
q-6 0 -6 -6v-5q0 -4 8 -8zM766 350v5h3v-5h-3zM815 353v2h5v-2h-5zM924 350q0 3 21 16l-16 32q-40 -4 -40 -13q0 -35 35 -35zM273 353h5q6 0 6 5v3q0 3 -9 8h-2q-6 0 -6 -6v-5q1 -5 6 -5zM772 355v6h2v-6h-2zM782 361l6 2v-8q-6 1 -6 6zM815 361v5h2v-5h-2zM190 361q4 0 8 8
v2q0 6 -5 6h-3q-5 0 -5 -6v-5q1 -5 5 -5zM574 361h11q11 4 11 18q0 16 -19 16q-10 -5 -13 -16q3 -18 10 -18zM921 369v2h8v-2h-8zM807 374v3q0 5 5 5h3v-3q0 -5 -6 -5h-2zM833 374v5h3v-5h-3zM791 377v5h2v-5h-2zM796 379q0 9 -3 14h6v-14h-3zM454 379h6v6h-6v-6zM465 379h3
q5 1 5 6v5q-4 0 -8 -11zM556 382h2v3q-8 0 -8 8l6 2q0 -10 5 -10v5q-4 11 -8 11l-5 -8v-6q0 -5 8 -5zM900 385v5h3v-5h-3zM457 393h5v5h-5v-5zM785 395v3q3 0 8 3v-6h-8zM788 406v3h5v-3h-5zM622 409v2h6v-2h-6zM772 406h5q0 3 -3 3l3 5v3q-5 0 -5 -6v-5zM855 409v2h5v-2h-5
zM308 409q13 4 13 16l-11 8q-13 -5 -13 -14q3 -10 11 -10zM353 414h11q9 5 13 16q-4 19 -11 19h-2q-35 -6 -35 -16q0 -5 24 -19zM569 417q24 14 24 29h3v3q0 2 -3 2l3 6v5q-3 0 -32 8q-8 0 -8 -8h-6q-11 13 -21 13q-14 0 -16 -8v-16q8 -13 19 -13l13 3q0 -19 24 -24z
M486 427v6q0 5 -5 5h-3v-3q0 -4 8 -8zM841 441h6q0 5 5 5q-3 5 -3 8h-5zM777 443q19 20 19 24q0 10 -16 27q-19 -8 -19 -24v-5q14 -22 16 -22zM294 446l6 3q-3 5 -3 8q3 5 3 8l-8 5h-3q-4 0 -8 -8q13 -13 13 -16zM905 446h3v13h-3q-5 0 -5 -5v-3q5 0 5 -5zM601 454h5v5h-5
v-5zM617 454h11q5 1 5 5v11q0 4 -8 8h-8q-4 0 -8 -8q2 -16 8 -16zM849 454h8v5h-2q-6 0 -6 -5zM329 457q8 2 8 16q0 6 -13 8q-11 -12 -11 -19q9 -5 16 -5zM766 465q6 6 6 13h10v-3q0 -4 -10 -10h-6zM785 465v8h3v-8h-3zM895 462h5v3l-13 16l13 5q0 3 -3 3q6 8 6 18h2v-5h3
l8 5h3v-2q-8 0 -8 -6q0 -4 8 -8q13 0 13 11h5q6 0 6 -8h8q10 0 24 -13h2q4 0 27 24h16q0 21 37 40q0 14 30 21q9 7 18 24q7 4 22 45h2l19 -2q2 7 13 13q0 -3 3 -3q11 14 11 19h10l6 -3v6q-3 5 -3 8q5 1 5 5q2 0 11 -3q8 0 27 16q3 0 8 3l5 -3q3 0 3 3l34 -8l3 5v16q6 0 6 3
l13 -8h5l6 3v-11h5l-3 5q6 7 6 11q-3 5 -3 8q3 0 3 3l5 -3q13 4 13 8v3q-8 0 -8 8v2h3v-5q19 17 19 24l5 -3h3q-6 7 -6 14h-2l-6 -3v8h6l-6 8v5q60 22 80 51q24 8 24 14q-2 14 -2 16l2 13l-5 3q0 -8 -13 -11q-11 4 -11 8v3q0 3 29 24q14 -14 24 -14v8q-8 0 -8 6v5l3 13
q-3 0 -3 3q4 0 14 16v3h-8v2q37 38 56 43l2 5l-2 6q1 0 10 -3q5 0 16 5l16 -2h6q24 0 29 34l-5 3h-14q-2 0 -2 -3l-6 3q-9 -1 -29 -24q-13 0 -13 -5q2 0 2 -3l-5 -3v8h-3q-7 0 -56 -18q-3 0 -13 -14l3 -5h-3q-5 3 -8 3q-45 -40 -61 -40q-3 4 -3 10h-3l-8 -5l-2 5h8v6
q0 5 -14 5v5q14 0 14 16q13 4 13 8l-5 8q0 4 16 11v-5h5v8h8v-8h-5v-6l13 3h3l8 -5h8q6 0 16 18q7 0 10 16h-2q-6 -2 -8 -2v2q17 18 29 38l-5 8v2h2v-5h3q13 9 13 11q-2 5 -2 8h2q2 0 11 -3l3 5v3q-22 0 -22 8v3h3l5 -3l22 27h2l-2 13v3h8v8h-3l-5 -3v5h5v6l-5 -3q0 7 -8 13
q-19 0 -30 -13h6v-11q-8 0 -8 8h-3q-4 0 -8 -8v-2q6 0 11 -3l-3 -5q4 -11 16 -11v-3h-8q-19 11 -19 19h-5q0 -18 -56 -67l-53 -32q-19 0 -19 -16q-27 -15 -29 -21v-3h5v-5q-3 0 -8 3l-30 -8h-8v-8l-5 2l-8 -5l3 -5v-6h-3v8l-16 -16l-11 19l27 21q-2 11 -5 11q-22 -8 -78 -21
q0 -3 -2 -8l-6 2q-10 -4 -10 -8l2 -5h-2l-19 3q-40 -7 -40 -32q0 -16 37 -30h14q20 0 42 19q-2 8 -5 8q0 4 21 24v3l-5 8l3 13h2q1 -11 11 -11l-3 -5v-11h3l5 3q0 -39 -56 -48q-4 -9 -37 -21v-6l5 3v-3l-8 -10v-6l6 3v-5h-3l-5 2l-3 -5q10 0 21 -8q1 5 6 5l13 -2q11 2 19 2
v6h-6v5h3l5 -3v6l6 -3q5 1 5 5v8h-5v3l48 -16q0 7 10 8q1 -5 6 -5v2q-3 5 -3 8l5 3l-2 5v3h2v-5h3q9 8 24 10q5 -2 14 -2q0 -4 -11 -19q3 -5 3 -8l-14 -8q-16 5 -16 11h-5q0 -19 -40 -38q0 -19 -11 -19q-28 -18 -35 -18q0 -12 -13 -19l3 -5q-3 -5 -3 -8l-5 2h-3l-8 -5l8 -11
q-3 -3 -3 -13h3v-8l-5 3h-3q0 -14 -8 -14v8h-3q0 -5 -2 -5l2 -5v-6h-5v-2q1 -6 5 -6q8 6 22 6q0 -4 5 -11v-3l-8 -10q0 -3 3 -3l-11 -13l-5 2q-18 -8 -24 -16v-2h5v-6h-5v6h-3q-8 -8 -43 -32q0 2 -2 2l-3 -5l3 -5q-30 -46 -35 -46t-24 -26l-19 2q0 -2 -2 -2q-3 17 -14 34h-2
q0 -3 -3 -8q5 0 5 -5l-10 -3q0 4 -11 11l-5 -3l2 -5v-3q-5 0 -5 -2v-8h-8q0 17 -13 32v2q13 16 13 19q-5 0 -13 16q-32 0 -43 13h-5q-8 -9 -8 -13h-6q0 3 -2 8q2 0 2 3q-4 0 -21 13h-16q-5 0 -5 -11h-11q-4 0 -8 8l5 3q-2 5 -2 8h-6v-13l6 -8q-6 0 -6 -6v-2l6 -8v-3h-8
q0 11 -11 16q-3 0 -8 -3q-15 3 -24 3q-4 0 -8 -8v-16q0 -8 18 -32q1 -27 24 -27q23 19 27 19v-3q-1 -15 -8 -24q-16 6 -21 6v-3q1 -5 5 -5q0 2 3 2v-16h-3l-11 14l-8 -11q0 -3 3 -3l-3 -5v-5q8 -12 8 -19h11v8h3q0 -8 5 -8q19 13 19 27l-3 5l6 11q2 0 2 -3q27 4 27 21
q-10 16 -13 16h-6l-5 -2l5 16q-5 17 -21 29q5 0 5 3l6 -3q5 0 5 8q5 -3 11 -3v-2q-11 0 -11 -6v-2q22 -11 27 -11h10v5h-8v6q6 0 6 10q5 -2 8 -2v-14l-6 -8l6 -2v5h2v-5h16v5h8l-2 -5q3 0 8 -8v-3q-20 0 -27 -19q5 -8 5 -13q-7 0 -10 -24q10 -11 26 -13q14 9 14 21h10v-3
l-8 -10l3 -6v-2h-3v5q-6 0 -8 -11q3 -5 3 -8q-3 0 -3 -2q3 0 3 -3q-3 0 -3 -3l-5 3q-5 0 -5 -5v-3h5v-3q0 -4 -11 -10v5h-5v-3l3 -5h-8v-8l13 3h3zM1479 462v3q0 5 -5 5v-3q0 -5 5 -5zM903 465h5v13q-3 0 -5 8q-6 -3 -8 -3v-5q8 0 8 -13zM462 473v2q-2 5 -2 8q-6 0 -6 -5v-3
q3 0 8 -2zM1468 473h6v5h-6v-5zM823 475h2q6 1 6 6v5q0 5 -6 5h-2q-6 0 -6 -5v-5q1 -6 6 -6zM345 478h8q19 0 19 19q-13 10 -22 10q-11 -3 -16 -13q6 -16 11 -16zM564 478h8q5 1 5 5v3q0 4 -8 8h-5q-6 0 -6 -5v-6q1 -5 6 -5zM1458 478h5v5h-5v-5zM598 481h3q5 0 5 5v5h-2
q-6 0 -6 -5v-5zM99 486h6q3 0 13 13v11q-4 11 -19 11q0 -2 -10 -14v-10q0 -5 10 -11zM905 486q6 1 6 5h-6v-5zM1450 489h2v8h-2v-8zM588 497h2q3 0 3 2l5 -2h6v5h-16v-5zM1444 499h3v6h-3v-6zM617 505h5q6 0 8 13l-8 5h-5q-5 0 -5 -5v-8q1 -5 5 -5zM791 507v6h2v-6h-2z
M905 513v5h3v-5h-3zM924 513v2q4 0 11 6v-6q-3 0 -8 -2h-3zM601 513l16 37q3 0 3 3q-3 4 -3 10h13l-16 14q0 -3 -2 -3v5q0 6 10 6v18q0 15 -10 19h-3q-5 0 -5 -5q-5 2 -8 2q-13 0 -16 -34l5 -11q-13 0 -13 -24v-21q-16 0 -16 -6v-2q1 -6 5 -6h3l-3 6v5h3q20 -13 37 -13z
M948 515v3h5v-3h-5zM788 518v3h5v-3h-5zM948 521v2h5v-2h-5zM969 521v5h6q0 -5 -6 -5zM772 529v2h8v-2h-8zM793 537q3 0 8 2h3v-2q-5 0 -5 -6q-6 1 -6 6zM919 531v6h5v-6h-5zM964 542v3h5v-3h-5zM708 547h2q24 0 24 22q-5 12 -10 13v-5h-6l3 5v5h-11q-18 -12 -18 -16
q6 -20 16 -24zM961 550v3h6v-3h-6zM705 555l-3 6q5 -3 11 -3v-3h-8zM716 555v3h5v-3h-5zM956 555v3h5v-3h-5zM1049 555q1 6 6 6v-6h-6zM951 561v5l5 3h3v-3q-6 0 -6 -5h-2zM967 566v3h8v-6q-6 3 -8 3zM612 566v5h2v-5h-2zM593 571v6h3v-6h-3zM1071 571v3h5v-3h-5zM636 571
l2 6l-5 2l-3 -5zM1087 577v10h2q0 -6 3 -10h-5zM596 582v5h5v-5h-5zM953 585h8v2h-8v-2zM988 590h8q5 1 5 5h-8q-5 0 -5 -5zM609 601v5h3v-5h-3zM913 603v3q1 5 6 5v-2q0 -6 -6 -6zM996 601l3 5v11q-6 0 -8 -14zM598 606v3h6v-3h-6zM1095 606v3h5v-3h-5zM641 606h11q4 0 8 8
v8q0 6 -24 11l-3 -6l3 -13l5 3v-11zM839 611v3h8v-5q-6 2 -8 2zM876 609l-3 5v3q5 -3 8 -3q0 -5 -5 -5zM892 614l5 3q0 -3 3 -8h-3q-5 1 -5 5zM1108 609q0 3 -3 8v5h3q0 -6 3 -11v-2h-3zM1004 609h5v2h-5v-2zM988 614h3v11h-8q-6 0 -6 -6q4 0 11 -5zM705 619h8q4 0 8 8
q-3 0 -3 3q11 1 11 8h-3q-5 -3 -8 -3l3 6v2h-3q-2 0 -2 -2q-13 3 -14 10q3 0 3 3l-5 3q0 -3 -3 -3l3 -5v-3l-6 3q0 -4 -8 -8v5l8 11h-5q-6 -6 -11 -6q0 -14 19 -24q0 -3 8 -8zM700 627q0 3 2 3l-2 5v6q5 -1 10 -14h-10zM940 625l5 8l-5 2h-3q0 -5 -2 -5q-6 3 -8 3v-6z
M831 630v3q2 5 2 8h-5v-6h-5l2 6l-5 8q21 -4 21 -11v-3q0 -5 -5 -5h-5zM847 630v3h5v-3h-5zM1105 630v8h6v-3q0 -5 -6 -5zM871 633v2h5v-2h-5zM945 633q3 0 8 2h14v3l5 -3q11 5 11 19v3q0 2 -3 2l3 6v5l-11 -5v8h5v2q-8 0 -8 8q-38 -16 -45 -16q1 -5 5 -5q0 3 3 3l3 -14
q-8 0 -8 -5l8 -5h2l-2 5h2q8 -7 8 -13zM817 638v5h3v-5h-3zM959 641v5h10v-3q-6 0 -10 -2zM1124 641v5h-8l-13 3v2h5q0 -2 3 -2q1 5 5 5l5 -3q6 3 8 3l3 -5q-3 -5 -3 -8h-5zM857 641h6v2h-6v-2zM1044 643h3q10 4 10 8v3h-8q0 -4 -5 -11zM1148 646v3h5v-3h-5zM913 646h11
l-3 5h8q0 6 -5 6l-5 -3q0 4 -6 11v2l6 -2q5 1 5 5q-5 3 -8 3q-8 -3 -8 -6q5 -17 5 -21zM1039 646v11q0 5 -6 5l3 5v3h-5q0 -6 -3 -11h5v-2l-5 -8zM385 649q5 1 5 5q0 5 -5 5t-5 -5t5 -5zM807 649h5v10q0 4 -8 8v-5l5 -11q-2 0 -2 -2zM948 651v6h3v-6h-3zM959 651v8h2
q0 -2 3 -8h-5zM852 651h5q6 1 6 6q0 4 -8 8q-4 0 -8 -8q0 -6 5 -6zM967 654v5h2v-5h-2zM1319 651h8q5 1 5 6q0 3 -13 13l-13 -3v-5q0 -4 13 -11zM1135 659v8q8 -8 13 -8v-2h-5q-5 2 -8 2zM462 657l6 8v8q0 5 -6 5h-8q-4 0 -8 -8v-3q6 -10 16 -10zM1124 659v3h5v-3h-5z
M1047 659h2l14 3v5h-11q-5 0 -5 -5v-3zM943 665v2h5v-2h-5zM959 665v5h2v-5h-2zM1407 665h3q-3 4 -3 10h-5v-5q0 -5 5 -5zM1057 670h3v8h-3v-8zM620 673h5q5 1 5 5v3q0 4 -8 8q-3 0 -8 -8v-3q1 -5 6 -5zM1300 673h6q0 4 -11 8v-3q1 -5 5 -5zM1044 675h5v6q-5 0 -5 -6z
M1161 678v3h6v-3h-6zM1063 678v5h-6q1 -5 6 -5zM748 683l2 6h-5v2q13 0 13 6l6 -3h5q4 0 16 16q0 5 -5 5q-9 -16 -19 -16l3 6h-3l3 5l-3 5q5 1 5 6q-5 0 -5 8h-3q-3 0 -8 -8v-8l6 -8v-6q-8 0 -8 -2l-6 2h-8v-5q4 0 14 -11zM1153 694h6v-5q-6 1 -6 5zM1164 689v2h5v-2h-5z
M937 689q14 3 14 8q0 14 -16 24q-14 -13 -14 -19q6 -13 16 -13zM975 689h5v2q-3 6 -3 8h-2q-4 0 -8 -8h2l6 3v-5zM937 694v5h3v-5h-3zM1087 691h2v6h-2v-6zM1343 691h8v3h-8v-3zM1188 697v5h3v-5h-3zM492 697h2q6 1 6 5q0 5 -6 5l-2 -5v-5zM937 702v5h3v-5h-3zM1332 699v3
q0 5 -5 5v-2q1 -6 5 -6zM601 702h5q4 0 8 8v8q0 4 -10 11h-6q-8 -3 -8 -16q0 -4 11 -11zM929 705v2h6v-2h-6zM1028 702h3q16 2 16 8v13h-6v-2l3 -6q-16 -9 -16 -13zM1300 707v6q3 0 8 2v-2q0 -6 -5 -6h-3zM521 707q11 4 11 8v6q0 4 -11 10q-11 -5 -11 -16zM692 707h2v6
q0 5 -5 5l-3 -5q1 -6 6 -6zM1100 707h5q0 6 -5 6v-6zM1028 710l5 8q0 3 -2 3l2 5q-10 9 -10 19q-3 0 -8 2q2 5 2 14h8q0 -6 3 -11h-8l16 -21l5 -3l3 5v3q-9 0 -11 11q6 13 6 18h-3l3 6v5l-14 -3q0 3 -8 8q-20 -4 -24 -13v-5q7 -13 11 -14q0 3 3 3q0 -3 2 -8q-5 0 -5 -8l-5 3
h-3q0 -3 -3 -8l8 -6h11v6h-5v2h8l5 -10v-3h-3v5h-2q-6 0 -6 -5q16 -8 19 -8zM860 713q4 0 16 16q-11 5 -16 45q-18 11 -32 11q-27 -6 -27 -27h3l-3 -5q0 -18 51 -40h8zM1116 713h3v8l-6 -3q0 5 -5 5v-2q0 -4 8 -8zM1263 718v5h2v-5h-2zM1023 721v8q5 0 5 -6zM1273 721v5h3
v-5h-3zM772 721h8v5h-3q-5 0 -5 -5zM929 723h6v3h-6v-3zM1975 723v3q0 5 -5 5h-8v-5zM1017 731v6h3v-6h-3zM1145 731v6h3v-6h-3zM1303 731l-3 11h3q5 0 5 -5q0 -6 -5 -6zM964 734h3v5h-3v-5zM1319 737v5h3v-5h-3zM1161 739v11h3v-11h-3zM510 739l3 6v5h-3q-5 0 -5 -5
q1 -6 5 -6zM678 739h8q6 1 6 6h-3q-3 0 -3 -3l-5 3h-3v-6zM1332 742q3 5 3 8h3v-8h-6zM670 742h3q5 1 5 5h-8v-5zM1308 750v3h6v-8q-6 1 -6 5zM710 745h6v8h-6q-5 0 -5 -6zM1153 753v2h6v-2h-6zM662 753h8v2h-8v-2zM769 753q11 2 27 24v8q0 4 -11 10h-3l-26 -21v-11
q1 -5 13 -10zM1001 763q4 11 8 11h8l-5 -11v-8q-11 4 -11 8zM700 755v3l-3 11h-3q-5 0 -5 -6v-5q1 0 11 -3zM1338 758v5h2v-5h-2zM38 758q5 1 5 5v3q0 5 -5 5h-3q-5 0 -5 -5q0 -4 8 -8zM996 761v5h3v-5h-3zM1023 763v6q5 0 5 -6h-5zM676 769h5q5 1 5 5v3h-10v-8zM321 771h3
q5 1 5 6q0 4 -8 8q-5 0 -5 -6v-2q0 -6 5 -6zM1335 774q1 5 5 5l3 -5h-8zM1268 779v6h3v-6h-3zM705 779h5v6h-5v-6zM740 779h5v6q-5 0 -5 -6zM1079 779h8q6 6 16 6v5h-6v3l14 2v14l-24 8h-8q0 5 -6 5h-2l2 -5v-11h-5v-8h5q0 -5 -5 -5q0 2 -3 2v-2q0 -4 8 -8q6 2 8 2l-2 -5v-3
zM1319 782v5h5v-5h-5zM726 782q6 1 6 5h-6v-5zM1306 787v6h2v-6h-2zM1386 785h13q5 1 5 5q-10 5 -18 5l-6 -8zM1089 790v3h6v-3h-6zM1079 793q0 1 -3 10q5 -2 11 -2q0 -4 -8 -8zM694 795h14q4 0 10 11l-2 13q4 0 8 19q-5 21 -19 35q-3 0 -16 -24h-3q0 13 -8 13h-2
q-6 0 -6 -5v-5q0 -6 19 -6l-3 -5q0 -2 3 -16q-5 -9 -5 -16v-3q0 -4 10 -11zM892 795h5q0 6 -5 6v-6zM1095 798v3h5v-3h-5zM1103 798v5h2v-5h-2zM729 798h3q5 1 5 5h-8v-5zM1060 798q5 1 5 5v8h3v6h-3q-10 -4 -10 -8q5 0 5 -6h-5q1 -5 5 -5zM1263 801v5h2v-5h-2zM1081 806v3
h14v-6zM1290 803v6h2v-6h-2zM1327 803v6h3v-6h-3zM892 806l3 5l-6 3l-2 -5zM566 809q13 5 14 10v3q0 14 -8 16h-6q-13 0 -16 -8v-8q5 -10 16 -13zM956 809q5 1 5 5v11h-8q-5 0 -5 -6v-2q0 -4 8 -8zM758 819h3q5 1 5 6v5q0 5 -5 5h-3q-5 0 -5 -5v-5q1 -6 5 -6zM449 825h5
q0 5 6 5v5h-6q-5 0 -5 -5v-5zM614 827h8q6 1 6 6v2q0 7 -14 9l-5 -9v-2q1 -6 5 -6zM961 830h6q5 1 5 5q0 6 -5 6q0 -7 -11 -8q-5 16 -11 16l-2 -5l5 -9h-5v-2zM1121 830h6q3 0 13 14q-5 0 -5 5v3h5v5l-13 3h-3q-5 0 -5 -6v-5l10 -3v-2q0 -6 -5 -6l-5 3q0 -3 -3 -8zM801 833
l8 11v2q-5 46 -24 46h-3q-12 -6 -13 -11v-3q15 -45 32 -45zM857 833q0 12 32 16l6 -3h2q4 0 11 11l-21 29l-14 3h-5q-15 -19 -21 -19q-14 0 -16 -8v-10q13 -19 26 -19zM1177 835h8v6h-2q-6 0 -6 -6zM1551 835h3q20 4 21 11q0 7 -21 11h-16q-4 0 -8 -8q6 -14 21 -14zM521 841
h3q3 0 8 8q0 4 -8 8h-6q-5 0 -5 -5q4 -11 8 -11zM1602 841q4 3 24 5v6l-27 16h-19q-3 0 -8 -8q14 -19 30 -19zM975 844l2 5h-8q1 -5 6 -5zM1108 844h5v5h-5v-5zM1124 854h5v-5q-5 1 -5 5zM977 849h3v5h-3v-5zM951 852l5 2q5 -2 11 -2v2q0 6 -16 8q-6 -2 -8 -2v-3q0 -5 8 -5z
M737 860q13 0 19 29q13 0 13 19v8q-7 13 -21 13h-6q-8 0 -16 -32h-5q0 13 -11 13q-10 -4 -10 -8v-8q0 -4 8 -8h5l5 3q0 -27 11 -27q3 0 8 -2zM1292 862v6h3v-6h-3zM660 862q13 11 13 14q-3 10 -24 10h-5q-7 0 -8 -10q0 -12 24 -14zM911 865q10 3 18 3v5h-13q-5 0 -5 -5v-3z
M1140 873v5q5 0 5 -5h-5zM537 876q19 7 19 24l-3 5q4 0 8 8q0 4 -8 8q-6 -7 -32 -16v-3q2 -26 16 -26zM1025 876l6 2h8q0 4 8 11v8q-7 13 -11 13v-5h-5q0 8 -8 8q-5 -3 -11 -3v6h8q6 0 11 -3h8v-3q10 8 24 8h5l13 -2v2q0 8 -8 8v3h6q0 -3 2 -3v6q3 0 8 -11q6 3 8 3v10
q-2 0 -2 -2q-14 2 -14 16l6 -3h2v3q0 4 -13 8l-48 -16q-5 2 -11 2h-5v-2l3 -6l-11 -2v-3h5q0 -3 -2 -3l2 -5v-8h-5l3 -13h5v5q10 -8 13 -8v-3q-8 0 -8 -2q3 -6 3 -8q-16 3 -16 8q3 0 3 2h-8v-2q0 -6 26 -16zM1698 881q14 0 18 11q0 3 -13 10h-11q-4 0 -10 -10v-3q2 -8 16 -8
zM500 884q4 0 10 10v11q-7 13 -21 13q-10 -5 -13 -16q7 -18 24 -18zM825 884h3q4 0 8 8v2q0 4 -8 8h-3q-4 0 -8 -8v-2q0 -4 8 -8zM1450 884h5v2h-5v-2zM1124 886h5q0 6 -5 6v-6zM1148 892v2h5v-2h-5zM1239 897v5q5 -2 8 -2q-3 -6 -3 -8q-5 0 -5 5zM935 892q0 3 10 10v3h-8
q-4 0 -8 -11zM1028 894v3q3 0 8 3l3 -6h-11zM1164 894v3h5v-3h-5zM1231 897q1 5 5 5v-5h-5zM1201 900v2h6v-2h-6zM1346 902l-3 19q27 6 27 8l5 -3q5 3 11 3q0 -3 2 -3q-8 -18 -24 -18q0 5 -5 5q0 -11 -13 -11zM799 900l2 5q0 5 -5 5h-3v-5q1 -5 6 -5zM1169 908q1 5 6 5h5
q-5 -7 -5 -11q-6 1 -6 6zM1161 905v5h3v-5h-3zM1207 913v3h8q-3 -6 -3 -8q-5 0 -5 5zM1300 908v5h3q5 0 5 -5h-8zM1322 908v5h2v-5h-2zM969 908h3q0 2 3 8h-6v-8zM1089 908h3q5 0 5 5h-2q-6 0 -6 -5zM1199 910v3h5v-3h-5zM788 913q5 1 5 5q0 6 -5 6q-6 0 -6 -6q1 -5 6 -5z
M692 916h8q5 0 5 5v5q0 4 -11 11h-2q-4 0 -8 -8v-5q0 -4 8 -8zM996 916h3v5h-3v-5zM977 918h6v3h-6v-3zM943 921q18 3 18 8t-24 8l-2 -5v-3q0 -4 8 -8zM985 921h6v5h-6v-5zM1031 924v2h5v-2h-5zM1332 924v2h6v-2h-6zM1412 924v2h6v-2h-6zM1271 926v6h2v-6h-2zM1028 929v3h5
v-3h-5zM1036 929v3h8v-3h-8zM1057 934v6h3q5 -3 8 -3v-3q0 -5 -5 -5q-6 1 -6 5zM1604 926h8v8h-2q-6 0 -6 -5v-3zM1017 932v5h3v-5h-3zM1268 934v6q5 0 5 -6h-5zM1180 937v5h3v-5h-3zM1378 940v2h8v-2h-8zM1065 945v3h14v-3h-14zM844 945q16 2 16 8v5q0 4 -11 8
q-13 -4 -13 -16zM1103 948v2h5v-2h-5zM1359 948v2h5v-2h-5zM1666 945q10 3 10 13q-12 -8 -16 -8q1 -5 6 -5zM630 948h8q4 0 8 8v8q-2 8 -16 8h-2q-8 -3 -8 -16zM1303 950v3h5v-3h-5zM377 961q5 1 5 5v6q0 5 -5 5h-3q-5 0 -5 -5v-3q0 -4 8 -8zM1271 964v2h5v-2h-5zM532 964h8
q8 2 8 16q-5 12 -19 21q-4 0 -8 -8v-5q0 -21 11 -24zM1228 974v6h3v-6h-3zM1330 974q0 4 8 8h2v-2q0 -6 -5 -6h-5zM945 974h3q5 1 5 6t-5 5h-3q-5 0 -5 -5q1 -6 5 -6zM1271 977v5h2v-5h-2zM243 977h3q5 1 5 5v3q0 5 -5 5h-3q-5 0 -5 -5v-3q1 -5 5 -5zM636 977h2q6 1 6 5
q0 6 -6 6q-3 0 -8 -8zM436 980h2q6 0 6 5v5q0 6 -6 6q-4 0 -8 -8v-3q1 -5 6 -5zM1044 980q5 0 5 5t-5 5t-5 -5q1 -5 5 -5zM1479 982v3h5v-3h-5zM1330 993l5 3v-8q-5 0 -5 5zM884 988h3q5 0 5 5t-5 5h-3q-5 0 -5 -5t5 -5zM1495 990v6h3v-6h-3zM860 993q5 1 5 5q0 6 -5 6
t-5 -6q0 -5 5 -5zM1511 1004q4 0 11 5v-5q-3 -6 -3 -8q-4 0 -8 8zM1225 998v6h3v-6h-3zM217 998h8v8h-3q-5 0 -5 -5v-3zM823 998q3 0 8 8v3q0 5 -6 5h-5q-5 0 -5 -5v-3q0 -4 8 -8zM1239 1001v3h8v-3h-8zM275 1001h6q0 5 -6 5v-5zM1447 1006v3h5v-3h-5zM1263 1006h2q6 1 6 6
v2h-8v-8zM372 1014v6h-6q1 -6 6 -6zM262 1017h5v5q0 6 -5 6t-5 -6q1 -5 5 -5zM935 1017h8q5 1 5 5v6q0 3 -8 8h-5q-4 0 -8 -8v-3q0 -4 8 -8zM1287 1017h21q8 3 8 16t-16 13h-5q-5 0 -5 -5l5 -3h13v-2q-5 -7 -5 -11h-11q0 5 -8 5v3h6v5q-6 -2 -9 -2v-14q1 -5 6 -5zM1338 1020
v2h5v-2h-5zM1466 1020v2h5v-2h-5zM1484 1017v5h-5q1 -5 5 -5zM686 1020q11 0 19 13v8q-6 16 -27 16q-16 -7 -16 -19q8 -18 24 -18zM1396 1022v6h3v-6h-3zM1658 1022v3l5 -3q29 19 37 35l-5 3h-21q-29 0 -43 -24v-6q0 -5 27 -8zM137 1025h2v5h-8q1 -5 6 -5zM1805 1025
q9 0 34 19q8 0 8 8l-5 2l-19 -5l-5 3q-30 -9 -30 -16v-3q3 -8 17 -8zM911 1033h2v5h-2v-5zM1402 1036v5h2v-5h-2zM1575 1046q10 0 21 16v11l-13 3h-3q-2 0 -2 -3q-17 5 -22 5q-29 -7 -29 -18l5 -3h19q8 0 24 -11zM1247 1054q5 1 5 6h-5v-6zM1634 1054q12 5 13 11v3h-5
q-14 0 -16 -8q0 -6 8 -6zM481 1060v5h-5q0 -5 5 -5zM1420 1062v3h6v-3h-6zM1775 1062h11q21 12 24 19v3q-40 -5 -40 -16q1 -6 5 -6zM332 1065q8 3 8 5q-3 5 -3 8h-3q-5 0 -5 -5v-3zM745 1065h13q6 1 6 5v3q0 4 -8 8h-11q-5 0 -5 -5v-6q1 -5 5 -5zM729 1076h5v2h-5v-2z
M801 1076h14q3 0 8 8v13q10 1 10 8q9 -5 16 -5h8q6 1 6 5v8q-3 8 -16 8q-2 0 -16 -3q-8 14 -22 14q-10 0 -21 -16q6 -40 13 -40zM1127 1076q16 6 18 16q-4 18 -24 18q-10 0 -16 -10v-14q0 -6 22 -10zM1679 1078q16 4 16 16l-8 6h-5q-4 0 -11 -11v-3q0 -4 8 -8zM308 1081
q5 1 5 5h-5v-5zM556 1081h2q6 1 6 5v3q0 5 -6 5h-2q-6 0 -6 -5v-3q1 -5 6 -5zM694 1081q13 5 14 11q0 5 -6 5q0 -5 -10 -5v-6zM1156 1086h3q16 2 16 8v6q0 4 -8 8h-3q-14 0 -16 -8v-6q0 -4 8 -8zM348 1097q5 1 5 5v3q0 5 -5 5q-6 0 -6 -5v-3q1 -5 6 -5zM708 1102h8v8h-8v-8z
M1524 1102q16 0 35 35h-5q-26 -13 -30 -27v-8zM1471 1108v5h3v-5h-3zM377 1110h3q5 1 5 6v5q0 5 -5 5h-6q-5 0 -5 -5v-3q0 -3 8 -8zM1506 1113q0 5 -8 5q8 7 8 11h2q0 -9 3 -13zM1476 1124v2q5 -2 8 -2v-8q-4 0 -8 8zM297 1118l3 6h-8q0 -6 5 -6zM1468 1124v2h6v-2h-6z
M1225 1124h6q29 0 29 24q-14 13 -24 13h-11q-14 0 -21 -13v-11q7 -13 21 -13zM465 1126l3 6l-6 2l-2 -5zM1516 1132v2q3 0 8 3v-3l-5 -2h-3zM1076 1132h3q23 0 42 26q-2 8 -16 8l-5 -2q-14 5 -29 5q-22 -8 -22 -21q0 -14 27 -16zM1514 1137q0 6 -3 11l8 5q0 -5 3 -5
q-3 -5 -3 -11h-5zM937 1140q28 0 38 18v3q0 7 -22 11h-2q-22 0 -32 -19zM1265 1148h3v5h-3v-5zM1506 1150v6h2v-6h-2zM1578 1153q9 1 21 24q0 5 -5 5h-6q-4 0 -18 -24q0 -5 8 -5zM614 1156q6 1 6 5v5q0 6 -6 6h-8v-8q0 -4 8 -8zM1511 1164v5h3v-5h-3zM1516 1166v3h6v-3h-6z
M1535 1164q4 0 11 10q8 0 8 -8h5q0 5 27 30l-3 5h5l-8 11l14 16v2q-8 7 -8 11q-32 -7 -32 -32l-32 -27h-3v-5h3q5 3 8 3q0 -8 8 -8l-3 -6v-2zM1447 1172q21 0 21 24q-9 8 -18 8h-3q-4 0 -11 -11v-13q0 -4 11 -8zM1538 1174v6h5q0 -6 -5 -6zM1762 1172q13 3 13 18l-5 3h-6
q-3 0 -13 -13q0 -7 11 -8zM1220 1174h16q21 13 21 16q0 7 -21 11h-21q-4 0 -14 -13v-3q5 -11 19 -11zM1570 1185l-3 5h8q0 -5 -5 -5zM980 1188l3 5l-6 3l-2 -6zM1610 1188h5q4 0 8 8v2q0 6 -5 6h-8q-6 0 -6 -6v-5q1 -5 6 -5zM1359 1190q16 0 37 19v5q-13 9 -13 16
q-18 16 -21 16q-56 0 -72 -26q-14 0 -14 -8v-6h3q5 3 8 3q4 -13 19 -13q21 5 26 5q0 -7 27 -11zM1618 1217h8v3h-8v-3zM1041 1220h11q15 0 27 18l-6 8v6q21 10 43 13v3q-6 0 -8 10q-29 11 -48 11q-35 -5 -35 -29q-5 0 -5 -6q1 -5 5 -5q6 0 6 8h5v-5q0 -2 -11 -14v-10
q3 -8 16 -8zM1634 1222l2 6v2h-8q-5 0 -5 -5q6 0 11 -3zM1161 1225h16q11 0 40 19q9 -6 14 -6l13 22q-5 1 -5 5q2 0 2 3l-5 2l-8 -5h-13q-64 -10 -64 -24v-5q0 -4 10 -11zM1578 1228v5q5 -3 8 -3v-2h-8zM1599 1236h5v2h-5v-2zM1607 1236h5v5h-5v-5zM1404 1249q32 10 38 19
l-6 2h-2q-38 -7 -38 -16zM721 1257q26 7 32 24q15 0 19 13v3l-6 -3v6h6v5h-6q-2 0 -10 -11q-18 6 -24 6h-3q-26 0 -35 -22q0 -16 27 -21zM1618 1257h5q5 1 5 5h-5q-5 0 -5 -5zM1628 1262h6q0 6 -6 6v-6zM1116 1268q44 0 112 37q13 12 13 13q0 3 -2 3q5 9 5 16q-16 4 -16 8
q4 0 11 11l-6 3h-8q-21 -12 -24 -25q-77 -36 -85 -56l3 -5zM1612 1268h8l6 2q0 -2 2 -2q0 8 11 8h3v5q0 4 -8 8q-6 0 -19 -16h-3v-5zM1255 1270h8l-3 6q3 5 3 8h-6q-3 0 -8 -8q1 -6 6 -6zM1639 1270h5v6q-5 0 -5 -6zM1450 1273h5v3h-5v-3zM1460 1273q6 1 6 5v3h-6v-8z
M1129 1278v6h3v-6h-3zM1268 1276h5q0 5 -5 5v-5zM1132 1286q1 6 5 6v-6h-5zM1298 1286q16 2 16 8q0 4 -8 8q-14 0 -16 -8q0 -3 8 -8zM1511 1294h8v6h-8v-6zM273 1302l2 6v2h-2q-6 0 -6 -5zM1036 1302q40 16 40 35q-10 5 -24 5q-27 0 -37 -21v-8q0 -8 21 -11zM1484 1302h16
q13 7 14 11v3q0 5 -16 10q-14 0 -22 -13v-3q0 -3 8 -8zM1532 1302h11q4 0 8 8q-2 0 -16 3l-3 -5v-6zM1439 1305q4 0 27 19q10 0 18 13q-13 19 -29 19q-14 0 -27 -46zM1527 1321h11q40 13 40 24q0 8 -35 8h-8q-4 0 -16 -16v-8q0 -4 8 -8zM1650 1321h5q45 7 45 27q0 3 3 8
l-5 3q-9 -8 -48 -17l-6 -18zM836 1334h3q12 0 29 19v6h-8q-6 0 -11 2q-12 -4 -18 -16v-5q0 -6 5 -6zM1423 1337l3 5v9h-3q-5 0 -5 -6v-3q0 -5 5 -5zM1137 1348h16q15 0 27 19v2q-3 8 -16 8h-11q-21 -11 -21 -16v-8q1 -5 5 -5zM1636 1353h3q5 0 13 24q2 0 8 14v2q0 6 -5 6
q-12 -11 -24 -38v-2q1 -6 5 -6zM1530 1359h5q27 21 27 24t-8 8h-3q-14 0 -24 -22h-3v-5q1 -5 6 -5zM871 1364h8q4 0 10 11q0 5 -5 5h-11q-4 0 -8 -8v-3q1 -5 6 -5zM1244 1364h8q5 1 5 5t-8 8h-2q-4 0 -8 -10zM1367 1367q12 0 56 24v2q0 8 -29 8h-6q-50 -11 -50 -26v-3
q7 0 29 -5zM1463 1367h5q4 0 8 8q-2 8 -16 8l-2 -6v-5q0 -5 5 -5zM292 1377q5 1 5 6l-5 2q-6 0 -6 -5zM892 1380h5q4 0 11 11v2q0 6 -5 6h-8q-4 0 -8 -8v-6q0 -5 5 -5zM1716 1380h3l3 13h-3q-5 0 -5 -5q2 -5 2 -8zM1727 1385h5v6q-5 0 -5 -6zM1271 1391h2q15 0 19 10v3
q0 5 -5 5h-3q-19 0 -19 -16zM1738 1393h2q6 1 6 6l-6 2h-2v-8zM1095 1401q17 0 26 16v8q0 4 -8 8h-10q-16 -9 -16 -24q4 0 8 -8zM1044 1404q11 4 11 8q-4 13 -19 13l-3 -5v-8q0 -4 11 -8zM1484 1404h8q8 3 8 16q-3 0 -13 19q-2 0 -21 -6l-8 6h-3l-16 -24l8 -6q15 3 21 3
t16 -8zM1063 1407h5q4 0 8 8q0 3 -8 8h-5q-6 0 -6 -6v-5q1 -5 6 -5zM924 1412h8q4 0 8 8v8h-13q-4 0 -8 -8v-3q0 -5 5 -5zM1927 1420h8q15 0 22 16q0 5 -6 5h-2q-21 0 -27 -13v-3q1 -5 5 -5zM1690 1425q4 0 8 8q0 6 -6 6h-5q-5 0 -5 -6q0 -4 8 -8zM945 1439h8q14 8 14 21
l-6 3h-5q-5 0 -16 -19q1 -5 5 -5zM1314 1441q10 4 10 8v3q0 5 -5 5q-12 -5 -13 -10q0 -6 8 -6zM1628 1444q32 8 32 32q-9 8 -24 11q-29 -13 -29 -27q6 -16 21 -16zM1426 1449q5 1 5 6l-5 2h-3q3 -5 3 -8zM1692 1452h6q5 1 5 5v3q0 5 -5 5h-6q-5 0 -5 -5v-3q1 -5 5 -5z
M401 1457h5v3h-5v-3zM1105 1460h3q4 0 8 8v3q0 3 -8 8q-4 0 -8 -8v-6q1 -5 5 -5zM1423 1463q5 0 5 5v3q0 5 -5 5t-5 -5v-3q0 -5 5 -5zM1780 1468q17 6 17 11v2h-3l-11 -5v5q-5 0 -5 -5v-3zM1572 1473h8q-2 5 -2 8q-6 0 -6 -5v-3zM1580 1476h6q-3 5 -3 8h-5q2 -5 2 -8z
M1949 1479h8q3 0 13 13q0 5 -5 5h-14q-4 0 -8 -8v-5q1 -5 6 -5zM1055 1492h10q6 1 6 5v11q0 4 -8 8q-16 -5 -16 -11v-5q0 -4 8 -8zM740 1495q5 0 5 5t-5 5q0 -2 -3 -2q3 -6 3 -8zM1415 1495l5 8v10q0 6 -5 6h-3q-4 0 -10 -11v-11zM991 1497h5q4 0 11 11v5q0 4 -11 8
q-13 -3 -13 -8v-8q0 -4 8 -8zM1479 1497h8q4 0 11 11q0 19 -19 19q-4 0 -8 -8v-14q0 -4 8 -8zM1623 1503h5q0 5 -5 5v-5zM1543 1508h3q4 0 8 8v8q0 5 -6 5h-5q-4 0 -8 -8v-5q0 -4 8 -8zM1647 1511h5q4 0 8 8v2h-10q-4 0 -8 -8zM1351 1529h3q5 1 5 6v5q0 5 -5 5
q-11 -4 -11 -8t8 -8zM1185 1537q11 4 11 8v6q0 5 -5 5h-8q-4 0 -8 -8v-3q0 -6 10 -8zM1764 1545q6 1 6 6h-6v-6zM1308 1559q30 0 70 45v8q0 5 -30 8q-21 -32 -29 -32q-24 -8 -24 -24q9 -5 13 -5zM1431 1559h3q3 0 8 8v8q0 3 -8 8h-3q-11 -6 -11 -16zM1642 1561h2q6 1 6 6v2
h-3q-5 0 -5 -5v-3zM1740 1583h6v5q-6 0 -6 -5zM1837 1588h13q4 0 8 8v3q0 5 -5 5h-8q-4 0 -8 -8v-8zM1631 1612h3q5 1 5 5v6q0 5 -5 5h-3q-5 0 -5 -5v-6q1 -5 5 -5zM1813 1641h2q0 3 3 8q-3 0 -3 3q-5 -3 -8 -3v-2q1 -6 6 -6zM1204 1724q13 3 13 21q-12 11 -24 11
q-8 -13 -8 -21zM1479 1743l8 10v3q0 4 -8 8h-5q-4 0 -8 -8v-5q0 -6 13 -8zM1396 1823h11q4 0 8 10q-4 11 -8 11h-8q-4 0 -8 -8v-8q1 -5 5 -5zM1060 1847h3q4 0 8 8q0 5 -6 5h-2q-4 0 -8 -8q1 -5 5 -5zM1287 1852h5q22 0 24 27q0 19 -29 24q-10 -11 -16 -35q2 -9 16 -16z
M1788 1868h6q5 1 5 6v10q0 6 -5 6q-4 0 -11 -11v-5q1 -6 5 -6zM1410 1890h5q4 0 8 8v8q0 5 -8 5q-12 -5 -13 -11q4 -10 8 -10zM1394 2004q5 1 5 6v8q0 5 -5 5q-4 0 -8 -8v-3q0 -4 8 -8z" class="colorcurrentColor svgShape"></path></svg></g></svg>