<svg id="SvgjsSvg1062" width="288" height="288" xmlns="http://www.w3.org/2000/svg" version="1.1" xmlns:xlink="http://www.w3.org/1999/xlink" xmlns:svgjs="http://svgjs.com/svgjs"><defs id="SvgjsDefs1063"></defs><g id="SvgjsG1064"><svg xmlns="http://www.w3.org/2000/svg" viewBox="-10 0 2720 2048" width="288" height="288"><path fill="#ffffff" d="M625 -57h8q4 0 8 8v6l-2 5q5 1 5 6l-8 5q-4 0 -9 -8v-3h6v-2h-6q0 2 -2 2v-19zM511 -35l8 11v9q0 5 -5 5q-4 0 -8 -8v-3h5v-3h-5v-5q0 -6 5 -6zM192 -2h6v3h-6v-3zM195 7h6v5q-6 0 -6 -5zM356 112q5 1 5 6v2h-5v6h5v-6q6 1 6 6t-6 5h-2q-4 0 -9 -8v-5q1 -6 6 -6zM1570 115h5v5h-5v-5zM453 118q38 0 55 38q0 10 3 14q0 37 -36 42q-44 -19 -44 -61q5 -33 22 -33zM614 167h2v9h-2v-9zM650 167h5q14 8 14 23v5q0 4 -8 8h-9q-11 -4 -11 -19q2 -17 9 -17zM619 190q4 0 8 8q0 5 -5 5zM619 203q14 6 14 20q-3 5 -3 8l6 3l5 -3q21 6 34 31
q5 1 5 5v6q-9 9 -25 41q5 0 17 20v11q0 15 -14 22h-14q-4 0 -17 -17v-16l3 -14q-28 0 -39 -47q3 -16 28 -36q3 -12 3 -25h-3v-9zM1825 209v3q0 4 -11 11h-3q0 -4 14 -14zM417 212q30 0 39 44q-8 20 -25 20h-6q-25 -19 -25 -36q3 -28 17 -28zM533 212q28 18 28 39q20 0 25 33
v11q0 4 -11 11q-24 0 -36 -44q-12 0 -17 -14v-3q0 -6 11 -33zM2099 212h6q5 0 5 8q-4 11 -8 11h-6q-5 0 -5 -8q4 -11 8 -11zM409 220v3h5v-3h-5zM1797 234v3q0 4 -8 8h-3q0 -4 11 -11zM414 240l-3 5h9q0 -5 -6 -5zM494 248h6v5q-6 0 -6 -5zM2293 248h8v3q0 5 -5 5h-9v-3
q1 -5 6 -5zM445 259v5h2v-5h-2zM494 259h6v3h-6v-3zM431 264v3h8v-3h-8zM392 287h11q19 14 19 27q-5 13 -11 14h-2q-25 0 -25 -22v-11q0 -4 8 -8zM949 300l3 6v6q0 5 -6 5h-3q0 -9 -2 -14q3 0 8 -3zM727 314q11 4 11 9v2l-14 3l-5 -8q0 -6 8 -6zM1209 314q12 20 12 31
q-7 16 -12 16h-8q-6 0 -8 -13q9 -33 16 -34zM1204 331v3h5v-3h-5zM774 339q23 0 34 28q-4 33 -31 33q-2 0 -16 -11q-5 11 -20 11h-5q-10 0 -17 -30q6 -18 14 -20q16 2 16 6q4 0 14 -14q5 -3 11 -3zM1204 350v3h5v-3h-5zM522 359h6q22 2 22 19q-5 13 -11 14q-22 0 -22 -25
q2 0 2 -3l6 3h3v-3h-6v-5zM1118 361q22 8 22 39v11q0 6 -5 6q-3 -6 -3 -8h-3q-4 3 -14 24h-11q-16 -9 -16 -24q0 -13 30 -48zM334 364h8q14 7 14 22l-8 6h-9q-4 0 -11 -11v-11q1 -6 6 -6zM528 375h5v-5q-5 1 -5 5zM871 367h6v6q0 5 -6 5l-5 -8zM580 378q6 1 6 6h-6v-6z
M844 381h2q34 53 34 66q0 7 -14 25v6h-9l3 -14q-9 6 -16 6h-6q-12 0 -22 -42v-11q0 -16 22 -28q0 -8 6 -8zM1678 389h5v3h-5v-3zM281 392h3q19 0 19 19q-9 9 -14 9q-13 0 -13 -25zM788 406h6q4 0 8 8v6q0 4 -8 8h-3q-8 -3 -8 -17q1 -5 5 -5zM1215 406h8q8 0 11 19
q0 22 -30 31h-3q4 -50 14 -50zM1099 420v5h2v-5h-2zM1162 417l6 3q-4 11 -8 11l-3 -6v-3q1 -5 5 -5zM999 431q11 5 11 16l-6 -2v8h3l6 -3v6h-6v2h6q0 -2 2 -2v16h-5q-11 -23 -11 -27v-14zM913 433h5q0 6 -5 6v-6zM855 483l14 3v6h-9q-5 0 -5 -6v-3zM1051 483q34 0 34 67
q0 4 -6 25q31 16 31 36q-12 14 -28 25q-3 -5 -3 -14h-3q-11 11 -11 28q7 0 11 2q6 -2 9 -2q3 4 3 11h2q0 -31 28 -39l6 -3q2 5 2 11q12 0 28 -5q5 2 11 2l3 -5v-3q-8 -13 -8 -22q5 0 5 -6v-5h-5l2 5v3h-5v-5q8 -36 19 -50h6q0 3 2 8q11 0 28 -36l-5 -11h2l9 6v-9q-9 0 -9 -5
h3q17 5 17 11v14q0 2 -3 2q0 6 17 25q0 6 2 6l-2 14q0 15 5 44q-7 6 -14 6v11q12 0 34 5v-3l-3 -5h3q2 0 2 3l6 -3h3q0 5 -6 5q3 6 3 9q-6 9 -6 14q6 9 6 16q-21 11 -33 11q-9 -5 -14 -5q0 3 -25 25l5 8v33l3 6q23 -6 39 -22h3q0 6 -3 11q6 9 6 16v3q-12 12 -12 14v3
q12 11 12 22v3q0 3 -3 3q0 6 22 19h3q5 0 5 -8l-3 -6q5 -12 17 -19h14l11 11q0 -6 8 -6q6 3 9 3l-3 17h-3l-14 -3v11q3 0 9 3q4 -3 11 -3h2q0 24 39 41q1 -5 6 -5q4 0 8 11q21 0 44 -17q7 0 14 -5l-2 -6q0 -5 5 -5l3 5l5 -2h3q17 10 17 19q13 -2 66 -28h3v6h3q0 -14 16 -14
h9q0 4 -14 14q-5 -3 -8 -3l2 6v5q-22 0 -22 8v3l20 6l27 -9l9 6h2q15 -14 23 -14l2 6q-7 0 -8 11q25 8 33 22q10 0 14 3l31 -14l2 5h-2l2 6q0 3 -2 3l2 5l-2 14q4 0 8 8l14 -2h14q6 0 11 2q10 0 47 -13h11q5 0 5 5q-2 9 -16 17q-9 -6 -17 -6t-22 25q-4 0 -8 8v6q0 7 33 19
q-3 6 -3 9q6 1 6 5v3h-11q0 -7 -23 -11l-27 8h-11l-6 -3q0 3 -3 3l-2 -5l-6 2h-5v-2q0 -6 5 -6l6 3q0 -4 8 -8l14 2v-5q-29 -9 -45 -9v3q3 6 3 9l-5 2q-20 -14 -34 -14h-2l2 14q-11 4 -11 9v16l11 3v3q0 5 -5 5q-72 -9 -83 -19l-6 3h-25q-41 -17 -80 -17q-30 8 -36 8
q-5 -2 -8 -2q-6 2 -9 2q-11 -5 -16 -5q-9 9 -9 14h-14q-9 0 -30 8v3q0 4 17 11q27 0 27 -22q16 14 28 14v8q-4 0 -11 8h-8l-9 -5h-5q-51 0 -78 33q-16 0 -44 66q-4 0 -17 9l-16 -3h-3q-20 14 -33 14q-12 0 -20 -20v-13q-15 0 -19 -12l-6 3q-6 0 -22 -8q-30 5 -30 11l2 17
q-4 0 -8 8q0 8 8 8v6l-14 -3q0 8 -5 8h-3q-7 -5 -11 -5q-10 3 -11 3q-9 -6 -17 -6v11l6 8v3q-15 12 -17 28q3 0 3 3q-17 22 -25 22q-4 -20 -11 -20l3 14v6q-33 39 -67 39q0 14 -11 14v11q0 14 -8 16h-14q-11 -4 -11 -19q0 -7 30 -47q0 -50 42 -50l28 14q-17 -22 -17 -25h-17
q-5 0 -5 -6v-8q17 -9 25 -22q0 -10 44 -20q-3 -16 -8 -16q0 4 -14 11h-17l-11 -11h-2q-7 5 -12 5q3 6 3 9q-2 22 -8 22h-6q-7 0 -8 -14l-8 5h-14q-9 0 -17 -30q-22 0 -22 -8v-9q0 -10 22 -11v-8q-6 0 -11 3l-5 -3q-5 3 -11 3q-3 0 -3 -3q-6 0 -20 25l-13 3l-6 -3l-6 3
l-16 -14h-6q-2 4 -2 16h-6q-6 0 -6 -5q-4 0 -13 16l-9 6h-19q-14 -7 -14 -22l11 -17q-3 -13 -11 -22l3 -5q-6 -21 -6 -25h3q-3 -5 -6 -28q5 -11 9 -11h5q0 8 6 8h8q6 0 6 -5q21 2 27 8h12q14 -11 16 -11q14 5 22 5q0 -4 9 -8h8q4 0 11 11v8l-3 6q2 3 25 3q0 -3 3 -3l-6 -11
l3 -6q-3 -5 -3 -11l-19 3q-4 0 -11 -11v-8q0 -9 19 -11l-5 -9v-5q0 -4 8 -9h3q3 0 11 14q5 -3 8 -3q0 -2 -11 -16v-8q20 -15 25 -31h6l5 3l3 -11q-31 -21 -31 -42v-5q0 -15 23 -31q0 -10 8 -22q15 3 22 3l6 -3l5 3l17 -3l25 14q14 8 14 16q0 5 -14 31h3q9 24 16 25h6
q0 -5 11 -25h5q0 7 6 14q9 -6 17 -6l5 3q0 -4 11 -11h6v11h16q0 -7 17 -17q-7 0 -28 -16h-19v19l-17 6q-6 -7 -8 -36l5 -3h3l9 5h2l3 -13q-11 -21 -11 -25q6 -9 6 -17q-14 -10 -14 -30q0 -27 36 -53q1 -10 11 -17l5 3q0 -3 3 -3l-3 -5v-6l3 -5q-9 0 -19 -34q-11 0 -17 -55
v-3q0 -39 19 -39zM1991 486h3q5 1 5 6l-11 8q-5 0 -5 -6q0 -4 8 -8zM924 489l6 8q0 6 -6 6t-6 -6v-3q1 -5 6 -5zM1018 489h3q6 1 11 14q-5 12 -11 14h-3v-9l-5 3h-3v-11q1 -6 5 -6v6h6l-3 -6v-5zM1196 489h8v3q-6 0 -6 5h-2v-8zM963 494q12 6 14 12v13q0 8 -23 11l-8 -11
v-16q3 -9 17 -9zM835 503h3q0 4 6 11l-6 3l-3 -6v-8zM619 506h3v5h-3v-5zM1279 506h5v2h-5v-2zM827 525h6l2 11q-5 8 -5 22h-6v-3l3 -5q-6 0 -6 -6v-14q1 -5 6 -5zM835 525q6 1 6 5v3q-6 0 -6 -5v-3zM464 544q4 0 11 11v6q0 6 -5 6h-6q-4 0 -8 -9v-5q0 -4 8 -9zM996 550h3
l-3 5h8v3q0 6 -5 6q-4 0 -8 -9q0 -5 5 -5zM1115 553h3q6 1 6 5q-6 1 -6 6v3l3 5q-3 0 -3 3q3 0 3 3l5 -3h3v3q-3 8 -17 8l3 -6l-3 -11q3 -5 3 -8q-5 0 -5 -6zM1265 553l3 5v3q0 4 -11 11h-3v-3q6 -16 11 -16zM1126 558q6 1 6 6h-6v-6zM1046 564v5h3v-5h-3zM1171 567v5h2v-5
h-2zM1376 564l8 11v25l-3 14l14 -3v14h14q11 12 30 19v6q-2 5 -2 8l11 -8h14q9 8 13 8l14 -3v6h3l6 -3q0 3 2 8h-2l2 6v5h-5v3l8 17q-5 3 -8 3l5 11q-8 13 -16 13v9h16l6 -3v6q5 0 5 -6q-8 0 -8 -14l6 -8q-6 -7 -6 -8v-3h3l8 5v-2l-3 -6l6 -3q9 11 17 11l14 -8q0 4 11 14
q-4 0 -14 19q-11 0 -11 6v3l5 -3q0 3 3 3q0 -5 30 -12l3 -5q-5 0 -5 -6v-2q0 -6 16 -9q9 1 20 14q5 -3 8 -3q1 6 6 6t5 -11h8v8h3q6 0 6 -11h8q80 -21 94 -47l45 -11h2q6 1 6 5q-9 6 -17 6q0 -3 -2 -3q-14 10 -14 14q2 0 2 3q21 -8 48 -14q12 4 13 11q-5 3 -8 3v5h14l5 -2
l3 5l-5 8q30 7 30 14q-5 1 -5 6l11 3q77 -9 113 -9l-8 11h6q5 0 5 -5q-3 0 -3 -3h3q7 0 36 8q52 -8 64 -8h44q6 0 11 -3q14 4 14 9q0 4 -8 8l-20 -3l-19 3l-5 -3q-25 3 -25 20h-6q-3 0 -3 -3l-27 5q-15 -5 -23 -5t-52 16h-3v-5h-31v5l-5 -2h-11q0 5 11 5q0 7 -64 20v8
q17 0 17 11q-6 3 -8 3q-14 0 -64 -3l3 6v2q-34 -1 -34 -8q-15 3 -22 3q-8 -3 -8 -6q-9 6 -17 6h-3q-9 0 -27 -14q-18 0 -45 19h-2l2 6q0 4 -11 11q0 -3 -2 -3l5 -11l-14 -3q-5 3 -8 3v-3l-14 6l-3 -6q6 0 6 -5v-6q-3 0 -9 -3q0 5 -11 12h-16q-6 0 -6 -6v-3h6v-5l-6 2h-5v-5
l11 -11l-3 -6q-3 0 -3 3q-30 -6 -39 -6q-11 0 -25 14q-19 -2 -19 -5l-22 8q-5 -3 -11 -3h-3l3 14l-14 9l-6 -14l-5 2q-5 -5 -17 -5q0 7 -41 50h-9v-3l11 -17v-2l-8 5h-3q-4 0 -11 -11v-11q0 -22 31 -22v-17q0 -4 16 -14q26 6 28 6v-6q-19 -6 -19 -22h-3q0 17 -28 22
q-5 7 -5 11q-9 0 -22 -5q2 -8 5 -8q5 2 8 2q0 -5 14 -5q-5 -7 -5 -9q2 -4 2 -11q-4 0 -13 -11l-25 -2q-6 2 -9 2q-20 -5 -27 -11h-3l-14 3l6 8q-2 6 -14 11q-11 -4 -11 -8v-5q0 -3 13 -14l6 2h6q0 -5 -12 -5q20 -35 34 -50q5 0 11 -8l-3 -6l14 -39q19 -16 39 -16zM824 567h9
q0 5 -6 5zM1126 569h6v3h-6v-3zM1179 578v5h3v-5h-3zM1323 578q6 0 6 5v3h-6v-8zM1667 578l2 5l-5 3l-3 -6zM1448 580h3v3q0 8 -31 17q12 -20 28 -20zM913 586h5q4 0 17 17q-4 27 -14 27h-3v-5h-2v5q-22 0 -22 -22v-3q9 -16 13 -16q6 2 9 2zM1778 586h5v5h-5v-5zM1171 591v6
h2v-6h-2zM1608 591h9v3q-20 33 -25 33v-2q0 -7 16 -34zM1129 594q6 1 6 6t-6 5q-5 0 -5 -5q0 -6 5 -6zM738 597h6v3h-6v-3zM813 597h3q17 10 17 25q0 11 -14 19h-6q-16 0 -25 -19q0 -25 25 -25zM1165 600v5h3v-5h-3zM702 600q4 0 9 8q0 6 -6 6h-3q-5 0 -5 -6v-3q1 -5 5 -5z
M952 600h2q6 1 6 5v6q0 5 -6 5q-3 0 -8 -8v-3q1 -5 6 -5zM1010 600h11q6 1 11 14q-5 19 -11 19q-15 0 -22 -17v-2q7 -14 11 -14zM797 605v3h5v-3h-5zM982 603q6 0 6 5v6q0 5 -6 5q-5 0 -5 -5l5 -3q0 3 3 3v-3q-3 -6 -3 -8zM1315 605q5 1 5 6v3q0 5 -5 5h-3l-3 -11zM1043 616
h8v6h-8v-6zM1445 619l3 6q-14 8 -20 8v-6q0 -5 17 -8zM761 622v3l5 -3h8q4 0 9 8v3q-8 8 -11 28q-13 8 -20 8q-22 -11 -22 -25q0 -22 31 -22zM819 627v6h5q0 -6 -5 -6zM808 630v6h2v-6h-2zM943 630h6q4 0 11 11v6q0 4 -8 8h-6q-4 0 -11 -11v-3q8 -7 8 -11zM1714 633h3v3
q0 4 -12 11h-2v-8q4 0 11 -6zM677 636q18 0 25 14q0 15 -11 19h-8q-4 0 -11 -11v-6q0 -7 5 -16zM763 639v2h6v-2h-6zM738 644v8q6 0 6 -5zM761 644v6h2v-6h-2zM830 647q9 5 16 5v3q0 6 -5 6h-11q-4 0 -9 -9q0 -5 9 -5zM1387 650v5h3v-5h-3zM1692 647h8v5h-8v-5zM755 652
q1 6 6 6v-6h-6zM1448 677l8 14q-3 0 -3 3l-5 -3h-9q-5 1 -5 6q5 1 5 5v17l-2 5l-6 -2h-3v2l3 6l6 -3h2l28 3l-3 -19v-3q20 -7 20 -14q-20 -12 -20 -17q3 -4 3 -11q-14 4 -19 11zM1112 669v3h6v-3h-6zM1669 666v6h-5q1 -6 5 -6zM1866 666v3q0 6 -5 6h-11v-6q14 -3 16 -3z
M1783 672v3h6v-3h-6zM974 672l3 5v3q0 6 -6 6l-3 -6v-3q1 -5 6 -5zM916 686q19 3 19 11v14l-22 27h-6q-11 -4 -11 -19q8 -33 20 -33zM755 688h11q6 1 6 6v8q0 4 -9 9h-5q-4 0 -9 -9v-8q1 -6 6 -6zM1245 688q6 1 6 6h-6v-6zM137 691q22 9 22 20q-4 11 -8 11h-6
q-25 -4 -25 -25q12 -6 17 -6zM1700 697q1 5 5 5h3q0 -5 -5 -5h-3zM1883 694q5 1 5 6l-5 2v-8zM999 700v5h-6q1 -5 6 -5zM1276 708h5v-6q-5 1 -5 6zM1958 705v11h2v-11h-2zM494 705q20 9 20 22q-11 9 -25 9q-13 -6 -14 -12v-5q2 -8 19 -14zM1520 708v3q1 5 5 5v-3q0 -5 -5 -5
zM1545 708v5h3v-5h-3zM1789 708v3h8v-3h-8zM1966 708v3h6v-3h-6zM1761 711v2h5v-2h-5zM1905 711v2q1 6 6 6h2q0 -4 -8 -8zM1924 711v5q9 0 9 8h2v-8q0 -5 -5 -5h-6zM2105 711v2h5v-2h-5zM1664 719h5v-6q-5 1 -5 6zM1722 713v3h6v-3h-6zM1888 716q1 6 6 6q5 -3 8 -3l-3 -6
q-4 3 -11 3zM2060 713v6h6q0 -6 -6 -6zM910 716v3h8v-3h-8zM2077 716v6h5q0 -6 -5 -6zM1306 716l14 3v11q0 4 -8 8h-6q-4 0 -8 -8q4 -14 8 -14zM1645 719q0 5 5 5v-5h-5zM1872 719v5q5 0 5 -5h-5zM1944 722q3 5 3 8h5v-6h3l5 3v-5q-8 0 -8 -3q-5 3 -8 3zM190 719h13v8h3v-5
h6q11 4 11 19q0 4 -8 8h-6q-22 0 -25 -27zM902 722v2h5v-2h-5zM1661 722v5q6 0 6 -5h-6zM1902 722v2q0 4 9 9v-3q-3 -5 -3 -8h-6zM664 722q12 5 13 11v3q0 4 -8 8h-5q-4 0 -9 -8v-9q0 -5 9 -5zM1913 724v3h6v-3h-6zM1938 724v6h3v-6h-3zM1705 727v6h3v-6h-3zM203 730v3h9v-3
h-9zM1586 730v6h3v-6h-3zM838 730q11 3 11 11q-5 13 -11 14q-5 0 -5 -6h2l-2 -5v-8q0 -6 5 -6zM1071 736q17 27 17 36h11v-3q-14 -19 -14 -28l3 -5q-3 0 -9 -3q-5 3 -8 3zM1124 733v5h2v-5h-2zM1439 733v8l6 -3q0 3 3 3v-5q-3 0 -9 -3zM2116 730h8v11h-6q0 -6 -2 -11z
M1620 736v5h5v-5h-5zM2099 733h6v3h-6v-3zM2213 733h5v5l47 -5l17 3v5h-6l-14 -3v3l3 6q-9 5 -16 5h-14q-6 0 -6 -5q-12 5 -30 8q-3 -5 -3 -11h-3l-8 5h-3v-2q0 -10 31 -14zM2107 736h3v8h-3v-8zM2202 747v2h2q0 -5 9 -5v-6h-3q-4 0 -8 9zM2249 744h5v-6q-5 1 -5 6z
M1586 741v6h3v-6h-3zM1880 741v3h6v-3h-6zM1597 744v3h6v-3h-6zM1761 744v3h5v-3h-5zM1789 744v5h2v-5h-2zM1908 744v5h3v-5h-3zM966 744h11q5 1 5 5v3q0 6 -5 6l-6 -3h-3v3h6q0 5 -6 5h-2q-4 0 -9 -8q4 -11 9 -11zM1484 752l5 3h3q0 -3 3 -8h-6q-5 1 -5 5zM1550 749v9h3
q0 -3 3 -9h-6zM1575 749v3h6v-3h-6zM1877 749v6h3v-6h-3zM1564 752v6q6 0 6 -6h-6zM1586 752v3h6v-3h-6zM1913 752v3h6v-3h-6zM1944 749h3v6h-3v-6zM716 752h6q4 0 8 8v3q0 6 -14 6l3 -6v-3h-3v6q-5 0 -5 -6v-2q0 -6 5 -6zM1475 755q0 3 -8 14h8q0 -6 3 -11v-3h-3zM1578 755
v5h6v-5h-6zM1611 755q1 5 6 5v-5h-6zM1686 760v3q6 0 6 -5v-3q-6 1 -6 5zM389 755h8q4 0 9 8v11l-14 3l-8 -11v-6q0 -5 5 -5zM691 755q22 7 22 28v8q0 4 -13 14h-6q-22 0 -25 -28q2 -22 22 -22zM1498 758v5q5 0 5 -5h-5zM1592 758l-3 5h3q0 -3 3 -3l2 6h-11v8q7 0 11 -2
q6 2 9 2l2 -5v-11h-8l-5 2q0 -2 -3 -2zM1664 758v5h5v-5h-5zM1509 760v9h2q0 -3 3 -9h-5zM1703 760v3h5v-3h-5zM2296 758h2v8h-2q-6 0 -6 -6zM1459 763v6h3v-6h-3zM1484 763v3h5v-3h-5zM1769 763q1 6 6 6v-6h-6zM1431 766v8h3v-8h-3zM1268 766h2v6h-2v-6zM1334 766h6v6l8 -6
h3q0 2 3 17q-10 5 -17 5l-8 -11v-5q0 -6 5 -6zM1645 769v5h2v-5h-2zM2517 766h6v6h-6v-6zM470 772q19 0 24 30q-11 14 -19 14q-25 -11 -25 -19l-8 5h-8q-6 0 -6 -5q2 -17 8 -17l14 8q0 -16 20 -16zM1753 774v6q5 0 5 -6h-5zM1096 777v6q5 0 5 -6h-5zM794 777h8q8 0 8 11
q0 17 -13 17q5 13 5 28l-11 8l-6 -3q-6 39 -11 39h-13q-4 0 -9 -8v-17q0 -8 14 -8l-3 -14q9 0 28 -28q-6 0 -6 -5v-12q0 -4 9 -8zM1378 785h6v-5q-6 1 -6 5zM1390 780v3h5v-3h-5zM1586 780l-2 5h8q0 -5 -6 -5zM1656 788v3h8q0 -6 8 -6v-5q-9 8 -16 8zM1115 788h6v-5
q-6 1 -6 5zM1872 783v5h5q0 -5 -5 -5zM2454 783l2 5v3q0 6 -5 6h-3q-5 0 -5 -6v-3q4 0 11 -5zM619 785h8q5 0 12 12v11q0 4 -14 8q-14 -4 -14 -19v-3q0 -4 8 -9zM752 785h9q19 3 19 17l-8 17q-20 -9 -20 -22h3l-3 -6v-6zM1888 785h6q5 1 5 6v3h-11v-9zM2440 785h3q0 6 -6 6
h-3q1 -6 6 -6zM2459 785h3v6h-3v-6zM536 788q19 5 28 17v8q0 20 -20 20q-18 0 -25 -17v-17q0 -5 17 -11zM1104 794l3 5v9h-6l-5 -3l-11 11q4 11 8 11q0 -6 8 -6l6 3q8 -5 19 -5v-3l-16 -22h-6zM1387 794v3h5v-3h-5zM1620 794v3h5v-3h-5zM1057 805q6 1 6 5h-6v-5zM1584 808h5
v2q0 6 -5 6h-3q3 -5 3 -8zM1611 816h3v5h-3v-5zM2562 827h11v8h-11v-8zM2581 827h17v6q-15 2 -17 2v-8zM614 838q5 3 8 3v3q0 4 -8 8l-3 -6v-2zM1004 841v5q6 0 6 -5h-6zM1179 841v3h5v-3h-5zM927 846q0 9 -17 9v2q1 6 6 6q1 -6 5 -6q15 3 25 3h3v-5q0 -9 -22 -9zM1728 844
h2q6 0 6 5v6q0 9 -36 11q16 -11 28 -22zM938 891l-25 -20q-36 2 -36 20l3 14h5l9 -6q2 5 2 8q3 0 3 -2q9 0 22 8l11 -11h9q19 12 19 28l-6 8v8l17 11v3h3l28 -17q-6 0 -17 -27q-6 0 -11 -9q3 -25 8 -25h9q0 -5 5 -5q6 0 6 14h13l14 -11h6q4 0 8 8q-5 9 -5 14q5 1 5 5l-5 3
q7 22 13 22t23 -5q1 5 5 5q6 0 6 -5v-6q-11 0 -11 -11q0 -5 5 -16q-37 -28 -55 -28q-7 0 -14 -6q-7 0 -8 11q-6 0 -6 -5v-3q8 0 8 -6q-11 -4 -11 -8q-33 17 -33 33q-12 9 -22 9zM467 849q12 6 14 11q0 20 -20 20h-5q-5 0 -11 -11v-6q7 -14 22 -14zM1054 855v5h3v-5h-3z
M1115 855v2h6v-2h-6zM827 857h6q5 1 5 6v6q0 5 -5 5h-6q-6 0 -6 -5v-6q1 -6 6 -6zM954 860v6h3v-6h-3zM1398 869v2h8v-2h-8zM1675 882h3q5 0 5 -5h-2q-6 1 -6 5zM785 877h3q6 1 6 5l-9 6q-5 0 -5 -6q1 -5 5 -5zM808 877h5q6 1 6 5v3q-5 0 -11 6h-3q-6 0 -6 -6q0 -4 9 -8z
M1667 882v6l5 3h3v-3q-6 0 -6 -6h-2zM237 888h3q16 2 16 8v9q0 8 -22 11l-6 -9v-11q0 -4 9 -8zM625 891h11q4 0 8 8v14q0 4 -11 11q-17 -7 -17 -22v-3q0 -4 9 -8zM758 894h5v2q0 6 -5 6q-6 0 -6 -6zM1667 902q1 5 5 5q6 -2 9 -2v-9h-9q-5 1 -5 6zM503 907q11 5 11 9v5
q0 6 -6 6h-5q-7 0 -9 -14zM95 913q16 0 25 17v2q-8 53 -22 53h-3q-49 0 -49 -36q-6 0 -6 -6q2 0 25 -25l14 3q3 -8 16 -8zM87 930h6v-6q-6 1 -6 6zM201 921h2v6h-2v-6zM608 921h3q5 0 5 11q15 -2 17 -2q21 0 25 27q-6 17 -22 17q-7 0 -17 -8h-5q0 22 -11 22h-6
q-25 -5 -25 -25q6 -17 22 -17l14 8h3q0 -5 5 -19q-13 0 -13 -5v-3q0 -6 5 -6zM109 927q1 5 6 5v-5h-6zM259 930q4 0 11 11q-9 21 -19 27h-14q-4 0 -14 -14v-11q0 -9 36 -13zM1027 935v3l8 11v3l-8 11v5q0 4 11 9q0 -5 13 -34v-8h-24zM1010 946v3h5v-3h-5zM378 952h8
q25 16 25 38v3q-6 13 -19 20h-17q-30 0 -30 -39q8 -22 33 -22zM306 960h3q21 0 28 14v3q0 19 -17 19q-22 0 -25 -28l5 -2v5h3v-5q-3 0 -3 -3zM525 960h11q5 0 17 25q0 10 -17 22h-8q-9 0 -22 -8l2 -6q0 -5 -5 -22zM968 963q0 8 -11 8v3q9 12 9 25q-5 22 -23 22q0 5 -8 14v3
l3 19h5q0 -30 34 -30q3 0 8 2l17 -2l11 2q5 -2 8 -2q12 35 17 36h5q22 -18 22 -20v-11q-14 -30 -44 -42h-3q0 9 -30 9q-7 0 -14 -36h-6zM1606 963v11h5v-6q0 -5 -5 -5zM603 971v6h2v-6h-2zM309 982v3h5v-3h-5zM536 985v5h6v-5h-6zM1539 993h9q3 0 13 14l-2 6q-25 -5 -25 -11
v-3q1 -6 5 -6zM428 996q6 1 6 6v2q0 6 -6 6h-3q0 -6 -3 -11zM1406 999h6q5 1 5 5q0 6 -5 6h-3v-6l-14 3h-3v-5zM1642 999l3 5l-6 3h-3v-3q1 -5 6 -5zM766 1010l-3 11l6 3q14 0 16 -9q0 -5 -5 -5h-14zM1647 1013q17 1 17 8v3h-14q-4 0 -8 -9zM1725 1018h3q5 1 5 6h-3
q-5 0 -5 -6zM1614 1029q31 5 31 14v6q-14 0 -31 -17v-3zM1830 1029h3q20 6 22 6v8l-3 6q-22 0 -22 -20zM1398 1040h5q6 1 6 6q0 4 -8 8q-4 0 -9 -8q1 -6 6 -6zM1753 1046h5v3h-5v-3zM1337 1076l3 17l-6 3h-8q-6 0 -6 -6v-8q0 -6 17 -6zM1370 1079h3v6h-8q0 -6 5 -6z
M1559 1085q5 1 5 5v3q0 6 -8 6v5h3q5 0 5 -8h3q5 0 5 8l-2 6q2 5 2 11q0 4 -8 8q-8 -3 -8 -5v-9q-6 0 -6 -8q-5 1 -5 5q5 1 5 6v6l-11 2q-5 -14 -5 -19t25 -22zM905 1090q0 5 -6 11v3q14 -7 14 -11q-3 0 -8 -3zM852 1096h3q5 1 5 5v3h-8v-8zM849 1110q4 0 8 8v3q0 4 -8 8h-3
q-4 0 -8 -8q0 -5 11 -11zM747 1124l2 5l-5 3l-3 -6zM888 1124h6q5 0 5 5v6q0 5 -5 5h-6q-6 0 -6 -5v-6q1 -5 6 -5zM1550 1124h3v5h-3v-5zM1035 1140l11 11q0 6 -6 6h-11q-4 0 -8 -9q0 -6 14 -8zM855 1143q8 10 8 19q-16 11 -19 11l-6 -8v-14q0 -5 17 -8zM1841 1143q3 0 3 3
l6 -3q11 4 11 8q0 6 -6 6q0 -4 -14 -11v-3zM1944 1148h8q33 4 33 28l-5 3h-3q-16 0 -33 -28v-3zM1079 1154l3 6l-6 2l-2 -5zM1620 1154h8v8h-3q-5 0 -5 -5v-3zM774 1157q20 0 20 16q0 11 -20 25h-2q-17 -13 -17 -27v-3q4 -11 19 -11zM1184 1157l3 5l-5 3l-3 -5zM1018 1165
q20 4 20 11v11q0 5 -11 11h-3q-15 0 -20 -11v-11q2 -6 14 -11zM1689 1168h3q5 1 5 5h-8v-5zM694 1182h3q4 0 11 11q0 19 -20 19h-2q-5 0 -11 -11v-8q4 -11 19 -11zM478 1184h11q4 0 8 9q-3 16 -8 16h-8q-4 0 -9 -8v-11q1 -6 6 -6zM991 1207l5 8l14 -8h3q25 37 25 44v8
q0 25 -39 28q0 11 -6 11h-8q-4 0 -8 -8q3 -19 8 -20q-6 -22 -11 -22q-17 0 -17 17l-5 3h-6q-5 0 -5 -6q0 -8 11 -22q0 -4 11 -11q5 3 8 3q15 -11 17 -25h3zM1032 1209l3 6v3h-3q-5 0 -5 -6zM1151 1209q17 16 17 23q-8 24 -17 27h-11q-19 -10 -19 -14v-11q0 -2 5 -22h6z
M1985 1209h9l2 12l-5 2h-6l3 -5v-3h-3v6h-5v-6q1 -6 5 -6zM1143 1218v5h3v-5h-3zM758 1218h11l16 8q0 29 -33 31q-8 -11 -8 -20q0 -11 14 -19zM1467 1229l3 5q0 6 -6 6l-2 -6q0 -5 5 -5zM841 1237l5 8l-8 6l-3 -6v-2q1 -6 6 -6zM799 1262h22q18 0 34 22v3q0 31 -36 47l2 20
q0 58 -38 58q-5 2 -11 2h-23l-52 -33q11 -14 11 -19l-3 -6q16 -36 39 -36l-3 -5q1 -6 6 -6l8 6q19 0 36 -47zM1118 1270q19 15 19 20v11q-13 22 -27 22q-16 0 -25 -17v-2q0 -34 33 -34zM941 1276v3l5 -3q7 0 22 8l-2 6v3q11 0 11 5l-3 6q3 5 3 8h11l14 -3q30 27 30 58
q-17 25 -39 25q-28 0 -36 -16q-1 -6 -14 -11q0 3 -30 25q-39 0 -53 -28q-3 -4 -5 -31q0 -55 86 -55zM1600 1290q20 16 20 19v6q0 5 -6 5q-19 -16 -19 -27zM519 1359h6v8h-6v-8zM1298 1376h8q4 0 9 8q-6 17 -11 17q-4 0 -14 -14q4 -11 8 -11zM802 1384v3h8v-3h-8zM1345 1387
q6 1 6 5v9h-6l3 -6h-8v-3q1 -5 5 -5zM1963 1401q4 0 9 8v3q0 5 -6 5h-6q-5 0 -5 -5v-3q0 -4 8 -8zM730 1414q13 6 14 12q0 14 -11 19h-3l-14 -3v-16q1 -6 14 -12zM916 1414h8q6 1 6 6v6q0 5 -6 5h-11v-11h3v6q5 0 5 -6h-5v-6zM1994 1423h5q6 1 6 5v6h-6q-5 0 -5 -6v-5z
M943 1431q6 1 6 6v5q-3 0 -8 3l-3 -6v-2q1 -6 5 -6zM1930 1434h3q4 0 11 11q0 4 -11 11q-4 0 -9 -8v-9q1 -5 6 -5zM658 1442l8 11v6q0 4 -11 11h-8q-4 0 -8 -8v-9q0 -7 19 -11zM1187 1492q14 7 14 11v6l-19 -3v-8q1 -6 5 -6zM1306 1511h3q14 9 14 20q-4 11 -8 11
q-17 -8 -20 -8v-11q0 -5 11 -12zM84 1550h3q6 1 6 6l-6 3h-3v-9zM1035 1561q8 10 8 20q0 4 -8 8h-8q-12 -6 -12 -14q4 -14 20 -14zM1107 1567h8q11 4 11 19q0 5 -11 11h-5q-8 0 -11 -25zM525 1570h3q19 0 19 19q0 13 -25 28h-11q-14 0 -17 -9v-5q8 -33 31 -33zM996 1572
q14 5 14 14q-5 13 -11 14h-6q-4 0 -8 -8q0 -15 11 -20zM1301 1584h11q4 0 11 11v11q-1 5 -14 11q-14 0 -16 -28zM960 1636l6 8v9l-9 11q-7 0 -14 -14q5 -14 17 -14zM1409 1644h5v6q0 6 -5 6q-6 0 -6 -6q1 -6 6 -6zM434 1656h13q4 0 9 8v8q-9 17 -31 17h-3q-5 0 -5 -6v-2
q0 -16 17 -25zM946 1672q81 14 81 58v20q-23 55 -70 55h-16q-27 -9 -42 -52q0 -6 6 -20q-3 -5 -3 -11v-3q18 -38 44 -47zM514 1697q15 0 47 25q10 0 19 17q6 0 9 30q-17 75 -42 75q0 9 -22 11q0 -5 -39 -14q-36 -27 -36 -69q23 -55 50 -55q7 -20 14 -20zM1503 1705h8v3
q0 6 -5 6l-3 -6v-3zM353 1708h11q15 0 25 17v5q0 36 -50 45h-8q-14 0 -17 -9v-16q0 -23 39 -42zM70 1717l3 5l-5 3h-3v-3q1 -5 5 -5zM1112 1747q13 5 14 11v3q0 15 -14 22h-5q-8 0 -11 -22q4 -14 16 -14zM409 1764h8v5h-8v-5zM1226 1844v3q0 5 -5 5l-3 -5q3 0 8 -3z
M115 1847l3 5v3q0 4 -9 8h-2v-11l5 3h3v-3h-6q1 -5 6 -5zM167 1863h9q5 1 5 6q-7 22 -30 22l-3 -5q6 -16 19 -23zM1456 2016q11 4 11 8v6q0 4 -8 8h-3q-7 0 -8 -11q4 -11 8 -11z" class="colorcurrentColor svgShape"></path></svg></g></svg>