<svg id="SvgjsSvg1011" width="288" height="288" xmlns="http://www.w3.org/2000/svg" version="1.1" xmlns:xlink="http://www.w3.org/1999/xlink" xmlns:svgjs="http://svgjs.com/svgjs"><defs id="SvgjsDefs1012"></defs><g id="SvgjsG1013"><svg xmlns="http://www.w3.org/2000/svg" viewBox="-10 0 1810 2048" width="288" height="288"><path fill="#ffffff" d="M306 -44h6q7 1 7 7q-7 9 -7 14h-6q-7 0 -7 -7v-7q1 -7 7 -7zM306 -40v3h6v-3h-6zM474 149h14q7 1 7 7v4q0 18 -14 24q-20 -7 -20 -14v-7q0 -5 13 -14zM885 305h7v6h-7v-6zM816 311h7q7 2 7 7v11q0 7 -7 7h-7q-7 0 -7 -7v-11q1 -7 7 -7zM1126 377h11q6 1 6 7v17q0 5 -10 10h-7q-5 0 -10 -10v-3q2 -21 10 -21zM930 498h7q0 7 -7 7v-7zM1381 501h11q7 1 7 7q-8 21 -14 21h-14q-7 0 -7 -7q5 -14 17 -21zM926 505l38 27q7 0 48 55q14 0 49 24q7 0 13 4q5 0 35 -31l17 3q31 -3 38 -3v3l7 -3h17q18 1 18 7q17 -11 27 -11h24q42 23 42 66
q4 0 13 21q-18 1 -44 86q-4 0 -4 3v11q0 11 10 24q-10 0 -10 7v3h4q0 -10 10 -10l7 14q-6 0 -17 10h-4v3q38 8 38 24h7l-3 -6l6 -4h4q18 17 27 17v-3l-3 -7q3 -7 3 -10q-3 0 -3 -4l17 -10h4v3q0 4 -4 4l4 7v3l-4 7q5 0 11 10v4q-14 0 -14 7q0 17 14 20l-4 7v7q12 0 28 11v-4
q-4 -6 -4 -14h11v4l-4 17l11 7q0 -10 6 -10l4 6q0 11 -10 11v3h6v21l-17 7v7q17 0 17 7q-3 0 -3 3h14q3 6 3 14h-7l4 7v3h-11l-6 -3v7h6l-3 17v21h-7q0 3 4 3l-4 7v3h7q0 5 -10 11h-4l4 -7q-4 0 -11 -4l4 14l-4 14l4 7q-13 24 -28 24l4 -7l-7 -10h10q0 -5 -10 -11v11h-4
q-7 0 -7 -7l-7 3h-6v-3l6 -10q-10 0 -10 -4l-7 4h-3q-7 0 -7 -7q3 0 3 -4l7 4h4v-4q-11 -11 -11 -17l-7 3q0 -13 -10 -13v10h-10v-10h-7q-9 6 -14 6v4h7l-4 7l-20 -11q-7 14 -21 14q0 -7 -31 -27v-4l-7 4h-3l3 -7v-7h-7q0 9 -14 10l-3 -7q3 0 3 -3q-19 2 -31 10h-6v-7h6v-7
l-6 4v-4l-7 4h-4v-4q0 -3 4 -3q0 -7 -18 -14v-27q-6 0 -13 -21l-11 7l-14 -17v-4l14 7v-3q0 -7 -14 -7v-4l4 -7q-17 0 -17 -17q-4 0 -4 4l-7 -4h-3v4q8 0 14 13l-7 4h-7v-4l3 -7q-3 0 -3 -3l-7 3h-10q0 -5 -7 -10q-6 0 -14 14h-3v7l10 -7h3v7q-5 0 -10 7q3 6 3 10h4v-7h10v7
h-7q4 10 7 10l-3 7v7h3q7 -3 11 -3v7q-12 7 -14 7v3l7 10v4h-7v-7h-4v7l7 3l14 -7q14 4 14 24h-7v-13q-7 0 -7 10q3 7 3 10q-13 11 -17 11v3q18 4 21 4q0 -4 3 -4v7q-13 0 -13 7v3l6 -3v3l7 -3h7l-14 17l-6 -3h-4v3l17 4v3q-24 4 -27 14q14 0 14 17l-11 7q-3 0 -3 -3
q-14 5 -14 10v3h7v7h-4l-13 -17q0 7 -7 7t-7 -7l3 -7q-23 0 -27 -14v-3h3q7 0 7 10h7v-7q-7 0 -7 -10h-3q-7 1 -7 7q-11 0 -11 -17l-7 3h-3v-17l7 3h3v-3q0 -7 -13 -7v-7q0 -20 -14 -31l-7 3h-7q-3 -20 -10 -20q-8 0 -25 24h-10l-3 7h7v10h-7q0 -10 -7 -10h-14
q-24 12 -24 27h-7l3 -17l-10 -7q0 4 -3 4q0 -7 -7 -7h-11q-8 0 -10 14q3 6 3 10q-6 1 -27 31l-7 -3q-28 19 -28 48h-13l-18 3q0 -5 -10 -10h-10v21h-4v3q11 0 11 7v14h-4l-24 -7v-7h10v-4q-5 0 -13 -6q-7 1 -7 6v7l7 11l-7 3q0 -7 -7 -7h-11v4q0 3 4 3l-4 7v7q12 -7 21 -7h4
v4q-4 13 -21 13q0 -10 -10 -10q-4 6 -4 14h-3l-7 -4l3 -7v-3q0 -7 -7 -7q0 4 -3 4q-8 -21 -14 -21h-3v7h-4l-10 -7v17q-7 0 -7 -7v-7q0 -7 10 -7q0 -7 -3 -13q0 -27 52 -31q-4 -7 -4 -11l4 -7q-4 -6 -4 -10q21 -21 59 -45q24 -51 24 -58q-4 0 -4 -4l14 -10q1 7 7 7h4
q0 -8 13 -25v-10q7 0 7 17q11 0 11 -13l6 3q18 0 31 -21q0 -10 -13 -10v-7q5 0 10 -7q-3 -6 -3 -10h-4l-14 10l-3 -7q18 -10 34 -10v7h7v-10q-10 0 -10 -7h10l-3 -7q3 0 3 -4h-7v-7l7 4h4v-4h-7v-3l17 -21v-3q-3 0 -3 3q-7 -3 -11 -3v-11q13 0 21 -27h-7v7h-3v-11l-7 4h-4
v-10h7l11 6q0 -3 3 -3q1 7 7 7l-4 17v4l7 -4h4q3 0 3 4q6 -4 14 -4q-3 -6 -3 -14h-4q0 11 -7 11h-3l3 -7h-3q3 -7 3 -11h4l7 4v-4q0 -3 -4 -3l4 -7v-3l-21 -7v-7h3l7 3v-10h7v3l-3 7h7q0 -7 3 -14q-7 0 -7 -6v-4h10l-6 -10v-7h6v-7q-28 14 -31 14v-4l4 -7q-4 0 -4 -3h4l7 3
l3 -20h-7q0 -4 4 -4l-4 -7v-3q14 0 14 -10l-7 -4h-7q0 11 -7 11h-3q3 -6 3 -21q12 7 21 7l4 -7q-18 0 -18 -7l7 -4l7 4q0 -4 10 -28l11 7h3v-7l-3 -7h7v-6l-11 6v-17q0 -7 24 -7l-3 -7v-3h3q4 0 4 3q14 -3 14 -17h-7v7h-7q-7 0 -7 -7q14 0 21 -17q-11 -17 -11 -24q12 7 18 7
l-4 -7v-4q17 0 17 11h4v-4q-4 -6 -4 -10l11 7q3 -6 3 -17zM1381 515v7h4v-7h-4zM930 518v4h7v-4h-7zM919 536l-3 6q7 -3 10 -3v-3h-7zM864 542q0 4 4 11q-7 0 -7 14h-7l-4 -18zM868 553h6v7q-6 0 -6 -7zM864 567h7v3h-7v-3zM857 574h7v6q-7 0 -7 -6zM881 584l4 7q7 -4 10 -4
v-10q-8 7 -14 7zM981 577v7h7v-7h-7zM992 580v11h3q0 -4 4 -11h-7zM861 591v7h3v-7h-3zM974 594v4h7v-4h-7zM923 601v7h3v-7h-3zM864 611v4q1 7 7 7v-4q0 -7 -7 -7zM871 625v7q7 0 7 -7h-7zM843 632v7h4v-7h-4zM840 649v7h3v-7h-3zM857 653v7h4v-7h-4zM833 691v3h7
q7 -3 10 -3v-7h-3q-9 7 -14 7zM792 684h7v3l-4 7h7q-3 6 -3 14q-7 0 -7 -7v-17zM861 694v7l-7 -3h-4q4 6 4 10h7q0 -4 3 -10v-4h-3zM830 705v3q7 0 7 -7v-3q-7 1 -7 7zM840 698v3h7v-3h-7zM692 711h3q5 0 17 21h-17q-5 0 -10 -10v-4q1 -7 7 -7zM847 715v7h3v-7h-3zM850 725
v7h7q0 -7 -7 -7zM788 725h11q0 7 -7 7zM816 729h7v13h-4q-6 -3 -10 -3v-3q1 -7 7 -7zM843 736v3h7v-3h-7zM792 739h3q7 1 7 7v17q-3 0 -3 -3l-7 3h-4q-8 -7 -14 -7v-3h11l7 3v-17zM812 767h7v10h-7v-10zM823 774h7q0 6 -7 6v-6zM788 787v7h-7q1 -7 7 -7zM712 805v6h-6
q1 -6 6 -6zM1295 818h7v4h-7v-4zM1388 818h4v7h-4v-7zM1157 825q1 7 7 7h4q0 -7 -7 -7h-4zM1223 829v3h7v-3h-7zM1206 839v3h6v-3h-6zM1226 839v10h4v-10h-4zM688 839h7v7h-7v-7zM1247 842v4h7v-4h-7zM712 842q7 2 7 7h-7v-7zM1181 849v11h18v-4l-7 -10q-7 3 -11 3z
M1233 846v7h7q0 -7 -7 -7zM1399 846q6 3 10 3v11h-7v-7h-3v3q3 6 3 14q-7 0 -7 7h-7q0 -7 -7 -7v-7q5 0 18 -17zM1212 853v3h7v-3h-7zM754 853h7v3h-7v-3zM1161 856v7h7v-7h-7zM1206 856v7h3v-7h-3zM1240 856l-3 7q3 7 3 11h3v-4q-3 -7 -3 -10q3 0 3 -4h-3zM1416 856h7v18
h-7v-18zM757 863q7 1 7 7h-7v-7zM1174 867v10h4v-10h-4zM1150 874v6q1 7 7 7q7 0 7 -7q-5 0 -14 -6zM1185 874q3 6 3 13h4v-13h-7zM1433 870h7v4h-7v-4zM1402 874q21 7 21 13v11h-7q0 -7 -10 -7l3 -7h-3l-7 3l-4 -7q7 0 7 -6zM1454 880h3v7h-3v-7zM712 884h7v3h-7v-3z
M730 884h7q6 1 6 7v7h-6v3h3q6 -3 14 -3v3l-4 7q11 0 11 7h-14q0 -8 -17 -17v-14zM1164 887v4h7v-4h-7zM1195 891v3q1 7 7 7v-3q0 -7 -7 -7zM774 894v4h7v-4h-7zM1247 901q1 7 7 7q0 -8 3 -14h-3q-7 1 -7 7zM657 894h4q0 7 -7 7h-4q1 -7 7 -7zM1406 894h6v7h-6v-7zM1437 894
h6v4h-6v-4zM1157 901v7h7v-7h-7zM643 905h7v6q4 0 4 -3q6 3 14 3v4q-9 0 -14 14h-4v7h7v3q-12 17 -20 17l3 7q0 7 -7 7q0 -3 -3 -3l-7 13q3 0 10 4q0 -4 4 -4l13 14q0 19 -17 28h-14q-7 0 -7 -7q2 0 14 -4q1 7 7 7l10 -20h-17v7q-7 0 -7 -11h-3v11q3 0 3 3l-10 7l-3 -17v-14
q17 -13 17 -17q-11 0 -11 -7q11 0 11 -14h10l7 3q0 -12 7 -20v-7h-4q-6 0 -6 17h-4q-7 0 -7 -7q17 -15 17 -27zM1088 908v7h4v-7h-4zM1209 908v17h3q0 -7 4 -7q-4 -6 -4 -10h-3zM1330 908v3h7v-3h-7zM1433 908h7v7h-7v-7zM712 911h7v7q-7 0 -7 -7zM733 911h7v7q3 0 3 -3l7 3
h7l7 -3v7q0 5 -10 10q-4 -7 -4 -10h-7v7q-5 0 -10 -11v-7zM1192 915v7h3v-7h-3zM1447 911h3v4q0 7 -7 7l-3 -7zM533 915v3q-3 7 -3 11h13l-6 -11q3 0 3 -3q30 7 48 7q3 0 21 -4q6 4 17 4v3q0 7 -7 7t-7 -7q-13 5 -13 11h3q7 -4 10 -4l4 7v3q0 7 -7 7q-22 0 -55 -10l3 -7v-7
q-7 0 -7 14h-7q-3 0 -3 -3q-7 3 -10 3q-5 0 -18 -17q0 17 -13 17l-4 -7v-7q0 -7 38 -10zM1392 922l3 17h7q-3 -6 -3 -17h-7zM664 929h7v7h-7v-7zM1433 932h4v7h-4v-7zM1226 939v7h4v-7h-4zM992 946v10h3v-10h-3zM1416 946h3l4 17q-17 -4 -17 -10q10 0 10 -7zM623 956
q1 7 7 7h3q0 -7 -7 -7h-3zM981 956v7h7q0 -7 -7 -7zM599 963h10q0 5 -10 11h-7v-4q1 -7 7 -7zM1033 970q7 4 10 4v6h-6q-7 0 -7 -6q3 0 3 -4zM1395 974v6h7q0 -6 -7 -6zM895 984v3q7 0 7 -7v-3q-7 1 -7 7zM1147 977v3h7v-3h-7zM1409 977v10h7v-10h-7zM854 987v7h3v-7h-3z
M909 991v7h3v-7h-3zM1433 991h7v3h-7v-3zM802 998v7h4v-7h-4zM1064 994h7v4h-7v-4zM1295 1001v4h7v-4h-7zM1378 1001v7h3v-7h-3zM695 1005v6h4v-6h-4zM1023 1005v10h7v-10h-7zM1430 1005h3v10h-3v-10zM902 1011h7v4h-7v-4zM1578 1011h3v7h-3v-7zM1426 1015v7h-7q1 -7 7 -7z
M1285 1022v7h3v-7h-3zM1326 1025v7h7q0 -7 -7 -7zM1061 1029q7 1 7 7h-7v-7zM1419 1029h7v7h-7v-7zM1012 1039q1 7 7 7v-7h-7zM1240 1039v7h3v-7h-3zM964 1046v3h7v-3h-7zM1330 1049v7h3v-7h-3zM1371 1049v7q7 0 7 -7h-7zM1016 1053v7h3v-7h-3zM1347 1056v4q3 6 3 10
q-3 0 -3 4q3 0 3 3q-3 0 -3 3l27 -6v3q0 3 -3 3q3 7 3 11h7l-3 -7l7 -4l-4 -20q-2 3 -24 3q0 -3 -10 -7zM1064 1056q7 1 7 7l-7 4v-11zM633 1063v7h4v-7h-4zM954 1063v7h3v-7h-3zM1550 1070h4v7h-4v-7zM1012 1080q0 11 -6 11h-4v-7q-7 1 -7 7q4 6 4 14h7q0 -16 13 -18v-7h-7
zM619 1084v3h7v-3h-7zM981 1087v4h7v-4h-7zM1106 1087h3v11h-10v-4q1 -7 7 -7zM1406 1087l6 4q0 -4 4 -4v4l-4 7h7v3q0 4 -3 4l3 6v4q-29 -7 -34 -7v7h-7v-7q0 -8 17 -10q1 7 7 7q0 -4 4 -4q0 4 3 4v-11h-7v7h-3v-10zM633 1094v7h7q0 -7 -7 -7zM1426 1094q7 0 7 17l14 -10
q21 8 27 31l25 14l31 -7l-4 -7v-3q19 15 62 27l7 11v7l-7 10l-24 -4h-3q-11 2 -18 25l-34 -25l-7 4h-3q-14 -14 -35 -17v-4l14 -10q0 -2 -14 -24h-7l4 7h-24v-4q3 -7 3 -10q-14 -5 -14 -11v-17zM606 1108v3h6v-3h-6zM1399 1115h3q7 1 7 7l-7 3l-3 -7v-3zM581 1122v3l7 4v-4z
M1337 1118h10v11q0 3 -4 3l4 7v3h-7q-3 -12 -3 -13h3l-3 -7v-4zM602 1125q10 16 10 21h4v-4q-5 -17 -10 -17h-4zM1357 1122h4q7 1 7 7v3h-4q-7 0 -7 -7v-3zM1368 1122h6v7q-6 0 -6 -7zM574 1132v10q7 0 7 -6zM1226 1129q5 0 11 10v3h-7v-6l-7 3l-4 -7zM1381 1129h7v3h-7v-3z
M668 1132h6v4h-6v-4zM685 1132h7v4h-7v-4zM581 1142v7h4q7 -3 10 -3l-3 -7q-7 3 -11 3zM785 1136h7l3 17v3h-7v7h7v11q-10 11 -10 17h-7v-21q0 -7 7 -34zM1212 1139v10h-6v-3q1 -7 6 -7zM1361 1139h3q7 1 7 7l-3 7q-6 -4 -14 -4v-3q1 -7 7 -7zM1506 1149v4h6v-4h-6z
M1054 1149l45 25q3 0 3 3l-3 21q7 0 7 7h6v-11q10 0 28 14q0 29 -52 45q-17 -20 -17 -31q3 -7 3 -11q0 -8 -34 -17l-3 -7v-27q0 -6 17 -11zM1223 1149h7v14q0 7 -7 7h-4q-7 0 -7 -7q14 0 14 -10q-3 0 -3 -4zM1468 1149h6v4h-6v-4zM599 1160q0 5 10 10v-10h-10zM1061 1160v3
q3 6 3 14q7 0 7 -7v-7q-4 0 -10 -3zM1623 1156h7q5 0 10 11v10q0 8 -17 10l-11 -13v-7q0 -5 11 -11zM1043 1167v7h4q7 0 7 -7h-11zM471 1170h17q0 10 7 10q-3 7 -3 11h-7q0 -14 -7 -14v7h-7l-7 -4l4 7v4h-11v-7q0 -6 14 -14zM609 1184q7 1 7 7h-7v-7zM671 1187h3q7 4 11 4v7
q-14 -6 -14 -11zM1074 1194v7h7q0 -7 -7 -7zM495 1194h7v4q0 7 -7 7v-11zM474 1201h7v4h-7v-4zM488 1201q7 1 7 7l-7 3v-10zM902 1201l24 21q7 1 7 7v13q0 5 -10 11l-21 -4l-10 7h-11q-7 -1 -13 -17q10 -23 34 -38zM1081 1205v13h11q-7 -8 -7 -13h-4zM461 1208h7v10
q-7 0 -7 -7v-3zM668 1208h3q7 3 10 3v7h-13v-10zM1095 1211v7h4v-7h-4zM492 1215v3q0 7 -21 11v-7q2 0 21 -7zM1171 1222q18 20 24 20v4l-3 17l-7 -3h-4q-8 0 -10 14q-24 -8 -24 -38q24 0 24 -14zM1261 1225h10q7 0 10 21l-10 7h-10q-11 -4 -11 -21zM1109 1232v7h3v-7h-3z
M1168 1239l3 7v3l-3 7h10q0 -3 3 -10l-10 -7h-3zM371 1270h7v4h-7v-4zM1164 1274h4v10h-4q-7 0 -7 -7zM295 1277q16 7 17 14v3q-3 0 -27 7v10l3 7l7 -3l7 3h4v-3q-4 0 -11 -4q4 -6 4 -10l7 4h6v-11q7 0 7 11q-6 18 -27 31q-31 -8 -31 -18v-10q1 -7 7 -7h3q-3 10 -7 10
q4 7 4 11h6q0 -8 4 -14q-4 0 -4 -3h4q0 -11 -10 -11v-7zM288 1284v7h11v-7h-11zM1340 1287h7v4h-7v-4zM140 1315h7v3h-7v-3zM947 1322h3v7h-10q1 -7 7 -7zM578 1325h17q5 0 11 11v6q0 25 -25 25h-7q-10 -4 -10 -21v-7q0 -5 14 -14zM581 1332v7h4v-7h-4zM574 1336v6h4v-6h-4z
M574 1353v7l11 -7l7 3q0 -10 7 -10q-4 -7 -4 -10q-15 17 -21 17zM916 1336v10h-7v-4q1 -6 7 -6zM1243 1353h7q7 1 7 7v7q0 7 -7 7h-10l-3 -18zM933 1360h7v3h-7v-3zM1261 1377h7q0 8 3 14h-3q-7 0 -7 -7v-7zM1271 1380h7v7h-7v-7zM1485 1387h14v4q0 7 -7 7t-7 -7v-4z
M585 1391q5 0 10 10v7q-7 0 -7 3q-6 -3 -10 -3v-10q1 -7 7 -7zM1399 1394h10q7 1 7 7v7q0 5 -10 10h-4q-5 0 -10 -10v-3q1 -7 7 -7v7h3v-7q-3 0 -3 -4zM1406 1398v7h3v-7h-3zM1109 1415h3q11 3 11 21l-11 6h-6q-5 0 -11 -10q7 -16 14 -17zM1361 1415h3q7 1 7 7v3q-8 0 -14 4
l-3 -7q1 -7 7 -7zM1140 1418h7q0 7 -7 7v-7zM909 1425h3v7h-3v-7zM485 1439q7 1 7 7v7h-14v-7q1 -7 7 -7zM899 1439h7v14q-7 0 -7 -7v-7zM1361 1439q6 3 10 3v11q0 5 -10 10h-4q-7 0 -7 -7v-7q0 -5 11 -10zM419 1484h7v7h-7v-7zM409 1501h7v7q-7 0 -7 -7zM1061 1501h3
q7 1 7 7v3q0 5 -10 11h-4q-7 0 -7 -7v-4q0 -5 11 -10zM561 1505h7v6h-7v-6zM571 1505h3v13h-6v-3q3 -7 3 -10zM1285 1563h7q0 7 -7 7v-7zM1043 1577l4 7q0 7 -7 7l-3 -7q1 -7 6 -7zM485 1639h3q5 0 11 10v11q0 5 -11 10h-7q-8 0 -10 -14q7 -15 14 -17zM378 1667q10 0 10 13
q-5 18 -20 18l-4 -7v-11q0 -5 14 -13zM595 1677h7q7 1 7 7v7q0 5 -10 10h-4q-7 0 -7 -7v-10q1 -7 7 -7zM499 1698h7v7h-7v-7zM550 1705h4v6h-4v-6zM540 1711l17 4v7l-17 -4v-7zM171 1977h7q5 0 10 10v11q-3 10 -20 10q-7 0 -7 -10q3 -21 10 -21zM171 1991v7q7 0 7 -7h-7z
" class="colorcurrentColor svgShape"></path></svg></g></svg>