<svg id="SvgjsSvg1132" width="288" height="288" xmlns="http://www.w3.org/2000/svg" version="1.1" xmlns:xlink="http://www.w3.org/1999/xlink" xmlns:svgjs="http://svgjs.com/svgjs"><defs id="SvgjsDefs1133"></defs><g id="SvgjsG1134"><svg xmlns="http://www.w3.org/2000/svg" viewBox="-10 0 2810 2048" width="288" height="288"><path fill="#ffffff" d="M2328 -47h6v3h-6v-3zM1364 211h9q6 0 10 17q-6 14 -13 16h-6q-5 0 -13 -13v-7q0 -5 13 -13zM1426 241q8 0 16 22q-9 23 -29 23q-15 0 -20 -19q0 -26 33 -26zM1396 352h13q7 2 20 45q-3 7 -3 10q26 4 26 17q-5 13 -10 13h-6q-7 0 -7 -10h-10l-16 10q-15 0 -26 -23q3 -62 19 -62zM2174 411h3v6h-3v-6zM2128 420h7v7h-7v-7zM1851 430l3 7v6q-27 26 -36 26l3 17v9q0 5 -10 10h-6q-5 0 -13 -13v-6q8 -15 23 -20l-4 -16v-4q0 -12 40 -16zM246 443h20q39 15 39 56q-6 15 -13 16h-13q-43 0 -43 -65zM2155 446q4 0 9 10v4q0 6 -6 6q-8 0 -10 -16
zM2723 463h7v3h-7v-3zM1364 473h9q14 5 14 22q0 4 -4 10q7 13 7 23q-7 14 -7 20q15 6 17 13q0 3 -4 10q4 22 4 36q0 4 -10 9h-3l-36 -32l-4 -20q7 -8 7 -13q0 -8 -3 -26l3 -23l-3 -13q6 -15 13 -16zM2684 486h6v6q0 7 -6 7q0 -4 -3 -4q3 -6 3 -9zM1841 495q6 1 6 7v7
q0 6 -6 6h-3l-4 -16zM2066 509h7q6 1 6 6v10q0 5 -9 10h-4q-4 0 -10 -10v-7q0 -4 10 -9zM1155 522q0 3 3 9l-7 4l-3 -7q1 -6 7 -6zM1798 522q10 3 10 19v3q-3 10 -19 10h-4q-7 0 -10 -23q12 -9 23 -9zM1785 541q1 7 7 7v-7h-7zM2155 544h3q4 0 10 10q0 5 -10 10h-7
q-6 0 -6 -6v-4q0 -4 10 -10zM540 561q16 0 30 16v13q0 18 -13 23h-10q-18 0 -26 -19v-4q0 -21 19 -29zM1942 561h7q0 6 -7 6v-6zM1994 561l13 16q0 20 -19 26q-20 -4 -20 -19q12 -23 26 -23zM1991 574q3 6 3 13q7 0 7 -7v-6h-10zM1985 584q0 1 -4 13q7 0 7 -10v-3h-3z
M1452 607q34 0 46 71q-4 14 -17 14q0 -7 -6 -7h-7q-23 7 -26 7h-3q-30 0 -36 -56q-7 0 -7 -7v-16q4 0 10 -3l17 3q21 -6 29 -6zM1798 610h7q0 6 -7 6v-6zM1285 620h4q4 0 9 9v10q0 7 -6 7h-7q-8 0 -10 -13q5 -13 10 -13zM1811 620v6h-6q1 -6 6 -6zM1998 626h3v7h-3v-7z
M2148 649q7 1 7 7t-7 6t-7 -6q1 -7 7 -7zM1550 656h3v9q-7 0 -13 4q5 13 10 13l13 -23q20 0 23 26v7q-4 0 -10 3l-16 -3q1 -7 6 -7q4 0 4 3q6 -3 9 -3q0 -7 -9 -7l6 -9l-6 -4l-17 23h-10v7l17 3q0 -3 3 -3q0 5 10 10q0 -4 3 -4v4q0 6 -6 6l-13 -10q0 7 -7 7q-16 -17 -16 -30
v-9q0 -5 16 -13zM1612 659h3q5 0 10 10q0 4 -10 9h-3q-6 0 -6 -6v-7q1 -6 6 -6zM1481 672v6h4v-6h-4zM1811 672h4q10 10 16 10q6 -4 10 -4l3 7q0 12 -23 23v3h-3l-7 -3q0 3 -3 3v-3l7 -10v-6q-13 0 -13 -10q0 -5 9 -10zM1485 682v3h6v-3h-6zM1086 685l3 7h-10q1 -7 7 -7z
M1913 685v3q0 7 -7 7h-3v-7q3 0 10 -3zM1190 688h10q8 0 10 17q-6 15 -13 16h-7q-9 -3 -9 -20q5 -13 9 -13zM1818 692v3h6v-3h-6zM2148 692l3 6q0 7 -6 7l-4 -7q1 -6 7 -6zM2318 695h10q6 1 6 6v4q0 6 -6 6h-4q-6 0 -6 -6v-10zM1511 708h3v10h16q33 31 33 36h7l13 -10h9
l-3 6v4h3q7 -11 7 -13h3l26 19l7 -3q7 0 13 3q23 -10 26 -10q-3 -6 -3 -9l-7 3v-7l17 -3l3 7v3q0 7 -29 23q23 19 35 19h10v4q-3 6 -3 9q4 0 13 30q0 6 -6 6l13 26l-4 7q6 17 36 42l7 -3h13q-7 8 -7 13q25 40 36 40l-3 6q7 1 7 7q10 -7 16 -7l23 13h-7v7h13v3h4v-3
q-4 -6 -4 -13q6 -4 13 -4v-3q-6 0 -6 -3q7 -20 23 -20l-4 -6q0 -4 14 -13l-4 -7q4 -5 4 -16h9q7 1 7 6q-3 0 -3 3h6q0 -7 33 -16v3q0 4 13 4v-4h13q0 17 7 17q0 -7 29 -13h6q5 0 10 13q-2 0 -19 19q6 0 6 10q7 0 7 -6q5 3 13 3q-3 6 -3 10l-17 -4v7h7v7h-7v3q8 0 26 3v7h-9
v3h6q17 -13 23 -13v-3l-3 -7h6v-20q7 1 7 7q0 3 -4 3q7 11 7 17h7v-7h-7v-13q13 0 13 -13q7 1 7 6v4l-4 6h10v-3l-3 -7l6 -3q0 9 10 26h4v-10h3l6 4q0 -7 4 -7q6 3 9 3l-3 7q13 0 13 3q-3 7 -3 10q5 0 10 10v3l-7 -3v6l20 7v6h-10l3 7v3h-6v7q5 0 10 6q-6 33 -30 33h-3
q-15 -10 -30 -10q0 15 -9 30l9 6l-3 7v3h3q4 0 4 -3l6 3h4l16 -3q0 5 16 23v6h-3q-20 -23 -23 -23v10h10v16l3 7q-3 0 -3 3h6q0 -7 13 -10v-3h14l9 7v-7h10l7 3l3 -6q-10 0 -10 -3q5 -14 10 -14v4l6 -4l14 7q0 -5 22 -23q4 0 4 3q10 -6 16 -6q0 5 10 10q16 -10 16 -20l17 3
v-9h6q0 8 13 29h7l-10 -13q3 0 3 -3q20 7 20 16l6 -3h4q6 1 6 6q-6 1 -6 7q6 8 6 13v10q13 9 29 9h4v-6h10v6h6q0 -9 7 -9l6 9h-3l-7 -3l-3 17q11 0 13 13h3v6h-6q0 5 10 10q0 -3 3 -3q0 3 3 3q0 10 -13 10v3l3 7h-6v16l-7 10l-16 -4h-7v4h7v3h-13v-3l3 -7q-3 -6 -3 -10h-7
q4 7 4 10q0 8 -26 20l-53 -33h-6v-3h13q-2 -7 -17 -13q0 6 -6 6q-20 -16 -43 -16q0 12 40 39v7h-7l-6 -4q0 23 -40 27q0 6 -16 6q-18 -10 -29 -10q-7 4 -10 4q-3 -7 -3 -10h-4q-8 6 -13 6h-10q0 7 -6 7q0 -3 -3 -3q0 6 -7 6v-13h-6q0 13 -10 13h-10l-16 -3l3 6h-3l3 7
q-5 13 -17 19l-16 -9h-3q0 6 -7 6l4 7h-30q-15 -17 -23 -17v10q11 23 17 23v3q-10 11 -10 20h-3v-10h-4l-9 7q0 -4 -4 -4q0 10 -6 10v-6h-4v3q4 6 4 10q-5 3 -17 3v-3l-6 3q-20 -8 -20 -16h-3q0 9 -23 26v6q-6 0 -6 -16h-4v13q7 1 7 7v3l-7 -3q-6 1 -6 6l23 10v20
q0 6 -20 13v6l13 3v4h-16v-7h-7q-8 23 -16 23v-13h6v-3h-3q-6 3 -10 3q0 6 7 20h-13v3q0 9 6 20h-3q-4 0 -13 -20v-10h10l-3 -6v-4h6v-10h-3l-17 17l-6 -3q0 9 -7 9l4 7l-4 6q4 0 4 4h-7q0 -13 -3 -13q-6 3 -10 3q0 -3 -3 -3v13q-7 0 -43 -10l7 -10v-3q-12 6 -26 6l-4 -6v-3
q0 -7 10 -7q0 -7 -6 -7q-7 0 -7 14h-3q-5 0 -10 -10l3 -7q-31 -19 -36 -29v-13h4l6 3q0 -5 7 -13l-7 -3q0 6 -6 6h-4v-23l7 -9v-10q-36 -13 -46 -13q-3 0 -26 6v33q-10 0 -23 3q7 -10 7 -16l-7 -3q0 9 -16 9l29 23v3h-3q-27 0 -33 -26v-6h7v-7h-7q0 6 -9 17l13 3v6
q-16 0 -63 -42l-19 3q-13 -25 -33 -49l3 -6q-5 0 -13 -13v-17q13 0 13 -6v-7q-5 0 -16 -19h-3v3q3 6 3 10h-3q-6 -4 -16 -4v-9l16 -4l-3 -6q-10 3 -10 6l-7 -3h-3q0 10 -13 16q-8 -6 -23 -6l7 -10h-10l3 -7v-3q-20 0 -20 -10q7 -3 10 -3v-3q-14 0 -19 -10v-10h-4v-3
q40 -10 40 -33v-3q0 -7 -10 -7v-6h3l7 3q9 -12 9 -23q0 -6 -6 -6q0 6 -7 6h-13l3 -6l-6 -10v-3l3 -7h-3l-10 7q-6 0 -6 -7q6 0 6 -6v-4h-6l6 -13h-6q-7 4 -10 4q-14 0 -23 -131l-29 -65q-4 0 -23 -23v-4q20 -58 52 -58q3 0 3 3l23 -3q33 1 33 9l-7 4q0 -7 -6 -7l-4 7h4
q-1 4 -13 16l3 16l6 -3h4q6 0 6 10q-13 23 -13 33v6q9 8 20 39q2 0 10 20l-4 6q0 10 36 30v6q0 17 -10 20l-6 -3l-10 32v10q0 5 10 10q8 -23 29 -23l-3 -6q0 -6 13 -13q0 3 3 3v-3q0 -5 -13 -10q0 4 -9 10v-4q9 -16 19 -16q20 3 20 10v13l-13 16q1 7 6 7q18 -19 49 -36
q6 3 13 3l13 -13l4 6q-7 1 -7 7l7 3q0 -4 9 -10v7q8 0 14 -3q16 0 29 19l-10 7l-3 -7h3q-3 -6 -3 -9h-3q0 9 -7 9q-6 -3 -10 -3v3q1 7 7 7l-3 6v7q9 0 9 16q-3 7 -3 10h7q0 -10 6 -23q-6 0 -6 -6v-4q5 4 13 4v3l-4 6l7 4l6 -4l-3 -6v-3q8 0 13 -4l4 7h-7q0 3 3 3l-3 7v3h3
v-7l7 4l-3 6v4q4 0 16 -17v7l6 -4h10v7h-10v7h4l9 -7v3q7 -3 10 -3l-3 -7v-3q23 17 23 23h3v-6q-6 0 -6 -7v-7q7 0 19 -16q-1 -12 -32 -33q-5 -16 -10 -16l-7 3l-3 -6q3 0 3 -3h-6v-7l19 -10v-3h-3q-6 3 -10 3q0 -3 -3 -3q0 13 -7 13h-6v-3l3 -7l-29 -19l6 -10v-3h-6v6h-20
v-6l16 3v-7l-6 -10h3q11 0 26 14h4v-4q-10 0 -10 -6q6 -4 10 -4v-3h-7q0 7 -6 7l-4 -7q1 -6 7 -6l6 3h4v-3l-17 -4h-10q-7 0 -9 17h-7q0 -7 -10 -7v-10q0 -3 4 -3l-4 -6v-4h7v7l6 -3l10 6q7 -3 10 -3v-7q0 -4 -10 -9v9h-3q-7 0 -7 -6l4 -7l-7 -3q0 7 -6 7q-7 0 -7 -7l-6 3
h-10q0 -12 -20 -16v-7l-6 4l-4 -7q12 0 17 -33q-3 0 -10 -9q3 -7 3 -10h7v10q7 0 9 -17q-16 -16 -29 -16q0 3 -3 3v-16zM1517 708h7v6q-7 0 -7 -6zM1834 714l4 7v3q0 5 -10 10h-4q-8 -7 -16 -7v-3q0 -8 26 -10zM1223 721q13 5 13 10v10q0 4 -10 9h-6q-5 0 -10 -9v-7
q0 -5 13 -13zM1988 724l3 7q-3 0 -10 3v-3q1 -7 7 -7zM1991 724h3q5 0 10 10l-6 3q0 -5 -7 -13zM1155 727h3q6 2 6 7v7q0 6 -6 6h-7q-6 0 -6 -6q5 -14 10 -14zM1514 731h13l-3 19h-7q0 -2 -3 -19zM1583 731h6q0 6 -6 6v-6zM2230 734h6v3q-5 13 -10 13q-6 0 -6 -6
q0 -5 10 -10zM1978 741h13l3 13l-6 3l-10 -13v-3zM1998 741h3v6h-3v-6zM1351 757h6v-7q-6 1 -6 7zM1583 750v10h3v-10h-3zM1606 754q0 9 -7 9v4q3 0 10 3q0 -7 3 -7q-3 -6 -3 -9h-3zM1628 763v4h7v-4h-7zM1641 763v7h4v-7h-4zM1557 777h9v-10q-4 0 -9 10zM1583 767v6h3v-6
h-3zM1596 770v10q6 0 6 -7zM1622 783v3h10l3 -16q-5 0 -13 13zM2351 767h3q6 1 6 6q0 7 -6 7l-3 -7v-6zM1707 770h6l10 7l23 -4q15 7 16 13q-9 23 -29 23q-9 -1 -26 -23v-16zM1537 777q0 3 -3 9l6 4l3 -7v-6h-6zM2403 773h3q7 1 7 7t-7 6l-3 -6v-7zM1596 783v7h3v-7h-3z
M1606 786v7h3v-7h-3zM2344 783q6 3 13 3v4l-16 3v-3zM1576 793v6q3 0 3 4h-9v3h6l-3 6v4h6l-3 -7h3l7 3q0 -7 3 -13q-10 0 -10 -6h-3zM2197 790h7q4 0 9 9v7q0 6 -6 6q-5 0 -10 -9v-13zM1625 803h7v-7q-7 1 -7 7zM2158 796h6v13q0 7 -6 7l-3 -7q3 -6 3 -13zM1547 803v6h6
q0 -6 -6 -6zM1641 803v6h4v-6h-4zM1831 803h7v6h-7v-6zM1256 806l3 6v4h-10v-4q1 -6 7 -6zM1560 809q0 5 10 10v-3q0 -7 -7 -7h-3zM1592 809v10q7 -3 10 -3q0 -7 -6 -7h-4zM1612 812v4h7v-4h-7zM1171 812h6q7 1 7 7v3q-11 4 -13 4v-14zM1540 816q0 8 7 16h-4q-6 0 -6 -6
l-7 3q-6 0 -6 -7q0 -6 16 -6zM1661 816v3h7v-3h-7zM2298 812h7q0 7 -7 7v-7zM2364 812q6 1 6 7l-6 3q-7 0 -7 -6zM1158 816h6v10h-6v-10zM1612 819v7l10 6l3 -6q-10 0 -10 -7h-3zM1841 816h3q17 19 20 19q1 -6 6 -6l3 6l-6 13q10 21 10 30l-7 3h-3q-26 -20 -26 -62v-3z
M1606 826q0 3 -4 9l7 4v-13h-3zM1628 829v3h7v-3h-7zM2302 829q6 1 6 6h-6v-6zM2341 829q6 3 10 3q6 -3 9 -3l17 19v4q-20 -4 -33 -17q0 4 -3 4l-3 -7q3 0 3 -3zM1619 835q3 7 3 10q6 -3 10 -3v-7q-4 0 -4 4l-6 -4h-3zM1824 835h4q-3 33 -10 33q-16 -9 -16 -13q0 -6 22 -20z
M1432 842h7q0 6 -7 6v-6zM1573 855h6v-7q-6 1 -6 7zM2014 852h7q0 6 -7 6v-6zM1566 861q7 4 10 4v6h-10v-10zM2181 868q6 3 9 3q7 -3 10 -3l7 13q-5 13 -10 13h-3q-5 0 -20 -19q1 -7 7 -7zM2318 871h6v13q0 7 -6 7l-3 -7q3 -5 3 -13zM824 875q22 0 27 29v3q0 18 -17 26h-19
q-17 -7 -17 -32q3 -26 26 -26zM926 875q6 1 6 6v20q-6 9 -13 29q4 6 4 10q-14 18 -36 20q0 16 -10 16q0 -7 -3 -36h3l-3 -7v-3q0 -27 49 -55h3zM1622 878q3 6 3 10h7q-4 -7 -4 -10h-6zM2560 878h10v3l-7 13q-6 -3 -10 -3v-7q1 -6 7 -6zM1638 884v4h7v-4h-7zM1596 888v6
q0 7 -7 7v-7q1 -6 7 -6zM1128 894h4q5 0 13 13q0 8 -33 43q-4 -20 -10 -20v3q7 14 7 20h-7q-2 0 -10 -10q0 -15 27 -26l-4 -7v-3q0 -5 13 -13zM1344 897v7h3v-7h-3zM1945 894h7v3h-7v-3zM2034 894h6v3h-6v-3zM2239 894q7 1 7 7l-7 3v-10zM1880 897v7h-7q2 -7 7 -7zM1929 907
l-3 7v6l16 -6q0 3 3 3v-3q0 -7 -6 -7l-7 3q0 -3 -3 -3zM1655 910v7h3v-7h-3zM1873 910h4v14h-10v-7q1 -7 6 -7zM1900 914v6h3v-6h-3zM1991 920l7 4q6 0 6 -7v-3h-6q-7 1 -7 6zM1658 920v7h3v-7h-3zM1906 920v4h7v-4h-7zM2063 920h13v7h-13v-7zM1112 927v6h3v-6h-3zM1168 927
h16q10 3 10 19q-6 14 -23 14q-5 0 -20 -20v-7q8 0 17 -6zM1867 930l3 7h-13v-4q4 0 10 -3zM1880 933v7h3v-7h-3zM1896 946v4h7l3 -13q-5 0 -10 9zM2112 937h7q0 6 -7 6v-6zM1259 940q7 1 7 6h-7v-6zM1887 946v4h6v-4h-6zM1906 953h7v-7q-7 1 -7 7zM1955 950v6q7 0 7 -6h-7z
M2034 946h3v7h-3v-7zM1449 953v7h6v-7h-6zM1798 950h7v10h-7v-10zM2040 950h7v3h-7v-3zM1266 953v3q0 7 -7 7v-3q1 -7 7 -7zM1387 956v7h3v-7h-3zM1880 963q3 6 3 10h4q0 -10 6 -10l7 3l3 -6v-4q-17 7 -23 7zM1537 963v6h10v-6h-10zM2109 966v3h6v-3h-6zM2275 963h17
q0 6 -7 6h-10v-6zM1436 969v10h9q-3 -6 -3 -10h-6zM2001 969v7q6 0 6 -7h-6zM1811 973v9h4v-9h-4zM1916 973q0 3 -3 9h6q0 -3 4 -9h-7zM2007 979l-6 10v3q6 -3 13 -3v-3q0 -7 -7 -7zM2050 979v3q1 7 6 7v-3q0 -7 -6 -7zM1543 982v4h7v-4h-7zM1645 979h10q0 7 -7 7h-3v-7z
M1795 982v7h10q0 -7 -7 -7h-3zM2478 979h7q6 1 6 7h-13v-7zM1534 986v3h6v-3h-6zM1622 982q6 1 6 7l-6 3v-10zM1658 982q6 4 10 4v9h-7zM1815 986v6h3v-6h-3zM1824 986v9h4v-9h-4zM2135 986l-3 6l6 3l3 -6zM1436 989v6h6v-6h-6zM1880 989l-3 6v7l6 10v6q-32 8 -32 23h3l6 -3
v10q0 4 -32 23v9q-20 7 -20 10q-25 -3 -33 -10q0 4 -3 4q-4 -5 -29 -17q0 -5 -10 -16v-3q-3 0 -10 10q0 9 13 35h4l6 -3q8 23 13 23q1 -6 7 -6q2 0 19 19h10v3h7q3 0 3 -3q13 3 13 13h20l9 7h23v6h7q0 -6 3 -6l7 3q5 -3 13 -3l13 10q3 0 3 -4l36 7q5 -3 16 -3q20 6 20 13
q8 -7 13 -7v-3l-3 -7l9 -6h4l-4 6v7h7l7 -3l-4 -7v-6l13 9v-3q-5 -13 -9 -13l3 -7v-13q-5 0 -13 -6v6l-13 -9q3 -20 16 -20q0 3 3 3v-6l-3 -7q3 0 3 -3q-15 0 -32 -33q6 0 6 -6h-13v6q-6 0 -10 -19h4q-4 -7 -4 -10h-3v6q3 0 3 4l-6 3h-10q0 -7 -7 -7q0 -6 10 -6l-3 -7v-3h3
l7 3v-3q0 -4 -17 -13h-3v3h7v10q-7 0 -7 3q-19 -7 -19 -16h-10l6 10h-13q-5 0 -10 -10l-6 3h-3zM2501 986q20 4 20 9q-5 4 -20 4v3q0 9 6 20h-9q-4 -18 -4 -20q7 -11 7 -16zM1262 989h13q24 6 27 6q-4 7 -4 10l-16 -10v4q7 8 7 13q3 0 3 -3q5 3 16 3v6h-13l-6 -3l-4 16h-13
q-17 0 -19 -9q3 -10 6 -10l13 6q0 -3 3 -9q-9 0 -9 -7l-7 3l-6 -3v10h-7v-7q0 -4 16 -16zM2021 999h6v-7q-6 1 -6 7zM1864 995v7h3v-7h-3zM1821 999v6h3v-6h-3zM1302 999h3q6 1 6 6h-3q-6 0 -6 -6zM1576 1002v10h7q6 0 6 -7v-3h-13zM1841 1002v3h10v-3h-10zM1373 1005
q2 7 7 7h3q0 -7 -6 -7h-4zM1521 1005v4h9v-4h-9zM1592 1005q0 13 17 13q-7 14 -7 20q7 -3 10 -3l-3 -7q6 0 6 -6v-10h-13q0 -7 -6 -7h-4zM1867 1005v4h6v-4h-6zM2011 1005v7h6v-7h-6zM2135 1005v7q6 0 6 -7h-6zM1403 1009q3 6 3 9h3v-9h-6zM1648 1009v3q5 13 10 13v-13
q-4 0 -10 -3zM1847 1009q1 6 7 6v-6h-7zM1929 1005h3v7h-3v-7zM965 1009q20 2 20 9v7l-4 6q16 10 30 30l13 3l23 -10q14 1 29 13h3l7 -3q0 7 33 20q17 -4 29 -4q0 22 10 40q-3 6 -3 9q6 1 6 7v7q-7 13 -16 13v3h10l6 -3q0 4 10 9q0 -7 16 -19l7 3q5 -3 13 -3q0 4 10 10
q0 -7 23 -10l6 3q6 -3 10 -3l6 3q23 -13 33 -13h13q-3 6 -3 10q0 10 13 10v9l-13 -6v10h-7v-4l7 -13h-3q-4 0 -13 30q-20 13 -33 13l3 6v4h-6v6l13 -10h3q0 5 -13 13h-7q0 -13 -19 -13q-30 23 -30 36v4q13 0 13 16q-4 0 -16 16v17q-6 3 -10 3l3 6l-13 10l4 7q0 6 -7 6h-16
q0 17 -23 17h-3q0 -23 -20 -23q1 -7 7 -7h9l7 -10q-10 -3 -10 -6l-6 3h-7v-3q3 -6 3 -10q-3 0 -3 3l-23 -3h-3q-7 7 -36 10q-11 -23 -16 -23h-10q-20 0 -62 36l-23 3h-23q-92 -13 -92 -33q-19 -40 -19 -65l23 -68q21 -17 26 -17q33 2 33 7l6 -4q11 11 72 20l42 29h27
q30 -19 42 -19q0 -33 -46 -33q-10 -9 -23 -49q-3 0 -3 -6l-16 3h-7q-5 0 -16 -20q-28 0 -33 -26q0 -17 33 -19zM1547 1012v10q4 0 10 -10h-10zM1864 1012v6h3v-6h-3zM1975 1012v3h6v-3h-6zM1632 1015q0 13 -10 13v3q1 7 6 7h4v-7h9l7 4v-4q-13 -8 -13 -16h-3zM1681 1015v7
q6 0 6 -7h-6zM1818 1015v7h3v-7h-3zM1978 1018v4q23 7 23 13l6 -4h4v4q0 3 -4 3q4 6 4 10h3q0 -10 7 -10l-4 -7q7 0 7 -6q-9 0 -20 -7v10h-3q-7 0 -7 -13q-5 3 -16 3zM2488 1012h3v10h-3q-7 0 -7 -7zM1586 1018q0 4 -3 10q7 0 13 3h3v-3q-10 0 -10 -6q3 0 3 -4h-6z
M2370 1015h7v7h3l16 -4v7l10 -7l7 4q6 -4 9 -4l14 4l6 -4q3 0 26 10q0 -3 4 -3q12 10 26 36v10l-7 9l-6 -3h-4q-17 0 -29 10l-30 -7q0 7 -6 7h-7v-13l-6 3l-7 -3v6q10 0 10 7h-3q-3 0 -3 -3l-7 3q-12 -13 -20 -13v-3l4 -7q-7 0 -7 -6v-14q7 0 7 -9l6 3h4q0 -7 -7 -7l-7 4
q0 -4 -3 -4q0 4 -3 4v-4zM2511 1015h13q0 7 -7 7h-6v-7zM1390 1028v3h6v-9q-6 1 -6 6zM1373 1025v10q7 0 7 -7v-3h-7zM1890 1022h3q7 1 7 6v3h-4q-6 0 -6 -6v-3zM2373 1025v3h7v-3h-7zM1292 1025h6v3q0 7 -6 7h-3q3 -7 3 -10zM1661 1028v10q5 0 10 -10h-10zM1808 1028
q1 7 7 7v-7h-7zM1873 1028h7q7 1 7 7l-7 3zM1387 1035v9q6 0 6 -6v-3h-6zM1831 1038v3h7v-3h-7zM1909 1038h4q0 20 19 20q-3 6 -3 9h-3v-6h-3q-4 0 -4 3l-6 -3h-7v6h-6v-3q0 -24 9 -26zM2380 1041v3h7v-3h-7zM1534 1044v7h3v-7h-3zM1847 1044q0 7 -6 7v3h6l7 -10h-7z
M2396 1044v7h4v-7h-4zM1641 1048l-3 6h13v-3q-3 0 -10 -3zM1664 1048l4 16h3v-16h-7zM1380 1061h3q5 0 10 -10h-3q-5 0 -10 10zM1602 1051v3h7v-3h-7zM1622 1051v3q3 0 10 4v-4l-7 -3h-3zM2373 1051v7q7 0 7 -7h-7zM1409 1054v7h10v-7h-10zM1547 1058q0 5 -7 19q8 7 13 7
q7 -4 10 -4q0 5 20 10v3h3v-6q-3 0 -3 -3q9 0 9 -7v-3l-3 -7l-6 4h-4q0 -13 -6 -13h-26zM1936 1054h6v7q-6 0 -6 -7zM1949 1054h3q6 1 6 7h-3q-6 0 -6 -7zM2037 1058v3h6v-3h-6zM1890 1058h6q0 6 -6 6v-6zM2007 1061v3h7v-3h-7zM2053 1061v6h3v-6h-3zM1360 1061h4v6h-4v-6z
M1939 1064h3v7h-3v-7zM1949 1064h3q5 0 10 10q-7 0 -7 6h-3zM2040 1067v13h3v-13h-3zM1416 1071q1 6 7 6l3 -6h-10zM1599 1077v7h7v-13q-7 1 -7 6zM2024 1071v13h-3v3h6l3 -7q-3 -6 -3 -9h-3zM2177 1071h4q0 4 -10 9v-3q1 -6 6 -6zM2151 1077h7v7h-7v-7zM1406 1084v6h3v-6
h-3zM1981 1080h4v7h-4v-7zM2053 1084v6h3v-6h-3zM2073 1084v3h6v-3h-6zM1606 1087q0 7 -4 13q8 0 13 3v-3q-6 -8 -6 -13h-3zM1628 1087v10l7 3h3v-3q-6 0 -6 -10h-4zM1364 1087h6v6q-6 0 -6 -6zM1975 1087h3v6h-3v-6zM2321 1090v7h7v-7h-7zM1592 1093v7h4v-7h-4zM2040 1093
v7h3v-7h-3zM2155 1090q6 1 6 7h-6v-7zM1547 1097l-4 6l7 4l3 -7zM2096 1097v3h6v-3h-6zM2063 1103v4h7v-4h-7zM2194 1103q3 7 3 10h3v-6zM2328 1103v4q0 4 10 9v-13h-10zM1648 1107l-3 6v7h3q7 0 7 -7q0 -6 -7 -6zM2102 1107v9q0 5 13 13q0 -7 4 -13l-13 -9h-4zM1419 1113
v10h4v-10h-4zM2174 1120v6l7 3h3v-3q-7 0 -7 -6h-3zM2187 1120v3h7v-3h-7zM1645 1123q1 6 6 6v-6h-6zM2145 1123v3q3 0 10 3v-6h-10zM1403 1126v17h6v-7l14 10l3 -7q-19 -13 -23 -13zM1426 1126v10l13 10v-10q-10 0 -10 -10h-3zM1909 1123h4v6h-4v-6zM2001 1123h10q6 1 6 6
h-3l-7 -3v7h-6v-10zM2204 1126v7h3v-7h-3zM2236 1126v7h3v-7h-3zM1367 1129l-3 7q3 0 3 3q-7 1 -7 7v3q7 0 7 7h6q0 -4 -3 -4l7 -16zM1445 1129v7q7 -3 10 -3v-4h-10zM1655 1129v10q6 0 6 -6zM1331 1129h3q7 1 7 7h-10v-7zM1383 1133q0 11 -3 16h3l17 -3v-7q-13 0 -13 -6h-4
zM2027 1133v3h10v-3h-10zM2383 1136v10h7q-3 -7 -3 -10h-4zM2037 1139l3 7l-3 6h6v-13h-6zM2083 1139v7q3 0 9 3v-6q-3 0 -9 -4zM2367 1146h6v-7q-6 1 -6 7zM2181 1143q1 6 6 6h3v-6h-9zM1318 1143v6h-7q1 -6 7 -6zM1655 1146v10h3v-10h-3zM2119 1146v10h3v-10h-3z
M1275 1149l4 7q0 6 -10 6q0 7 3 13l-3 7v3h3q0 -23 20 -23q-7 -8 -7 -13h-10zM1419 1149v3h7v-3h-7zM1553 1149v10h4v-10h-4zM2063 1149v3h10v-3h-10zM2282 1149v3h7v-3h-7zM2367 1149l3 7q-3 0 -3 3h10q-4 -6 -4 -10h-6zM1324 1149h4l13 13q6 -3 10 -3v19q0 7 -7 7h-3
l-3 -20h-7l3 7v3l-3 17q-11 -7 -16 -7l3 7h-7q-6 0 -6 -7v-3q5 0 23 -7l-4 -23v-3zM1383 1152v7h4v-7h-4zM1890 1159h6v-7q-6 1 -6 7zM2347 1152v7h10v-7h-10zM1079 1156v3h7v-3h-7zM1805 1156v3h10v-3h-10zM1877 1156v6h3v-6h-3zM1426 1159v6h3v-6h-3zM1436 1159v3h6v-3h-6
zM1906 1159v6h20v-3q-15 0 -20 -3zM2393 1159q1 6 7 6v-6h-7zM1413 1162v7h3v-7h-3zM1939 1162v3q3 7 3 10h3v-3q-3 -6 -3 -10h-3zM2360 1162v3h10v-3h-10zM1141 1172h7v-7q-7 1 -7 7zM1390 1165v7h3v-7h-3zM1838 1165v7h3v-7h-3zM1949 1165v4h6v-4h-6zM1122 1169v3q1 6 6 6
l4 -6v-3l-7 3q0 -3 -3 -3zM1253 1169v3h9v-3h-9zM1566 1169v3q0 5 10 10v-4q-3 -6 -3 -9h-7zM1962 1169v9q3 7 3 10q-10 0 -10 10h-6q-32 0 -59 23v3h10v3h-13v4q1 6 6 6q0 -5 43 -23l6 4q16 0 26 -26q-3 0 -3 -4l7 -3h9v-3q7 1 7 6q-7 1 -7 7h13l-3 -7l3 -6l7 3h3
q0 -7 -26 -13h-3v3h6v7l-6 -4q0 4 -3 4q-7 -8 -7 -13h-3zM2017 1169q4 6 4 9h6l-3 -6q3 0 3 -3h-10zM2380 1169v6h3v-6h-3zM1308 1169h7v3h-7v-3zM1426 1172v6h3v-6h-3zM704 1172q4 0 9 10q0 6 -6 6q-5 0 -10 -10q1 -6 7 -6zM2011 1175v7h3v-7h-3zM2053 1175v3h7v-3h-7z
M2393 1175q-10 21 -10 23h7q0 -6 13 -20q-4 0 -10 -3zM1138 1178v7h3v-7h-3zM1246 1178v10q7 0 7 -6zM1952 1178v7h3v-7h-3zM1357 1178h3v7h-3v-7zM2021 1182v6q6 0 6 -6h-6zM2344 1188h7v-6q-7 1 -7 6zM2364 1182v6h6v-6h-6zM2373 1185v3h10v-6q-6 3 -10 3zM1844 1185
q3 6 3 10h7q-3 -7 -3 -10h-7zM2092 1185v13q4 0 4 10h3v-3l-3 -20h-4zM2305 1185q1 7 6 7v-7h-6zM1099 1188v4h7v-4h-7zM1929 1188v4h7v-4h-7zM1945 1188v4h7v-4h-7zM1998 1188l-4 20l10 -7h3l7 4l3 -13l-6 -4h-13zM2043 1188v13h4l-4 7v13h10v-3q0 -7 -6 -7l3 -6l-3 -17h-4
zM2318 1188v4q0 9 16 9l-3 7h3l-3 6v7h10q0 -7 3 -7q0 -15 -26 -26zM1455 1198h7v-6q-7 1 -7 6zM1972 1192v3h6v-3h-6zM2295 1192v6h3v-6h-3zM1318 1192h10v6h-4q-6 0 -6 -6zM2030 1195v3h7v-3h-7zM2132 1195v10h3v-10h-3zM2409 1192q7 3 10 3q0 6 -6 6l-4 -6v-3zM1975 1198
v7q6 0 6 6q7 0 7 -6q0 -7 -7 -7q0 3 -3 3q0 -3 -3 -3zM2393 1201v4h7v-4h-7zM743 1201q4 0 10 10q-6 6 -17 43h-13q-5 0 -10 -10v-3q0 -17 20 -27q2 -13 10 -13zM2056 1205v6h4v-6h-4zM2089 1205v6h3v-6h-3zM2109 1205v3h6v-3h-6zM1615 1257h-9l-4 23h7q0 -5 32 -17
q0 -18 72 -26l10 -13l-6 -16q-29 3 -49 19q-11 0 -53 30zM1834 1208v3h7v-3h-7zM1854 1208v3h6v-3h-6zM2347 1208v10h4v-10h-4zM1968 1218h10v-7h-3q-7 1 -7 7zM1994 1214q5 17 10 17q0 -4 3 -10q-6 0 -6 -10zM2063 1211v7h3v-7h-3zM2233 1211v3h6v-3h-6zM2243 1211v7h3v-7
h-3zM2275 1208h7v6h-7v-6zM1563 1214v4h7v-4h-7zM2011 1214v7q6 0 6 -7h-6zM2132 1214v7h6v-7h-6zM697 1214h3q7 1 7 7v10h-10q-6 0 -6 -7v-3q1 -7 6 -7zM1282 1214v4q0 6 -7 6h-3v-6q4 0 10 -4zM2037 1218v6h3v-6h-3zM2089 1218v6h3v-6h-3zM2056 1221q2 6 7 6v-6h-7z
M2099 1221v3h7v-3h-7zM1573 1224v7h3v-7h-3zM1592 1224v3h7v-3h-7zM1628 1224v3h10v-3h-10zM1864 1227v7h3v-7h-3zM1929 1227q1 7 7 7h3v-7h-10zM2021 1234h9v-7h-3q-6 2 -6 7zM2053 1227l-3 7v3q3 0 10 4v-7q0 -7 -7 -7zM2204 1227v7h6q0 -7 -6 -7zM1985 1231l-4 16
q5 0 13 -13q-3 0 -9 -3zM1560 1234v7q6 0 6 -7h-6zM1841 1234v7h3v-7h-3zM2011 1241h6v-7q-6 1 -6 7zM1576 1237v7h3v-7h-3zM1138 1241v6h3v-6h-3zM1416 1237h7q0 7 -7 7v-7zM1887 1241q1 6 6 6v-6h-6zM1896 1241v6h4v-6h-4zM2004 1247v3h7v-3h-7zM2034 1247v7h3v-7h-3z
M2040 1254l7 3h3v-10h-3q-7 1 -7 7zM2053 1254h3q7 0 7 -7h-3q-7 1 -7 7zM2331 1244v6h-7q1 -6 7 -6zM1583 1257v13l6 -3q0 3 3 3v-3q0 -4 -3 -4l3 -6v-3q-6 3 -9 3zM1972 1260h6v-6q-6 1 -6 6zM1664 1257v3h7v-3h-7zM1684 1257v10h6q-3 -7 -3 -10h-3zM1560 1260v7h3v-7h-3z
M2053 1263v4h7v-4h-7zM1824 1267v6h4v-6h-4zM2007 1267v3h7v-3h-7zM2017 1267v3h10v-3h-10zM1641 1270v3h7v-3h-7zM1089 1273v3h7v-3h-7zM2086 1270h6v6h-6v-6zM1125 1276l-6 10v4h3q0 -7 10 -7q0 -7 -7 -7zM1181 1280v6h3v-6h-3zM1570 1283v7h3v-7h-3zM1860 1293v6h4v-6h-4
zM1900 1293v6q6 0 6 -6h-6zM1962 1293q1 6 6 6v-6h-6zM2119 1290h6v3h-6v-3zM1579 1299v7h7v-7h-7zM1612 1299v7h3v-7h-3zM1916 1299v7h3v-7h-3zM1707 1303v6h6v-6h-6zM1909 1306v6h7q0 -6 -7 -6zM1521 1309v3h6v-3h-6zM1596 1309v7q3 0 10 3v-3zM1945 1309v7q7 0 7 -7h-7z
M1687 1312v7h3v-7h-3zM1896 1322q7 -3 10 -3v-7q-5 0 -10 10zM1923 1312v4l6 3h3v-3q-3 0 -9 -4zM1939 1312v10h3v-10h-3zM1821 1316v6h7v-6h-7zM1880 1316v10h3q0 -4 4 -10h-7zM1596 1319v7h3v-7h-3zM1576 1322v7h7q0 -7 -7 -7zM1805 1326v6h3v-6h-3zM1860 1326v6h7
q0 -6 -7 -6zM1815 1332v10q0 5 9 10v-4q-4 -16 -9 -16zM1828 1332v10q7 0 19 10h7v-4q-20 -11 -20 -16h-6zM1690 1335v7h4v-7h-4zM1870 1342q1 6 7 6v-13q-7 1 -7 7zM1860 1345v7h4v-7h-4zM1903 1342h6v6h-6v-6zM1795 1348q1 7 7 7v-7h-7zM1831 1352v6h3v-6h-3zM1805 1355v3
h6v-3h-6zM1815 1355v10h3v-10h-3zM1700 1365v6q7 0 7 -6h-7zM1860 1365v10q6 3 13 3v6h-6v10h10q0 -6 3 -6q6 3 10 3l-3 -7l3 -6q-3 0 -3 -3l-7 3q-16 -3 -16 -13h-4zM1681 1371v4h16v-4h-16zM1808 1371v4h7v-4h-7zM1932 1368h7v7h-7v-7zM1818 1378v3h10v-3h-10zM1841 1378
v3h6v-3h-6zM1824 1384v4h7l3 -7q-6 3 -10 3zM1945 1378h4v6h-4v-6zM1697 1384v7h7v-7h-7zM1919 1381h13v3q0 7 -6 7q-7 0 -7 -7v-3zM1841 1388q1 6 6 6v-6h-6zM1906 1388h3q7 1 7 6t-10 10q0 -3 -3 -3q3 -6 3 -13zM1808 1401v6h3v-6h-3zM1821 1404v6h7v-6h-7zM1717 1410v7h3
v-7h-3zM1795 1424q3 6 3 9h4q0 -5 6 -13v-3q-8 7 -13 7zM1877 1414v6l-4 7l20 3q6 -3 10 -3v6l-20 7q0 -9 -16 -10q0 -3 3 -3l-3 -7v-3q3 0 10 -3zM1730 1424v3h6v-3h-6zM1782 1424v9h3v-9h-3zM1864 1430q6 1 6 7h-6v-7zM1779 1437v6q6 0 6 -6h-6zM1687 1443l3 7v3q0 7 -6 7
l-3 -7v-3q1 -7 6 -7zM1795 1446h10q0 7 -7 7h-3v-7zM1857 1446h7q0 7 -7 7v-7zM2426 1672q5 0 13 13v3q0 10 -13 10q-13 -5 -13 -10v-3q0 -5 13 -13zM1994 1763q5 0 10 10q0 7 -6 7zM112 1835h3q7 1 7 7v6q0 5 -10 10q-7 0 -10 -16zM115 1875q4 0 4 3q3 0 3 -3q75 0 75 29
q16 1 16 10v3q0 46 -36 85q-30 20 -75 20q-52 -12 -52 -82v-13q0 -30 65 -52zM1655 1966h3q6 1 6 7v9h-6zM1671 1992h6q0 7 -6 7v-7z" class="colorcurrentColor svgShape"></path></svg></g></svg>