<svg id="SvgjsSvg1112" width="288" height="288" xmlns="http://www.w3.org/2000/svg" version="1.1" xmlns:xlink="http://www.w3.org/1999/xlink" xmlns:svgjs="http://svgjs.com/svgjs"><defs id="SvgjsDefs1113"></defs><g id="SvgjsG1114"><svg xmlns="http://www.w3.org/2000/svg" viewBox="-10 0 3410 2048" width="288" height="288"><path fill="#ffffff" d="M3217 -57h7q0 7 -7 7v-7zM2045 35h4v11q0 8 -8 8l-3 -8v-3q1 -8 7 -8zM3313 127h4v8h-4v-8zM2535 138q-4 18 -18 34v7l7 11q-17 0 -37 4q0 -4 -3 -4l22 -41h3q8 0 8 11q5 0 11 -11h-11v-7zM3320 138v11q-7 37 -18 37h-4v-22q0 -26 22 -26zM2565 146h7v3h-7v-3zM2756 149h8v8h-15q1 -8 7 -8zM2554 153h11q0 7 -8 7h-3v-7zM2734 157h11q8 1 8 7q-1 5 -19 15q-7 0 -7 -7l3 -8l8 4h4v-4h-8v-7zM2509 194h4v7h-4v-7zM2366 253v7l-19 4v3h8q0 6 -15 11v-3q0 -18 26 -22zM2546 319h11q-18 26 -29 26l3 7v4q-12 -8 -18 -8v-11q0 -11 33 -18zM2318 345
h3v11q0 7 -7 7h-11v-4q0 -5 15 -14zM2347 345v3q-7 17 -15 19q0 -4 -3 -4q2 -10 18 -18zM2406 345v7l-18 4l3 7q0 5 -22 19h-14v-8q0 -16 51 -29zM2237 352h7q0 7 -7 7v-7zM2447 363l3 8v3q0 15 -48 30q-3 -7 -3 -11q17 -30 48 -30zM2215 371h3l-7 11v3h4v-7h7v7
q-9 12 -11 33q6 4 18 4v8l-7 11q7 1 7 7v4q0 6 -33 29l-11 15q18 0 18 7q-5 0 -47 44q-99 45 -122 70l7 12v3q-27 21 -62 70q8 0 14 4l4 -7q-4 0 -4 -4h15v7q-7 0 -7 4q3 7 3 11l-7 -4v11h-7v-3q3 -7 3 -11q-5 0 -11 22h-3l3 7q-29 26 -33 26q-7 -4 -11 -4q0 6 -15 15h-7
q-4 0 -4 -4q-15 0 -33 26l-18 -4l-19 22l-18 -3q-30 11 -30 29l-11 -7q0 15 -11 15l-26 -4l-66 37l-4 26v11q-2 0 -22 3q-11 0 -11 -14h-7q0 48 -33 48q-4 -30 -11 -30l-22 11l3 19q0 7 -44 14q0 3 -18 11h-4l-7 -3q-38 59 -71 59q0 7 -36 11q-2 7 -22 11h-12q4 7 4 11
q-20 26 -40 33q-19 0 -45 -26q-7 1 -7 8q11 0 11 7v22q0 18 -29 41q-5 0 -23 -34v-3q0 -13 12 -26v-7q0 -8 -19 -8l4 -15q-4 -7 -4 -11h4q-4 -5 -4 -22q-13 0 -22 11l4 8v7q0 7 -11 7v23h-8v-8h-3q0 23 -48 37q-25 0 -63 52q4 7 4 11q-3 0 -22 22q-9 0 -37 -11l-8 3
q-6 -3 -14 -3l3 7h-7l-7 -4q8 -22 22 -36v-4q0 -7 -8 -7l-11 7q-10 -33 -62 -55l3 -8q-3 -15 -7 -15q0 -51 18 -51v-4h-14q1 -7 7 -7h15q11 0 11 15h3l8 -4q1 7 7 7h4l11 -7l18 4q3 -20 22 -34l8 4h3q9 -7 15 -7q0 -4 -15 -11l-7 3h-7q-16 -25 -26 -25v-4q11 -12 11 -19h11
q3 0 22 41l19 -11l18 11q0 -44 37 -66q0 -11 7 -11h4v7h4v-7q-4 0 -4 -4h7l11 7h4q0 -11 11 -11v-11l-7 4l-4 -8h7v-3h-7v-8q7 0 7 -7h15l8 4q0 -27 22 -33l25 14q0 -30 45 -55q5 4 18 4v-4h11q0 18 8 18q16 -7 18 -14q26 0 26 14h3q3 0 23 -22q13 8 29 8q38 -51 44 -52l4 7
h-7v4q1 8 7 8h4l-4 -8v-4h7q9 8 15 8q7 -4 11 -4q2 10 15 19q48 -16 48 -23l15 -11l11 8h3q24 -30 48 -33q30 -45 48 -59l22 3q0 -5 -22 -14q-7 3 -11 3l-4 -7v-4q11 -15 22 -66q0 -8 19 -8q-7 12 -7 19q3 35 7 40l-7 19q12 0 18 4l-4 7v4h4q14 -25 29 -30q20 -42 37 -51v-4
q6 0 11 26q23 -8 34 -15h3q0 15 8 15q32 0 95 -67q8 9 8 15q7 -4 11 -4l7 4q17 -6 33 -26q-7 0 -7 -7v-4q0 -5 11 -11h4q7 0 7 19q41 -23 41 -37l-4 -8q0 -16 37 -25v3q53 -9 99 -44q0 -4 34 -29zM1864 415l4 7v8q0 5 -11 11h-7q5 -26 14 -26zM2281 437l7 4q0 18 -48 36
l-3 -7q29 -33 44 -33zM2148 514q11 0 11 8h4v-8h-4q0 -14 19 -14l-4 -8q0 -9 15 -11v-4q0 -5 -11 -11q-30 12 -30 48zM2465 463h19q7 1 7 7q-30 22 -66 37l-4 -7q8 0 18 -34zM1839 466h3v4q-17 43 -40 63h-4q14 -43 41 -67zM2388 474q7 0 7 11h4v-8q-4 0 -4 -3h11v7
q-15 22 -29 22v-15h-4l-4 23h-7q0 -15 -11 -15v-8q37 -4 37 -14zM2299 481l22 4v3q-7 19 -36 30h-4v11l7 -4h8v8q-4 0 -11 3l3 8v3l-18 4h-8l-7 -4q0 13 -40 41q0 -7 -8 -7v7h-4q-7 0 -7 -7v-4l4 -7q-11 0 -11 -8q34 -48 81 -48v4h3q0 -15 26 -37zM2211 488h4v4q0 8 -8 8h-4
v-4q2 -8 8 -8zM2292 496v7q7 0 7 -7h-7zM2185 503v8h4v-8h-4zM2215 503q7 1 7 8l-7 3q-8 0 -8 -7zM2344 507q6 4 18 4l-4 7q4 0 4 4l-11 7h-4v-4l4 -7q-7 0 -7 -7v-4zM2259 518v4h7v-4h-7zM2244 533v3h7v-3h-7zM1695 533h7l4 18h-4q-7 0 -7 -7v-11zM2270 540v7q7 0 7 -7h-7z
M1945 547v11q8 0 8 -7v-4h-8zM1923 555v7h4v-7h-4zM2200 566h3q7 -4 15 -4q0 -7 -7 -7q-5 0 -11 11zM1787 558h7q0 8 -7 8v-8zM2215 573v4h7v-4h-7zM2977 577h41q7 1 7 7l-33 19h-11q-19 0 -22 -11q0 -5 18 -15zM2122 606l4 8h-11q1 -8 7 -8zM1433 610q8 1 8 7l-19 15v-7
q6 -15 11 -15zM2067 614h7v7q-7 0 -7 -7zM1769 643v4h7v-4h-7zM1533 643h11v4h-11v-4zM1964 665v4h7v-4h-7zM1931 669v4h7v-4h-7zM1149 699h11v3h-11v-3zM549 717q6 4 14 4q0 7 -7 7t-7 -7v-4zM597 717h11v4h-11v-4zM1975 721v7h4v-7h-4zM655 746l12 15v11l-8 -3h-7v3h11v4
h-15q-19 0 -22 -11v-11h4q7 4 11 4l-4 -8zM648 754v4q1 7 7 7l4 -7l-7 -4h-4zM1842 761q0 15 -29 15v7h3q19 0 34 -18v-4h-8zM1470 769v3q4 7 4 11h3v-3q-3 -8 -3 -11h-4zM796 776q7 1 7 7v4q-7 0 -7 -7v-4zM2977 776h19q7 1 7 7v4q0 7 -7 7h-15q-5 0 -11 -11q1 -7 7 -7z
M2388 780h7v3q0 8 -7 8q-8 0 -8 -8zM1831 787v7h4v-7h-4zM1297 794q0 15 -15 15v4q11 0 11 3l7 -3h4v7h4v-4q-8 -15 -8 -22h-3zM1805 794v4h8v-4h-8zM1330 798v11q11 0 11 22h4q0 -11 7 -26q-7 0 -7 -7l-8 4zM1739 809v4q4 0 11 3q7 -3 11 -3v3l-4 8h12q-4 -5 -4 -19h4v-7
l-12 7q0 -7 -7 -7q-5 0 -11 11zM1805 802v7h4v-7h-4zM1813 802v3h7v-3h-7zM501 802q5 0 11 11l-8 3h-3q-8 0 -8 -7q1 -7 8 -7zM803 802l4 7l-8 4h-7v-8q4 0 11 -3zM1264 809q0 6 14 11v-7zM2240 805h4q7 2 7 8l-22 11l-3 -8zM1326 813v7h8q0 -7 -8 -7zM1404 813v7h3v-7h-3z
M1441 813v3h7v-3h-7zM1142 813h7v7h-7v-7zM1282 816v12h4v-12h-4zM1315 816v8h4v-8h-4zM1783 820v11h4v-11h-4zM1035 820h4v22q-7 0 -11 -18zM1249 824v4q7 12 7 22h4v-15q-7 0 -7 -11h-4zM1256 824v4h8v-4h-8zM368 824h7q0 7 -7 7v-7zM508 824h7q8 1 8 7v11q0 8 -8 8h-3
q-6 0 -11 -11v-8q1 -7 7 -7zM1334 828v7h3v-7h-3zM1046 828h4v7h-4v-7zM1326 846l-11 -7q-9 0 -33 18q-22 0 -22 15q-7 3 -15 3l-15 -3q0 15 -44 40q0 15 -22 19v11h4q7 -4 11 -4v4l7 -4q22 18 41 19v-8h11v8q22 -10 22 -15q-6 0 -15 -15q9 -22 15 -22q7 4 11 4l-4 -8v-3h11
l-3 7v4h3q1 -15 15 -15v4q0 7 -11 7l4 7v8h-11v-8h-4v8q4 0 4 3l-8 4v-11h-11l4 7v4l-4 7h8v-7h3q0 5 22 22h11q17 -15 34 -15l18 4q5 -27 19 -40v-26q-9 0 -19 -19h4l-4 -7q4 -7 4 -11h-4q-15 4 -26 11zM987 835h8q8 0 11 18h7v-7h4v15q-6 0 -19 22h-3q-11 -11 -11 -26
l-8 4h-4v-8q10 -18 15 -18zM1042 835q8 1 8 7v4h-11q3 -7 3 -11zM810 842v8h-7q1 -8 7 -8zM991 846v7h7v-7h-7zM1194 846v4h7v-4h-7zM1267 846v7h4v-7h-4zM1407 850v3q0 6 11 11q11 -7 30 -7v-11h-22zM1219 850v7h8v-7h-8zM1470 850q1 7 7 7h4q0 -7 -7 -7h-4zM1820 846h8v4
h-8v-4zM1135 853h7v11q-7 0 -7 -7v-4zM1485 864v11h3l12 -7l22 4q7 -4 11 -4q-4 -11 -22 -11h-8q-9 7 -18 7zM1433 868l8 4v-11q-8 1 -8 7zM766 861h7v3h-7v-3zM1444 864v4h8v-4h-8zM891 864h8q9 0 18 30h4v4l-8 11l8 3q0 -5 11 -11h4v19q0 5 -11 11q-20 0 -23 -11v-8l8 -11
v-3q-3 0 -11 11l-26 -15q6 -20 18 -30zM1035 864h7v8h-7v-8zM1297 864q7 2 7 8h-15q2 -8 8 -8zM1308 864h7v4h-7v-4zM475 868q26 0 29 44q0 8 -7 8h-4q-13 -16 -33 -19l-4 -18q1 -5 19 -15zM652 868h3q26 14 26 48q-13 11 -26 11l-18 -4q-6 30 -15 30h-11q-5 0 -18 -19v-14
q0 -6 11 -11h11l11 7v-4l-4 -22q8 -22 30 -22zM1186 872v3h8v-3h-8zM1131 872h7v3h-7v-3zM1323 872h3v3q-14 23 -14 30h-8v-15q5 0 19 -18zM545 875q7 2 7 8v4q0 7 -7 7t-7 -7v-4q1 -8 7 -8zM729 879q13 17 26 19l7 11v3h-11v22q0 8 -7 8h-4q-9 -8 -14 -8l3 -7
q-7 -12 -7 -18q7 0 7 -30zM1628 890v4h4q15 -6 15 -11h-11q-8 1 -8 7zM884 887v7l15 4q0 -6 -11 -11h-4zM1293 883v7h-7q1 -7 7 -7zM364 894q30 0 30 29q-12 11 -19 11q-22 -7 -22 -29q0 -5 11 -11zM807 894h7v7q-7 0 -7 -7zM1647 905h11v-7h-4q-7 1 -7 7zM1831 901h11v4
h-11v-4zM1153 909v7h4v-7h-4zM1651 912v4h7v-4h-7zM792 912h4q5 0 11 11v15q0 22 -19 22q-15 -5 -15 -11v-18q0 -5 19 -19zM740 920v3h8v-3h-8zM527 920q22 0 33 18v4q0 20 -15 26q-28 0 -33 -15v-4q0 -13 15 -29zM1312 920h7v3h-7v-3zM899 923v15q-4 0 -11 4v-4
q5 -15 11 -15zM880 931v3q0 8 -7 8v-4q1 -7 7 -7zM1146 945q1 8 7 8h7l-3 -19q-6 0 -11 11zM1894 938h4q7 1 7 7v4h-15q4 -7 4 -11zM869 942q7 3 15 3v12l-11 -8q0 8 -4 8l4 7v18q0 8 -7 8h-11q-15 -6 -15 -26q7 -15 22 -15q0 4 4 4q3 -7 3 -11zM1171 957l8 3l4 -7v-8
q-6 0 -12 12zM648 945q14 0 44 23q6 0 22 -19h4q55 10 55 37q4 0 11 4l4 -8q-4 0 -4 -3l8 -4q0 8 26 33v4q0 6 -15 15q-54 -26 -55 -26q-26 0 -26 -26h-8v15q12 0 12 7v22q0 8 -8 8l4 7v4q-8 0 -15 -4l-37 18q0 -6 -37 -40v-8l8 -11v-11l-4 -22q6 -15 11 -15zM1190 949v8h4
v-8h-4zM1949 945h8q0 8 -8 8v-8zM1923 949h8v8q-8 0 -8 -8zM1208 957v11h8v-4q0 -7 -8 -7zM1916 953h7v4h-7v-4zM423 957h15q31 0 37 40q-8 22 -30 22h-11q-25 -15 -25 -44v-4q0 -5 14 -14zM501 957h7q0 7 -7 7v-7zM803 957h15q7 1 7 7v7q0 6 -11 11h-7q-8 0 -8 -7z
M1146 964v7h3q8 0 8 -7h-11zM1183 964v4h7v-4h-7zM1006 971v15q-10 18 -15 18l-4 -7v-15q0 -8 19 -11zM899 982h3v8h-3v-8zM836 986h7q0 6 8 15q0 7 -8 7h-7q-7 0 -7 -7v-8q1 -7 7 -7zM372 993l40 23l4 18v11q0 6 -15 15h-15q-28 0 -33 -15q6 -52 19 -52zM869 997
q19 11 19 22q-4 7 -4 11q26 5 26 11v8q0 5 -11 11h-4q-5 0 -11 -11l-22 11h-11v-11l-11 7h-4q9 -24 26 -26l-4 -7v-15q0 -5 11 -11zM213 1001q8 1 8 7q0 8 -8 8q-7 0 -7 -8q1 -7 7 -7zM1492 1004h15q0 8 -7 8h-8v-8zM936 1034v7h14l8 -3q-4 -8 -4 -11q-9 7 -18 7zM1901 1023
h8v4q-4 7 -4 11l-7 -4q3 -7 3 -11zM1920 1023q7 1 7 7h-7v-7zM589 1038h4q5 0 11 11v3q0 6 -11 11q-6 0 -15 -14q0 -6 11 -11zM1186 1041v4h8v-4h-8zM2108 1038h7q-4 7 -4 11h-3v-11zM2071 1049h7v3h-7v-3zM788 1052l22 19v7q-7 0 -7 4q-36 -10 -37 -19q4 -11 22 -11z
M1765 1067h11v4h-11v-4zM1739 1074q30 6 30 12q4 -4 22 -4q0 20 33 33q22 14 22 18l-7 4q0 -4 -4 -4q0 2 -4 15h-15v-3q6 0 12 -8q-4 -7 -4 -11h-8q0 11 -7 11h-4q-7 0 -7 -11h-4l-14 11v-4l7 -14h-4l-11 7h-11q0 -11 -11 -11q0 4 -4 4q0 -19 -7 -19h-4v-7q0 -4 4 -4l-4 -7z
M832 1078h23q5 0 11 11v4q-8 0 -8 11h-11q-22 -10 -22 -15v-3q1 -8 7 -8zM1743 1082v11q4 0 11 4h3v-4q-7 0 -7 -11h-7zM847 1097h8v-8q-8 1 -8 8zM1393 1086h3q8 0 8 11q-8 12 -8 22q8 1 8 7v11q-5 15 -33 15l-4 -26q9 -18 15 -18v7h3q8 0 8 -7v-4h-8q1 -7 8 -7q0 3 3 3v-3
q-3 -8 -3 -11zM2027 1086h7v7h-7v-7zM626 1089q17 7 18 15v7q0 8 -7 8h-11q-5 0 -11 -11v-8q0 -5 11 -11zM913 1093h8q0 7 -8 7v-7zM1769 1097v18h3v-18h-3zM759 1097h14q8 1 8 7v7h-8v4h8q0 -4 3 -4v11q15 -3 26 -11q8 0 26 52l7 -4h4l4 15h-4l-7 -4v11q-15 -1 -15 -11h-4
q-7 1 -7 8l7 11l-3 7l7 4q0 -8 11 -8q30 8 30 30l-30 48q-6 4 -15 4h-7q-10 -3 -30 -48l-7 -4q0 8 -18 11q-48 -13 -48 -18q0 -17 26 -23q0 -8 44 -14l-4 -26v-7l4 -19l-8 4q-19 0 -22 -11v-15q1 -7 8 -7zM803 1097q7 1 7 7l-7 4q-7 0 -7 -8zM549 1100q7 1 7 8v3h-7
q-8 0 -8 -7zM1253 1104l-4 7v4h4q0 -4 3 -11h-3zM899 1104h18v7q-11 0 -11 15q0 7 -7 7h-8q-7 0 -7 -11q7 -16 15 -18zM1702 1104q8 1 8 7v4q0 7 -8 7h-3zM1750 1108v3h7v-3h-7zM1864 1104h8q0 7 -8 7v-7zM681 1111l4 8q0 7 -7 7h-4v-7q1 -8 7 -8zM1264 1115v4h11v-4h-11z
M1857 1111h7v4h-7v-4zM866 1115q18 8 18 37l-11 7h-4q-11 0 -11 -40zM1253 1126v7h3v-7h-3zM1868 1122h7v11h-7v-11zM740 1126h4q7 1 7 7v8q0 7 -7 7h-4q-7 0 -7 -7v-8q1 -7 7 -7zM1385 1133v4h8v-4h-8zM1256 1137v8h4v-8h-4zM685 1156h4q5 0 11 11v3q0 8 -8 8h-7
q-7 0 -7 -8v-7q1 -7 7 -7zM737 1159q7 1 7 8t-7 7v-15zM1205 1163h7v4q0 7 -7 7v-11zM1323 1163q7 1 7 7v4q0 13 -15 26l4 18q-22 16 -22 19l-8 -4q-7 4 -11 4l-3 -8q0 -15 33 -26q0 -3 4 -3l-4 -8v-11q15 0 15 -18zM954 1170h4l11 8l-4 7v22h-18q-8 0 -8 -7q5 -30 15 -30z
M1234 1170v4q0 7 -7 7h-8v-7q2 0 15 -4zM1850 1170q14 6 14 11v8q-11 0 -11 14v4h-7q0 -11 -11 -11v-4q0 -3 4 -3l-4 -8q0 -5 15 -11zM1883 1178h7v3h-7v-3zM1249 1181q22 0 22 22q-10 0 -15 26q4 7 4 11q-9 1 -26 34l-11 7q-5 0 -11 -11v-15l15 -15q-11 -13 -11 -25
q0 -10 33 -34zM508 1185h19l14 11q0 23 -18 33q-26 -5 -26 -14v-19q0 -5 11 -11zM1278 1185h4v7h-4v-7zM1828 1185h7v4h-7v-4zM1864 1196h8v7q-8 0 -8 -7zM689 1200h7v3h-7v-3zM519 1215h8v-8q-8 1 -8 8zM1831 1207l4 8v3h-4q-7 0 -7 -7zM1297 1215v3h7v-3h-7zM1293 1222v4
h7v-4h-7zM1389 1218h7v8h-7v-8zM1404 1218h3l4 19l22 -8q7 4 15 4h7v-11h4q11 0 11 15v11l7 7q8 -4 11 -4v11h-7v4q15 0 15 33q6 0 26 19q7 -4 11 -4l14 15l-7 3l-7 -3v7h7v8q0 4 -40 36l-8 -3h-4l-11 7h-3q-9 -7 -15 -7q-27 6 -37 14l-4 -7l8 -18h-4q-18 9 -18 14
q-7 -3 -11 -3h-8v3h11v4l-3 7l-8 -3h-3v7l-8 -4h-3v4q3 7 3 11l-59 22q-7 -3 -11 -3l4 -8l-8 -3l-11 14q8 4 11 4q0 7 -7 7h-4v-7h-7l7 11h-7l-7 -4q0 23 -41 30q0 4 -7 4q-7 -4 -11 -4q0 -9 14 -11l8 3q7 -3 11 -3v-4h-7l3 -7v-4h-3v7h-8v-11q-7 4 -11 4h-11q0 11 -4 11
q3 22 11 22v8l-55 29q-6 -4 -15 -4q0 22 -11 22h-7q-7 0 -7 -7h7v-7q-6 0 -18 -11q0 4 -4 11v11l-8 3l-7 -3q-7 3 -11 3v-3l4 -8h-4l-4 8l4 7h-7v-11q-6 0 -11 15h11v11q-6 0 -15 7v-3l4 -8h-8l-11 8q0 -15 -11 -15v-4l7 -11v-4l-7 4v-26h4v8h3l8 -4q0 11 7 11v-4
q0 -7 -7 -7q4 -7 4 -11h7q0 16 11 22q7 -4 11 -4q0 4 4 4l3 -7l-29 -15v-4q6 -14 26 -14l7 3q26 -29 26 -44q8 0 15 -4q6 4 14 4h4l11 -7l26 7v-11h-7v-7l14 7v-4l-3 -7l7 -4q7 0 7 15h4q31 -39 48 -48v-4q7 4 11 4v4h-7v3h7v4q0 7 -15 7v15q22 -7 22 -11v-11q18 -11 26 -11
q0 7 15 7v11l-15 -7q0 7 -4 7q6 15 12 15h3q4 0 4 -3l7 3q21 -3 30 -3q0 -12 -22 -12v8h-15v-8l7 4v-7l-3 -8l7 -3h4l7 3v-14l-7 3q-6 0 -11 -11v-3h3l8 3q0 -18 11 -18l3 7v4h-7v7h7q11 -19 11 -29h12l18 3v-14q18 0 18 -8h-7v-7q18 0 18 -11h-3l-8 4q-7 -9 -7 -15h-4v7
q-7 0 -7 -22l-7 4h-8q-7 0 -7 -8q4 -7 4 -11h7v8h7l19 -4q0 4 3 4v-4q0 -5 -22 -11q0 -6 -7 -15v-3h4q15 18 18 18q4 -5 4 -26zM611 1222q26 9 26 37q11 0 11 7v8q0 5 -11 11l-37 -34v-14q8 -15 11 -15zM1459 1229v11h4v-11h-4zM291 1233l3 7l-7 4l-4 -7zM1422 1244v-4
q-7 4 -11 4v4q11 0 11 3q19 -4 19 -11l-8 -3zM1448 1244q1 7 7 7l4 -7h-11zM1437 1255h7v-7q-7 1 -7 7zM825 1255v4q1 7 7 7v-4q0 -7 -7 -7zM1426 1255q1 7 7 7v-7h-7zM1400 1262v8h4v-8h-4zM1695 1259h11v3q0 8 -7 8q0 -4 -4 -11zM1724 1259v7h-7q1 -7 7 -7zM1732 1262h7v8
q-7 0 -7 -8zM784 1266h4q8 1 8 8v3q0 5 -12 11l-7 -11v-3q1 -8 7 -8zM1293 1266l4 19q-4 0 -11 3q0 -8 -4 -14zM1411 1270v4h7v-4h-7zM1422 1277v4h7v-4h-7zM733 1281h4q0 6 7 15l-7 3l-4 -7v-11zM1138 1281h4q7 1 7 7v8q0 7 -7 7h-7v-15h-4q1 -7 7 -7zM180 1285q7 1 7 7
q0 7 -7 7h-4q-7 0 -7 -7zM327 1288h15v8q-6 -4 -15 -4v-4zM1113 1288l7 11v4h-4l-7 -4v4l7 11q-9 33 -15 33q-8 0 -14 -3q-7 3 -15 3l-4 -7q31 -52 45 -52zM1282 1296q7 1 7 7h-7v-7zM1168 1303q26 0 26 18h18q6 0 15 15v8q0 13 -44 18q0 -4 -4 -4q0 9 -22 26v4
q-33 -5 -33 -41v-18q0 -9 44 -26zM1371 1310h3v8h-3v-8zM751 1314q7 17 15 18q0 52 -37 52q-27 0 -37 -18v-15q0 -7 11 -33q3 0 48 -4zM784 1314h4q8 1 8 7v8q0 7 -8 7h-4q-7 0 -7 -7v-8q1 -7 7 -7zM888 1318h11l3 18l-14 4q-4 -7 -4 -11q4 -7 4 -11zM1415 1321q0 4 -4 11h4
q7 -3 11 -3v-4q-4 0 -11 -4zM1437 1325v7h4v-7h-4zM843 1329h8q5 0 11 11v4q-6 14 -26 14h-4q-7 0 -7 -7v-7q0 -6 18 -15zM1079 1332v8h4v-8h-4zM1371 1332v19h11q-8 -9 -8 -19h-3zM1562 1329h8v3h-8v-3zM1385 1340v7h4v-7h-4zM655 1340q8 1 8 7q0 8 -8 8h-7v-8q1 -7 7 -7z
M1511 1351v7h3v-7h-3zM1363 1355v3h8v-3h-8zM1352 1358v4h7v-4h-7zM1400 1358v4h7v-4h-7zM1389 1362v4h7v-4h-7zM1371 1366v7h7q0 -7 -7 -7zM1278 1366h4v3q0 8 -7 8l-4 -8zM1352 1377v7q1 7 7 7v-7q0 -7 -7 -7zM390 1377l4 7q0 7 -8 7l-3 -7q1 -7 7 -7zM877 1377h7q7 1 7 7
v7q0 5 -18 19h-7q-8 0 -8 -7q15 -26 19 -26zM184 1384q7 1 7 7l-7 4q-8 0 -8 -7zM1245 1388v3h8v-3h-8zM1359 1395v8h4v-8h-4zM1230 1406q2 8 8 8q7 -4 11 -4v-7zM1286 1410l7 4l7 -11h-7q-7 1 -7 7zM51 1403q26 0 26 25l-11 8q-26 0 -26 -26zM434 1403v11q-7 0 -7 -8z
M829 1403h3v7h-3v-7zM1017 1403q5 0 11 11q0 7 -8 7q-5 0 -11 -11q1 -7 8 -7zM1271 1406l-4 8l8 3h3v-3q0 -8 -7 -8zM508 1410q5 0 11 11q0 7 -7 7h-4q-7 0 -7 -7v-4q1 -7 7 -7zM674 1410l4 7v4q0 7 -8 7l-3 -7v-4q1 -7 7 -7zM1282 1421v7h4v-7h-4zM925 1421h3v7h-3v-7z
M1197 1432v4h11l8 -11h-4q-9 7 -15 7zM803 1425q5 0 11 11v7q0 8 -18 11l-8 -11q7 -17 15 -18zM1253 1450q7 4 11 4q0 -4 3 -4q-7 -12 -7 -22q-7 0 -7 22zM1267 1428v8h8v-8h-8zM280 1428q7 1 7 8v3h-7v-11zM913 1428h12v8h-4q-8 0 -8 -8zM1186 1450v4l15 4v-15q-9 7 -15 7z
M880 1454h4q7 4 11 4v7h-4q-5 0 -11 -11zM1057 1454h4l11 7h4v-7h7v4q0 8 -22 18v8h-7q-4 -13 -4 -15q5 0 11 -11q-4 0 -4 -4zM622 1461h8q0 8 -8 8v-8zM1197 1480l8 4l3 -8v-7q-5 0 -11 11zM1186 1473v3h8v-3h-8zM622 1476h11v8h-3q-8 0 -8 -8zM1068 1487q8 1 8 8l7 -4l7 4
v-8q-5 0 -14 -7q-8 1 -8 7zM1098 1480v4h18v-4h-18zM431 1480h3v11q-13 4 -14 4v-4q0 -5 11 -11zM781 1484q7 1 7 7q0 7 -7 7h-8v-7q2 -7 8 -7zM442 1495h3v7q0 5 -11 11h-3q-8 0 -8 -7v-4h4l7 4q0 -11 8 -11zM1094 1498v4h7v-4h-7zM726 1498q5 0 11 11l-8 4h-3q-8 0 -8 -7
q1 -8 8 -8zM593 1502h11q7 1 7 7v11q0 6 -11 11h-7q-8 0 -11 -22zM840 1502q6 0 11 18q-6 15 -11 15h-4q-5 0 -11 -11v-7q0 -6 15 -15zM906 1506h7v11h-7v-11zM1013 1506h7q8 1 8 7h-15v-7zM1039 1509q1 8 7 8h4q0 -8 -8 -8h-3zM998 1513h8q0 11 3 26l-3 7q3 7 3 11h-7
q0 -4 -4 -11q4 0 4 -3q-4 0 -4 -4q4 0 4 -4q-7 0 -7 -7q3 -7 3 -15zM1061 1517l-4 7v4h4q0 -8 11 -8v-3h-11zM991 1520v4q0 6 -15 15l-7 -11zM482 1524q15 34 15 41q-6 18 -22 18q-17 -7 -19 -15v-3q0 -18 26 -41zM1046 1528v11h8v-4q0 -7 -8 -7zM939 1535h8l3 22
q-12 -7 -22 -7q0 6 15 15h7v-8l8 4v-15h3q4 0 4 4l7 -4h4v8q-15 0 -15 3v26l-11 7h-3q0 -3 -4 -11q7 0 7 -7q-6 4 -14 4v14l7 -3l4 7q-8 0 -56 37q-82 21 -99 37h-4q0 -15 -11 -15h-4v-7h4l7 3v-14q-3 0 -3 3l-15 -7q0 7 -7 7h-4v-3l4 -8q-4 0 -4 -3l7 -4q2 7 8 7q0 -3 3 -3
q0 3 4 3v-3q0 -4 -4 -4q8 -12 8 -22q-14 7 -30 7v-3q-15 7 -22 7v-7h11v-4h-18l-8 4v-4q2 -8 8 -8h7q4 0 4 4q18 -4 29 -15h19v-7h7q0 6 11 15q-3 15 -15 15v3q0 11 15 11l19 -3q1 7 7 7q0 -11 11 -11l-4 -7q7 0 37 -41h33v11q6 0 11 -11v-11h-7v-7l19 -4q1 7 7 7h7v-11z
M1024 1535l4 8l-8 3h-3v-3q1 -8 7 -8zM1090 1535q8 1 8 8h-8v-8zM921 1546v15q4 0 4 4q-4 0 -4 3h4q0 -3 3 -3q-3 -6 -3 -19h-4zM1109 1543v7h-8q2 -7 8 -7zM615 1546h4q7 0 7 11v4h-4v-7h-3v3q3 7 3 11h-3q-9 0 -11 -18zM984 1550q1 7 7 7q1 -7 7 -7v7q0 6 -11 11h-3v-7h-4
v15h-8q0 -9 -3 -15zM589 1554h11v14h-7q0 -8 -4 -14zM1083 1554h4v7h-11q1 -7 7 -7zM405 1579h7q6 0 11 11v4q0 5 -11 11h-7q-5 0 -11 -11v-4q0 -5 11 -11zM630 1579h3q6 0 15 15v4l-4 7q8 0 8 11h7l-4 -7v-4h8v19q-6 0 -41 29q-15 7 -22 7l-22 -25v-19q23 -33 26 -33h7
l11 7q0 -11 8 -11zM357 1583h11q5 0 18 19v3q0 6 -11 11h-7q-18 -9 -18 -29zM630 1587v7h7q0 -7 -7 -7zM755 1590v8h4v-8h-4zM766 1590v8h4v-8h-4zM633 1598q0 4 -3 11h7q0 -4 4 -11h-8zM843 1598q0 4 -3 11h11v-11h-8zM899 1602v3h7v-3h-7zM1031 1598v7h-7q1 -7 7 -7z
M464 1602h4q4 0 18 18v7q0 6 -11 11q-19 -10 -19 -33zM1013 1605h11q0 8 -7 8h-4v-8zM1194 1605h3q0 8 4 8q-4 7 -4 11h-3q-8 0 -8 -8v-3q1 -8 8 -8zM718 1609h8l3 18h-3q-8 0 -8 -7v-11zM445 1613l4 7v4q-15 0 -15 18l-7 -4l11 -18q-4 0 -4 -4q4 0 11 -3zM593 1616v4h7v-4
h-7zM637 1616v8h4v-8h-4zM880 1624h8v-8q-8 1 -8 8zM1168 1613q18 7 18 22q-7 22 -15 22h-18q-15 -8 -15 -22q8 -22 30 -22zM862 1620v4h11v-4h-11zM788 1624q0 5 15 14q0 -3 4 -3v3q0 11 -11 11v4h3q14 -11 19 -11v-11q-15 0 -15 -7h-15zM821 1624v7h4v-7h-4zM541 1624h8v3
h-8v-3zM622 1635v7h8v-7h-8zM442 1646h3v7q0 7 -7 7l-4 -7q2 -7 8 -7zM755 1649h7v8h-7v-8zM180 1660h4q26 0 26 26q0 6 -12 11h-14q-6 0 -15 -14v-11q0 -6 11 -12zM302 1660h7q5 0 11 12v11q0 7 -7 7h-8q-14 -7 -14 -22zM1253 1664q7 1 7 8v3q0 8 -7 8l-8 -11q1 -8 8 -8z
M773 1668h8v7h-8v-7zM589 1675h8q5 0 14 15v4q0 8 -29 22q-8 0 -8 -8q11 -33 15 -33zM368 1679q15 15 15 29q0 8 -8 8h-22q-14 -8 -14 -19q0 -14 29 -18zM597 1690v7h3v-7h-3zM1223 1705h15q33 5 33 33v11q-6 40 -41 40h-7q-31 0 -37 -47q14 -37 37 -37zM1146 1719q7 2 7 8
v7q0 8 -7 8q-6 0 -11 -11q0 -6 11 -12zM630 1734h7q5 0 11 11v4q0 6 -15 15q-5 0 -11 -11v-11q1 -8 8 -8zM438 1738h4q20 0 26 15v14q0 6 -15 15h-11q-6 0 -15 -15v-18q0 -5 11 -11zM1068 1738q6 0 11 11v15q-3 11 -22 11l-11 -15v-11q4 -11 22 -11zM1455 1738q6 0 15 15v3
q0 6 -11 11h-7q-6 0 -11 -11q7 -16 14 -18zM891 1742h4q5 0 18 18q-7 17 -14 18h-11q-9 0 -11 -18q7 -17 14 -18zM232 1760h11q11 4 11 22q0 5 -11 11h-11q-6 0 -11 -11v-11q0 -5 11 -11zM1577 1771h7q8 1 8 7v8q0 7 -8 7h-11q-7 0 -7 -7v-4q0 -5 11 -11zM762 1778h4
q5 0 11 11q0 6 -11 12h-4q-7 0 -7 -8v-7q1 -8 7 -8zM972 1778h8v8l11 -8v4q0 7 -7 7h-4q-8 0 -8 -7v-4zM1374 1786q8 1 8 7q0 8 -8 8q-7 0 -7 -8q1 -7 7 -7zM1175 1896h8v8h-8v-8zM939 1900h11v15q0 5 -11 11q-5 0 -11 -11v-4q0 -5 11 -11zM1146 1907h3q8 2 8 8q0 7 -8 7h-3
q-8 0 -8 -7q1 -8 8 -8zM534 1941h4q5 0 14 14v8q0 5 -11 11h-22v-30q7 -3 15 -3zM398 1963h3v7h-3v-7zM899 1985h7q7 1 7 7v8q0 5 -11 11q-5 0 -11 -11v-8q2 -7 8 -7zM515 1992h15q8 1 8 8v7q0 5 -11 11h-4q-8 0 -8 -7v-19zM777 1992q5 0 11 11v4q0 7 -7 7h-4q-5 0 -11 -11
q0 -5 11 -11z" class="colorcurrentColor svgShape"></path></svg></g></svg>