<svg id="SvgjsSvg1072" width="288" height="288" xmlns="http://www.w3.org/2000/svg" version="1.1" xmlns:xlink="http://www.w3.org/1999/xlink" xmlns:svgjs="http://svgjs.com/svgjs"><defs id="SvgjsDefs1073"></defs><g id="SvgjsG1074"><svg xmlns="http://www.w3.org/2000/svg" viewBox="-10 0 3710 2048" width="288" height="288"><path fill="#ffffff" d="M3487 -37h25q76 12 76 92q-23 66 -57 66h-3q-26 -25 -57 -25q-47 -28 -47 -57l-4 -22q32 -51 64 -51q0 -3 3 -3zM3632 86l10 13q0 16 -10 19h-9q-5 0 -10 -10q0 -22 19 -22zM3300 342l4 6q0 14 -51 54h-6q6 -8 6 -9q-6 -8 -6 -10v-3q6 0 28 -32q23 -6 25 -6zM3275 361v6l16 -3v-9h-10q-6 1 -6 6zM3259 380h16q0 -6 -6 -6h-3q-7 1 -7 6zM3240 399q7 1 7 6l-13 6l-3 -6zM3215 415v9h-6v-3q1 -6 6 -6zM3221 415h7v6l-13 19l-6 -3h-3v6h-3q-7 0 -7 -6v-3q0 -4 25 -13v-6zM878 446h6q0 4 3 10l-6 3l-3 -6v-7zM903 449h3q7 1 7 7v25h9v6h-6
q-28 -17 -29 -22v-3h4q9 3 9 6q6 -3 10 -3v-3h-10q3 -6 3 -13zM0 658h6q7 0 7 9h6v-6h9q8 0 13 -3q30 0 51 25q-16 10 -23 10q-35 0 -69 -26l3 -6q-3 0 -3 -3zM316 661h12v3q0 6 -6 6h-6v-9zM347 664h7v3h-7v-3zM328 667h10q0 10 16 10v6h-3q-23 -7 -23 -13v-3zM357 667
q6 1 6 7l-6 3v-10zM2375 683q3 0 10 3l18 -3l7 10v19q-48 -4 -48 -16q4 -13 13 -13zM2388 689v7h3v-7h-3zM2394 696l6 3h3v-10h-3q-6 1 -6 7zM2609 702h34q47 0 152 44q49 27 63 86q8 0 13 37q-3 13 -6 13q0 3 3 3q0 43 -41 108l-16 9h-25l-16 3q0 -3 -25 -12l-7 3
q-8 0 -9 -13h-16q-15 -9 -25 -9q-36 9 -41 9v-3l-7 3h-15v6h-7q0 -7 -57 -25q-6 3 -9 3l-6 -3q-6 3 -13 3q0 -6 -6 -6h-4l-15 3q-21 -44 -76 -44v-16q22 -15 22 -31q-3 -7 -6 -29q15 -13 31 -66q7 0 16 -35q45 -41 114 -41zM2893 737h9q5 0 10 9v13q0 4 -10 9h-3
q-16 0 -19 -9q0 -17 13 -22zM2148 756q6 3 9 3q0 -3 3 -3v16h3v-7h4l6 3v-6h6v3q-3 40 -3 44q6 0 19 32l-3 6q6 19 31 29v3q-6 16 -9 16q0 6 22 25l3 6l-12 10l-10 -7l-22 19l3 7v6l-6 9l6 4l13 -7q25 6 25 22h6v4l-12 12h12l10 -6h3q9 0 9 13h7q26 0 38 -45h3v3
q14 -6 28 -6q8 19 19 19l3 -6q40 0 48 54v6l-7 22q5 0 10 9v4q-4 5 -10 25q2 12 10 12v4h-6v3h6q0 -3 3 -3l3 6v3h-6l-6 -3v3l6 10q0 4 -13 9q-19 -8 -19 -19h-9q0 14 -19 16q-3 5 -3 13l3 6q-3 6 -3 9h12q7 0 7 -6q22 6 22 13v12q0 6 -32 16q0 16 -12 47v4q0 9 28 9v10
q0 6 -6 6l3 6q0 10 -10 10q13 19 13 25h-3l-6 -3q0 6 -7 6h-3q-28 -6 -28 -28h-3l-16 12h-3q-13 -2 -26 -34q-5 -1 -25 -16l6 -13q-3 -6 -3 -9h3l7 3q0 -7 9 -7l-3 -6l-6 3q-29 -6 -29 -25h-6v19q-17 42 -22 44q0 -7 -25 -9q-17 34 -57 34q-13 -15 -13 -25h-6q-5 0 -10 10
q3 6 3 9q-22 14 -22 25q16 0 26 16q0 23 -29 25q-17 42 -44 42v-4l-6 4q-26 0 -32 -38h-3q-16 16 -22 31q10 29 31 29v3l-3 6v3h3v-6h7v3q0 6 -7 6h-3l-19 -15q-19 28 -41 44q0 5 -6 13v18q-8 42 -38 42q0 32 -54 53h-3q-38 -4 -38 -31h-3q3 -18 3 -26q-3 -6 -3 -9h-3
l-32 25h-9v13h6q0 10 -12 28l3 22h-7v7q4 0 4 -4q6 4 9 4v3q-16 1 -16 9l13 13q-23 0 -25 9v7l9 -7h3v7q-6 0 -22 9q-12 -3 -35 -22q-19 13 -28 13l-3 -16q4 -19 9 -19q-9 -15 -9 -19q0 -5 38 -54v-3q0 -4 -10 -9q-41 0 -41 28q-10 35 -35 35h-3q-14 -10 -28 -10
q-9 22 -29 22v-3q-3 -5 -3 -12q0 -14 19 -35v-3q-22 -13 -22 -19q10 -35 35 -35q2 0 19 3q0 -9 6 -9q6 1 6 6v3q-6 8 -6 13q5 13 10 13l31 -4v-3l-9 -25h-22v-3l3 -16h-3l-7 3l-3 -6v-6l16 -19q0 -4 -13 -23q7 0 7 -6v-6q-7 -13 -19 -13l-16 3q0 -6 -6 -6l-23 3l-3 -6
q0 -3 19 -19l-22 -19v-10q19 -50 47 -107v-3q0 -3 -12 -10l-6 4h-4q-3 0 -3 -4q-16 7 -25 7q-6 -3 -10 -3l-22 28h-6q-5 0 -13 -13l7 -9q0 -6 -7 -6h-3q0 15 -9 15v-6q3 -6 3 -9l-6 -4h-4q0 10 -12 10l-3 -6q9 0 15 -13q-6 0 -6 -6l3 -7v-9h7v-3q-10 0 -10 -16q8 -6 13 -6
v-7l-7 -9v-10q11 0 16 -19l-6 -3q-6 1 -6 7q6 1 6 6q-17 0 -25 13h-29l10 -19q-10 0 -16 -16h-3q-7 1 -7 6q10 0 16 10q-3 15 -12 15v4l3 6h-3q-10 -3 -10 -6q0 -10 10 -10l-7 -9v-16l3 -7h-3l3 -6v-9q-6 -13 -19 -13q0 10 16 10v3q0 6 -12 6l6 9v7h-19q-10 -2 -16 -22
q-14 0 -22 -19l-6 3q-17 0 -25 -25h6v-4l-6 -9q6 0 6 -6q-3 0 -3 -3q-13 3 -13 18h-3l-6 -3l-13 22h9v-6h7v10h-7v6h4l6 -3v6q0 6 -6 6q0 -6 -7 -6l-9 6l-3 -6v-3h9v-6q-7 0 -13 -4l-3 7l-6 -3h-3l-13 9h-3v-6q6 0 22 -16h-3l-16 3l-16 -19l4 -22q-19 -21 -54 -28l-19 6
l-16 -6l-19 3q-2 -16 -25 -16q0 -13 -25 -22q-18 6 -41 6q-89 -15 -89 -25h6l7 3q1 -6 6 -6v6h3v-3q-2 -12 -16 -25q4 0 4 -4h-7v7h-3v-22h6v-7l-6 4q-5 -13 -12 -13l3 -16h6q0 13 6 13h10v-7l-7 4l-3 -7v-3q22 0 22 6l7 -3h22q23 0 25 10q-7 0 -13 3q-18 -5 -28 -10v7
l10 16q-7 1 -7 6v9h10q0 -11 12 -15v-4l16 4q0 4 -16 15v3h3q7 -3 10 -3l-13 16h13l6 -16h3l10 7l-10 15v4q7 0 26 -26q-3 0 -19 -9v-6h3q10 6 16 6l-3 -6v-7q9 0 9 -25h6v6q13 -2 13 -6q-3 -6 -3 -10l6 -3q6 3 10 3l-4 -6v-3h4q11 9 22 9q5 0 9 -15q13 3 22 9h26v6l-4 7h4
q10 -7 15 -7l60 13q17 -3 29 -3q3 0 28 9v4l-6 9v16h3q0 -13 6 -13h16v3q-3 6 -3 10q3 0 3 3h-6v-9h-6q-7 0 -7 18h-16v-6h-6q3 16 13 16v6q0 3 -3 3q3 7 3 10h12l16 3v3q0 7 -9 7v3h12q0 -4 3 -10l7 3h6q0 -6 -6 -6q0 3 -3 3v-12l-7 3h-3v-7q8 0 16 -22q-3 -5 -3 -12h3
q42 28 60 28v6h13v-3l-7 -9v-3q1 -7 7 -7h3q0 6 9 16q-6 3 -9 3v13h3l6 -3q6 3 13 3l-6 -10q3 -6 3 -9l6 3h3q0 -2 6 -13h4q6 0 6 10q5 0 9 -16q-3 0 -9 -3q-13 3 -22 3l-13 -9q0 -14 29 -19q0 -5 9 -10q0 5 10 10h3v-3h-7v-4l7 -9v-3q0 -3 -3 -3l3 -7v-6h-7v-6h7q9 3 9 19
v6q0 22 -9 22v10l3 6q-6 0 -10 25q22 6 35 22h3v-6q10 0 64 25h22q13 0 25 -6l6 3q48 -10 60 -19h13q0 6 6 6v4l-12 18v7q0 3 22 19l-19 9h-3q-26 -16 -35 -16q-10 7 -16 7v-3l-32 6q-17 -3 -28 -3h-25v3q4 7 44 25q7 0 13 -3q19 5 19 10l31 -16l6 3l13 -6l3 6l32 -3h9v-10
l-6 -9v-7q1 -6 6 -6h16q3 0 3 3q22 -9 35 -9h6v6h10q15 -8 16 -13v-9q5 -3 12 -3h3v6h7q0 -19 19 -19q0 -13 101 -41v-3q0 -3 -3 -3l3 -6v-10h-7v13h-6v-26h19v-3h3q6 0 6 10q-3 6 -3 9q11 7 16 7v-7h-6v-12h6l-6 -10v-3q22 14 22 19q5 -3 13 -3l-4 -7v-6l4 -6q-7 0 -7 -7
l10 -6q0 10 3 22h-6v3q6 0 6 4q6 -4 9 -4q6 4 10 4l-7 -10v-16q7 0 7 10h3q0 -4 3 -10h-9q3 -6 3 -9h6v6l6 -3l13 9v-12l-6 3h-3q0 -9 -10 -9v-7h3q3 0 3 3q10 -3 10 -6q-3 -6 -3 -9l6 -4l6 4l4 -7v-6h-7v-6h3q5 3 16 3q1 -7 6 -7h4q0 4 3 10q-13 0 -13 13l35 15v-3
q-3 -6 -3 -9h-10l-16 -3v-4q5 -11 32 -12v-3h-6q5 -26 16 -26q1 7 6 7h9l-3 -16q6 -3 10 -3zM2306 756h6q4 0 9 9v7q0 4 -9 9h-6q-5 0 -10 -9v-7q0 -4 10 -9zM2381 759q13 5 13 9v10q-9 16 -22 16l-6 -10v-3q0 -22 15 -22zM16 768h6q22 0 38 16v3h-16v-6h-6l3 6l-6 3h-10
q-4 0 -16 -15q1 -7 7 -7zM2078 768h3l3 13l-6 3h-3l-3 -12zM2110 768h6q0 7 -6 7v-7zM2119 775v3h7v-3h-7zM2157 778q1 6 6 6v-6h-6zM28 781v6h4v-6h-4zM88 781h7v16h-3l-7 -3q3 -6 3 -13zM111 781h15q0 5 -9 9q-6 0 -6 -6v-3zM136 781h6l16 3v3h-10l-6 -3q0 3 -3 3
q6 11 6 16h-3l-22 -3v-6h3l6 3l4 -7l-4 -6zM2091 787h6q0 4 3 10h-9v-10zM3534 790q60 35 60 57v10q-23 47 -50 57q-6 0 -19 6q-35 -8 -35 -28q-13 -27 -13 -35q0 -51 54 -67h3zM174 794h3v6h-3v-6zM155 797h6v6h-6v-6zM2059 816v3h7v3q0 6 -10 6v7h13q0 -11 3 -16
q-4 0 -10 -3h-3zM1465 816h4v9l-7 3v-3q3 -6 3 -9zM2163 822q1 6 7 6v-6h-7zM2018 822l3 6q-6 0 -6 7h-6v-3q0 -5 9 -10zM2223 822q7 10 7 19v6l-16 7q-13 -5 -13 -10v-12q0 -8 22 -10zM2217 832v3h6v-3h-6zM2072 841q1 6 6 6h3q0 -6 -6 -6h-3zM448 841h7v6h-7v-6zM1418 841
q6 1 6 6l-9 7l-3 -7q1 -6 6 -6zM1450 841q6 3 9 3l-3 16h-3l-10 -6l-9 6v-3q0 -3 16 -16zM328 844h10q0 6 -6 6h-4v-6zM490 844h3q6 3 9 3l-3 7q-6 -4 -9 -4v-6zM2088 850v4h6v-4h-6zM325 850q7 1 7 7h-7v-7zM632 850q3 0 3 4l16 -4h9q69 19 95 19q59 -6 76 -6h6v6h6v-6h67
q3 0 3 3l6 -3h3v3q-4 22 -12 22q-7 0 -7 -6h7v-3h-7v3l-6 -3h-3l-3 13h3q3 0 9 -4l7 4q6 -4 9 -4v4q-3 5 -3 15h-6q-7 0 -7 -9h-6v6h-10q0 -9 -15 -9v6h9v6q-5 0 -9 10q-14 -6 -95 -10q0 -8 -155 -15q0 -4 -3 -4t-3 4q-63 -4 -63 -13l3 -6q-50 7 -57 12q-19 -3 -19 -9v-7h6
v7q6 -3 10 -3h9q0 -10 16 -19q18 0 38 6q6 -6 73 -10zM1968 850h6v4h-6v-4zM2040 854v6q7 0 7 -6h-7zM2053 854v6h9q0 -6 -6 -6h-3zM2066 854v3q3 6 3 9h15v-12h-3q0 6 -3 6zM344 854h3v6h-9q1 -6 6 -6zM467 857h7q0 6 -7 6v-6zM518 860v6q6 0 6 -6h-6zM531 860v6h12v-3
q-7 0 -12 -3zM1450 860v9q-7 0 -7 -6zM1996 860v6h-6q1 -6 6 -6zM1832 863l6 3q6 -3 10 -3v6q-8 0 -13 4l-3 -7v-3zM2043 866v7h4v-7h-4zM903 869v4q4 0 10 3v-7h-10zM1405 866h7l3 16h-6zM1434 866h6q-3 6 -3 10h-3v-10zM1115 873v6q6 0 6 -6h-6zM2075 873v6h3v-6h-3z
M745 882h7v-6q-7 1 -7 6zM831 876v6q3 0 9 3v-3q0 -6 -6 -6h-3zM1058 876v6h3v-6h-3zM761 879v3h6v-3h-6zM966 879q0 9 -6 9q0 -6 -6 -6h-3q3 4 3 16h-3v3q6 8 6 13q6 0 6 -7h-6q0 -4 9 -9q0 3 4 3l6 -16zM1156 879v6h3v-6h-3zM1191 879v3h6v-3h-6zM1450 879q0 16 6 16
q6 -3 9 -3v-7h-9l3 -6h-9zM1775 876h6q7 1 7 6v3l-7 -3q0 3 -3 3l-3 -6v-3zM2002 879v6q9 0 32 22q0 -3 3 -3q0 3 3 3v-3q0 -8 -16 -9l4 -7q-9 0 -13 -9q-6 3 -9 3q0 -3 -4 -3zM2021 879v3h7v-3h-7zM2034 885h6v-6q-6 1 -6 6zM1765 882h7q0 6 6 6v7h-3q-5 0 -10 -10v-3z
M749 888v7h3v-7h-3zM818 888v7h3v-7h-3zM1276 888v4q1 6 6 6v-3q0 -7 -6 -7zM1428 888v7h3v-7h-3zM2040 888v4h7v-4h-7zM846 892v12h4l3 -12h-7zM1105 892v9q7 0 7 -6zM1434 892q3 6 3 9h3v-9h-6zM1405 892h10v9h-3q-7 0 -7 -6v-3zM1964 895v6l7 3h3v-3q-6 0 -6 -6h-4z
M1977 895v3h6v-3h-6zM2006 895v6h9v-3q-3 0 -9 -3zM831 898v3h6v-3h-6zM1020 895h6v6h-6v-6zM925 901q7 0 7 9v4h-3q-4 -11 -4 -13zM973 904v6h6v-6h-6zM1320 901h6q7 1 7 6q0 7 -7 7zM1996 904v6q5 13 10 13l3 -6v-3q0 -5 -13 -10zM2015 904v3h6v-3h-6zM1968 907v3h6v-3h-6
zM1980 907v3h7v-3h-7zM2088 907v3h6v-3h-6zM1349 910v7h6q0 -7 -6 -7zM2441 910v7q7 0 7 -7h-7zM1434 910h3v4q-6 0 -6 6q-7 0 -7 -6q7 -4 10 -4zM2015 914v3h6v-3h-6zM2280 910h7v7h-7v-7zM1942 917v12q8 -6 16 -6v-6h-16zM2258 914h3v6h-3v-6zM1314 917h6q0 16 -9 19
q0 -3 -3 -3q6 -11 6 -16zM1279 923v6h3v-6h-3zM1443 929h3q7 0 7 -6h-3q-7 1 -7 6zM1456 923v3h6v-3h-6zM1339 926v7h3v-7h-3zM976 929v4h6v-4h-6zM1055 929l-3 13q6 -3 9 -3v-10h-6zM1892 929v7h9q0 -7 -6 -7h-3zM2043 929v4h7v-4h-7zM2255 926h6v7h-6v-7zM1355 933v6h6
q0 -6 -6 -6zM2069 933v3h6v-3h-6zM2287 929q4 0 9 10v3q-5 0 -13 6l-12 -12v-3h3l9 6h4v-10zM3455 929h6q36 18 45 38q0 22 -32 41h-25q-22 -12 -22 -38v-6q0 -19 28 -35zM989 936v6h6q0 -6 -6 -6zM1026 936v6h7q0 -6 -7 -6zM1039 936q0 8 -6 16q3 0 9 3l3 -16zM1399 936
l-3 6v3h9v-3q0 -6 -6 -6zM1450 936v6h6q0 -6 -6 -6zM1914 942h6v-6q-6 1 -6 6zM1993 936v9h6q-3 -6 -3 -9h-3zM1090 939v3h6v-3h-6zM1124 939v3h7v-3h-7zM1279 939v3l3 16h7l3 -13zM2015 945h6v-6q-6 1 -6 6zM1428 961q3 0 3 3q-13 0 -13 6l10 7h3q0 -4 3 -10q-3 0 -3 -3
l15 -9q0 3 4 3v-13q-6 -3 -13 -3q-5 0 -9 19zM1055 952l6 3v-10q-6 1 -6 7zM1068 952h6v-7q-6 1 -6 7zM1421 945v7h3v-7h-3zM1456 945q1 7 6 7v-7h-6zM1412 955l-3 6h9q0 -6 -6 -6zM1516 955v9h3v-9h-3zM1456 958v6h3v-6h-3zM2002 958l-3 6h10q0 -6 -7 -6zM1276 970v10l6 9
q0 4 -3 4q5 12 10 12h6v-3l-10 -16q13 -5 13 -22v-3h-9q-8 9 -13 9zM1317 961q3 6 3 9h6v-9h-9zM1481 961v3h7v-3h-7zM1668 961l-7 13v3h3q0 -10 10 -10q0 -6 -6 -6zM1677 961v6h3v-6h-3zM1462 964v6h7v-6h-7zM1791 961h3l6 3q-3 6 -3 10q-6 0 -6 -7v-6zM1879 964v3h7v-3h-7
zM1304 967l-3 7q7 0 13 3v-7q-4 0 -10 -3zM1450 967v3h6v-3h-6zM1563 974h7v-7q-7 1 -7 7zM1642 967v10h3v-10h-3zM1816 967q0 4 -16 19q1 7 7 7q0 -4 3 -4l3 7q0 4 -10 9q-15 0 -15 -19h-4q0 9 -9 19v3l13 -6v6h-7v7h10v-7h6l10 7q0 -7 3 -7l15 4v6l-15 -3v3l3 6q-3 0 -3 3
l-7 -3h-9v3q0 7 19 10l-3 6q6 1 6 6q-2 10 -25 10h-3l-23 -16v-3h-6q0 6 -16 13h-3v-7q-8 16 -12 16h-4v3q5 13 16 13v6l-3 7l16 3q6 -3 9 -3q7 12 7 22h6q9 0 19 -7q23 13 28 13q0 -3 3 -3q0 5 29 9v7h-6v3q0 4 9 9q3 -6 3 -9h13v9q6 0 6 -6q-6 0 -6 -6v-7h3q13 5 13 10
q-3 0 -3 3h9l9 -6h4q19 0 31 22h7v-10q-9 0 -13 -12q-11 -15 -22 -16q0 -7 -13 -7l3 7v3h-6l-6 -3l3 -16v-3h-6v19h-16q0 3 -13 3l-3 -6q3 -6 3 -13v-3l-6 3h-3l-4 -13q7 0 7 -6v-3q-10 0 -10 -6q7 0 7 -7q0 -6 -10 -6v-6h10v-7h-7v-3q6 0 22 -16h16q0 -15 25 -22
q-2 -8 -15 -16q0 5 -10 10l-9 -6h-7l-22 3q0 -5 -12 -10l3 -6v-3l-7 3q0 -13 -6 -13h-3zM1838 967v7h3v-7h-3zM2062 967v3q4 0 10 4v-4l-6 -3h-4zM1260 977h6v-7q-6 1 -6 7zM1532 970v4q3 6 3 9q10 -6 19 -6q0 -7 -6 -7h-16zM1630 970v7h6v-7h-6zM1886 970q0 4 -4 10h7v-10
h-3zM1589 974v9h6v-3q0 -6 -6 -6zM1983 974v3h7v-3h-7zM1402 983l-6 -3v9l6 -3q0 3 3 3v-6h7l6 3l3 -6l-6 -3h-3zM1437 977v6h3v-6h-3zM1557 977v12h10v-9q-4 0 -10 -3zM2119 977v6h3v-6h-3zM1266 980v9h10q0 -4 -10 -9zM1298 980v13q3 0 10 3q0 -3 3 -3l3 6q-15 6 -16 13v3
h16q0 -11 9 -22q-16 -13 -25 -13zM2015 980v3h6v-3h-6zM1462 983v6h3v-6h-3zM1854 983q1 6 6 6v-6h-6zM1326 986v10h7q-3 -6 -3 -10h-4zM1431 986q0 4 -3 10h6v-10h-3zM1576 986l-3 7q6 -4 9 -4v-3h-6zM1257 989q1 7 6 7v-7h-6zM1816 986q6 1 6 7v6h-6v-13zM1740 996v6h7v-6
h-7zM1390 1005v3h6l3 -6q-6 3 -9 3zM1412 1002v13h-3l-7 -3v3l10 12v4q0 6 -7 6q-6 0 -6 -10h-3l-3 19h12l10 -6q7 0 9 16q-3 0 -3 3h13v-6q-10 0 -10 -7v-9l7 3v-3q-5 0 -10 -10l3 -6q-12 0 -12 -6l6 -3q-3 -7 -3 -10h-3zM1421 1002v6h3v-6h-3zM1450 1008h6v-6q-6 1 -6 6z
M1927 1005v7q6 0 6 -7h-6zM1276 1008v7h9q0 -7 -6 -7h-3zM1728 1008v7h3v-7h-3zM1740 1012v6h3v-6h-3zM1983 1018v3q7 0 7 -6v-3q-7 1 -7 6zM1339 1015v6h3v-6h-3zM1431 1021q1 6 6 6l6 -3q-3 -6 -3 -9h-3q-6 1 -6 6zM1747 1015v6h3v-6h-3zM2047 1015v3h6v-3h-6zM1244 1024
l7 3v-9q-7 1 -7 6zM1282 1021q0 3 -3 10q6 3 10 3h3v-3q-7 0 -7 -10h-3zM1453 1021v6h6q0 -6 -6 -6zM1939 1021v3q0 5 10 10v-3q-3 -7 -3 -10h-7zM1781 1024v3h7v-3h-7zM1374 1027v7h3v-7h-3zM2028 1034v6h3q6 0 6 -6v-3q-6 3 -9 3zM1446 1034v3q1 6 7 6l3 -6v-3h-10z
M1781 1034v12q7 0 7 7h3q0 -4 9 -16q-2 0 -19 -3zM1819 1031l3 6h-9q1 -6 6 -6zM1747 1037v3h6v-3h-6zM1974 1040q0 6 -13 16q3 0 3 3l7 -3l19 3q0 -13 6 -13h3l-3 7v3q11 -10 19 -10v-3q-2 0 -19 -6q0 6 -6 6q-4 -3 -16 -3zM3493 1034q12 0 25 19q0 28 -22 28
q-19 -6 -22 -16v-6q0 -19 19 -25zM1241 1046h3q7 0 7 -6h-3q-7 1 -7 6zM1279 1040v6h3v-6h-3zM1800 1046v7h3v-7h-3zM1892 1046v7h3v-7h-3zM1273 1049q0 7 -7 7q1 6 7 6q0 -5 6 -13h-6zM1358 1049v4q3 6 3 9q-6 3 -9 3v3q9 0 9 19q6 -3 13 -3l-3 -6v-16q-8 0 -10 -13h-3z
M1440 1049q1 7 6 7h4v-7h-10zM1317 1053v6h3v-6h-3zM1345 1053v6h4v-6h-4zM1946 1053v6h9v-6h-9zM3165 1049l6 4l6 -4q30 0 63 51l4 19v6q0 7 -4 13q4 6 4 9q-22 33 -48 45q0 7 -82 15h-6q-15 0 -29 -44q-14 -16 -15 -25l3 -6l-7 -16q0 -38 70 -63q21 -4 35 -4zM1484 1056v6
h4v-6h-4zM1876 1059v6h3v-6h-3zM1892 1065h6v-6q-6 1 -6 6zM1968 1062q1 6 6 6h3v-6h-9zM1987 1065v3h6v-3h-6zM2069 1065v7q6 0 6 -7h-6zM1235 1068l3 7q-6 0 -6 6h-7v-3q0 -5 10 -10zM1402 1072v6h7v-6h-7zM1996 1072v6q6 0 6 -6h-6zM1469 1078v3h6v-3h-6zM1895 1078v3
q3 6 3 10h6v-4q0 -4 -9 -9zM1260 1078q5 0 10 9h-7v7l7 -3v6q-7 0 -19 12q-8 -12 -13 -12q10 -8 10 -13h3v7h3q6 0 6 -13zM1443 1081v6h3v-6h-3zM1993 1087v4q6 0 6 -7v-3q-6 1 -6 6zM2056 1081l-6 10h6q0 -7 6 -7v-3h-6zM1728 1084v7h6q0 -7 -6 -7zM1961 1084q0 5 10 10v-3
q0 -7 -7 -7h-3zM1459 1087v10h6v-3q0 -7 -6 -7zM1747 1084h3v7h-3v-7zM1248 1094v3q1 6 6 6v-3q0 -6 -6 -6zM1279 1091h10v6h-10v-6zM1434 1097v3q1 6 6 6v-9h-6zM1734 1097v6h3v-6h-3zM1747 1103v3q6 0 6 -6v-3q-6 1 -6 6zM1958 1097v6h6v-6h-6zM502 1097h32v12h-3v-9
q-7 1 -7 6q3 0 3 3q-8 7 -31 10q-8 0 -38 -6v-4q0 -12 44 -12zM493 1106v7h6v-13q-6 1 -6 6zM1740 1100v6h3v-6h-3zM1968 1100q6 7 6 22q6 0 6 -6l-3 -16h-9zM467 1109h10v-6h-3q-7 1 -7 6zM512 1103v3q3 0 9 3v-6h-9zM1472 1103v6h6v-6h-6zM1440 1116h6v-7q-6 1 -6 7z
M1459 1109v7q6 0 6 -7h-6zM2006 1109v7h3v-7h-3zM1421 1113v6h3v-6h-3zM1431 1113v3h6v-3h-6zM2549 1109h6q5 0 13 13v10q0 5 -13 12q-16 -4 -16 -9v-7q2 -19 10 -19zM1743 1116v6h7q0 -6 -7 -6zM1990 1138v6l3 7q16 -7 16 -19q-7 0 -7 -16q-12 5 -12 22zM1434 1119v9h3
q0 -3 3 -9h-6zM376 1122h6q0 6 -6 6v-6zM1446 1128v7h7v-7h-7zM1892 1128h6v4h-6v-4zM1753 1138v6h3v-6h-3zM1431 1141v3h15v-3h-15zM1917 1141l3 6q0 10 -34 22l-7 10v9l19 -15h3v6h7v-3l-4 -7l7 -3h6q0 16 16 16v-13h-13l3 -22v-6h-6zM1879 1144v10q7 0 7 -7v-3h-7z
M1908 1144q0 4 -4 10h7q0 -4 3 -10h-6zM1949 1144v3h9v-3h-9zM1870 1151v3h6v-3h-6zM1892 1151v9h6q-3 -6 -3 -9h-3zM1728 1166q3 10 19 10h15v-7l-12 -15q-22 7 -22 12zM1987 1154q1 6 6 6l3 -6h-9zM2264 1160v13l13 3q0 3 -3 3q0 9 13 9q0 8 -4 13q0 10 35 25
q10 -3 10 -19v-3q-27 -37 -54 -47q-6 3 -10 3zM1939 1160v6h3v-6h-3zM2094 1163v3h6v-3h-6zM1481 1166v7h3v-7h-3zM1870 1166v3h6v-3h-6zM1939 1176q5 0 19 9v-3q0 -16 -6 -16q-13 5 -13 10zM2223 1166v3l4 23h9q-6 -23 -6 -26h-7zM1832 1169v7q6 0 6 -7h-6zM2024 1169v4h10
v-4h-10zM1999 1173v6h3v-6h-3zM1860 1179v6h3v-6h-3zM1851 1192v6q12 -5 12 -10h-3q-6 4 -9 4zM1895 1188v4q9 0 9 12q7 0 7 -6q0 -8 -13 -10h-3zM2277 1192v6h3v-6h-3zM1920 1195v6q7 0 7 -6h-7zM1863 1201v3h7v-3h-7zM2113 1204l3 16v35h6q13 -37 13 -44v-4q-5 0 -13 -6
q-6 3 -9 3zM1311 1204h12v3q0 5 -19 16h-6l-6 -3q4 -13 9 -13h3v7h7v-10zM1800 1220v3h7v-3h-7zM1898 1223v16h6v-10q0 -6 -6 -6zM1446 1226h4v3q-2 9 -16 13v-3q0 -5 12 -13zM2463 1252h10q5 0 13 12v10q-6 12 -23 12l-12 -15v-7q0 -5 12 -12zM2463 1258v3h10v-3h-10z
M1876 1264v3h10v-3h-10zM2505 1274h12q5 0 16 19q-6 19 -16 22h-3q-22 0 -22 -22v-7q0 -5 13 -12zM1810 1280v6h6v-6h-6zM2350 1283v10h6v-10h-6zM2508 1283v3h9v-3h-9zM1974 1308q8 21 16 23h6l3 -29q-7 0 -9 -16q-11 0 -16 22zM2337 1286v10h6v-3q0 -7 -6 -7zM1879 1293v6
q7 0 7 -6h-7zM2129 1299q23 3 28 6q-1 13 -9 13q1 6 6 6h6v-22h7v3l-4 7l7 3q9 -8 9 -16h3q11 13 19 13q0 -5 10 -10h3q-7 13 -16 13v19l-6 -3h-6v3l6 9v3h-6l-23 3q0 -3 -3 -9q3 -6 3 -9q-3 0 -3 -4l-6 4q-13 0 -22 -26h-6l-4 13h4l6 -3v6q-13 0 -13 13h-3v-22q0 -5 13 -13
zM1317 1302h6v3h-6v-3zM1829 1312v6h3v-6h-3zM2189 1312l-3 6h9q0 -6 -6 -6zM1326 1312h7v6h-7v-6zM2223 1312h10q6 1 6 6q-6 1 -6 6v7h6q0 -10 7 -10h3v6q0 7 -26 10l-3 -6v-4l7 4h3l-3 -7l3 -6h-7v-6zM1304 1318h10v6h-3q-7 0 -7 -6zM2546 1321h9q5 0 13 13v12q0 5 -13 13
h-9q-13 -5 -13 -22v-3q0 -5 13 -13zM2170 1331v3h6v-3h-6zM2176 1337v3h6v-3h-6zM1838 1346v3h10v-3h-10zM1895 1387v7h3v-7h-3zM2539 1394h7v6h-7v-6zM2552 1397h13v3h-13v-3zM2261 1409h7q4 0 9 10q-5 10 -9 35q33 0 38 6h6q12 -9 28 -9q0 4 35 34q0 4 3 10q0 38 -41 38
q-17 0 -25 -45l-6 -3q-19 16 -32 16q-5 0 -13 -13v-15l10 -13q-4 0 -10 -3q-3 9 -19 9h-9q-10 -2 -10 -25q13 0 13 -6h-9v-3q6 -13 34 -23zM1582 1425q6 3 16 3v10l-9 -6q0 6 -7 6h-3v-6zM1567 1432h6v9q-6 0 -6 -6v-3zM2246 1447q3 7 3 10h6v-10h-9zM1731 1466v7h3v-7h-3z
M2271 1473h6v-7q-6 1 -6 7zM1999 1479q41 0 41 51l-6 3l3 6q-18 47 -57 47h-3q-20 0 -35 -34v-13q0 -44 57 -60zM1734 1488q-16 20 -16 29h13q22 -16 22 -19q-3 -10 -19 -10zM2271 1488v4h6v-4h-6zM1759 1517v9h3v-9h-3zM1551 1526v7q6 0 6 -7h-6zM1955 1526v7h6v-7h-6z
M2381 1523h4q6 1 6 7v9q0 5 -10 9h-6q-6 0 -6 -6v-6q0 -5 12 -13zM1724 1536v9h7l-3 -6q3 -6 3 -9q-7 1 -7 6zM2378 1536v6h7q0 -6 -7 -6zM1759 1545h3v7h-3v-7zM3076 1583q5 0 10 10q0 5 -13 12h-3v-6q9 0 9 -6v-3h-3l-6 3v-3q1 -7 6 -7zM1715 1612h6v-7q-6 1 -6 7z
M3345 1681q56 18 56 44l19 41v13q-22 63 -50 63q0 4 -22 10q-31 0 -70 -60q-6 -17 -6 -26q0 -46 73 -85zM2786 1700q4 0 9 10v3q0 6 -6 6h-3q-7 0 -7 -6v-7q1 -6 7 -6zM1927 1766h6v4h-6v-4zM1917 1770h6v3h-6v-3zM1225 1934q7 0 7 9q-40 63 -70 63q-6 0 -6 -6q4 -24 69 -66
zM3351 1950q23 7 38 31v13q-3 38 -32 38q0 6 -6 6h-6q-38 -19 -38 -47q0 -32 44 -41z" class="colorcurrentColor svgShape"></path></svg></g></svg>