<svg id="SvgjsSvg1016" width="288" height="288" xmlns="http://www.w3.org/2000/svg" version="1.1" xmlns:xlink="http://www.w3.org/1999/xlink" xmlns:svgjs="http://svgjs.com/svgjs"><defs id="SvgjsDefs1017"></defs><g id="SvgjsG1018"><svg xmlns="http://www.w3.org/2000/svg" viewBox="-10 0 3410 2048" width="288" height="288"><path fill="#ffffff" d="M997 -33h7v7h-7v-7zM2847 122l3 6v6h-9v-6q1 -6 6 -6zM1612 137h6q6 1 6 6v3q0 5 -9 10h-3q-6 0 -6 -6v-7q1 -6 6 -6zM1457 205h7v6q-7 0 -7 -6zM1244 255h7q6 1 6 6v9q0 6 -6 6h-4q-4 0 -9 -9v-6q1 -6 6 -6zM1488 273h13v6h-10v6q10 0 10 4l6 -4h3v13l-6 -3h-3v6l6 -3v9q0 4 -9 9h-13q-6 0 -9 -27h3l-3 -7v-3q5 0 12 -6zM1482 285v7q3 0 3 3q-3 0 -3 3q13 0 13 12h6l-6 -21h-4l-6 3v-7h-3zM1322 285h3q5 0 12 13v3q-32 31 -40 31l3 6v3h-6q0 -9 -6 -31q12 -9 18 -9q0 3 3 3q0 -12 13 -19zM1315 304h13v-6h-6q-7 1 -7 6zM1232 301h6q6 1 6 6v9
q0 5 -9 10q-4 0 -9 -10v-9q1 -6 6 -6zM1281 353l7 10v6q0 6 -7 6h-3q-4 0 -9 -9q0 -5 12 -13zM1275 369h6v-6q-6 1 -6 6zM1473 363l3 6v12q0 6 -6 6h-6q-5 0 -10 -9v-6q3 -9 19 -9zM1244 394h7v3q0 6 -7 6v-9zM1257 403h9q0 6 -6 6h-3v-6zM1229 406q6 3 9 3v6h-3q-6 0 -6 -6
v-3zM1244 406q7 1 7 6v6q-4 0 -10 3l-3 -6q6 0 6 -9zM1260 415h9v6q-7 10 -9 28h-3q-5 0 -10 -9v-9q8 0 16 -7l-3 -6v-3zM1235 431h9v6q0 6 -6 6h-3v-12zM1362 431q9 12 9 18l-9 6h-3q-7 0 -7 -6v-9q0 -5 10 -9zM1244 449h10q0 6 -7 6h-3v-6zM1204 461h6v7h-6v-7zM1130 468
h6v9h-6v-9zM1158 474h6v9h-6v-9zM1201 474h6q0 6 -6 6v-6zM1136 480h3q12 12 16 12v3q-7 0 -22 13v-16q6 0 6 -3q-3 -6 -3 -9zM1837 480h7v3h-7v-3zM1217 486q0 3 3 9h-10v-3q1 -6 7 -6zM1136 511q5 0 10 9h-4q-6 0 -6 -6v-3zM1269 520h6l10 6h6l6 -3q0 3 3 3l-3 6q3 6 3 13
l-19 12h-12q-12 -5 -12 -21v-4q0 -4 12 -12zM1275 588h6q5 0 13 12v4q0 21 -16 21q-12 -4 -12 -9v-19q0 -4 9 -9zM1553 588h6v6q0 6 -6 6h-3q-6 0 -6 -6v-3h3l6 3v-6zM1414 594l3 6q-6 1 -6 7v3h3q10 -16 28 -16q13 4 19 16v18q0 16 -7 16q16 17 16 27v4q0 4 -9 9h-10
q0 -5 -34 -50h-9l-6 3v-3l9 -12v-3l-6 -9v-6q0 -5 9 -10zM1380 622q6 3 10 3l-4 6q-6 -3 -9 -3zM1288 628h15q6 1 6 6v13q0 16 -9 18h-12q-10 -3 -10 -18v-10q0 -4 10 -9zM1371 628h6q0 6 -6 6v-6zM1334 634h9v7h-3q-6 0 -6 -7zM1377 637h3q0 8 6 16v3q-7 0 -9 -12v-7z
M1405 637q6 1 6 7h-6v-7zM1349 671h7v7h-7v-7zM1362 675h9q0 6 -6 6h-3v-6zM1343 678h3v9h-3v-9zM1195 681h6v6h-6v-6zM763 687l3 6l-6 3l-4 -6zM1356 690h9v3q0 6 -6 6h-3v-9zM1291 715h3q6 1 6 6v6q0 6 -6 6h-3q-6 0 -6 -6v-6q1 -6 6 -6zM1445 727h12q0 6 -6 6h-6v-6z
M1488 727h7v6h-7v-6zM1470 733h3v6q-2 0 -19 3v-6zM1479 736h3q3 0 3 3l6 -3q6 3 10 3v10h-6v-7h-7q0 19 -15 19l-3 -6q9 -12 9 -19zM1442 742h6q8 7 16 7l-7 9v3h10v15q-3 0 -19 4q0 -7 -9 -7v-6l6 3h3q0 -3 -3 -3l9 -15h-6v6h-6v-6l3 -6q-3 0 -3 -4zM1612 749h6v3
q-5 12 -9 12q-6 0 -6 -6v-6h6v6h3v-9zM1495 758l3 6l-7 3h-3v-3q1 -6 7 -6zM1513 758h3q6 1 6 6v6q-4 0 -9 -9v-3zM1158 764h6q6 1 6 6v10h-3q-3 0 -3 -4l-6 4q-6 0 -6 -7v-3q1 -6 6 -6zM1479 770h3q5 0 9 10v3h-9v6q9 0 9 6q-4 0 -12 6q0 -9 -3 -21q3 -6 3 -10zM1504 770
q6 1 6 6l-6 4q-6 0 -6 -7zM1522 770q7 1 7 6v7h-7v-13zM1319 783l6 9v3q-3 9 -19 9l-6 -9q0 -4 19 -12zM1491 783h7v6h-7v-6zM1176 792h4q4 0 9 9l-6 9q-6 -3 -13 -3v-9q1 -6 6 -6zM1195 798h6q0 5 9 16q0 6 -3 12q3 5 3 12l-27 6l-3 -6v-3q15 -16 15 -37zM932 801
q53 9 53 43v13q0 25 -34 31q-43 0 -49 -56q3 -4 3 -15l-13 -3v-4q1 -6 7 -6q4 0 9 10q22 -13 24 -13zM1544 801l3 6h-9q1 -6 6 -6zM1556 804h10q6 1 6 6q-10 0 -10 4q4 5 4 9q-7 1 -7 6q7 0 7 9l15 -9h6q-18 14 -21 25h-7v3h7v9q-7 8 -7 15q-16 -21 -24 -21v-6l18 -3v-4
q-7 0 -12 -3q0 3 -3 3q0 -3 -3 -3q3 -5 3 -12q6 0 6 9l15 -3q-15 -11 -15 -15h6l-3 -16l9 7h3l-3 -7v-3zM1439 807q16 0 18 31l-3 6q7 13 7 19q-4 6 -4 9h-12q-6 0 -6 -12h-15v12q12 2 12 9v19q0 6 -6 6q3 12 9 22l-3 6q3 0 3 3l-6 3h-9q-9 0 -19 -6l-6 9q9 16 9 25h6
q6 0 22 -22q18 0 25 -43h3q0 2 21 22l-3 18q18 28 47 28q0 -3 3 -3q0 10 3 15h-6l-10 -6h-15l3 6v7h-3q-34 -4 -34 -13h-3q-4 0 -13 16v21q9 0 16 13q25 -17 25 -25q27 8 27 18q0 7 13 13l6 -3q6 0 6 9q-3 6 -3 9l9 6q6 -3 9 -3q0 5 16 10q36 -3 49 -22q0 -26 -37 -31
q0 -3 -3 -3l3 -6v-6h-3q-6 3 -9 3l-6 -10l6 -3v7h3q0 -20 22 -31q0 -24 -28 -50q3 -6 3 -9q-3 0 -3 -3l6 -3q0 9 3 9l-3 6v3h3v-6l6 3h3q0 -5 7 -12q-16 0 -16 -9v-3h3q9 3 9 6l7 -3h3v6l6 -3q6 7 6 12h6v-9q0 -17 13 -22h6v6h-6v3h6q0 -3 3 -3v19q0 5 -12 9q3 6 3 9h6
q14 -19 74 -30h3q4 0 9 9v3q0 41 -34 49q0 6 -12 6v4q0 4 9 9h31l12 -9h4q15 7 15 24v13q0 4 -15 15h-13l-15 -3q11 26 24 34q6 -28 19 -28q15 0 15 6l7 -3q4 0 24 34h3v6h-6v10h6l10 -7h3q0 31 -25 31q28 15 28 22q5 0 18 -6q16 4 31 18q0 -31 3 -31l-3 -6l3 -6
q-3 -6 -3 -9h3q6 0 6 9q22 0 22 -9h6q6 0 6 18l16 -3v3l6 -3l16 3v10l-4 6h7l-3 6q6 1 6 6v3l-16 -3h-3v3q8 25 19 25v9l6 -3h3q6 1 6 6l6 -3h3v3l-6 10q6 3 13 3l-4 6h4q6 0 6 -9h3q15 0 15 12h6v-6h4q6 0 6 9q-3 6 -3 9h6l15 -3l-3 -6v-3h3l6 3q10 -6 34 -9q0 1 3 12
q12 -3 25 -3v-3q-9 0 -9 -3l3 -16q-3 0 -3 -3h3q7 0 12 3q6 -3 10 -3q0 2 9 10q-3 6 -3 9h12l22 -3q0 9 6 9l34 -9v3l12 -6l13 3h9q0 9 6 9h3v-6h3v9q6 0 6 -6v-9h-9v-7q3 0 3 4l16 -4h3v7h9l-3 -16q7 -6 12 -6v-3h-6q0 6 -6 6v-6q0 -5 28 -19h9q0 12 12 19l7 -3q15 3 15 6
l6 -3h31l15 -3q0 9 4 9l12 -9q-6 -10 -6 -16l9 -6h3q-3 10 -6 10q0 18 77 18q16 7 16 9q19 0 61 -18h10l18 3h12v3q31 1 31 6l7 -3q7 6 12 6v6h-6l-6 -3v10h15q0 6 -43 12q0 4 -22 15q3 4 3 16q-5 3 -12 3q-11 0 -22 -12q-5 0 -34 24q-31 0 -34 22q-25 3 -46 15h-6
q-6 0 -6 -6q3 0 3 -3q-13 0 -13 -9h-6l3 6v3h-9q0 -9 -6 -9q-7 24 -37 24h-3q-16 0 -16 -6q-3 0 -3 3l-15 -3q-45 6 -50 6h-40q-47 -33 -59 -37l-12 7q0 -3 -3 -3q0 6 -6 6l-9 -6h-3v6h-13q-3 0 -12 -13q-19 7 -19 16h-3l-9 -6l-3 6l-6 -3h-3q-13 5 -13 21v3l16 3q2 0 24 -6
h3q31 20 31 40q0 17 25 28h31v6h-6q3 6 3 10h3l12 -16h3l-3 16h10q-7 7 -7 12h-3l-9 -6h-9q0 13 -19 25h-15q-13 -6 -22 -34q-2 0 -18 -3l-7 9q5 0 10 9v19q-6 0 -6 -13l-7 3l-15 -24h-6v6l3 18q-3 6 -3 10q3 0 3 3l-22 6v6q28 6 28 28q19 11 19 28q-7 1 -7 6v9q34 12 47 34
q24 0 24 3l7 -3h6q0 6 12 15v13q0 9 -15 34q0 8 -40 15q-38 -38 -38 -52q-15 -21 -15 -34l-9 6q-32 -14 -50 -37v-19l7 -9l-25 -18q0 -14 -25 -19q0 -12 -31 -19q-10 0 -21 38q24 23 24 40q0 3 -3 3q0 12 31 34v3q-3 6 -3 9q6 1 6 6v6h-3q-33 -27 -34 -30q-20 15 -28 15
q-27 0 -52 -43q-23 -6 -25 -6q-9 0 -34 21q-10 -6 -15 -6q-10 0 -19 9q0 7 28 31v3q-5 0 -9 6l3 7l-9 15l6 9q0 7 -13 7v18q-20 9 -37 9q-13 0 -46 -27h-9q-53 0 -53 -25h-9l3 -16l-3 -6q3 0 3 -3l-6 -3v6h-6l6 -12v-3h-3v6h-6v-3q0 -3 3 -25q-6 0 -6 -6v-9l3 -22
q-8 -15 -13 -15q-21 -22 -58 -31q0 -3 -16 -10q-6 8 -6 16l-6 -3q3 -6 3 -9l-6 -13l6 -3h3v9q6 0 9 -18h-3l-9 6l-6 -9l-13 6q7 12 7 22h-7l-15 -13h-3q-16 12 -28 16q-25 -5 -25 -13v-3h3l7 3v-3l-4 -6h7v-6l-7 3q0 -9 -9 -9v-3h9v-7h-12q0 -31 -62 -40q0 -9 -6 -9l6 -9v-3
l-6 3h-3v-6h9l10 6q5 -3 12 -3q0 -3 -3 -3l3 -7q0 -10 -15 -30l3 -7v-18q-7 0 -7 -6q-13 0 -30 15h-4q-15 0 -33 -28q-4 0 -10 -3l-28 22q-1 -4 -37 -22q0 -4 -15 -18q0 -16 -31 -44l-15 4h-7v-19h-6v-9q1 -6 6 -6h4q19 18 21 18l43 -31h3q6 3 13 3q2 0 15 -15l-3 -16v-9
q6 -7 13 -40h6v-3q0 -4 -16 -16q-10 9 -12 44l-12 9h-7q-19 0 -37 -34v-6q19 0 19 -9l-3 -22l3 -16q-6 0 -6 -6v-3q17 -14 18 -28q16 0 16 -6l-7 -12h10v12h3q3 0 3 -3q6 3 9 3v6h-6v4h6l-3 6l6 9v3l-3 6l6 3h13l9 -6q0 5 25 22l6 -22l-3 -18v-3q8 -16 12 -16h9l10 6h12v-3
l-3 -18q8 -25 28 -25v-16l3 -15q-6 0 -6 -6v-12l15 -4q6 8 6 13q16 -14 25 -16zM1359 810q14 6 21 19v15q0 5 -21 16q0 6 -7 6h-3q-6 0 -6 -6v-6l13 -19v-3q0 -6 -7 -6zM1476 810h3q6 1 6 7l-6 3h-3v-10zM1569 817h9v9h-3q-6 0 -6 -6v-3zM2653 826h6v6h-6v-6zM1306 829h3
l3 12q-6 0 -6 -9v-3zM1217 832h6v3h-6v-3zM1078 841q35 0 43 53q0 14 -34 21q-37 -9 -37 -24v-22q14 -22 28 -28zM1322 841h3v6h-3v-6zM1584 841h6v6q-6 0 -6 -6zM1207 844l7 3h3q3 0 3 -3q15 4 15 10h-6q-6 -3 -9 -3q0 3 3 3q-3 6 -3 9h-3q-5 0 -10 -9v-10zM1581 854
q0 1 3 12l-6 -3h-3q3 9 6 9q-3 6 -3 9h-6v-3l3 -6q-3 -5 -3 -12v-3q3 0 9 -3zM1553 866v3q6 0 6 -6v-3q-6 1 -6 6zM1893 863h6q6 1 6 6v9q0 7 -6 7h-6q-5 0 -9 -10v-3q0 -4 9 -9zM1105 869v6h4v-6h-4zM1587 875h3q6 1 6 6v4q-4 0 -9 -10zM1214 878q12 3 12 7l6 -4q6 1 6 7
q0 13 -37 43l3 6v12q0 5 -9 10h-9q-10 0 -13 -40q0 -19 41 -41zM1241 885h10v6h-10v-6zM1285 888h6v3h-6v-3zM1603 897v6h6q0 -6 -6 -6zM1263 897h6v6h-6v-6zM1600 909v3h12v-3h-12zM1139 909h7q20 19 21 19l-3 6l3 6q0 9 -18 19q-15 0 -22 -34v-3q0 -5 12 -13zM1281 909h4
v6h-10q1 -6 6 -6zM1254 922h6v-7q-6 1 -6 7zM1334 915v7h3v-7h-3zM1658 915v4h6v-4h-6zM1643 919v6h3v-6h-3zM1751 915q6 1 6 7t-6 6h-3q0 -4 -3 -9zM1090 922h6q9 3 9 18l-9 6h-6q-6 0 -6 -6v-12q1 -6 6 -6zM1278 922h10v3q0 6 -7 6l-3 -6v-3zM1606 928v3h6v-3h-6z
M1050 931h3q6 1 6 6l-6 3h-3v-9zM852 940q0 3 3 3q-3 28 -12 28h-6q-5 0 -10 -9v-10q0 -6 25 -12zM1535 940h9q18 9 18 22q-6 0 -12 24q-8 -6 -15 -6q3 -6 3 -9q-3 -12 -19 -12q0 3 -3 3l-3 -6l9 -7q6 3 10 3q3 -5 3 -12zM1535 956l6 3h6q0 -4 3 -10h-9q-6 1 -6 7zM2575 949
h10q0 7 -6 7h-4v-7zM2566 956q16 4 16 9q-5 0 -13 6q0 -6 -9 -6zM1791 962h3v6h-3v-6zM753 965h10q0 6 -7 6zM1142 968q7 1 7 6v3q0 5 -10 9l-3 -6v-6q1 -6 6 -6zM1593 971v6h3v-6h-3zM1383 974q-6 19 -21 19q0 4 9 9q4 0 22 -12h15v-7q-19 -9 -25 -9zM1806 971v3l-3 6
q3 0 3 3h-6v-6q1 -6 6 -6zM1170 977l10 13q0 21 -19 21q0 -3 -3 -3q-8 20 -16 22l-9 -13v-6q16 -11 16 -18q5 -16 21 -16zM1606 980v6h3v-6h-3zM89 983q31 11 31 34v10q0 4 -15 12h-16q-49 -8 -49 -34q17 -22 49 -22zM1056 990h6v6h-6v-6zM1337 993v6h3v-6h-3zM1776 990
q27 3 27 12h-3l-9 -6q0 3 -3 3q0 -3 -3 -3v6h-6q0 -7 -3 -12zM1813 990h6q-6 7 -6 12h-7v-6q1 -6 7 -6zM83 996v3h6v-3h-6zM96 1005v3h6v-3h-6zM1099 1002h10q9 3 9 18v4q0 4 -9 9h-10q-4 0 -9 -9v-13q0 -4 9 -9zM1411 1005l-12 12q4 16 9 16h3q0 -15 6 -22q0 -6 -6 -6z
M1788 1002h3q6 1 6 6h-3q-6 0 -6 -6zM71 1008v6h3v-6h-3zM77 1027h6v-7q-6 1 -6 7zM1442 1027v3h3q6 -3 9 -3v-7h-6q-6 1 -6 7zM1772 1033v6h4v-6h-4zM1414 1036v3h6v-3h-6zM1853 1045l3 6l-6 3h-3v-3q1 -6 6 -6zM1451 1051v3h6v-3h-6zM2474 1048h3q7 6 12 6v3h-6
q-6 -3 -9 -3v-6zM1405 1054v3q1 7 6 7v-10h-6zM750 1054q19 2 19 10v6q0 4 -9 9h-7q-4 0 -12 -12v-3q0 -5 9 -10zM1640 1061v3h6v-3h-6zM2464 1057h3q0 10 13 10v-3h6v3q0 4 -9 9q-13 -6 -19 -6v-6q1 -7 6 -7zM750 1064v3q1 6 6 6v-3q0 -6 -6 -6zM1300 1101q6 1 6 6
q-6 1 -6 6q16 13 25 37h3q34 -20 34 -28q-40 -8 -40 -37v-15q-7 0 -7 -3q-9 0 -15 34zM1797 1070v6h3q6 0 6 -6h-9zM1834 1067h6v3q-3 6 -3 9h-3v-12zM1982 1067l4 6l-7 3l-3 -6zM1634 1079h9v-6h-3q-6 1 -6 6zM1763 1073v6q6 0 6 -6h-6zM1844 1076v9h-7v-3q1 -6 7 -6z
M2443 1076h6v9q-6 0 -6 -6v-3zM2717 1079q22 4 22 9q0 11 -34 19h-6q-4 0 -9 -9v-3q8 -16 27 -16zM1853 1082h6v3h-6v-3zM2461 1082h6v3h-6v-3zM1776 1088v3h6v-3h-6zM2708 1091v4h6v-4h-6zM784 1091q28 4 28 28q0 25 -25 25q-31 -3 -31 -28v-6q11 -19 28 -19zM1176 1101
q1 6 7 6v-6h-7zM1291 1107q1 6 6 6v-6h-6zM2430 1107h3v9h-9v-3q1 -6 6 -6zM2452 1110h3v6h-3v-6zM2782 1110h3q0 3 4 9h-7q-6 0 -6 -6zM432 1113h16q34 5 34 34q0 13 -31 25q-20 0 -37 -25v-18q0 -5 18 -16zM1973 1113h6v3h-6v-3zM1992 1113h3q3 0 3 3l6 -3h3v6l-18 3
q3 -6 3 -9zM2693 1113v6h-6q1 -6 6 -6zM1661 1122v13q8 0 16 6q7 -6 12 -6v-3q-14 -10 -22 -10h-6zM2010 1119l6 3q-3 6 -3 10l-6 -3q3 -6 3 -10zM2455 1119v3q0 7 -6 7h-3v-7q3 0 9 -3zM1417 1129v6h3v-6h-3zM2436 1125h7v7q0 6 -7 6l-3 -6h7zM2029 1129h3v6h-3v-6z
M2084 1129h3v6h-3v-6zM2427 1129h6v3h-6v-3zM1368 1135q0 7 12 27h13q0 -12 6 -12v-6q0 -4 -9 -9h-22zM2409 1132h3v9h-10v-3q1 -6 7 -6zM1068 1135h3q10 2 16 21l-16 16h-3q-4 0 -12 -16v-9q0 -5 12 -12zM2687 1135h3q6 1 6 6v3q0 5 -12 12h-4l10 -12q-3 -6 -3 -9z
M1982 1138h10q0 6 -6 6h-4v-6zM2106 1138h6v3h-6v-3zM2668 1138h3q5 0 9 9q-9 0 -9 6q9 0 9 6l-15 7v-13l3 -6q-6 0 -6 -6zM2705 1138h6q0 6 -6 6v-6zM1930 1144v3h6v-3h-6zM2004 1141q6 1 6 6h-6v-6zM2656 1144h6v3h-6v-3zM2026 1147h3v6h-3v-6zM1729 1153v6h6q0 -6 -6 -6z
M2189 1150q6 3 10 3q0 6 -7 6l-3 -6v-3zM2409 1153l-3 6l12 10v-7q0 -4 -9 -9zM1071 1156v6q7 0 7 -6h-7zM1414 1156v6h3v-6h-3zM2356 1156v3q3 6 3 10h3v-3q-3 -6 -3 -10h-3zM2427 1156v13h6v-13h-6zM2100 1156v13h-9q4 -13 9 -13zM2628 1159v7h6q0 -7 -6 -7zM2637 1159v3
h9v-3h-9zM1448 1162v7h3v-7h-3zM2267 1169v3q0 4 9 9v-3q0 -5 -9 -9zM2449 1169v3h6v-3h-6zM1961 1175v6q3 0 9 3v-6q-3 0 -9 -3zM2393 1175v6q6 -3 13 -3v-3h-13zM2443 1175v6h3v-6h-3zM1979 1181q0 9 -12 9v10h3l22 -4v-6h-6v-3h6v-6h-13zM2159 1181v3h6v-3h-6zM2013 1184
v6h3v-6h-3zM2143 1184v6h3v-6h-3zM2180 1184v6h3v-6h-3zM2208 1184v6h6v-6h-6zM2514 1184v6q3 0 9 3h3v-3q-6 0 -6 -6h-6zM2551 1184v6h3v-6h-3zM2115 1187v3h10v-3h-10zM2134 1193h6v-6q-6 1 -6 6zM2260 1190l-3 6v4q7 0 13 3v-10q-4 0 -10 -3zM2402 1190v6h4v-6h-4z
M2529 1190q1 6 6 6v-6h-6zM2004 1193v3h6v-3h-6zM2233 1193v7h3v-7h-3zM2412 1193q3 6 3 10q6 0 6 -7l-6 -3h-3zM2538 1196q1 7 7 7v-7h-7zM911 1196q34 6 34 31v3q-7 17 -28 22q-34 -7 -34 -31q0 -18 28 -25zM1989 1200v3h6v-3h-6zM2020 1200v6h9q0 -6 -6 -6h-3zM2177 1200
q3 18 9 18h10l-10 -12v-3h6v-3h-15zM2217 1200v6h3v-6h-3zM914 1203v6h3v-6h-3zM1952 1203v6h3v-6h-3zM2001 1203v3h6v-3h-6zM2159 1206v12l6 -3h3v3q0 6 -9 6v6h3q12 -3 12 -18q-6 0 -6 -6h-9zM2418 1206q3 4 3 21q6 0 6 -18q-6 -3 -9 -3zM2443 1206v6h3v-6h-3zM1893 1209
v6h9v-6h-9zM2118 1209v6h3v-6h-3zM2245 1209v6h3v-6h-3zM1973 1212v3h6v-3h-6zM2131 1212v6h3v-6h-3zM905 1227v3h12v-3q-3 -6 -3 -9q-4 0 -9 9zM2433 1227h13q0 -3 3 -9h-3q-13 5 -13 9zM2137 1221v3h6v-3h-6zM1942 1224q1 6 7 6v-6h-7zM803 1224h6q6 1 6 6v4q0 6 -6 6
t-6 -6v-10zM1325 1227h3v7h-3v-7zM2149 1230v4h6v-4h-6zM2430 1234v6h3q7 0 7 -6v-4q-6 4 -10 4zM2415 1234q1 6 6 6q6 0 6 -6h-12zM1955 1240v6h6q0 -6 -6 -6zM2409 1240v6h3v-6h-3zM2248 1246v3h6v-3h-6zM1325 1246h6q6 1 6 6q0 6 -6 6t-6 -6v-6zM2341 1252v6h3v-6h-3z
M1315 1252h4q4 0 9 9q-5 0 -13 6h-3zM676 1264q6 1 6 7v3q0 6 -6 6t-6 -6v-3q1 -7 6 -7zM1386 1264h10v7h-10v-7zM763 1267q6 1 6 7v3q0 6 -6 6q-7 0 -7 -6v-3q1 -7 7 -7zM1303 1267h6v7h-6v-7zM1328 1274q6 1 6 6h-12q1 -6 6 -6zM2013 1283q3 9 19 9h3v-3q0 -6 -6 -6h-16z
M1399 1295h9v-6h-3q-6 1 -6 6zM1303 1289h3v6h-3v-6zM3295 1289h9v6q-6 -3 -9 -3v-3zM1139 1295h7v6h-7v-6zM2202 1295h3v6h-3v-6zM2217 1295q13 14 13 16v3q-13 -4 -19 -16zM3273 1295h7v6q-7 0 -7 -6zM2199 1308h3v12h-6v-3q3 -6 3 -9zM1952 1314v3h6v-3h-6zM587 1320h9
q5 0 12 12q-3 17 -3 28h-3q-25 -13 -25 -18v-13q0 -4 10 -9zM1260 1320h6v6q-6 0 -6 -6zM2223 1320h3q0 3 4 9l6 -3h3v6h-9q-7 0 -7 -9v-3zM1257 1323h3l-3 6h6q0 6 -6 6h-3q-7 0 -7 -6zM1238 1332h6v3l-3 16q-6 0 -6 -9q3 -6 3 -10zM1263 1332q6 1 6 7v9q0 4 -9 9
q0 -9 -9 -9v-6q12 0 12 -10zM1470 1335l-3 7h9q0 -7 -6 -7zM1504 1339v6h3v-6h-3zM1473 1351v6h6q0 -6 6 -6v-3h-3q-6 3 -9 3zM1251 1348v12h-4q-6 0 -6 -6v-3q4 0 10 -3zM1504 1351v6h3v-6h-3zM2918 1348h3l-3 6q3 0 3 3h-3q-6 0 -6 -6zM2924 1348h3q5 0 10 9l-6 3h-4
q0 -7 -3 -12zM2443 1351v9q0 16 -7 16l-12 -7q4 -18 19 -18zM2458 1351h6v3q0 3 -3 3q3 5 3 15l6 -3h4v7q-7 0 -13 3l-3 -13q3 0 3 -3l-6 -3q3 -6 3 -9zM2236 1354h6q4 0 9 9v6l-6 10q3 0 3 3q-9 0 -9 9h-3l-10 -6l-6 3q0 -3 -3 -3l3 -6v-3l-3 -7l6 -3h3l10 6h3v-6h-6
q3 -5 3 -12zM1470 1360v3h6v-3h-6zM2239 1360v3h6v-3h-6zM2387 1357q28 0 28 19q-13 24 -31 24q-12 -2 -15 -15l-7 3h-3v-3q4 -28 28 -28zM2393 1363v9h3v-9h-3zM2477 1363h3v6h-3v-6zM2375 1369v7h3v-7h-3zM2402 1369v3h7v-3h-7zM2449 1366h3v6h-3v-6zM2230 1376v6h6
q0 -6 -6 -6zM2396 1376v6h3v-6h-3zM2446 1376h3q0 3 3 9h-9q3 -6 3 -9zM1553 1379h3v6h-3v-6zM2100 1379h6l12 9l7 -3q0 3 3 3l3 -6q6 3 9 3v6q-12 0 -12 6q-19 -6 -19 -12l-6 3q0 -3 -3 -9zM2208 1385h9l-3 6q3 0 3 3h-3q-6 0 -6 -6v-3zM2356 1394q22 19 28 31h3v6
q0 3 -3 3l3 6v10h-25l-21 6l-22 -12v-4q8 0 9 -15h-6l-9 6v-12q0 -5 18 -16h7v7h6q0 -12 12 -16zM2050 1416v3q17 0 22 -13l-6 -3h-3q-5 0 -13 13zM2359 1406v7h10v-3q-4 0 -10 -4zM2486 1406h3q0 13 12 16v-9h-6v-7h6q19 2 19 10v6h-6q0 -9 -7 -9q0 1 -3 12h3l-3 6q1 6 7 6
q1 -6 6 -6h3q0 8 9 16q-6 15 -22 15q0 -4 10 -9q-3 -6 -3 -13l-7 4v-4l-6 4l-6 -4q0 4 -3 4v-7q-23 7 -28 7v-4q0 -6 10 -6l-4 -6v-6q0 -4 16 -16zM2347 1416v6h6q0 -6 -6 -6zM2338 1419v6h6v-6h-6zM1078 1422h9q9 3 9 18l-9 7h-6q-5 0 -10 -10v-9q1 -6 7 -6zM2331 1425v6h4
v-6h-4zM2474 1425v3h6v-3h-6zM1377 1425q6 1 6 6q0 6 -6 6t-6 -6q1 -6 6 -6zM2344 1431q0 5 -9 16h12q0 -7 3 -7q-3 -6 -3 -9h-3zM2356 1434v3q1 7 6 7v-4q0 -6 -6 -6zM1430 1434h6v6h-6v-6zM1229 1444l3 6q0 5 -12 12h-3q-7 0 -7 -6t19 -12zM2020 1444h3q4 0 12 12v9h-6
q0 -3 -9 -21zM2495 1444q12 4 12 9l-9 6q0 -5 -6 -12q3 0 3 -3zM2436 1453h4v3q-4 6 -4 9h-6v-6q1 -6 6 -6zM1782 1474v3h12l-3 -6q-6 3 -9 3zM2557 1471q49 2 49 10q-3 0 -3 3l6 3q0 -5 10 -10l6 4q5 -4 12 -4q3 5 3 19h3q16 0 16 -6q-3 -6 -3 -9l6 -4q49 0 49 19q0 9 13 9
v6h-7v7h7l6 -3q0 5 9 27q-4 0 -9 10v3q1 6 6 6h3v-3h-6v-6h3q4 0 9 9l-3 6h3l19 -3v6q6 0 6 -6h-6q1 -6 6 -6h3l6 3q0 -12 6 -12q7 0 7 6l-7 9v6l31 9v-3l6 3h4v-9h3q6 0 6 9l6 -3q33 11 37 16q3 0 9 -3q74 14 74 18l50 -31h3v3l6 -3h6q19 9 19 13l-6 3l15 24h-3
q-6 -3 -9 -3l6 13q-3 5 -3 12v3h18q68 23 68 28q-12 5 -12 9q0 5 22 16l-4 6v6q10 0 10 6q-3 0 -3 3h6q6 -3 9 -3v6l-3 7l9 6q0 -6 13 -6v-7q-24 -15 -28 -15v-6q15 0 15 9h10v-6h9q6 1 6 6v3q-9 0 -9 6h3l12 -9q30 19 56 22q34 21 62 21q3 0 9 -3q14 0 31 16v6q-8 0 -16 6
h-9q-3 0 -3 -3q-22 15 -46 15q-62 -21 -62 -24q0 -17 -25 -22q-4 0 -22 12h-15v-6l-6 3h-31q-41 -14 -99 -21q-6 3 -9 3l3 6l-6 3h-9q-69 -15 -99 -15v-7h-3l-7 3v-6h-9l3 6q-24 7 -24 25h-7v-6h-3q-6 1 -6 6q-56 -30 -136 -62q-46 -10 -46 -27h-3l-16 15h-3l3 -6
q-9 0 -9 -6q3 -6 3 -10h-3l-6 4v-4l6 -9v-9q-8 0 -22 -37q-5 -3 -9 -3q-4 3 -15 3q0 -9 -13 -9v-4l4 -6h-10q0 10 -6 22h-3q-6 0 -6 -6q9 0 9 -25q-6 3 -9 3q0 -6 -6 -6q-6 3 -13 3v-18q-5 3 -12 3v3q9 0 9 6v6l-6 -3v12q2 0 12 3q0 7 -6 7q-8 0 -12 -22q3 0 3 -3l-6 -3h-3
l-3 21q-5 0 -13 -12q6 0 6 -6q-9 0 -9 -6q3 -6 3 -10l6 4q7 -8 7 -13l9 6q0 -4 6 -12h-3q0 3 -3 3v-6q12 -11 12 -16h6l3 13q7 0 7 -13l6 4q6 0 6 -7v-6q-16 -3 -19 -3q0 -5 13 -12l3 6q-3 0 -3 3h3l6 -19q-6 0 -6 -6zM2421 1474h6v3h-6v-3zM2551 1474h6q0 7 -6 7v-7z
M2433 1477h10q6 1 6 7q-10 0 -13 12l4 6v3h-7v-9q0 -3 3 -3l-3 -6v-10zM2489 1481h9q5 0 9 9l-6 3q0 -5 -12 -12zM2585 1484v6h3v-6h-3zM2480 1484h9q0 4 -12 12v-3q3 -6 3 -9zM2572 1487v6h3v-6h-3zM2511 1487h3v6h-3v-6zM2529 1487h6v3q0 3 -3 3l3 6v3h-6v-15zM1022 1490
h9q5 0 10 9v6q0 5 -13 13h-3q-12 -7 -12 -16q4 -12 9 -12zM2449 1490h6q0 6 -6 6v-6zM1924 1493l12 18v16q-2 7 -21 15q-19 0 -19 -21v-10q13 -18 28 -18zM2260 1493q15 6 16 12v3q0 5 -9 10h-7q-4 0 -12 -13v-3q0 -4 12 -9zM2421 1493h3v6h-3v-6zM2566 1496v6h3v-6h-3z
M2125 1502v3h6v-3h-6zM2498 1502h3v6h-9q1 -6 6 -6zM2523 1502h3v3q-9 14 -9 25h-3q-7 0 -7 -6v-3q3 0 16 -19zM1186 1505h3v10q-3 0 -9 3v-7q1 -6 6 -6zM1853 1508l6 10v9q0 6 -6 6l6 12q-3 6 -3 13h-6q-6 0 -10 -28q-6 0 -6 -12q12 -10 19 -10zM2196 1511v7h3v-7h-3z
M1825 1511h6v7h-6v-7zM2501 1515h6v6h-6v-6zM1803 1521v6h3v-6h-3zM2020 1518h6v3q0 6 -6 6v-9zM2205 1521v6h3v-6h-3zM1084 1521h3q6 1 6 6h-3q-6 0 -6 -6zM2196 1530h6v-6q-6 1 -6 6zM2566 1524v6h3v-6h-3zM1071 1527h4l3 15q-7 0 -7 -9v-6zM2579 1530v6h3v-6h-3z
M1819 1530h3v6h-3v-6zM2029 1530h3l6 3q0 -3 3 -3l3 6h-9q-6 0 -6 -6zM2495 1530l16 3v3h-16v-6zM2541 1533l-3 16q0 4 10 9q1 -6 6 -6v9h9v-3q0 -5 -18 -22q3 0 3 -3h-7zM1090 1533h3v3q0 6 -6 6h-3v-3q1 -6 6 -6zM1121 1533q6 1 6 6q0 6 -6 6h-3q-6 0 -6 -6q9 0 9 -6z
M2177 1536v6h3v-6h-3zM2183 1536v6q6 0 6 -6h-6zM2084 1539l7 10v6h-7q0 -6 -6 -6v-4q1 -6 6 -6zM2575 1545v4h7v-4h-7zM2582 1555v3q1 6 6 6v-3q0 -6 -6 -6zM3011 1552h12v3q-5 0 -9 9q-6 -3 -9 -3v-3q1 -6 6 -6zM2934 1555h9q0 6 -6 6h-3v-6zM3029 1555h3v9h-3v-9z
M2943 1558h6q6 3 9 3q-3 4 -3 18h-3q0 -9 -9 -9v-3l3 -6q-3 0 -3 -3zM2717 1567v6h4v-6h-4zM2264 1567l15 3q0 5 -9 9q0 -6 -6 -6v-6zM2631 1570v6h3v-6h-3zM2931 1570h12v3q0 5 -9 9h-3v-12zM2594 1576v3h6v-3h-6zM2548 1576q6 1 6 6v4h-6q-7 0 -7 -7zM2798 1579v7h3v-7h-3
zM2260 1579h4v3q0 7 -7 7l-3 -7zM2819 1582v4h7v-4h-7zM1689 1582l3 7q0 6 -6 6h-3v-6q1 -7 6 -7zM2844 1586v3q1 6 6 6v-3q0 -6 -6 -6zM2807 1595l3 6q9 -2 12 -12h-3q-7 6 -12 6zM2853 1589v3h7v-3h-7zM2267 1589l18 3v3q0 6 -6 6q0 -6 -12 -6v-6zM2372 1589q5 3 15 3v9
h-3l-6 -3q0 6 -6 6q-3 0 -3 -3l-7 3h-3v-6q-6 1 -6 6q3 6 3 9q-3 0 -3 -3l-6 3h-6v-9q0 -5 31 -15zM3045 1589h6v3h-6v-3zM2866 1595v3h6v-3h-6zM2884 1601h6v-6q-6 1 -6 6zM2399 1595l7 9h-7v3l16 22v3q-16 0 -16 9h-9q-4 0 -9 -12h6q6 3 9 3q6 -8 6 -9h-3l-6 3l-18 -6
q0 3 -3 3q0 9 9 9q0 6 -6 6q0 -3 -3 -3q0 6 -7 6h-3v-3q0 -3 3 -3q0 -4 -15 -15v-7q6 3 9 3l16 -3q0 3 3 3q0 -9 6 -9h3v9h6l-3 -6v-6q0 -4 9 -9zM2415 1595h6v3h-6v-3zM2427 1595h3v6h-3v-6zM2841 1598v3q9 10 9 15h6v-6q-6 0 -6 -12h-9zM2291 1598h10v6h-4q-6 0 -6 -6z
M2894 1601v6h3v-6h-3zM2625 1604v6q6 0 6 -6h-6zM2915 1604v6q10 6 16 6q-13 -7 -13 -12h-3zM2436 1604h7v6h-7v-6zM2412 1607l15 3v6l-15 -3v-6zM2878 1610q3 6 3 10h9q0 -5 -9 -10h-3zM2890 1610v3h7v-3h-7zM2477 1610h9v6h-3q-6 0 -6 -6zM2270 1613l6 3q5 -3 12 -3l-3 7
q3 6 3 9q-21 -8 -21 -13q3 0 3 -3zM2443 1616h3v4q0 4 -10 9h-6v-6q5 0 13 -7zM2708 1623v3h6v-3h-6zM2850 1623v6h3q7 0 7 -6h-10zM2455 1623h3q5 0 9 9h-3q-4 0 -9 -9zM2866 1626v6h6v-6h-6zM2424 1626q12 11 37 18v6q-12 -2 -12 -6l-6 3q-7 0 -7 -6q4 0 4 -3h-4l-6 3v-3
q-15 6 -21 6l-3 -6v-3q18 0 18 -9zM2894 1629v6h3v-6h-3zM2906 1629q0 6 -6 6v3h6l6 -9h-6zM2816 1632v6l6 3q-3 -6 -3 -9h-3zM2884 1632v6h3v-6h-3zM951 1632l3 6v9q0 7 -6 7h-6q-6 0 -6 -7v-6q0 -7 15 -9zM2860 1644l6 3l6 -12h-3q-5 0 -9 9zM874 1635h6v6h-6v-6z
M2486 1635h6v3q0 6 -6 6v-9zM2884 1644v10q6 -4 10 -4v-9q-6 3 -10 3zM874 1641q0 9 9 9v7h-6q-5 0 -9 -10q1 -6 6 -6zM2208 1641h15v3q0 6 -6 6h-3q-6 0 -6 -6v-3zM2640 1644v3q1 7 6 7h4v-7q-4 0 -10 -3zM2375 1644h6v3h-6v-3zM2597 1644v10h-6v-4q1 -6 6 -6zM2350 1647h6
v3h-6v-3zM2372 1650q6 4 9 4v6h-12v-3zM2736 1654v6h3v-6h-3zM3032 1660l7 3q6 0 6 -6l-6 -3q-7 0 -7 6zM2890 1657q1 6 7 6v-6h-7zM2872 1663v3h6v-3h-6zM2634 1666q0 3 3 3q-3 6 -3 9h-25v-3q5 0 13 -6l6 3q1 -6 6 -6zM3307 1666h10q52 12 52 21q0 8 -43 10v3
q-37 -5 -37 -16v-9q3 -9 18 -9zM3162 1669l19 3q6 -3 9 -3l9 15q-7 7 -9 7h-3q-9 -7 -28 -13q3 -6 3 -9zM2906 1678v3h6v-3h-6zM3187 1678v6h3v-6h-3zM3048 1687v4h6v-4h-6zM1013 1697h9q5 0 12 12v12q-12 14 -12 16q-25 -3 -25 -25q0 -4 16 -15zM1942 1697h10q4 0 9 9
q-5 12 -9 12h-10q-7 0 -9 -15zM2884 1700l-3 6h9q0 -6 -6 -6zM2927 1712v6h4v-6h-4zM3147 1721v10h6v-10h-6zM2853 1725q1 6 7 6v-6h-7zM3190 1725v3h6v-3h-6zM3171 1728v3h7v-3h-7zM2983 1749h3v3q0 7 -6 7l-3 -7zM2937 1755h3q0 4 -3 4l3 6v3h-6q-7 0 -7 -6zM2968 1762
l6 9q-3 0 -3 3q-6 -3 -13 -3q0 -5 10 -9zM2943 1765h3v6h-3v-6zM2980 1768q6 3 9 3v3h-12zM3181 1768q18 3 18 9q-5 3 -12 3v6h6v6h-12q-5 0 -13 -12v-6h7v6h6v-6h-6q1 -6 6 -6zM2121 1780l7 9v7q0 6 -7 6l-6 -10v-6q1 -6 6 -6zM3221 1783l3 6v3l-22 4v-4q3 -9 19 -9z
M1825 1799q6 1 6 6q-6 0 -6 6h-6v-6q1 -6 6 -6zM3215 1811h6q21 12 21 15l-6 13q3 0 3 3l-6 3h-6v-3q0 -3 3 -3q-6 -13 -6 -19h-3l-9 6l-7 -3q0 13 16 13v9h-12q-17 0 -19 -9q3 -6 3 -10v-9zM2983 1814h12q22 2 50 31v3q0 6 -6 6h-34q-31 -6 -31 -31q0 -4 9 -9zM3073 1820h6
q23 0 28 13q-3 6 -3 9l9 -6q6 1 6 6l-6 3h-16q-31 0 -31 -22zM3181 1823h3v7h-3v-7zM3199 1830v6h3v-6h-3zM2013 1833q13 4 13 9q0 4 -10 9h-9v-12q1 -6 6 -6zM3267 1928q24 9 28 19v9l-22 6q-34 -8 -34 -12q17 -2 22 -19zM2541 1953h13q4 0 15 16q0 22 -9 24h-12
q-16 -8 -16 -24v-7q0 -4 9 -9z" class="colorcurrentColor svgShape"></path></svg></g></svg>