<svg id="SvgjsSvg1067" width="288" height="288" xmlns="http://www.w3.org/2000/svg" version="1.1" xmlns:xlink="http://www.w3.org/1999/xlink" xmlns:svgjs="http://svgjs.com/svgjs"><defs id="SvgjsDefs1068"></defs><g id="SvgjsG1069"><svg xmlns="http://www.w3.org/2000/svg" viewBox="-10 0 2720 2048" width="288" height="288"><path fill="#ffffff" d="M1239 -32q18 6 18 12v6q0 5 -12 12h-6q-6 0 -6 -6v-18q1 -6 6 -6zM2657 112h3v7h-3v-7zM2642 122h3q3 0 3 3l6 -3h3v6h-9q-6 0 -6 -6zM468 305h3v9h-9v-3q1 -6 6 -6zM1049 305q6 1 6 6q-9 0 -9 6v3h6v6q-3 0 -3 -3l-6 3h-3v-3q3 -18 9 -18zM1037 332q12 3 12 6q-9 15 -9 21h-6v-21zM459 344q8 6 12 6v6h-3q-4 0 -9 -9v-3zM565 465l6 9v6q0 33 -27 33h-6q-16 0 -21 -12q0 -34 48 -36zM676 504h12q12 5 12 21q0 27 -33 30q-12 -15 -12 -18q0 -16 21 -33zM550 600l3 6v9h3v3h-9q0 -5 -6 -15q3 0 9 -3zM538 606h3q-5 12 -9 12v-6
q1 -6 6 -6zM556 609q6 1 6 6h-6v-6zM529 618q0 5 6 24l-6 3h-3l-3 -21q1 -6 6 -6zM547 624h3v6h-9q1 -6 6 -6zM1275 627h12v3q0 6 -6 6zM550 633h3l6 3q0 -3 3 -3v3q0 5 -9 9h-3l3 -6zM1245 633q6 1 6 6v3q-17 43 -27 58l-9 6h-6q-5 0 -9 -13q0 -22 45 -60zM1272 636
q1 6 6 6q0 -3 3 -3v3q0 6 -6 6h-3q-6 0 -6 -6q1 -6 6 -6zM544 645h6v3h-6v-3zM610 648h3q4 0 15 18v18l-3 16q12 1 12 9v6q0 4 -9 9h-3l-9 -6h-6q-7 27 -12 27l-12 -3q-6 3 -9 3v-6h6v-6q-9 0 -9 -3q0 -4 3 -9l-3 -12q0 -10 15 -31q0 -30 21 -30zM1350 651l4 6v6
q-7 15 -31 15l-3 -6v-6q7 -15 30 -15zM610 657q0 6 -6 6v6l18 3q-6 -7 -6 -15h-6zM1507 669q3 6 3 9q-11 28 -36 28h-6q-6 0 -6 -6v-10q11 -21 45 -21zM101 681h3v3q0 6 -6 6h-3v-3q1 -6 6 -6zM604 687v3h6v-3h-6zM595 690q0 4 -3 10h6q0 -4 3 -10h-6zM613 693l6 10
q-3 0 -3 3h3q0 -3 3 -3q-3 -6 -3 -10h-6zM2503 703h3v6h-3v-6zM2540 703h3v6h-3v-6zM583 715h6v-6q-6 0 -6 6zM113 709h6v3q0 4 -9 9h-3v-6q6 0 6 -6zM131 715v3q0 6 -6 6v-3q1 -6 6 -6zM426 721q21 0 21 21v6q0 4 -18 15q-4 0 -15 -15v-6q0 -17 12 -21zM589 733v6q6 0 6 -6
h-6zM426 739q3 5 3 9h6q0 -3 -3 -3l3 -6v-3q-5 3 -9 3zM321 745h3l-3 6q3 6 3 9h6v-15q6 0 6 9q-3 12 -18 12l-3 -6v-9q1 -6 6 -6zM2332 745h3v6h-15q-3 0 -3 3l-6 -3q-8 6 -9 6v-6h-3q-6 1 -6 6h9l-3 6q3 0 9 3q6 -3 9 -3v6q-20 6 -27 6v-9h-6l6 12q-39 18 -88 27v-6
q9 0 9 -6t-9 -6v-3q0 -5 9 -9l9 6l3 -6v-9l-3 -6l16 -3q6 1 6 6q0 6 -9 6v3q9 0 21 12h3q0 -9 -9 -9v-6l15 3l-3 6v3h3v-6l6 3l9 -15l-6 -3l-27 6q0 -3 -3 -9q34 -12 90 -12zM104 748h3v3q-4 12 -9 12l-3 -6q0 -5 9 -9zM1191 757h3v12q0 4 -9 9l-3 -6h6v-6h-6q0 -5 9 -9z
M2329 757h9q0 6 -6 6h-3v-6zM1766 760h3q6 1 6 6h-3q-6 0 -6 -6zM1757 763h9v9q0 6 -6 6h-3v-6l-15 3v3h9v6h-12q-6 0 -6 -6q0 -5 12 -12l6 3q1 -6 6 -6zM2211 763h9v6h-9v-6zM514 766h6q18 7 18 9l6 -3l15 3q8 0 21 -9q3 0 12 27q6 3 9 3l-3 15v3h15q9 0 9 12h3l9 -6l15 12
h6q0 -7 -3 -12q6 -14 12 -15q0 9 12 9l-3 6l-6 -3h-6l3 15h3l9 -6h3q0 9 3 9h9q33 24 33 42q-6 12 -6 21h6q4 0 18 -27q9 0 21 -21q37 31 37 48h9v-9q16 0 21 15q-3 10 -3 21h6v6q-9 10 -12 24q4 0 12 30q26 20 63 28v3h3l6 -3q0 3 3 3l-3 6q4 15 21 15q24 -8 24 -12v-9
l-9 6h-3q-6 0 -6 -6q6 0 6 -6v-6h-6v-6q0 -5 15 -16h3q0 3 3 19h6q37 -34 60 -43l6 -12h-3l-9 6h-3v-6q24 -9 30 -9v3l-33 42l-6 -3v9h9q21 0 42 -42q0 -8 34 -36q0 -9 21 -33q0 -21 6 -21h3l3 18q-6 1 -6 6h6v-6q6 1 6 6v30q0 16 -12 21h-6q-3 0 -3 -3l-12 6l3 21v6
q0 11 -21 40q3 5 3 9q42 0 75 -28q66 -33 66 -57q28 -31 102 -48v3q0 3 3 9q-29 17 -75 57q-13 1 -123 88v12q3 0 9 3l-3 6v3h12q39 12 42 12h3l21 -3q0 3 3 3q1 -6 6 -6h6v9q-5 0 -15 21q9 0 9 18q-15 6 -21 6v-3q-15 0 -21 21q-12 12 -18 12l3 15q-24 18 -36 18h-12
q-22 0 -51 -9h-10q-7 6 -12 6v9l18 9v6q-3 0 -3 -3q-12 5 -12 9q-24 0 -24 -18q0 -3 -6 -3v-3q2 0 12 -3v-6q0 -6 -9 -6q-12 5 -12 9q9 0 9 6q-27 16 -33 27l3 6l-9 12l-6 -3h-6v3q15 1 15 9l-3 6l-15 -3l-24 27h-3l-3 -15q15 -7 15 -12q-6 0 -6 -12h-3l-6 18q-6 0 -6 -6
q3 0 3 -3l-6 -3q0 6 -6 6h-6l6 -9h-12v6l3 6q-3 0 -3 3q3 0 3 3h-6l-21 -3q0 9 -9 9v6h12v15l-15 7v9q10 -2 24 -19h3q3 16 3 19h-6v-6l-15 9l3 6v6q-7 -6 -12 -6h-3v3l12 3l-3 6h3l9 -6q4 0 9 9l-6 3q0 -3 -3 -3q0 4 -12 12v9l3 6q-10 0 -21 18h-3v-6h-6l3 6l-6 3l-6 -15
h-6l3 6q-6 1 -6 6q3 0 3 3l-12 3l-3 -6v-3l3 -6q-3 0 -3 -3h6v6h6v-12l-6 3v-3q3 -6 3 -9l-9 6l-18 -15v-3l9 -15l6 3q24 -17 24 -37q-15 -3 -15 -6l-6 3h-3q-21 -15 -21 -18v-3q18 0 18 -18v-3h-6v-6q7 0 21 -15l6 3q1 -6 6 -6v3q13 -6 15 -12q-27 -19 -27 -24l-6 3l-27 -3
q-3 0 -18 3q-6 -3 -10 -3q0 13 -39 30l3 15q-6 1 -6 6l15 12q0 -3 3 -3q3 4 3 15h-3q0 5 9 9q15 -19 15 -24h10v18l6 -3q0 9 12 9v6l-6 -3h-6l3 15q-3 0 -3 3l-6 -3h-7q0 3 3 3l-6 13q5 0 10 9l-7 3v-3l-15 6q0 -6 -6 -6v12q6 0 6 9h3v-6h3q19 1 19 9v3h-10v6q0 6 10 6v6
l-13 -6q0 6 -6 6h-9l-9 -6q0 6 -6 6q-4 0 -9 -9q0 -8 6 -18l-12 -9q-20 9 -27 9h-6l-6 -3q-6 24 -12 24q-3 0 -3 -3l-18 6q-27 -4 -33 -6l-12 6q0 -7 -21 -12v3q9 13 9 27q0 33 -33 33q-24 -2 -24 -15q3 -6 3 -9q-18 -11 -18 -27q6 0 6 -6h-9q-13 12 -24 12h-22
q0 -12 -3 -12l-6 3q-5 -3 -12 -3q-15 9 -15 21h-3q0 -9 -6 -9q0 6 -6 6l-18 -3q-2 15 -9 15q-12 -17 -12 -24l12 -6l-3 -6v-3q12 -12 12 -18q-9 -15 -9 -24q0 -14 21 -25h9q23 25 64 25h9v-10l-3 -6l15 -3v-3q-10 0 -15 -3v9h-6q0 -9 -10 -9v-3q13 0 13 -9v-3h-3v6h-7
q-6 0 -6 -6q3 -5 3 -9h-6v6h-6q-12 -20 -12 -33v-3q5 0 12 -6v3l-3 6l6 3q14 -6 16 -12l-7 -3q-5 3 -9 3v-12l16 3l-4 -6v-3h10l6 3l3 -6h-6q0 -5 12 -12l9 6h3l30 -27q12 5 12 9q36 -4 36 -36q18 0 18 -24l9 6q6 0 24 -6l18 3q15 -8 15 -12q-3 0 -3 -3l6 -3h3q-3 9 -3 30
q27 16 27 21q-3 0 -3 3l6 3h3q0 -8 12 -12v-9h3q15 6 15 18h6v-6l3 -18q-3 -6 -3 -9l3 -15q0 -5 -21 -18q0 -8 -6 -18q6 -10 6 -18q-8 0 -18 -9h-3l3 6h-12q0 -5 -6 -9l-6 3h-3q-3 0 -24 -27l-18 3q-3 0 -18 -13l-21 7l-18 -4q-15 13 -15 16l-15 -3q-7 0 -18 9h-6v-3l3 -6
h-9v3l3 6h-6q0 -7 -18 -9v-9h-9l-9 6q-10 -11 -10 -22h10l6 3q0 -6 12 -6v-6h-12q0 -3 -3 -3q-6 3 -9 3q14 -12 21 -27q-6 -9 -6 -15h9l-3 6l6 3h3q3 0 21 -21v-3h-12v-6h3q3 0 3 3l6 -3q18 21 30 21v-21h3l9 6l12 -18v-3q-7 0 -15 -15v-3q1 -6 6 -6q8 15 12 15q6 -12 6 -18
l-6 -3q0 6 -6 6q-5 -20 -15 -30l-6 3h-15q0 15 -9 15h-3q-6 0 -6 -12h-27q-3 0 -3 -3q-18 0 -31 21h-9v3h6v3q-3 9 -18 9h-3q-15 -12 -15 -27q5 -21 24 -27h6q6 1 6 6l-3 6h9q27 -66 43 -66zM375 775q6 1 6 6h-6v-6zM2236 778v3q0 6 6 6v-3q0 -6 -6 -6zM1245 778l3 6v3
q0 27 -21 42h-6q-6 0 -6 -6q0 -24 30 -45zM2217 793q7 0 13 3q0 -7 3 -12q-3 0 -3 -3q-10 3 -13 12zM279 784q25 0 39 42q-5 36 -30 36v15l-6 9q3 0 3 3l-15 9h-3v-9h12v-6q0 -6 -6 -6l-9 6q-6 0 -6 -6v-3l3 -6h-9q0 -15 9 -15v-18l3 -6h-9v-3h6v-3q0 -6 -6 -6q3 -13 15 -18
q7 -15 9 -15zM363 784h9v3l-6 9q3 0 3 3l-9 6h-6v-12q0 -5 9 -9zM667 793h3v9h-3v-9zM2190 796h3v9h-3v-9zM523 805v6h3v-6h-3zM655 802v9h-6v-3q1 -6 6 -6zM1387 802h9q22 4 24 12v15q0 31 -45 36h-3q-3 0 -3 -3q-10 6 -19 6v-6q16 -8 28 -51zM2600 802h9q0 6 -6 6h-3v-6z
M270 808v3h6v-3h-6zM291 808v6q6 0 6 -6h-6zM381 805h6v6l-3 15h-6q0 -12 -9 -12v3l9 12h-3q-18 -3 -18 -9v-3q3 0 24 -12zM261 811v6q6 0 6 -6h-6zM378 811v3h6v-3h-6zM502 820v3q1 6 6 6v-15q-6 1 -6 6zM685 814h12v9l-6 -3q0 3 -3 3l-3 -6v-3zM1992 814v6q0 14 -57 30
h-13q-6 0 -6 -6v-6q19 -24 76 -24zM481 820l-7 9h13v-3q0 -6 -6 -6zM1074 817q3 6 3 9q-19 37 -19 51h4v3h-10q0 3 3 3l-6 15q6 1 6 6q-15 16 -15 24l-9 -6h-3l3 6v6h-6l-3 -12q6 -3 12 -3v-18l3 -6q-6 0 -6 -6q1 -6 6 -6v6q6 0 6 -15h3v6h3q0 -6 3 -6l-3 -6q9 -7 9 -36h4v6
h3q6 0 6 -6l-6 -9v-3q3 0 9 -3zM1962 823v3h6v-3h-6zM631 826v3h6v-3h-6zM444 829v9h3v-9h-3zM625 832v3h6v-3h-6zM640 832v6h3v-6h-3zM664 838v6h6v-6h-6zM1230 835h6q-11 48 -24 48h-6q-6 0 -6 -6q0 -26 30 -42zM441 853h3q6 -3 9 -3q0 3 3 3v-3q-3 -6 -3 -9q-9 3 -12 12z
M646 841v6h3v-6h-3zM345 844q12 5 12 9v9q0 4 -15 12h-3q-12 -6 -12 -18q12 -12 18 -12zM667 847q0 12 -18 24q-3 0 -3 -3q-5 3 -12 3l3 27q-10 6 -15 6v6q1 6 6 6q15 -19 42 -27q0 -26 18 -42h-21zM709 844h3q6 1 6 6v3q-4 0 -9 -9zM1010 847q3 5 3 15l15 -3v3
q-18 30 -21 30q0 -3 -24 -21q-16 3 -24 3l-3 -6v-3q25 -18 54 -18zM646 853v3h9v-3h-9zM703 853v6h3v-6h-3zM345 859q1 6 6 6v-6h-6zM444 862v6h3v-6h-3zM387 862q15 0 33 18q6 -3 9 -3l3 6v3q-24 33 -39 33h-9q-4 0 -18 -18v-12q0 -18 21 -27zM766 865v3q1 6 7 6h3
q-3 -6 -3 -9h-7zM532 883v12h-3q-6 -3 -9 -3v-6q6 0 12 -3zM769 889v3h7v-3h-7zM1068 886v6h-6q0 -6 6 -6zM1113 895v3q1 6 6 6v-9h-6zM818 898v9q6 0 6 -6v-3h-6zM505 898h6v9q-6 0 -6 -6v-3zM1046 901v6h3v-6h-3zM727 904v3h6v-3h-6zM514 907v3q0 6 -6 6h-3q0 -4 9 -9z
M1095 910q1 6 6 6v-6h-6zM724 919q1 6 6 6l3 -6v-3q-5 3 -9 3zM496 919h6v3h-6v-3zM264 928h6v3q-3 6 -3 9h-3q-6 0 -6 -6q1 -6 6 -6zM276 931h6v3q0 5 -9 9v-3q3 -5 3 -9zM514 940l-3 6q5 -3 9 -3v-3h-6zM1405 943v6h-6q1 -6 6 -6zM420 946q17 0 24 30q-2 19 -18 19
q-18 -8 -18 -22q12 -21 12 -27zM724 949v3h6v-3h-6zM1396 949h3v9h-9v-3q1 -6 6 -6zM2335 958q5 3 12 3q0 -3 3 -3l3 6q-12 5 -12 9h3l15 -3v6l-30 6q0 -5 -6 -15zM414 967v3q1 6 6 6h3q0 -6 6 -6v-3h-6v3l-6 -3h-3zM435 967q0 6 -9 6q1 6 6 6l6 -9v-3h-3zM2314 964h6
q0 6 -6 6h-6q1 -6 6 -6zM2362 964h6v6h-6v-6zM496 979v3h6v-3h-6zM2311 976h3q6 1 6 6v3h-3q-6 0 -6 -6v-3zM426 982v3h6v-3h-6zM1161 982v6h3v-6h-3zM550 985v7h3v-7h-3zM511 995v6h3v-6h-3zM487 1001h9v3l-3 6q3 0 3 3h-3q-6 0 -6 -6v-6zM920 1001h9q0 3 3 9l-6 3l-6 -9
v-3zM857 1016v6h3v-6h-3zM872 1016v6h6q0 -6 -6 -6zM526 1016h3v3l-6 9q2 0 18 3v6h-6v9q12 0 12 12h6q0 -20 21 -33v-6h6q7 0 12 3q5 -3 12 -3q29 26 33 36v3q-9 0 -9 12h-9v-6h-3q-12 21 -15 21q-5 3 -12 3h-3q-3 0 -3 -3l-6 3h-3q-18 -11 -18 -15q7 -6 12 -6v-3h-3
q-15 0 -24 30l-21 6h-3q-18 0 -18 -18l-6 3h-3q0 -12 -19 -12q0 -12 -12 -12v-9l28 -9v3q9 0 21 -21q8 0 18 -9zM872 1028v9h6v-9h-6zM589 1031l-3 15q6 0 6 -9v-6h-3zM526 1034v3h6v-3h-6zM571 1034v3h6v-3h-6zM505 1037v6h3v-6h-3zM598 1043h6v-6q-6 1 -6 6zM610 1043v3h6
v-3h-6zM923 1043v6h3v-6h-3zM577 1046v6h3v-6h-3zM484 1055h-3l-7 -3v3q3 5 3 12h22q-6 -13 -6 -18zM589 1049v6h3v-6h-3zM625 1049v6h3v-6h-3zM601 1052q0 12 -6 12v6q9 -9 21 -9v-3q-5 0 -15 -6zM905 1052q3 6 3 9l6 -3l6 3l3 -6zM465 1055v3h6v-3h-6zM800 1058v6h3v-6h-3
zM2148 1055h33v6h-18v3q7 0 12 3q6 -3 9 -3v6q-21 0 -21 9h-9v-3l3 -6q-5 0 -9 -15zM574 1061v3h9v-3h-9zM2142 1058h6v6h-6v-6zM2157 1061v6h3v-6h-3zM502 1064v3h6v-3h-6zM869 1064v6h3v-6h-3zM914 1064v6q6 0 6 -6h-6zM800 1067v6h3v-6h-3zM2127 1064l9 12h-3l-6 -3
q0 3 -3 3l-3 -6q1 -6 6 -6zM149 1067q18 2 18 9v9q0 6 -6 6h-6v-3l6 -9v-3q-7 0 -9 12q-4 0 -9 -9v-6q1 -6 6 -6zM517 1070l-3 6v3h12q0 -3 3 -9h-3l-6 3q0 -3 -3 -3zM529 1082v3q4 0 9 -9v-3q-5 0 -9 9zM502 1076v6h3v-6h-3zM845 1076v6h6q0 -6 -6 -6zM899 1076q3 6 3 9
q6 0 6 -6l-6 -3h-3zM929 1082v6h3v-6h-3zM517 1085v6h9v-6h-9zM839 1091v6h3v-6h-3zM899 1097v3h6v-3h-6zM878 1100v6h3v-6h-3zM1299 1097q4 0 9 3q6 -3 12 -3v3q0 4 -18 12h-9v-6h-6v6h-6q0 -9 -6 -9v9h-15v-9q27 -6 39 -6zM836 1103v3h6v-3h-6zM1558 1100h3v6h-3v-6z
M1507 1106v12l-3 6q3 0 3 3q-6 3 -27 6l-18 -3l3 -15h9l-6 9h6q6 -3 9 -3v-3l-3 -6q23 -6 27 -6zM1519 1106q12 4 12 9q-12 1 -12 9h-9v-6q6 -12 9 -12zM1492 1112v6h3v-6h-3zM827 1115v3h6v-3h-6zM896 1115v3q3 0 9 3h3v-3q-3 0 -9 -3h-3zM854 1118v6h3v-6h-3zM881 1121v3
h6v-3h-6zM276 1121h9q6 1 6 6v6q-6 27 -15 27q-12 -4 -12 -9v-15q8 -15 12 -15zM276 1127l3 15q-6 3 -9 3v6q14 -6 15 -12q-3 -5 -3 -12h-6zM824 1127v6h3v-6h-3zM842 1127v6h3v-6h-3zM908 1127v6h3v-6h-3zM935 1130v6h3v-6h-3zM185 1130h10q4 0 12 12v9q0 4 -9 9h-6
q-16 -9 -16 -18q5 -12 9 -12zM188 1136v6h4v-6h-4zM890 1136v6h3v-6h-3zM2070 1136h6v6h-6v-6zM182 1142v3q1 6 6 6q0 -3 4 -3v3q5 -3 9 -3l-3 -6l-6 3h-4zM917 1142v6h3v-6h-3zM2040 1139h9l-3 6l18 3v3h-15q-6 -3 -9 -3v-9zM2094 1139h6v6h-6v-6zM887 1151q3 6 3 9
q7 -6 12 -6v-9q-15 0 -15 6zM824 1148v3h6v-3h-6zM872 1148q0 6 -9 6v6q14 -6 15 -12h-6zM836 1154v6q6 0 6 -6h-6zM851 1154v6h3v-6h-3zM905 1157v3h6v-3h-6zM1206 1154h9q3 0 3 3l6 -3q21 3 21 9l-6 3l-9 -6v9h-15l-15 -3v-6q1 -6 6 -6zM1206 1157v6h6q0 -6 -6 -6z
M827 1169v3h6v-3h-6zM869 1169v3h6v-3h-6zM465 1172v3q0 6 -6 6v-3q1 -6 6 -6zM839 1175v6h3q6 0 6 -6h-9zM857 1181v6h3v-6h-3zM878 1181q9 8 9 12h3v-12q-3 0 -3 3l-6 -3h-3zM110 1181q54 0 72 33v3q0 52 -36 64q-59 0 -81 -91l6 -3v3q13 -6 39 -9zM499 1184v3h6v-3h-6z
M453 1187h3v9h-3v-9zM357 1190q15 15 18 33q-11 27 -30 27h-9q-21 -14 -21 -42q0 -18 42 -18zM502 1193l-6 9q3 6 3 9q-3 0 -3 3h3q6 0 6 -6q-3 -6 -3 -9q5 -3 9 -3v-3h-9zM676 1199v3h6v-3h-6zM1065 1196h6v6h-6v-6zM514 1214v3h3l3 -12q-6 0 -6 9zM866 1208l-3 6v3h3
q6 0 6 -6zM649 1211v18q0 5 -9 9h-12l-6 -3l-6 9v9q1 6 6 6q8 -6 39 -9q10 6 18 6v-6q0 -15 9 -27v-3q-22 -2 -30 -9h-9zM468 1214v6h6q0 -6 -6 -6zM836 1217v3h3q5 -3 12 -3v-3h-6q-6 3 -9 3zM971 1214v3h6v-3h-6zM490 1232v3q7 0 15 12q0 -6 3 -6l-3 -6v-9l6 -9h-3
q-8 15 -12 15h-6zM878 1220v6q5 -3 15 -3v-3q-6 0 -6 -3q-6 3 -9 3zM487 1226h9v-6h-3q-6 1 -6 6zM763 1217h10v3h-7l3 6h-6v-9zM902 1220v3h6v-3h-6zM1423 1217l6 9h-3l-6 -3q0 4 -3 9q3 0 3 3h-6l-6 -3q0 6 -6 6v-3q0 -12 21 -18zM1444 1217h6q4 0 15 15q0 6 -6 6h-12
q-5 0 -9 -18zM779 1220h3l6 3q0 -3 3 -3l3 6l-15 12h-3q0 -4 -7 -12h4l6 3v-9zM1429 1220h6v3h-6v-3zM890 1226v6h-6l-6 -3v6h9q6 0 6 -6v-3h-3zM432 1226h3v6h-3v-6zM474 1229v3h7v-3h-7zM818 1229v3l9 6v-6q-4 0 -9 -3zM836 1229v6h3v-6h-3zM845 1229q0 14 -3 18h6l3 -15z
M791 1232h12v6q0 6 -6 6q0 -9 -6 -9v-3zM863 1235v3h6v-3h-6zM818 1241v6h6v-6h-6zM827 1241q3 6 3 9h3v-9h-6zM917 1247h3v12h-3v-12zM797 1253v3h9v-3h-9zM854 1253v12h6v-6q0 -6 -6 -6zM905 1250q6 1 6 6q-6 0 -6 9l-9 -6q0 9 -6 9l-3 -6q0 -4 18 -9v-3zM769 1256v3h7v-3
h-7zM836 1259v6h3v-6h-3zM830 1262v6h3v-6h-3zM339 1262q21 0 27 40q3 0 9 12q0 3 -3 3l3 6v9q-5 0 -15 9h-18q-13 -18 -30 -18l3 -12q-6 -23 -6 -24q19 -25 30 -25zM760 1265q0 4 -3 9v3h3q0 -3 3 -9v-3h-3zM905 1265h6v9h-6v-9zM246 1268q23 14 33 28v3l-3 6q6 0 6 9
q-3 5 -3 9q7 0 9 21q-3 5 -3 12h-3l-6 -3q0 21 -27 21q-43 0 -61 -33v-3l4 -18q-4 -5 -4 -15q52 -37 58 -37zM857 1271v13l6 -3q-3 -6 -3 -10h-3zM751 1274q0 7 -3 13h6v-13h-3zM899 1274h6v3h-6v-3zM724 1287v3h6v-9q-6 0 -6 6zM757 1281v3h6v-3h-6zM920 1281h6v3h-6v-3z
M477 1287v3q1 6 7 6h6q0 -5 -13 -9zM845 1290v3h9v-6q-6 3 -9 3zM881 1293h9v3q0 6 -6 6l-3 -6v-3zM1200 1296q7 6 12 6v6h-6q-6 0 -6 -6v-6zM487 1302v3l6 3h3v-3q-4 0 -9 -3zM830 1305v9h6v-9h-6zM845 1305v6h3v-6h-3zM920 1302h6v3h-6v-3zM812 1314v3h6v-3h-6zM511 1320
v6h3v-6h-3zM736 1320v3h6v-3h-6zM851 1320v3h6v-3h-6zM751 1323l3 6h-3l-6 -3v3l3 6q9 -2 12 -12h-9zM264 1326v6h3v-6h-3zM499 1326v3h6v-3h-6zM279 1332v6h3v-6h-3zM785 1329h9q0 6 -6 6zM851 1332q0 12 -12 12v3h12q0 -9 6 -9v-6h-6zM276 1344v6h3v-6h-3zM763 1341
q6 3 10 3q0 6 -7 6h-6v-3zM739 1344h6q0 10 21 12v3h-3l-6 -3q-3 13 -15 15v-3l-6 3h-3q-4 0 -9 -9v-3h6q0 9 6 9v-9h3v6q5 0 9 -9q-4 0 -9 -9v-3zM809 1350h3v6q-4 0 -9 3v-3q1 -6 6 -6zM465 1353h6v6h-6v-6zM652 1362q14 18 39 24l3 15v6q-1 10 -36 21q0 3 -24 9
q0 -6 -6 -6l-9 6q-6 0 -6 -9l3 -12l-6 -15q20 -39 36 -39h6zM812 1374h3v6h-3v-6zM487 1383h6v3h-6v-3zM499 1383h6v9q0 5 -12 12q-6 0 -6 -6q12 0 12 -15zM592 1392l12 15v12q0 4 -9 9h-12q-5 0 -12 -12v-3q0 -21 21 -21zM450 1404h9q5 0 9 9v6q0 5 -12 12h-6q-4 0 -9 -9
q2 -18 9 -18zM763 1407h6v6h-6v-6zM393 1425h3q6 1 6 6h-3q-6 0 -6 -6zM490 1425q18 6 21 15v6l-3 6q3 0 3 3q-11 9 -21 9h-3q-16 -8 -16 -24q0 -4 19 -15zM779 1428v3q0 6 -6 6v-3q0 -6 6 -6zM541 1434q30 2 30 18q-2 24 -24 24h-6q-15 -8 -15 -24q4 -12 15 -18zM727 1434
l3 6l-3 15q-6 0 -6 -6v-9q1 -6 6 -6zM396 1440h9v9h-9v-9zM763 1440h3v6h-3v-6zM646 1443h6q6 1 6 6v6q0 4 -9 9q-4 0 -9 -9v-6q1 -6 6 -6zM709 1443h6v6h-6v-6zM736 1449h6v6q-6 0 -6 -6zM544 1455v6h3v-6h-3zM712 1473q6 1 6 6v3q-5 -3 -12 -3q1 -6 6 -6zM252 1476h9
q4 0 12 12v9q-5 12 -21 12l-9 -12v-3q2 -18 9 -18zM682 1476v6l-12 3v-6q2 0 12 -3zM688 1479h3q5 0 9 9h-6q-6 0 -6 -6v-3zM718 1482h3v6h-3v-6zM664 1488h3v6h-3v-6zM703 1488h6q0 5 6 12l6 -3h3q0 7 -21 12v3h-6q0 -7 -15 -9q0 3 -3 3v-3q1 -6 6 -6h3q3 0 3 3
q12 0 12 -12zM517 1491q0 6 9 6v3q0 6 -6 6h-6l-3 -12zM601 1491h6q7 0 9 15q-8 6 -9 6h-9q0 -4 -6 -12q0 -4 9 -9zM676 1515h3v6h-3v-6zM685 1518h6v3h-6v-3zM104 1533h9q28 0 60 61q0 10 9 33q-12 42 -45 69l-15 3h-27q-51 -23 -51 -81q19 -76 51 -76q0 -4 9 -9zM649 1533
q14 6 15 12v24q-22 34 -39 43h-3q-6 0 -6 -6q0 -3 3 -3q0 -3 -12 -18v-3q16 -49 42 -49zM670 1545l6 3l6 -3l3 6q0 6 -6 6h-3q-6 0 -6 -6v-6zM1880 1548h3q0 6 -6 6h-3q1 -6 6 -6zM1233 1557h3q4 0 9 9q0 16 -9 19l-6 -9v-3h6q0 -7 -6 -7q0 3 -3 3v-6q1 -6 6 -6zM324 1594h6
v6h-6v-6zM1745 1624q15 4 15 21q0 4 -9 9q-16 0 -18 -9v-12q0 -8 12 -9zM589 1654v6h-6q1 -6 6 -6zM577 1678h3q6 1 6 6h-3q-6 0 -6 -6zM592 1681h6v6h-6v-6zM628 1693h6q6 1 6 6v9q0 6 -6 6h-6q-4 0 -9 -9q4 -12 9 -12zM477 1705h7v6h-7v-6zM562 1729l3 6v9q-21 18 -21 21
q-18 -6 -18 -24q13 -12 36 -12zM411 1738h9q5 0 9 9v6q0 5 -12 12h-3q-4 0 -12 -12v-6q0 -4 9 -9zM550 1744v3h6v-3h-6zM429 1825h6v6h-6v-6zM426 1831q6 1 6 6l-6 3v-9zM104 1871h6v3h-6v-3zM547 1871h3q6 0 6 6h-9v-6zM547 1886h6v6h-6v-6zM706 1991q6 1 6 6v3q0 6 -6 6
h-3q-6 0 -6 -6q0 -4 9 -9z" class="colorcurrentColor svgShape"></path></svg></g></svg>