<svg id="SvgjsSvg1026" width="288" height="288" xmlns="http://www.w3.org/2000/svg" version="1.1" xmlns:xlink="http://www.w3.org/1999/xlink" xmlns:svgjs="http://svgjs.com/svgjs"><defs id="SvgjsDefs1027"></defs><g id="SvgjsG1028"><svg xmlns="http://www.w3.org/2000/svg" viewBox="-10 0 2520 2048" width="288" height="288"><path fill="#ffffff" d="M1064 38l20 24q-12 22 -12 36h12q0 -24 36 -28q11 0 16 28q10 8 20 8q0 48 -44 48q0 -4 -4 -4v20h-8q0 -11 -24 -56q-6 0 -40 52q4 8 4 12l-8 4q-8 -4 -12 -4q0 4 -16 12q4 8 4 12l-8 4h-12q0 -31 -4 -56q8 -84 36 -84zM1116 82q1 8 8 8v-8h-8zM1304 82h8q9 0 44 16v4l-4 8l24 20q0 -4 4 -4l4 8h-4l4 8q0 8 -8 8q0 -4 -4 -4v4q1 8 8 8l8 -4q0 4 4 12q-4 8 -4 12h-4v-8h-4v8q4 0 4 4q-44 -7 -44 -32l4 -8q0 -9 -24 -24q-41 16 -48 16h-4q-8 0 -8 -8v-4q41 -40 44 -40zM1340 102v8h4v-8h-4zM2056 98h4q8 1 8 8v4q0 8 -8 8h-4v-4q4 -8 4 -12
q-4 0 -4 -4zM920 106q10 8 20 8l-4 8q12 17 12 32q-4 8 -4 12l-8 -4l4 -8v-4h-4q0 12 -20 16q-20 28 -20 36v12q-8 4 -12 4v-16l4 -20l-20 -4q0 -49 40 -72h12zM1292 110v8h4v-8h-4zM152 110h8q5 0 20 20v12q-7 14 -24 20q-23 0 -32 -24q3 -28 28 -28zM256 110h12q8 1 8 8
v12q0 6 -12 12h-8q-6 0 -12 -12v-8q0 -6 12 -12zM1136 130h4q8 0 8 -8v-4q-6 0 -12 12zM260 122v4h8v-4h-8zM900 122v8h4v-8h-4zM1192 126h8v4h-8v-4zM1356 130v4h8v-4h-8zM908 134v8q8 0 8 -8h-8zM1132 134v8h4v-8h-4zM1108 138v4h8v-4h-8zM1192 142h4v8q-8 0 -8 8h-8v-4
q0 -6 12 -12zM884 154v4q1 8 8 8q8 0 8 -8q-9 0 -16 -4zM1220 150h4q0 5 12 24q-12 0 -12 8q-11 -3 -20 -20h8l8 4v-16zM1200 154h4v8h-4v-8zM1188 170h8q8 0 8 24l8 -4v12h8v-12q7 4 16 4v4q0 4 -4 4l12 24l-8 4l4 8v4h-8q0 -8 -12 -8v-4l8 -12v-4q-4 0 -12 -4q0 2 -4 16h4
q-4 7 -4 16l-8 -4h-8q0 9 -4 16q16 0 16 8v4h-4l-8 -4v16h4l8 -4q0 4 16 16q4 0 4 -4l20 4q19 -28 24 -28q36 32 48 32q0 -16 8 -16q16 6 16 12v12h-4v-8h-8q0 16 -8 16v8h8q0 9 -28 16v4h-12q-6 0 -12 -12l-28 4l-20 -4l-4 8q16 0 24 28q4 0 4 4h-4q6 30 28 44l-8 16
q11 0 28 28q50 0 76 60h-12v4q1 8 8 8q0 -4 4 -4l4 8q-6 0 -16 16v4h8l12 -8l8 4q1 -8 8 -8l4 8v4h-8v4q12 0 12 8l-4 8h8v8h-16l4 8v8h-8q-4 0 -32 -8l4 8l-4 8q21 20 48 20l-4 -20v-4q4 0 12 -4l-4 -8v-4q14 0 24 -12q15 24 96 56q0 8 20 32q-4 8 -4 12l12 -8q39 15 40 24
v4q-30 33 -60 44q-20 21 -20 32l-8 -4h-4v12h-8q0 -16 -16 -16q-7 4 -16 4q-8 -10 -8 -16h-8q-26 20 -44 20l-8 -4q-48 11 -48 36l-12 8l-8 -12v-4h8v-20h4q-10 -19 -48 -40h-4l-12 8h-4q-8 0 -8 -8l4 -8q-7 0 -36 -40q-26 0 -40 -4q-20 12 -84 24v-8h-8v4l8 16q-7 4 -16 4
v4l4 8l8 -4h8v12l-28 4q-12 -11 -12 -24q-21 -4 -24 -4q-36 8 -52 8q-13 0 -72 -12q-8 4 -12 4q-27 -6 -56 -40q-7 4 -16 4l-8 -12q8 -4 12 -4v-8q-16 0 -16 -12q0 -24 32 -24l-24 -20v-4q9 0 16 -24q-16 -6 -16 -12v-4q0 -12 40 -12q38 0 60 72h28q9 0 40 12q5 0 32 -24
l8 4q7 -4 20 -4v-8q-11 0 -68 -48q-68 0 -116 -36v-8q0 -6 12 -12q16 3 16 8l8 -4h4v8h8v-8q55 -4 68 -4q45 24 68 24v-12l-76 -24l-20 -16h-4v-8q1 -8 8 -8q56 5 56 20h4v-8q34 0 48 12v-8q-24 -18 -24 -36h-8v8h-8q-39 -13 -104 -64q0 24 -8 24q-38 -8 -60 -8h-4v-4
q1 -8 8 -8q4 0 4 4q16 -8 24 -8v-4q-9 0 -28 -16l-8 4h-4q-8 0 -8 -8q4 0 4 -4h-8q0 4 -4 12q-8 0 -28 -8q0 16 -8 16h-4q-7 0 -12 -24h4l8 4l20 -4v4q8 -4 12 -4v-4q-16 0 -16 -4l-8 4q-8 0 -8 -12h-4v8q4 0 4 4l-20 4l-8 -12q12 -8 28 -8t48 8l8 -4q7 4 16 4
q18 -24 20 -24q8 4 12 4v-8h-8v-8q12 -20 24 -20l-8 -12v-4q9 0 16 -12v-4h4q27 0 64 28l16 -16q-4 0 -4 -4l16 -12l16 12l8 -4v4q-4 7 -4 16q10 8 20 8v8h-8v4q1 8 8 8q9 -21 28 -28q0 -13 36 -20q17 36 32 36q4 0 12 4l4 -8v-4l-8 4q-12 -4 -12 -8q6 -22 40 -56
q0 -8 -16 -8v-12h8v-8q0 -8 -8 -8q0 8 -8 8v-4q1 -8 8 -8zM868 182q8 1 8 8q0 8 -8 8v-16zM2236 182h4q8 1 8 8v8q0 8 -8 8h-4q-8 0 -8 -8v-8q1 -8 8 -8zM1016 214h8v4h-8v-4zM1224 242h8v8q0 6 -12 12v-8q4 -8 4 -12zM1124 250v4h8v-4h-8zM904 262h4v8h-4v-8zM1036 270v8h8
v-8h-8zM1268 274v4h8v-4h-8zM924 278q0 8 -4 8q4 8 4 12h4v-8h-4l4 -8v-4h-4zM1184 282v4h8v-4h-8zM844 282h8q8 1 8 8l-8 4q-8 0 -8 -8v-4zM1092 286v8h4v-8h-4zM1324 290v8h4v-8h-4zM604 290h16v12h8v-8h8v4l-4 20h-12q-10 -8 -16 -8v-4q12 0 12 -8v-4l-8 4h-4v-8z
M1064 294v8h4v-8h-4zM1220 294v8h8v-8h-8zM1268 298l-4 16h8v-16h-4zM1400 294h4q32 15 32 20q0 8 -8 8q0 -4 -4 -4v4l-8 -4q-16 0 -16 16h-4q-5 0 -20 -20q6 -16 12 -16h4q0 16 16 16v-4l-8 -12v-4zM1072 306v8h4v-8h-4zM1240 306v4h8v-4h-8zM636 306h8q0 8 -8 8v-8z
M2204 306q0 12 16 12v4q0 6 -12 12h-8q-8 0 -8 -8v-8q0 -6 12 -12zM1084 314q1 8 8 8v-8h-8zM1332 310h4v8h-4v-8zM924 326v4h16v-8q-7 4 -16 4zM1104 322q0 8 -8 8v8h8q0 -4 4 -12v-4h-4zM1140 322v8h12v-8h-12zM888 326v4h8v-4h-8zM1408 326q8 4 12 4q0 8 -8 8t-8 -8
q4 0 4 -4zM1076 334v4h8v-4h-8zM1116 334v8h4v-8h-4zM1044 342q1 8 8 8h4q0 -8 -8 -8h-4zM1208 342v8h8v-8h-8zM928 346v4h12v-4h-12zM908 350v20h8l-4 -8q4 -8 4 -12h-8zM1072 350v8q8 0 8 -8h-8zM1132 354v8h4v-8h-4zM1056 366h8v-8q-8 1 -8 8zM1072 362q4 8 4 12h4
q8 0 8 -8l-8 -4h-8zM1236 366v4h8v-4h-8zM1100 370v4q4 0 12 4v-8h-12zM924 378v8h4v-8h-4zM1068 378v8q8 0 8 8h8v-12zM1324 382h8q8 1 8 8v8q0 8 -8 8h-4q-8 0 -8 -12v-4h4v8h4v-4q-4 -8 -4 -12zM1156 390v12h4v-12h-4zM1528 386h28q9 0 12 20l-8 4h-12v-16h-8v8
q-6 0 -12 -12v-4zM80 394h8v8h-8v-8zM1056 410v12q9 0 16 4v-4q0 -6 -12 -12h-4zM1576 406h12q24 2 24 12q0 6 -12 12h-4q-5 0 -20 -20v-4zM136 410h16q6 0 12 12q0 8 -8 8h-20q0 -8 -4 -8q4 -8 4 -12zM1080 438h8v-8q-8 1 -8 8zM932 434h8v12h-8v-12zM1096 438v4h8v-4h-8z
M1756 434h12q6 0 12 12q0 6 -16 16h-4q-6 0 -12 -12v-8l12 8h4v-12h-8v-4zM1608 442l4 8l-8 4l-4 -8zM1292 462v8q15 0 24 8v-8q-7 0 -24 -8zM428 462q60 9 60 24q-4 12 -24 12q-44 -15 -44 -24zM940 462h8l20 4v16q-36 -4 -36 -12q1 -8 8 -8zM1020 466v4h8v-4h-8zM1048 470
v4q1 8 8 8h4v-4q0 -8 -8 -8h-4zM1096 474v4h8v-4h-8zM1308 482q1 8 8 8v-8h-8zM848 482h8v8h-8v-8zM1668 482l4 8l-8 4l-4 -8zM548 486q8 4 12 4q21 -4 24 -4q30 15 36 28q-6 16 -28 16q-16 0 -56 -32q6 0 12 -12zM1300 506h4q8 -4 12 -4v-8q-16 6 -16 12zM1092 498v8
q4 0 12 4l-4 8v16q8 0 8 -12l8 4l-4 -8q4 -7 4 -16l-20 -4h-4zM1356 498v8h4v-8h-4zM1084 502v8q4 8 4 12h4v-4q-4 -7 -4 -16h-4zM660 506h4q4 0 4 4l8 -4h4q8 1 8 8h-12v4l16 16h-12q-12 -3 -20 -28zM688 514h4q36 8 36 16q-12 0 -12 16h-4zM1348 522v4h8v-4h-8zM748 522
h12v16q-6 0 -12 -12v-4zM1352 530v4h8v-4h-8zM1092 534v8h8q0 -8 -8 -8zM1080 538v8h4v-8h-4zM1128 546v8h4v-8h-4zM1076 554q4 7 4 16h4v-16h-8zM1392 558q1 8 8 8v-8h-8zM876 562v8h4q8 0 8 -8h-12zM904 566v8h8q0 -8 -8 -8zM868 574l-12 16v4h8q6 0 12 -16zM1436 578v12
h8v-4q0 -8 -8 -8zM840 578h4q0 6 -12 12v-4q1 -8 8 -8zM880 582l8 12v8l-8 -4h-4v4h8v4q0 8 -16 8v4q16 18 16 20l-8 12v4q56 0 56 -24q-32 -18 -32 -24v-20zM1620 582h4v8h-4v-8zM904 594q4 8 4 12h4q0 -4 4 -12h-12zM1040 610v12h8q-4 -8 -4 -12h-4zM1064 626v4h8v-4h-8z
M1048 630v4h8v-4h-8zM1120 630v8h4v-8h-4zM1468 630q0 4 -4 12q8 1 8 8h-4l-8 -4v4l4 8q-4 7 -4 16l36 4l4 -8q-5 0 -20 -20q0 -4 4 -4q-6 -16 -12 -16h-4zM1488 630v8h12q0 -8 -8 -8h-4zM844 634v4h8v-4h-8zM1036 642v4h8v-4h-8zM1016 650v8h4v-8h-4zM1052 650v4h8v-4h-8z
M1092 662v4h8v-4h-8zM1248 662v4l4 16l20 -4q-8 -16 -24 -16zM1516 666v8h4v-8h-4zM1100 670q0 7 -8 20l-8 -4h-8v12q8 0 8 8h4v-8q-4 0 -4 -4q20 0 20 -20v-4h-4zM1532 686q1 8 8 8h8q-4 -7 -4 -16h-4q-8 1 -8 8zM1284 682v4q0 6 12 12h8v-4q0 -6 -12 -12h-8zM1676 678h8
q0 8 -8 8v-8zM1048 694v8q8 0 8 -8h-8zM2036 690h8v4h-8v-4zM1516 702v8h4v-8h-4zM1688 698h4q8 1 8 8h-4q-8 0 -8 -8zM1504 706v4h8v-4h-8zM1748 702q8 1 8 8h-8v-8zM1696 710v12h-8v-4q1 -8 8 -8zM1512 718v4h8v-4h-8zM1940 714h4q8 1 8 8v12q0 8 -8 8h-8q-8 0 -8 -8v-8
q0 -6 12 -12zM1124 718h4q8 1 8 8h-4q-8 0 -8 -8zM1636 722h4v8h-4v-8zM1496 730v8h4v-8h-4zM1140 730h4q8 1 8 8q-6 0 -16 8h-4q8 -10 8 -16zM1796 734q8 1 8 8v8h-8q-8 0 -8 -8q1 -8 8 -8zM1504 746v4h8v-4h-8zM1640 742h8v8h-8v-8zM1164 746h12q15 20 24 20v8l-4 8h8v-8
h4l44 24l4 20q-4 8 -4 12l-12 -8v4q8 1 8 8q0 4 -4 4q8 13 8 24q-19 -4 -36 -20l-8 4q0 -6 -32 -28l-8 4h-8q0 -18 -16 -36h4q16 7 16 16h4v-12l8 4l8 -16q-4 -8 -4 -12q4 0 4 -4l-8 -4q-8 18 -16 20h-4l4 -8h-8v-8q12 0 12 -16zM1132 750h4v8h-4v-8zM1820 750h8v4
q-4 8 -4 12q4 0 4 4l-8 4l-8 -12v-4q1 -8 8 -8zM1836 766h4v8h-4v-8zM1144 770h4v8h-4v-8zM1852 770h8v8q-8 0 -8 -8zM1712 774h8v4h-8v-4zM1720 778h4v8h-4v-8zM1184 786v8q18 0 24 4l4 -8q-4 0 -12 -4v4l-8 -4h-8zM1508 782q8 4 12 4q0 6 -12 12l-4 -8zM1836 782h8
q0 16 8 16q1 -8 8 -8v4q0 8 -8 8h-12q-8 0 -8 -8q4 -8 4 -12zM896 786v4q0 8 -8 8t-8 -8zM1228 790v8h8q0 -8 -8 -8zM1172 802v8h12q0 -8 -8 -8h-4zM1200 802v4h12v-4h-12zM1216 802q0 20 -16 20v4q0 5 36 20l4 -8q-16 -6 -16 -12h12v-12q-7 0 -20 -12zM1196 810q1 8 8 8v-8
h-8zM1284 810l4 8l8 -4q8 1 8 8q-4 24 -12 24h-4q-28 -11 -28 -16v-12h8v8h4v-8q-4 0 -4 -4q2 0 16 -4zM1744 810l8 12v24q-7 0 -20 12l-16 -20q0 -28 28 -28zM1276 822v8h4v-8h-4zM1356 826h8q18 15 32 44v20h-16v-8l4 -8h-20l-12 8h-12q-10 0 -12 -16q23 -40 28 -40z
M1352 838v8h8q0 -8 -8 -8zM1668 838h4q12 4 12 24l-32 32h-16q-16 -7 -16 -28v-4q7 -16 28 -16v4zM1596 842q5 0 20 20v4q-4 17 -4 28q6 0 12 16q0 32 -28 32v4l8 12l8 -4q30 0 32 12l-8 20h4l12 -8h4q9 0 12 20l-12 8h-4q-8 0 -8 -12h-4l-12 8q8 13 8 20h-8v-8l-12 8h-4
l-8 -4v8h-8q-11 0 -12 -20l-20 4q-9 0 -32 -20q0 16 -8 16h-4q-8 0 -8 -8v-8q18 0 24 -16l-8 -4h-4q-3 20 -32 20q-20 -11 -20 -36q13 -32 48 -32q0 -16 -16 -16q8 -30 8 -40q-8 0 -8 20h-8l-4 -24l24 -12q8 4 12 4q1 -8 8 -8h4q0 15 16 24v4q16 -32 32 -32h8zM1760 842h4
q8 1 8 8l-8 4h-4q-8 0 -8 -8zM1300 846h4q10 8 20 8v4h-12v4h8v4q-8 10 -12 40q16 0 16 20l-8 4h-8v-8h8q0 -8 -8 -8q-4 36 -28 36l-4 -8q0 -4 4 -4q-5 -28 -12 -28l4 -8v-12l-8 4q-7 -4 -16 -4q3 -12 16 -16q1 8 8 8v-12q8 1 8 8q20 -5 20 -12v-20zM1716 858q16 6 16 12v20
q0 12 -24 12l4 40l-20 16h-12q-22 0 -32 -20v-24l44 -32q7 -24 24 -24zM2052 858h4q8 1 8 8v4q0 6 -12 12q-8 -13 -8 -20zM1272 862v8h-8q1 -8 8 -8zM1948 870h8q16 6 16 28q0 6 -16 16h-4q-16 -7 -16 -28v-4q0 -6 12 -12zM1276 886v4h16l-4 -8q-8 4 -12 4zM1856 878h8v4h-8
v-4zM1404 890l16 16l20 -4h4v4q0 5 -24 24v4h12v8l-20 -4v8h-4q0 -12 -16 -12v-4q12 0 12 -16l8 4l4 -8q-12 0 -12 -12h-4v12h-8v-16q4 0 12 -4zM1464 890l4 8l-8 4l4 8v4h-8q0 -7 -8 -20q9 0 16 -4zM1764 894h4q0 8 4 8q-4 8 -4 12h-8zM1832 894h8v8h-8v-8zM1288 902
q0 8 -4 8q4 8 4 12h8q8 0 8 -8q-4 -8 -4 -12h-12zM1844 902h8v4h-8v-4zM1820 906h8v12q-8 0 -8 -8v-4zM1420 914v4h8v-4h-8zM1780 914v4q0 8 -8 8v-4q1 -8 8 -8zM1836 914h8v8h-16q1 -8 8 -8zM1328 930q8 1 8 8q0 8 -8 8l-8 -12zM1460 934q8 1 8 8v8q-8 0 -8 -8v-8z
M1872 942h4v16h-4v-16zM1304 946h8v8h-8v-8zM1892 946h8q0 8 -8 8v-8zM1292 950q8 1 8 8h-8v-8zM1344 950l4 8l-8 4q8 13 8 20q-15 -20 -20 -20v-8zM1460 950h4v4q-8 18 -16 20h-4v-8q6 0 16 -16zM1936 958l4 8v4q0 8 -8 8t-8 -8q0 -6 12 -12zM1404 962h16v12q-10 -8 -16 -8
v-4zM924 970h8v8q-8 0 -8 -8zM1428 970q8 4 12 4v8h-4q-8 0 -8 -8v-4zM1400 974h4q8 1 8 8q0 8 -8 8h-4q-8 0 -8 -8q1 -8 8 -8zM1360 978h8v4h-8v-4zM1796 982q16 6 16 12v4q0 28 -24 28l-12 -16v-12q8 -16 20 -16zM2228 990h4q6 0 12 12q0 6 -12 12h-4q-6 0 -12 -12
q0 -6 12 -12zM1716 1006h8q8 1 8 8v8h-16v-16zM1824 1018h4q5 0 20 28l-28 4l-8 -12v-8q0 -6 12 -12zM1948 1022h12v4q0 8 -8 8l-4 -8v-4zM1612 1034h12q0 8 -8 8zM1756 1046h12q28 7 28 80q-9 0 -12 20l8 -4q6 0 12 12v4q0 8 -8 8h-4l-12 -8l-20 4q-10 -20 -16 -20h-4
q0 12 -8 12h-4v-24q16 0 16 -12v-8q0 -8 -8 -8h-4q0 37 -44 40q0 28 -16 28q-32 -14 -32 -36q-4 0 -24 16h-4q0 -6 -60 -40q0 -10 -16 -20l16 -28h8q9 10 40 20q0 -4 4 -4q0 6 12 12h4q10 -32 40 -32h8q16 15 52 20q0 6 12 12q0 -8 4 -8l-4 -8v-4q0 -6 24 -24zM1896 1058h8
v8h-8v-8zM1744 1074v8h4v-8h-4zM1456 1094h8v8h-8v-8zM1528 1134l4 8l-16 8l-4 -8zM1296 1154h12v4q0 8 -8 8l-4 -8v-4zM1880 1158h4q14 0 32 32l-4 20q20 0 40 68q19 9 28 28v28l-8 12v8h8v12h-4l-8 -4l-40 40q-15 -9 -28 -36v-4q0 -4 4 -4q0 -12 -32 -64q0 -13 -4 -20
q8 -21 12 -56q-25 0 -28 -32q0 -28 28 -28zM1704 1258q33 15 72 52q16 0 16 8q0 9 -4 16q4 7 4 16q-10 60 -60 72h-12q-35 0 -68 -64q-8 16 -24 16l-12 -16v-8q0 -3 28 -28l-4 -28l8 -4l8 4q13 -36 48 -36zM1800 1282h12q0 8 -8 8zM1480 1342q8 1 8 8v4q0 8 -8 8t-8 -8v-4
q1 -8 8 -8zM1520 1378h12q0 8 -8 8h-4v-8zM1536 1382h12v12q0 8 -8 8h-8q4 -7 4 -20zM1520 1390h4q8 1 8 8h-4q-8 0 -8 -8zM1412 1398l4 8v4q0 8 -8 8t-8 -8q0 -6 12 -12zM1656 1430h4v8q0 8 -8 8l-4 -8q1 -8 8 -8zM1628 1438h4v4q0 8 -8 8h-4v-4q1 -8 8 -8zM1552 1554h4v4
q0 8 -8 8l-4 -8zM1484 1562h12q0 8 -8 8zM1460 1594h4v8h-4v-8zM1472 1606v8q-4 0 -12 4l-4 -8q9 0 16 -4zM1472 1630q0 3 -4 32h-8l-8 -28q5 -4 20 -4zM1476 1638h8v16q-8 0 -8 -8v-8zM1444 1654h4q8 1 8 8v8h-4q-8 0 -8 -8v-8zM1500 1682v8q0 8 -8 8h-4v-4q0 -6 12 -12z
M1532 1782h4q6 0 12 12v4q0 21 -12 24h-12q-8 0 -8 -8v-16q0 -6 16 -16zM2120 1802h4q8 1 8 8l-8 4l-4 -8v-4zM2340 1866q8 4 12 4v4h-12v-8zM2392 1974q8 1 8 8v4q-8 0 -8 -8v-4zM2372 1994h8v8h-8v-8zM2388 2018h8v8q-8 0 -8 -8z" class="colorcurrentColor svgShape"></path></svg></g></svg>