<svg id="SvgjsSvg1077" width="288" height="288" xmlns="http://www.w3.org/2000/svg" version="1.1" xmlns:xlink="http://www.w3.org/1999/xlink" xmlns:svgjs="http://svgjs.com/svgjs"><defs id="SvgjsDefs1078"></defs><g id="SvgjsG1079"><svg xmlns="http://www.w3.org/2000/svg" viewBox="-10 0 2900 2048" width="288" height="288"><path fill="#ffffff" d="M1515 -27h4v5q-4 0 -4 -5zM1508 -25h4v5q0 5 -4 5h-3q-4 0 -4 -5zM2247 -20h4q5 1 5 5q-14 13 -16 13h-3v-7q-4 1 -4 5v2l2 5l-23 14l-2 -5q3 0 14 -14l4 3h2v-3h-4v-2q0 -3 21 -16zM1501 -18l2 9q-4 -2 -7 -2v-2q1 -5 5 -5zM1519 -18v5q-2 4 -2 7h-5q-4 0 -4 -5zM1801 33l2 5v2q-3 25 -23 25l-4 -7v-2q12 -23 25 -23zM1787 49h7q0 -6 5 -11h-3q-3 0 -9 11zM1783 52q0 4 4 4v-4h-4zM1879 58h3l4 3q0 40 -37 48h-2q-9 -4 -9 -16q0 -26 41 -35zM1866 70v5h2v-5h-2zM1875 70q1 5 4 5v-5h-4zM1868 77v2h5v-2h-5zM1011 84h3q3 0 7 7v4
q0 4 -7 7q-4 0 -7 -7v-4q4 0 4 -7zM2339 128h7q5 0 5 4t-10 10h-2l-5 -3q0 7 -16 14v-2q16 -19 16 -21zM2309 151h2q-2 10 -11 14q0 -3 -3 -3q0 5 -4 5v-7q4 0 16 -9zM2311 153h5q0 5 -5 5v-5zM771 162q9 10 14 10q9 -3 9 -10h3q4 1 4 5l-2 5q7 0 14 13l-3 5h3l-3 5v9h3v-5
h4v19h-4q5 5 18 25v2q-7 0 -7 5h3l7 -5l2 17v2q0 20 -28 28q-18 -9 -18 -23h-5q-5 0 -9 2q-37 0 -42 -53q0 -30 37 -56zM2290 165v7h-4v-3q1 -4 4 -4zM2277 172h4v2h-4v-2zM1281 197q5 6 5 9q-3 9 -7 9h-2q-5 0 -5 -4v-5q0 -3 9 -9zM660 199h5q5 0 7 19h-2q4 10 9 11
q0 -2 2 -2l32 39l-9 37q0 2 3 2q-10 65 -17 72l3 5q-21 83 -86 83q-8 0 -37 -12q-8 3 -9 3q-30 -11 -30 -30q-14 -18 -14 -28v-7q-7 0 -7 -5v-4q0 -35 14 -35q0 -28 26 -48v-5h13q8 0 17 7q15 -6 20 -14l-2 -16l12 2q27 -54 36 -58q0 3 3 3q0 -12 11 -19zM1279 202v4h2v-4
h-2zM1438 202q12 3 12 13q0 30 -32 40q-10 -3 -14 -12v-7q3 -34 34 -34zM810 211v4h3v-4h-3zM1438 222v5h3v-5h-3zM817 227v5h3v-5h-3zM1011 225h5q3 0 7 7v7q0 3 -7 6h-5q-3 0 -7 -6v-7q0 -4 7 -7zM1665 227h7v2q-3 0 -7 3v-5zM637 234v5h3v-5h-3zM1667 232h2v4h-2v-4z
M1445 255h17l4 2q0 48 -34 48q-12 -8 -12 -18v-2q0 -17 25 -30zM891 269q14 14 14 23q-1 32 -23 32q0 2 -2 2q-16 0 -21 -27q0 -24 32 -30zM577 278l3 4q0 5 -5 5h-2v-5q0 -4 4 -4zM1164 301h4q2 0 7 7l12 -7h2q21 9 21 18l4 -2h5q7 2 7 14q-20 69 -53 69q-24 0 -35 -18
q3 0 3 -3q-5 0 -5 -4v-12q0 -2 2 -2q0 -2 -2 -2q1 -24 28 -54v-4zM930 329q19 7 19 20q-6 33 -28 33q-14 0 -18 -21q7 -32 27 -32zM1161 331v5h3v-5h-3zM1150 342v3h4v-3h-4zM1178 342v3h4v-3h-4zM1044 356q11 5 11 23l-14 10h-7q-3 0 -9 -10v-4q0 -19 19 -19zM919 363v7h2
q0 -2 3 -7h-5zM1443 361q12 3 12 7v11q-8 33 -30 33q-14 0 -19 -16q0 -29 37 -35zM1111 370v14q0 4 -10 9q-3 0 -7 -7v-7q0 -6 17 -9zM974 379h3q0 7 9 7q0 8 -7 16v3q3 9 21 9q0 7 -12 32q3 10 7 17l16 -3h3q5 0 7 12q-21 9 -21 18l2 12l12 -3h7q8 0 20 3q10 -3 10 -12
q4 0 13 5l14 -2h7l-2 11l5 -2h4q-4 7 -4 14v4q11 7 11 14l7 5q0 -7 5 -7l2 4q-2 5 -2 7l4 -2h3l-5 7v5h2q7 0 7 -10h2v7q-4 1 -4 5v4l11 3q12 -5 30 -23h3q2 0 2 2q4 0 16 -14l2 5v2q0 2 -2 2l2 5q-2 4 -2 7l9 7h5l42 -23q17 -14 32 -37l-2 -5q9 -30 30 -30l2 16
q-5 20 -62 72q-10 28 -26 28q-8 -10 -21 -12v-2q-3 0 -25 23q-3 0 -7 -7q5 -15 5 -21q-3 0 -7 -2q-12 15 -12 23v5q5 16 35 16v7q0 18 37 20q16 6 16 12q-8 46 -25 46q-5 9 -12 9v5q9 0 23 7q1 -5 5 -5h2q0 7 5 7l-7 14v9l2 12q-5 1 -5 5v4q10 -1 10 -16l7 5q0 -4 7 -7
q2 0 2 2q7 -5 11 -5l10 3q7 -5 13 -5q2 9 7 9v-9h3v-2h-5v-5h5q4 0 4 7q-6 21 -11 21v4q7 -4 11 -4l-2 -5v-2h2l5 2l-2 5v2l4 -2h5v2q0 2 -2 2l4 10q-2 15 -2 25v7q-4 0 -23 28q-10 4 -37 4h-9q-17 -8 -26 -20q5 -3 7 -3v-2q-2 0 -14 -2l5 7v2h-2q-3 0 -12 -16q-22 3 -28 4
q-32 -10 -32 -34q-23 -13 -28 -19q0 -9 -14 -25q0 2 -2 2q-1 -4 -32 -21v-11q-16 -13 -16 -33v-4q0 -2 2 -2l-9 -24q2 -4 2 -6q-7 0 -12 -24q-13 0 -34 26l-12 2q-18 -4 -18 -16q4 0 4 -5q-2 0 -6 -2q9 -24 9 -30v-2q-3 -14 -3 -21h5q0 -5 -7 -5v-2q7 0 7 -5v-11q7 0 7 -5
h-2q-12 9 -26 9h-2q-13 0 -25 -11q-5 0 -5 -5l7 -14q-4 0 -12 -6v-3q0 -4 7 -4l-7 -14l10 -23q-3 -5 -3 -7l5 -3l-2 -4v-9l4 2h2v-5l-4 3v-5q0 -4 11 -19l5 3h2l-2 -5v-2q19 0 32 -19zM1649 384h4v5q0 3 -7 7q-4 0 -4 -5q0 -3 7 -7zM898 393h2q5 1 5 5l-5 2h-2v-7zM1231 407
q9 4 9 7v9q0 3 -14 14h-5q-3 0 -7 -7v-11q0 -5 17 -12zM1083 414h2q5 0 7 14l-7 4h-4q-5 0 -5 -4v-7q0 -3 7 -7zM1171 430l4 7v2q0 6 -21 12q0 -2 -2 -2q7 -19 19 -19zM693 437h2v5h-2v-5zM928 456v4h5v-4h-5zM1021 458h6q0 5 -4 5h-2v-5zM928 465v7h2v-7h-2zM928 516h2
q5 0 5 -5h-2q-5 1 -5 5zM827 513h9q9 4 9 16q0 21 -23 21q-9 -9 -9 -18t14 -19zM940 518q0 5 4 5v-5h-4zM2120 518q4 1 4 5v2q0 4 -4 4q-5 0 -5 -4v-2q1 -5 5 -5zM1148 525l2 4v3q-6 11 -9 11h-10q0 -4 -4 -4q12 -14 21 -14zM603 532q12 0 16 27q0 14 -14 24h-9
q-14 -7 -14 -28q0 -13 21 -23zM510 543h3q4 1 4 5v7q0 4 -4 4h-3q-3 0 -7 -6v-3q0 -3 7 -7zM65 548q4 1 4 5v2h-9v-2q1 -5 5 -5zM656 548h2q5 1 5 5v2l-5 -2q-4 2 -7 2v-2q1 -5 5 -5zM1166 550v3h7v-3h-7zM672 610h5v5h-5v-5zM1692 610h7q0 5 -4 5h-3v-5zM1305 620q4 0 4 4
v5q0 4 -4 4h-3v-4l-4 2v-2q3 -9 7 -9zM905 631q12 3 12 19q-5 10 -10 11h-11q-3 0 -7 -7v-7q0 -16 16 -16zM1298 631v5q-9 9 -17 27l-13 7l-3 -4q5 -15 33 -35zM540 638q5 11 10 12q-4 32 -14 32h-12q-11 -6 -11 -19v-2q0 -23 27 -23zM607 640q5 1 5 5h-5v-5zM1376 645
q14 2 14 7q0 4 -5 4v-6h-4v13h-3l-4 -2l2 -5v-11zM723 650q3 0 7 6v3q0 4 -5 4h-5q-4 0 -4 -4q3 -9 7 -9zM1124 661v2h5v-2h-5zM1002 673h2v2q0 5 -4 5l-3 -5zM1134 675v2h4v-2h-4zM628 675h5v2h-5v-2zM991 677h4v3q0 4 -4 4v-7zM1007 684l2 5q-2 4 -2 7h-5v-3l2 -4
q-2 0 -2 -3zM344 686h5v3q0 4 -5 4v-7zM432 693h2q12 5 12 17q0 3 -10 9h-4q-4 0 -7 -7v-12q0 -3 7 -7zM429 700v3h5v-3h-5zM621 698h2v5h-2v-5zM1057 700h3v7h-7v-2q1 -5 4 -5zM663 723h2v5h-2v-5zM543 730q18 0 30 35q4 1 4 5q-9 10 -9 11q12 1 12 7v7l-5 16l25 32
q5 -2 7 -2q3 5 3 7h4l28 -11q16 3 16 9l-2 4h9v7q5 17 5 19q-14 38 -19 76q-4 0 -14 18v10h3l11 -3v3q-10 16 -14 16h-2q-2 0 -2 -2q-6 0 -17 18v7h3q11 -7 11 -14h3l7 5l20 -19q-2 -4 -2 -7q5 0 5 -4v-3l-10 10h-2v-3l5 -7q-3 0 -3 -2h12v5h12l4 2q0 -3 7 -7q23 14 23 21h2
l3 -9h2l9 7q5 -18 40 -42q17 -30 41 -30h16q21 11 21 42v11l5 7q-8 1 -23 21q-3 0 -3 -3q-27 9 -27 35v2l4 7v5h-4v2q20 0 20 3l5 -3q12 5 12 7q11 -4 16 -4q10 0 18 32q21 0 21 30l-2 5q4 0 4 4q-11 9 -21 26q-11 0 -11 11q4 0 9 9v3q0 2 -2 2l2 5v4q0 5 -4 5l2 11
q-2 5 -2 7q2 0 2 3h-2q1 9 4 9q5 -2 7 -2l5 9q-5 0 -5 2l-11 -7v5q-5 0 -5 -5l2 -4h-2q-5 2 -7 2v4q0 6 2 10q-2 4 -2 9h-2q-5 0 -5 -5q0 -2 2 -2l-2 -5l2 -4q-4 0 -4 -5l-5 2q-35 -12 -35 -23h-2q-3 0 -7 7l14 12q0 -2 2 -2v2l-2 4l5 3l-3 4q19 12 19 17h2l-2 4v5
q14 9 14 21h7q-7 -8 -7 -19q4 -2 9 -2v-12l9 -9h5v2q0 5 -7 5v2h9l5 -11h2l2 11v3q-2 0 -2 -3q-4 3 -7 3v2h5v-2l4 2q5 0 5 -5q16 3 16 7l-11 2v5l11 -2q0 2 2 2v-2l-2 -5q7 0 7 -7l7 5v-5h7l-5 7q3 0 3 2q-7 0 -7 5h-3l-4 -2v11q5 0 9 3l-2 4v3h2l16 -3q0 3 2 3q1 -5 5 -5
l7 14h-7v-7l-5 2q0 -2 -2 -2q0 5 -9 5q0 2 2 2l-2 4v5l9 12l9 -5q0 4 12 18q4 -2 7 -2v2q-2 4 -2 10l4 -3h3v3q0 2 -3 2l3 5v4l-7 -4q0 3 -7 7h-3l-4 -3v3q0 5 18 9l3 4l-5 3l-5 -3l3 5q0 4 -14 7l-3 -5h7v-2q-9 -11 -9 -14h-2v2q2 5 2 10q0 7 -7 7v4q1 0 9 3v13l-11 3
l-2 -5v-2h9q0 -9 -23 -16v-3q7 0 16 -7l4 3l3 -5q-2 0 -16 -11q0 -5 4 -5l5 2q0 -2 2 -2v7h7v-2q-5 -7 -7 -17h5l9 12v-2l-2 -12h2l5 2v-4q-3 0 -7 -3l-3 5l-4 -2h-3q-2 0 -11 14l-7 -5l-5 7q4 0 7 7h-2q-2 0 -2 -2q-5 2 -7 2q0 5 7 18h-3q-15 -23 -20 -23v-7h4q0 10 5 10h4
v-5h-4v-5q1 -4 4 -4v4h5l5 -11q-3 -5 -3 -7l-7 4h-2q-9 -4 -9 -11h-2v5q3 0 9 9l-5 2l-2 -5l-9 5q-16 -5 -16 -9v-2h2l4 2h3v-2h-5l2 -5l-4 -2h-2v4h-10v-4h5v-7h-5l-4 2l-3 -5l5 -2q-5 -14 -9 -14h-3l3 5q0 4 -5 4l-11 -2l2 5h-5l-4 -3q-10 10 -17 10v4h-16q-14 -8 -14 -11
v-5h3l9 5v-5l-2 -4l-5 2q-5 0 -5 -5v-4q0 -3 14 -17q-9 0 -9 -9l-16 5l-2 -5v-4h4q0 -4 -11 -7q-21 0 -21 13h-5v-4h-4v9h2l5 -2q0 8 11 11q2 -14 7 -14q5 1 5 5v5q-4 0 -12 7l-11 -3q-30 7 -30 19q13 5 13 9q-6 0 -6 5q4 0 9 25q0 2 -3 2q5 8 5 14q-10 30 -18 30
q-21 -2 -51 -14l-14 3h-2l-12 -3l-18 12q0 2 -3 2q-4 0 -7 -18q-13 -6 -13 -7l-5 2h-5q-9 -14 -14 -14q-4 3 -6 3l2 4q0 5 -5 5h-4l-5 -2q0 4 -5 4q0 -4 -4 -4q-16 0 -16 20h-7q-7 0 -7 -14l-12 3h-7q-12 -9 -25 -9q0 1 -2 9q16 5 16 9v2q-6 -4 -7 -4v14l-7 4h-2v-4h4
q0 -5 -4 -5q0 5 -5 5l2 4h-4q-5 0 -5 -4v-5l5 2l2 -4q-8 -3 -9 -3l2 5q-4 0 -9 5l-7 -5q-5 2 -7 2v-4h5v-3q0 -4 -7 -4v-3q12 -2 13 -2q5 2 7 2q5 -13 17 -13v-3q-14 -2 -14 -7q2 0 2 -2q4 0 18 5q0 -7 7 -7v-5l-2 -5q2 0 2 -2h-2l-5 2v-6q3 0 7 -3q4 3 10 3h2l-2 -5l4 -7
q-3 -9 -7 -9q0 11 -7 11h-9q-7 -2 -7 -14q4 0 7 -6v-3q-7 0 -11 -9v-12q-6 0 -14 -11q-16 -13 -16 -23v-9h-3q-8 0 -14 23q7 0 7 16l5 -3h5v10h-3l-4 -3q0 28 -7 28h-7q-24 -21 -35 -39q-8 0 -25 -30l-5 -2l2 -12q-4 -21 -4 -30q0 -16 16 -16q0 -5 9 -7q0 -2 3 -2
q-3 -5 -3 -7l19 -21q0 -9 11 -9l3 -12q-7 -5 -19 -9q-3 -16 -9 -16h-9v7h-5q-13 -67 -23 -67l2 -12l-2 -11l16 -30l16 -5v-19q0 -2 3 -2l-3 -4q3 -5 3 -7q-17 -10 -17 -33q5 -27 28 -27h7q15 16 18 16v14q0 5 3 9q-5 7 -5 11q9 0 14 42q8 0 19 16q14 5 16 5v4l-5 -2h-2v2
l16 14q13 0 16 19h2q0 -30 26 -30q0 4 7 4v5h-5v2h5q0 -2 2 -2l5 7v2q0 2 -3 2q3 4 3 14h2l5 -2l2 5l-9 7l2 4l-5 7v5h3q2 -1 18 -23h2q6 13 21 13h5q-5 -8 -5 -18q0 -2 12 -12v-2q-7 0 -7 -5q0 -4 7 -4v-5q-4 0 -9 -9q0 3 -14 14h-5q-18 0 -18 -19v-13q14 -21 20 -21
q19 3 19 21v2h2q14 -16 14 -32l-7 4l-11 -2v-2q0 -5 4 -5l5 2v-4h-9v4q-7 -1 -7 -18v-7h2q0 7 5 7v-9q-5 0 -5 -5v-2q11 0 21 -35q-3 -5 -3 -7q5 -7 5 -12q-14 -7 -14 -18q2 0 7 -7l-2 -5q2 -4 2 -6q-5 0 -7 -17h-4l-12 12h-7q-7 0 -12 -23v-26q14 -20 24 -23zM1261 742l4 2
v-7q-4 1 -4 5zM1272 737q1 5 5 5l2 -5h-7zM1275 747v2h6v-2h-6zM1270 753v3h5v-3h-5zM1298 763q0 4 -3 4q3 4 3 10q4 -3 7 -3q-5 -6 -5 -11h-2zM494 765h5q0 5 -5 5v-5zM524 777v6h2v-6h-2zM730 777h4q4 0 7 6v10q0 3 -9 9h-7q-3 0 -7 -7v-7q0 -3 12 -11zM1039 777h7
q5 0 5 11q-4 2 -10 2h-2l5 -7l-5 -2v7h-2l-5 -2v4q0 5 14 7q0 5 -5 5q-6 0 -14 -5q0 -16 12 -20zM111 786h4q4 0 7 7v4q0 5 -4 5h-5q-3 0 -7 -7v-5q1 -4 5 -4zM374 790q5 1 5 5v2l-12 3q4 -10 7 -10zM1261 793v7h2v-7h-2zM1293 793v4h2v-4h-2zM1046 793h5v4h-5v-4zM568 800
v4h2v-4h-2zM1256 802v5h2v-5h-2zM369 802h5v5q-5 0 -5 -5zM1341 802h12v5l7 -5h2q5 0 10 14q-5 1 -5 4q10 0 16 10v2l-2 5q7 0 7 6q7 0 7 -13l7 4l4 -7l5 3q2 0 2 -3l5 3h2v-3l-7 -9v-2q11 0 16 -5h7l5 2q4 -10 9 -11q0 7 7 7l11 -2q0 6 17 6l-7 10v4q11 0 11 -14h5
q0 12 -7 12v12h5v-12h11q3 0 7 7l-2 5l4 2v-5h5q2 12 2 14q0 15 -25 26l-37 -3q0 3 -16 9q-5 -2 -7 -2l-5 2q-34 -12 -34 -27l-5 2h-9q-3 0 -12 -12q-24 10 -32 10h-5q-3 0 -11 -14v-2h2q4 2 7 2v-2q0 -5 -5 -5l-7 5v-10q3 0 7 -2q0 3 7 7q3 -5 3 -7h2q4 0 4 9h5l-2 -11v-3
l2 -11q-5 0 -5 -5v-2zM1348 820q7 0 7 10l5 -3l7 5l2 -9h-2l-5 2l-2 -5v-7h7v-2q-7 0 -7 -4q-12 1 -12 13zM473 807h7v4h-7v-4zM1335 807h4v9q-4 0 -4 4h-5v-2q5 -7 5 -11zM1457 811v9q9 -3 9 -7q-5 0 -9 -2zM466 813h7q0 5 -4 5h-3v-5zM1443 820h5v-4q-5 1 -5 4zM563 820v3
h5v4h-12v3q7 0 7 7l5 -3l5 3q0 -4 7 -7q0 2 2 2v-2l-2 -12q-10 2 -17 2zM1323 816h2v4h-2v-4zM1422 818v5h3v-5h-3zM1561 818h4q0 3 3 7h-7v-7zM74 820h2q19 0 19 19v4q0 4 -10 10h-9q-11 -6 -11 -19v-4q0 -4 9 -10zM464 823h12q0 2 2 7q-5 0 -5 7h-2q-5 0 -5 -5q3 0 3 -2
q-5 0 -5 -5v-2zM455 825q5 0 11 16l-2 12q-14 -5 -14 -10l3 -4l-3 -5zM1457 827v3h5v-3h-5zM1468 827v10h5q0 -3 2 -7q-2 0 -7 -3zM1575 825l7 5q4 -3 7 -3l11 19v2h-5v9q7 0 7 3q-2 4 -2 7l5 2q0 -5 11 -7q1 5 5 5q0 -3 2 -3q-2 -4 -2 -7h-16v-7l16 3q0 -3 2 -3q0 4 5 10v7
h-5v4l2 5h-2l2 4q0 5 -4 5q-12 0 -12 -5l-4 3q-7 -3 -7 -5q-32 18 -33 21l-4 -2h-7l-12 2q-18 -12 -18 -14v-5q0 -2 2 -2q-1 -9 -7 -9v-9h5l-2 -5q0 -14 23 -23v5h4l7 -5v2q0 7 -7 7v2h12l-2 -4v-2q9 0 9 -12h7zM1374 830q0 4 -7 4v3q5 0 5 4l4 -2l-2 -5l2 -4h-2zM1545 827
h7v3h-7v-3zM1406 832v7h5v-7h-5zM1422 832v5h3v-5h-3zM1462 834v7h2v-7h-2zM1579 834v5q5 -2 7 -2v-3h-7zM457 837v4h5v-4h-5zM1346 837v4h2v-4h-2zM1499 841l4 2q5 0 5 -4l-5 -2q-4 0 -4 4zM416 837l7 4l2 -4q16 4 16 23h-7v2h5q0 3 -7 7h-7v-7l11 -7q-2 -4 -2 -7h-5
q0 9 -16 21q-7 -12 -7 -19v-4q1 -5 5 -5q4 2 7 2l-2 -4v-2zM1355 839q1 4 5 4v-4h-5zM1538 839v7q2 0 2 2h-7v5q12 0 14 -7q-7 0 -7 -7h-2zM1406 841q0 3 -2 7l4 2v-2h-2l2 -5v-2h-2zM1512 841v5h3v-5h-3zM1582 841v2h4v-2h-4zM473 841h3v5h-3v-5zM1330 843v3h5v-3h-5z
M1589 843v7h2v-7h-2zM1385 846v2h5v-2h-5zM263 846v2q-2 5 -2 7l5 -2h2q0 4 7 11q0 19 -19 19h-2q-14 -9 -14 -21l5 -2l-3 -5q0 -7 21 -9zM1060 846q4 7 4 11h-2l-14 -2v-2q4 0 12 -7zM1415 848v5h7q0 -5 -4 -5h-3zM1478 848v5h2v-5h-2zM1505 848q0 7 -4 7q2 4 2 9h2
q0 -7 7 -7l-2 -4q5 0 5 -5h-10zM1642 846h7v4h-7v-4zM411 850v10h2q5 -3 7 -3l-2 -4q2 0 2 -3h-2l-5 3q0 -3 -2 -3zM1438 850q0 5 -4 5v5q3 0 7 -7v-3h-3zM1482 850v3h7v-3h-7zM252 853v4h2v-4h-2zM653 860l5 2l2 -5v-4q-3 0 -7 7zM1639 850v5h-4q0 -5 4 -5zM1533 855
q0 4 -7 16h3q4 0 9 -14zM492 855h4v5h-4v-5zM1039 855h9q0 6 12 9q0 -7 7 -7v3l-3 11h-4v-4h-5v4h5q0 4 -7 7h-5l5 -14h-5q0 6 -9 7v-16zM1542 857v12h5v-12h-5zM1732 855v2l4 -2h3q0 2 2 7l-9 7h-10v-12q6 0 10 -2zM568 860v4h5q0 -4 -5 -4zM1464 862v2h7v-2h-7zM1725 862
v5h2v-5h-2zM1602 862h5v2h-5v-2zM1713 862h3v5h-3v-5zM1438 867v4h3v-4h-3zM1485 867v2h4v-2h-4zM1614 867v4l2 5q-2 0 -2 2h5q0 -2 2 -7zM249 871v5h5v-5h-5zM256 876l5 2v-7q-5 1 -5 5zM469 869h7q4 1 4 5h-2q-2 0 -2 -3l-5 3h-2v-5zM1607 876l5 2v-7q-5 1 -5 5zM1632 869
q5 1 5 5l-5 2v-7zM1713 869q0 2 3 2l-5 9q2 0 7 3l11 -3v3l-2 4l5 3h2v-5h5v5q0 4 -5 4h-14v-9h-16q0 -12 9 -16zM1145 871q4 0 7 7v2q-2 0 -7 3v-12zM1743 871h3v5h-3v-5zM817 874h3q4 0 4 4v2q-3 8 -18 14v-2q8 -18 11 -18zM1044 874h4v2h-4v-2zM1720 874h2v4h-2v-4z
M434 876h7q3 0 7 7l-2 4q4 1 4 5q-2 0 -2 2l-5 -2l-4 2v-2l2 -12q-2 0 -2 -2l-10 5v-3q1 -4 5 -4zM459 876h5v2h-5v-2zM480 876h5v14l-12 -3v3q5 4 5 14l-9 2v-5h7v-2q-3 0 -7 -2q0 2 -3 2l-4 -7v-2q18 -7 18 -14zM1748 876h4v4h-4v-4zM464 878h2q5 1 5 5h-7v-5zM1739 878h2
v5h-2v-5zM1529 883v2h9v-2h-9zM1556 883v7h3v-7h-3zM1152 883h5q0 4 -5 4v-4zM533 885v5h-4q0 -5 4 -5zM386 890v2h4v-2h-4zM429 887h5v7q-5 0 -5 -4v-3zM1709 890h4v4q-4 0 -4 -4zM1150 892v5h-5q1 -5 5 -5zM429 894q5 3 7 3v4h-2q-5 0 -5 -4v-3zM515 894h4v5h-4v-5z
M441 897h2v4h-2v-4zM797 897h4q0 14 -25 30q0 -3 -3 -3q0 -2 10 -14l4 3h3q0 -5 4 -5v-4l-9 6v-2q0 -3 12 -11zM404 899l2 9l-4 2l-3 -4v-2q1 -5 5 -5zM1621 899h9q6 9 9 9v7l-4 -2q-5 2 -7 2v5q4 0 14 -5l2 12v4q-4 0 -9 5q0 -5 -10 -9v2l3 11l4 -2v2q0 5 -4 5l-5 -2v2
q-7 0 -7 -7h-9v2q9 2 9 7v5h-4v-7h-7l2 5h-2q-11 0 -19 -16q0 -25 35 -35zM418 904l2 4v2h-2q-5 0 -5 -4zM1619 908v2l2 5h-5v2h9v-4h-4q0 -5 7 -5v-2h-3q-4 2 -6 2zM1861 906h5v4h-5v-4zM506 908h2v5h-2v-5zM1819 908h3v7l-12 14l3 5q0 4 -14 11q2 5 2 7h-2l-5 -2l2 -5
l-2 -5l7 -4v4zM517 910h7v5h-7v-5zM1044 913h9q9 12 9 21l-5 2q-2 -4 -2 -9h-4q-3 0 -3 2l-4 -2h-3l-4 2v-2q-5 2 -7 2v2q7 0 11 3q0 -3 3 -3v3l4 -3h3v5h-5v2h5v-2q4 2 6 2q-6 12 -9 12h-2q-5 0 -5 -5q3 -4 3 -7l-5 -2q0 4 -7 4v5h5v5h-3q-3 0 -9 -10v-2q0 -18 9 -21h5
l-2 5l4 2v-2l5 2h5v-4q-7 0 -7 -5v-2zM554 922h5v-5q-5 1 -5 5zM1598 920v2h4v-2h-4zM104 920h9q3 0 7 7v11q0 3 -7 7h-7q-3 0 -9 -9v-9q0 -4 7 -7zM485 920h4v4h-4v-4zM868 920h5v4h-5v-4zM1593 922v5h2v-5h-2zM1621 922v2h4v-2h-4zM1632 922q1 5 5 5h5q0 -5 -5 -5h-5z
M104 924q0 5 -5 5q3 4 3 7h2q0 -5 2 -9v-3h-2zM513 922h4v2h-4v-2zM1602 924q1 5 5 5h2q0 -5 -4 -5h-3zM1824 922h7v5q-5 11 -7 11l2 5v4q-4 -2 -7 -2q5 -14 5 -23zM489 924h3v5h-3v-5zM1796 924h5v3q-2 4 -2 7h-3v-10zM108 931v3h5v-3h-5zM1616 936h3q4 0 4 -5h-2
q-5 1 -5 5zM392 934v4h3v-4h-3zM1004 931l3 5v2q-2 6 -30 21v-7l25 -21h2zM1829 934h4q-2 4 -2 6h-5q3 -4 3 -6zM1649 938h11q6 5 9 5v2l-7 9v3h5v2q0 9 -18 9q0 -5 -10 -11v-5h-2v5h-7v-3q5 -5 5 -9h4v5h5q0 -3 -2 -3q3 -9 7 -9zM501 940h2v5h-2v-5zM1646 943v9h5l2 -9h-7z
M503 945q5 1 5 5v2q-5 0 -5 -5v-2zM513 945h4v5h-4v-5zM538 950l-2 9h7v-2q-3 -5 -3 -7h-2zM1194 947q4 8 4 14v5q0 4 -4 4h-7q-4 0 -9 -9v-4q3 -10 16 -10zM1826 947h7v3q-2 0 -7 2v-5zM1813 950l2 4l4 -2h3v5h-14v-3q1 -4 5 -4zM1651 961h5v-4q-5 0 -5 4zM767 961v5h2v-5
h-2zM891 959l3 5l-10 6h-9v-2q4 -9 16 -9zM517 964v2q5 1 5 4l-3 5h5v-5q0 -3 -7 -6zM538 964q1 4 5 4v-4h-5zM1060 964h11q23 8 23 23q-5 0 -25 20h-9q-13 -9 -19 -20q0 -13 19 -23zM1639 966h3q4 1 4 4l-4 3h-3v-7zM529 977h9q-2 -4 -2 -7q-4 0 -7 7zM914 970h3v5h-3v-5z
M1064 975v9q5 0 5 -4q0 -5 -5 -5zM559 977v5h2v-5h-2zM1048 977v5h3v-5h-3zM1053 980v2h9l-2 -5q-5 3 -7 3zM1078 980v4h3v-4h-3zM536 982v5h2v-5h-2zM540 982v5h3v-5h-3zM1556 980h3q4 0 4 4l-4 3h-3v-7zM1069 984v7h2v-7h-2zM1552 982v5q0 4 -5 4h-7v-4q6 0 12 -5z
M575 989v5h2v-5h-2zM1863 989q5 1 5 5l-5 2v-7zM2568 989h4q0 5 -4 5v-5zM473 996v7h3v-7h-3zM1771 994h2v2l-2 4q4 3 7 3v2h-5v2q0 3 3 3q-3 4 -3 9h-4v-2q2 -5 2 -7l-5 2h-2v-2q1 -5 5 -5l-3 -5v-2q1 -4 5 -4zM1974 998h5l7 5l2 -5q4 2 9 2v5h-2l-5 -2q0 1 -2 9q2 0 2 2
q-2 0 -2 3q2 0 2 2l5 -2h2v4l-27 5v-7h-3q-4 1 -4 5q6 9 9 9v9h-2q-2 0 -19 -2v-7h5l4 2v-2q-14 -8 -14 -19l5 -2q5 2 7 2l-2 -4v-5l11 -2h3q0 7 6 7v-3q-2 -4 -2 -9zM1852 1000l2 5h-7q1 -5 5 -5zM1787 1003h5v2h-5v-2zM1866 1003l2 4l-5 3h-4q-5 0 -5 -5q8 0 12 -2z
M1963 1007l-3 5v2h3q4 0 4 -4zM2110 1005q26 16 26 23q0 4 -9 12q2 4 2 7q-36 18 -53 18q-20 -4 -23 -4v-3l2 -4q-5 0 -9 -3q0 3 -3 3v-3q0 -2 3 -2l-3 -5q14 -10 14 -16h3l-3 -4v-5q0 -5 7 -5h7q0 -7 39 -9zM531 1007v7l-5 -2h-2q0 2 2 2q-2 5 -2 7h-5l3 -4q-5 0 -5 -5v-2z
M737 1010v4q4 0 4 -4h-4zM857 1007q8 0 23 12q-3 12 -21 28q-15 -7 -19 -16v-14q0 -5 17 -10zM2099 1010v7q4 -3 7 -3v-2q-3 0 -7 -2zM494 1012v5h2v-5h-2zM787 1012v5h3v-5h-3zM1847 1010v4h-4q0 -4 4 -4zM1976 1012v2h5v-2h-5zM2090 1012l2 5l-2 11l4 3q0 -4 7 -10v-2
l-4 2h-3v-2l3 -5l-5 -2h-2zM857 1014v7h2v-7h-2zM1776 1012h4v5q-4 0 -4 -5zM1856 1012l5 2l5 -2v5l-3 4q3 5 3 7q-3 0 -3 3q7 0 7 11l5 -2h4v2q-2 7 -13 7v2q0 1 4 7l-11 3q0 -3 -3 -3q0 4 -9 9h-2q0 -6 -5 -6q0 2 -2 2q-19 -10 -19 -16v-3q4 -9 7 -9v7q7 0 7 -16h5v5
q0 2 -2 2l2 4l-2 5q4 -2 7 -2l-3 -12h3q4 0 4 7h2v-7q-2 -4 -2 -7q4 0 9 -9zM917 1014l4 7v5h-2l-5 -2v4h-4v-7q0 -3 7 -7zM1083 1014h2v5h-2v-5zM1956 1017v9h2v-9h-2zM2080 1021h7v-4h-2q-5 0 -5 4zM1983 1019v2h5v-2h-5zM1088 1019h4v5q0 4 -4 4h-3v-2q3 -5 3 -7z
M589 1026v5h2v-5h-2zM776 1026v2h4v-2h-4zM2069 1028v3h7v-3h-7zM489 1035h7v-4h-2q-5 0 -5 4zM1081 1028h4v3h-4v-3zM1946 1028h5v5h-5v-5zM1552 1031h4v2h-4v-2zM1979 1031q4 2 11 2q0 5 -11 7q0 -3 -3 -3q3 -4 3 -6zM2060 1033v4h2v-4h-2zM2094 1035v5q5 0 5 -5h-5z
M593 1037v5h3v-5h-3zM2226 1035q12 2 23 2q2 12 18 12q0 14 -16 14v2q1 5 5 5q0 -3 2 -3v3q-15 18 -41 18h-7q-20 0 -28 -14v-13q16 -26 44 -26zM566 1040l-3 11v5q5 0 7 -14zM2214 1047h7q5 0 5 -5v-2q-12 3 -12 7zM2110 1042v2h5v-2h-5zM748 1044v5h2v-5h-2zM1859 1044
q0 3 -3 7h3q4 0 4 -4zM2101 1044q0 3 -2 7h4v-7h-2zM2228 1044v5h7q0 -5 -5 -5h-2zM2242 1044v5q5 0 5 -5h-5zM2048 1047v2h5v-2h-5zM2060 1047l-3 11h10v-2l-5 -7q2 0 2 -2h-4zM2069 1047v2h4v-2h-4zM2090 1047v4h2v-4h-2zM762 1049v2h5v-2h-5zM1111 1047l11 2v2q0 4 -9 10
h-5q-2 0 -2 -3q-13 7 -18 7q0 -2 -3 -2q0 4 -4 4h-3q0 -5 28 -13q0 -7 5 -7zM282 1049l7 5q-3 4 -3 7h-2zM1845 1056v2q4 0 4 -4v-3q-4 1 -4 5zM1974 1049q15 0 26 25l16 14q-3 10 -23 21l-5 -2q0 3 -7 7q-21 -2 -21 -5l-4 2h-5q-18 -3 -18 -14h-3v5h-4q-7 -2 -7 -14
q2 -4 2 -7q-2 0 -2 -2q9 0 9 -5h-5q9 -20 44 -20q0 -3 7 -5zM2247 1056h4v-5q-4 1 -4 5zM778 1054v2h7v-2h-7zM790 1054v2h4v-2h-4zM2034 1051h2v5h-2v-5zM1979 1056q4 9 4 16h5v-7q-5 -5 -5 -9h-4zM2196 1056v2h7v-2h-7zM2221 1058l3 5q4 -2 6 -2l-2 -5q-4 2 -7 2z
M2210 1058q0 3 -3 7v2h3q0 -3 4 -9h-4zM1612 1058v3q-3 4 -3 6h-7v-2q0 -3 10 -7zM977 1061q14 0 16 23q-6 4 -9 4l2 5q-11 9 -21 9q-16 -7 -16 -21q0 -20 28 -20zM1974 1063v2h5v-2h-5zM757 1067v3h7v-3h-7zM783 1072v5h2v-5h-2zM954 1072v5h2v-5h-2zM2039 1070h7v4h-7v-4z
M2194 1072v2q4 0 4 5h2v-5l-4 -2h-2zM2311 1070q5 0 5 4h-5v-4zM2295 1072h5v5h-5v-5zM926 1074l14 3v9q0 7 -10 7q-9 -4 -9 -7v-5zM1111 1074h13q3 0 14 17v2h-2l-5 -2v2q3 4 3 9q-11 7 -23 9q-5 0 -14 -14v-9q0 -3 14 -14zM1372 1077h2v7h-2v-7zM1381 1077q4 0 4 4v3h-4
v-7zM2286 1077h4q0 4 -4 4v-2q-7 0 -7 9q-9 -3 -9 -7v-2zM2300 1077h4q0 4 -4 4v-4zM928 1081v5h2v-5h-2zM1127 1081v5h2v-5h-2zM1672 1079h11v2l-2 5q-4 -2 -9 -2v-5zM1688 1079h4q5 1 5 5q-2 4 -2 7q-4 0 -7 -12zM1522 1081h2v5h-2v-5zM1616 1081h5v5h-5v-5zM1896 1081v5
h-5q1 -5 5 -5zM1946 1084v4h3v-4h-3zM1983 1084v4h3v-4h-3zM2297 1081q5 1 5 5v5h-5v-10zM2399 1081h2v5q-2 0 -7 2v-2q1 -5 5 -5zM2417 1081h12l-2 5l2 14q0 4 -9 4v5q15 -5 18 -5l3 5q-15 21 -42 21q-18 -3 -18 -7v-2h9v-7h-5l2 -12v-7q4 0 10 -4q2 4 2 9h9v-5h-4l2 -11h5
l-3 4h7l-2 -4zM2420 1084v4h2v-4h-2zM337 1084h5q0 4 -5 4v-4zM967 1086v5h3v-5h-3zM1376 1084q0 4 7 4v3q0 4 -5 4h-6v-7q0 -4 4 -4zM1960 1086v5h3v-5h-3zM2484 1084v2q0 6 -23 9l-2 -4q2 0 14 -3v3zM1173 1086q5 0 9 2l5 -2q11 3 18 9q-9 35 -32 35q-9 0 -19 -14v-14
q6 -9 19 -16zM2281 1086h7q0 5 -4 5h-3v-5zM1108 1091v2h5v-2h-5zM1122 1091q0 6 -4 6q0 5 4 5l7 -11h-7zM1972 1091q1 4 4 4h3q0 -4 -5 -4h-2zM2272 1088q0 3 2 3q0 -3 3 -3v12h2v4h-12v-2l3 -5q-3 -4 -3 -6zM2431 1088h3q13 5 13 16h-2q-11 -1 -11 -7l2 -4q-5 0 -5 -5z
M1683 1091h3v4h-3v-4zM1981 1093v2q1 5 5 5h2q-2 -5 -2 -7h-5zM2288 1091h2v9q-3 0 -6 -7zM1676 1093v4h-4q0 -4 4 -4zM2415 1097v5h2v-5h-2zM1563 1097h5v3q-3 4 -3 7h-9q4 -10 7 -10zM1960 1100v7q5 0 5 -5zM1974 1100v7h5v-3q0 -4 -5 -4zM1113 1102v5h2v-5h-2zM1575 1100
h4v2h-4v-2zM1662 1100q0 3 10 7q0 -5 4 -5h3v2q0 4 -14 7l-7 -9zM2408 1102q1 5 5 5v-5h-5zM446 1104q0 12 -14 21l-12 -2h-4v2q8 0 25 26h5l11 -3v-11q0 -4 9 -10h3l4 3l3 -5v-7q0 -3 -19 -14h-11zM1930 1102h3v5h-3v-5zM1783 1104v5h-5q1 -5 5 -5zM924 1107q16 2 16 7v7
q0 3 -7 6h-7q-3 0 -9 -11v-2q7 0 7 -7zM1681 1107h11v2q-4 0 -4 5h-2q-5 0 -5 -5v-2zM2376 1107q5 0 5 4q0 5 -5 5l2 5v2l-7 -5q5 -7 5 -11zM2394 1109v5q3 4 3 7h4q12 -6 12 -10q-9 0 -9 -2l-5 2zM2427 1111v7q4 0 4 -4v-3h-4zM1161 1114v7h5v-3q0 -4 -5 -4zM1672 1111h4v5
h-4v-5zM2415 1114q0 3 7 7l2 -5zM921 1116v2h5v-2h-5zM930 1116v7h5v-7h-5zM270 1116h12q0 5 9 16v2q-6 0 -7 10h7v2q0 4 -12 7h-7q0 2 -2 2q-14 -3 -14 -21q3 -16 10 -16h4v9h5v-4zM991 1118v7h-5v-2q1 -5 5 -5zM279 1132v2h5v-7q-5 1 -5 5zM529 1130v2h4v-2h-4zM552 1130
v2h4v-2h-4zM508 1132q0 7 -5 7q0 -5 -4 -5l-5 3l2 4q-5 11 -27 23v12q0 5 4 5q5 -3 7 -3q0 3 3 3q2 -4 2 -10l4 3q3 -14 14 -19q3 5 3 7v7q4 1 4 5t-4 4l2 5v2l-12 7v2q7 0 7 5v2l-4 7v5h2l7 -5l-2 -4v-5q0 -4 9 -9q0 3 7 7q11 0 11 -5q-2 -4 -2 -7h5q0 7 4 7q10 -2 10 -11
l4 2v-2q-10 -13 -23 -14h-7l-7 -9l2 -5v-5h-2v7q-5 -1 -9 -11h2q5 2 7 2v-14h-9zM1046 1130q5 0 18 18v5q0 25 -23 25q-7 9 -7 12q-16 0 -16 -42v-2q0 -3 12 -12h4v5h3v-5q-3 0 -3 -2q8 0 12 -2zM261 1148h9v-4l7 4v-9q0 -5 -5 -5zM801 1134v5h2v-5h-2zM1041 1137v4h5
q0 -4 -5 -4zM2226 1134h2v5q-2 0 -7 2v-2q1 -5 5 -5zM1027 1139v5h3v-5h-3zM972 1141h2q6 12 10 12v2q-3 9 -10 9l-4 -2h-3v2h5v3h-7q-2 0 -9 -9q2 -5 2 -7h3l2 9q4 0 4 -5l10 5v-2q-3 -5 -3 -10q3 0 3 -2h-5v-5zM965 1144h2q0 3 -6 7v-3q0 -4 4 -4zM1041 1146q1 5 5 5v-5
h-5zM568 1171h-7q0 6 -2 10q7 11 7 18h2q5 0 5 -14h2q10 7 16 7q0 -5 12 -7q-10 -9 -10 -16h-2l-7 5h-4v-3q0 -2 2 -2l-2 -5q4 -7 4 -13v-3h-2q-8 5 -14 23zM1023 1148v10l4 -3q1 5 5 5v-2q-7 -6 -7 -10h-2zM302 1148h5v5h-5v-5zM1041 1155l-2 5h2l3 -5h-3zM910 1155h2v7h-2
q-5 0 -5 -4zM397 1160l-2 4v3l11 -3v-2zM921 1158h3v4h-3v-4zM2228 1158h5v2h-5v-2zM411 1164v5h2v-5h-2zM418 1164q-2 5 -2 7q4 8 4 12h3l6 -5q1 5 5 5q4 -2 9 -2v-5q-10 0 -14 -12l-4 3q-5 -3 -7 -3zM1032 1167q2 4 2 11h3q0 -5 4 -11v-3q-4 3 -9 3zM2170 1162h5v2h-5v-2z
M1023 1169v2q2 0 7 3v-3l-5 -2h-2zM981 1169q17 15 23 25v3q-13 0 -27 -19v-4q0 -5 4 -5zM2187 1171h4v3q0 4 -4 4v-7zM2175 1176h7v5h-7v-5zM988 1183q1 5 5 5v-5h-5zM2602 1181h7v2h-7v-2zM2593 1183h9v5q0 4 -4 4l-3 -4q3 0 3 -3h-5v-2zM2609 1183h5q0 3 7 9q-5 0 -5 2
q-4 -2 -7 -2v-9zM1228 1188q5 0 5 4h-5v-4zM203 1190q5 2 7 2v5h-7v-7zM2581 1190h3v4h-3v-4zM813 1197q0 4 4 4v-4h-4zM1226 1194h2v5h-2v-5zM2600 1194h2v5q-3 0 -9 5h-2v-5q3 0 9 -5zM289 1197v2l4 -2q33 3 33 27h-3q16 19 21 33q4 0 9 9q-5 8 -14 30q-19 19 -25 19v2
l5 7v4q0 5 -5 5h-5q-3 0 -9 -9l-23 2h-2q-4 0 -14 -16q0 -4 5 -19q-2 -9 -5 -9q5 -20 5 -32q-10 -4 -10 -7v-2q1 -5 5 -5h2q1 0 7 5q0 -6 7 -14l-2 -12q0 -8 14 -18zM1224 1197v2q0 2 -3 2l3 5v2h-5v-7q1 -4 5 -4zM510 1201v5h3v-5h-3zM1166 1199h7q4 0 9 9q-8 14 -11 14
h-10v-9q4 -9 10 -9v-3h-3q-4 3 -7 3q1 -5 5 -5zM1238 1199h2v5h-2v-5zM1268 1199h4v5q-4 0 -4 -5zM1245 1201h2v5q0 5 -5 5q0 -3 -2 -7zM2618 1201h3v5h-7q0 -5 4 -5zM1277 1204h2q0 4 -4 4h-3q1 -4 5 -4zM1284 1204h4v2h-4v-2zM1166 1211v2q1 5 5 5l4 -7v-3h-2q-5 3 -7 3z
M2217 1206q4 0 32 14l-2 4q2 5 2 7q-2 0 -2 3q-7 0 -7 -12h-7l2 5q0 4 -5 4l-4 -2v5l16 2q0 -2 2 -2v9q-19 18 -30 18v-4h-2v7h-5q-4 0 -4 -5q4 0 4 -2q-11 -13 -11 -16v-5h-2q-4 0 -12 12v11h-5q-4 0 -4 -5q4 0 4 -4v-2h-2l-5 2l-2 -5v-4h2l12 2q0 -6 5 -12q-10 -9 -14 -9
v-9q31 -7 44 -7zM2212 1208v7h2v-7h-2zM859 1211v4h2v-4h-2zM2581 1208h3q4 1 4 5h-7v-5zM2591 1208h9v5h-9v-5zM1154 1211h5v4h-5v-4zM2182 1215q9 13 9 19h3q4 0 4 -5v-2h-4v-7h2v4h4v-6q0 -5 -6 -5zM2205 1213v9h7q-3 -9 -7 -9zM2792 1213h13v2q-3 0 -7 5q-4 -2 -6 -2v-5
zM2810 1213h5v5h-5v-5zM2822 1213v9h-5v-4q1 -5 5 -5zM801 1220v4h2v-4h-2zM506 1224v5h2v-5h-2zM864 1227h2q4 1 4 4v3h-4q0 -3 -2 -7zM894 1227v2q0 5 -5 5v-3q1 -4 5 -4zM2819 1227h5v4q0 5 -5 5h-2v-2q2 -5 2 -7zM799 1238h4v-4q-4 0 -4 4zM900 1231h3v5h-3v-5z
M1062 1231h5q4 1 4 5h-4v2h4q0 -2 3 -2q0 9 9 9l-2 5q-19 -6 -19 -12v-7zM2175 1231h5v3h-5v-3zM2801 1231q4 3 7 3v4h-14v-4q2 0 7 -3zM711 1236v9h2v-9h-2zM2207 1238v5h3v-5h-3zM2480 1236h16v2q0 4 -9 10l-5 -3v7h7q5 0 5 -4l14 6q0 5 -5 5h-2v-5h-5q5 14 9 14
q5 -2 7 -2q-1 5 -11 9q-3 -4 -3 -9h-2q-5 1 -5 5l3 4q-7 3 -7 5q-9 -2 -21 -2l5 -12l-12 -2l2 -5l5 2q7 -4 12 -4v7l-5 7v2h7q2 0 2 -2l5 2h2v-2q-7 0 -7 -12q2 0 2 -2q-6 0 -6 -5v-9h6zM2503 1236q5 1 5 5v2h-5v-7zM773 1241q0 2 -2 7h7q-2 -5 -2 -7h-3zM2473 1238h7
q-6 12 -9 12l-3 -5q5 0 5 -7zM889 1241h5v2h-5v-2zM2464 1241q4 0 4 4q-5 0 -9 3v-3q1 -4 5 -4zM815 1245v5q5 1 5 4h-3q3 5 3 10h7v-5q-10 -9 -10 -14h-2zM797 1248v4h2v-4h-2zM803 1248q1 4 5 4h2q0 -4 -4 -4h-3zM716 1250v4h2v-4h-2zM882 1250v4q5 0 5 -4h-5zM2219 1250
l-2 4v3q4 -3 7 -3q0 -4 -5 -4zM2505 1248q5 0 5 4v2q-5 0 -5 -4v-2zM831 1250h3q4 1 4 4v5h-4zM2191 1250h5v4h-5v-4zM2461 1250h5v4q-5 0 -5 -4zM737 1252h2v5h-2v-5zM2187 1254h4v5h-4v-5zM199 1257h2q3 0 7 7v4q0 4 -7 7q-4 0 -9 -9q3 -9 7 -9zM755 1257h5v2h-5v-2z
M801 1259v2h5v-2h-5zM917 1257h7v2q0 2 -3 2l3 5v5h-5zM1302 1257h3v4h-3v-4zM882 1261v7h5q-3 -4 -3 -7h-2zM799 1264v4h2v-4h-2zM854 1264q1 4 5 4h2q0 -4 -4 -4h-3zM928 1261h5q-3 5 -3 7h-2v-7zM787 1266v5q5 0 5 -5h-5zM820 1268v5h4v-5h-4zM875 1268v3h5v-3h-5z
M760 1268h2v5h-2v-5zM857 1271v2h4v-2h-4zM894 1271v4h2v-4h-2zM903 1271v4h2v-4h-2zM748 1271h5v4q-5 0 -5 -4zM780 1273v9h3q2 -8 2 -9h-5zM875 1273v7q2 4 2 7h3v-2q-3 -4 -3 -12h-2zM2461 1271h5v4h-5v-4zM741 1273h2v5h-2v-5zM2621 1273h18q-4 10 -9 12l-14 -7
q-4 0 -14 9h-2v-5q0 -5 21 -9zM1032 1275q14 5 14 10l-2 4q6 0 13 19q0 4 -4 4q-26 -20 -26 -34zM1752 1275h3q3 0 11 12v2q-2 0 -7 2l-2 -4h2q0 -7 -7 -7v-5zM392 1280v2h5v-2h-5zM787 1280v5q5 0 5 4q5 0 5 -4q-5 0 -5 -5h-5zM905 1285h2q5 0 5 -5h-2q-5 1 -5 5z
M1748 1278q4 0 4 4h-4v-4zM413 1280h5v2h-5v-2zM813 1282v3h4v-3h-4zM820 1282v5h7v-5h-7zM854 1282v5h3q4 0 4 -5h-7zM464 1285v4h5q0 -4 -5 -4zM912 1285v2h5v-2h-5zM806 1289v5h2v-5h-2zM189 1289h3q4 1 4 5v7l-7 9v5l3 11q-10 9 -19 9q-7 -8 -7 -16v-2q16 -13 16 -19
q2 -9 7 -9zM464 1291v5h2v-5h-2zM882 1291v3h7v-3h-7zM2605 1289q4 1 4 5v2h-4v-7zM2711 1289q9 4 9 7v2l-12 3l-4 -7q0 -5 7 -5zM427 1291h5v5q-5 0 -5 -5zM459 1294v4h3v-4h-3zM875 1294v11q5 0 5 -4v-7h-5zM930 1291h5v3h-5v-3zM940 1291h2q5 1 5 5q-3 0 -3 2q3 0 3 3
l-5 2l-2 -5v-7zM951 1291h3v10l-5 -3q2 -4 2 -7zM2660 1291v5h-5q1 -5 5 -5zM700 1296v2h4v-2h-4zM864 1296v5h2v-5h-2zM889 1296v2h5v-2h-5zM903 1298q4 6 4 10h10q0 -3 2 -7q-6 -5 -9 -5q-5 2 -7 2zM2621 1294h4v9h3v2q0 4 -12 7q-4 -2 -9 -2v-2l14 -3l-3 -4q3 -5 3 -7z
M1757 1296h5q0 3 2 7q-2 0 -2 2h2q5 -2 7 -2l-2 -5l4 -2q26 0 26 7h-5v5h5v2l-5 7h2q-2 4 -2 7h-5q-5 0 -6 -9h-5q-8 8 -21 9v-7q1 -5 5 -5q0 5 4 5v-2l-9 -10v-9zM2771 1296h9q35 11 35 16t2 9l-2 5q2 5 2 7q-18 11 -51 16q-39 -4 -39 -14v-2l5 2l2 -4l-5 -3q0 3 -2 3v-5
l16 2q0 -4 7 -11v-2q-10 9 -18 9l-3 -5q7 0 7 -4h-4v-7q0 -8 39 -12zM910 1298h4v5q-4 0 -4 -5zM1734 1298q5 1 5 5v2q-5 0 -5 -4v-3zM2632 1298h7l-2 12h-2l-5 -2q2 -4 2 -10zM2768 1301v2h5v-2h-5zM436 1301h5v4q-5 0 -5 -4zM891 1305v5h5q0 -5 -5 -5zM898 1305v5h2v-5h-2
zM1778 1305q0 5 -7 5v2h7q1 -4 5 -4h2q0 7 7 7v-3q-3 -7 -14 -7zM2641 1303h5v5q-5 0 -5 -5zM2755 1305v5h2v-5h-2zM2780 1305v3h5v-3h-5zM2743 1308v4h5v-4h-5zM231 1308h7q6 0 9 18v14q0 5 -5 5l-13 -3q-5 3 -7 3l-10 -12v-18q2 -7 19 -7zM429 1308q5 2 7 2q0 -2 3 -2v4
q0 4 -7 7q0 -4 -5 -4h-2v4h-5q3 -11 9 -11zM933 1310l-3 9h7q-2 -4 -2 -9h-2zM2759 1310v2l5 3h2v-3q-2 0 -7 -2zM2768 1310v5h7v-3q-2 0 -7 -2zM912 1317v2q5 0 5 -4v-3q-5 1 -5 5zM919 1317l5 2h4v-7h-4q-5 1 -5 5zM954 1310q4 1 4 5h-4v-5zM949 1312q5 1 5 5h-5v-5z
M877 1317v4q5 0 5 -4h-5zM2789 1317v4h3q4 0 4 -4h-7zM510 1319v2h5v-2h-5zM912 1324q5 5 5 9h2v-12q-5 3 -7 3zM1806 1319q0 5 2 9h-5q0 -2 -2 -7zM1062 1321q6 5 9 5v5h-2l-5 -3v3q19 13 19 16l-5 2q-6 -7 -14 -7q-3 -5 -7 -18zM1776 1321h2v5h-2v-5zM2755 1324v4
q4 -2 7 -2v-2h-7zM887 1326h4v5h-4v-5zM1773 1328v5h3q4 0 4 -7h9v5q0 4 -4 4v-2l-5 2l-16 -2v-5h9zM349 1328l27 3h3q0 4 2 4q4 -2 7 -2l7 12h-5q-4 -3 -7 -3v5q1 4 5 4q-2 24 -5 24q0 16 28 34v5q0 10 -23 51q-23 37 -37 37q0 -3 -2 -3q0 6 -14 7q0 9 -21 12q0 -6 -23 -14
q0 -6 -32 -51q0 -7 -3 -16q0 -2 3 -2l-3 -10l3 -27q-5 -8 -5 -12q2 -4 2 -7q-2 0 -2 -2q9 -3 48 -32q3 0 7 -3q5 3 7 3q7 0 7 -7h7v2l-2 5q4 0 4 6q5 0 19 -6zM949 1331v7h2v-7h-2zM1794 1328h5v5h-5v-5zM2773 1338l5 2q2 -8 2 -9q-3 0 -7 7zM997 1331q5 0 5 4h-5v-4z
M2741 1333v9h2l5 -2q-3 -5 -3 -7h-4zM540 1335v5h3v-5h-3zM1178 1333q4 0 9 14q-3 9 -9 9l-12 -2v-12q0 -3 12 -9zM439 1338q0 5 2 9l-5 2l-2 -4v-3q1 -4 5 -4zM997 1342h5v5h-5v-5zM418 1345h2v2q0 4 -4 4h-3v-2q1 -4 5 -4zM965 1345l2 4v2q-4 -2 -6 -2q0 -4 4 -4z
M1000 1351h4v5h-4v-5zM2514 1351h7v5q-2 0 -7 2v-7zM441 1356q0 3 7 7v-7h-7zM2531 1354h4v7q-4 0 -4 -5v-2zM425 1361v2q2 0 7 2v-4h-7zM434 1361v2h5v-2h-5zM450 1365h5v-4q-5 0 -5 4zM2526 1361h5v4h-5v-4zM2538 1361h2q4 0 4 4v3h-4q0 -3 -2 -7zM203 1365q0 1 5 7v5
q0 5 -12 7l-7 -9v-3q3 -7 14 -7zM956 1368h7l-2 4v7q-3 0 -7 2q0 -6 -5 -6q0 -4 7 -7zM2512 1368h5v4q-5 0 -5 -4zM2528 1370q5 1 5 5l-5 2q-4 0 -4 -5zM2732 1370h4v2h-4v-2zM972 1375h2v6h-7v-2q1 -4 5 -4zM623 1377h3q4 0 4 11q-4 0 -4 5l-5 -2q2 -7 5 -7l-3 -5v-2z
M2738 1381v5q-12 2 -13 2v-4zM2711 1384h9v4h-9v-4zM379 1388v7h2v-7h-2zM940 1386q14 4 14 16q2 0 2 -2q4 2 7 2v5h-14q0 7 -9 7q0 -3 -3 -3l3 -4v-2h-7v-5h4l-2 -5v-2zM940 1391v11q5 -4 9 -4v-3q-4 0 -9 -4zM977 1400h2v7h-2v-7zM464 1402h2q5 1 5 5v4q0 5 -5 5h-2
q0 -7 -5 -7v-2q1 -5 5 -5zM977 1409q4 1 4 5q-2 0 -2 2q2 0 2 2q-2 0 -2 3q5 0 5 4l-5 7v3h5q0 4 -5 4q-4 -16 -7 -16q5 -8 5 -14zM997 1409q0 9 5 9q-9 11 -9 12v2l11 -2v7h-4v2h2q5 -2 7 -2v2l-9 9q-4 -2 -9 -2v-4h4l-7 -10q3 0 3 -2q-3 0 -3 -2q4 0 7 -10q-2 -4 -2 -7z
M446 1411h2q0 4 9 10v2q0 5 -4 5h-7q-5 0 -5 -5v-7q1 -5 5 -5zM958 1411v5h-9v-2zM1007 1411v3q0 4 -5 4v-2q1 -5 5 -5zM970 1418h2q0 4 -7 7v-2q1 -5 5 -5zM2817 1418h2q0 5 3 5q-3 4 -3 9h-4q0 -7 -3 -11zM2487 1421h11v7h-4l-12 -3q1 -4 5 -4zM478 1423h5q3 0 9 9v7
q0 4 -9 9h-5q-4 0 -9 -9v-7q0 -3 9 -9zM1046 1428h7v4h-7v-4zM1057 1430h5v2h-5v-2zM2833 1430h2q0 5 3 9h-12q4 -9 7 -9zM1062 1432h5l18 14l-2 5q2 4 2 7h-11q0 -7 -5 -7h-2q2 4 2 9l5 -2q0 3 7 9h-3l3 5q0 1 -7 6q0 5 20 17q0 4 14 16l-7 4q5 10 5 14q-5 1 -5 5v2h3
q4 -2 7 -2v7h-12l-9 7q-3 -14 -7 -14q0 4 -5 4q-4 0 -4 -4q0 -2 2 -2q0 -12 -14 -12v5h-5q-4 0 -4 -5l2 -5q-19 -7 -28 -20v-10h5l-2 -4v-3q15 0 21 -11q-6 -5 -7 -5q0 -7 7 -7v-2h-5v-5h2l5 3q4 -3 7 -3q0 3 2 3q0 -5 7 -5v-2q-5 0 -9 -2q2 -5 2 -10zM2514 1432h5v5h-5v-5z
M2484 1437h3q5 5 9 5v2h-7q-5 0 -5 -5v-2zM2708 1437q5 1 5 5h-5v-5zM2805 1437h5v7h-5v-7zM2503 1439h5v5h-5v-5zM1039 1442h5q4 0 4 4l-4 2zM979 1444h2v4h-2v-4zM1021 1444h2v2q0 5 -5 5l-2 -5zM993 1451h2l7 4h2l7 -4h3v9h4l-2 -5l5 -2l4 7q-3 0 -9 5q-9 -5 -9 -7l-5 2
l-5 -2h-6l-3 -5zM1055 1453q0 5 -2 9l4 3q0 -3 3 -3q0 3 2 3q0 -3 2 -3q0 3 3 3v-7h-3l-4 2v-2l2 -5h-7zM441 1453h5q3 0 7 7v5q-12 -3 -12 -7v-5zM1044 1453v7h-5v-2q1 -5 5 -5zM2706 1453h5v5h-5v-5zM432 1455h4v3h-4v-3zM1007 1460l2 5l-5 2h-2v-2q1 -5 5 -5zM2574 1460
v5h-4q1 -5 4 -5zM1053 1469v3h9v-3h-9zM1034 1483v7h5v-2q0 -5 -5 -5zM1060 1483l2 5q-2 0 -2 2l4 2q0 -2 3 -7l-5 -2h-2zM139 1483q14 5 16 12v13q0 7 -19 10q-14 0 -14 -16v-5q6 -10 17 -14zM494 1483h7q3 0 7 7q0 5 -5 5h-2q0 -7 -7 -7v-5zM1067 1492v5h4q0 -5 -4 -5z
M1051 1495v2h4v-2h-4zM1034 1497v2q3 0 7 3v-5h-7zM1060 1497v5h2v-5h-2zM1088 1502v2h4v-2h-4zM889 1504h2q4 0 7 7q0 12 -7 14h-4q-5 0 -5 -5v-9q0 -4 7 -7zM1088 1506v2h4v-2h-4zM448 1508q9 4 9 7v10q0 4 -4 4h-7q-4 0 -7 -7v-4q0 -4 9 -10zM1062 1511v2h5v-2h-5z
M1097 1511v7h2v-7h-2zM2674 1511h2q23 3 23 9v5q-9 -3 -18 -3l2 -4v-3h-9v-4zM1088 1515v3h6v-3h-6zM2660 1513h2q5 1 5 5v2h-7v-7zM1076 1518v2h5v-2h-5zM1088 1520v5h2v-5h-2zM1094 1522v10h3v-10h-3zM1081 1525v4h2v-4h-2zM501 1525l9 9v11q-2 7 -14 7q-3 0 -9 -9v-11
q0 -5 14 -7zM2688 1527v2l4 -2h3v2q0 5 -5 5h-2q-5 0 -5 -5zM522 1529q4 1 4 5v2q0 5 -4 5h-5v-7q1 -5 5 -5zM450 1552h7q4 0 7 10q-4 10 -9 11q-12 -3 -12 -16zM1034 1557q11 4 17 14v14q-21 11 -21 14v4q-21 -1 -21 -18l5 2h2v-2h-5v-5q9 0 21 -23h2zM792 1575h5q4 1 4 5
q-6 0 -11 5v-3q2 -4 2 -7zM1060 1575h4v5h-4v2h4q0 -2 3 -2v5q0 4 -5 4l-7 -9q1 -5 5 -5zM510 1582h3q4 1 4 5q0 5 -4 5l-3 -5v-5zM813 1582h2q5 1 5 5h-3q-4 0 -4 -5zM459 1587h12v7q0 3 -7 7q-3 0 -7 -7h5v-2zM803 1589h7v5h-2q-5 0 -5 -5zM794 1594l3 5v4h-5q0 -2 -2 -7z
M820 1599h2v4h-2v-4zM956 1603h2q7 0 7 26l-4 2h-3q-3 0 -9 -12v-9q0 -3 7 -7zM803 1605h7v3h-7v-3zM954 1608v4h4q0 -4 -4 -4zM995 1605h7l5 17v2q0 5 -5 5h-5q-6 -3 -6 -14v-5q0 -5 4 -5zM958 1615v4h3v-4h-3zM2741 1672q2 0 2 3l5 -3h2q32 6 32 14q-2 4 -2 10h5v-7h2
q5 0 5 4q-6 12 -19 12h-11q-40 -8 -40 -19v-2h5v5h5l-3 -5v-2q0 -4 12 -10zM524 1675q14 1 14 7q0 4 -5 4h-2v-4h-5l3 4v5h-3q-4 0 -4 -5l2 -4v-3h-2v5h-3v-7zM651 1677h2v7h-7v-2q1 -5 5 -5zM2771 1684v5h2v-5h-2zM2734 1686v5h4v-5h-4zM561 1691q11 4 12 9v5q0 3 -10 9
q-4 0 -13 -12q3 -11 11 -11zM2771 1696v2h7v-2h-7zM573 1719h2q5 0 5 4v5h-5v-5l-5 3h-2v-3q1 -4 5 -4zM2755 1735h2v4h-2v-4zM2695 1762q20 0 30 12h-3q-14 0 -14 -7h-2l-5 2q0 -4 -4 -4h-2v4l-5 -2l-9 9q0 -3 -5 -9q9 -5 19 -5zM2586 1765h9q18 0 28 11q0 5 -5 5
q0 -5 -11 -9l-5 2l-11 -7l-3 16q8 5 14 5v-2l9 4q0 -7 5 -7l2 5q0 3 -9 7q-16 0 -30 -16v-3q5 0 5 -2q-3 -4 -3 -7zM2669 1765h2q0 7 3 16h-3q-4 0 -4 -5h2l-2 -4q2 -5 2 -7zM2706 1772h2v4h-2v-4zM2695 1779h2q4 0 4 4v3q-5 0 -11 4q-3 0 -7 -7v-2h2l5 2q1 -4 5 -4z
M2605 1781h4q0 5 -4 5v-5zM2722 1781h3q0 5 -12 7l-2 -5zM2625 1783h5q0 5 -5 5v-5zM2704 1783h4v3h-4v-3zM2701 1790h5v5h-5v-5zM857 1802h2v4h-5v3h5q0 -3 2 -3v3q0 4 -4 4h-5v-7q1 -4 5 -4zM2690 1820q12 0 23 16v3q-8 2 -9 2q0 -5 -5 -5l-2 5q-14 -3 -14 -7q7 0 7 -14z
M2692 1829v3q5 0 5 -5v-2q-5 1 -5 4zM2685 1848h3v5h-3v-5zM2755 1857h2q0 5 5 5v4h-7q0 7 11 7v5h-4q-4 0 -14 -14q0 -3 7 -7zM2764 1857l11 2v5h-7q-4 0 -4 -5v-2zM2780 1866h5v5q-5 0 -5 -5zM2787 1873h5v3h-5v-3zM2768 1876h5v4h-5v-4zM2780 1876h7q0 4 -5 4h-2v-4z
M2616 1880h5v3h-5v-3zM2609 1887h2q5 1 5 5l-5 2l-2 -5v-2zM2630 1887v2q0 5 -5 5v-2q1 -5 5 -5zM2018 1938h2v5l-9 2q0 -3 7 -7zM2484 1945q16 6 26 21q0 4 -14 7q-25 -6 -25 -24q9 -4 13 -4zM1716 1947l2 5h-5v2h5q0 -2 2 -2v4q0 5 -4 5t-7 -7q0 -3 7 -7zM2478 1949l-3 5
h9v-2q-2 0 -6 -3zM2484 1956v3h5v-3h-5zM2381 1959h9q13 0 23 16v5q0 4 -5 4h-9q-14 0 -23 -14v-7q1 -4 5 -4zM1951 2019h2q4 0 7 7l-4 2q-5 0 -5 -5v-4z" class="colorcurrentColor svgShape"></path></svg></g></svg>