<svg id="SvgjsSvg1047" width="288" height="288" xmlns="http://www.w3.org/2000/svg" version="1.1" xmlns:xlink="http://www.w3.org/1999/xlink" xmlns:svgjs="http://svgjs.com/svgjs"><defs id="SvgjsDefs1048"></defs><g id="SvgjsG1049"><svg xmlns="http://www.w3.org/2000/svg" viewBox="-10 0 2810 2048" width="288" height="288"><path fill="#ffffff" d="M1970 -2q11 2 11 11v6q-11 0 -11 6q-11 -6 -18 -6q0 -8 18 -17zM1884 15l5 11l-11 6l-6 -11zM1786 49h6q11 2 11 12l-17 11h-11v-11q1 -12 11 -12zM1706 61l5 11l-11 6l-6 -11zM1769 141h11v12h-11v-12zM1608 147h6l11 6q0 -6 6 -6v6q0 9 -23 23q-11 0 -11 -12v-6q1 -11 11 -11zM2079 147h11v11h-11v-11zM1579 187q12 2 12 12q0 11 -12 11q-11 0 -11 -11q2 -12 11 -12zM1740 216h6q6 0 6 6l11 -6q12 2 12 11q-16 29 -23 29h-18q-11 0 -11 -11v-12q0 -8 17 -17zM1568 227v18h-12v-6q2 -12 12 -12zM1597 227h17v18q0 11 -12 11h-5
q-12 0 -12 -11v-6q2 -12 12 -12zM1671 227h12v6h-12v-6zM1511 233q11 6 17 6q0 11 -12 11h-17v-11q12 0 12 -6zM2130 239h12v11h-12v-11zM1901 245h11q12 1 12 11v6q0 8 -17 17q-9 0 -18 -17v-6q2 -11 12 -11zM1648 256h6q23 9 23 17l-12 6q0 -12 -17 -12v-11zM1803 262
q8 0 17 17v6q0 11 -11 11h-12q-11 0 -11 -11v-6q0 -8 17 -17zM1838 267q11 2 11 12l-11 6q-12 0 -12 -12zM1568 273h11v17h-11v-17zM1700 273h11q12 2 12 12q0 11 -12 11h-17q-11 0 -11 -11zM1872 273h12v12h-12v-12zM1602 279l6 11l-11 6l-6 -11zM1625 290l6 12
q0 11 -11 11l-6 -11q2 -12 11 -12zM1861 290l5 12l-11 6h-6v-6q2 -12 12 -12zM1407 308h6q11 1 11 11v6q-11 14 -11 29h-6q-11 0 -11 -12v-23q2 -11 11 -11zM1849 308v17h-11v-6q1 -11 11 -11zM2251 308h6v11h-6v-11zM1493 313h6v12h-6v-12zM1660 313l5 12q0 11 -11 11
l-6 -11q2 -12 12 -12zM1815 313h17v18q0 11 -12 11l-5 -11v-18zM1453 319l12 23l-12 6q-11 0 -11 -12q5 0 5 -5q-5 0 -5 -6zM2693 319q11 6 17 6v17q0 12 -11 12h-18q-11 0 -11 -12v-11q9 0 23 -12zM1711 325l6 11l-11 6h-6v-6q2 -11 11 -11zM1952 342l6 12l-11 5l-6 -11z
M1551 348h5v11h-5v-11zM1757 348q12 2 12 11v12h-12q0 -12 -11 -12q2 -11 11 -11zM1832 348q13 0 17 29l-11 5q-9 0 -18 -17v-6q2 -11 12 -11zM1975 354l6 11v17h-29v-5q0 -9 23 -23zM1700 359h11l12 6l-6 12v28h-11v-6l5 -11l-28 6q-12 0 -12 -12q1 -8 29 -23zM1539 371h6
v11h-6v-11zM1488 377v22q-23 14 -23 35h-12q0 -17 -11 -17h-6q0 13 -6 23q35 11 35 23v11q-35 0 -35 -23l-80 75v11l6 12q-35 13 -35 23q12 1 12 11q0 17 -29 17v12l6 11l-12 6q0 -6 -6 -6v12l6 11q-29 8 -29 17q9 0 18 18q-6 17 -12 17q-17 0 -17 -17h-6q0 24 -28 40
q0 23 -23 23l-12 -6h-6v6q18 0 18 11v6h-6q-14 -11 -23 -11v-6q11 -14 11 -23l12 6q55 -58 63 -58q0 -13 -6 -23q8 -28 17 -28q0 5 6 5q0 -17 6 -17l-6 -11v-6q22 0 40 -58q19 -8 52 -74q40 -29 46 -29l-6 -11v-6l29 -23l11 6q26 -17 41 -17zM1660 377v17q0 9 -40 17l-6 -12
q24 -22 46 -22zM1069 388l5 11l-11 6l-6 -11zM1356 394q11 2 11 11q0 12 -11 12q-12 0 -12 -12q2 -11 12 -11zM1843 394q27 11 29 23q0 11 -11 11q-31 0 -41 -23zM2222 394l6 11l-12 6l-5 -12zM1436 405v6h11v-6h-11zM1752 399l5 12l-11 6l-6 -12zM908 405h6q11 2 11 12
q0 11 -11 11h-6q-12 0 -12 -11q2 -12 12 -12zM1574 411h11v11h-11v-11zM1895 411h6q11 2 11 11v6h-5q-12 0 -12 -11v-6zM1310 417h5v5q0 12 -11 12l-6 -12zM2021 417h18q0 11 -12 11h-6v-11zM1688 428h6q12 2 12 12v11q-23 15 -23 29q-20 6 -23 6v-12q9 0 17 -11l-6 -12v-6
q0 -8 17 -17zM1809 428l6 12l-12 5l-6 -11zM2010 434h11q0 11 -11 11v-11zM1533 440l6 11v12h-6q-11 0 -11 -12q2 -11 11 -11zM1752 440h17q11 0 40 51h6v6q0 12 -12 12q0 -10 -40 -18q0 6 -6 6l6 12v5l-29 6v6l6 11l-11 6h-6q0 -17 -17 -17v-29q6 0 17 -6v6q34 -13 34 -23
v-6q-17 0 -17 -11v-6q2 -11 12 -11zM1218 445v18q-12 0 -12 -12zM1344 445h12v6q-21 46 -35 46h-6q0 -10 29 -52zM1488 445q23 9 23 18q0 11 -12 11h-6q-9 0 -23 -23q11 -6 18 -6zM2067 445q12 2 12 12q0 11 -12 11l-11 -17zM1103 457l6 11h-17q1 -11 11 -11zM1034 468h6v12
h-6v-12zM1258 468q8 0 17 18l-6 11q-10 -6 -22 -6v-11q1 -12 11 -12zM1901 486h6q8 0 17 17v11q0 12 -12 12h-11q-12 0 -12 -12v-5l6 -12q-6 0 -6 -6zM2010 486h6v17h-6q-12 0 -12 -12zM1614 491q11 2 11 12q0 11 -11 11q-12 0 -12 -11q2 -12 12 -12zM156 497h6v12h-6v-12z
M1292 497q23 9 23 17v6q-11 0 -11 11h-12l-5 -28q5 0 5 -6zM862 509h6q8 0 17 17q0 8 -17 17q-9 0 -17 -17v-6q1 -11 11 -11zM1241 509h11l6 22q-34 23 -34 41h-18v-6q19 -40 41 -40l-6 -12v-5zM1442 509q11 5 17 5q0 -5 6 -5v11q0 8 -18 17q-9 0 -23 -23q12 -5 18 -5z
M1401 514h12v6h-12v-6zM1522 514h17v12h-17v-12zM2039 520q11 2 11 11q0 12 -11 12q-12 0 -12 -12q2 -11 12 -11zM213 526h6q12 2 12 11v12h-18q-11 0 -11 -12q2 -11 11 -11zM1614 526q17 5 17 34l-23 17h-17q-12 0 -12 -11v-12q0 -7 35 -28zM1688 526h12q0 21 11 34v29
q-24 17 -34 17l6 12l-12 5q-14 -17 -23 -17q0 -6 35 -46q-12 0 -12 -11q17 0 17 -23zM1935 537q12 2 12 12l-12 5q-11 0 -11 -11zM1964 537h6q11 2 11 12q0 11 -11 11h-6q-12 0 -12 -11q2 -12 12 -12zM2153 543q6 0 6 6l12 -6q11 2 11 11q0 12 -34 18l-6 -12v-6
q2 -11 11 -11zM1872 549h6v5q0 12 -12 12l-5 -12zM1396 554h17q6 0 29 41v5h-6l-12 -5q0 20 -68 80q0 16 -35 69q0 29 -29 29l6 11l-40 52l6 34q0 7 -52 35h-17q-13 0 -17 -58q28 6 28 23q12 0 18 -40q-6 0 -6 -6l11 -6l29 6l-6 -11v-6q12 0 23 -29v-5l-6 -12q14 -11 23 -11
v-6h-5l-23 11v-11q8 0 23 -17q11 5 17 5l-23 -28q10 -6 23 -6l-6 -12q8 -28 17 -28l12 5q0 -22 40 -22q0 -6 6 -6l-6 -29q17 -22 17 -34h12v17h5v-12q-5 -10 -5 -23zM1688 566v23h6q0 -13 6 -23h-12zM1269 566h6v11h-17q2 -11 11 -11zM1889 572h29v5q0 12 -11 12h-6
q-12 0 -12 -12v-5zM1935 572l6 11q0 12 -12 12h-5v-12q2 -11 11 -11zM1568 583h11v6q-5 11 -5 17h-6v-23zM1665 589v6h12v-6h-12zM1482 589h6v11h-6v-11zM1763 589h17q0 11 -11 11zM1585 595h17v5q0 12 -11 12h-6v-17zM1907 600q11 2 11 12q0 11 -11 11q-12 0 -12 -11
q2 -12 12 -12zM1729 606h5v12h-5v-12zM1625 618q46 15 46 28q-11 2 -11 12l5 11l-11 6q0 -12 -11 -12h-18v6l29 6v11q-20 18 -34 18q0 11 -12 11h-6v-11l-11 5q-6 -10 -6 -23l-29 23v-17h-28q-9 0 -17 -17v-23h17v11l11 -5h6q11 2 11 11l-5 12q6 0 17 5q2 -11 11 -11
q6 0 6 6q10 -6 29 -6v-6q-29 -4 -29 -17v-17q27 0 40 -17zM1993 618l5 11h-17q2 -11 12 -11zM1539 623q0 18 17 18v5q-6 0 -17 6q-11 -6 -17 -6v-5q0 -9 17 -18zM1631 629q0 12 -11 12v5h11l6 -11v-6h-6zM1792 623h5v18h-11q6 -12 6 -18zM1998 635h6v11h-6v-11zM1120 652
l6 11l-11 6l-6 -11zM1717 652h6q11 2 11 11l-11 6l-6 -11v-6zM2193 652h18q8 0 17 17v12q0 8 -17 17h-18q-8 0 -17 -17v-12q0 -8 17 -17zM1189 663v18q-11 0 -11 -12zM1206 681l12 17v6h-6l-29 -6v-12q13 0 23 -5zM1872 692h12v17q-12 0 -12 -11v-6zM2061 692h6q12 2 12 12
v5q-11 -5 -18 -5v-12zM1505 698h17q7 0 34 40v12q-68 58 -68 68q0 22 -18 41h-5v17h17v17h-6l-23 -17h-6l6 29l12 -6q11 2 11 11q23 -5 23 -28l-11 -6q48 -103 74 -103q12 0 23 -35v-6h-6v12q-11 0 -11 -12q2 -11 11 -11l12 6l6 -12q10 6 23 6v17q0 12 -29 12v5h11v12
q-15 0 -46 74q6 12 6 18l-34 34q-11 -6 -17 -6q0 6 5 6q0 28 -40 80q-33 60 -52 69h-5l5 -11q-6 0 -17 -6l-11 17v12h11v-12h6q0 9 11 23l-28 52q-6 0 -23 29l-29 -6l6 -40v-6l-23 17l-6 -11q0 -52 69 -52v-11q-17 0 -17 -12q2 -11 11 -11q0 5 6 5q0 -28 11 -28q0 5 6 5
q17 -28 17 -46v-5h-23l6 -23v-17q17 0 29 -52l17 -12q0 6 6 6q29 -60 29 -69q-18 -5 -18 -11q0 -23 46 -29q-23 -29 -23 -34zM1252 704h12v11q-12 0 -12 -11zM1677 704l11 17q0 11 -11 11q-12 0 -12 -11v-6q2 -11 12 -11zM2165 704h6q50 16 57 34v6q0 11 -12 11q-5 0 -5 -5
l-12 5h-23q-8 0 -17 -17l6 -11q-12 0 -12 -12q2 -11 12 -11zM1097 715h12q0 12 -17 12v5h11v6q0 9 -23 23h-6l-5 -23zM1516 721v6h17v-6h-17zM1648 715q0 6 6 6q-6 9 -6 29h-5q-12 0 -12 -12q9 -23 17 -23zM2262 715h12q11 2 11 12v5q0 12 -11 12h-12q-11 0 -11 -12v-5
q2 -12 11 -12zM1763 727l17 23l-5 11q8 0 22 23l-28 17q-22 0 -40 -57q5 0 5 -6q-5 0 -5 -6q30 -5 34 -5zM1826 732v12h-11q1 -12 11 -12zM2389 732h11q12 2 12 12q0 11 -12 11h-11q-12 0 -12 -11q2 -12 12 -12zM1660 750q11 5 17 5q0 9 -17 18q-12 0 -12 -12q2 -11 12 -11z
M1166 773h12v5q-12 15 -12 29h-11l-6 -29h6l11 6v-11zM937 778h11v6h-11v-6zM1046 778h11v23q-17 0 -17 12h-12v-18q0 -8 18 -17zM1465 778h5v17l-11 6v-6q6 -11 6 -17zM1597 778h11v12h-11v-12zM1901 795q28 0 46 29v6q0 11 -12 11h-28q-9 0 -18 -17v-11zM2027 795
q29 8 29 41l-35 40h-11q0 -21 -35 -58v-11zM87 813q8 0 17 17l-17 11h-6q-11 0 -11 -11q0 -8 17 -17zM1775 813q8 0 17 17q0 11 -12 11h-5q-12 0 -12 -11v-6q2 -11 12 -11zM1815 813h11v5q-6 12 -6 18q19 -12 29 -12q23 9 23 17v12q0 6 -6 6l6 11v12q-9 23 -40 23h-17
q-6 0 -6 -6l-12 6h-11q-8 0 -17 -18q2 -11 11 -11l17 11l6 -28v-35q12 0 12 -11zM1017 830h11v6h-11v-6zM1401 836h12v23q-13 0 -23 5l-6 -11q0 -8 17 -17zM2423 841q12 2 12 12v11h-18q-11 0 -11 -11zM1126 853l6 11l-12 6h-5v-6q1 -11 11 -11zM1585 853h12q8 0 17 17v6
l-29 6v-29zM2193 859q35 11 35 23v5q0 9 -17 18h-6q-8 0 -29 -29q0 -8 17 -17zM1987 882h6q14 0 28 45q12 2 12 12v6q0 8 -17 17q-23 -9 -23 -17v-6q0 -12 17 -12v-5q-25 0 -52 -17v-18zM988 887h12v6h-12v-6zM1132 893q10 6 23 6v6q0 8 -18 17h-5q-12 0 -12 -12v-5
q2 -12 12 -12zM2417 893h18q8 0 17 17v6l-29 34h-6v-11h-5v11h-12q-11 0 -11 -11q0 -12 23 -12l-6 -11v-11q2 -12 11 -12zM1097 899h12v6h-12v-6zM265 905l6 11l-12 6l-5 -12zM1183 910h12v6h-12v-6zM1367 910v6q-6 10 -6 23q12 2 12 11h-17l5 12q0 11 -11 11v-11h-6l-11 6
q0 -18 -6 -18q2 -14 40 -40zM1533 910q12 2 12 12v11h-12v-23zM2107 922h12v11h-12v-11zM1160 927h6q11 6 17 6q-5 11 -5 17q-9 0 -18 -17v-6zM1344 933v12h12q0 -12 -12 -12zM2314 927v6q0 12 -11 12h-6v-12q6 0 17 -6zM1700 939h23q6 0 6 6l11 -6l29 11q-7 52 -17 52h-6
q-48 -34 -58 -34v-18q2 -11 12 -11zM1080 950h12v6q0 12 -12 12v-18zM1160 950h12v12q-20 34 -29 34q-11 0 -11 -11q5 0 5 -6q-22 -8 -22 -17l11 -6h11v12zM2429 962q11 2 11 11v6h-11q-12 0 -12 -11zM1941 968h6q8 0 17 17l-12 6zM2010 968h6q8 0 17 17q0 11 -12 11h-5
q-9 0 -18 -17q2 -11 12 -11zM1574 973l28 6v6q0 11 -17 11v6h12v12q-13 0 -23 5q0 -11 -12 -11q0 17 -23 46q0 17 -28 23v17l-29 -6l11 -17l-11 6h-6q-11 0 -11 -12v-6q32 -34 74 -40q17 -22 17 -28l12 5h6v-23zM2268 973q12 2 12 12v11q0 12 -12 12h-11q-12 0 -12 -29
q10 -6 23 -6zM1665 979h6q13 0 17 29l-17 11q-14 -11 -28 -11q0 -8 17 -17q0 5 5 5v-17zM1907 985q11 2 11 11l-11 6q-12 0 -12 -11zM2148 985h11v6h-11v-6zM1028 991l12 17v6q0 8 -17 17h-18v6h-11v-29q6 -17 34 -17zM1333 1014q23 8 23 17q-35 7 -35 28q-11 0 -11 -11
q7 0 23 -34zM1459 1019q8 0 17 18h-6q-11 0 -11 -12v-6zM937 1025l11 17v6q0 6 -34 52v5q11 15 11 29h12l17 -11q23 8 23 17v6l-6 11q6 0 6 6l11 -6q23 12 23 34l-11 6v-6q-11 6 -17 6q-12 -6 -18 -6l6 -28q-48 28 -63 46q-19 -12 -29 -12q0 17 23 17v18q-16 30 -40 46
q0 -8 -29 -23l-28 5h-6l-17 -11q34 -45 34 -52q-2 -15 -29 -23q-5 10 -5 23h-12l-11 -6q0 37 -40 58q17 6 17 11q0 10 -35 41q-46 0 -46 -46q-20 2 -46 46h-17q-11 0 -11 -18l-12 6h-5v-11l11 -18l-11 -5h-6q-23 23 -35 23q-17 -6 -17 -12q0 -27 29 -52h6q17 0 17 23l11 -5
l12 5q2 -11 11 -11l35 23v-6q0 -5 -23 -34v-12q83 -57 120 -57q27 17 35 17q28 -17 80 -34l29 17h5l-5 -29q23 -8 23 -17q-6 -11 -6 -17q5 0 52 -52zM1097 1025q9 0 18 17h-6q-10 -5 -23 -5q2 -12 11 -12zM1843 1025h12v12h-12v-12zM1981 1025v17h-11v-5q1 -12 11 -12z
M208 1031q11 2 11 11l-11 6q-12 0 -12 -11zM1057 1048h12v11h-12v-11zM1430 1054h6q8 0 17 17v6q0 11 -11 11h-6l-6 -29v-5zM2119 1054h11v11h-11v-11zM374 1059l6 12h-17q1 -12 11 -12zM1086 1059h11v12h-11v-12zM1269 1065h12v23q0 12 -12 12h-11q-11 0 -11 -12v-6
q22 0 22 -17zM1034 1077h12q8 0 17 17l-12 6h-11l6 -12q-12 0 -12 -11zM2039 1077h5v11h-5v-11zM1034 1082q-6 19 -23 23v-17zM1304 1082h6v18h-18v-6q2 -12 12 -12zM1545 1082h17q0 7 6 18h-6q-8 0 -17 -18zM2073 1082h6v12h-6v-12zM1103 1088l17 12v-12h6v17l-11 6h-6
q0 -11 -17 -11q1 -12 11 -12zM1137 1094h6v11h-6v-11zM2016 1094h11v6q0 11 -11 11h-6q6 -11 6 -17zM2412 1094q11 2 11 11h-11v-11zM1671 1100q46 30 46 34h-11l-18 -11q0 28 -11 28q-29 -22 -29 -46q3 0 23 -5zM277 1105h5q12 2 12 12l-12 6h-5v-18zM736 1105h5
q12 2 12 12l-12 6l-5 -12v-6zM1252 1105l6 12v6h-6q-11 0 -11 -12zM1884 1105h11v6h-11v-6zM1224 1111h11v6h-11v-6zM2360 1111h11v12h-11v-12zM1069 1117h11v11h-11v-11zM2039 1117h11v6h-11v-6zM1884 1123h5v11h-5v-11zM1287 1128h5q9 0 35 35h-6q-13 0 -23 -6l-40 12
l-6 -12q15 0 35 -29zM1878 1134l17 12l12 -6l5 11q-14 0 -28 18l-6 -12q0 -6 6 -6l-6 -11v-6zM1120 1140h12v11h-12v-11zM564 1163h11q12 2 12 11v23q0 12 -12 12h-11l5 -12v-6h-5v12q-12 0 -12 -12v-17q12 0 12 -11zM1224 1163h5q11 6 18 6q-8 28 -18 28h-5l5 -11
q-5 -10 -5 -23zM1826 1163h12v11h-12v-11zM2021 1169v5q0 12 -11 12v-6q2 -11 11 -11zM443 1174h12q11 2 11 12v5q0 12 -11 12q-12 0 -12 -12v-17zM1356 1174l5 12v17q0 26 -28 46h-6q11 -75 29 -75zM351 1180l6 11q-20 35 -29 35q-11 0 -11 -12v-5q0 -9 34 -29zM386 1180
h28q12 2 12 11v12q-5 0 -46 6l-6 -12q12 0 12 -17zM495 1180h11v6h-11v-6zM1660 1191q11 2 11 12h-11v-12zM500 1197h12q11 2 11 12q0 11 -11 11h-6l-11 -6q5 -11 5 -17zM1734 1214h6v12h-6v-12zM1143 1220h17l6 23h-11q-12 0 -12 -11v-12zM1424 1220q12 2 12 12h-12v-12z
M391 1226h6l6 23l-17 11h-6v-23q2 -11 11 -11zM644 1237v6h11v-6h-11zM1269 1232v11h-11q2 -11 11 -11zM432 1237h5q12 2 12 12q0 8 -17 17q0 -6 -6 -6q6 -10 6 -23zM1160 1249q12 2 12 11q-14 29 -29 29q-26 -11 -28 -23v-6h11l29 6q5 -11 5 -17zM437 1266h6v17h-6v-17z
M1195 1278h6q8 0 17 17v17q-30 6 -35 6l-5 -12v-11q0 -8 17 -17zM432 1283h5v12h-5v-12zM1430 1283h6q11 0 17 35q-32 17 -46 17l-17 -34q6 0 6 -6l11 6h12q0 -18 11 -18zM202 1289q11 2 11 12v11h-11v-23zM770 1295q12 2 12 11v6q-12 0 -12 -11v-6zM489 1301h6q11 1 11 11
v11q0 12 -11 12h-12q-11 0 -11 -12v-5q0 -9 17 -17zM1235 1318h12v11h-12v-11zM1361 1318q35 11 35 23v5l-12 18q6 0 6 5l-11 6q0 -11 -12 -11q0 5 -6 5v-11h-5v11h-6l-12 -5q0 11 -11 11l-23 -6q-11 6 -17 6v-11q34 -6 34 -29q24 11 35 11l-12 -17v-6l17 12v-17zM1396 1364
h11v5h-11v-5zM1235 1369h6q6 0 6 6l11 -6q10 0 34 41v17q0 11 -11 11q-23 0 -23 -28q-23 11 -34 11q0 -13 -29 -17v-12q8 0 34 -17q0 6 6 6v-12zM650 1392l5 29h-17l6 -11l-6 -12zM1149 1427h17q0 11 17 11q0 41 -40 52q-28 -10 -28 -29q5 -11 5 -17l12 6q3 -23 17 -23z
M512 1455h6q11 2 11 12q0 8 -17 17q-12 0 -12 -11v-6q2 -12 12 -12zM449 1461q11 2 11 12q-11 0 -11 11q-12 0 -12 -11q2 -12 12 -12zM1051 1478v6l-5 12h23v5q11 0 11 -17h17v12q0 16 -57 23l6 -12v-6l-12 6v-6q9 -23 17 -23zM994 1542h11v5h-11v-5zM1120 1559h17v6h-17v-6
zM799 1587h11q12 2 12 12v6q0 11 -12 11h-5q-9 0 -18 -17q2 -12 12 -12zM1109 1587h11v6h-11v-6zM828 1593h11v6h-11v-6zM805 1662q11 2 11 12h-11v-12zM839 1662h17q0 12 -11 12h-6v-12zM914 1731h5q12 2 12 11t-17 18h-6zM810 1771q12 2 12 12q0 9 -23 23l-6 -12
q17 -14 17 -23zM753 1817q17 0 17 23q-8 23 -17 23h-23q0 -6 6 -6l-6 -11q11 -26 23 -29zM782 1851h11v6h-11v-6zM667 1869h6q11 1 11 11v6h-17v-17zM805 1892l5 11l-11 6h-6v-6q2 -11 12 -11zM816 1938h6q11 1 11 11v6q0 8 -17 17q-11 0 -11 -11v-12q1 -11 11 -11z" class="colorcurrentColor svgShape"></path></svg></g></svg>