<svg id="SvgjsSvg1137" width="288" height="288" xmlns="http://www.w3.org/2000/svg" version="1.1" xmlns:xlink="http://www.w3.org/1999/xlink" xmlns:svgjs="http://svgjs.com/svgjs"><defs id="SvgjsDefs1138"></defs><g id="SvgjsG1139"><svg xmlns="http://www.w3.org/2000/svg" viewBox="-10 0 3410 2048" width="288" height="288"><path fill="#ffffff" d="M1047 261q21 8 21 16v22q0 10 -10 10h-11q-9 0 -22 -21q11 -25 22 -27zM1358 352h5q8 0 16 16v16q0 8 -16 16q-8 0 -21 -21v-11q0 -8 16 -16zM1658 363h5q0 16 16 16v16q-10 0 -10 11h-6v-22h-21v11q10 0 27 27q10 0 10 -6v-21q11 2 11 11v21q0 11 -11 11h-5v-11h-5v22h-11q0 -27 -6 -27q-30 16 -42 16v5h10v6q0 10 -10 10q-7 0 -27 -32v-32q0 -8 16 -16v5l11 -5h10v16l-5 11l11 5q0 -25 32 -48zM1594 395q0 12 -6 21l11 6q11 0 11 -11q-11 0 -11 -16h-5zM1620 416v11h6v-11h-6zM1663 475h6q9 0 16 33q-11 17 -11 26h-11q-32 -21 -32 -43
l16 -10v5l-5 11h10q11 -6 17 -6v-5zM2521 513h27v5q-17 0 -17 11h-10v-16zM1797 529q22 8 22 16v5l-11 16q11 2 11 11l-16 11h-11q-8 0 -16 -16v-11q0 -27 21 -32zM1792 550v22h5v-22h-5zM1540 588h11v11h-11v-11zM2574 593q0 15 16 32v6h-5l-11 -6v6q0 11 22 11l-6 10
l-10 -5h-16v11h10v10q-5 0 -16 6q11 27 11 37l-11 -5h-21v11q5 0 16 5q2 -11 11 -11l5 11v5q-21 0 -21 22q-27 0 -27 -11q-32 4 -32 16q-10 -5 -22 -5v-6q2 -10 11 -10l11 5v-11q-5 -18 -33 -32l6 -11v-5l-22 -5v-11l11 5v-26h11q2 21 16 21v-27q7 -11 16 -11l-5 -26h16
q0 21 26 21q8 -18 43 -27zM1535 599h5v10h-5v-10zM2548 620h5q11 0 11 -11v-5q-8 0 -16 16zM1792 647q21 30 21 43h-10l-6 -27h-5v16h-11v-5q0 -6 5 -6l-5 -10q2 -11 11 -11zM2483 663v11h6v-11h-6zM1776 663v5q0 11 -11 11v-5q2 -11 11 -11zM1535 668q41 14 48 32v22
q0 8 -22 16q-53 -19 -53 -32v-11q0 -7 27 -27zM2129 668q8 0 17 16q0 38 -38 38l-5 -11v-21q0 -8 26 -22zM2494 674v16h11v-6q0 -10 -11 -10zM1540 679v11h11q0 -11 -11 -11zM1524 684v6h11v-6h-11zM2430 684q10 6 16 6v10h-22v-5zM1754 690h6q5 0 5 5l11 -5h16v10h11l10 -5
v11h-21v5h11v11l-27 5h-22v-10q0 -6 6 -6l-6 -11v-10zM2478 695v5h11v-5h-11zM2199 700h11q11 2 11 11l26 -5h11q31 39 102 59q17 -11 27 -11l5 11q-14 43 -37 69v6l21 27l11 -6h5q11 2 11 11l-11 16q16 32 32 32q11 -5 16 -5q0 18 108 37q53 45 53 81q15 16 59 37
q0 18 54 32q10 14 10 22h11q10 0 59 -86q17 -11 27 -11q74 53 75 70q0 11 5 11q11 -6 16 -6l16 22q-5 10 -5 16l11 -5q32 40 91 80q53 134 86 134l5 11h-11l-10 -6l-6 11q11 5 16 5v6h-10v10l10 -5q0 5 6 5v-16h10v22l6 37q-11 0 -11 16h-5q-73 -60 -193 -80
q-97 -15 -97 -59q0 -19 -64 -48q0 -8 -43 -43q0 -20 -80 -64q-91 -76 -91 -91l-27 -6q0 11 -11 11h-5q-35 -48 -43 -48q-4 0 -32 -6l5 11v16q0 11 -11 11q-7 0 -16 -32q-18 0 -43 -16h-5q-54 32 -54 37v16q0 41 22 48l21 -21h6v27h-17v5q9 0 22 16q22 0 43 -27h16v22h5v-27
h11l-5 11q8 0 21 21v54q16 25 16 43h-11v5q11 0 11 5q0 14 -16 38l5 32q-21 23 -21 43q5 10 5 16q-45 59 -96 64h-16q0 16 -11 16h-21l-16 -10l-11 5q-27 -5 -27 -11l-11 6h-5q-11 0 -11 -11q6 -10 6 -16q-11 0 -11 -16h-16v16h-6q0 -22 -10 -22q0 11 -11 11q-9 0 -27 -37
l-16 -11h-5v5l10 16q-10 2 -10 11q5 0 5 5h-11v-21l-10 5v-21h-6q-4 27 -16 27q0 -6 -37 -27q-9 0 -16 37l16 27l-16 11q-18 -11 -33 -11q-42 41 -91 54q0 11 -10 11h-27l-86 -59q0 -13 -43 -129q-50 -129 -91 -129l-5 -10l-11 5h-5q0 -6 5 -16v-11h-5q0 9 -16 27h-6l-5 -27
l5 -10h-27v-6l6 -11l11 6h10v-16h11l11 5v-11h5l11 6q0 -6 5 -6q2 27 16 27q0 -16 6 -16l-6 -11v-10h6q5 0 5 5l11 -5h32q21 8 21 32h16q31 -22 43 -22q9 0 32 11l11 -5l11 5q53 -22 53 -70q-13 -13 -59 -37q0 -8 -69 -64q-11 -28 -11 -38q9 0 32 -59v-16h-11v-11h33
q16 -31 16 -37h21q0 24 6 32q-6 10 -6 16l32 27l27 -6h16q0 -16 11 -16q15 18 21 59l22 -10q53 0 53 42q33 4 33 22h5q0 -11 5 -11l-5 -11q5 -9 5 -21q-27 0 -37 -54v-26l27 -49l16 -10q77 57 85 75q20 -36 27 -70q-5 -9 -5 -21v-6h5q11 0 11 16h5v-5q0 -14 -16 -38z
M1642 706q37 0 37 37l-21 16h-6q-8 0 -21 -21v-21q2 -11 11 -11zM2221 717v10h5v-10h-5zM2242 717v16q10 -6 16 -6q0 -10 -11 -10h-5zM2451 749h11v5h-11v-5zM1486 776h6q10 1 10 10h-16v-10zM222 781h5q8 0 16 16q0 8 -16 16h-5q-11 0 -11 -11v-10q1 -11 11 -11zM1470 786
h11v16q21 -16 32 -16v11h-11v5h11q0 6 -5 16q0 37 69 54q27 28 27 37q-13 43 -32 43q0 7 -37 16q-31 0 -54 -69q-21 0 -21 -11v-5q42 -24 42 -32q-10 0 -10 -17l5 -26h-5q-11 5 -16 5l-6 -11v-16zM2237 813v11h5v-11h-5zM2226 824v10l16 11v-11q-11 0 -11 -10h-5zM2548 829
h10q14 27 22 27v37q-20 33 -27 33q-44 0 -70 -33v-21l11 5h5v-5h-10v-11h21q0 -32 38 -32zM2526 845v16q8 0 16 -16h-16zM2548 861v6h10v-6h-10zM2564 867v10h5v-10h-5zM2531 872q2 11 11 11v-11h-11zM2124 883q0 16 -16 16v5l11 16q-43 7 -43 22v16h11v5q-16 27 -33 27
q2 11 11 11q8 -22 16 -22q6 22 32 22h22v5l-6 11h11l11 -6l-16 -26v-6h5q24 22 27 22v-6l-11 -21l11 -6l11 17q10 -6 16 -6l-6 -27q6 -10 6 -16q-65 -23 -65 -53h-5zM1433 883h5q8 0 16 16v10q0 8 -16 17q-16 -6 -16 -33q2 -10 11 -10zM2505 888q1 11 10 11v-11h-10z
M2526 888v16h5v-16h-5zM2542 888l-5 27q9 -6 21 -6v-5q0 -8 -16 -16zM1674 888q17 0 43 43q-13 48 -38 48q-61 -22 -75 -43q0 -27 70 -48zM1122 904h5q32 3 32 16q0 28 -16 32h-16q-7 0 -16 -16v-21q2 -11 11 -11zM2028 920v11h5v-11h-5zM2044 920v16h5v-16h-5zM1352 926h11
q11 1 11 10v16q0 11 -11 11h-5q-9 0 -22 -21q0 -8 16 -16zM1347 936v11h11q0 -11 -11 -11zM2108 936l5 11l-10 5l-6 -10zM2060 952v11h11v-11h-11zM1218 979l6 11q-6 0 -16 5v-5q1 -11 10 -11zM1749 979h5v22l11 -6h5q20 0 43 22q0 48 -53 48q0 5 -6 5q-32 -7 -32 -59
q9 0 27 -32zM1572 1001h5q11 1 11 10v6h-11v5l6 11h-11q0 -6 -5 -16q5 -11 5 -16zM2205 1006v5h10v-5h-10zM2097 1017v10h6v-10h-6zM2146 1022v11q10 0 10 -11h-10zM1829 1022h6q13 11 21 11v10l-11 -5v11h-10zM1674 1097v11h11q0 -11 -11 -11zM1133 1097q0 11 16 11v11
q0 10 -11 10q-21 -8 -21 -16v-11q5 0 16 -5zM1610 1119v5h5l5 -22q-10 0 -10 17zM1631 1113q2 11 11 11v-11h-11zM2912 1124v16h5v-16h-5zM2322 1145v11h6v-11h-6zM2387 1151v5h10v-5h-10zM2205 1167v16h-6l-11 -6q0 11 -10 11v11l10 16h-10v5h5q10 -5 16 -5h16q6 -7 6 -27
q-11 -21 -16 -21zM1326 1177v17h5v-17h5q8 0 16 22l-16 11h-5q-8 0 -16 -16v-6q2 -11 11 -11zM2939 1194v10h5v-10h-5zM2199 1194h11q0 10 -11 10v-10zM1411 1199h11q8 0 21 21v11q0 8 -21 22h-16q-8 0 -21 -22q7 -22 26 -32zM1417 1220v6q1 10 10 10v-16h-10zM2140 1236v6
h11v-6h-11zM2188 1263v6h11v-6h-11zM179 1269q43 19 43 69v11q-21 37 -49 37q-41 0 -69 -42v-16q0 -53 75 -59zM1395 1269l6 10v11q0 11 -11 11h-11l-5 -27zM2049 1306v11h5v-11h-5zM2135 1311q2 11 11 11v-11h-11zM2183 1317v11h5v-11h-5zM2113 1322v11h6v-11h-6z
M2103 1333v11h5v-11h-5zM2205 1333v16h10v-16h-10zM2017 1338v6h11v-6h-11zM2178 1344v5h10v-5h-10zM2210 1354l-5 27h10q11 0 11 -11q0 -7 -16 -16zM2167 1360v5h11v-5h-11zM2188 1360l-5 10v6h16v-6q0 -10 -11 -10zM3073 1386v11h10q11 0 11 -11h-21zM3100 1403q0 7 16 16
h5v-11l-5 -11q-11 6 -16 6zM2226 1424h11l10 -5q-5 -11 -5 -16q-8 0 -16 21zM2205 1403h5v10h-5v-10zM2129 1408h6q5 0 5 5l11 -5h5v5q0 8 -16 16h-5zM3089 1413v6h11v-6h-11zM2054 1429h17v11h-17v-11zM2880 1445h16v11q0 7 -27 27h-11q-10 0 -10 -11q0 -7 16 -16h5l-5 11
h5q11 0 11 -11h-11q2 -11 11 -11zM2022 1456h16q11 2 11 11v11q0 14 -11 32h11q11 0 11 -11l-6 -11h11v22h6q10 0 10 -11q18 5 22 21h-11v6q2 11 11 11h5v-6l-5 -11h5q27 15 27 22v5h-11q9 27 48 27v-5q9 5 27 5l-5 27v16h-11q0 -12 -21 -21v10h10v6h-32q0 5 -5 5q5 10 5 16
h6v-16h5q11 0 11 16l10 -5h6v10q-13 0 -43 22q-9 0 -16 -27q-18 5 -22 21h16v11h-5q-52 -38 -129 -80l-10 -43q21 -11 21 -32q-11 0 -11 -11v-11zM3148 1462h10q0 8 33 32q-8 0 -22 21q-11 0 -11 -27l-10 6q-6 -11 -6 -16q6 -11 6 -16zM3255 1467h11v5q0 11 -11 11v-16z
M2071 1472h16v11h-6q-10 0 -10 -11zM2028 1494h10v-11q-10 2 -10 11zM2022 1515l11 5v-16q-11 2 -11 11zM2146 1499h37v5q0 11 -11 11q-10 0 -10 -11l-11 6h-5v-11zM2585 1504q11 2 11 11v5h-11v-16zM3196 1504q11 2 11 11q0 11 -11 11h-11v-11q11 0 11 -11zM2006 1520v17h6
v-17h-6zM2162 1526h16q0 8 10 21v6q-8 0 -21 -22h-5v-5zM2478 1526h11v5h-11v-5zM2553 1526h11v16h-6q0 -6 -5 -16zM2585 1537h5q6 0 6 5l10 -5h6v10h-16v6l5 10h-11q33 26 33 54q-11 0 -11 16l-11 -5q0 5 -5 5q0 -11 -11 -11l-5 11h16v16h-16q0 -22 -54 -43q0 -5 -5 -5
q-11 5 -16 5l-6 -10l11 -6l11 6q0 -24 27 -38l26 11zM2151 1542h11v21h-11v-21zM3239 1542l16 21v6q0 10 -11 10h-16q-8 0 -16 -16v-5q0 -12 27 -16zM1990 1553v10q11 0 11 -10h-11zM2006 1563v11h11v-11h-11zM2033 1563v11q11 0 11 -11h-11zM2510 1558h11v16h-11v-16z
M2837 1563h11v11q-11 0 -11 -11zM2060 1574v11h5v-11h-5zM2113 1574v11h6v-11h-6zM2156 1579v11h16v-5q-5 0 -16 -6zM2178 1579v11h5v-11h-5zM2580 1585v11q5 0 16 5l5 -11v-11h-5q-11 6 -16 6zM2628 1574q11 2 11 11h-11v-11zM2076 1596q2 10 11 10h5v-10h-16zM2639 1617
h10v5h-10v-5zM2649 1622l11 6q9 -6 22 -6q-6 11 -6 16h-5l-11 -5v5l11 16q-11 0 -11 6q-9 -6 -21 -6v-5q10 -13 10 -27zM3303 1633h6q21 11 21 32l-16 11h-11q-16 -5 -16 -32zM2692 1638h11l-5 11v5q1 11 10 11q0 -6 6 -16q-6 0 -6 -5h11q11 1 11 10v6q0 5 -6 5q6 7 6 27
h-22v11q11 0 11 5l11 -5h5v5q-5 10 -5 16q5 0 5 5q-21 0 -21 11q-11 0 -11 -11q0 -5 5 -5l-16 -43q-7 0 -16 16v11l11 16v5l-5 11q-13 0 -38 -48v-5h11l10 5q0 -42 27 -54zM2628 1644h5v5q0 11 -10 11h-6v-6q2 -10 11 -10zM1299 1671h5q11 1 11 10l-11 6q0 -6 -5 -16z
M2633 1671h11v10q-11 0 -11 -10zM1288 1676h11v5q0 11 -11 11v-16zM2612 1681h11q10 2 10 11v5h-5q-10 -5 -16 -5v-11zM104 1708h16q96 13 96 70v16q-12 69 -70 69q-96 0 -96 -80q18 -59 54 -75zM2751 1735q0 5 6 5l-6 11v5q33 22 48 22q0 13 -48 16q-11 -14 -11 -16h6
q10 5 16 5v-11q-8 0 -22 -10v16q-10 0 -10 -11l5 -11h-11q-10 6 -16 6q16 -14 16 -22h11l-5 11h10q0 -16 11 -16zM2949 1735h17v5h-11v6l5 10h-16q11 27 11 38h-6l11 27q-5 0 -5 5q5 0 5 5q-5 0 -5 6q11 0 11 16h10l16 -11q11 2 11 11v5h-11v11h11q0 -16 11 -16h5q0 5 6 16
q-6 0 -6 5q6 0 6 6q-11 0 -11 5q5 10 5 16h-5q-22 -11 -32 -11v6q0 7 16 16q0 -6 5 -6v11q24 -21 27 -21v5q-9 21 -22 21q2 11 11 11q0 -5 6 -5l5 11q-20 0 -48 48q-24 0 -33 5q-37 -9 -37 -16l-11 5h-5l-5 -26l-11 5l-6 -11l6 -10v-6h-6v11h-10v-22q-14 -16 -22 -16
q11 -13 11 -21q-5 -10 -5 -16q10 -6 16 -6l-6 -21q6 -10 6 -16l-11 5q0 -5 -5 -5q0 6 -6 16q6 10 6 16q-14 -16 -27 -16v-11q16 0 32 -26l-5 -11h16q0 -6 -6 -6q6 -21 22 -21v-11h-11v-10h5q11 1 11 10l11 -5h11v11l-11 -6q0 16 -22 16v11q6 0 17 5q21 -3 58 -53zM2698 1740
h10q0 11 -10 11h-11q2 -11 11 -11zM2783 1740h11v11q-11 0 -11 -11zM3019 1756q11 2 11 11l-11 5h-11v-5q2 -11 11 -11zM2826 1762q11 5 16 5v5l-10 16l-11 -5h-6v11h-16v-11q11 0 27 -21zM2976 1772q6 0 6 6l10 -6h6v6l-6 27h-10v-11l5 -11h-5l-11 5l-5 -10zM2891 1805v5
q10 0 10 -11v-5q-10 1 -10 11zM2858 1810h11v-11q-11 2 -11 11zM2933 1799v16q11 0 11 -10v-6h-11zM3003 1794h27v11h-5l-11 -6q0 6 -6 6zM2773 1799h16v11h-6q-10 0 -10 -11zM2799 1805h11v10h-11v-10zM2869 1821v5h11v-5h-11zM2992 1815h11v11h-11v-11zM3003 1826h11v11
h-11v-11zM3030 1831l5 11h-16q2 -11 11 -11zM2869 1847v6h11v-6h-11zM3046 1896q11 1 11 10v6h-11v-16zM2976 1917v16q11 0 11 -11zM3078 1933h5v11h-5v-11zM3025 1944h10v11l-10 -6v16h-11v-10q1 -11 11 -11zM3057 1949h10v6h-10v-6zM3008 1971l6 10q0 11 -11 11l-5 -11
q1 -10 10 -10zM3078 1971h11v5h-11v-5zM3062 1981h11v11h-11v-11z" class="colorcurrentColor svgShape"></path></svg></g></svg>