<svg id="SvgjsSvg1052" width="288" height="288" xmlns="http://www.w3.org/2000/svg" version="1.1" xmlns:xlink="http://www.w3.org/1999/xlink" xmlns:svgjs="http://svgjs.com/svgjs"><defs id="SvgjsDefs1053"></defs><g id="SvgjsG1054"><svg xmlns="http://www.w3.org/2000/svg" viewBox="-10 0 1920 2048" width="288" height="288"><path fill="#ffffff" d="M743 -40h4q8 2 8 8v8q0 7 -8 7h-4q-7 0 -7 -7v-8q1 -8 7 -8zM728 2h8q7 1 7 8v11q0 5 -11 11q-6 0 -15 -15v-4q0 -5 11 -11zM702 10q15 15 15 30v4q0 19 -11 22h-12q-9 -2 -19 -26q5 -30 27 -30zM675 66h4q6 0 15 15v8q0 5 -11 11q-6 0 -15 -15v-11q1 -8 7 -8zM675 134h4q6 0 15 15v8q0 8 -19 11q-7 -12 -7 -23v-3q1 -8 7 -8zM675 153v8h4v-8h-4zM675 172q14 0 23 30q-4 23 -8 23q4 43 12 71v27l15 26v19l-8 11q67 76 91 76q41 58 41 109q-3 27 -3 31q3 7 3 11h-3q6 26 34 49q26 25 26 68q-15 34 -38 34l-19 -4q-11 0 -30 8q0 15 34 26
q0 9 34 42q0 52 45 52q0 6 27 15q4 0 4 -3l18 3h4l12 -7q0 5 37 34v4q-3 7 -3 11l7 -4v12h-4l-7 -4v7h15v12q-19 26 -42 26v-4l-7 4q-4 0 -4 -4q-15 8 -26 8q-15 -6 -15 -12q0 -3 3 -3q0 -6 -34 -27l15 -22q0 3 4 3v-11l-19 4h-7q-8 0 -8 -15q-29 15 -34 15v-4l-7 4l-19 -4
v4q11 64 64 64q60 13 60 60h-3v8h7v8h-11v7h4q10 0 22 -7l34 3q8 -3 12 -3q0 5 18 18q7 -3 16 -3q0 9 18 22l8 -4h7q0 14 16 31v11q0 14 -4 34q4 7 4 15q-8 1 -8 8l-8 -4h-3q-14 11 -27 11h-11q-9 0 -15 -4q-7 4 -11 4q-36 -49 -42 -49q-7 -4 -11 -4l-23 4q0 -23 -64 -23
l4 -7q-34 -10 -46 -30q-15 0 -34 -23q-26 -19 -49 -19q-7 4 -11 4l-7 -11v-4l3 -8q-94 -15 -94 -60q-38 -28 -38 -34l-56 -19q-27 8 -46 8h-11v-8q10 0 23 -19q0 -23 -68 -49q0 -6 -27 -11v-15q59 0 106 34q33 0 75 64q8 0 27 11l19 -4q28 8 34 8l15 -23l-4 -7q9 -27 15 -27
q1 8 8 8v-8l-4 -7q7 0 7 -8q-173 -45 -200 -71q-3 0 -3 -4l-8 4h-4q-23 -19 -37 -19v-8q0 -9 26 -11v-12q-4 -18 -106 -37l-7 -12l11 -7h4q49 13 49 23v3h4v-7q41 9 41 22q4 0 12 -3q39 7 49 15q82 -12 101 -19v-4l-3 -7h3q20 11 38 11q2 0 15 -4q27 13 27 15q6 -4 19 -4
q-27 -33 -27 -45q-10 -77 -34 -90l-11 -8l4 -8v-11q0 -62 -27 -87l-7 -11q0 -5 19 -15q-23 -33 -23 -45q7 -4 11 -4v-11q-11 -14 -11 -27q23 -11 23 -23t-4 -64q4 -7 4 -11q-8 -15 -8 -42q0 -4 4 -11l-4 -23q2 -22 11 -22zM679 210v7h4v-7h-4zM41 266h4q8 1 8 8v7
q0 6 -12 12l-11 -15q0 -6 11 -12zM38 274v4h7v-4h-7zM611 364q9 8 15 8v4h-11l-4 -8v-4zM230 632q14 0 30 23q0 7 -7 7h-15q-19 -9 -19 -15v-3q0 -6 11 -12zM558 655h4q8 1 8 7h-19q1 -7 7 -7zM1762 655h8q7 1 7 7q0 20 -11 23h-4q-5 0 -11 -11v-8q0 -5 11 -11zM596 685h8
q0 8 -8 8v-8zM751 689v7h4v-7h-4zM611 689h8v4h-8v-4zM1604 730l4 8q0 7 -8 7l-4 -7q1 -8 8 -8zM728 738v7h4v-7h-4zM1641 738l8 11v4h-11q-8 0 -8 -8zM1547 761h8v7q-8 0 -8 -7zM713 776v7h4v-7h-4zM736 779v4h7v-4h-7zM736 795v7h4v-7h-4zM713 813q1 8 8 8h3v-8h-11z
M381 813q34 12 38 12v11h-34q-6 0 -15 -15zM381 821v4h8v-4h-8zM717 832v4h7v-4h-7zM823 836v4h7v-4h-7zM706 847h7v-7q-7 1 -7 7zM728 851v8h8q7 0 7 -8h-15zM834 851v8h4v-8h-4zM834 874v7h4v-7h-4zM287 885q2 11 26 11v8h-38l4 -8v-3h-4v7h-3q-8 0 -8 -7q15 -8 23 -8z
M902 893v7q7 0 7 -7h-7zM947 912v7h4v-7h-4zM370 912h7v7h-7v-7zM792 915v8q8 0 8 -8h-8zM1015 957q1 7 8 7v-7h-8zM1792 972h8v7q0 8 -8 8q-7 0 -7 -8q1 -7 7 -7zM819 991v4h7v-4h-7zM1585 991q5 0 11 11v8q0 5 -11 11h-15q-8 0 -8 -8q0 -5 23 -22zM890 998v8h4v-8h-4z
M1691 995q7 1 7 7v4h-7v-11zM868 1002v8q7 -4 11 -4v-4h-11zM1574 1006v7h3v-7h-3zM1679 1002h4q8 1 8 8h-4q-8 0 -8 -8zM1400 1013h8q7 2 7 8v11q0 8 -7 8h-8q-5 0 -11 -11v-8l15 11l4 -7l-16 -4q2 -8 8 -8zM1777 1013q15 6 15 12v4q0 5 -11 11q-5 0 -11 -11v-12q7 0 7 -4z
M1358 1017h8q0 8 -8 8v-8zM649 1029h7v7q-7 0 -7 -7zM883 1032v8h4v-8h-4zM664 1032q7 4 11 4v8h-3q-8 0 -8 -8v-4zM845 1044v3h8v-3h-8zM589 1047h11l-8 12q4 0 4 4h-7l-19 -4v-8h7l12 8v-12zM600 1051h15v12q-9 -8 -15 -8v-4zM887 1059v7h3v-7h-3zM815 1063v3h8v-3h-8z
M1513 1059q7 4 11 4v11q0 7 -7 7h-4q-7 0 -7 -7v-11q7 0 7 -4zM981 1070v8h4v-8h-4zM932 1078v7h4v-7h-4zM924 1089v4h8v-4h-8zM962 1089v11h4v-11h-4zM1253 1123h7q8 1 8 7v16q0 7 -11 7q-16 -6 -16 -11v-8q0 -5 12 -11zM1192 1138q15 0 27 34q16 0 22 15q-4 19 -11 19h-4
l-26 -8q-9 17 -26 23q-10 0 -27 -38v-7q30 -38 45 -38zM1279 1146h12q5 0 11 11v7q0 6 -15 15h-4q-6 0 -15 -15v-7q0 -6 11 -11zM1547 1157h11l4 19q0 7 -7 7h-4q-8 0 -8 -7h12v-8l-15 8v-12q1 -7 7 -7zM1226 1236h8q20 0 26 15v23q-8 19 -37 19q-16 -6 -16 -27v-11
q0 -5 19 -19zM1298 1255q20 0 26 15v23q-21 16 -22 45q23 0 30 34v4q0 30 -41 30q-19 0 -23 -42q5 0 19 -22l-12 -15v-4q0 -9 4 -15q-7 -14 -7 -34q5 -19 26 -19zM1608 1255h3q0 4 4 11h-7v-11zM1223 1270h3q8 0 8 -7h-4q-7 1 -7 7zM1294 1270q0 4 -3 11v4h3q0 -4 4 -11v-4
h-4zM1313 1278l-7 15h3q0 -12 12 -12v-3h-8zM1015 1278q26 30 26 45q-8 45 -45 45q-49 0 -49 -19q-11 -34 -11 -41q22 -15 56 -23v4l8 -4l7 4q0 -11 8 -11zM1245 1342h4v7h-4v-7zM868 1357h7q6 0 12 11v4q0 6 -15 15h-4q-10 0 -11 -15q5 -15 11 -15zM1053 1357h4q7 1 7 7v4
q0 8 -7 8h-4q-8 0 -8 -8v-4q1 -7 8 -7zM872 1364v8h3v-8h-3zM868 1376v4h7v-4h-7zM1007 1391h4q10 11 15 11v8h-3q-6 0 -16 -15v-4zM1230 1391q15 0 19 30l-15 11h-15q-9 0 -12 -26q16 -15 23 -15zM1034 1395q7 1 7 7h-7v-7zM1147 1440h11q6 0 12 11v12q-6 15 -27 15
q-11 -13 -11 -19q7 -17 15 -19zM1189 1440q41 13 41 23v15q-8 15 -19 15q-12 0 -30 -38v-8q1 -7 8 -7zM1279 1455q19 5 19 26v4q0 6 -15 15h-15q-8 0 -15 -30q17 -15 26 -15zM890 1474h4q6 0 12 11v12q0 5 -12 11h-4q-5 0 -11 -11v-12q0 -5 11 -11zM943 1583q15 4 15 15
q-6 19 -22 19l-8 -11v-11q0 -10 15 -12zM1521 1591h3q8 1 8 7v8q0 8 -8 8h-3q-6 0 -12 -12q0 -5 12 -11zM1011 1602h15v12q0 7 -7 7q-8 0 -8 -7v-12zM973 1610q6 0 16 15l-12 7q-7 0 -7 -11q3 -7 3 -11zM1143 1738h15q19 11 19 26q0 11 -53 34q-45 63 -45 72q0 48 -22 57
h-19q0 53 -31 79q-34 0 -41 -26v-16q0 -16 41 -41q10 -35 65 -102q0 -15 37 -45q0 -16 34 -38zM921 1757h7q6 0 12 11v8q0 6 -16 15h-3q-6 0 -12 -11q3 -23 12 -23zM894 1931q1 7 8 7q-4 7 -4 11h-4q-7 0 -7 -7v-4q1 -7 7 -7z" class="colorcurrentColor svgShape"></path></svg></g></svg>