<svg id="SvgjsSvg1092" width="288" height="288" xmlns="http://www.w3.org/2000/svg" version="1.1" xmlns:xlink="http://www.w3.org/1999/xlink" xmlns:svgjs="http://svgjs.com/svgjs"><defs id="SvgjsDefs1093"></defs><g id="SvgjsG1094"><svg xmlns="http://www.w3.org/2000/svg" viewBox="-10 0 2610 2048" width="288" height="288"><path fill="#ffffff" d="M847 -27h13v9h-13v-9zM1173 156h9v9h-9v-9zM1423 313q15 0 23 45q-4 15 -27 26h-13q0 27 -41 32v-9q0 -5 5 -5l-5 -9q11 -14 32 -80h26zM1374 398v9h14v-5q-5 0 -14 -4zM1316 398q31 0 31 22q-6 31 -17 31h-18q-7 0 -14 -13v-22q0 -7 18 -18zM2085 407h5q0 9 -9 9h-5q2 -9 9 -9zM896 429h9v5h-9v-5zM1263 429h13q22 11 22 40q-8 20 -31 36q-27 -23 -27 -40h5l-5 -9q17 -27 23 -27zM909 447h5v13h-5v-13zM1142 447h4q9 1 9 9v13h-4l-23 -4v-5q0 -6 14 -13zM918 465h9q0 9 -9 9v-9zM1213 505q7 0 23 27v9q0 9 -9 9h-5v-9l-9 4q0 -9 -13 -9
v-18q0 -6 13 -13zM1133 518h22l45 32v13q0 6 -22 18l4 9q-4 13 -9 13l14 50h4q9 -90 31 -90h5q9 38 9 49q-5 0 -23 41q0 41 32 76v4q0 14 -27 27l4 22v18h-22q10 27 13 27q15 -9 27 -9q58 13 58 22q0 16 27 41l-4 9v4h4v-9q12 3 22 22h-4q-18 -8 -27 -8l23 31q-5 0 -5 4h5
q17 -6 17 -13l-9 -14h9q9 5 14 5l-5 22h9l14 -18h4q18 5 40 50q9 -5 14 -5q0 7 31 36h-9v9q20 0 49 22q-3 32 -9 32q33 40 36 89q-18 22 -31 22v5l4 9l9 -5q5 0 5 5l9 -5h9q4 0 4 5l9 -5q7 0 18 18h4v9q0 9 9 45l-13 -9q0 9 -18 27l-9 -5h-4v5q18 15 18 31v13q13 0 13 9v5
h-4q-21 -10 -23 -27h-9v22h9v5q-18 1 -18 9l-9 -5l-22 5q0 -18 -27 -18q0 6 14 13l-5 9v5h5l8 -5l5 9q-18 0 -18 27l9 -5h4q9 2 9 9q0 8 -22 32l-9 -5h-13v14h-5q0 -14 -4 -14l4 -9v-4h-4q-18 23 -18 27h-5q-20 -18 -31 -18v9h-13l-9 -5l4 -9v-4h-4v9q-7 0 -14 -14l5 -9
q-5 0 -14 -4v4l5 9l-14 9h-4q0 -18 -9 -18q0 9 -4 9q4 9 4 14l-4 9q4 8 4 13q-14 -9 -22 -9v-4l13 -18v-14l-4 -9h9q-5 -7 -5 -17h-9v4q5 9 5 13h-9q0 -13 -9 -13l4 -31q-21 -22 -49 -27q-9 4 -13 4q-36 -12 -36 -40h-5q-10 11 -62 27l4 9l-9 4q0 -22 -13 -22q-9 5 -13 5
q-30 -9 -41 -9h-4q-9 1 -9 9v44l-9 14h9v-9q6 0 13 13l-4 9q9 1 9 9l22 -4h14v8h-5q-4 0 -4 -4l-18 9l-18 -9v18q18 0 18 9q-34 49 -54 49q0 -9 -9 -9q-6 0 -31 27l-23 -5v-4q14 -17 23 -45l-36 -53q-4 -18 -4 -32l22 -71h4v-5q0 -9 -9 -9q0 23 -35 23l-9 -14q18 -22 18 -27
q-12 0 -63 -22l-80 9v-4l4 -9q-4 0 -4 -5l35 -9q8 5 18 5q49 -10 49 -23q-6 0 -13 -13v-31l4 -23q-13 0 -13 -9v-4q25 0 45 -54l-27 -71h-5q-23 23 -49 27q0 15 -22 22q-14 -21 -14 -27q-23 22 -40 22h-22q-31 -18 -31 -53q0 -14 44 -81q-4 -8 -4 -13q7 -18 13 -18h5
q18 9 18 22q-5 9 -5 14l14 9h8v-9h23q66 -76 89 -76q0 4 5 4q1 -9 9 -9q9 0 13 36h9q0 -9 4 -9q-4 -9 -4 -13t4 -36l-8 -5q-23 23 -54 23q-36 -3 -36 -9q-27 9 -36 9q-44 -15 -44 -72q12 0 98 -67h9l9 5q1 -9 9 -9q11 0 45 53q9 41 17 41h5l-5 -32v-18q18 -16 18 -26h5l13 9
h5q9 0 9 -9q-23 -24 -23 -41v-9l18 -22l22 5h5l-5 -23l14 -9h9q13 5 13 27q0 13 -22 13q0 8 22 54h5l13 -9l23 36q6 0 13 -13v-41h-5l-8 5q0 -5 -5 -5l9 -27q-13 -16 -18 -67q19 -18 36 -18zM941 523h13q6 0 13 13q0 36 -26 36l-9 -13v-27q1 -9 9 -9zM1012 527v9h-9
q2 -9 9 -9zM140 545q58 22 58 72q-12 31 -31 40h-13q-47 0 -54 -58q0 -39 40 -54zM869 572h5q7 0 17 18q-6 18 -13 18h-18q-9 0 -9 -13q9 -21 18 -23zM1526 599h5v9q-9 11 -9 18h-14v-5q12 -22 18 -22zM1151 608v4h9v-4h-9zM1218 608v9h4v-9h-4zM1495 630h4q23 0 23 9
q-9 21 -18 23q-9 -15 -9 -27v-5zM1370 666l4 9l-9 4q-9 0 -9 -8q5 0 14 -5zM1280 679h5q9 2 9 9v5q0 6 -14 13q-9 0 -9 -9v-9q2 -9 9 -9zM1106 688v9h5v-9h-5zM310 693q42 21 76 76q0 21 63 31q24 36 58 63q0 34 13 44h-4q0 4 18 50v13h-14l-9 -4q-32 35 -58 35
q-120 -14 -120 -111q-9 0 -9 -14q9 -14 9 -27v-4q0 -19 -45 -67q4 -14 9 -14l-5 -9v-44q0 -7 18 -18zM1057 751l9 18q-2 13 -23 31v14l5 26q-9 17 -9 36l13 9q0 -7 18 -18q20 23 23 23h31v-18l-9 -14h18v-4q7 0 13 27q18 -5 18 -27v-5q-24 -67 -40 -71v13h-13v-4q0 -4 4 -27
l-18 -22v-9l5 -32q-19 22 -36 32q0 11 -9 22zM1397 706h4q7 0 14 14v13q0 10 -23 14q-13 -18 -13 -27zM668 724h22q27 16 27 49q-16 14 -31 14h-9q-8 0 -27 -32v-13q0 -7 18 -18zM1276 724h9q6 0 13 14l-13 9l-9 -14v-9zM1535 729q9 1 9 9v4q0 6 -13 13h-9v-13q0 -6 13 -13z
M976 751v4h9v-4h-9zM1191 764l9 5v-14q-9 2 -9 9zM1611 764h5q0 9 -9 9h-5q2 -9 9 -9zM766 782h18q7 0 14 14v13q0 7 -18 18h-18l-5 -31v-5q2 -9 9 -9zM1093 782q9 2 9 9h-9v-9zM1553 814h5v4l-18 5q0 -9 13 -9zM1334 823q9 1 9 8q-9 11 -9 18q-9 0 -9 -9v-9q2 -8 9 -8z
M1531 827h4v13h-13v-4q1 -9 9 -9zM976 836v9q9 0 9 -9h-9zM1276 836v9h4v-9h-4zM596 836h5v22h-5q-9 0 -9 -9v-4q2 -9 9 -9zM990 840v5h9v-5h-9zM1008 858v14h4q9 0 9 -9l-9 -5h-4zM1254 894v5h9q0 -5 4 -14h-4q-9 2 -9 9zM704 890h4q9 1 9 9l-9 4h-4q-9 0 -9 -9zM1365 894
h9v5h-9v-5zM1526 907h5v14l-9 4h-5v-9q9 0 9 -9zM583 916h18q31 21 31 54q-12 36 -40 36h-18q-31 -20 -31 -54q11 -36 40 -36zM1245 934v9h9l4 -22q-6 0 -13 13zM1187 925q-8 30 -41 54q-9 36 -9 45t27 18q0 4 -4 4q4 9 4 14h9q46 -18 54 -32l-9 -13v-5h4q5 0 14 18l9 -4
q7 4 18 4v9l-23 9v5q5 0 14 4v-4q43 0 53 40q37 37 76 53l-4 9v5h4v-9q27 12 27 31h9v-18q-13 0 -13 -9v-4h9v-18l-23 -4q2 -9 9 -9l9 4q20 -9 22 -18q-4 -8 -4 -13q9 0 9 -9v-5q-18 3 -18 32h-9l-9 -5l5 -9v-9q-15 -9 -27 -9v5h-14q0 -7 -9 -14l-9 5l-17 -5h-5v5q14 0 14 9
h-5q-22 0 -36 -36q-9 0 -9 -9l-9 5q-22 -13 -22 -41h9l-4 -9v-4l8 4q0 -17 9 -17q2 9 9 9l23 -23q-23 0 -32 -18l-9 5h-4v-5l4 -9h-8q0 18 -23 18q0 18 23 18q0 7 -14 14q-10 -23 -22 -23v-9q13 0 13 -9v-9l-31 27h-5l9 -18q0 -12 -26 -18zM1303 925q14 13 27 45h4v-4
q-4 -9 -4 -14q4 0 4 -4q-9 0 -9 -23h-4q-5 0 -5 5l-9 -5h-4zM1298 934v14h5v-14h-5zM1388 943v9h4v-9h-4zM659 957h9q13 4 13 27l-18 13h-4q-7 0 -18 -18q9 -20 18 -22zM1254 957h9v4h-9v-4zM1401 970v5h9v-5h-9zM1428 970v9l18 5v-9q-10 0 -18 -5zM1209 970h9v9l9 -4v17
l-23 -8q5 -9 5 -14zM1316 975v9h5v-9h-5zM1352 979v9h4v-9h-4zM878 984l4 8v5h-13q5 13 9 13q-4 8 -4 23h-14q-9 0 -9 -9v-14q-4 0 -4 -4q6 -22 31 -22zM1231 984h9v8h-9v-8zM1289 988v9h5v-9h-5zM1325 988v4h9v-4h-9zM1365 988v9h5v-9h-5zM1298 992v9h5v-9h-5zM1209 997h9
v4h-9v-4zM1361 1010h9v-9q-9 2 -9 9zM887 1001h9v9h-9v-9zM1231 1006h14v9h-14v-9zM1294 1010v9h9q0 -9 -9 -9zM1289 1028v5h9v-5h-9zM1795 1024h9q0 9 8 9v9q-17 -7 -17 -14v-4zM1325 1033v9h9v-9h-9zM1222 1042l-4 9h4q9 -5 14 -5v-4h-14zM1258 1042h9v9h-9v-9zM1334 1051
v9h5v-9h-5zM1830 1073l5 9v4h-18v-9q5 0 13 -4zM1187 1082q0 6 13 13v-13h-13zM757 1091h9v4h-9v-4zM1468 1118v9h5v-9h-5zM1786 1113h9q0 15 4 23l-9 4l-9 -4q5 -8 5 -23zM1432 1153q0 5 -4 14h18q0 -7 -14 -14zM1446 1153v5h9v-5h-9zM1388 1158v9h4v-9h-4zM1410 1185v9
l31 9v-14h-22v-4h-9zM793 1189q-7 18 -13 18h-5v-18h18zM1553 1194v18h5q0 -11 4 -18h-9zM1406 1198l-5 9q31 25 31 36h5q0 -18 18 -18v-13h-9q0 8 -5 8zM1450 1198v9h9v-9h-9zM1383 1207v5h9v-5h-9zM1567 1220v9h4v-9h-4zM1227 1229v5h9v-5h-9zM1406 1234v4h13v-4h-13z
M1499 1238v5h14v-5h-14zM1459 1243v4h9v-4h-9zM1218 1247v9h4v-9h-4zM1526 1247l-4 9q4 9 4 14h-4q4 7 4 18l9 -5l-4 -9l13 -22zM1383 1252v4q5 9 5 14h4v-18h-9zM1432 1261v9q9 0 9 13h5q0 -7 9 -18l-9 -4h-14zM1401 1274v14h5v-14h-5zM1544 1279v9h5v-9h-5zM1602 1288h5
q13 0 13 17l9 -4l5 9h-14q0 15 14 31h-5q-7 0 -22 -27v-4l9 -14h-14v-8zM1522 1310v9h4v-9h-4zM1441 1314v9h9q0 -9 -9 -9zM1683 1314h4v9h-4v-9zM1325 1323q0 5 -4 14v4h4q0 -5 5 -13v-5h-5zM1361 1328q1 9 9 9v-9h-9zM1343 1332v9h4v-9h-4zM1450 1332v9q9 0 9 -9h-9z
M1647 1332h5v9h-5v-9zM1356 1341v9h14v-9h-14zM1392 1350h9v-9q-9 2 -9 9zM1455 1346v9q5 0 13 4l5 -18q-8 5 -18 5zM1330 1346v4q4 0 13 5v-9h-13zM1745 1350h9v9h-9v-9zM1392 1359v9l14 9v-9q-9 0 -9 -9h-5zM1410 1359v9h5v-9h-5zM1450 1372h14v-8h-5q-9 1 -9 8z
M1571 1359h5v9h-5v-9zM1356 1368v4h14v-4h-14zM1723 1364h5v8h-5v-8zM1477 1372v9h5v-9h-5zM1397 1386v4h9v-4h-9zM1513 1381h9v9h-9v-9zM1231 1386h9v4h-9v-4zM1473 1395v4h9v-4h-9zM1034 1413q5 8 5 18q9 0 9 -9q-5 -9 -5 -14zM2497 1404h4q9 1 9 9q-18 16 -18 27h-22
q-7 0 -14 -14q23 -22 41 -22zM1482 1422h9v4h-9v-4zM1419 1435h9v9q-9 0 -9 -9zM958 1475h9v5h-9v-5zM976 1475h9v9h-9v-9zM1401 1502h18q9 2 9 9q0 6 -27 14l-4 8l4 9q-13 22 -13 41h-9l-27 -50v-4q35 -13 49 -27zM1522 1507h18v9q0 9 -9 9h-5v-9l-9 4h-4v-4q1 -9 9 -9z
M1499 1516h9v4h-9v-4zM1517 1525h9v8h-9v-8zM1611 1551q9 2 9 9v5h-9v-14zM1535 1569h9v18q-9 0 -9 -9v-9zM1607 1578h9v5h-9v-5zM1669 1721h5q6 0 13 14v4q0 7 -18 14l-17 -9q8 -21 17 -23zM2049 1757h5v9h-5v-9zM2398 1806h9q0 7 9 18v5q0 9 -9 9l-9 -14v-18z" class="colorcurrentColor svgShape"></path></svg></g></svg>