<svg id="SvgjsSvg1082" width="288" height="288" xmlns="http://www.w3.org/2000/svg" version="1.1" xmlns:xlink="http://www.w3.org/1999/xlink" xmlns:svgjs="http://svgjs.com/svgjs"><defs id="SvgjsDefs1083"></defs><g id="SvgjsG1084"><svg xmlns="http://www.w3.org/2000/svg" viewBox="-10 0 1710 2048" width="288" height="288"><path fill="#ffffff" d="M203 -14h6v7h-6v-7zM1499 -14l6 3l-28 47v3h-9v-3q13 -19 25 -50h6zM1462 43h9v6h-9v-6zM394 52h3q6 1 6 6q-3 6 -3 10q6 1 6 6v12h-6q0 -12 -6 -34zM1462 52l3 6q-9 16 -13 16h-3q7 -22 13 -22zM544 65h6v6q-6 0 -6 -6zM278 68q6 1 6 6h-6v-6zM128 74h6v6q-6 0 -6 -6zM582 121h3v6h-3v-6zM456 371h7v7h-7v-7zM409 396q19 4 19 10v9q-3 10 -19 10l-9 -13v-6q0 -5 9 -10zM1167 403h3v9h-6l3 16q-6 7 -6 12q-6 0 -6 -6l6 -9l-3 -7q4 -15 9 -15zM1346 468q0 4 3 4q-3 6 -3 9q-7 0 -7 -6q1 -7 7 -7zM848 472h6q0 6 6 6v12h-3q-6 0 -9 -18z
M1521 475q5 0 13 12v3q0 5 -16 16h-10q-4 0 -9 -9v-10q5 -12 22 -12zM1364 478h4q6 0 6 9v3h-3v-6h-7v6h7v7h-7q-6 0 -6 -7v-6q1 -6 6 -6zM867 497l3 6v3h-3q-7 0 -7 -6zM895 528h6v3h-6v-3zM503 531h4q0 8 12 22v13q-25 -15 -25 -19v-7q0 -4 9 -9zM889 553h3l3 38v9h-3
q-7 0 -7 -6l4 -7q-7 -26 -7 -31zM657 556q6 3 9 3v7h-3q-6 0 -6 -7v-3zM1108 559h6l-3 16q0 3 3 9q-7 22 -13 22h-3l-15 -12h-19q-18 13 -53 78q-5 0 -10 9v7q3 11 25 15v7l-3 6q13 12 25 12h22q19 0 19 -12h6l3 15q-4 0 -18 29q-6 3 -16 3v12l3 7l16 -4q4 0 9 10v6
q0 16 -9 19h-10q-12 -7 -12 -16h-10q-11 6 -15 19q4 0 9 9q-2 0 -9 10l9 19l-3 6q4 0 9 9l-6 10q5 0 13 12v13l-4 6l7 3q9 0 9 -19q6 0 19 7l-3 6q2 12 6 12l6 -3q13 3 13 19q-3 0 -3 3l6 3l3 -6v-16h9l-3 7v9q12 -9 22 -9h3v3l-6 9v3l63 -9l3 6q-9 0 -9 3l-7 -3l-6 3
q3 6 3 13h6l4 -13q6 0 9 19h-6v-6q-7 1 -7 6l4 6l-7 3h-9l-19 -15v9h-16v-6h-3q-6 1 -6 6q6 1 6 6q-3 7 -3 10h-3q0 -3 -6 -16h-3q0 13 -10 13q-8 -13 -15 -13v-6l3 -16h-7v-6l4 -6l-7 -3h-3q0 12 -6 12v3q0 3 3 3l-3 7v6h6l-3 -6q0 -5 9 -10v3q0 41 -28 41q-26 0 -28 3
q-42 -12 -53 -19h-6v4q0 4 18 15l-3 6v4l7 -4q25 16 34 16v6q0 19 -19 41q16 44 38 44q3 6 3 9h12q8 0 29 7v12q0 11 9 22l-3 6l3 7q-11 47 -47 47h-6l-7 -4l-3 22h-6q0 -22 -9 -22l-16 4q-6 -11 -6 -19q6 0 6 -7v-15q-9 0 -9 -6h3q0 -42 -35 -69q-17 -22 -37 -22
q0 25 -22 37v7q8 0 15 15q-2 32 -18 32l-16 -7v3l25 38q9 0 9 3l7 -3h3v3q-12 38 -19 38l-9 -13v-9q0 -3 3 -3q-10 -19 -10 -22h-6q0 8 -19 34v10h-6q0 -10 -9 -10l-13 6l3 7v3h-6q0 -6 -6 -6v-13h3l6 3v-15h-3q0 9 -6 9h-10q-6 0 -6 -6q-6 3 -9 3q12 10 12 22l10 6
q1 -6 6 -6q0 3 3 3q-4 15 -9 15h-13l-53 -25l-9 7l-7 -10q7 0 7 -6q-16 0 -16 -3l-6 3q-13 -6 -13 -16l-9 7h-7q-9 -3 -9 -19l-9 6l-3 -6q0 -3 3 -3q0 -3 -3 -3q0 -6 6 -22q-6 0 -25 -13h-3v-6h3l6 3v-6l-16 3l-3 -6v-3q0 -7 13 -7q-4 -19 -28 -19v7l6 -3h3l3 15l-16 3v4
q0 4 13 12q-3 5 -3 16q-11 -16 -38 -16q0 5 -9 9h-3q0 -6 -7 -6q9 -12 16 -12v-7l-6 -9v-6l9 -13l-3 -15h-3q-6 0 -6 9h-3q-5 0 -13 -13q1 -6 6 -6q0 -9 -12 -9v-6l9 -13q0 -4 -22 -25v-9q1 -7 7 -7q-7 -14 -13 -15q-3 9 -6 9q6 10 6 19v44l3 6h-6v-6h-3v28l12 3v9
q-13 3 -56 132q6 10 6 19l-19 12q-4 0 -9 -9v-7q12 0 38 -109q-7 0 -13 -28q31 -23 31 -25v-38q0 -3 4 -3l-4 -6q0 -3 4 -3l-4 -7q4 -5 4 -12q-17 0 -19 -22q-16 12 -25 12l3 7v9q0 3 -3 3l3 6q0 4 -16 16l-12 -9h-7l-9 6l-16 -6q0 8 -22 25h-6q-5 0 -12 -13v-9l3 -16l-10 6
l-6 -9l9 -19l-12 -3q0 6 -6 6h-7v-6q2 0 13 -3v-3q-16 0 -16 -13q32 -16 32 -28q-10 -2 -10 -25v-9l6 -10v-6q0 -2 -15 -16l-66 13q20 -13 22 -25q-5 0 -13 -13q5 0 16 -15v-10q-7 0 -12 -3q5 -15 15 -15v-7q0 -15 -9 -15v-7q69 -11 69 -22l-7 -21q27 -26 44 -26q6 4 10 4
q0 -19 28 -19l28 3q35 -13 47 -31q8 0 25 22q0 -5 31 -29q-22 -5 -22 -15q11 -7 16 -7q0 4 3 4v-4l-3 -15h-3l-3 12h-3v-6l3 -6l-10 -16v-9q7 0 7 12h3l6 -3l3 19h3q0 -5 7 -13q-13 -6 -13 -18l6 3v-3q4 3 16 3q16 -13 16 -25h3l3 18h3q0 -9 6 -9v-3q0 -6 -6 -6l3 -16v-3
q-6 1 -6 6q-6 -3 -9 -3v-3q15 0 15 -9h10v28l-4 6q10 0 10 6v3h-3l-7 -3v3q0 22 22 22q6 -3 10 -3q9 15 9 25h10q22 6 25 6q12 -4 12 -15h3q14 12 16 12h9l7 10q18 -13 28 -13h3q6 0 12 19q-6 1 -6 6v7h6v6q-6 0 -21 -6q0 9 -13 9v6q7 0 13 3q0 -4 9 -9h6l10 6l12 -9h16
q3 0 3 3q32 -4 47 -16l19 10q37 -6 37 -16v-3q0 -5 -12 -13h-7l-9 7h-16q-6 0 -15 -25q-6 -4 -10 -4q1 -6 7 -6l12 10q16 -4 16 -26h6q0 9 38 32l15 -3h3l7 3q0 -6 15 -6v-4h-6v-3q11 -11 16 -40q14 -13 28 -13q19 13 25 13q19 -26 19 -32zM741 575h10q12 6 12 16h7l12 -13
h3q25 30 25 38h-3l3 6q0 17 -12 22h-19q-5 0 -22 -25l3 -7v-9q-19 -20 -19 -22v-6zM328 578h3v9h-3v-9zM337 584h7v7q-7 0 -7 -7zM90 587h6v4h-6v-4zM96 591h7v3h-7v-3zM115 591h3v6h-9q1 -6 6 -6zM1418 597q6 1 6 6v3q0 6 -6 6h-10v-6q0 -4 10 -9zM597 600h7v6h-7v-6z
M895 603q6 1 6 6h-6v-6zM610 606h6v3h-6v-3zM641 619v3h6v-3h-6zM660 619v6h6v-6h-6zM325 625h6q6 1 6 6v16q0 6 -6 6h-6q-5 0 -9 -9v-10q0 -4 9 -9zM635 628v13h3q0 -7 3 -13h-6zM647 628v13h4v-13h-4zM325 638v6h3v-6h-3zM629 641v6h3v-6h-3zM635 647v3q0 5 9 9v-3
q0 -4 -9 -9zM970 647v3q3 0 9 3v-6h-9zM945 653v3h6v-3h-6zM1527 675q7 1 7 6v10h-10q-6 0 -6 -6q0 -5 9 -10zM1411 678h10v3q0 7 -6 7l-4 -7v-3zM1355 691h6v3q0 6 -6 6t-6 -6zM1280 703h3q6 1 6 7h-3q-6 0 -6 -7zM989 710v3h6v-3h-6zM1311 719q6 0 6 9q-3 6 -3 10h-3
q-6 0 -6 -7v-6q1 -6 6 -6zM629 728q0 7 -10 7q1 6 7 6h9v-6q0 -7 -6 -7zM1086 728v7h3v-7h-3zM647 735q1 6 7 6v-6h-7zM566 738v6h3q6 0 6 -6h-9zM1067 738v6l13 3v-3q0 -6 -7 -6h-6zM187 738l31 3l16 -3l10 12h-13v-6l-16 3h-25q-6 0 -6 -6q3 0 3 -3zM604 747q9 0 9 6h3v-3
q-3 -6 -3 -9h-3q-6 1 -6 6zM582 750v7q6 0 6 -7v-6q-6 1 -6 6zM1042 744v13q1 6 6 6h6q-4 -19 -9 -19h-3zM635 747v6h3v-6h-3zM1343 744h12q6 1 6 6v3q0 5 -12 13q-6 0 -6 -6v-16zM619 750v3h7v-3h-7zM594 753q1 7 6 7v-7h-6zM557 763h6v-6q-6 0 -6 6zM607 757v3h6v-3h-6z
M566 760v6h3v-6h-3zM579 778v7h3l6 -3q0 3 3 9q6 -3 9 -3v-3h-6v-10q25 -2 25 -9h-12q-9 0 -28 12zM626 769v6h3v-6h-3zM1039 769v3h6v-3h-6zM1530 775h7q6 1 6 7v6q0 6 -6 6h-10q-6 0 -6 -6q5 -13 9 -13zM1343 778h3q6 1 6 7v3q0 6 -6 6q-5 0 -10 -9q1 -7 7 -7zM613 785v3
h6v-3h-6zM629 785v6h3v-6h-3zM1076 794h10v-6h-3q-7 1 -7 6zM309 797l16 3v7l-16 3q-6 0 -6 -7q1 -6 6 -6zM945 803v4h6v-4h-6zM914 813v6h3v-6h-3zM1339 813h4q4 0 9 9v7q0 9 -31 9v-6q0 -3 18 -19zM1001 825v7h3v-7h-3zM1339 825v4h7v-4h-7zM1233 832q5 0 12 12h-3
q-4 0 -9 -9v-3zM1302 832h3l6 3q-4 12 -9 12q-6 0 -6 -6v-3q1 -6 6 -6zM1562 835h6q4 0 9 9q0 5 -9 10h-3q-5 0 -10 -10v-3q1 -6 7 -6zM381 844l-3 22l6 -3q0 3 4 3l6 -9q0 -5 -13 -13zM1120 841h3q7 1 7 6h-10v-6zM1114 850h12v10h-6q0 -6 -6 -6v-4zM1114 854v9h-6v-3
q1 -6 6 -6zM1311 857q19 2 19 9v10q0 8 -22 12q-6 -10 -6 -19v-3q0 -4 9 -9zM1214 860q13 5 13 9v7q0 6 -7 6h-6q-4 0 -9 -10q4 -12 9 -12zM350 866v13h6l-3 -7l3 -6h-6zM1117 863q6 3 9 3l-3 16h-6q0 -3 3 -3q-3 -4 -3 -16zM1039 872q0 4 -3 10h6v-10h-3zM406 879v6h3v-6
h-3zM1386 876h4q4 0 9 9q0 4 -9 9q-5 0 -10 -9v-3q1 -6 6 -6zM1455 876q7 0 7 6v6q0 6 -7 6q-6 0 -6 -6v-6q1 -6 6 -6zM1386 882v6q7 0 7 -6h-7zM1249 885h3v9h-3q-7 0 -7 -6zM350 891q1 6 6 6v-6h-6zM1045 904h6v-7q-6 1 -6 7zM281 910h3v6h-3v-6zM1314 910h3q5 0 10 9
q-5 13 -10 13q-12 -5 -12 -10v-3q0 -4 9 -9zM970 916v3h6v-3h-6zM1073 916v3h7v-3h-7zM1311 916q1 6 6 6h4v-6h-10zM1621 913h10v3l-4 6q6 4 13 4v6q0 4 -9 9q-10 0 -10 -19h-3v10h-6q2 -19 9 -19zM1480 916h7v3h-7v-3zM1086 926q0 9 -6 9v3h6l6 -12h-6zM237 932q0 3 3 9h-3
q-6 0 -6 -6zM256 932h3v3q0 6 -6 6h-3v-3q1 -6 6 -6zM469 935v3h6v-3h-6zM1070 938v3h6v-3h-6zM1117 941v7h3v-7h-3zM1126 944v13l-6 -3v9q6 0 6 -6l7 3h3v-9l6 3h6v-6q-9 0 -9 -4l-6 4zM1080 951v3h6v-3h-6zM1177 951q0 3 -4 9q8 0 13 3v-6q0 -6 -6 -6h-3zM629 960v6h3v-6
h-3zM1076 963v6h4q6 0 6 -6h-10zM613 966v3h6v-3h-6zM973 973v3h6v-3h-6zM1070 973v3h6v-3h-6zM431 985v6h10q0 -10 3 -15h-3q-5 0 -10 9zM1105 973v6h-7q1 -6 7 -6zM538 979v3h6v-3h-6zM1123 976h7v9h-7l3 -6q-3 0 -3 -3zM93 979h3q-3 6 -3 9h-6v-3q1 -6 6 -6zM103 979h6v6
h-6v-6zM460 982v3h6v-3h-6zM1233 979h6v3h-6v-3zM281 988q16 4 16 10v3q-31 12 -35 12l-6 -3q-5 3 -12 3l-4 -6q11 -10 41 -19zM1462 991h6v7q-6 0 -6 -7zM400 998v6h6v-6h-6zM516 1001v6h6v-6h-6zM547 1001v9h3q0 -3 4 -9h-7zM961 1004v6h3v-6h-3zM1173 1007h7v6h-7v-6z
M1020 1016v7h3v-7h-3zM1036 1016q0 4 -3 10h6v-10h-3zM1173 1013q4 6 4 10l6 -3q0 6 6 6v6h-3l-16 -9q0 3 -3 3v-6q1 -7 6 -7zM1418 1013h3v7h-3v-7zM829 1045q-6 -4 -9 -4v7q2 19 9 19h6q51 -14 54 -22v-4q0 -4 -19 -15h-7q-22 19 -34 19zM1026 1029v6h7q0 -6 -7 -6z
M1120 1026q0 6 19 6q0 11 3 28q0 13 -34 25q-19 -6 -19 -34v-6q11 -19 31 -19zM1117 1048v9q1 6 6 6h7v-6q-7 -8 -7 -16q-6 1 -6 7zM863 1041h7v10q-7 0 -7 -6v-4zM1095 1054q1 6 6 6v-6h-6zM46 1085h7q6 1 6 7v3q0 5 -13 12q-6 0 -6 -6v-9q1 -7 6 -7zM961 1092h3q6 1 6 6v3
q0 6 -6 6h-3v-15zM644 1098v3h10v-3h-10zM870 1098q0 3 -22 15q3 16 6 16q6 -3 9 -3l4 6v7l-7 9q10 0 10 9q-3 6 -3 10q3 0 3 3q-3 0 -3 3h6l9 -6h3v6q7 0 7 -6q-7 0 -7 -7l-6 4v-4l3 -6l-12 -3v-6q14 0 22 -6q-10 -41 -22 -41zM312 1098h7v6h-7v-6zM1549 1098l3 6v9
q-6 13 -9 13l3 6q0 7 -6 7h-10q-12 -7 -12 -16q5 -13 9 -13h16q0 -12 6 -12zM647 1104v6h4v-6h-4zM472 1107q3 6 3 10q12 -10 22 -10h3v10q0 10 -40 18h-7q0 -14 19 -28zM626 1117v3h3q6 0 6 -7v-3h-3q-6 1 -6 7zM1537 1120v6h3v-6h-3zM463 1129h6v-6q-6 1 -6 6zM638 1123
q0 9 -9 9v3h6q0 -6 9 -6q0 -6 -6 -6zM691 1145v3h7v-3h-7zM644 1148v3h7v-3h-7zM1023 1151q1 6 6 6v-6h-6zM638 1167h16v6l-16 3v-9zM967 1167h3v6q-6 0 -6 6h-7v-3q0 -4 10 -9zM691 1170q7 1 7 6v6q-7 0 -7 -6v-6zM879 1176v9h16q0 -7 -16 -9zM854 1179v6h3v-6h-3z
M1026 1182v7h3v-7h-3zM842 1198q3 6 3 9h6l-3 -6l6 -3h6q0 19 7 19v-3q-4 0 -4 -3q7 0 7 -7q-7 0 -7 -6h4l6 3q0 -3 3 -3q-5 -13 -9 -13q-10 8 -25 13zM835 1195h3q7 0 7 -6h-3q-7 1 -7 6zM957 1185h7v4l-3 6q-7 -3 -10 -3q1 -7 6 -7zM632 1189h6v6q-6 0 -6 -6zM1537 1189
q6 1 6 6h-6v-6zM729 1195v6h6v-6h-6zM1534 1198v6h-7q1 -6 7 -6zM879 1204v16h3l3 -16h-6zM748 1211v3h6v-3h-6zM685 1211h6q7 1 7 6q-4 0 -4 3q-6 -3 -9 -3v-6zM801 1220v6q6 0 6 -6h-6zM810 1220v12h7q-4 -5 -4 -12h-3zM951 1217h6v3h-6v-3zM1252 1223h6q6 1 6 6v7
q0 4 -9 9h-3q-7 0 -7 -6v-10q1 -6 7 -6zM716 1226h3q7 1 7 6q0 7 -7 7l-3 -7v-6zM823 1229v10q6 0 6 -7zM989 1229h3q6 1 6 7v6h-3l-31 3v19h-7v-28l22 3q0 -5 10 -10zM1014 1229h3v13h-6v-3q3 -6 3 -10zM1252 1232v7h3v-7h-3zM660 1236h3v6h-3v-6zM813 1239v3h7v-3h-7z
M682 1239q6 1 6 6h-6v-6zM823 1242v6h3v-6h-3zM1008 1242l6 9v3h-6q-7 0 -7 -6q1 -6 7 -6zM663 1251h6q-6 11 -6 19q6 3 13 3v6h-4l-6 -3q0 7 -6 7q0 9 9 9v19h-6l6 9l-9 6l-13 -6v6l4 7h-13q-3 0 -3 -3q-19 3 -19 18h-6l-6 -3l-4 6q4 6 4 10l-7 3q2 8 16 16q7 0 13 -4
q21 4 21 7l7 -3q6 1 6 6l6 -3l16 9q16 -12 19 -12v6l6 -3h3v9h-6v6l15 -3l-3 7v15q13 0 16 19l6 -3v3l-3 6h13q1 -6 6 -6h3q0 6 9 6v3l-12 3v13h6q0 -9 6 -9q0 3 13 18q-3 6 -3 10l6 -3q10 3 19 31q3 0 3 3h-3q0 39 94 63q31 6 31 15q0 4 -3 4l3 6v3l-3 31h16q4 0 22 25
q0 3 -22 19h-16q-14 -21 -50 -25q-6 -8 -6 -13h-10q0 10 -6 10l-16 -3v-7h7q0 -6 -7 -6v6q-6 0 -6 -6q8 -19 19 -19q0 -8 -31 -31v-3l3 -6h-7l-31 3q-25 -3 -25 -10q3 -6 3 -9q-6 0 -25 -22h-6q6 -23 6 -28l-6 -3v12h-10q-31 -13 -31 -25q-3 0 -19 -12h-3l3 15
q-38 -31 -94 -31v-19q0 -12 -37 -53q-16 -29 -16 -34q0 -44 44 -60l19 -3v3q24 -4 34 -25q12 0 16 -16l16 4h6q6 0 6 -10zM1023 1254v7h-6q1 -7 6 -7zM641 1267q0 3 3 3l-6 13h3q1 -7 6 -7q1 7 7 7q0 -4 3 -4q-3 -5 -3 -12h-13zM666 1264h10v3h-10v-3zM989 1273h3q0 13 6 13
v6h-6q-5 0 -10 -9q7 0 7 -10zM998 1276h3v10h-3v-10zM1020 1276h13v13q-6 -3 -13 -3v-10zM641 1289v6h3v-6h-3zM654 1292v9h3v-9h-3zM676 1295q12 5 12 9v4h-6q-6 0 -6 -7v-6zM723 1402q6 1 6 6v3h-6v-9zM641 1408v6h3v-6h-3zM594 1423v7h3v-7h-3zM732 1420h6v7h-6v-7z
M644 1427v6h3v-6h-3zM619 1430q3 6 3 9h4v-9h-7zM766 1433h7v3h-7v-3zM510 1436q6 0 6 9h3v-9h9q7 1 7 6l-16 13h-3q-5 0 -13 -13q1 -6 7 -6zM694 1445q4 6 4 10h3v-10h-7zM726 1445v7h3v-7h-3zM732 1448v4h6v-4h-6zM745 1448v13h3v-13h-3zM594 1452v3h6v-3h-6zM626 1452v6
h6v-6h-6zM735 1467l-3 7l9 6v-6q0 -7 -6 -7zM770 1467v7h3v-7h-3zM676 1470v7h3v-7h-3zM716 1480v6h3v-6h-3zM732 1486v6h6q0 -6 -6 -6zM785 1495v7h3v-7h-3zM766 1511h10v-6h-3q-7 1 -7 6zM785 1508q3 6 3 9h3l4 -12q-6 3 -10 3zM1033 1511q4 0 9 10q0 6 -6 6h-3
q-7 0 -7 -6v-4q1 -6 7 -6zM760 1524v6h3v-6h-3zM785 1530v3h3q5 0 10 -9h-7q-6 1 -6 6zM738 1527v6h3v-6h-3zM679 1527h6v3q0 6 -6 6v-9zM691 1527q7 1 7 6l-7 3v-9zM754 1542q1 7 6 7h3q0 -7 -6 -7h-3zM685 1546h3q6 1 6 6v3h-3q-6 0 -6 -6v-3zM823 1552v6h3v-6h-3z
M791 1558v3q1 6 7 6v-3q0 -6 -7 -6zM776 1567h6v-6q-6 1 -6 6zM694 1564q6 3 10 3v7h-3q-7 0 -7 -7v-3zM838 1574v6h4v-6h-4zM59 1580h6l6 3q-4 13 -9 13h-3q-6 0 -6 -7v-3q1 -6 6 -6zM735 1580h6q9 0 13 25l28 -12q20 6 22 15v16l-34 25l-16 -6q6 -16 6 -22q-6 0 -6 -13h-3
q-8 6 -10 6h-9q-13 -5 -13 -21l7 -4q1 7 6 7q0 -4 3 -10h-6q1 -6 6 -6zM738 1596q0 3 -3 9l6 3q0 -7 4 -12h-7zM845 1633v3h6v-3h-6zM294 1646h6v3h-6v-3zM976 1661h25q12 0 25 13h7q8 -7 34 -13h6q19 0 28 25q0 23 -34 47q-3 6 -3 10q-7 0 -31 -13q-29 7 -41 7
q-28 -26 -28 -44q8 -32 12 -32zM935 1668v3h7v-3h-7zM719 1715h7v6h-7v-6zM1133 1718q6 1 6 6q0 6 -6 6q-7 0 -7 -6q1 -6 7 -6zM710 1724h3q6 3 10 3q0 6 -7 6q-6 0 -6 -6v-3zM1089 1730q16 12 16 25v7q0 5 -13 12h-6q-19 -11 -19 -31q12 -13 22 -13zM961 1749l3 6q0 7 -7 7
l-3 -7q1 -6 7 -6zM1374 1762q6 1 6 6v3q0 6 -6 6t-6 -6v-3q1 -6 6 -6zM1020 1790h3v6h-3v-6zM967 1796h6q6 1 6 6v3q0 7 -6 7h-6v-3q3 -6 3 -10q-3 0 -3 -3zM848 1877q5 0 12 13v13q0 17 -18 25q-19 -7 -19 -25q0 -26 25 -26zM842 1906v3h6v-3h-6zM1117 1953h3v3q0 6 -6 6
l-3 -6z" class="colorcurrentColor svgShape"></path></svg></g></svg>