<svg id="SvgjsSvg1097" width="288" height="288" xmlns="http://www.w3.org/2000/svg" version="1.1" xmlns:xlink="http://www.w3.org/1999/xlink" xmlns:svgjs="http://svgjs.com/svgjs"><defs id="SvgjsDefs1098"></defs><g id="SvgjsG1099"><svg xmlns="http://www.w3.org/2000/svg" viewBox="-10 0 2510 2048" width="288" height="288"><path fill="#ffffff" d="M938 -34h6v3h-6v-3zM1888 -25q4 0 9 9q0 6 -6 6q-4 0 -9 -9q1 -6 6 -6zM1613 17l3 5v3q0 6 -6 6h-3v-9q1 -5 6 -5zM1509 79h3q4 0 9 9h-3q-4 0 -9 -9zM367 85h3v6h-3v-6zM1690 117q6 1 6 6v6h-6q-6 0 -6 -6q1 -6 6 -6zM1921 120l2 6l-5 3l-3 -6zM1272 165h9l3 11l-9 6h-3q-6 0 -6 -6v-6q1 -5 6 -5zM1246 176h6v12q0 6 -6 6q-3 -6 -3 -9q3 -6 3 -9zM935 185h6q0 3 -3 3l3 6v6h-6v-15zM1228 185h6v3h-6v-3zM1370 239h9v8h-3q-6 0 -6 -6v-2zM1308 265h6q12 6 12 15q-4 15 -21 15l-6 -9v-12q0 -4 9 -9zM1530 292l3 6q-4 14 -21 14v-8q0 -5 18 -12z
M1841 307q6 1 6 5h-6v-5zM1595 318l3 6l-6 3l-3 -6zM1397 321q9 11 9 21l-12 6q-12 -4 -12 -9v-9q0 -6 15 -9zM716 324h6q25 33 59 33q7 22 21 35l-3 30h-3l-33 -12q0 -13 -35 -32q0 -7 -30 -15l-6 -15q2 -24 24 -24zM1488 324h6v3h-6v-3zM589 327h6q7 0 11 27q4 0 12 15
q0 44 -32 44h-3q-25 0 -33 -35q0 -20 27 -36q0 -9 12 -15zM1477 327l3 6q0 3 -3 9q0 2 3 12v24h2v6q0 9 -8 20v21q0 15 -9 18h-6q0 -6 -6 -6v-3l6 -9q-12 0 -12 -9q0 -20 27 -44q0 -6 -21 -15v-6q0 -17 24 -24zM1352 333h6v3l-21 39l3 14l-11 9l-12 -6q0 5 -9 9h-3
q-12 -6 -12 -9q-22 8 -32 18q-6 0 -6 -9q4 -11 23 -35l6 3h3l15 -3q0 15 15 15q9 0 9 -12q-3 -6 -3 -9q29 -24 29 -27zM672 336h5q6 1 6 6v6q0 4 -9 9h-2q-6 0 -6 -6v-9q1 -6 6 -6zM1420 339q14 6 15 12v3q0 21 -21 21q-11 -5 -11 -21v-3q0 -6 17 -12zM1494 342h3v6h-3v-6z
M1515 354h6v3q0 6 -6 6v-9zM2071 357h3v3q0 6 -5 6l-3 -6zM1858 360h9v6q0 12 -20 12q6 -18 11 -18zM2060 366q6 1 6 6v3h-6q-6 0 -6 -6zM1400 375h3q4 0 8 9v8q0 5 -8 9h-3q-5 0 -9 -9v-8q0 -5 9 -9zM1299 381v5h3v-5h-3zM1326 384v8q6 0 6 -6v-2h-6zM1240 384q0 2 3 2
l-3 21v18l6 -3h3l3 15v9q-18 33 -42 41h-6v-3l3 -6l-3 -6q6 -9 6 -14l-6 -3q0 5 -6 5q-4 0 -9 -8q12 -60 21 -63h3l21 3q0 -8 6 -8zM1207 398v3h12v-6q-5 3 -12 3zM651 395q4 0 15 15v24q0 7 -27 15q-24 -14 -24 -27q8 -27 27 -27h9zM1124 398h6v6h-6v-6zM1382 401q6 1 6 6
h-6v-6zM1228 407v9h6q-3 -6 -3 -9h-3zM2382 407h18q0 13 -27 18l-3 -6q0 -5 12 -12zM1092 410h6l12 9l-27 83h-3q-6 0 -6 -6v-3q0 -3 3 -3l-3 -6q5 -6 9 -26q-3 -6 -3 -9l3 -6q-3 -5 -3 -12q5 0 12 -21zM1207 413v3q3 5 3 12h3v-6q-3 -6 -3 -9h-3zM1373 410h9v6h-3
q-6 0 -6 -6zM722 413q47 8 47 47v15q26 0 36 18l6 -3q27 13 32 24q-6 48 -9 56q3 0 3 3q-6 1 -6 6v3q12 13 12 26q0 22 -53 24q-13 -3 -24 -18q-37 17 -41 30l-12 6q-39 0 -39 -36q11 -29 45 -29q0 -12 15 -21h14q12 0 27 18h3q4 0 9 -9q-13 0 -18 -39q-14 0 -18 -29h-14
l-15 3q-33 -17 -33 -45v-8q10 -42 33 -42zM654 422v3h6v-3h-6zM1352 419h12v9h-12v-9zM731 425v6h3v-6h-3zM1234 428q1 6 6 6v-6h-6zM642 431v6h3v-6h-3zM1228 434v6h3v-6h-3zM1935 449h3q6 1 6 6v3q-21 23 -32 23l-3 -6q15 -20 17 -20h3l-3 5h9v-5h-6q1 -6 6 -6zM1231 455
v5h3v-5h-3zM1367 452q6 0 6 8q0 9 -18 9v12h9v-6h6v6q0 4 -9 9h-3q-4 0 -9 -9v-9q15 -20 18 -20zM1435 455l9 5q6 -2 9 -2q3 5 3 8l6 -3q6 0 6 9l-24 60l-12 8h-15q-5 65 -17 66v-6h-3q0 39 -18 59q0 7 -42 92q0 8 -11 17q3 6 3 9q-6 1 -6 6l-6 -3l-6 3l3 15v9q-12 0 -12 9
l12 6q-4 17 -9 17q-15 -6 -15 -9l-15 9l3 6l-3 6q5 3 18 3v3q-12 13 -12 24v9h6l-3 6v3l6 -3v5l-6 9q1 6 6 6q0 -4 12 -12l9 6h6v-9q0 -29 38 -50h3q3 0 3 3q3 0 3 -3l30 3h12l14 -12h12l9 6q0 -8 21 -12h12q0 -3 6 -3v-8h-6v-9q8 -15 17 -15h9q0 -9 6 -9q34 9 39 9
q50 -18 50 -33l6 3l6 -3q3 6 3 9q100 -35 100 -53q75 -57 119 -65q22 -42 97 -42l3 6v3l-14 36q-17 0 -110 59q-16 0 -71 47q0 10 -27 24h-3l3 -6v-12h-5q-12 18 -15 18q-44 24 -89 62h-3l3 -15v-9h6v-3h-12q0 5 -6 12q9 0 9 6v3h-3q-6 -3 -9 -3v6q8 0 24 18q0 8 -77 35
q-40 48 -59 48q-17 0 -27 -18v-18l-21 -12q-59 14 -59 33h-6l-15 -9q-8 11 -8 21l8 6h6q19 -1 42 -21q0 4 12 9h8q0 6 24 30v2q-8 0 -21 18q-20 0 -32 15h-6v-12q-7 0 -12 3l-6 -3l-6 3l-17 -3l-6 9q26 0 26 9q0 6 -6 6h-3q-16 0 -26 -18l-6 3q-3 0 -3 -3q-6 3 -9 3v6l74 36
l21 5h9v6q0 9 -12 9v6q0 3 23 12l6 -3h3q39 28 68 38q30 30 30 63l-12 9q6 9 6 14q-5 0 -18 30q0 14 21 47q0 19 24 30l38 35h3l9 -6h3q9 0 12 24q-3 6 -3 9q13 0 21 12h-15v-3l-12 9q12 23 27 23l-3 30q0 11 11 24v3q0 6 -6 6h-2q-6 0 -6 -6h6v-3h-3l-6 3q-56 0 -77 -65
l-21 3q-47 -25 -47 -60q0 -82 -74 -130q-18 -56 -51 -74q-9 3 -9 6q0 23 12 39l-3 5q10 0 21 21q12 1 12 21h-3q-44 -52 -71 -65h-6l-6 3q-5 -21 -15 -21l-18 3q-3 0 -23 -24q1 -6 6 -6l6 3l3 -6q0 -8 -24 -23q-11 3 -27 3q18 17 18 20h-12q-29 -7 -29 -20h-3q0 13 -18 23
h-6l-12 -9h-6v15l-3 6q30 0 30 12q0 15 12 15q0 12 -15 12v3l3 6l-6 3l-9 -6h-3q0 4 -12 23v3q21 14 21 30h9v-3q-3 -6 -3 -9h3q18 0 18 41h-6l3 6q-8 0 -15 6v-9h9q-3 -11 -18 -11l3 5v12q-5 0 -12 -38h-9q-5 6 -29 21l-9 -6h-18q0 -6 -3 -6q-24 9 -24 17h-6v-11
q0 -5 12 -12q6 1 6 6q7 0 12 -18h3v-6h-6v-3l12 -27v-3q-16 0 -24 -17v-3l3 -15q-5 -3 -15 -3q0 -3 3 -3l-3 -6v-3q36 -36 36 -41q-10 0 -27 -6q0 4 -9 9l3 14v3q0 6 -12 6l3 15l-5 3h-12q-4 0 -15 -18h-3q0 8 -6 15v12q21 0 21 15h15q7 0 11 21q-6 0 -6 5q10 0 18 15l-9 12
l6 9l-6 3q-5 -3 -9 -3q-5 30 -29 30q-42 -31 -42 -39v-6q3 -12 45 -32l-3 -6l-6 3q-20 -15 -24 -15q-3 6 -3 9h-3l-6 -3q0 23 -11 23q0 -3 -3 -3q6 -12 6 -17h-9q-21 0 -21 65q15 18 21 18v8l-6 -2h-3v11q-6 -3 -9 -3v-3l9 -11h-3q-6 0 -6 8q-33 -6 -33 -26l-9 9q6 9 6 17v3
l-6 9q6 12 6 18q-5 13 -17 21q-6 -3 -12 -3q0 13 -12 18h-12q-6 0 -6 -6v-15q0 -6 18 -6v-6q-3 0 -9 -3q4 -30 18 -30v-8q0 -7 -27 -21v-3q15 -10 15 -24q4 0 9 -9l-3 -14l6 -21l6 3h3v-15q-21 0 -21 -9v-3h6v-3h-6v-9h6v6h9q0 -12 6 -12q7 21 12 21q0 -15 11 -27l-3 -5
l3 -6q-3 -6 -3 -12l18 -18v-21h6v-6q-9 0 -9 -5v-15h-6q0 -15 15 -42q-4 0 -9 -9q9 0 9 -6l-6 -2q-3 5 -3 8h-3q-3 0 -3 -3l-17 6l3 6v9q8 0 8 6v3q-9 0 -14 15h-6l-3 -15q3 0 3 -3q-4 0 -15 -15q6 -9 6 -15q-15 -12 -15 -26v-12h-3v-6h3l6 3q0 -13 35 -24q20 6 27 6h6
q6 0 6 -15h6v6l18 -14q0 3 3 3l20 -39l-17 -9q0 6 -6 6q-6 -19 -21 -27h-21v-32q-9 0 -26 -21h-6l6 9q-19 21 -33 21q-29 -16 -30 -24q6 0 30 -24h3l15 3v-6q-24 -8 -24 -17h-3l-9 6q-15 -26 -15 -42h3q-3 -6 -3 -9v-9l-14 -3v-11q1 -6 6 -6q0 6 2 6h9v3h6q0 -7 12 -21
q0 -3 -3 -3q-6 0 -6 -6q0 -3 3 -3l-3 -6v-6q17 -26 48 -26q20 6 20 20h6l18 3q10 -6 18 -6q20 0 23 51h-3q3 9 6 9q0 15 -29 23v6q3 0 23 24q14 6 30 6q0 -3 3 -3l-3 -6q2 -18 6 -18q-3 -6 -3 -9q4 -12 9 -12h3q6 0 6 9h6q0 -9 6 -9h3l3 21q-6 11 -6 24h3q14 -8 14 -24
l-3 -6l3 -6q-4 -18 -11 -18v-2q15 -13 20 -48l-3 -15h3l-3 -6l3 -14h3q0 13 3 17q15 0 39 -74l6 -3l20 3l-3 15h12q0 13 6 24l-6 3h-3l3 -6v-3h-3v6h-18q0 3 3 9q-3 16 -3 26v3l3 6q-5 3 -8 3v6q0 6 5 6l-3 15v3q0 9 3 9l-3 15v17q1 6 6 6q0 -3 3 -3l6 12q-10 0 -15 24
q-2 0 -20 23l6 9q-6 1 -6 6q3 0 12 27v3q0 24 -27 24v2q7 19 21 21l23 -21l42 9h12q0 -12 20 -44q-6 -12 -6 -21l6 -3h24v-3l-6 -12q9 -2 21 -32v-6q-9 0 -9 -6v-6q0 -4 9 -9h6l6 3q9 -23 9 -29v-6l-6 -9q0 -4 9 -9h5l12 9l3 -6l-6 -9q3 -6 3 -9q-6 0 -6 -6v-6l6 3
q5 -3 12 -3q0 15 -9 15v3h6q0 -3 3 -3q0 5 6 12v6q-12 13 -12 27q6 0 6 5v12q-29 26 -29 30q5 10 5 15l-14 23q6 1 6 6q0 9 -12 9l6 9v21h6q6 -39 20 -39h6v6q6 0 6 -6l-6 -9v-6l6 -8l-6 -3q0 -23 21 -39l-3 -15v-3q7 -41 15 -41q4 0 23 -27q9 0 12 -20q-3 -6 -3 -9
q11 0 24 -18v-9q-3 -13 -3 -21q6 0 6 -14q-8 0 -9 14h-3v-11l9 -6l-3 -15q30 -23 30 -27v-9q9 3 9 6q-3 6 -3 9l5 -3h3v3q-3 6 -3 9h6q12 -41 18 -41zM1447 463v6h3v-6h-3zM1559 460h3q6 1 6 6v3q0 6 -6 6h-3q0 -6 -3 -6q3 -5 3 -9zM1432 466v6h3v-6h-3zM1438 466v3h6v-3h-6
zM1918 469v3h5v-3h-5zM1453 472q0 6 -6 6v6h6q0 -3 3 -9v-3h-3zM1272 481q6 1 6 6h-6v-6zM2196 481h12q0 4 -9 9q0 -3 -3 -9zM2187 484h9q0 3 -3 3l3 6q-3 9 -18 9q-6 0 -6 -6v-3h3q6 3 9 3v-3l-3 -6zM1400 493v9q6 0 6 -6v-3h-6zM1192 499q8 6 15 6v3q-4 0 -23 24l-6 2h-3
l6 -8q-3 0 -3 -3h3l-3 -6v-3q4 0 14 -15zM1216 502h6v6h-6v-6zM1441 505v6h3v-6h-3zM932 505q12 5 12 21q-6 14 -21 14q-5 0 -12 -11v-12q5 -12 21 -12zM867 508q18 0 18 21v5q0 4 -15 15q-24 0 -24 -26q18 -15 21 -15zM1068 508h6l3 15v3q0 6 -6 6t-6 -6v-3zM781 514v6h3
v-6h-3zM917 514v3h6v-3h-6zM1420 517v6h3v-6h-3zM1160 517h6v6h-6v-6zM1184 520v6q5 0 5 -6h-5zM1127 523v9h-6v-3q1 -6 6 -6zM1394 526v3h6v-3h-6zM1400 532q0 5 -9 14v3q4 0 15 -15v-2h-6zM867 534v9h3q0 -3 3 -9h-6zM1811 537l3 6q0 6 -6 6v-6h-3v3q3 6 3 9q-11 9 -21 9
q-3 -6 -3 -9q8 -18 27 -18zM2077 537h6v6q-20 15 -29 15l-3 -6v-3q4 -12 26 -12zM1107 549v9h3l3 -15q-6 1 -6 6zM2063 543v6q5 -3 8 -3v-3h-8zM941 543q6 1 6 6v3q0 6 -6 6t-6 -6v-3q1 -6 6 -6zM1062 543h6v12q0 6 -6 6v-18zM1693 543h9q5 1 5 6v3q0 6 -5 6h-6q-6 0 -6 -6
q3 -6 3 -9zM1796 546q1 6 6 6v-6h-6zM1382 552v6h6v-6h-6zM1790 552v6h3v-6h-3zM1335 552l5 9v3l-14 -3q0 7 14 9q0 23 -17 38h-12q-5 0 -12 -11q8 -23 33 -45h3zM577 555q21 0 21 21q0 15 -9 18h-18q-8 0 -12 -21q7 -18 18 -18zM1115 561v6h6q0 -6 -6 -6zM1130 561v9h3v-9
h-3zM1059 561h3v18h-6v-3zM1320 570q0 3 -3 3l3 6l-3 6l6 3h3v-3l-3 -6q5 -3 9 -3v-3q-7 0 -12 -3zM1995 570h8q-3 5 -3 12h-8v-3q3 -6 3 -9zM1749 579v9q-6 16 -39 26q-22 21 -23 21h-3l-3 -15l6 -3h3l-3 6h9v-6h-6v-3q7 0 47 -35h12zM1974 579q6 1 6 6v3q0 4 -9 9h-3l6 -9
v-3h-6q1 -6 6 -6zM1056 585h6v3h-6v-3zM1308 588v9h6q-3 -6 -3 -9h-3zM1968 585l-3 6v3l3 6q-20 11 -27 11h-3v-14q26 -12 30 -12zM965 591q5 1 5 6q-4 11 -8 11h-12v-5q0 -5 15 -12zM1950 597q1 6 6 6l3 -6v-3q-6 3 -9 3zM598 594q20 0 29 26q-8 30 -29 30q0 38 -33 38
q-2 0 -18 -3v3q21 22 27 45q-3 6 -3 9l3 6q-11 41 -68 41q-19 -6 -24 -6q0 4 -15 15h-6q0 -12 -8 -12v-6q0 -7 11 -9q0 -7 -17 -35q9 -43 32 -54l21 -3h29l9 6l6 -3q-12 -21 -12 -26q0 -35 45 -39q0 -14 21 -23zM1382 608v3h6v-3h-6zM1290 608h3v6h-3v-6zM1675 629h3v6
q-8 19 -86 92q-2 9 -21 9v-3h-3q0 31 -29 47h-18q-5 0 -9 -15q14 -32 42 -32q57 -66 103 -98h6q-3 6 -3 9v3h3q1 -11 12 -18zM550 638v3h6v-3h-6zM846 641v3h6v-3h-6zM1642 653v9q5 0 12 -12h-3q-6 3 -9 3zM1317 653v6h3v-6h-3zM1352 656v9q9 -2 12 -12h-3q-6 3 -9 3z
M553 656q1 6 6 6v-6h-6zM1326 656v6h3v-6h-3zM1272 659v15h3v-15h-3zM1630 665v3l12 3q0 -6 -9 -6h-3zM731 665h6q4 0 9 9v3q0 4 -9 8h-6q-6 0 -6 -6v-8q1 -6 6 -6zM932 668v3l9 11q21 -2 21 -5q-3 -6 -3 -9h-27zM1625 668v3q0 6 5 6v-3q0 -6 -5 -6zM790 668h9q9 0 9 11
q-6 14 -12 15q-14 -5 -15 -12v-5q0 -5 9 -9zM1832 674v3q1 5 6 5h3q6 0 6 -5l-6 -3h-9zM663 677h3q4 0 8 8v3q0 5 -8 9h-6q-6 0 -6 -6v-6q0 -4 9 -8zM1101 682v6h3v-6h-3zM1616 682q1 6 6 6v-6h-6zM1802 682v6h3v-6h-3zM1817 682v12h6q-3 -5 -3 -12h-3zM1275 685v9h3v-9h-3z
M364 685h15q4 0 8 9v9q0 4 -8 9h-9q-5 0 -9 -9v-3zM1352 688v6h3v-6h-3zM1607 691v3h6v-3h-6zM103 691h6v3h-6v-3zM760 691h6q11 6 15 18q-11 9 -21 9q-4 0 -9 -9v-9q0 -4 9 -9zM1589 703h3q3 0 3 -3l6 3h6q-3 -9 -6 -9q-12 5 -12 9zM1178 694h3v3q0 6 -6 6l-3 -6zM870 700
v3h6v-3h-6zM1755 700v3h6v-3h-6zM1012 703v3q1 6 6 6l3 -6v-3h-9zM1062 703v3h6v-3h-6zM1184 700h5l3 27l-23 12q0 -6 -3 -6q-6 3 -9 3v-3l6 -9l-3 -12q3 -6 3 -9h6l-3 6h6q-6 19 -6 21h9q0 -18 12 -18l-3 -6v-6zM1317 703v6h6v-6h-6zM1332 706v6h5q0 -6 -5 -6zM1580 706
q0 6 -3 6l3 6q-3 6 -3 9h3l12 -12q-3 -6 -3 -9h-9zM763 709v3h6v-3h-6zM1459 706h9v6q0 6 -6 6h-12v-3q0 -4 9 -9zM1394 709l6 9q0 6 -6 6t-6 -6v-3q1 -6 6 -6zM1015 715v6q6 0 6 -6h-6zM1722 724h6v-6q-6 1 -6 6zM1568 721q0 9 -9 9v3h6l6 -9v-3h-3zM154 724h6v3h-6v-3z
M1713 733v3q6 0 6 6h3v-6q-3 -6 -3 -9q-6 1 -6 6zM1246 730q1 6 6 6h3q0 -6 -6 -6h-3zM1299 733v3h6v-3h-6zM1308 733v6h3v-6h-3zM1314 739q1 6 6 6l3 -6v-3q-6 3 -9 3zM1737 736v3q3 5 3 9h3v-3q-3 -6 -3 -9h-3zM1548 739v9q1 5 6 5l5 -8q-4 0 -11 -6zM1163 739h6v3h-6v-3z
M236 742l3 6l-5 3h-3v-3q0 -6 5 -6zM683 742v9q-6 0 -6 -6zM997 748v5q5 0 15 9h3v-3q0 -4 -12 -11h-6zM831 748h9q4 0 9 8v3q0 5 -9 9h-9q-6 0 -6 -6v-9q1 -5 6 -5zM1290 751v5h3v-5h-3zM1524 751v5h3v-5h-3zM1722 751v5q6 0 6 -5h-6zM1121 751h6v2h-6v-2zM1530 756
q0 6 -6 15h3l9 -6q-3 -5 -3 -9h-3zM1693 756v3h6v-3h-6zM1681 759v3h6v-3h-6zM592 759h6q5 1 5 6v3q0 5 -8 9q-5 0 -9 -9v-3q1 -6 6 -6zM1657 762v3h9v-3h-9zM420 762l3 6l-6 3l-3 -6zM1228 765q3 6 3 9q6 0 6 -6l-6 -3h-3zM1675 765v3h9v-3h-9zM1719 765v3h6v-3h-6z
M485 768v3h6v-3h-6zM1246 768v6h3v-6h-3zM1645 771v3h12v-6h-3q-6 3 -9 3zM1533 771v3h6v-3h-6zM1222 774v6h3v-6h-3zM1669 774v3q1 6 6 6h3v-3q0 -6 -6 -6h-3zM864 777v3h6v-3h-6zM1287 777v12h9v-6q0 -6 -6 -6h-3zM1598 783v6h6v-6h-6zM1157 783h3q6 1 6 6q-3 9 -18 9
l-3 -6v-3q5 0 12 -6zM1272 786v9h6v-3q0 -6 -6 -6zM672 786h8q5 0 9 9v9q0 6 -6 6h-11q-6 0 -6 -6v-12q1 -6 6 -6zM1636 789v3h6v-3h-6zM1660 789v6h3v-6h-3zM1178 789h6v6h-6v-6zM1320 789h6v9h-6v-9zM2379 789h6v6q-6 0 -6 -6zM1583 795v6h3v-6h-3zM938 804h6v-6
q-6 1 -6 6zM1642 798v3h6v-3h-6zM1693 795h9v6h-3q-6 0 -6 -6zM639 798h6q4 0 9 9q-5 12 -9 12h-3q-9 -3 -9 -18zM1515 801v6h3v-6h-3zM1598 804q1 6 6 6v-6h-6zM1616 804v3h6v6l-3 6l-6 -3q-6 1 -6 6q4 0 12 5h3l-3 -5v-3q9 0 9 -15h-12zM1681 801h15q-7 15 -30 32h-3v-6
q7 0 15 -14q-3 0 -3 -3q6 0 6 -9zM429 804q18 0 21 23q-7 18 -12 18h-9q-18 -10 -18 -26q6 -11 18 -15zM1589 810v6h3v-6h-3zM1633 810v6h3v-6h-3zM1284 813v12h3q6 0 6 -6zM1494 813v6h3v-6h-3zM473 816q15 4 15 20v9q-3 9 -18 9q-17 -6 -17 -24q1 -7 20 -14zM1252 845
q3 6 3 9h3q5 -21 11 -29v-6q-4 0 -17 26zM1299 822v5h3v-5h-3zM1506 825v5h6v-5h-6zM1518 827v6h3v-6h-3zM746 827h5q27 26 27 42q-13 24 -30 24v3h-2q0 -7 -12 -18l-3 -15q9 -36 15 -36zM1607 830l-3 6h9q0 -6 -6 -6zM1243 839v6h3v-6h-3zM1601 839v3h6v-3h-6zM1494 842v6
h3v-6h-3zM695 842h3q4 0 9 9v3q0 4 -9 9h-3q-6 0 -6 -6v-9q1 -6 6 -6zM1447 845v6h3v-6h-3zM1086 851v6h3v-6h-3zM1432 851q0 6 -6 6v3h6l3 -6v-3h-3zM793 851h3q9 0 9 15h6q12 -12 26 -15q17 0 51 30v3q0 7 -39 38q-47 0 -47 -35v-9l6 -9l-15 3h-3q-4 0 -9 -9q0 -5 12 -12z
M1269 857v6h6q0 -6 -6 -6zM1450 857v3h6v-3h-6zM550 857h39q37 53 47 53q27 14 27 33v9q0 16 -18 26h-6l-36 -5q-13 5 -14 11q3 17 3 24h-3q-7 -10 -74 -41q-18 -41 -18 -68q0 -20 53 -42zM1382 863v6h3v-6h-3zM1577 863v3q3 0 9 3v-6h-9zM1403 866v6h3v-6h-3zM1420 866
q0 6 -9 6v12q1 6 6 6h9v-3l-3 -15q3 0 3 -3zM1337 872v3q9 0 9 6h3v-3q-3 -6 -3 -9q-5 3 -9 3zM1435 869v3h6v-3h-6zM1542 878h3q6 0 6 -6h-3q-6 1 -6 6zM1577 875v6h3v-6h-3zM1272 884v6h3v-6h-3zM1403 884v6h3v-6h-3zM2326 884q6 1 6 6v3q0 6 -6 6t-6 -6v-3q1 -6 6 -6z
M266 890h9v3l-3 6q3 5 3 8l-6 3q-4 0 -9 -9v-5q1 -6 6 -6zM1021 896v5h3q5 -2 9 -2l-3 -6q-6 3 -9 3zM1388 893v3h6v-3h-6zM1329 896v5h3v-5h-3zM1411 896v5h3v-5h-3zM2060 893l3 6v5h-3q-6 0 -6 -5q1 -6 6 -6zM1015 904v9h12q-3 -5 -3 -9h-9zM751 904h6v3h-6v-3zM1012 931
l3 6v3h-12v6l6 9v15q0 4 -15 8q5 7 9 42q18 0 18 6l-6 9q6 3 9 3q0 6 -9 6v3h6l-3 5v12q1 6 6 6h9v-3q0 -16 3 -41q-3 -6 -3 -9l8 6q5 -7 12 -30q-17 0 -17 -29v-3h3l-3 -6q0 -2 14 -15q-14 0 -14 -21h-6zM1299 925v3h6v-3h-6zM1462 925v9h3v-9h-3zM1417 934h9q0 6 -6 6h-3
v-6zM53 937q26 8 27 15v12q0 4 -9 9h-9q-5 0 -12 -12v-6q0 -3 3 -3l-3 -6v-3zM1299 964q-3 3 -3 17l15 9q35 -16 35 -23zM822 967l3 6l-5 2l-3 -5zM754 973q23 0 30 26q-6 27 -27 27h-11q-18 -11 -18 -27q4 -26 26 -26zM935 987v6h3v-6h-3zM1314 993v3h6v-3h-6zM1426 993
q24 6 24 9q16 -6 41 -6q24 14 24 39l-9 6l-9 -6q-13 14 -35 14l12 12v3l-15 6v6l3 6h-15q-19 -9 -24 -21q12 -4 12 -9q-37 -13 -38 -23v-9q0 -22 29 -27zM843 996l3 6l-6 3l-3 -6zM1036 1002h3v6h-3v-6zM1485 1005v9h6q-3 -6 -3 -9h-3zM512 1005h9q4 0 8 9v9q-6 12 -14 12
t-15 -15q6 -14 12 -15zM645 1014h3q6 1 6 6v3q0 6 -6 6h-3q-6 0 -6 -6v-3q1 -6 6 -6zM905 1014v6q0 6 -6 6h-8q3 -12 14 -12zM822 1023q24 0 24 24q9 0 9 5v9q0 6 -6 6q-24 -20 -32 -20q0 5 -6 5l-3 -5q6 0 14 -24zM1503 1026v6h3v-6h-3zM601 1032q4 0 11 12v5h-3
q-4 0 -8 -8v-9zM1003 1038v6q6 0 6 -6h-6zM982 1049l6 3l3 -5v-3h-3q-6 0 -6 5zM867 1047l3 5v3h-9v-3q1 -5 6 -5zM976 1079l3 6l-9 15l6 3h3q3 0 15 -24q-3 -4 -3 -21q-15 4 -15 21zM825 1064h6v6h-6v-6zM799 1067h3q4 0 9 9q0 4 -9 9q-6 0 -6 -6v-6l6 3h3v-3h-6v-6z
M1169 1088q6 7 6 12h6v-6q0 -6 -6 -6h-6zM1636 1085q64 21 107 38q6 -3 9 -3l3 6v6q-5 21 -27 21q0 3 -6 3q-25 0 -26 -15h-6q-4 0 -33 24h-15q0 -16 -38 -18l-15 -18v-14q21 -30 47 -30zM772 1088v3l6 -3q6 1 6 6v3q-18 26 -21 26h-3q-6 0 -6 -5v-3q0 -3 3 -3l-3 -6v-9
q3 -9 18 -9zM873 1088h3q6 1 6 6q0 6 -6 6h-3q-6 0 -6 -6q1 -6 6 -6zM1542 1106h6v3h-6v-3zM1554 1106h8v6h-8v-6zM861 1109h6v14q-10 3 -12 3v-14h6v8h3v-8q-3 0 -3 -3zM1118 1112q0 6 -17 8v6l14 -3v3q6 -3 9 -3v-5q0 -6 -6 -6zM1565 1109h6v6q-6 0 -6 -6zM876 1112
q4 0 9 8h-3q-6 0 -6 -5v-3zM731 1115q20 3 20 8v3q0 6 -5 6h-12q-6 0 -6 -6v-6zM1554 1120q5 1 5 6v6q0 6 -5 6h-9q-6 0 -6 -6q15 0 15 -12zM636 1123q6 1 6 6v3h-6q-6 0 -6 -6zM1077 1126v6h3v-6h-3zM1530 1123h6q0 4 3 9h-3q-6 0 -6 -6v-3zM837 1132h3v6h-3v-6zM1474 1135
v6h3v-6h-3zM1648 1135v3h6v-3h-6zM1059 1141v9h3v-9h-3zM1657 1150v3h6v-3h-6zM630 1150q6 1 6 6v3h-6v-9zM1500 1153v6h3v-6h-3zM704 1162l12 3q6 -3 9 -3v3q-24 19 -24 24v3q15 0 30 26h-3q3 4 3 15q-12 0 -12 12q-42 0 -42 -33v-9l15 -17q-6 0 -6 -6v-3q0 -5 18 -15z
M1181 1162q4 0 8 9v3q-14 -4 -14 -9zM1009 1171v6h3v-6h-3zM1113 1171v6q0 6 5 6v-6q0 -6 -5 -6zM808 1171h12q17 9 23 21v2q0 13 -21 36q-5 0 -17 -6q-5 3 -12 3q-12 -4 -12 -9v-12l18 -14l-3 -6q6 -14 12 -15zM1178 1174q5 3 11 3q0 -3 3 -3v3q0 6 -5 6h-9v3h-6v-6
q1 -6 6 -6zM1337 1180v6h3v-6h-3zM1021 1183v3q1 6 6 6h3v-6q-3 0 -9 -3zM1642 1180h9q0 6 -18 9q0 -5 9 -9zM1651 1183h3q4 0 9 9v5q0 6 -6 6h-12l-6 -3q0 -11 15 -11zM737 1186q14 4 14 17l-8 6h-9q-6 0 -6 -6v-9q0 -4 9 -8zM941 1218h6q0 6 -6 6v-6zM595 1221h6
q4 0 11 12v9q0 4 -9 9h-5q-5 0 -12 -12v-9q0 -4 9 -9zM754 1227h3q6 1 6 6q0 6 -6 6h-3q-6 0 -6 -6q1 -6 6 -6zM1835 1227h6v3h-6v-3zM1847 1227h2q5 0 9 9h-6q-5 0 -5 -6v-3zM1000 1233v6h3v-6h-3zM1142 1233v3h6v-3h-6zM663 1233h6q0 5 17 15v9h-14q-5 0 -9 -9q0 -3 3 -3
l-3 -6v-6zM876 1239v3h6v-3h-6zM1077 1242q9 7 9 12h3v-6h-3l3 -6v-3q-5 3 -12 3zM1518 1236h6v3h-6v-3zM1095 1248h6v-6q-6 1 -6 6zM1166 1242v6h3v-6h-3zM728 1242q6 1 6 6v6h-6q-6 0 -6 -6q1 -6 6 -6zM1151 1245v3q1 6 6 6h9q0 -5 -9 -9q0 3 -3 3q0 -3 -3 -3zM1169 1254
q1 6 6 6v-6h-6zM1906 1251h6v6h-6v-6zM1163 1257v6h3v-6h-3zM1592 1257h6q59 0 59 35q-11 24 -35 24q-45 -7 -45 -42q4 -12 15 -17zM1139 1260h3v8h-3v-8zM1062 1266h3l6 2q0 -2 3 -2v2q0 5 -9 9h-9v-6q1 -5 6 -5zM1595 1271v3h6v-3h-6zM846 1280l3 6l-6 3l-3 -6zM820 1283
l2 6q0 6 -5 6q-3 0 -3 -3l-6 3h-6v-9zM1166 1283h9v6h-9v-6zM677 1289h6v3h-6v-3zM1012 1289h21q17 11 17 27v6q-6 18 -29 18q0 -3 -3 -3q0 3 -3 3l-15 -18v-21q4 0 12 -12zM1015 1295v6h3v-6h-3zM1021 1295v6h3v-6h-3zM1195 1292q18 7 18 12v6q-3 9 -18 9h-3q-4 0 -8 -9v-6
q0 -5 11 -12zM609 1298q6 1 6 6h-6v-6zM796 1298l3 6h-9q1 -6 6 -6zM1672 1301q12 4 12 9v9h-15q-4 0 -9 -9q0 -7 12 -9zM1107 1304l23 15l15 -3q0 8 24 18l3 20q0 5 -21 9q-6 -3 -9 -3q-4 15 -21 15q-9 0 -23 -50q6 -10 6 -15q-3 0 -3 -3zM704 1313q0 6 12 18q0 17 -21 17
l-9 -11v-18q0 -6 18 -6zM743 1313h8q21 0 21 21q-8 19 -15 20q-15 0 -23 -14v-9q2 -18 9 -18zM1113 1319q2 6 2 9h3v-9h-5zM586 1319h9v6h-9v-6zM1024 1322v3h6v-3h-6zM651 1325h3q17 10 26 35q0 27 -41 27l-9 -42zM1722 1325h12q4 0 15 15v2q0 5 -12 9q-15 0 -24 -14v-3
q0 -5 9 -9zM1130 1331v6h3v-6h-3zM1142 1331l-3 6l15 3l3 -6zM1722 1334v6h3v-6h-3zM1672 1334h3q21 0 32 29q-2 11 -20 18q-26 0 -39 -30q6 -17 24 -17zM1657 1345v3h6v-3h-6zM1121 1351v6h6q0 -6 -6 -6zM1595 1372v6h6v-6h-6zM1148 1384q17 0 21 15q0 3 -3 9q6 23 6 38
q-6 0 -9 18q6 10 6 18q-8 14 -27 14q0 24 -15 24v-6q0 -6 9 -6v-3h-9v-6h6v-3q-9 0 -9 -6q6 0 6 -5q-5 0 -9 -15q12 -15 15 -45q-4 -11 -9 -11l3 -6v-3h-3v6h-6v-9q9 -18 27 -18zM1657 1390h6q6 1 6 6v3q0 6 -6 6h-9v-6h3l6 3v-6h-6l-6 3v-3q1 -6 6 -6zM1136 1396v3h6v-3h-6
zM1699 1393q38 0 38 26v9q-5 12 -21 12h-3q-15 0 -32 -24v-11q6 -12 18 -12zM1151 1399v3h9v-3h-9zM994 1408q6 1 6 6v2q0 6 -6 6l-6 -8q1 -6 6 -6zM1151 1411v5h3v-5h-3zM1710 1428v6h3v-6h-3zM914 1431h6v6h-6v-6zM1015 1431q4 0 12 12v12q0 5 -12 12q-13 -3 -18 -15v-12
q3 -9 18 -9zM855 1434h6v3h-6v-3zM828 1446q6 10 6 15h-3q-4 0 -9 -9q1 -6 6 -6zM988 1458q15 4 15 9v12q0 4 -9 8q-15 0 -18 -8v-12q0 -5 12 -9zM1142 1461v3h9v-3h-9zM1133 1464v3h6v-3h-6zM1258 1464h8q5 0 12 12v9q0 5 -6 5h-11q-12 -6 -12 -14q4 -12 9 -12zM793 1473h9
q6 1 6 6v6q0 5 -6 5h-3q-4 0 -9 -8q3 -6 3 -9zM1133 1485v2q6 -2 9 -2v-6h-3q-6 1 -6 6zM1154 1479q1 6 6 6v-6h-6zM908 1493l3 6q0 6 -6 6t-6 -6v-3q4 0 9 -3zM1719 1496q81 0 92 33q2 12 6 12q-6 44 -18 44q-9 -3 -9 -6l-14 3h-9q-68 -14 -68 -59q0 -18 20 -27zM976 1511
q0 5 12 12q-4 15 -9 15q-4 0 -9 -9q0 -3 3 -3l-3 -6v-3q1 -6 6 -6zM396 1550q0 3 3 9l-6 2l-3 -5q1 -6 6 -6zM1636 1559q21 8 21 26l-6 3q-16 0 -23 -15v-6q0 -4 8 -8zM1036 1561l3 6v3q0 6 -6 6l-3 -6v-3q1 -6 6 -6zM985 1564h6q0 6 -6 6v-6zM1642 1567v6h3v-6h-3z
M1124 1570v9h-6v-3q1 -6 6 -6zM1636 1573v6h3v-6h-3zM1642 1582h9v-6h-3q-6 1 -6 6zM858 1594h12q4 0 9 9v15q0 6 -6 6h-12q-5 0 -12 -12q2 -18 9 -18zM896 1603l3 6q0 6 -5 6l-3 -6q0 -6 5 -6zM950 1603q6 0 9 15l-9 6h-3l-3 -15q1 -6 6 -6zM1210 1603l3 6l-6 3l-3 -6z
M976 1606h6q6 1 6 6v6q0 4 -9 9q-9 -3 -9 -18zM834 1609l3 6q0 6 -6 6l-3 -6q1 -6 6 -6zM1219 1627v8q-6 0 -6 -5zM1065 1633h9v8h-3q-6 0 -6 -6v-2zM1121 1633q8 0 12 20q-4 12 -9 12q-4 0 -11 -12v-12q0 -4 8 -8zM846 1635h6v9l-6 -3h-3v3h6v6h-3q-6 0 -6 -6v-3q1 -6 6 -6
zM1838 1641h3q42 0 53 57q-7 6 -12 6q-56 -6 -56 -48q8 -14 12 -15zM914 1650q6 1 6 6q0 6 -6 6t-6 -6q1 -6 6 -6zM944 1665h6q6 1 6 6q0 6 -6 6t-6 -6v-6zM1033 1665h6q5 1 5 6v6q0 6 -5 6h-3q-5 0 -9 -9v-3q1 -6 6 -6zM802 1677h3q4 0 9 9q0 4 -9 9h-3q-6 0 -6 -6v-6
q1 -6 6 -6zM979 1683h3q5 0 9 9v3q0 4 -9 9h-3q-4 0 -9 -9q5 -12 9 -12zM876 1712h9q4 0 9 9v6q0 4 -9 9h-6q-9 -3 -9 -18q1 -6 6 -6zM820 1718q5 1 5 6q0 6 -5 6q-6 0 -6 -6q1 -6 6 -6zM1062 1736q6 1 6 6q0 6 -6 6t-6 -6q1 -6 6 -6zM1160 1739q4 0 9 9v3q0 4 -9 9h-3
q-6 0 -6 -6v-6q0 -4 9 -9zM1107 1745h6v3h-6v-3zM1039 1748h2q6 1 6 6v3q0 6 -6 6h-2q-6 0 -6 -6v-3q1 -6 6 -6zM393 1766h6v3h-6v-3zM663 1769h6v3h-6v-3zM1894 1769q38 0 47 53l-6 3q-65 -17 -65 -27q12 -9 18 -29h6zM559 1789q6 1 6 6v3q0 6 -6 6t-6 -6v-3q1 -6 6 -6z
M1240 1819h3v6q0 6 -6 6l-3 -6q1 -6 6 -6zM837 1875h6q6 1 6 6q0 6 -6 6l-6 -9v-3zM852 1890h9q4 0 9 9v3q0 4 -9 9h-3q-7 0 -9 -12q3 -6 3 -9zM1888 1899h12q8 0 15 27l-24 14h-6q-4 0 -9 -9q4 -32 12 -32zM1867 1934q5 0 9 9v3q0 6 -6 6h-3q-6 0 -6 -6v-6q1 -6 6 -6z
M414 1943h6v3q-11 18 -15 18q0 -3 -3 -3v3l3 6q-6 32 -21 32h-8v-2q0 -20 38 -57zM1696 2023h6q5 1 5 6v3q0 6 -5 6h-3q-5 0 -9 -9q1 -6 6 -6z" class="colorcurrentColor svgShape"></path></svg></g></svg>