<svg id="SvgjsSvg1042" width="288" height="288" xmlns="http://www.w3.org/2000/svg" version="1.1" xmlns:xlink="http://www.w3.org/1999/xlink" xmlns:svgjs="http://svgjs.com/svgjs"><defs id="SvgjsDefs1043"></defs><g id="SvgjsG1044"><svg xmlns="http://www.w3.org/2000/svg" viewBox="-10 0 2310 2048" width="288" height="288"><path fill="#ffffff" d="M181 -9h4v7h-11q1 -7 7 -7zM193 -6q29 25 29 34h-3q-8 0 -30 -26q0 4 -4 4v-4q1 -8 8 -8zM375 -2q8 1 8 8v3q-8 0 -8 -7v-4zM346 2q29 11 29 30h-3q-8 3 -12 3q-17 -7 -18 -15h7l-7 -14q4 0 4 -4zM390 2h11q8 1 8 7v4h-8v4q25 7 34 7l-4 8h11v-8h-7q1 -7 7 -7h4q6 0 11 11h-7v4h7q0 -4 4 -4q0 4 4 11l19 -4h22q0 15 22 15q0 -18 8 -18q27 15 41 15l-4 7v4h4v-8q48 0 48 60q13 34 52 60l-7 3q11 19 11 30h-7v4h7q1 -8 8 -8q15 15 26 15v12h-8q0 -8 -15 -8v4h-3l-8 -4q0 8 -7 8h-41q22 59 59 59q0 10 34 15v4l-22 22q3 7 3 11h8l-4 -7
q0 -6 15 -11l19 22q9 19 14 19l-3 7v4q30 1 30 30h3v-8h12q0 19 37 19q0 13 41 41q0 21 33 34v7h-18v11q7 0 7 -7q7 4 15 4q0 7 -11 7v4l4 7q-8 0 -8 4l15 30q-4 0 -4 3q6 0 12 12q-8 1 -8 7q4 0 4 4l7 -4h8q3 15 3 26h8v-11h7q0 11 8 11v-7l-4 -8h4q7 4 11 4v11q0 8 -11 8
l4 7l-4 19q3 0 22 22l19 -4v8h-11v11l18 4q0 -4 4 -4v15h11v-19l-18 -26q7 -3 11 -3v-4h-8v-8q2 -7 8 -7l7 4v-8q20 0 30 26l8 -3l7 3q0 -3 4 -3l-4 -8v-19q1 -7 7 -7q8 1 8 7v4h-11q7 9 7 15h8v-7h3q14 23 19 56q16 26 22 52q-3 8 -7 41q19 27 19 33h7q-4 -14 -11 -26
q1 -7 7 -7q8 4 12 4v3l-4 8l22 3v4q0 8 -7 8h-4v-8h-11v26l-11 -7h-4q0 11 -4 11q-7 -4 -11 -4q11 10 11 15h11q0 -15 12 -15v15l-4 8l7 3q0 -3 4 -3v11h-4q-3 0 -3 -4q-4 0 -53 37q0 -15 -22 -15q0 -3 -19 -11h-3v4q9 0 11 15l7 -4q12 11 26 15v4h4v-8l7 4l-3 8q5 14 11 14
l-4 8v4q16 56 30 56l15 -15h4l15 11q-4 7 -4 11v4h4v-8h3q8 2 8 8q-11 0 -11 11q13 0 22 7q0 -17 11 -22l52 11l-3 8v3h3v-7q7 4 19 4v3h-7v4h14q0 8 -11 8v18q50 52 75 52l4 8l-4 19h11q14 -24 37 -27l23 12q1 -8 7 -8q0 10 64 30v15l-4 22q45 49 45 64h-15v-8h-4l-7 4
q0 -7 -8 -7q0 35 -15 41h-7l-8 -4v4q8 23 8 29h-12q-7 0 -7 -7q4 0 4 -4h-4q-15 2 -15 11h-11l-4 -26v-3l4 -19h-4l-26 4q0 -4 4 -4l-4 -8l4 -7h-11l-15 19q-15 -15 -23 -15l-18 3q0 -3 -4 -3q-10 18 -30 18q0 -3 -11 -11l-8 4l-7 -4q-25 11 -34 11l-11 -7l-11 19q8 1 8 7
q0 20 -12 34v7h12l26 -7q18 14 18 29q0 8 -7 8v-8h-4q-7 2 -7 8v4l7 -4h4v4q0 7 -8 7h-7v-7h-4v7h-7l-11 -7q-8 3 -12 3q-7 -12 -7 -22l-15 7q-22 -26 -34 -26q0 8 -7 8q-4 -6 -4 -19q-12 8 -22 8v-15h-4v-8l8 -11v-11q-19 0 -19 -8q4 0 4 -3l-8 -4q-59 14 -59 30h-4
q0 -8 -8 -8q-11 8 -41 11l-7 -11q4 -7 4 -11h-4q-19 3 -19 11q4 7 4 15q-7 1 -7 8q-23 0 -23 -26h-7q-6 0 -12 11v3h12v8h-4l-8 -4v4l4 7h-7l-4 -15h-4v12h-3q-3 -19 -12 -19q0 7 -7 7l-4 -7v-4q23 0 23 -11q0 -7 -12 -7l4 -8l19 8v-4l-11 -8h-15v12h-12q-11 0 -59 15
l-26 -4q-23 7 -67 11v-4l-8 4h-4q-7 0 -7 -15l-8 4q0 -8 -11 -8q0 -9 38 -18q-8 -12 -8 -19q-20 0 -56 8v-4q-4 0 -4 4q-64 -19 -78 -19l4 -8v-3h-8v7h-3q-8 0 -8 -7v-4q149 -16 149 -26l4 -22l-11 -19q0 -30 26 -30l22 4h23q14 0 37 -15q26 7 45 7h4q0 17 18 26v-7
q23 7 23 22h3v-7h11l-3 7h7v-7l11 7h4l11 -7h4q0 11 15 11l7 -11v-4l-7 4h-7v-8q37 0 37 -26q-60 0 -101 -52v-4h22q20 15 45 15v-7q0 -4 -15 -15q-7 4 -11 4q-19 -17 -19 -23q-14 0 -14 15h-12q-10 0 -22 -7l-7 15q-13 -8 -23 -8h-4q-14 0 -33 19q-19 0 -22 -11
q11 -19 29 -19q7 4 15 4q6 0 30 -8v-3l-4 -8q4 0 4 -4h-15q1 -7 8 -7l7 4v-4l-15 -15h19l18 4v3l-3 8q5 6 48 11q4 7 4 11l7 -3v14h12v4h7l-4 -7h8l18 3q0 -3 4 -3q0 -14 -60 -146q0 -9 -33 -30l-4 -7q8 0 8 -7q-8 0 -8 -8q11 -4 11 -22v-15h-18q-8 0 -8 -8q0 -16 8 -30
q-71 -17 -71 -48v-7q0 -9 19 -12l-4 -7q1 -8 7 -8q0 4 4 4v-7q-4 0 -11 -4q0 5 -11 11h-4q0 -4 33 -30q-3 -7 -3 -11l-8 4h-7q-25 -34 -34 -34l-3 8q3 0 3 4l-7 3h-4q-18 -67 -67 -67q-19 -18 -19 -41v-4q0 -5 11 -11q-3 -7 -3 -11h-8q-9 0 -11 15h-4q-5 0 -11 -11
q3 -23 8 -23q-11 -28 -23 -41l4 -18q-4 0 -4 -4l26 -22q0 -6 -18 -15q-30 26 -38 26v-8l4 -7h-15q-7 1 -7 7v4l18 4v7q-4 0 -11 4q-4 -7 -4 -11l-7 3h-4v-11h-7v15h-4l-11 -7l-8 3l-59 -33v-4l4 -7q-27 0 -56 -41q-34 0 -34 -26l4 -19q-8 0 -8 -8q0 -3 4 -3q-5 -23 -11 -23
l-8 26h-7q0 -5 -11 -14v-19q0 -8 11 -8v-3q-25 -65 -56 -75q-68 -35 -93 -60v-11q22 4 22 11l19 -3q33 9 33 30h8q26 -27 37 -27q5 4 22 4q-3 -7 -3 -11q7 0 7 -7v-8l-22 -26v-4h7v8q8 0 8 -8h-8v-7zM327 13h15v7h-15v-7zM401 24v4h8v-4h-8zM513 20h8v4h-8v-4zM521 24h4v8
h-4v-8zM222 28h8v4h-8v-4zM372 39h3q8 1 8 8v3h-4q-7 0 -7 -7v-4zM521 54v4h7v-4h-7zM1058 91l11 19q-6 15 -11 15q-6 0 -11 -11v-11q0 -6 11 -12zM491 110v4h7v-4h-7zM133 110q5 0 11 11v11q0 8 -7 8q-15 -8 -15 -23zM327 136h7v8h-7v-8zM319 140q14 8 19 26l19 -4v-4h-8
q0 4 -3 4l-4 -7q4 -8 4 -11h3q0 6 23 18v15h-15q-21 0 -38 -26v-11zM513 144v3q4 7 4 11h4v-3q-4 -8 -4 -11h-4zM663 166v7h3v-7h-3zM521 173l4 8q7 -4 11 -4l-4 -7q-7 3 -11 3zM998 203q8 1 8 8v3h-8v-11zM987 211h7v3h-7v-3zM681 226h19q0 8 -19 11v-11zM961 237h4
q5 0 11 11h-8v15l15 -8v12q0 5 -11 11h-4q-15 -6 -15 -26v-8q2 -7 8 -7zM704 240h7v8h-7v-8zM718 240h8v4h-8v-4zM976 248h4v7h-4v-7zM536 263v7h7q0 -7 -7 -7zM521 282v7h4v-7h-4zM506 285v8h4v-8h-4zM998 293h8v3h-8v-3zM506 300v8h4v-8h-4zM711 300v8h4v-8h-4zM685 319h7
v-8q-7 2 -7 8zM994 308h8v7h-8v-7zM528 319v11h4v-11h-4zM696 334v3h8v-3h-8zM640 341v8h4v-8h-4zM737 352v8h4v-8h-4zM1028 371h4q7 1 7 7q-7 2 -7 8l7 15l-7 4h-4q-5 0 -11 -12v-3q11 0 11 -19zM991 378h7q0 12 4 12l-8 15q5 0 19 44q4 0 4 4v22q0 9 -19 12
q-26 -14 -26 -30q0 -10 11 -41q-5 0 -11 -11q19 -14 19 -27zM980 401q1 7 7 7v-7h-7zM577 408h3l15 11q-3 8 -3 12h-12v-8l4 -7h-7v-8zM994 431v7h4v-7h-4zM853 461v3h7v-3h-7zM43 479h8v8h-8v-8zM1054 528q8 1 8 7h-8v-7zM1065 550h8v7q-8 0 -8 -7zM823 565v4h11v-4h-11z
M905 565q1 7 7 7v-7h-7zM905 584v7h4v-7h-4zM980 591h3v8h-3v-8zM987 602l19 4v7h-4q-4 0 -4 -3l-7 3h-4v-11zM980 610h3v3q0 8 -7 8l-4 -8zM938 625v3h8v-3h-8zM1021 628q7 23 14 23l4 -8q-4 -15 -18 -15zM950 632v4h7v-4h-7zM994 628h8v8h-8v-8zM1084 640v3h7v-3h-7z
M1047 643v8h3v-8h-3zM1080 647v4h8v-4h-8zM1017 651q1 7 7 7l4 -7h-11zM1233 647h11q67 24 67 67q0 41 -41 41q0 8 -7 8h-19q-18 -10 -18 -30h3q-15 -32 -15 -41v-15q0 -20 19 -30zM2206 647q12 0 23 22q0 20 -30 30q-22 -9 -22 -15v-18q9 -19 29 -19zM1028 658v4h7v-4h-7z
M1054 658v8h8v-8h-8zM886 666v7h4v-7h-4zM1076 666v11h8v-11h-8zM905 677v4h7v-12q-7 2 -7 8zM1047 673v8h3v-8h-3zM2192 673v8h3v-8h-3zM1035 677v7h4v-7h-4zM838 684q1 8 7 8h4v-8h-11zM991 692v7h3v-7h-3zM1009 699v4q8 0 8 -8v-3q-8 1 -8 7zM1039 692v7h4v-7h-4z
M838 699q1 8 7 8v-8h-7zM1379 695q41 0 41 56q-8 27 -49 41q-48 -10 -48 -41v-11q0 -36 56 -45zM860 703v11h4v-11h-4zM1110 703v4h7v-4h-7zM1065 714q0 26 -26 26q19 25 19 34h11v-8q0 -7 -7 -7l3 -19v-11h11v-15h-11zM1103 714v4q1 7 7 7h4v-7q-4 0 -11 -4zM875 722v3h8
v-3h-8zM998 736v8h4v-8h-4zM1509 740q5 0 19 19v4q0 20 -15 26h-23q-11 -4 -11 -23v-7q10 -19 30 -19zM1968 744h15q15 7 15 22q-6 16 -19 23h-15q-11 -4 -11 -23v-7q0 -6 15 -15zM1117 751v4h8v-4h-8zM1091 759v7h4v-7h-4zM1080 763q0 8 -4 15v3h4q0 -4 4 -11v-7h-4z
M1095 770v11l19 4v-15l-11 8q0 -8 -8 -8zM920 778v7h4v-7h-4zM1099 796v8h7v-8h-7zM1009 819q0 -8 -7 -8h-8q-7 24 -7 34v3q22 0 22 12l-7 3q4 19 22 19l-3 -8v-3q0 -8 37 -11v-4q-8 0 -8 -8q4 0 4 -3q-5 -4 -26 -4l4 -8l-8 -3l4 -19v-4h-4zM834 815v4l8 -4h3v4l-3 7
q-7 -4 -15 -4q1 -7 7 -7zM1073 826h7v-7q-7 1 -7 7zM1088 833h7v-7q-7 1 -7 7zM849 826h7q0 7 -7 7h-7q1 -7 7 -7zM938 830v7h8q0 -7 -8 -7zM1017 833h4v12h-4v-12zM1088 841v7q3 0 3 -3l8 3h4v-3l-4 -8q-7 4 -11 4zM1106 845v3h8q0 -4 3 -11h-3q-8 1 -8 8zM1270 833h4
q9 12 15 12v15h-4q0 -12 -7 -12q-7 4 -11 4v-4zM1998 833h7q0 9 4 15h-4q-7 0 -7 -7v-8zM2009 833q7 2 7 8v4h-7v-12zM1058 841v4q7 9 7 15h4q4 0 4 -4l7 4h4v-8q-10 0 -26 -11zM1125 845l4 7l-4 8l7 3l4 -7q0 -4 -4 -4l4 -7v-4q-7 4 -11 4zM1144 841v4h7v-4h-7zM1047 852h3
q0 8 -7 8h-4q1 -8 8 -8zM1103 860v3q1 8 7 8v-4q0 -7 -7 -7zM1531 860q49 7 49 48q0 28 -34 49h-11q-28 0 -48 -34v-11q6 -52 44 -52zM1050 867q4 7 4 11h4v-11h-8zM1151 863h4q7 1 7 8l-7 3l-4 -7v-4zM909 867l11 15q0 5 -11 11h-8q-7 0 -7 -7v-4q0 -6 15 -15zM1296 867h8
q0 4 -4 4l4 7v4h-8v-15zM968 882l-3 7v4h3q0 -7 8 -7v-4h-8zM1848 882h12q7 2 15 19q-8 17 -15 18h-12q-5 0 -11 -11v-15q0 -5 11 -11zM1185 886h7v7q0 8 -7 8h-4q4 -7 4 -15zM1162 983v7h4v-7h-4zM1725 986h4q6 0 15 15q-4 23 -11 23h-11q-9 0 -12 -26zM1964 986h11v8h-11
v-8zM469 990l3 8l-7 3l-4 -7zM879 994v11q6 -4 15 -4v-7h-15zM1173 994v7h4v-7h-4zM1572 994h15q6 0 15 15v15q0 5 -11 11h-19q-6 0 -11 -19q5 -22 11 -22zM1144 1001v4h7v-4h-7zM1259 1005v7h4v-7h-4zM2229 1016h4q7 1 7 8q0 5 -11 11h-4l-4 -15zM994 1024v3h8v-3h-8z
M1293 1027h7v8h-7v-8zM931 1035q1 7 7 7h4q0 -7 -7 -7h-4zM991 1042v4q6 0 22 7q0 -3 4 -3q-6 -15 -11 -15q-9 7 -15 7zM1270 1042h8v-7q-8 1 -8 7zM446 1039q8 1 8 7v4h-8q-7 0 -7 -8zM1170 1042v8h3v-8h-3zM965 1046v7h3v-7h-3zM972 1053v4h8v-4h-8zM868 1094v8h7
q0 -8 -7 -8zM1315 1094v8h4v-8h-4zM1300 1098v8h4v-8h-4zM1323 1102v7q7 0 7 -7h-7zM741 1109l-4 8l8 4l3 -8zM1688 1106q5 0 11 11v7q0 8 -7 8h-4q-5 0 -11 -11v-4q0 -5 11 -11zM909 1113q0 4 -4 11q8 0 15 4v-4q0 -5 -11 -11zM875 1117v11h4v-11h-4zM894 1128v4h7v-11
q-7 1 -7 7zM924 1128v8q7 0 7 -8h-7zM938 1136h8v-8q-8 1 -8 8zM980 1139h3q8 0 8 -7h-4q-7 1 -7 7zM1017 1132v4h7v-4h-7zM901 1139v4q8 9 8 15h3v-11h-3l3 -8v-3q-7 3 -11 3zM1461 1136q1 7 7 7v-7h-7zM942 1147q-7 -4 -11 -4v7q6 0 15 8q7 -12 7 -19zM965 1143v11h3v-11
h-3zM1449 1143q0 4 -3 4q4 18 11 18q0 -5 7 -15q-6 0 -15 -7zM890 1150v8h7q0 -8 -7 -8zM1722 1147q42 0 56 44q24 0 29 34q-9 22 -22 22v19q0 7 -7 7l3 8v4q0 7 -7 7h-4l-11 -7l-19 3q0 -6 -11 -18v-4h15q0 -7 4 -7q-4 -8 -4 -12q-19 8 -26 8l-56 -15v4l4 26q-8 1 -8 7
q4 7 4 11h-4q-22 -12 -22 -41h-4l-22 12l-4 -8q15 0 15 -7v-8l-4 -7l8 -4h18q19 -78 79 -78zM927 1154v4h8v-4h-8zM1338 1162h7v-8q-7 1 -7 8zM1696 1154v8h3v-8h-3zM1942 1154h3q8 1 8 8l-4 7h4q1 -7 7 -7l4 7h-7v8l7 -4h4v4q0 20 -15 26q0 -14 -8 -23q-11 0 -11 19h-4
q-7 0 -7 -8l7 -3q-7 -13 -7 -23zM909 1165v8h3q8 0 8 -8v-3q-7 3 -11 3zM942 1162v3h11v-3h-11zM957 1165v4h8v-4h-8zM1442 1169v8h4v-8h-4zM920 1173v4q6 0 15 7q7 0 7 -7v-4h-4v7h-3l-11 -7h-4zM946 1173v4q4 7 4 11h3v-4q-3 -7 -3 -11h-4zM1863 1169q26 12 26 37
q0 4 -14 23l7 11v7q0 6 -11 12h-26q-7 0 -11 -23l3 -22q-7 0 -7 -8v-18q15 -19 33 -19zM1949 1173v7h4v-7h-4zM909 1177v7h3v-7h-3zM864 1180v8h4v-8h-4zM942 1188v11h8v-4q0 -7 -8 -7zM566 1188q7 3 11 3v4q0 8 -8 8h-3q-4 0 -4 -4q-12 7 -19 7v-3q-14 6 -71 11l-7 -4
q-35 15 -64 15q-5 0 -11 -11v-4q5 -15 34 -15h15q3 0 3 4l8 -4q11 0 11 4q38 -8 52 -8v4l8 -4h30q8 0 15 -3zM1942 1191q7 2 7 8h-7v-8zM897 1199q0 4 -3 11q7 0 7 8h4v-4q-4 -7 -4 -15h-4zM853 1203l7 11q-4 0 -4 4h12v-8q-8 0 -8 -7h-7zM920 1210v4h7v-4h-7zM957 1214v7h4
v-7h-4zM1058 1214v7h4v-7h-4zM1069 1218v3h11v-3h-11zM1211 1218l15 26q11 -4 11 -8q-6 -18 -26 -18zM1278 1218v14h7v-3q-3 -7 -3 -11h-4zM834 1221v8h4v-8h-4zM860 1225v11h8v-4q0 -7 -8 -7zM961 1236h7v-7q-7 1 -7 7zM1438 1229v7h4v-7h-4zM1550 1225l4 7v4h-4
q-7 0 -7 -7zM1863 1232v8q8 0 8 -8h-8zM1535 1232h8q3 33 3 38l-7 3q-9 -7 -15 -7v-4q11 0 11 -18v-12zM1558 1232h3q8 2 8 8h-4q-7 0 -7 -8zM752 1240q1 7 7 7v-7h-7zM1453 1240v7h4v-7h-4zM957 1244v3h8v-3h-8zM737 1255h8v-8q-8 2 -8 8zM1442 1262h19v-11h-8q-5 0 -11 11
zM968 1270v7q8 0 8 -7v-8q-8 1 -8 8zM1703 1262q13 0 37 34v4h-3l-19 -4l4 -8l-8 -3h-11l7 11v4h-14q0 -12 -15 -12v-7q6 -15 22 -19zM909 1277q7 1 7 8h-7v-8zM1610 1281q0 4 37 19l19 44q3 0 3 4v4l-3 7l18 4h4q0 -24 22 -34q0 -11 15 -18q19 1 19 7v11h4v4l-8 11v4
q23 40 23 49v3l-8 26l4 45q-12 37 -37 37h-15q-4 0 -23 -29l-18 3q-3 -11 -23 -18q0 27 -71 37q0 3 -29 22q-34 0 -34 -22q-9 -19 -30 -19h-26q-14 -9 -78 -89q-30 -15 -30 -56q12 0 34 -19h3q46 26 52 26v4l8 -4h4q7 2 7 8q-7 1 -7 7q18 3 18 19q8 0 8 -8q-8 0 -8 -7
q0 -18 53 -52q14 0 14 22h8q0 -8 4 -15q26 0 29 34h4v-8h8q0 23 18 23q4 0 4 -4q0 -6 11 -19v-11q-11 0 -11 -7q7 0 7 -8v-7l-7 4q-5 0 -19 -19v-4q0 -6 23 -11zM927 1300h8v3h-8v-3zM603 1307h11q0 5 -11 11v-11zM1263 1311q1 7 7 7v-7h-7zM1244 1315v3l15 19h4v-11
q-6 0 -19 -11zM1319 1315h15l-4 7v7l11 -7v11q-15 2 -15 11q12 0 12 8l-8 4q0 -8 -19 -8v-11h8l-4 -8q4 -6 4 -14zM588 1322v7h-8q2 -7 8 -7zM1241 1329v4h7v-4h-7zM1308 1326h3v7h-3v-7zM1819 1329l3 8l-3 7q3 7 3 15q-7 0 -7 -15l-8 4l-3 -7q5 0 15 -12zM1535 1341v7h4v-7
h-4zM1714 1341v3h8v-3h-8zM1908 1341h11v3q0 8 -7 8h-4v-11zM1718 1348v8h4v-8h-4zM1643 1352q0 13 -18 26v4q1 7 7 7h8q0 -6 22 -26q-6 0 -19 -11zM1830 1348h7v15h-3zM1714 1359v8h4v-8h-4zM1807 1356v11q-7 0 -7 -8zM424 1359h4v8h-4v-8zM1498 1363v7h7q0 -7 -7 -7z
M1546 1367l-22 26l-4 7l-7 -3h-8q0 33 30 33l15 11q15 0 19 -26l-4 -22l4 -15q0 -11 -23 -11zM409 1363v4q0 7 -8 7h-3v-7q4 0 11 -4zM1819 1378h3v4q0 7 -7 7h-4v-4q1 -7 8 -7zM442 1385h8v8h-8v-8zM1345 1389h4q5 0 11 11q0 6 -11 11h-11v-14q1 -8 7 -8zM405 1393h8v7h-8
v-7zM1229 1400h4q0 11 8 11v4q0 8 -8 8h-7q-8 0 -8 -8v-4q0 -5 11 -11zM420 1404h4q7 1 7 7l-7 4h-4v-11zM405 1408q8 1 8 7h-8v-7zM353 1430q0 4 4 4q-4 6 -4 15h-4l-3 -15zM316 1441h3l4 15v4h-4q0 -6 -11 -15zM331 1441q7 1 7 8l-7 4v-12zM290 1449v4q0 7 -8 7v-4
q1 -7 8 -7zM260 1460h15q0 7 11 7v4l-19 4h-4v-8l-7 4h-4v-4q1 -7 8 -7zM1789 1482h30v8l-8 11l8 4q7 -9 7 -15h4q0 7 11 7v8q-11 0 -11 7l-19 -4l-15 4q2 10 19 15q12 -7 19 -7v3q-5 12 -42 30h-3l3 -7v-8h-7v-3h7v-8l-18 4v7h7v4l-3 7q11 0 11 8q-14 0 -23 7v-3
q0 -9 4 -15v-4h-4q0 15 -11 15h-4l-3 -15l11 7q0 -7 4 -7q-8 -15 -8 -22q3 0 11 -12l-3 -7q5 -19 26 -19zM1968 1482h3q8 2 8 8h-11v-8zM1326 1486v4q0 6 -15 15q4 6 4 15h8v-15q15 5 15 11v19q-10 21 -34 29q-34 -11 -34 -37q0 -10 19 -37h19zM1375 1486h22q0 4 4 11h-4
q-8 -7 -22 -7v-4zM1423 1486h4q7 1 7 8h-11v-8zM1375 1490q15 19 15 30h3v-12h4l4 19q-8 1 -8 8q4 0 4 3l-7 4h-8q-15 -15 -26 -15l4 -19h4q8 0 11 19h7q-2 -11 -18 -30zM1960 1490h8v4h-8v-4zM1427 1497h4v8h-4v-8zM1405 1505h7q0 4 4 11h-8q0 -4 -3 -11zM1789 1516v7h3v-7
h-3zM1274 1527l11 8v-15h-3q-8 1 -8 7zM43 1531h4v11h-11v-4q1 -7 7 -7zM1308 1538q1 8 7 8l4 -8h-11zM1539 1538q5 0 22 23v7q0 22 -33 41q-25 -11 -30 -26q0 -45 41 -45zM1442 1583h4q7 1 7 7q0 8 -7 8h-4q-8 0 -8 -8q2 -7 8 -7zM2124 1602q34 8 34 18v15q0 4 -4 4l4 7
l-4 8l-7 -4h-4v4h7v4q0 7 -7 7h-7q-20 0 -27 -15q0 -8 19 -11v-7h-15v11h-7v-15q0 -21 18 -26zM2121 1617v11h3v-11h-3zM2147 1617q0 4 -4 11q4 0 4 4h-4q-7 0 -7 -12h-4v4l4 8q0 6 -8 22h11q0 -10 11 -22q0 -4 -3 -4l3 -8v-3h-3zM2117 1650v4h7v-4h-7zM1360 1714l7 3
q-5 15 -11 15q-7 0 -7 -7q0 -6 11 -11zM1792 1714h12v7q0 7 -8 7h-4v-7q-7 1 -7 7q22 0 22 23h4q0 -11 8 -11v-4l-12 -15l8 -4q7 1 7 8v22q0 8 -30 15l-14 -19v-15q0 -5 14 -14zM1785 1736v11h15v-7q-8 0 -15 -4zM1673 1740v7h-7q1 -7 7 -7zM1300 1755q8 1 8 7v4q0 7 -8 7
h-7v-11q1 -7 7 -7zM1140 1788q15 6 15 11v12q0 5 -11 11h-12q-5 0 -11 -11v-8q8 -15 19 -15zM1132 1796l-3 7v8l3 7q7 -4 15 -4v-15l-7 4q0 -7 -8 -7zM1259 1825h4q8 0 11 19l-7 4q0 -8 -8 -8v12h-7v-4l3 -8q-3 -7 -3 -11zM1770 1907h11v4h-11v-4zM1009 1926q8 1 8 8v3
q0 8 -8 8h-3q-8 0 -8 -8q0 -5 11 -11zM1237 1971h11q15 8 15 19q-5 15 -19 22h-15q-7 0 -7 -8v-18q0 -6 15 -15zM1349 1982q15 5 22 19v7q0 30 -30 30h-3q-6 0 -15 -15v-22q11 -19 26 -19zM1349 2023v8h3v-8h-3z" class="colorcurrentColor svgShape"></path></svg></g></svg>