<svg id="SvgjsSvg1031" width="288" height="288" xmlns="http://www.w3.org/2000/svg" version="1.1" xmlns:xlink="http://www.w3.org/1999/xlink" xmlns:svgjs="http://svgjs.com/svgjs"><defs id="SvgjsDefs1032"></defs><g id="SvgjsG1033"><svg xmlns="http://www.w3.org/2000/svg" xmlns:svgjs="http://svgjs.com/svgjs" xmlns:xlink="http://www.w3.org/1999/xlink" width="288" height="288"><svg xmlns="http://www.w3.org/2000/svg" width="288" height="288" viewBox="-10 0 1810 2048"><path fill="#ffffff" d="M443 -30h3q7 0 10 20q-5 0 -5 -7h-5q0 7 7 7v3q0 5 -5 5h-5l3 -5v-3h-3v5h-5l-2 -15q4 -10 7 -10zM441 -22v2h5v-2h-5zM747 143h8q3 0 7 8v15q-5 9 -15 9l-10 -12v-5h8v8h5l-5 -10q5 0 5 -5h-5v5h-5v-5q0 -4 7 -8zM752 316h3q3 0 9 10q0 13 -9 17h-3q-10 -5 -10 -14q5 -12 10 -13zM750 324l-3 5v2q5 0 5 5h5q-3 -12 -7 -12zM110 472h2q4 0 10 12v5q0 4 -7 8h-5q-5 0 -10 -18zM112 479v5h3v-5h-3zM767 509h7q4 0 10 10v2q0 19 -25 20q0 2 -2 2q0 -4 -5 -4q0 2 -2 7l5 2q4 -2 7 -2l2 5q-1 17 -14 17q-12 -5 -13 -10v-15q0 -7 25 -7l-5 -7v-10q0 -4 10 -10zM762 521v3q3 0 7 2h3v-2q-3 0 -8 -3h-2zM747 556v2h5v-2h-5zM883 578h2q5 1 5 5q0 2 -2 2q4 15 10 15q0 5 -5 5h-3v-5h-7q0 7 5 15h-3q-12 -6 -12 -20v-2q1 -5 5 -5v5h7v-10zM898 578h2q5 1 5 5h-5v5q8 0 8 5v2h-3q-10 -3 -10 -7q3 -4 3 -10zM905 600h3v3
q0 3 -13 12h-5q0 -3 15 -15zM708 662q5 1 5 5v5h-5v-10zM1612 689l5 8v2q0 6 -13 7q-2 -7 -5 -7q3 -10 13 -10zM483 734h10q5 0 5 5q-3 0 -3 2q-8 -5 -12 -5v-2zM688 736h2q8 3 8 15v2h-5v-7h-3q-5 1 -5 5q5 2 8 2q0 5 -5 5q-4 0 -8 -7v-7q0 -4 8 -8zM478 741h2v5h-2v-5z
M498 748v3q0 5 -5 5v-3q0 -5 5 -5zM797 753h2q3 0 12 13v7q0 6 -2 10q2 5 2 7h-2l2 5v3h-5v-8q-17 0 -17 25l-10 8h-12q-8 -4 -15 -20q0 -14 25 -27l-3 -5q8 -18 23 -18zM673 756h2q8 2 8 15l-8 5h-2q-4 0 -7 -8v-5q0 -3 7 -7zM1132 756h3q5 1 5 5v5q0 5 -5 5h-3q-5 0 -5 -5
v-5q1 -5 5 -5zM1211 761h8q5 1 5 5v7q0 4 -10 10q-10 -4 -10 -7v-8q0 -3 7 -7zM624 778h2q4 0 7 8q0 3 -7 7h-5l-2 -12zM653 778h3v5q-3 0 -8 3v-3q1 -5 5 -5zM779 788v5q5 0 5 -5h-5zM816 786h5v2h-5v-2zM695 790h5v8q-5 0 -5 -5v-3zM819 793h5v2q0 4 -8 8h-2v-5q5 0 5 -5z
M540 815h5q0 4 -8 8h-2v-3q0 -5 5 -5zM722 815l5 3l-2 12q2 5 2 7l-12 3q-7 -3 -7 -15q0 -4 7 -7v10q7 0 7 -13zM1231 820h3q3 0 7 8v2q0 5 -5 5h-5q-5 0 -5 -5v-5q1 -5 5 -5zM547 825v5h-5q1 -5 5 -5zM713 830q0 5 4 5h5v-5h-9zM535 832h7q0 5 -5 5h-2v-5zM530 837h5v5h-5
v-5zM863 840h5v5h-5v2q6 0 10 3q-4 10 -7 10h-5q-5 0 -5 -5v-8q0 -3 7 -7zM831 842l10 15v13q-4 9 -17 9q-18 -5 -18 -19v-3q0 -3 25 -15zM498 845h2q4 0 8 7v3q0 5 -5 5h-5v-3l2 -5q-2 -5 -2 -7zM537 852h3v5h-3v-5zM1140 857h7q5 1 5 5v3q0 3 -7 7q-5 0 -5 -5v-10z
M387 872h4q4 0 8 7v8q0 5 -5 5h-5q-4 0 -10 -10q4 -10 8 -10zM787 874q5 1 5 5v8q0 5 -5 5q-6 0 -8 -13zM819 894h7q5 1 5 5v8q0 3 -7 7h-5q-5 0 -5 -5v-5q5 -6 5 -10zM797 904h2l5 3q0 -3 2 -3l3 5l-8 5q0 -4 -4 -10zM794 909q4 0 7 7h-7v-7zM453 916h5v5h-5v-5zM636 916h2
v5h-2v-5zM436 921h5q5 1 5 5v5q0 5 -5 5h-3q-3 0 -7 -7v-3q1 -5 5 -5zM752 926h3v3q-5 0 -18 10v-5q3 -8 15 -8zM747 946h5v3q0 4 -5 4v-7zM643 953q18 0 18 23h-10q0 2 -5 2v5l5 -2h5q0 3 -8 7h-12q-3 0 -10 -12v-10q1 -5 5 -5q0 15 7 15v2l-2 5h7q0 -7 5 -7v-3
q-12 0 -12 -5t7 -5q0 -5 -10 -5v-2q6 0 10 -3zM819 956h5q5 1 5 5v7l-18 25h-5q-3 0 -7 -7q17 -30 20 -30zM646 961v7h5q-3 -4 -3 -7h-2zM396 966h3q5 1 5 5v2q0 5 -5 5h-3q-5 0 -5 -5v-2q1 -5 5 -5zM1441 966q10 4 10 7v3q0 3 -7 7h-3q-3 0 -7 -7v-3q0 -3 7 -7zM515 971
q5 1 5 5q0 5 -5 5t-5 -5q1 -5 5 -5zM903 976h7v2h-7v-2zM920 976h2q4 0 8 7h-3q-4 -2 -7 -2v-5zM895 978h5v10h-5v-10zM1209 981h2q5 0 5 5v2q0 5 -5 5h-2q0 -5 -2 -5q2 -5 2 -7zM713 988h4v3h-4v-3zM927 988h5v3h-5v-3zM910 991v4h-5q1 -4 5 -4zM922 991q4 0 8 9l-5 3h-3
v-12zM955 991h7q4 0 7 7q0 5 -9 5v2h4v15q0 5 -4 5q-13 -20 -13 -30zM895 993h3q5 1 5 5v5q-4 0 -8 -10zM952 1003q3 5 3 7h2v-5q-2 0 -2 -2q5 0 5 -5v-3h-3q-5 0 -5 8zM238 1000h3q5 1 5 5v5q0 4 -8 8h-2q-5 0 -5 -5v-5q0 -4 7 -8zM918 1000v8h-5v-3q0 -5 5 -5zM596 1008h3
v2q0 5 -5 5l-2 -5zM762 1010h2v5h-2v-5zM690 1020h5q5 1 5 5v5h-2q-4 0 -8 -7v-3zM937 1025h5v5h-5v-5zM675 1028h8v5h-8v-5zM794 1028h10q0 7 15 32l5 -3q5 0 5 8v7q6 0 22 12h2v3q0 12 -7 12v5h20l7 17q-2 5 -2 8l9 7q7 -5 10 -5v-19h5v4h3v-4q-3 0 -3 -3l13 -2
q10 0 17 27h5l-3 5v2h3v-5q5 5 27 8v5q20 -5 27 -15q0 2 3 2q2 -5 2 -7h3l5 2v-7l17 5q0 -3 2 -3q10 23 10 28l-2 4q8 10 17 10v5l-2 5q3 0 7 10q-3 8 -5 8l7 12v2l-5 8v10q10 0 10 27h-2q8 20 15 20q8 -5 15 -5q17 0 24 14h-5v3h5q0 -3 3 -3q0 8 17 23q-2 10 -22 22v2
q22 2 22 8l-5 2q0 11 17 35q0 10 40 44v3l-5 -3h-3v10q-14 -12 -17 -12l-2 5q14 13 32 37h2q5 0 5 -8h8q0 7 5 13q-15 10 -15 17l2 5q-2 4 -2 12h-8v-2l3 -5q-3 -5 -3 -7h-2l-5 14q2 18 2 20q-3 10 -7 10q0 48 22 59l-2 13h-5l-8 -5h-5q-9 0 -14 24q11 17 12 37l-5 3
q-20 -14 -20 -32l8 -5q-15 -46 -15 -57q2 -5 2 -7q-19 -25 -27 -25q-14 0 -32 -25l-12 -10q0 13 -10 15q-20 -39 -45 -39q-22 -7 -22 -18q-5 0 -5 -5v-2l3 -5q-5 -2 -8 -2q-22 7 -29 7h-5q-4 0 -8 -7v-8l5 -7v-3l-10 10h-10q9 -15 13 -15l-3 -5q8 -2 8 -14l-5 -18q5 0 5 -5
v-2q-18 -20 -32 -20q-14 -10 -20 -10l-12 3v-3l2 -5l-5 -2q0 1 -2 10h-3q-6 0 -7 -10h-3q-2 13 -2 15l-5 -3h-3l3 5q-9 0 -15 12q-5 -2 -7 -2q-5 0 -15 5q0 -3 -3 -3q0 3 -2 3q-3 -5 -3 -8l-5 3q0 -3 -2 -3q0 3 -2 3q0 -10 -20 -10l2 -5q-2 -4 -2 -10h-5v10q-5 0 -5 -5
q2 0 2 -2l-5 -3l3 -5v-2q-8 0 -8 -5v-5h8v-3q-5 0 -5 -2l-5 2l-5 -2l-10 5l3 5v2h-5q0 2 2 15q-2 5 -2 8q0 5 12 14v3l-2 5q2 0 12 20l-10 2l3 5q-4 15 -35 27q-12 -2 -12 -10l-8 5q-25 -14 -25 -22q0 -15 -19 -27h5q2 0 2 2q5 -2 8 -2v-3q-8 -8 -8 -12l-7 5h-3v-3l3 -4
q-10 0 -10 -8q-10 5 -15 5q-2 -7 -5 -7l3 -5v-8q-7 0 -10 -7l-13 2l-7 -10v-4h7v-5h-2q-4 0 -10 9l-5 -2h-7l-5 2q0 -5 -3 -9h5l5 2l3 -5q-8 0 -8 -5v-5q10 0 10 -5v-2h-5v-3l3 -5q-5 0 -10 -14h5v-3h-5q0 3 -3 3v-8q0 -3 8 -7q0 2 2 2q5 -8 5 -12q-2 0 -2 -3l-5 3l-5 -3v3
l2 5h-10l3 5l-5 2h-5q-3 0 -10 -15v-2l2 -5q-4 0 -4 -5q5 -32 17 -32l20 -22q5 1 5 5l4 -3q15 0 15 10q8 0 8 -7h2v7q-5 3 -7 3l2 5q-2 0 -2 2l7 5q5 -3 8 -3q0 8 -10 8v2h7v3h-5l3 5l-5 2q0 -2 -3 -2q0 5 -5 5q0 -3 -2 -3q0 8 -13 15q3 5 3 7q10 -3 10 -12h5v3l-3 5h3
q6 -10 15 -10q0 -2 17 -15l-3 -5q3 -5 3 -8h5q0 10 15 13q0 -3 2 -3q1 5 5 5q1 -5 5 -5h2q8 10 13 10h7q2 22 22 22q0 8 18 20q10 0 12 -22q-7 0 -7 -5q8 -12 10 -12l-3 -5v-3l12 -2v5h-7q2 5 2 7q10 -2 10 -12h3v5h5v-5l-5 -8q9 -5 17 -19q0 -5 -20 -20v-8l13 -2q0 2 2 2
v-2l5 2h3v-2q-5 0 -5 -2q2 -5 2 -8h3q0 8 12 25q22 -4 22 -13q-2 -4 -2 -7l-5 3h-5q0 -10 -10 -25l10 -40q-20 0 -20 -17q3 -5 3 -7l-5 -3q-13 0 -13 8h-5v-5h-2l-5 2l-10 -10v-2h5l5 2v-5q0 -3 -8 -7q5 -11 10 -12l5 2q5 -2 10 -2l5 2q0 -7 5 -7zM510 1030q5 1 5 5v2
q0 5 -5 5t-5 -5v-2q1 -5 5 -5zM794 1035v7h3q4 0 4 -5v-4q-4 2 -7 2zM522 1033h3q5 0 5 4l-5 3h-3v-7zM866 1033h7v4h-5v5h3q4 -2 7 -2v10q-2 0 -2 -3l-5 3h-10v-13l5 3v-7zM767 1037v3h5v-3h-5zM853 1035h3v2l-5 8v2q0 4 7 8l5 -3l3 5v5l-15 3q0 -3 -8 -18q5 -11 10 -12z
M774 1047v5h3v-5h-3zM537 1047h5v3h-5v-3zM609 1047q5 1 5 5v5q0 5 -5 5h-3q-5 0 -5 -5v-2q0 -4 8 -8zM878 1050h2v10h-2v-10zM493 1060h7v5h-7v-5zM550 1060h2q5 0 5 5t-5 5h-2q-5 0 -5 -5t5 -5zM811 1065v5h3v-5h-3zM868 1062h8q0 5 -5 5zM710 1075h3q11 0 22 14l10 -7h10
q0 6 7 12v13q-4 9 -17 9h-8l-10 -7l-5 3q-7 0 -24 -25v-5h5l7 5h3v-3q-8 0 -8 -5q1 -4 5 -4zM1093 1079h5q5 1 5 5v5q0 5 -5 5h-5q-5 0 -5 -5v-5q1 -5 5 -5zM510 1087h5v2h-5v-2zM715 1092v7h2v-7h-2zM740 1092v5h2v-5h-2zM745 1097v2h5v-2h-5zM569 1102q5 0 5 5t-5 5t-5 -5
q1 -5 5 -5zM742 1107v7h3v-7h-3zM621 1109h3q3 0 9 10q0 5 -4 5q-5 0 -5 -5q2 0 2 -3l-5 -2v5h-5v-5q1 -5 5 -5zM648 1109h5q5 1 5 5v2q0 4 -7 8h-3q-5 0 -5 -5v-5q1 -5 5 -5zM900 1116l5 3h3l-3 -5q3 0 3 -2h-3q-5 0 -5 4zM342 1119h5q0 5 -5 5v-5zM759 1121h5v5h-5v-5z
M752 1129h3l7 5q0 -3 2 -3q0 3 3 3q0 -3 2 -3q5 10 13 10q4 -2 7 -2v2q-7 6 -7 10h-5v-5l-10 3l-5 -3h-3v3q8 0 8 9h-5q0 -4 -15 -12v-5q1 -5 5 -5v3l-2 5h7v-8h-5v-7zM779 1129h5v5q-5 0 -5 -5zM908 1141h7v-5h-2q-5 1 -5 5zM1004 1136q1 5 5 5v-5h-5zM611 1139h8v5h-8v-5z
M829 1144v10h7v-3q0 -3 -7 -7zM987 1151v5h2v-5h-2zM930 1154q1 4 5 4v-4h-5zM999 1156v2q1 5 5 5v-2q0 -5 -5 -5zM945 1158v3h5v-3h-5zM957 1161v2h7v-5q-4 3 -7 3zM982 1161v2h5v-2h-5zM1016 1161v7h3v-7h-3zM782 1163v5h2v-5h-2zM994 1171v2h5v-2h-5zM945 1178v3h7v-3h-7
zM584 1181v2h5v-2h-5zM792 1191v2h5v-2h-5zM930 1193v7h2v-7h-2zM972 1196v2h5v-2h-5zM604 1203v5h5q0 -5 -5 -5zM777 1208h5v-5q-5 1 -5 5zM999 1210v5q1 5 5 5h2v-5q0 -5 -4 -5h-3zM656 1215q0 5 5 5v-5h-5zM557 1223h5v-5q-5 1 -5 5zM940 1218v2h5v-2h-5zM505 1223l3 5v2
h-8v-2q1 -5 5 -5zM940 1225v3h5v-3h-5zM646 1228v5h5q0 -5 -5 -5zM920 1235v5h2v-5h-2zM532 1238h3q5 0 5 4v3h-8v-7zM955 1245h5v-5q-5 1 -5 5zM979 1252h3q5 0 5 -5h-3q-5 1 -5 5zM999 1255v5h3v-5h-3zM1014 1257q3 13 7 13v-8q0 -5 -5 -5h-2zM636 1262v3h5v-3h-5z
M564 1265h3v5h-3v-5zM631 1267v5h5v-5h-5zM994 1267v5h3v-5h-3zM834 1275v5h4q0 -5 -4 -5zM982 1275v2h5v-2h-5zM1085 1275v2h8v-2h-8zM631 1289v8h2v-8h-2zM883 1289v3h5v-3h-5zM1095 1294v5q4 0 10 5v-10h-10zM638 1299v8h3v-8h-3zM592 1302v5q4 0 4 -5h-4zM611 1312v5
l3 4h-3l-5 -2h-2v2q1 0 10 3q0 -3 2 -3q1 5 5 5q5 0 5 -5l-5 -2l5 -12h-2q-8 5 -13 5zM629 1309v5l4 3h3v-3q-5 0 -5 -5h-2zM641 1312v2h5v-2h-5zM643 1317l-2 4v5h7v-5q0 -4 -5 -4zM772 1317l2 4h-5l3 5l-3 5l5 3h3q0 -3 -3 -3q5 -8 5 -12l-5 -2h-2zM629 1321v3h7v-3h-7z
M824 1321v5h2v-5h-2zM841 1321v5q1 5 5 5l2 -5zM579 1321h5v3h-5v-3zM735 1326v5h2v-5h-2zM920 1326v3h5v-3h-5zM1009 1329q-6 15 -17 15q3 10 12 15h2v-5h5q4 0 8 9q-5 1 -5 5q0 9 22 18v5l-5 7v5q4 0 17 12v-5q0 -8 -7 -17l7 -10v-5q0 -7 -14 -7v-3q0 -5 7 -5
q-8 -37 -32 -37v3zM631 1344l2 5l5 -3l5 3q0 -8 5 -8v-2h-5q-8 5 -12 5zM782 1341v5h2v-5h-2zM651 1344v2h5v-2h-5zM797 1351v3q2 4 2 7l5 -2q-3 -5 -3 -8h-4zM537 1351q5 1 5 5q0 5 -5 5h-5v-5q1 -5 5 -5zM675 1354v2h5v-2h-5zM806 1354v5q5 0 5 7h5q-7 -10 -7 -12h-3z
M671 1361v7h4v-7h-4zM648 1366h5v5q-5 0 -5 -5zM505 1368h7q5 1 5 5v5q0 4 -7 8h-2q-4 0 -8 -8v-5q1 -5 5 -5zM843 1368h8v5q-3 0 -8 3q0 -3 -2 -3v8h-3v-10zM821 1371h5q0 5 8 17h-3q-6 0 -10 -17zM688 1378v5h5v-5h-5zM653 1381h5q0 5 3 5l-3 5v5h3v-8h2l3 13l-5 2v-5h-3
v5q3 0 3 2q-10 0 -10 8h-3q0 -10 -7 -10q0 5 -5 5v5h2l5 -3l3 5v10h-15q-4 0 -10 -10q0 -17 20 -17l-3 -5q0 -3 15 -12zM940 1388q1 5 5 5v-5h-5zM950 1396v2h2q5 0 5 -5v-2h-2q-5 0 -5 5zM747 1401v4h3v-4h-3zM631 1403v5h2v-5h-2zM720 1403v5h2v-5h-2zM1177 1423h2
q0 2 3 7l-5 3h-3q3 -5 3 -10zM945 1428v2q2 5 2 8h3v-3q-3 -5 -3 -7h-2zM510 1430h2q5 1 5 5q0 5 -5 5h-2q-5 0 -5 -5q1 -5 5 -5zM940 1435v3q1 5 5 5v-3q0 -5 -5 -5zM1053 1435q0 5 -5 5q-4 -2 -7 -2v5q7 12 10 12q5 -3 7 -3v-12q0 -5 -5 -5zM535 1435l2 5v3h-7v-3
q1 -5 5 -5zM836 1438h5q5 0 5 5v2q0 5 -5 5h-5q-5 0 -5 -5v-2q1 -5 5 -5zM747 1443h3q9 3 9 7v2h-2q-7 -1 -10 -9zM777 1452q5 1 5 5l-5 3q-5 0 -5 -5zM537 1455q5 1 5 5v5h-5v-10zM801 1460h3l27 25q-2 0 -17 19q2 0 2 3l-5 2h-5q-4 -4 -32 -12v-8h5v-4h-2l-5 2l-3 -5
q10 -7 15 -7q5 2 8 2q9 -8 9 -17zM942 1462q5 1 5 5v5q0 5 -5 5t-5 -5v-5q1 -5 5 -5zM806 1477v5h3v-5h-3zM797 1480q0 4 -5 17h7q0 -3 -2 -3l4 -14h-4zM814 1489v5h2v-5h-2zM436 1499h2v8h-2q-5 0 -5 -5zM969 1502h3q5 1 5 5v2q0 5 -5 5h-3q-5 0 -5 -5v-2q1 -5 5 -5z
M594 1509l2 5l-4 3l-3 -5zM735 1509h2v8h-2q-5 0 -5 -5zM517 1519h5v5q-5 0 -5 -5zM1061 1522h5q12 7 12 17l-5 2q-11 -4 -17 -15q1 -4 5 -4zM846 1524q42 15 42 30q-3 0 -3 2l-5 -2h-4q0 10 -13 14q-5 -2 -7 -2q-5 2 -8 2q-2 -5 -5 -27q3 -4 3 -7v-10zM903 1544h5q5 1 5 5
v5h-3q-3 0 -7 -8v-2zM918 1559h12q4 0 12 17h-5q-15 -8 -19 -17zM1006 1566h3q3 0 7 7v3q0 13 -7 15h-3q-7 -2 -7 -20zM456 1568h2q5 1 5 5v3q0 5 -5 5h-2q-5 0 -5 -5v-3q0 -5 5 -5zM848 1578h8q9 6 17 20v3q0 5 -17 9q-18 -9 -18 -22q0 -4 10 -10zM853 1583v3h5v-3h-5z
M658 1593h3v5h-3v-5zM656 1608h5q5 1 5 5q-4 10 -8 10h-10q3 -15 8 -15zM732 1615q0 12 23 18v2q-8 0 -8 3q3 10 10 10q5 -3 7 -3v5h-5v5h3l12 -3q0 -7 -7 -7v-2q1 -5 5 -5q0 5 15 5v2q0 5 -8 5q3 5 3 7l-5 10q10 0 20 10v-10l-3 -5l5 -2l2 10q-2 0 -2 2q4 0 12 5
q5 -10 13 -10q15 0 39 30q8 0 17 5v-3q-7 -9 -7 -14q1 0 7 -5q18 0 35 22v2q0 5 -5 5h-5l-17 -5v5q6 0 25 25l14 10h5v-10q0 -4 -7 -22l5 -3q0 -25 -87 -49q-17 -23 -17 -27q3 -5 3 -8h17q0 -7 5 -7h10q30 32 37 32q15 7 15 10v7l-3 5q5 0 30 18q20 7 20 39v5q0 6 -10 17v3
q0 3 29 12l8 10v12q0 4 -13 13h-2q-12 -6 -22 -32q-3 -3 -15 -3q0 3 -3 7q-35 0 -49 -29q2 -5 2 -8q-31 -15 -44 -34q-23 0 -40 -12q-4 2 -7 2q0 -2 -2 -2q0 14 -8 44q9 8 22 12l-2 5v8l5 -3l-3 -5v-2q23 0 35 69q5 0 5 12q0 5 -5 5h-3q-17 -5 -19 -5q-14 13 -18 13
q-22 3 -22 14h-7q0 -4 -5 -4v-5l2 -5h-19q-13 0 -15 -8v-7q0 -5 7 -5v-3q0 -4 -22 -14q-12 17 -15 17q-23 -17 -37 -17v9l-25 -2q-12 10 -12 35q5 8 5 14v10q0 4 -7 8q-5 0 -8 -15l3 -30q-5 -42 -8 -49q3 -5 3 -8q-3 -4 -3 -7h3q-13 -19 -13 -30l-10 -5l3 -5v-2q-7 0 -7 -2
l-5 2q-5 0 -8 -17q5 0 5 -5q-7 0 -10 -13q0 -4 8 -32q-3 0 -3 3q-34 -4 -34 -25l9 -7q17 0 25 24q4 3 10 3l12 -3l3 5q-3 0 -3 3h8q2 0 2 -3q10 4 10 8q-5 0 -7 12l2 12h3q2 0 12 -24l5 -3l-3 -5q0 -5 30 -17q1 5 5 5h3q0 -11 32 -15q24 -7 24 -17zM893 1618h10q27 21 49 27
l8 17h-3q-54 -19 -62 -37h-2v-7zM972 1620h2v10h-7v-5q1 -5 5 -5zM1063 1635l5 3l-2 5v2l15 17l-5 3h-5q-5 0 -5 -5h5v-3q-13 0 -15 -7q1 -15 7 -15zM604 1655h15v5h-5q-3 0 -3 -3l-5 3h-2v-5zM767 1660q0 2 -3 7h5q0 -2 3 -7h-5zM1039 1660h2q25 11 25 15q-13 10 -13 19v10
q-17 0 -17 13h-15q-5 0 -5 10q-4 -3 -10 -3v-5l5 3h3v-10l5 2h7l-2 -5l5 -7l5 2h2q5 0 5 -5v-7q-7 0 -7 -5v-2q0 -3 2 -3l-2 -5v-12q0 -5 5 -5zM755 1667v8h2v-8h-2zM601 1670v5h3q5 0 5 -5h-8zM972 1667q3 0 7 8h-2q-5 0 -5 -5v-3zM779 1672q1 5 5 5l3 -5h-8zM1053 1677h5
v-5q-5 1 -5 5zM587 1675v7h2v-7h-2zM769 1675l-2 5v5h15q0 -4 -13 -10zM1100 1675h20q10 3 10 15l5 -3q41 41 64 44q10 17 10 25l-10 8q0 -3 -2 -3q0 3 -3 3l5 9l-7 5q-14 -10 -18 -22q-10 -6 -24 -32q-6 0 -20 -20q-30 -3 -30 -29zM1174 1675h3v5h-3v-5zM801 1682q1 5 5 5
q5 -2 8 -2v-5q-4 2 -13 2zM787 1685v2h7v-2h-7zM1046 1685v5q5 0 5 -5h-5zM814 1687v5h2v-5h-2zM592 1690v2h4v-2h-4zM767 1690v4h5v-4h-5zM779 1692l-2 5h5v2q0 5 -8 5v3h10l5 -3q-3 -11 -10 -12zM1256 1690h2q4 0 8 7q-5 0 -5 7h-3q-3 0 -7 -7v-3q1 -4 5 -4zM596 1694v5h8
v-5h-8zM1256 1694v5h2v-5h-2zM755 1704v3h4v-3h-4zM1261 1704h5v3h-5v-3zM587 1709v8q3 0 7 -8h-7zM989 1712h5q5 1 5 5h-2l7 14v8h-2l-5 -3l2 -5v-2q-5 0 -5 -12l-10 7h-2v-5q0 -3 7 -7zM587 1719v3h5v-3h-5zM1041 1717h2v5h-2v-5zM1048 1717h3v5h-3v-5zM599 1722v2h7v-2
h-7zM1026 1719h3q5 1 5 5l-5 3l-3 -5v-3zM1041 1722v5l-2 4h7v-7l5 3v-5h5l-3 5h3q-4 9 -8 9l-5 -2v5l-4 -3h-3v5h-7q-4 0 -8 -7q0 -4 8 -7q0 7 5 7h2v-5l-2 -5q2 0 7 -2zM777 1734v2h5v-2h-5zM1009 1731h2q0 5 5 5v5h-5l-5 -2q3 -5 3 -8zM1058 1731q5 1 5 5v3l-5 -3
q0 3 -2 3l-3 -5zM1192 1739v5q5 0 5 -5h-5zM1066 1739v2q0 5 -5 5v-2q1 -5 5 -5zM1043 1741h3q4 0 7 8h-5q-5 0 -5 -5v-3zM1244 1741q14 5 14 10v5h-2q-16 -6 -17 -12zM764 1754v2h5v-2h-5zM782 1759v5h2v-5h-2zM811 1764v2h5v-2h-5zM816 1769v4h3v-4h-3zM1135 1769q3 0 7 7
v2q0 5 -5 5h-2q-5 0 -5 -5v-5q1 -4 5 -4zM811 1783q1 5 5 5l3 -5h-8zM1073 1781h3q5 1 5 5v2h-3q-5 0 -5 -5v-2zM913 1786h2q10 4 10 17q0 4 -7 8q-13 0 -15 -8v-5q6 -12 10 -12zM777 1793v5q1 5 5 5v-10h-5zM1204 1801h3q4 0 4 5v2h-4q0 -3 -3 -7zM1051 1815h2q6 0 8 13
l-8 5h-2q-5 0 -5 -5v-8q1 -5 5 -5zM1221 1838h5v7h-5v-7zM824 1862h10q4 0 9 15q-4 3 -7 3q-12 -4 -12 -18zM1229 1867h5v8h-5v-8zM888 1902h5v5h-5v-5zM550 1907q3 0 7 7v3q0 3 -7 7q-4 0 -8 -7v-3q0 -3 8 -7zM895 1917v7h-5v-2q1 -5 5 -5zM918 1924h2q5 1 5 5v5q0 5 -5 5
h-2q-5 0 -5 -5v-5q0 -5 5 -5zM974 1936q20 2 20 20v5q-9 15 -22 15q-15 -5 -15 -25q6 -15 17 -15zM1713 1961h2q14 0 25 22l-2 5q-30 -1 -30 -22q1 -5 5 -5zM1063 1978q18 4 18 10l-3 5q5 3 7 3q0 5 -4 5t-10 -10q-8 0 -8 -13zM1725 2006q5 0 5 5v2q0 5 -5 5l-5 -7
q1 -5 5 -5z" class="colorcurrentColor svgShape"></path></svg></svg></g></svg>