<svg id="SvgjsSvg1001" width="288" height="288" xmlns="http://www.w3.org/2000/svg" version="1.1" xmlns:xlink="http://www.w3.org/1999/xlink" xmlns:svgjs="http://svgjs.com/svgjs"><defs id="SvgjsDefs1002"></defs><g id="SvgjsG1008" transform="matrix(1,0,0,1,0,0)"><svg xmlns="http://www.w3.org/2000/svg" viewBox="-10 0 1934 2048" width="288" height="288"><path fill="#ffffff" d="M378 159q2 0 5 6v2q0 4 -4 4q0 -6 -5 -6v-2q0 -4 4 -4zM808 184q3 0 10 10v2q0 2 -6 5h-6q-3 0 -3 -3v-8q0 -3 5 -6zM87 213q3 1 3 4q0 4 -3 4h-4v-4q1 -4 4 -4zM767 267h6q3 0 7 8v8q-3 7 -11 7q-8 -3 -9 -7v-2q0 -11 7 -14zM670 310l4 2q-2 3 -2 5h-2q-3 0 -3 -3q0 -4 3 -4zM1621 331l2 4v4h-5v-4q0 -4 3 -4zM1580 341h4v1h-4v-1zM965 389h6v4h-6v-4zM728 404h2q4 1 4 4v2q0 4 -4 4q-3 0 -6 -6q1 -4 4 -4zM752 424h6v2q0 3 -4 3l-2 -3v-2zM1013 439h4q0 4 -4 4v-4zM462 451h1q4 0 4 3v4q0 4 -4 4h-1q-3 0 -6 -6q0 -2 6 -5zM943 480h1
q4 0 4 3v2q0 4 -4 4h-1q-4 0 -4 -4v-2q0 -3 4 -3zM663 499q11 4 11 13q-4 9 -7 10h-2q-10 0 -15 -10v-2q5 -11 13 -11zM627 501q5 0 10 9q-4 9 -8 10h-5q-4 0 -4 -4v-9q0 -3 7 -6zM769 509h4v1q0 4 -4 4t-4 -4zM782 532q3 0 6 6q0 2 -6 5h-2q-3 0 -3 -4q2 -7 5 -7zM950 534
h6q3 0 3 4v5q0 4 -3 4h-6q-4 0 -4 -4v-5q1 -4 4 -4zM928 536h2q2 0 7 7v4q0 3 -6 6h-3q-3 0 -6 -6v-6q0 -2 6 -5zM698 541q10 3 10 14q-1 4 -10 8q-9 -3 -9 -6v-10q0 -4 9 -6zM724 545h2q4 1 4 4v2q0 4 -4 4h-2q-3 0 -3 -4v-2q0 -4 3 -4zM538 565q3 0 7 7v2q0 10 -5 12h-8
q-3 0 -7 -8v-6q3 -7 13 -7zM674 572h6q0 4 -4 4zM758 572q5 0 9 10q-3 8 -5 8h-6q-4 0 -5 -10q1 -8 7 -8zM724 580v4h-3q0 -4 3 -4zM1019 586h2q4 0 4 4q0 2 -6 5q-4 0 -4 -3v-2q1 -4 4 -4zM120 588h4q0 4 -4 4v-4zM760 601h7q10 0 13 8v8q0 10 -11 15h-2q-10 0 -15 -9v-14
q0 -3 8 -8zM506 607h4q3 0 6 6l-8 6l-5 -8q0 -4 3 -4zM1060 609h4v2h-4v-2zM943 613q7 3 7 6v5q0 3 -6 6h-3q-5 0 -6 -7q4 -9 8 -10zM905 623q4 0 4 3q0 4 -4 4q-3 0 -3 -4q0 -3 3 -3zM877 634q10 3 10 12q-2 11 -6 11h-7q-8 -3 -8 -13q5 -10 11 -10zM956 644q3 0 3 4
q0 3 -3 3q-4 0 -4 -3q0 -4 4 -4zM812 648h2q4 0 4 3v4q0 4 -4 4q-3 0 -6 -6v-2q1 -3 4 -3zM1041 648q4 0 4 3v2q0 4 -4 4q-3 0 -3 -4v-2q0 -3 3 -3zM913 651q3 1 3 4q0 4 -3 4q-4 0 -4 -4q1 -4 4 -4zM825 655q3 0 6 6v2q0 3 -6 6q-4 0 -4 -4v-6q1 -4 4 -4zM952 661h2
q3 1 3 4v2l-5 17h-2q-3 0 -6 -5q0 -15 8 -18zM316 673q4 2 6 2q0 4 -4 4t-4 -4q2 0 2 -2zM786 675q6 0 11 34q0 8 -7 12h-8q-4 0 -5 -21q-4 0 -4 -14v-4q3 -7 13 -7zM888 677h4q4 0 4 3q0 4 -4 4t-4 -4v-3zM713 682q4 1 4 4q0 4 -4 4l-4 -6zM816 682q8 4 9 8v10q0 3 -5 6
h-10q-2 -1 -7 -10q3 -14 13 -14zM245 686h2q4 1 4 4v4q0 4 -4 4h-2q-4 0 -4 -4v-4q1 -4 4 -4zM918 686h4v2h-4v-2zM976 696h8q11 5 11 15q0 9 -15 18h-2l-7 -6h-2v2q3 6 3 11v4q-7 25 -24 25h-7q-16 0 -25 -25q0 -34 25 -34q0 -8 3 -8q1 7 21 19q0 -16 11 -21zM747 700
q4 0 4 4l-4 2v-6zM913 702q2 0 5 5v2q0 4 -3 4h-2q-4 0 -4 -4v-3q1 -4 4 -4zM521 706h4q3 0 5 7q-3 9 -7 10h-2q-3 0 -5 -6v-6q0 -2 5 -5zM771 721l2 4q0 4 -4 4h-2v-4q1 -4 4 -4zM795 725h4q3 0 6 6v2q0 2 -6 5h-4q-2 0 -5 -5v-2q0 -3 5 -6zM909 727h6v2q0 4 -4 4l-2 -4v-2
zM689 733h4q3 0 3 3v6q0 3 -5 6h-2q-3 0 -6 -6v-4q0 -2 6 -5zM833 744h3q6 2 6 12q-6 4 -11 4q-4 -5 -4 -8q3 -8 6 -8zM894 744h4q4 1 4 4v2q0 4 -4 4t-4 -4v-6zM862 746h2q4 1 4 4q0 4 -4 4h-2q-3 0 -3 -4t3 -4zM896 758h4v2h-4v-2zM749 760q3 0 3 3l-3 2v-5zM778 765h4
q6 2 10 14q-4 12 -8 12h-11q-8 -4 -8 -14q0 -12 13 -12zM868 773q3 0 6 6q0 4 -4 4h-2q-4 0 -4 -4v-2q1 -4 4 -4zM885 773q3 1 3 4v2q0 4 -3 4q-4 0 -4 -4v-2q1 -4 4 -4zM598 777q3 1 3 4v2q0 4 -3 4q-4 0 -4 -4v-2q0 -4 4 -4zM661 777q4 0 15 15l-4 2q-15 -9 -15 -11v-2
q1 -4 4 -4zM611 779h2q2 0 5 6q-2 6 -11 6l-2 -4v-2q0 -3 6 -6zM1118 779q3 0 5 6v4q0 2 -5 5q-3 0 -6 -5v-4q0 -3 6 -6zM840 781q11 5 30 8l2 3v4h-4v2h4q3 -2 5 -2q2 5 25 18q-4 7 -4 15v2l7 -13l6 5l-2 4v2h2v-4h5l-1 4v2h1v-4h2q18 12 25 12q0 -4 3 -4q6 2 6 4l4 -2h9
v-4l-2 -4q-6 4 -11 4l-2 -4v-6q0 -5 13 -7q4 9 15 9l6 -4h1q4 1 4 4l-2 10q7 6 13 6h6q1 0 6 -6q2 2 9 2q0 -3 -4 -12q6 -1 8 -7q-4 0 -4 -6l-4 2h-5q0 -3 9 -8q17 18 19 31h3q0 -8 4 -8q7 8 30 41h4q0 -2 1 -6l4 2h2q0 -6 4 -6q16 23 18 29v6q6 0 13 13q8 0 30 45
q10 12 24 23l-1 4q3 0 3 4v2h-3q-8 0 -15 -4l-2 13q11 0 28 23h2v2q0 3 -6 6h-4q-2 0 -2 -2l-3 2h-2q0 -5 -2 -15h-4v5h4v4q0 3 -7 6q-4 -2 -8 -2q0 2 -2 6q1 7 15 21q-7 2 -7 4l-4 -2q-7 10 -15 10q-3 0 -11 -4q0 6 -2 10q2 3 2 11h4v-11q0 -4 3 -4q2 4 2 6h8q4 0 7 -2
q8 0 9 15l-9 10h-7q-12 -12 -13 -12v12l15 9v6q0 4 -4 4l-4 -2q-4 2 -6 2l-3 -8q-17 14 -17 16l-4 -2l-9 2q0 6 6 6v3h-2q-4 0 -12 -19q4 -2 8 -2q-8 -17 -13 -19v2q-6 -4 -9 -4q0 2 -2 2q0 5 13 8v2l-2 3q3 2 5 2v6l-7 2q4 8 4 12q-11 -14 -13 -14v2q2 3 2 8h-4l2 9h-2
l-8 -9q0 4 -13 6q-3 -2 -5 -2v-4l3 2v-2q-1 -4 -1 -6h-2q-4 1 -4 4l2 4h-8v4q12 3 15 3q-7 12 -11 12l2 4q0 4 -6 4l2 4v2q0 2 -13 7h-2q-3 0 -3 -4l1 -3h-1l-8 5q0 -6 -15 -9v-8h-2v4h-3q0 -4 -10 -20q-3 2 -5 2q-2 -3 -2 -7h-4q0 1 -4 21q13 10 19 10v9l-4 -2l-2 4h4
l-2 10h-2q-2 0 -5 -6q2 0 2 -2l-10 2h-1q-10 0 -12 -6v-6q-3 -1 -7 -1h-8q-6 5 -9 5v2q13 17 24 27l4 6q-4 8 -4 14l4 2h4l-4 -6v-4h4q9 8 11 8q0 -3 6 -6l3 6q-3 0 -3 3q3 14 9 14v6q0 4 -6 4l4 13l4 -2h4v10l9 -2v6h9q2 0 2 2l4 -2h2v4h3l2 -8h2q0 11 4 11v-7h5v6l-1 3
q22 12 22 22q2 0 2 2q7 -1 7 -6h2l11 17q11 0 11 -15v-2q-11 -6 -11 -12h4v4q7 -4 7 -12h4v6l-4 6q2 0 2 2q4 -2 6 -2l7 2q4 -2 6 -2l-2 4h4v2l-4 6h2q3 -2 7 -2q2 3 2 9h2v-5h4q0 1 2 11l-4 -2h-7q0 13 -12 18l-1 3q1 0 9 10l-2 4q2 3 2 8h-6v6l4 -2v2q0 2 -9 7q-2 0 -2 -2
q-7 2 -8 2q-21 0 -28 -15q-4 0 -9 -6l2 -4v-2l-6 4q0 -4 -11 -8q0 -2 2 -2q-1 -5 -7 -9q-2 0 -2 2q-12 0 -21 -14q0 8 -2 8q11 19 11 23q0 14 -13 17v2h-1q-4 0 -4 -5h-2v3q-4 0 -17 -19q-17 -5 -17 -8v-3h-1l-4 1q0 -1 -2 -1l2 -4v-6q-3 0 -10 -6h-14v-13q-13 0 -13 -24
q-2 0 -2 -2l2 -13q-4 0 -4 -4h-2v4q2 0 2 2l-8 6h-2v-4q8 -10 8 -12q-4 0 -4 -6l-4 2q0 -2 -1 -2v4q5 0 5 4l-4 2q-5 0 -7 -17h-11l-4 -2l2 -4q0 -4 -6 -4q0 -2 2 -2q-9 -10 -9 -17h2v-2q-6 0 -6 -6l-7 6q-9 -4 -10 -8q10 -9 10 -12q-5 0 -10 -3q0 2 -1 2q-3 -9 -8 -10
q-6 4 -11 4q-2 0 -6 -2q-3 2 -5 2q0 -3 -13 -14l-6 4l-7 -4q-24 2 -27 4q-3 -2 -5 -2l-9 2q-17 -1 -17 -4l-2 -4l7 -5h17q19 0 19 -6q0 -3 9 -8q5 -17 8 -17q3 2 5 2l-2 3v6q0 5 17 12q1 0 8 -2l3 2q13 -7 32 -37q5 -8 9 -8q-1 -10 -11 -17q4 0 4 -4h2l3 2l-1 4v2q3 0 3 -4
l4 2h2q9 -5 9 -8q-3 -7 -5 -7l1 -4v-2h-1v4h-6v-8h6v-2l-2 -4h3v-2l-3 -6q2 0 2 -2q11 2 11 4q3 -2 7 -2l-3 -5q6 -6 9 -6v-10q-4 0 -4 6h-4v-6l8 -8v-2l-4 2q-3 0 -11 -11q-4 2 -6 2q-2 -4 -2 -6q0 -4 12 -10v-4l3 2h4v-2q0 -1 -7 -11q-3 0 -10 6l-3 -2q-4 2 -6 2
q0 -4 6 -4v-2h-4q0 4 -6 4v2h4v4q-7 0 -7 3h-4q0 -3 -4 -5q-13 2 -13 5q4 0 4 2q-4 7 -4 12v6q4 4 4 7l4 -2h11v4q-17 0 -17 16q4 -4 7 -4v-4l-1 -4l3 -2h2q0 4 9 10q-3 1 -3 4h5l4 -2l2 4v2h-2q-2 0 -2 -2l-4 2l-9 -2v4h-5v-4h-4l-4 2l2 4v7h-2l-4 -2v4q2 0 13 6v6h-5
q0 2 2 2l-2 4v7h2v-9h2q0 3 3 3v4q0 4 -3 4l1 4v2h-13l2 4h-5l1 -4q-1 0 -13 -6v-4h2l4 2q2 -3 2 -6h2q3 0 3 8h4q0 -6 2 -6q-6 -7 -6 -9h-1l-4 2q0 -2 -2 -2q0 4 -4 4h-2v-4h-3q0 4 -2 4l2 3q0 3 -6 6q0 -6 -4 -6v2h2q-5 6 -5 18q3 0 3 8h-15v-4h4l-2 -4l4 -6q0 -3 -7 -12
l-4 2h-2v-4h7l6 4l2 -9l-4 2q-5 -8 -7 -8l5 -10h-2q-1 0 -1 2l-4 -2h-2v12h-4q2 -11 2 -16l4 2h2q0 -15 18 -15l-1 -4l-10 2h-2q-3 0 -3 -4q13 -8 16 -8v-4h-7q0 -4 -9 -11q1 -4 1 -6q-1 0 -1 -2q3 0 3 -4q-2 0 -16 -23q-11 -8 -15 -17l3 -6v-4l-3 2q0 -10 -10 -10
q0 -1 6 -5l4 2l3 -2q0 6 15 11q0 11 10 16l5 7h-2q0 4 28 22l10 -2h1q0 5 4 5v-1l-2 -4h2q2 0 2 2q17 -6 17 -10v-2l-4 -6q2 -3 2 -8q-7 0 -7 -3h3v-2q0 -4 -3 -4l1 -10l-1 -4q3 0 3 -2q-2 -3 -2 -5l4 2h2q3 0 6 -6q-5 0 -12 -6l-3 6q2 0 2 2q-12 5 -12 13l4 -2h4v2
q0 3 -6 6h-5q-9 -12 -38 -17l-9 -20h-21l-5 4h-4v-4h-2q-3 1 -3 4h5v2l-2 4q6 0 6 4v6q-4 0 -4 -4q2 0 2 -2h-2l-5 4h-4q-11 -17 -11 -29q4 -15 9 -24q9 0 22 -36q0 -3 -9 -10q20 -42 47 -42q0 -4 22 -6zM721 787q9 10 9 15q-3 8 -6 8h-7q-4 -1 -8 -10q4 -9 12 -13z
M1054 787h4v2h-4v-2zM1327 791q4 0 5 9l-3 2h-4q-4 0 -4 -4v-2q0 -2 6 -5zM624 792q3 1 3 4q0 4 -3 4l-4 -6zM829 802v2q0 3 5 6h10l-2 -10zM868 802v2h4v-2h-4zM875 802v4h2v-4h-2zM853 808h4v-4q-4 1 -4 4zM976 802h6q3 1 3 4v8h-5q-4 0 -4 -4v-8zM872 806v4h2v-4h-2z
M879 810v8h2v-8h-2zM1161 812h2q3 0 3 4q0 3 -3 3h-2q-4 0 -4 -3q1 -4 4 -4zM1274 812q14 2 14 7v8q0 4 -12 8q-8 -4 -9 -8v-8q0 -3 7 -7zM861 816q0 3 -6 3v8l4 6q0 5 -4 12q8 3 11 3q2 -2 2 -11q15 1 15 11l9 -1q19 15 21 15h2q0 -5 3 -10q-7 0 -7 -7h-2l-4 2q0 -4 -3 -4
l-4 2l-6 -8v-2l6 4h4q-2 -8 -21 -8q0 2 -2 2q-7 -12 -18 -17zM885 816l-2 7h4l1 -7h-3zM1036 816q4 0 4 3v4q-4 0 -4 -4v-3zM767 818l2 3v2h-5v-2q0 -3 3 -3zM1170 819h4v2h-4v-2zM1105 823q4 1 4 4h-4v-4zM1176 823q13 0 24 12q-2 23 -21 23q-15 -5 -15 -17t12 -18z
M696 829l2 4v2h-2q-3 0 -3 -4zM922 835v2h4v-2h-4zM1030 835l-2 4l4 2l2 -4zM1912 835h2v4h-2v-4zM831 839v4h2v-4h-2zM859 841h3v2h-3v-2zM922 845v2h6v-2h-6zM827 848q1 4 4 4h2q0 -4 -4 -4h-2zM870 850v4q4 0 4 -4h-4zM892 852q1 4 4 4v-4h-4zM1422 850l3 6l-3 2h-4v-4
q1 -4 4 -4zM627 866h2v6h-2q-3 0 -3 -4zM1088 872v2h4v-2h-4zM788 874q0 3 4 3v-3h-4zM1403 875h4v4h-4v-4zM1425 875h4v2h-4v-2zM715 879q3 2 8 2v2q0 4 -4 4h-2q-4 0 -4 -4zM1176 899h3q4 0 4 4q0 2 -6 5q-2 0 -5 -5q0 -4 4 -4zM1021 908l2 4l-10 -2h-1v4h-2q-4 0 -4 -6
q-4 2 -6 2v4h4v4h-2l-3 -2v8l3 -2q2 0 2 2l4 -2h4q0 6 3 6q2 -4 2 -6h4v8h2q0 -6 3 -6l12 9q3 -1 5 -1q2 3 2 5q3 0 6 -5v-6q-23 0 -23 -23q-4 5 -7 5zM538 906h4q0 3 -6 6h-2v-2q1 -4 4 -4zM1304 908l2 4l-4 2l-1 -4zM989 912v2h4v-2h-4zM877 914q0 6 -3 6v2h1q4 -2 6 -2
v-2q0 -4 -4 -4zM1222 914v6q-3 0 -3 -4zM693 918h3q3 0 6 6v9q0 6 -7 6q-9 -4 -10 -7q0 -11 8 -14zM1254 918q4 1 4 4v4h-4q-4 0 -4 -4q1 -4 4 -4zM877 926v2h4v-2h-4zM892 926q0 4 -5 4q1 3 1 7q4 0 6 -9v-2h-2zM900 930l-2 3h5q0 -3 -3 -3zM985 930v3h2v-3h-2zM918 932
q0 2 -2 5q2 0 6 2q0 -2 2 -2q0 8 6 8v-2q-2 -4 -2 -6q2 0 2 -2h-2l-4 2q0 -5 -6 -5zM777 933v4h3q0 -4 -3 -4zM1023 933v2h3v-2h-3zM866 935v4h6v-2q-2 0 -6 -2zM907 935v4h4v-4h-4zM1064 935v2h3v-2h-3zM598 935q9 5 9 8v2q0 4 -9 6q-8 -3 -12 -10q2 -6 12 -6zM1032 937v6
h2v-6h-2zM1131 937v4h2v-4h-2zM999 939q0 2 -2 6h5v-2q0 -4 -3 -4zM892 947l4 2h2l2 -8q-8 3 -8 6zM1045 943v4h2v-4h-2zM1010 945v4h2v-4h-2zM924 951v4h4v-8q-4 1 -4 4zM918 949v2h4v-2h-4zM1082 949v2h4v-2h-4zM849 949l4 2q0 -2 2 -2l4 8l-4 2h-2v-2l2 -4h-6v-4z
M885 955v2q3 0 3 -4v-2q-3 0 -3 4zM1265 949l4 6q0 4 -4 4h-2q-3 0 -3 -4q0 -3 5 -6zM786 955v7h6q-4 -4 -4 -7h-2zM920 960v2q13 0 13 4l-2 4l8 6v-2l-2 -10l4 -2q0 2 2 2q-4 -6 -4 -9q-4 0 -19 5zM905 957v5h2v-5h-2zM909 962v10h2q0 -5 9 -6q-2 -3 -2 -9q-4 5 -9 5z
M793 959v5h2v-5h-2zM881 966v4q0 3 6 6v-2l-2 -4q3 -2 5 -2q-3 -5 -3 -8q-3 0 -6 6zM870 964v4q0 4 4 4v-8h-4zM926 964v2h4v-2h-4zM913 974h11v8q0 4 -4 4h-2q0 -8 -11 -8l8 10v1h-4v4q7 -1 7 -5q4 0 4 3q-2 0 -2 2q4 1 4 4h-2l2 4q-2 3 -2 8h6v-2q0 -2 -2 -2q3 -8 5 -8
l4 2h2v-2q-9 -1 -9 -6v-9h2q0 7 5 7v-1l-5 -8h3q0 -4 -5 -4v-4l2 -4q-17 2 -17 6zM1110 968v2l2 4q4 -2 6 -2v-4h-8zM1157 970v2h4v-2h-4zM805 972q0 4 3 4h2q0 -4 -4 -4h-1zM941 976v2h3v-2h-3zM935 982q0 2 6 6v-6h-6zM967 982l-2 4l4 2h2v-2q0 -4 -4 -4zM812 984
q0 4 -4 4v1h4l2 -3v-2h-2zM957 984v4h2v-4h-2zM954 986v5h2v-5h-2zM816 988q0 3 -4 3v6h2v-4l7 2h2v-2q-5 0 -5 -5h-2zM887 988v1l3 -1q4 0 4 3v2h-7q0 3 -10 18h4q4 -2 6 -2q0 4 5 4l-2 3l-3 -1l-6 3h-4q0 -3 -3 -7q1 -4 1 -8q-9 0 -9 -8l4 -2h5v8q4 0 4 -6v-6q3 -1 8 -1z
M1200 989l4 8h-4q-4 0 -4 -4l-4 2h-1v-4zM1237 989h4q0 4 -4 4v-4zM756 991l4 6v2q0 4 -4 4q-3 0 -5 -6q0 -3 5 -6zM941 993v8l2 10q-2 0 -2 2h5q6 -10 10 -10v-2h-6q0 4 -4 4h-2v-12h-3zM1209 993q4 0 4 6h2l5 -4q4 1 4 4v12l-5 -4q0 6 -4 6q0 -2 -2 -2l2 -4v-2h-2l-4 2
q-3 -2 -5 -2v-2l1 -4q-1 0 -1 -2q5 0 5 -4zM896 999l-2 4h2q3 -2 7 -2v-2h-7zM913 999v2h3v-2h-3zM903 1005l4 2v-6q-4 1 -4 4zM972 1001v4h2q4 0 4 -4h-6zM999 1003l-2 4q-6 -2 -6 -4q-4 2 -6 2q0 4 10 11l-2 14l4 -2h2l-2 4q26 16 26 19h3v-2l-1 -9q3 0 3 -4q-2 0 -11 -23
l-4 2h-1q0 -12 -13 -12zM1151 1001v4h4v-4h-4zM1487 999h4v6h-4v-6zM814 1003q4 5 4 8q3 -2 5 -2q0 -5 -9 -6zM930 1005v2l7 2v-6h-2q-4 2 -5 2zM1144 1005v4h2v-4h-2zM974 1007v4q0 5 6 5v2q0 4 -4 4q0 -3 -5 -6l-4 6l5 4q1 -4 4 -4q0 6 6 6q2 -6 3 -6l-1 -4q1 -3 1 -5z
M1153 1007q0 4 -2 8h4v-8h-2zM836 1009v4h4v-4h-4zM760 1009q11 0 11 9h-6q-2 0 -5 -5v-4zM918 1015v1h8q-2 -3 -2 -5h-2q-4 0 -4 4zM1127 1015h4v-4q-4 0 -4 4zM1049 1013v3h4v-3h-4zM1232 1011h5v4h-2q-3 0 -3 -4zM987 1015v7q4 -2 6 -2q0 -2 -6 -5zM1138 1018v2q3 0 8 4
h7v-6q-3 0 -7 -3h-4q-4 0 -4 3zM1179 1016v2h4v-2h-4zM1232 1016h1l-1 10h-4v-6q0 -4 4 -4zM827 1020q3 8 6 8v-4q0 -4 -4 -4h-2zM1174 1020v2h3v-2h-3zM872 1020h3v2h-3v-2zM1075 1022v2h4v-2h-4zM1196 1020h4q7 10 11 10v2l4 -2h5q5 0 17 23l-11 16h-6q-5 -14 -11 -14
q0 2 -2 2q-5 -17 -9 -21q2 -4 2 -6h-2l2 -4v-2q-5 4 -8 4v2h6v4h-4q-4 0 -5 -10l3 -2l4 2v-4zM818 1028h2q3 0 3 -4h-2q-3 1 -3 4zM896 1024l2 4h-2l2 4q-5 9 -8 10l-2 -4l2 -4q-3 0 -3 -4q4 0 9 -6zM827 1028v4h2v-4h-2zM831 1034l3 2q0 -2 2 -6h-2q-3 1 -3 4zM840 1030v4
h2v-4h-2zM913 1030q0 3 5 6h2v-6h-7zM950 1030v2h4v-2h-4zM933 1042v2q8 -2 11 -10v-2q-11 7 -11 10zM1148 1032v4h3v-4h-3zM1034 1036v2h4v-2h-4zM972 1038v4h2v-4h-2zM844 1040q0 4 3 4h2v-4h-5zM909 1040q0 5 -2 5l2 4l-2 4q6 0 9 2v-8h6v4l4 -2h4v8h1q0 -8 2 -8
q-1 -5 -9 -9l-9 2q-4 -2 -6 -2zM1032 1040v5h2q0 -2 2 -5h-4zM1038 1040v4h2v-4h-2zM833 1042v7h3q-2 -3 -2 -7h-1zM1153 1042v5q2 0 6 2v-2q0 -2 -6 -5zM1196 1040q4 0 4 4h-4v-4zM1217 1042q0 3 3 3v-3h-3zM838 1044v5h4v-5h-4zM866 1044h2q3 0 7 7v4h-5v-4h-2v6h-4
q2 -8 2 -13zM943 1049v4h1v-4h-1zM818 1051l2 4l-4 6h2q3 0 3 -4v-6h-3zM823 1057h4v-4q-4 1 -4 4zM922 1053q1 4 4 4h2q0 -4 -4 -4h-2zM1105 1053v4h2v-4h-2zM846 1055v4h1v-4h-1zM900 1055v4h2v-4h-2zM941 1055v2h3v-2h-3zM997 1055v6q2 0 5 2v-6q-2 0 -5 -2zM1092 1055v2
h3v-2h-3zM1181 1055h2l-2 4v2h2v-4h4v6h-6l2 4h-4q0 -2 -2 -6q2 0 2 -2q-2 0 -2 -2zM1220 1057q1 4 4 4l2 -4h-6zM935 1061v4h2v-4h-2zM1166 1061h2v4h-2v-4zM825 1065v4h2v-4h-2zM892 1065v4h2v-4h-2zM898 1065v4h2v-4h-2zM969 1065q0 6 -2 13l15 -7v-2h-8v-4h-5z
M1008 1065v2q0 4 4 4h1v-4q-2 0 -5 -2zM1192 1063v4h-3q0 -4 3 -4zM818 1067v4q3 0 3 -4h-3zM1161 1065l3 2q0 -2 2 -2v4h-5v-4zM799 1067h4q0 4 -4 4v-4zM1192 1067h4q0 4 -4 4v-4zM1026 1071v1h4v-1h-4zM946 1072v2h4v-2h-4zM1200 1071l2 9h-4l-2 -8zM1202 1071h3v1h-3v-1
zM952 1078v2h4q0 -2 1 -6h-1q-4 1 -4 4zM1045 1074v6h11q0 -4 -3 -4l-4 2q0 -4 -4 -4zM974 1078v2h6v-2h-6zM995 1078v6h4v-2q0 -4 -4 -4zM939 1080v2h4v-2h-4zM1006 1080q0 5 -15 14l2 9q15 -19 15 -21v-2h-2zM965 1082l-2 10q-4 0 -4 -8h-3l1 4v4h-1l-4 -2l-2 4q0 3 6 6
v-4h1q4 0 4 4h-4v5h2q0 -5 4 -5v3h4q0 -5 11 -11q0 2 2 2l2 -4q0 -3 -6 -6h-2q0 8 -5 8v-8zM1172 1080l2 4l-4 2l-2 -4zM825 1082v8h-4v-4q1 -4 4 -4zM1114 1084v2l8 2h1v-2l-7 -2h-2zM941 1086v2q2 4 2 6h1v-6zM946 1086v4h4v-4h-4zM834 1086h4v4h-4v-4zM1010 1092l3 2
q0 -4 6 -4v-2h-6q-3 1 -3 4zM1166 1088h8l5 4q-4 23 -9 23q-4 0 -11 -17q3 -9 7 -10zM930 1092v8h1q0 -5 2 -8h-3zM1194 1090h4v2h-4v-2zM833 1092h1v4h-1v-4zM1053 1094l1 4q-1 3 -1 7l3 2l2 -4l-4 -2l2 -3v-4h-3zM1058 1094v2h4v-2h-4zM1127 1094v2h4v-2h-4zM976 1096v2h4
v-2h-4zM1026 1096l-1 7q3 0 3 6h2v-13h-4zM931 1113q2 0 12 8h1q0 -4 4 -4v-2h-4v-2q0 -5 8 -6q-3 -9 -6 -9h-2q-2 0 -13 15zM1062 1101v2h4q3 0 3 -3l-3 -2q-4 0 -4 3zM1230 1096h3v2h-3v-2zM972 1111q-1 -4 -1 -6h-4q-4 1 -4 4l-4 -2h-2v4q12 0 12 14h2l3 -2l-2 -4
q1 -4 4 -4q0 6 4 6q0 -5 5 -14v-7h-1q-2 0 -12 11zM1071 1100v3h2v-3h-2zM1082 1101v4h6q0 -4 -4 -4h-2zM1041 1103v4q2 0 2 2h-3v2q0 4 3 4q4 0 6 -12l-6 4v-4h-2zM1138 1105v2h6v-4q-4 2 -6 2zM1233 1101h4q0 5 2 8h-4v-4h-2q0 4 -5 4l2 4q-6 10 -10 10q-7 -3 -7 -6
q3 -8 6 -8v2q5 -1 14 -10zM944 1103h4v2h-4v-2zM995 1107v4h2v-4h-2zM1032 1107v4q4 0 4 -4h-4zM1058 1107l-2 12h4l2 -10l4 2h1v-4h-3l-4 2q0 -2 -2 -2zM1114 1107v4h2v-4h-2zM810 1107l2 4v2h-2l-9 -2v-2zM1051 1109v2h3v-2h-3zM1069 1109v4h2v-4h-2zM1273 1107h3v2h-3v-2
zM1435 1109h4q2 0 5 6q0 3 -7 8h-2q-4 0 -6 -10zM995 1113v2h4v-2h-4zM1103 1113v4h2v-4h-2zM1073 1117v2h4v-2h-4zM1260 1115h1v4h-1v-4zM1371 1117h10q2 0 5 6q0 2 -5 5h-2q-3 0 -8 -7v-4zM952 1123v2h4v-2h-4zM868 1128v2h4v-5q-4 0 -4 3zM1084 1123h2q0 3 4 7q0 4 -4 4
l-2 -4v-7zM1032 1130v6h2v-6h-2zM1265 1128h2q4 1 4 4v2h-8q2 -3 2 -6zM963 1132v2h4v-2h-4zM997 1132v4h3q0 -4 -3 -4zM1015 1132l-2 4h6q0 -4 -4 -4zM1200 1130h4q0 4 -4 4v-4zM1012 1138v2h3v-2h-3zM1090 1136h2v4h-2v-4zM857 1142v4q4 0 4 -4h-4zM907 1144v2h4v-2h-4z
M892 1146v4h2v-4h-2zM1034 1146v6h2q0 -2 2 -6h-4zM853 1148v2h4v-2h-4zM864 1148v4h2v-4h-2zM1008 1148v2h4v-2h-4zM1013 1150v4q4 0 4 -4h-4zM1280 1148q4 0 4 4v4h-2q-4 -2 -6 -2v-2q1 -4 4 -4zM1233 1150h2v11q0 2 -9 10l-2 -4q2 -4 2 -6q-4 0 -4 -4v-1q2 -6 11 -6z
M862 1154v2h4v-2h-4zM1159 1156q7 2 7 5v4q0 4 -3 4h-2q-3 0 -10 -10zM765 1159v4h2v-4h-2zM769 1159q1 4 4 4v-4h-4zM1347 1157q4 1 4 4q0 5 -2 8q2 3 2 8l-6 4h-2q-2 0 -7 -8q4 0 7 -16h4zM1006 1159h2v2q0 4 -4 4h-2v-2q1 -4 4 -4zM1302 1159q12 7 12 18q0 4 -4 4h-2
l-11 -14q3 -8 5 -8zM840 1163v6h4v-6h-4zM978 1163v2h4v-2h-4zM721 1163h9v8q0 3 -6 6q-11 -2 -11 -6q0 -3 8 -8zM909 1165v4h2v-4h-2zM732 1165h2v4h-2v-4zM855 1167v4h2v-4h-2zM1118 1165q3 0 5 6v10h-5q-3 0 -6 -6v-4q0 -3 6 -6zM1028 1167h2q4 2 6 2v6h-4l2 -4h-2l-4 2
v-6zM719 1171v2h4v-2h-4zM905 1171v2h4v-2h-4zM864 1173v6h2v-6h-2zM900 1177v4q3 0 3 -4h-3zM874 1184v4q2 0 5 2l2 -9q-5 3 -7 3zM861 1184h1q4 1 4 4v2h-2q-3 0 -3 -4v-2zM883 1186v4h2v-4h-2zM890 1188v2h8v-2h-8zM1122 1186q1 4 1 6l4 -2q4 1 4 4v2l-13 16h-4
q-3 0 -5 -6q0 -10 9 -14q0 -6 4 -6zM1163 1186h3q3 0 15 20q-4 16 -4 19q15 0 15 17q13 3 13 8v6q0 4 -3 4h-4q-22 -15 -22 -21q0 -12 -19 -31v-2l-4 2q-3 0 -3 -4v-2q10 -16 13 -16zM1226 1186h4v6q0 4 -4 4q0 -2 -2 -2q2 -3 2 -8zM874 1196h3v-4q-3 1 -3 4zM1051 1190h5v2
q-3 9 -7 10h-4v-6q0 -3 6 -6zM1209 1190h4q4 1 4 4v6q0 4 -4 4h-4q-4 0 -4 -4v-6q1 -4 4 -4zM1299 1192h2q3 1 3 4t-5 6q-4 0 -4 -4v-2q1 -4 4 -4zM881 1196v2h4v-2h-4zM888 1196v4h2v-4h-2zM920 1196q1 4 4 4v-4h-4zM930 1196v4h3q0 -4 -3 -4zM902 1202h3v-4q-3 1 -3 4z
M1412 1196l2 4q0 4 -5 4q-4 -2 -6 -2v-4zM1135 1200h3v4h-3v-4zM1228 1200q0 1 4 6q-3 9 -6 9h-2q-3 0 -5 -5v-4q0 -5 9 -6zM1289 1202l2 4l-11 6l-2 -4q0 -4 11 -6zM892 1206l-2 4v2q2 0 6 1l4 -5q-5 0 -8 -2zM1051 1204h3v2h-3v-2zM1638 1208h4q4 0 4 4v3q0 4 -4 4h-2
q-4 0 -6 -9zM1081 1213h1q5 0 6 10l-4 2h-2q-3 0 -3 -6q2 -3 2 -6zM902 1217v2h5v-2h-5zM924 1217v4h2v-4h-2zM1146 1217h2v4q0 4 -4 4l-2 -4q1 -4 4 -4zM905 1223v2h4v-2h-4zM1282 1221h4q2 0 11 14q-13 0 -19 27h4q3 0 9 -10l-2 -4v-4q0 -2 6 -5h2q3 0 5 5l-1 12q1 4 1 6
q-4 11 -7 11h-2q-2 0 -2 -2l-11 6h-2q-4 0 -4 -4v-5l2 -4q-15 -11 -15 -14v-4q8 0 8 -9q7 0 9 -14zM1718 1223h2v6h-2q-4 0 -4 -4zM820 1225h3v2h-3v-2zM900 1227v2q0 4 3 4v-6h-3zM1164 1225h4q0 4 -4 4v-4zM1370 1227q2 0 5 6v2q0 4 -4 4h-1q-3 0 -6 -6q0 -3 6 -6z
M1211 1231q8 3 8 6v2q-4 7 -12 7q-3 -6 -3 -11q4 -4 7 -4zM1040 1233h1v2q0 4 -3 4h-2v-2q0 -4 4 -4zM1151 1237q4 0 4 4v1q0 4 -4 4q-3 0 -3 -4v-1q0 -4 3 -4zM1228 1239q7 3 7 11l-5 4h-2q-3 0 -6 -6v-4q0 -2 6 -5zM1317 1241h4v1h-4v-1zM1491 1244h5q4 1 4 4v6q0 4 -4 4
h-2q-7 -4 -7 -12zM987 1258q4 6 4 10q-3 1 -7 1v2q5 0 5 6h2q0 -3 6 -9l-4 -8q2 0 2 -2q-2 0 -2 -2q2 0 2 -2h-4q-4 1 -4 4zM1023 1269q5 7 5 10q4 0 4 -4q-6 0 -6 -6h-3zM1120 1269h3v6q-3 0 -3 -4v-2zM1040 1279v2h3v-2h-3zM984 1285h3v-4q-3 1 -3 4zM1015 1281v6h4
q0 -2 2 -6h-6zM1202 1279v6q-4 0 -4 -4zM1045 1283l-2 4l4 2h2v-2q0 -4 -4 -4zM999 1285v4q3 0 3 -4h-3zM1053 1285v2q1 4 1 6q-2 0 -5 7q2 0 2 2h-4l-4 -2v4q1 4 4 4q0 -3 6 -6h1l4 2l2 -4l4 2h2v-2l-2 -3l-4 1h-4v-13h-3zM1109 1293v4h3v-4h-3zM985 1295v2h4v-2h-4z
M1118 1298v2h4v-2h-4zM1534 1298h3q5 0 6 10l-6 4h-3q-4 0 -4 -4v-6q0 -4 4 -4zM1116 1308v4h2v-4h-2zM974 1310v2h4v-2h-4zM1109 1314v4h1v-4h-1zM1278 1312h4q0 4 -4 4v-4zM972 1318v2h4v-2h-4zM1144 1316l15 11q9 0 17 14h5v6q0 6 -7 6l2 9q-5 0 -12 10q-1 -4 -1 -6h-4
q0 6 -4 6h-2q-17 -13 -17 -16l2 -9h-3q0 -5 1 -8q-1 -4 -1 -6q3 -2 7 -2v-4q0 -3 -6 -3v-2q0 -2 8 -6zM1062 1322v3h2v-3h-2zM1144 1324v1h4v-1h-4zM1054 1325v4h2v-4h-2zM1058 1325v4h2v-4h-2zM1146 1327v2q2 0 5 2l2 -4q-2 0 -2 -2q-3 2 -5 2zM1006 1327v8l4 -2q0 2 2 2
v-4q-4 0 -4 -4h-2zM995 1329v4h2v-4h-2zM1161 1333q2 4 2 6h1v-8zM1239 1331h2q3 0 5 6v8q0 4 -3 4h-2q-3 0 -8 -8v-4q0 -3 6 -6zM1109 1335v4h1v-4h-1zM1010 1337q3 6 3 10h2v-4h2v4h4q0 -2 2 -6l-6 -4v2l-4 -2h-3zM1150 1337q0 4 3 4v-4h-3zM1140 1345v2l4 -2l4 2
q0 -2 2 -6l-4 -2q-3 0 -6 6zM1321 1339l4 6v8q0 5 -8 5q-7 -3 -7 -5v-8q2 -6 11 -6zM1166 1343v4h2v-4h-2zM1174 1343v4h2v-4h-2zM1127 1343h4v2h-4v-2zM1161 1345v4h3v-4h-3zM1299 1345h3q4 0 4 4v2q0 2 -5 5q-3 0 -6 -5v-2q1 -4 4 -4zM1582 1349v4h2v-4h2q4 0 4 4v1
q0 4 -4 4h-2q-3 0 -6 -5q1 -4 4 -4zM1155 1354l2 10h7v-4q-5 0 -5 -6h-4zM1164 1354v2q4 0 4 4h4v-6h-8zM1142 1358v2h6v-4q-4 2 -6 2zM1150 1360v6h1v-6h-1zM1511 1364h2q3 0 6 6v2q0 4 -4 4h-2q-3 0 -5 -6v-2q0 -4 3 -4zM1088 1376q6 4 9 4q1 -4 4 -4q0 2 2 2l-2 3l2 10
q-4 9 -8 10h-3q-4 -1 -8 -10q0 -3 4 -15zM1157 1378h4q3 0 3 3v6q0 3 -5 6l-2 -4h4v-8h-4v-3zM991 1381h4q2 0 5 6q0 10 -5 12h-6q-4 0 -4 -4v-8q0 -2 6 -6zM1394 1403h5l2 9h-2q-2 0 -5 -5v-4zM1714 1424q4 1 4 4v4h-4q-3 0 -3 -4t3 -4zM987 1436h2v3h-5q0 -3 3 -3z
M1105 1445l2 4v2q0 4 -4 4l-2 -4v-2q1 -4 4 -4zM1321 1468h2q3 0 6 6v4q0 4 -4 4h-2q-6 -2 -6 -12zM1066 1482q5 7 5 13q-6 12 -9 12h-2q-2 0 -9 -10q0 -15 15 -15zM1056 1492v3q4 -2 6 -2v-1h-6zM1019 1492h2q3 0 5 5v6q0 3 -7 8q-7 -3 -7 -6v-6q0 -3 7 -7zM1015 1497v2
q0 3 6 6h2v-2q-2 -4 -2 -6h-6zM1060 1497q1 4 4 4v-4h-4zM1386 1517q4 2 6 2v3q0 4 -4 4t-4 -4v-1zM952 1522h4v2h-4v-2zM1133 1577q2 0 5 5v6q0 4 -3 4h-4q-4 0 -4 -4v-6q0 -2 6 -5zM1558 1634v4h-4q1 -4 4 -4zM1373 1694h2q4 1 4 4v6h-2q-4 0 -4 -4v-6zM1260 1733l1 4
l-3 2l-2 -4zM1569 1911h4v2h-4v-2zM361 1945h2q2 0 5 6v2q0 4 -3 4h-2q-3 0 -6 -6v-2q1 -4 4 -4z" class="colorcurrentColor svgShape"></path></svg></g></svg>